  0
SECTION
  2
HEADER
  9
$ACADVER
  1
AC1009
  9
$DWGCODEPAGE
  3
ansi_1252
  9
$INSBASE
 10
0.0
 20
0.0
 30
0.0
  9
$EXTMIN
 10
1.000000000000000E+20
 20
1.000000000000000E+20
 30
1.000000000000000E+20
  9
$EXTMAX
 10
-1.000000000000000E+20
 20
-1.000000000000000E+20
 30
-1.000000000000000E+20
  9
$LIMMIN
 10
0.0
 20
0.0
  9
$LIMMAX
 10
12.0
 20
9.0
  9
$ORTHOMODE
 70
     0
  9
$REGENMODE
 70
     1
  9
$FILLMODE
 70
     1
  9
$QTEXTMODE
 70
     0
  9
$MIRRTEXT
 70
     1
  9
$DRAGMODE
 70
     2
  9
$LTSCALE
 40
1.0
  9
$OSMODE
 70
    37
  9
$ATTMODE
 70
     1
  9
$TEXTSIZE
 40
0.2
  9
$TRACEWID
 40
0.05
  9
$TEXTSTYLE
  7
STANDARD
  9
$CLAYER
  8
0
  9
$CELTYPE
  6
BYLAYER
  9
$CECOLOR
 62
   256
  9
$DIMSCALE
 40
1.0
  9
$DIMASZ
 40
0.18
  9
$DIMEXO
 40
0.0625
  9
$DIMDLI
 40
0.38
  9
$DIMRND
 40
0.0
  9
$DIMDLE
 40
0.0
  9
$DIMEXE
 40
0.18
  9
$DIMTP
 40
0.0
  9
$DIMTM
 40
0.0
  9
$DIMTXT
 40
0.18
  9
$DIMCEN
 40
0.09
  9
$DIMTSZ
 40
0.0
  9
$DIMTOL
 70
     0
  9
$DIMLIM
 70
     0
  9
$DIMTIH
 70
     1
  9
$DIMTOH
 70
     1
  9
$DIMSE1
 70
     0
  9
$DIMSE2
 70
     0
  9
$DIMTAD
 70
     0
  9
$DIMZIN
 70
     0
  9
$DIMBLK
  1

  9
$DIMASO
 70
     1
  9
$DIMSHO
 70
     1
  9
$DIMPOST
  1

  9
$DIMAPOST
  1

  9
$DIMALT
 70
     0
  9
$DIMALTD
 70
     2
  9
$DIMALTF
 40
25.4
  9
$DIMLFAC
 40
1.0
  9
$DIMTOFL
 70
     0
  9
$DIMTVP
 40
0.0
  9
$DIMTIX
 70
     0
  9
$DIMSOXD
 70
     0
  9
$DIMSAH
 70
     0
  9
$DIMBLK1
  1

  9
$DIMBLK2
  1

  9
$DIMSTYLE
  2
STANDARD
  9
$DIMCLRD
 70
     0
  9
$DIMCLRE
 70
     0
  9
$DIMCLRT
 70
     0
  9
$DIMTFAC
 40
1.0
  9
$DIMGAP
 40
0.09
  9
$LUNITS
 70
     2
  9
$LUPREC
 70
     4
  9
$SKETCHINC
 40
0.1
  9
$FILLETRAD
 40
0.5
  9
$AUNITS
 70
     0
  9
$AUPREC
 70
     0
  9
$MENU
  1
.
  9
$ELEVATION
 40
0.0
  9
$PELEVATION
 40
0.0
  9
$THICKNESS
 40
0.0
  9
$LIMCHECK
 70
     0
  9
$CHAMFERA
 40
0.5
  9
$CHAMFERB
 40
0.5
  9
$SKPOLY
 70
     0
  9
$TDCREATE
 40
2456712.579511655
  9
$TDUPDATE
 40
2456712.579511667
  9
$TDINDWG
 40
0.0000000116
  9
$TDUSRTIMER
 40
0.0000000116
  9
$USRTIMER
 70
     1
  9
$ANGBASE
 50
0.0
  9
$ANGDIR
 70
     0
  9
$PDMODE
 70
     0
  9
$PDSIZE
 40
0.0
  9
$PLINEWID
 40
0.0
  9
$COORDS
 70
     1
  9
$SPLFRAME
 70
     0
  9
$SPLINETYPE
 70
     6
  9
$SPLINESEGS
 70
     8
  9
$ATTDIA
 70
     0
  9
$ATTREQ
 70
     1
  9
$HANDLING
 70
     1
  9
$HANDSEED
  5
3E2
  9
$SURFTAB1
 70
     6
  9
$SURFTAB2
 70
     6
  9
$SURFTYPE
 70
     6
  9
$SURFU
 70
     6
  9
$SURFV
 70
     6
  9
$UCSNAME
  2

  9
$UCSORG
 10
0.0
 20
0.0
 30
0.0
  9
$UCSXDIR
 10
1.0
 20
0.0
 30
0.0
  9
$UCSYDIR
 10
0.0
 20
1.0
 30
0.0
  9
$PUCSNAME
  2

  9
$PUCSORG
 10
0.0
 20
0.0
 30
0.0
  9
$PUCSXDIR
 10
1.0
 20
0.0
 30
0.0
  9
$PUCSYDIR
 10
0.0
 20
1.0
 30
0.0
  9
$USERI1
 70
     0
  9
$USERI2
 70
     0
  9
$USERI3
 70
     0
  9
$USERI4
 70
     0
  9
$USERI5
 70
     0
  9
$USERR1
 40
0.0
  9
$USERR2
 40
0.0
  9
$USERR3
 40
0.0
  9
$USERR4
 40
0.0
  9
$USERR5
 40
0.0
  9
$WORLDVIEW
 70
     1
  9
$SHADEDGE
 70
     3
  9
$SHADEDIF
 70
    70
  9
$TILEMODE
 70
     1
  9
$MAXACTVP
 70
    64
  9
$PLIMCHECK
 70
     0
  9
$PEXTMIN
 10
1.000000000000000E+20
 20
1.000000000000000E+20
 30
1.000000000000000E+20
  9
$PEXTMAX
 10
-1.000000000000000E+20
 20
-1.000000000000000E+20
 30
-1.000000000000000E+20
  9
$PLIMMIN
 10
0.0
 20
0.0
  9
$PLIMMAX
 10
12.0
 20
9.0
  9
$UNITMODE
 70
     0
  9
$VISRETAIN
 70
     1
  9
$PLINEGEN
 70
     0
  9
$PSLTSCALE
 70
     1
  0
ENDSEC
  0
SECTION
  2
TABLES
  0
TABLE
  2
VPORT
 70
     1
  0
VPORT
  2
*ACTIVE
 70
     0
 10
0.0
 20
0.0
 11
1.0
 21
1.0
 12
0.0
 22
0.0
 13
0.0
 23
0.0
 14
0.5
 24
0.5
 15
0.5
 25
0.5
 16
-16.35309372567586
 26
316.0917136538687
 36
54.68947508542536
 17
135.6693895954032
 27
90.86882007203673
 37
13.24939898350867
 40
3378.2
 41
1.3333
 42
50.0
 43
-295.8045046386483
 44
25078.79549536135
 50
0.0
 51
0.0
 71
     0
 72
   100
 73
     1
 74
     3
 75
     0
 76
     0
 77
     0
 78
     0
  0
ENDTAB
  0
TABLE
  2
LTYPE
 70
     1
  0
LTYPE
  2
CONTINUOUS
 70
     0
  3
Solid line
 72
    65
 73
     0
 40
0.0
  0
ENDTAB
  0
TABLE
  2
LAYER
 70
     2
  0
LAYER
  2
0
 70
     0
 62
     7
  6
CONTINUOUS
  0
LAYER
  2
LAYER_1
 70
     0
 62
     7
  6
CONTINUOUS
  0
ENDTAB
  0
TABLE
  2
STYLE
 70
     2
  0
STYLE
  2
STANDARD
 70
     0
 40
0.0
 41
1.0
 50
0.0
 71
     0
 42
0.2
  3
txt
  4

  0
STYLE
  2
TAHOMA
 70
     0
 40
0.0
 41
1.0
 50
0.0
 71
     0
 42
0.2
  3
Tahoma
  4

  0
ENDTAB
  0
TABLE
  2
VIEW
 70
     0
  0
ENDTAB
  0
TABLE
  2
UCS
 70
     0
  0
ENDTAB
  0
TABLE
  2
APPID
 70
     1
  0
APPID
  2
ACAD
 70
     0
  0
ENDTAB
  0
TABLE
  2
DIMSTYLE
 70
     1
  0
DIMSTYLE
  2
STANDARD
 70
     0
  3

  4

  5

  6

  7

 40
1.0
 41
0.18
 42
0.0625
 43
0.38
 44
0.18
 45
0.0
 46
0.0
 47
0.0
 48
0.0
140
0.18
141
0.09
142
0.0
143
25.4
144
1.0
145
0.0
146
1.0
147
0.09
 71
     0
 72
     0
 73
     1
 74
     1
 75
     0
 76
     0
 77
     0
 78
     0
170
     0
171
     2
172
     0
173
     0
174
     0
175
     0
176
     0
177
     0
178
     0
  0
ENDTAB
  0
ENDSEC
  0
SECTION
  2
BLOCKS
  0
BLOCK
  8
0
  2
$MODEL_SPACE
 70
     0
 10
0.0
 20
0.0
 30
0.0
  3
$MODEL_SPACE
  1

  0
ENDBLK
  5
21
  8
0
  0
BLOCK
 67
     1
  8
0
  2
$PAPER_SPACE
 70
     0
 10
0.0
 20
0.0
 30
0.0
  3
$PAPER_SPACE
  1

  0
ENDBLK
  5
1D
 67
     1
  8
0
  0
BLOCK
  8
0
  2
TEST_DXF_1
 70
     0
 10
0.0
 20
0.0
 30
0.0
  3
TEST_DXF_1
  1

  0
LINE
  5
47
  8
LAYER_1
 62
   250
 10
144.0000999999999
 20
156.9991
 30
0.0
 11
1.000099999999985
 21
156.9991
 31
0.0
  0
LINE
  5
48
  8
LAYER_1
 62
   250
 10
1.000099999999985
 20
156.9991
 30
0.0
 11
0.7989999999999969
 21
156.9787
 31
0.0
  0
LINE
  5
49
  8
LAYER_1
 62
   250
 10
0.7989999999999969
 20
156.9787
 30
0.0
 11
0.6114999999999945
 21
156.9202
 31
0.0
  0
LINE
  5
4A
  8
LAYER_1
 62
   250
 10
0.6114999999999945
 20
156.9202
 30
0.0
 11
0.4415999999999949
 21
156.8276
 31
0.0
  0
LINE
  5
4B
  8
LAYER_1
 62
   250
 10
0.4415999999999949
 20
156.8276
 30
0.0
 11
0.2935999999999984
 21
156.7052
 31
0.0
  0
LINE
  5
4C
  8
LAYER_1
 62
   250
 10
0.2935999999999984
 20
156.7052
 30
0.0
 11
0.1712999999999927
 21
156.5568
 31
0.0
  0
LINE
  5
4D
  8
LAYER_1
 62
   250
 10
0.1712999999999927
 20
156.5568
 30
0.0
 11
0.0788999999999914
 21
156.3867
 31
0.0
  0
LINE
  5
4E
  8
LAYER_1
 62
   250
 10
0.0788999999999914
 20
156.3867
 30
0.0
 11
0.0204999999999985
 21
156.199
 31
0.0
  0
LINE
  5
4F
  8
LAYER_1
 62
   250
 10
0.0204999999999985
 20
156.199
 30
0.0
 11
0.0000999999999866
 21
155.9976
 31
0.0
  0
LINE
  5
50
  8
LAYER_1
 62
   250
 10
0.0000999999999866
 20
155.9976
 30
0.0
 11
0.0
 21
149.956
 31
0.0
  0
LINE
  5
51
  8
LAYER_1
 62
   250
 10
0.0000999999999866
 20
6.889299999999986
 30
0.0
 11
0.0
 21
1.000899999999979
 31
0.0
  0
LINE
  5
52
  8
LAYER_1
 62
   250
 10
0.0
 20
1.000899999999979
 30
0.0
 11
0.0047999999999895
 21
0.8967999999999978
 31
0.0
  0
LINE
  5
53
  8
LAYER_1
 62
   250
 10
0.0047999999999895
 20
0.8967999999999978
 30
0.0
 11
0.0192999999999898
 21
0.7965999999999909
 31
0.0
  0
LINE
  5
54
  8
LAYER_1
 62
   250
 10
0.0192999999999898
 20
0.7965999999999909
 30
0.0
 11
0.0433999999999918
 21
0.7000999999999853
 31
0.0
  0
LINE
  5
55
  8
LAYER_1
 62
   250
 10
0.0433999999999918
 20
0.7000999999999853
 30
0.0
 11
0.0769999999999974
 21
0.6076999999999952
 31
0.0
  0
LINE
  5
56
  8
LAYER_1
 62
   250
 10
0.0769999999999974
 20
0.6076999999999952
 30
0.0
 11
0.1201999999999933
 21
0.5192999999999889
 31
0.0
  0
LINE
  5
57
  8
LAYER_1
 62
   250
 10
0.1201999999999933
 20
0.5192999999999889
 30
0.0
 11
0.1727999999999951
 21
0.4349999999999868
 31
0.0
  0
LINE
  5
58
  8
LAYER_1
 62
   250
 10
0.1727999999999951
 20
0.4349999999999868
 30
0.0
 11
0.2349000000000006
 21
0.3549999999999847
 31
0.0
  0
LINE
  5
59
  8
LAYER_1
 62
   250
 10
0.2349000000000006
 20
0.3549999999999847
 30
0.0
 11
0.3064000000000005
 21
0.2793999999999918
 31
0.0
  0
LINE
  5
5A
  8
LAYER_1
 62
   250
 10
0.3064000000000005
 20
0.2793999999999918
 30
0.0
 11
0.3845999999999953
 21
0.2107999999999873
 31
0.0
  0
LINE
  5
5B
  8
LAYER_1
 62
   250
 10
0.3845999999999953
 20
0.2107999999999873
 30
0.0
 11
0.4667999999999963
 21
0.1517999999999958
 31
0.0
  0
LINE
  5
5C
  8
LAYER_1
 62
   250
 10
0.4667999999999963
 20
0.1517999999999958
 30
0.0
 11
0.5527999999999966
 21
0.1022999999999967
 31
0.0
  0
LINE
  5
5D
  8
LAYER_1
 62
   250
 10
0.5527999999999966
 20
0.1022999999999967
 30
0.0
 11
0.6425999999999848
 21
0.0623999999999992
 31
0.0
  0
LINE
  5
5E
  8
LAYER_1
 62
   250
 10
0.6425999999999848
 20
0.0623999999999992
 30
0.0
 11
0.736099999999997
 21
0.0321999999999899
 31
0.0
  0
LINE
  5
5F
  8
LAYER_1
 62
   250
 10
0.736099999999997
 20
0.0321999999999899
 30
0.0
 11
0.83319999999999
 21
0.0115999999999822
 31
0.0
  0
LINE
  5
60
  8
LAYER_1
 62
   250
 10
0.83319999999999
 20
0.0115999999999822
 30
0.0
 11
0.9337999999999885
 21
0.0008999999999811
 31
0.0
  0
LINE
  5
61
  8
LAYER_1
 62
   250
 10
0.9337999999999885
 20
0.0008999999999811
 30
0.0
 11
1.037799999999995
 21
0.0
 31
0.0
  0
LINE
  5
62
  8
LAYER_1
 62
   250
 10
1.037799999999995
 20
0.0
 30
0.0
 11
144.0378
 21
0.0871999999999977
 31
0.0
  0
LINE
  5
63
  8
LAYER_1
 62
   250
 10
144.0378
 20
0.0871999999999977
 30
0.0
 11
144.2334
 21
0.1139999999999881
 31
0.0
  0
LINE
  5
64
  8
LAYER_1
 62
   250
 10
144.2334
 20
0.1139999999999881
 30
0.0
 11
144.4148
 21
0.1763999999999872
 31
0.0
  0
LINE
  5
65
  8
LAYER_1
 62
   250
 10
144.4148
 20
0.1763999999999872
 30
0.0
 11
144.5783
 21
0.2707999999999918
 31
0.0
  0
LINE
  5
66
  8
LAYER_1
 62
   250
 10
144.5783
 20
0.2707999999999918
 30
0.0
 11
144.7204
 21
0.3931999999999953
 31
0.0
  0
LINE
  5
67
  8
LAYER_1
 62
   250
 10
144.7204
 20
0.3931999999999953
 30
0.0
 11
144.8372
 21
0.5398999999999853
 31
0.0
  0
LINE
  5
68
  8
LAYER_1
 62
   250
 10
144.8372
 20
0.5398999999999853
 30
0.0
 11
144.9252
 21
0.7070999999999964
 31
0.0
  0
LINE
  5
69
  8
LAYER_1
 62
   250
 10
144.9252
 20
0.7070999999999964
 30
0.0
 11
144.9807
 21
0.8908999999999863
 31
0.0
  0
LINE
  5
6A
  8
LAYER_1
 62
   250
 10
144.9807
 20
0.8908999999999863
 30
0.0
 11
145.0
 21
1.087599999999987
 31
0.0
  0
LINE
  5
6B
  8
LAYER_1
 62
   250
 10
145.0
 20
1.087599999999987
 30
0.0
 11
145.0
 21
6.883999999999996
 31
0.0
  0
LINE
  5
6C
  8
LAYER_1
 62
   250
 10
145.0
 20
21.11769999999999
 30
0.0
 11
145.0
 21
135.7178
 31
0.0
  0
LINE
  5
6D
  8
LAYER_1
 62
   250
 10
145.0
 20
149.9517
 30
0.0
 11
145.0
 21
155.9977
 31
0.0
  0
LINE
  5
6E
  8
LAYER_1
 62
   250
 10
145.0
 20
155.9977
 30
0.0
 11
144.9796
 21
156.1991
 31
0.0
  0
LINE
  5
6F
  8
LAYER_1
 62
   250
 10
144.9796
 20
156.1991
 30
0.0
 11
144.9211999999999
 21
156.3869
 31
0.0
  0
LINE
  5
70
  8
LAYER_1
 62
   250
 10
144.9211999999999
 20
156.3869
 30
0.0
 11
144.8287999999999
 21
156.5569
 31
0.0
  0
LINE
  5
71
  8
LAYER_1
 62
   250
 10
144.8287999999999
 20
156.5569
 30
0.0
 11
144.7065
 21
156.7052
 31
0.0
  0
LINE
  5
72
  8
LAYER_1
 62
   250
 10
144.7065
 20
156.7052
 30
0.0
 11
144.5584
 21
156.8276
 31
0.0
  0
LINE
  5
73
  8
LAYER_1
 62
   250
 10
144.5584
 20
156.8276
 30
0.0
 11
144.3886
 21
156.9201
 31
0.0
  0
LINE
  5
74
  8
LAYER_1
 62
   250
 10
144.3886
 20
156.9201
 30
0.0
 11
144.2010999999999
 21
156.9786
 31
0.0
  0
LINE
  5
75
  8
LAYER_1
 62
   250
 10
144.2010999999999
 20
156.9786
 30
0.0
 11
144.0000999999999
 21
156.9991
 31
0.0
  0
LINE
  5
76
  8
LAYER_1
 62
     7
 10
14.30499999999999
 20
116.5606
 30
0.0
 11
14.70809999999998
 21
116.52
 31
0.0
  0
LINE
  5
77
  8
LAYER_1
 62
     7
 10
14.70809999999998
 20
116.52
 30
0.0
 11
15.08349999999999
 21
116.4034
 31
0.0
  0
LINE
  5
78
  8
LAYER_1
 62
     7
 10
15.08349999999999
 20
116.4034
 30
0.0
 11
15.42319999999999
 21
116.219
 31
0.0
  0
LINE
  5
79
  8
LAYER_1
 62
     7
 10
15.42319999999999
 20
116.219
 30
0.0
 11
15.71919999999999
 21
115.9747
 31
0.0
  0
LINE
  5
7A
  8
LAYER_1
 62
     7
 10
15.71919999999999
 20
115.9747
 30
0.0
 11
15.96339999999999
 21
115.6787
 31
0.0
  0
LINE
  5
7B
  8
LAYER_1
 62
     7
 10
15.96339999999999
 20
115.6787
 30
0.0
 11
16.14779999999999
 21
115.3389
 31
0.0
  0
LINE
  5
7C
  8
LAYER_1
 62
     7
 10
16.14779999999999
 20
115.3389
 30
0.0
 11
16.26439999999999
 21
114.9634
 31
0.0
  0
LINE
  5
7D
  8
LAYER_1
 62
     7
 10
16.26439999999999
 20
114.9634
 30
0.0
 11
16.30499999999999
 21
114.5603
 31
0.0
  0
LINE
  5
7E
  8
LAYER_1
 62
     7
 10
16.30499999999999
 20
114.5603
 30
0.0
 11
16.26439999999999
 21
114.1573
 31
0.0
  0
LINE
  5
7F
  8
LAYER_1
 62
     7
 10
16.26439999999999
 20
114.1573
 30
0.0
 11
16.14779999999999
 21
113.7818
 31
0.0
  0
LINE
  5
80
  8
LAYER_1
 62
     7
 10
16.14779999999999
 20
113.7818
 30
0.0
 11
15.96339999999999
 21
113.4421
 31
0.0
  0
LINE
  5
81
  8
LAYER_1
 62
     7
 10
15.96339999999999
 20
113.4421
 30
0.0
 11
15.71919999999999
 21
113.1461
 31
0.0
  0
LINE
  5
82
  8
LAYER_1
 62
     7
 10
15.71919999999999
 20
113.1461
 30
0.0
 11
15.42319999999999
 21
112.9019
 31
0.0
  0
LINE
  5
83
  8
LAYER_1
 62
     7
 10
15.42319999999999
 20
112.9019
 30
0.0
 11
15.08349999999999
 21
112.7175
 31
0.0
  0
LINE
  5
84
  8
LAYER_1
 62
     7
 10
15.08349999999999
 20
112.7175
 30
0.0
 11
14.708
 21
112.6009
 31
0.0
  0
LINE
  5
85
  8
LAYER_1
 62
     7
 10
14.708
 20
112.6009
 30
0.0
 11
14.30499999999999
 21
112.5603
 31
0.0
  0
LINE
  5
86
  8
LAYER_1
 62
     7
 10
14.30499999999999
 20
112.5603
 30
0.0
 11
13.90199999999999
 21
112.601
 31
0.0
  0
LINE
  5
87
  8
LAYER_1
 62
     7
 10
13.90199999999999
 20
112.601
 30
0.0
 11
13.52659999999999
 21
112.7176
 31
0.0
  0
LINE
  5
88
  8
LAYER_1
 62
     7
 10
13.52659999999999
 20
112.7176
 30
0.0
 11
13.18689999999999
 21
112.902
 31
0.0
  0
LINE
  5
89
  8
LAYER_1
 62
     7
 10
13.18689999999999
 20
112.902
 30
0.0
 11
12.89089999999999
 21
113.1462
 31
0.0
  0
LINE
  5
8A
  8
LAYER_1
 62
     7
 10
12.89089999999999
 20
113.1462
 30
0.0
 11
12.64659999999999
 21
113.4422
 31
0.0
  0
LINE
  5
8B
  8
LAYER_1
 62
     7
 10
12.64659999999999
 20
113.4422
 30
0.0
 11
12.46219999999999
 21
113.7819
 31
0.0
  0
LINE
  5
8C
  8
LAYER_1
 62
     7
 10
12.46219999999999
 20
113.7819
 30
0.0
 11
12.34559999999999
 21
114.1573
 31
0.0
  0
LINE
  5
8D
  8
LAYER_1
 62
     7
 10
12.34559999999999
 20
114.1573
 30
0.0
 11
12.305
 21
114.5603
 31
0.0
  0
LINE
  5
8E
  8
LAYER_1
 62
     7
 10
12.305
 20
114.5603
 30
0.0
 11
12.34559999999999
 21
114.9634
 31
0.0
  0
LINE
  5
8F
  8
LAYER_1
 62
     7
 10
12.34559999999999
 20
114.9634
 30
0.0
 11
12.46219999999999
 21
115.3389
 31
0.0
  0
LINE
  5
90
  8
LAYER_1
 62
     7
 10
12.46219999999999
 20
115.3389
 30
0.0
 11
12.64659999999999
 21
115.6786
 31
0.0
  0
LINE
  5
91
  8
LAYER_1
 62
     7
 10
12.64659999999999
 20
115.6786
 30
0.0
 11
12.8908
 21
115.9746
 31
0.0
  0
LINE
  5
92
  8
LAYER_1
 62
     7
 10
12.8908
 20
115.9746
 30
0.0
 11
13.18679999999999
 21
116.2189
 31
0.0
  0
LINE
  5
93
  8
LAYER_1
 62
     7
 10
13.18679999999999
 20
116.2189
 30
0.0
 11
13.5265
 21
116.4033
 31
0.0
  0
LINE
  5
94
  8
LAYER_1
 62
     7
 10
13.5265
 20
116.4033
 30
0.0
 11
13.90199999999999
 21
116.5199
 31
0.0
  0
LINE
  5
95
  8
LAYER_1
 62
     7
 10
13.90199999999999
 20
116.5199
 30
0.0
 11
14.30499999999999
 21
116.5606
 31
0.0
  0
LINE
  5
96
  8
LAYER_1
 62
     7
 10
14.30499999999999
 20
43.91619999999999
 30
0.0
 11
14.70809999999998
 21
43.87559999999998
 31
0.0
  0
LINE
  5
97
  8
LAYER_1
 62
     7
 10
14.70809999999998
 20
43.87559999999998
 30
0.0
 11
15.08349999999999
 21
43.75899999999999
 31
0.0
  0
LINE
  5
98
  8
LAYER_1
 62
     7
 10
15.08349999999999
 20
43.75899999999999
 30
0.0
 11
15.42319999999999
 21
43.57459999999999
 31
0.0
  0
LINE
  5
99
  8
LAYER_1
 62
     7
 10
15.42319999999999
 20
43.57459999999999
 30
0.0
 11
15.71919999999999
 21
43.33039999999998
 31
0.0
  0
LINE
  5
9A
  8
LAYER_1
 62
     7
 10
15.71919999999999
 20
43.33039999999998
 30
0.0
 11
15.96339999999999
 21
43.03439999999999
 31
0.0
  0
LINE
  5
9B
  8
LAYER_1
 62
     7
 10
15.96339999999999
 20
43.03439999999999
 30
0.0
 11
16.14779999999999
 21
42.69469999999998
 31
0.0
  0
LINE
  5
9C
  8
LAYER_1
 62
     7
 10
16.14779999999999
 20
42.69469999999998
 30
0.0
 11
16.26439999999999
 21
42.3192
 31
0.0
  0
LINE
  5
9D
  8
LAYER_1
 62
     7
 10
16.26439999999999
 20
42.3192
 30
0.0
 11
16.30499999999999
 21
41.91609999999998
 31
0.0
  0
LINE
  5
9E
  8
LAYER_1
 62
     7
 10
16.30499999999999
 20
41.91609999999998
 30
0.0
 11
16.26439999999999
 21
41.51309999999999
 31
0.0
  0
LINE
  5
9F
  8
LAYER_1
 62
     7
 10
16.26439999999999
 20
41.51309999999999
 30
0.0
 11
16.14779999999999
 21
41.13759999999999
 31
0.0
  0
LINE
  5
A0
  8
LAYER_1
 62
     7
 10
16.14779999999999
 20
41.13759999999999
 30
0.0
 11
15.96339999999999
 21
40.79789999999998
 31
0.0
  0
LINE
  5
A1
  8
LAYER_1
 62
     7
 10
15.96339999999999
 20
40.79789999999998
 30
0.0
 11
15.71919999999999
 21
40.50189999999998
 31
0.0
  0
LINE
  5
A2
  8
LAYER_1
 62
     7
 10
15.71919999999999
 20
40.50189999999998
 30
0.0
 11
15.42319999999999
 21
40.25769999999999
 31
0.0
  0
LINE
  5
A3
  8
LAYER_1
 62
     7
 10
15.42319999999999
 20
40.25769999999999
 30
0.0
 11
15.08349999999999
 21
40.07329999999999
 31
0.0
  0
LINE
  5
A4
  8
LAYER_1
 62
     7
 10
15.08349999999999
 20
40.07329999999999
 30
0.0
 11
14.708
 21
39.95669999999999
 31
0.0
  0
LINE
  5
A5
  8
LAYER_1
 62
     7
 10
14.708
 20
39.95669999999999
 30
0.0
 11
14.30499999999999
 21
39.91609999999999
 31
0.0
  0
LINE
  5
A6
  8
LAYER_1
 62
     7
 10
14.30499999999999
 20
39.91609999999999
 30
0.0
 11
13.90199999999999
 21
39.95679999999999
 31
0.0
  0
LINE
  5
A7
  8
LAYER_1
 62
     7
 10
13.90199999999999
 20
39.95679999999999
 30
0.0
 11
13.52659999999999
 21
40.07329999999999
 31
0.0
  0
LINE
  5
A8
  8
LAYER_1
 62
     7
 10
13.52659999999999
 20
40.07329999999999
 30
0.0
 11
13.18689999999999
 21
40.25769999999999
 31
0.0
  0
LINE
  5
A9
  8
LAYER_1
 62
     7
 10
13.18689999999999
 20
40.25769999999999
 30
0.0
 11
12.89089999999999
 21
40.50189999999998
 31
0.0
  0
LINE
  5
AA
  8
LAYER_1
 62
     7
 10
12.89089999999999
 20
40.50189999999998
 30
0.0
 11
12.64659999999999
 21
40.79789999999998
 31
0.0
  0
LINE
  5
AB
  8
LAYER_1
 62
     7
 10
12.64659999999999
 20
40.79789999999998
 30
0.0
 11
12.46219999999999
 21
41.13769999999999
 31
0.0
  0
LINE
  5
AC
  8
LAYER_1
 62
     7
 10
12.46219999999999
 20
41.13769999999999
 30
0.0
 11
12.34559999999999
 21
41.51309999999999
 31
0.0
  0
LINE
  5
AD
  8
LAYER_1
 62
     7
 10
12.34559999999999
 20
41.51309999999999
 30
0.0
 11
12.305
 21
41.91609999999998
 31
0.0
  0
LINE
  5
AE
  8
LAYER_1
 62
     7
 10
12.305
 20
41.91609999999998
 30
0.0
 11
12.34559999999999
 21
42.3192
 31
0.0
  0
LINE
  5
AF
  8
LAYER_1
 62
     7
 10
12.34559999999999
 20
42.3192
 30
0.0
 11
12.46219999999999
 21
42.69459999999999
 31
0.0
  0
LINE
  5
B0
  8
LAYER_1
 62
     7
 10
12.46219999999999
 20
42.69459999999999
 30
0.0
 11
12.64659999999999
 21
43.03439999999999
 31
0.0
  0
LINE
  5
B1
  8
LAYER_1
 62
     7
 10
12.64659999999999
 20
43.03439999999999
 30
0.0
 11
12.8908
 21
43.33039999999998
 31
0.0
  0
LINE
  5
B2
  8
LAYER_1
 62
     7
 10
12.8908
 20
43.33039999999998
 30
0.0
 11
13.18679999999999
 21
43.57459999999999
 31
0.0
  0
LINE
  5
B3
  8
LAYER_1
 62
     7
 10
13.18679999999999
 20
43.57459999999999
 30
0.0
 11
13.5265
 21
43.75899999999999
 31
0.0
  0
LINE
  5
B4
  8
LAYER_1
 62
     7
 10
13.5265
 20
43.75899999999999
 30
0.0
 11
13.90199999999999
 21
43.8755
 31
0.0
  0
LINE
  5
B5
  8
LAYER_1
 62
     7
 10
13.90199999999999
 20
43.8755
 30
0.0
 11
14.30499999999999
 21
43.91619999999999
 31
0.0
  0
LINE
  5
B6
  8
LAYER_1
 62
     7
 10
129.662
 20
43.91619999999999
 30
0.0
 11
130.065
 21
43.87559999999998
 31
0.0
  0
LINE
  5
B7
  8
LAYER_1
 62
     7
 10
130.065
 20
43.87559999999998
 30
0.0
 11
130.4404
 21
43.75899999999999
 31
0.0
  0
LINE
  5
B8
  8
LAYER_1
 62
     7
 10
130.4404
 20
43.75899999999999
 30
0.0
 11
130.7802
 21
43.57459999999999
 31
0.0
  0
LINE
  5
B9
  8
LAYER_1
 62
     7
 10
130.7802
 20
43.57459999999999
 30
0.0
 11
131.0761
 21
43.33039999999998
 31
0.0
  0
LINE
  5
BA
  8
LAYER_1
 62
     7
 10
131.0761
 20
43.33039999999998
 30
0.0
 11
131.3203
 21
43.03439999999999
 31
0.0
  0
LINE
  5
BB
  8
LAYER_1
 62
     7
 10
131.3203
 20
43.03439999999999
 30
0.0
 11
131.5047
 21
42.69469999999998
 31
0.0
  0
LINE
  5
BC
  8
LAYER_1
 62
     7
 10
131.5047
 20
42.69469999999998
 30
0.0
 11
131.6213
 21
42.3192
 31
0.0
  0
LINE
  5
BD
  8
LAYER_1
 62
     7
 10
131.6213
 20
42.3192
 30
0.0
 11
131.6619
 21
41.91609999999998
 31
0.0
  0
LINE
  5
BE
  8
LAYER_1
 62
     7
 10
131.6619
 20
41.91609999999998
 30
0.0
 11
131.6213
 21
41.51309999999999
 31
0.0
  0
LINE
  5
BF
  8
LAYER_1
 62
     7
 10
131.6213
 20
41.51309999999999
 30
0.0
 11
131.5047
 21
41.13759999999999
 31
0.0
  0
LINE
  5
C0
  8
LAYER_1
 62
     7
 10
131.5047
 20
41.13759999999999
 30
0.0
 11
131.3203
 21
40.79789999999998
 31
0.0
  0
LINE
  5
C1
  8
LAYER_1
 62
     7
 10
131.3203
 20
40.79789999999998
 30
0.0
 11
131.0761
 21
40.50189999999998
 31
0.0
  0
LINE
  5
C2
  8
LAYER_1
 62
     7
 10
131.0761
 20
40.50189999999998
 30
0.0
 11
130.7801
 21
40.25769999999999
 31
0.0
  0
LINE
  5
C3
  8
LAYER_1
 62
     7
 10
130.7801
 20
40.25769999999999
 30
0.0
 11
130.4404
 21
40.07329999999999
 31
0.0
  0
LINE
  5
C4
  8
LAYER_1
 62
     7
 10
130.4404
 20
40.07329999999999
 30
0.0
 11
130.0649
 21
39.95669999999999
 31
0.0
  0
LINE
  5
C5
  8
LAYER_1
 62
     7
 10
130.0649
 20
39.95669999999999
 30
0.0
 11
129.6619
 21
39.91609999999999
 31
0.0
  0
LINE
  5
C6
  8
LAYER_1
 62
     7
 10
129.6619
 20
39.91609999999999
 30
0.0
 11
129.2589
 21
39.95679999999999
 31
0.0
  0
LINE
  5
C7
  8
LAYER_1
 62
     7
 10
129.2589
 20
39.95679999999999
 30
0.0
 11
128.8835
 21
40.07329999999999
 31
0.0
  0
LINE
  5
C8
  8
LAYER_1
 62
     7
 10
128.8835
 20
40.07329999999999
 30
0.0
 11
128.5438
 21
40.25769999999999
 31
0.0
  0
LINE
  5
C9
  8
LAYER_1
 62
     7
 10
128.5438
 20
40.25769999999999
 30
0.0
 11
128.2478
 21
40.50189999999998
 31
0.0
  0
LINE
  5
CA
  8
LAYER_1
 62
     7
 10
128.2478
 20
40.50189999999998
 30
0.0
 11
128.0035
 21
40.79789999999998
 31
0.0
  0
LINE
  5
CB
  8
LAYER_1
 62
     7
 10
128.0035
 20
40.79789999999998
 30
0.0
 11
127.8191
 21
41.13769999999999
 31
0.0
  0
LINE
  5
CC
  8
LAYER_1
 62
     7
 10
127.8191
 20
41.13769999999999
 30
0.0
 11
127.7025
 21
41.51309999999999
 31
0.0
  0
LINE
  5
CD
  8
LAYER_1
 62
     7
 10
127.8191
 20
42.69459999999999
 30
0.0
 11
128.0035
 21
43.03439999999999
 31
0.0
  0
LINE
  5
CE
  8
LAYER_1
 62
     7
 10
128.0035
 20
43.03439999999999
 30
0.0
 11
128.2477
 21
43.33039999999998
 31
0.0
  0
LINE
  5
CF
  8
LAYER_1
 62
     7
 10
128.2477
 20
43.33039999999998
 30
0.0
 11
128.5437
 21
43.57459999999999
 31
0.0
  0
LINE
  5
D0
  8
LAYER_1
 62
     7
 10
128.5437
 20
43.57459999999999
 30
0.0
 11
128.8835
 21
43.75899999999999
 31
0.0
  0
LINE
  5
D1
  8
LAYER_1
 62
     7
 10
128.8835
 20
43.75899999999999
 30
0.0
 11
129.2589
 21
43.8755
 31
0.0
  0
LINE
  5
D2
  8
LAYER_1
 62
     7
 10
129.2589
 20
43.8755
 30
0.0
 11
129.662
 21
43.91619999999999
 31
0.0
  0
LINE
  5
D3
  8
LAYER_1
 62
   250
 10
21.9599
 20
147.7405
 30
0.0
 11
123.0403
 21
147.7405
 31
0.0
  0
LINE
  5
D4
  8
LAYER_1
 62
   250
 10
123.0403
 20
147.7405
 30
0.0
 11
123.0403
 21
9.274599999999985
 31
0.0
  0
LINE
  5
D5
  8
LAYER_1
 62
   250
 10
123.0403
 20
9.274599999999985
 30
0.0
 11
21.9599
 21
9.274599999999985
 31
0.0
  0
LINE
  5
D6
  8
LAYER_1
 62
   250
 10
21.9599
 20
9.274599999999985
 30
0.0
 11
21.9599
 21
147.7405
 31
0.0
  0
LINE
  5
D7
  8
LAYER_1
 62
     7
 10
129.662
 20
116.5606
 30
0.0
 11
130.065
 21
116.52
 31
0.0
  0
LINE
  5
D8
  8
LAYER_1
 62
     7
 10
130.065
 20
116.52
 30
0.0
 11
130.4404
 21
116.4034
 31
0.0
  0
LINE
  5
D9
  8
LAYER_1
 62
     7
 10
130.0649
 20
112.6009
 30
0.0
 11
129.6619
 21
112.5603
 31
0.0
  0
LINE
  5
DA
  8
LAYER_1
 62
     7
 10
129.6619
 20
112.5603
 30
0.0
 11
129.2589
 21
112.601
 31
0.0
  0
LINE
  5
DB
  8
LAYER_1
 62
     7
 10
129.2589
 20
112.601
 30
0.0
 11
128.8835
 21
112.7176
 31
0.0
  0
LINE
  5
DC
  8
LAYER_1
 62
     7
 10
131.6213
 20
114.9634
 30
0.0
 11
131.6619
 21
114.5603
 31
0.0
  0
LINE
  5
DD
  8
LAYER_1
 62
     7
 10
131.3203
 20
113.4421
 30
0.0
 11
131.0761
 21
113.1461
 31
0.0
  0
LINE
  5
DE
  8
LAYER_1
 62
     7
 10
131.6213
 20
114.1573
 30
0.0
 11
131.5047
 21
113.7818
 31
0.0
  0
LINE
  5
DF
  8
LAYER_1
 62
     7
 10
130.4404
 20
116.4034
 30
0.0
 11
130.7802
 21
116.219
 31
0.0
  0
LINE
  5
E0
  8
LAYER_1
 62
     7
 10
131.0761
 20
115.9747
 30
0.0
 11
131.3203
 21
115.6787
 31
0.0
  0
LINE
  5
E1
  8
LAYER_1
 62
     7
 10
131.3203
 20
115.6787
 30
0.0
 11
131.5047
 21
115.3389
 31
0.0
  0
LINE
  5
E2
  8
LAYER_1
 62
     7
 10
131.5047
 20
113.7818
 30
0.0
 11
131.3203
 21
113.4421
 31
0.0
  0
LINE
  5
E3
  8
LAYER_1
 62
     7
 10
130.4404
 20
112.7175
 30
0.0
 11
130.0649
 21
112.6009
 31
0.0
  0
LINE
  5
E4
  8
LAYER_1
 62
     7
 10
131.5047
 20
115.3389
 30
0.0
 11
131.6213
 21
114.9634
 31
0.0
  0
LINE
  5
E5
  8
LAYER_1
 62
     7
 10
131.0761
 20
113.1461
 30
0.0
 11
130.7801
 21
112.9019
 31
0.0
  0
LINE
  5
E6
  8
LAYER_1
 62
     7
 10
130.7802
 20
116.219
 30
0.0
 11
131.0761
 21
115.9747
 31
0.0
  0
LINE
  5
E7
  8
LAYER_1
 62
     7
 10
131.6619
 20
114.5603
 30
0.0
 11
131.6213
 21
114.1573
 31
0.0
  0
LINE
  5
E8
  8
LAYER_1
 62
     7
 10
130.7801
 20
112.9019
 30
0.0
 11
130.4404
 21
112.7175
 31
0.0
  0
LINE
  5
E9
  8
LAYER_1
 62
     7
 10
128.5438
 20
112.902
 30
0.0
 11
128.2478
 21
113.1462
 31
0.0
  0
LINE
  5
EA
  8
LAYER_1
 62
     7
 10
127.8191
 20
113.7819
 30
0.0
 11
127.7025
 21
114.1573
 31
0.0
  0
LINE
  5
EB
  8
LAYER_1
 62
     7
 10
128.2477
 20
115.9746
 30
0.0
 11
128.5437
 21
116.2189
 31
0.0
  0
LINE
  5
EC
  8
LAYER_1
 62
     7
 10
129.2589
 20
116.5199
 30
0.0
 11
129.662
 21
116.5606
 31
0.0
  0
LINE
  5
ED
  8
LAYER_1
 62
     7
 10
128.2478
 20
113.1462
 30
0.0
 11
128.0035
 21
113.4422
 31
0.0
  0
LINE
  5
EE
  8
LAYER_1
 62
     7
 10
128.5437
 20
116.2189
 30
0.0
 11
128.8835
 21
116.4033
 31
0.0
  0
LINE
  5
EF
  8
LAYER_1
 62
     7
 10
128.8835
 20
116.4033
 30
0.0
 11
129.2589
 21
116.5199
 31
0.0
  0
LINE
  5
F0
  8
LAYER_1
 62
     7
 10
127.8191
 20
115.3389
 30
0.0
 11
128.0035
 21
115.6786
 31
0.0
  0
LINE
  5
F1
  8
LAYER_1
 62
     7
 10
128.0035
 20
115.6786
 30
0.0
 11
128.2477
 21
115.9746
 31
0.0
  0
LINE
  5
F2
  8
LAYER_1
 62
     7
 10
127.7025
 20
114.9634
 30
0.0
 11
127.8191
 21
115.3389
 31
0.0
  0
LINE
  5
F3
  8
LAYER_1
 62
     7
 10
128.8835
 20
112.7176
 30
0.0
 11
128.5438
 21
112.902
 31
0.0
  0
LINE
  5
F4
  8
LAYER_1
 62
     7
 10
128.0035
 20
113.4422
 30
0.0
 11
127.8191
 21
113.7819
 31
0.0
  0
LINE
  5
F5
  8
LAYER_1
 62
     7
 10
127.7025
 20
114.1573
 30
0.0
 11
127.6619
 21
114.5603
 31
0.0
  0
LINE
  5
F6
  8
LAYER_1
 62
     7
 10
127.6619
 20
114.5603
 30
0.0
 11
127.7025
 21
114.9634
 31
0.0
  0
LINE
  5
F7
  8
LAYER_1
 62
     7
 10
127.6619
 20
41.91609999999998
 30
0.0
 11
127.7025
 21
42.3192
 31
0.0
  0
LINE
  5
F8
  8
LAYER_1
 62
     7
 10
127.7025
 20
41.51309999999999
 30
0.0
 11
127.6619
 21
41.91609999999998
 31
0.0
  0
LINE
  5
F9
  8
LAYER_1
 62
     7
 10
127.7025
 20
42.3192
 30
0.0
 11
127.8191
 21
42.69459999999999
 31
0.0
  0
ENDBLK
  5
43
  8
0
  0
BLOCK
  8
0
  2
TEST_DXF
 70
     0
 10
0.0
 20
0.0
 30
0.0
  3
TEST_DXF
  1

  0
LINE
  5
FA
  8
LAYER_1
 62
   250
 10
0.0
 20
157.0002
 30
0.0
 11
145.0001
 21
157.0002
 31
0.0
  0
LINE
  5
FB
  8
LAYER_1
 62
   250
 10
145.0001
 20
157.0002
 30
0.0
 11
145.0001
 21
0.0
 31
0.0
  0
LINE
  5
FC
  8
LAYER_1
 62
   250
 10
145.0001
 20
0.0
 30
0.0
 11
0.0
 21
0.0
 31
0.0
  0
LINE
  5
FD
  8
LAYER_1
 62
   250
 10
0.0
 20
0.0
 30
0.0
 11
0.0
 21
157.0002
 31
0.0
  0
LINE
  5
FE
  8
LAYER_1
 62
     7
 10
14.30500000000001
 20
116.5613
 30
0.0
 11
14.70809999999999
 21
116.5207
 31
0.0
  0
LINE
  5
FF
  8
LAYER_1
 62
     7
 10
14.70809999999999
 20
116.5207
 30
0.0
 11
15.08349999999999
 21
116.4041
 31
0.0
  0
LINE
  5
100
  8
LAYER_1
 62
     7
 10
15.08349999999999
 20
116.4041
 30
0.0
 11
15.42329999999997
 21
116.2197
 31
0.0
  0
LINE
  5
101
  8
LAYER_1
 62
     7
 10
15.42329999999997
 20
116.2197
 30
0.0
 11
15.71929999999998
 21
115.9754
 31
0.0
  0
LINE
  5
102
  8
LAYER_1
 62
     7
 10
15.71929999999998
 20
115.9754
 30
0.0
 11
15.96349999999998
 21
115.6794
 31
0.0
  0
LINE
  5
103
  8
LAYER_1
 62
     7
 10
15.96349999999998
 20
115.6794
 30
0.0
 11
16.14789999999999
 21
115.3397
 31
0.0
  0
LINE
  5
104
  8
LAYER_1
 62
     7
 10
16.14789999999999
 20
115.3397
 30
0.0
 11
16.26450000000001
 21
114.9643
 31
0.0
  0
LINE
  5
105
  8
LAYER_1
 62
     7
 10
16.26450000000001
 20
114.9643
 30
0.0
 11
16.30509999999999
 21
114.5612
 31
0.0
  0
LINE
  5
106
  8
LAYER_1
 62
     7
 10
16.30509999999999
 20
114.5612
 30
0.0
 11
16.26450000000001
 21
114.1581
 31
0.0
  0
LINE
  5
107
  8
LAYER_1
 62
     7
 10
16.26450000000001
 20
114.1581
 30
0.0
 11
16.14789999999999
 21
113.7827
 31
0.0
  0
LINE
  5
108
  8
LAYER_1
 62
     7
 10
16.14789999999999
 20
113.7827
 30
0.0
 11
15.96349999999998
 21
113.4429
 31
0.0
  0
LINE
  5
109
  8
LAYER_1
 62
     7
 10
15.96349999999998
 20
113.4429
 30
0.0
 11
15.71929999999998
 21
113.1469
 31
0.0
  0
LINE
  5
10A
  8
LAYER_1
 62
     7
 10
15.71929999999998
 20
113.1469
 30
0.0
 11
15.42329999999997
 21
112.9027
 31
0.0
  0
LINE
  5
10B
  8
LAYER_1
 62
     7
 10
15.42329999999997
 20
112.9027
 30
0.0
 11
15.08359999999998
 21
112.7184
 31
0.0
  0
LINE
  5
10C
  8
LAYER_1
 62
     7
 10
15.08359999999998
 20
112.7184
 30
0.0
 11
14.70809999999999
 21
112.6018
 31
0.0
  0
LINE
  5
10D
  8
LAYER_1
 62
     7
 10
14.70809999999999
 20
112.6018
 30
0.0
 11
14.30509999999995
 21
112.5612
 31
0.0
  0
LINE
  5
10E
  8
LAYER_1
 62
     7
 10
14.30509999999995
 20
112.5612
 30
0.0
 11
13.90209999999999
 21
112.6019
 31
0.0
  0
LINE
  5
10F
  8
LAYER_1
 62
     7
 10
13.90209999999999
 20
112.6019
 30
0.0
 11
13.5266
 21
112.7184
 31
0.0
  0
LINE
  5
110
  8
LAYER_1
 62
     7
 10
13.5266
 20
112.7184
 30
0.0
 11
13.18689999999997
 21
112.9028
 31
0.0
  0
LINE
  5
111
  8
LAYER_1
 62
     7
 10
13.18689999999997
 20
112.9028
 30
0.0
 11
12.89089999999995
 21
113.147
 31
0.0
  0
LINE
  5
112
  8
LAYER_1
 62
     7
 10
12.89089999999995
 20
113.147
 30
0.0
 11
12.64669999999996
 21
113.443
 31
0.0
  0
LINE
  5
113
  8
LAYER_1
 62
     7
 10
12.64669999999996
 20
113.443
 30
0.0
 11
12.46229999999999
 21
113.7827
 31
0.0
  0
LINE
  5
114
  8
LAYER_1
 62
     7
 10
12.46229999999999
 20
113.7827
 30
0.0
 11
12.34569999999998
 21
114.1581
 31
0.0
  0
LINE
  5
115
  8
LAYER_1
 62
     7
 10
12.34569999999998
 20
114.1581
 30
0.0
 11
12.30509999999995
 21
114.5612
 31
0.0
  0
LINE
  5
116
  8
LAYER_1
 62
     7
 10
12.30509999999995
 20
114.5612
 30
0.0
 11
12.34569999999998
 21
114.9643
 31
0.0
  0
LINE
  5
117
  8
LAYER_1
 62
     7
 10
12.34569999999998
 20
114.9643
 30
0.0
 11
12.46229999999999
 21
115.3397
 31
0.0
  0
LINE
  5
118
  8
LAYER_1
 62
     7
 10
12.46229999999999
 20
115.3397
 30
0.0
 11
12.64669999999996
 21
115.6794
 31
0.0
  0
LINE
  5
119
  8
LAYER_1
 62
     7
 10
12.64669999999996
 20
115.6794
 30
0.0
 11
12.89089999999995
 21
115.9754
 31
0.0
  0
LINE
  5
11A
  8
LAYER_1
 62
     7
 10
12.89089999999995
 20
115.9754
 30
0.0
 11
13.18689999999997
 21
116.2196
 31
0.0
  0
LINE
  5
11B
  8
LAYER_1
 62
     7
 10
13.18689999999997
 20
116.2196
 30
0.0
 11
13.5266
 21
116.4041
 31
0.0
  0
LINE
  5
11C
  8
LAYER_1
 62
     7
 10
13.5266
 20
116.4041
 30
0.0
 11
13.90199999999995
 21
116.5206
 31
0.0
  0
LINE
  5
11D
  8
LAYER_1
 62
     7
 10
13.90199999999995
 20
116.5206
 30
0.0
 11
14.30500000000001
 21
116.5613
 31
0.0
  0
LINE
  5
11E
  8
LAYER_1
 62
     7
 10
129.662
 20
116.5613
 30
0.0
 11
130.065
 21
116.5207
 31
0.0
  0
LINE
  5
11F
  8
LAYER_1
 62
     7
 10
130.065
 20
116.5207
 30
0.0
 11
130.4405
 21
116.4041
 31
0.0
  0
LINE
  5
120
  8
LAYER_1
 62
     7
 10
130.4405
 20
116.4041
 30
0.0
 11
130.7802
 21
116.2197
 31
0.0
  0
LINE
  5
121
  8
LAYER_1
 62
     7
 10
130.7802
 20
116.2197
 30
0.0
 11
131.0762
 21
115.9754
 31
0.0
  0
LINE
  5
122
  8
LAYER_1
 62
     7
 10
131.0762
 20
115.9754
 30
0.0
 11
131.3204
 21
115.6794
 31
0.0
  0
LINE
  5
123
  8
LAYER_1
 62
     7
 10
131.3204
 20
115.6794
 30
0.0
 11
131.5048
 21
115.3397
 31
0.0
  0
LINE
  5
124
  8
LAYER_1
 62
     7
 10
131.5048
 20
115.3397
 30
0.0
 11
131.6214
 21
114.9643
 31
0.0
  0
LINE
  5
125
  8
LAYER_1
 62
     7
 10
131.6214
 20
114.9643
 30
0.0
 11
131.662
 21
114.5612
 31
0.0
  0
LINE
  5
126
  8
LAYER_1
 62
     7
 10
131.662
 20
114.5612
 30
0.0
 11
131.6214
 21
114.1581
 31
0.0
  0
LINE
  5
127
  8
LAYER_1
 62
     7
 10
131.6214
 20
114.1581
 30
0.0
 11
131.5048
 21
113.7827
 31
0.0
  0
LINE
  5
128
  8
LAYER_1
 62
     7
 10
131.5048
 20
113.7827
 30
0.0
 11
131.3204
 21
113.4429
 31
0.0
  0
LINE
  5
129
  8
LAYER_1
 62
     7
 10
131.3204
 20
113.4429
 30
0.0
 11
131.0762
 21
113.1469
 31
0.0
  0
LINE
  5
12A
  8
LAYER_1
 62
     7
 10
131.0762
 20
113.1469
 30
0.0
 11
130.7802
 21
112.9027
 31
0.0
  0
LINE
  5
12B
  8
LAYER_1
 62
     7
 10
130.7802
 20
112.9027
 30
0.0
 11
130.4405
 21
112.7184
 31
0.0
  0
LINE
  5
12C
  8
LAYER_1
 62
     7
 10
130.4405
 20
112.7184
 30
0.0
 11
130.065
 21
112.6018
 31
0.0
  0
LINE
  5
12D
  8
LAYER_1
 62
     7
 10
130.065
 20
112.6018
 30
0.0
 11
129.662
 21
112.5612
 31
0.0
  0
LINE
  5
12E
  8
LAYER_1
 62
     7
 10
129.662
 20
112.5612
 30
0.0
 11
129.259
 21
112.6019
 31
0.0
  0
LINE
  5
12F
  8
LAYER_1
 62
     7
 10
129.259
 20
112.6019
 30
0.0
 11
128.8835
 21
112.7184
 31
0.0
  0
LINE
  5
130
  8
LAYER_1
 62
     7
 10
128.8835
 20
112.7184
 30
0.0
 11
128.5438
 21
112.9028
 31
0.0
  0
LINE
  5
131
  8
LAYER_1
 62
     7
 10
128.5438
 20
112.9028
 30
0.0
 11
128.2478
 21
113.147
 31
0.0
  0
LINE
  5
132
  8
LAYER_1
 62
     7
 10
128.2478
 20
113.147
 30
0.0
 11
128.0035999999999
 21
113.443
 31
0.0
  0
LINE
  5
133
  8
LAYER_1
 62
     7
 10
128.0035999999999
 20
113.443
 30
0.0
 11
127.8192
 21
113.7827
 31
0.0
  0
LINE
  5
134
  8
LAYER_1
 62
     7
 10
127.8192
 20
113.7827
 30
0.0
 11
127.7026
 21
114.1581
 31
0.0
  0
LINE
  5
135
  8
LAYER_1
 62
     7
 10
127.7026
 20
114.1581
 30
0.0
 11
127.6619999999999
 21
114.5612
 31
0.0
  0
LINE
  5
136
  8
LAYER_1
 62
     7
 10
127.6619999999999
 20
114.5612
 30
0.0
 11
127.7026
 21
114.9643
 31
0.0
  0
LINE
  5
137
  8
LAYER_1
 62
     7
 10
127.7026
 20
114.9643
 30
0.0
 11
127.8192
 21
115.3397
 31
0.0
  0
LINE
  5
138
  8
LAYER_1
 62
     7
 10
127.8192
 20
115.3397
 30
0.0
 11
128.0035999999999
 21
115.6794
 31
0.0
  0
LINE
  5
139
  8
LAYER_1
 62
     7
 10
128.0035999999999
 20
115.6794
 30
0.0
 11
128.2478
 21
115.9754
 31
0.0
  0
LINE
  5
13A
  8
LAYER_1
 62
     7
 10
128.2478
 20
115.9754
 30
0.0
 11
128.5438
 21
116.2196
 31
0.0
  0
LINE
  5
13B
  8
LAYER_1
 62
     7
 10
128.5438
 20
116.2196
 30
0.0
 11
128.8835
 21
116.4041
 31
0.0
  0
LINE
  5
13C
  8
LAYER_1
 62
     7
 10
128.8835
 20
116.4041
 30
0.0
 11
129.259
 21
116.5206
 31
0.0
  0
LINE
  5
13D
  8
LAYER_1
 62
     7
 10
129.259
 20
116.5206
 30
0.0
 11
129.662
 21
116.5613
 31
0.0
  0
LINE
  5
13E
  8
LAYER_1
 62
     7
 10
14.30500000000001
 20
43.91709999999999
 30
0.0
 11
14.70809999999999
 21
43.87649999999999
 31
0.0
  0
LINE
  5
13F
  8
LAYER_1
 62
     7
 10
14.70809999999999
 20
43.87649999999999
 30
0.0
 11
15.08349999999999
 21
43.75989999999999
 31
0.0
  0
LINE
  5
140
  8
LAYER_1
 62
     7
 10
15.08349999999999
 20
43.75989999999999
 30
0.0
 11
15.42329999999997
 21
43.57549999999999
 31
0.0
  0
LINE
  5
141
  8
LAYER_1
 62
     7
 10
15.42329999999997
 20
43.57549999999999
 30
0.0
 11
15.71929999999998
 21
43.33119999999999
 31
0.0
  0
LINE
  5
142
  8
LAYER_1
 62
     7
 10
15.71929999999998
 20
43.33119999999999
 30
0.0
 11
15.96349999999998
 21
43.03519999999999
 31
0.0
  0
LINE
  5
143
  8
LAYER_1
 62
     7
 10
15.96349999999998
 20
43.03519999999999
 30
0.0
 11
16.14789999999999
 21
42.69549999999999
 31
0.0
  0
LINE
  5
144
  8
LAYER_1
 62
     7
 10
16.14789999999999
 20
42.69549999999999
 30
0.0
 11
16.26450000000001
 21
42.32009999999999
 31
0.0
  0
LINE
  5
145
  8
LAYER_1
 62
     7
 10
16.26450000000001
 20
42.32009999999999
 30
0.0
 11
16.30509999999999
 21
41.91699999999999
 31
0.0
  0
LINE
  5
146
  8
LAYER_1
 62
     7
 10
16.30509999999999
 20
41.91699999999999
 30
0.0
 11
16.26450000000001
 21
41.51389999999999
 31
0.0
  0
LINE
  5
147
  8
LAYER_1
 62
     7
 10
16.26450000000001
 20
41.51389999999999
 30
0.0
 11
16.14789999999999
 21
41.13839999999999
 31
0.0
  0
LINE
  5
148
  8
LAYER_1
 62
     7
 10
16.14789999999999
 20
41.13839999999999
 30
0.0
 11
15.96349999999998
 21
40.79869999999999
 31
0.0
  0
LINE
  5
149
  8
LAYER_1
 62
     7
 10
15.96349999999998
 20
40.79869999999999
 30
0.0
 11
15.71929999999998
 21
40.50269999999999
 31
0.0
  0
LINE
  5
14A
  8
LAYER_1
 62
     7
 10
15.71929999999998
 20
40.50269999999999
 30
0.0
 11
15.42329999999997
 21
40.25849999999999
 31
0.0
  0
LINE
  5
14B
  8
LAYER_1
 62
     7
 10
15.42329999999997
 20
40.25849999999999
 30
0.0
 11
15.08359999999998
 21
40.07409999999999
 31
0.0
  0
LINE
  5
14C
  8
LAYER_1
 62
     7
 10
15.08359999999998
 20
40.07409999999999
 30
0.0
 11
14.70809999999999
 21
39.95749999999999
 31
0.0
  0
LINE
  5
14D
  8
LAYER_1
 62
     7
 10
14.70809999999999
 20
39.95749999999999
 30
0.0
 11
14.30509999999995
 21
39.91689999999999
 31
0.0
  0
LINE
  5
14E
  8
LAYER_1
 62
     7
 10
14.30509999999995
 20
39.91689999999999
 30
0.0
 11
13.90209999999999
 21
39.95759999999999
 31
0.0
  0
LINE
  5
14F
  8
LAYER_1
 62
     7
 10
13.90209999999999
 20
39.95759999999999
 30
0.0
 11
13.5266
 21
40.07419999999999
 31
0.0
  0
LINE
  5
150
  8
LAYER_1
 62
     7
 10
13.5266
 20
40.07419999999999
 30
0.0
 11
13.18689999999997
 21
40.25859999999999
 31
0.0
  0
LINE
  5
151
  8
LAYER_1
 62
     7
 10
13.18689999999997
 20
40.25859999999999
 30
0.0
 11
12.89089999999995
 21
40.50279999999999
 31
0.0
  0
LINE
  5
152
  8
LAYER_1
 62
     7
 10
12.89089999999995
 20
40.50279999999999
 30
0.0
 11
12.64669999999996
 21
40.79869999999999
 31
0.0
  0
LINE
  5
153
  8
LAYER_1
 62
     7
 10
12.64669999999996
 20
40.79869999999999
 30
0.0
 11
12.46229999999999
 21
41.13849999999999
 31
0.0
  0
LINE
  5
154
  8
LAYER_1
 62
     7
 10
12.46229999999999
 20
41.13849999999999
 30
0.0
 11
12.34569999999998
 21
41.51389999999999
 31
0.0
  0
LINE
  5
155
  8
LAYER_1
 62
     7
 10
12.34569999999998
 20
41.51389999999999
 30
0.0
 11
12.30509999999995
 21
41.91699999999999
 31
0.0
  0
LINE
  5
156
  8
LAYER_1
 62
     7
 10
12.30509999999995
 20
41.91699999999999
 30
0.0
 11
12.34569999999998
 21
42.31999999999999
 31
0.0
  0
LINE
  5
157
  8
LAYER_1
 62
     7
 10
12.34569999999998
 20
42.31999999999999
 30
0.0
 11
12.46229999999999
 21
42.69549999999999
 31
0.0
  0
LINE
  5
158
  8
LAYER_1
 62
     7
 10
12.46229999999999
 20
42.69549999999999
 30
0.0
 11
12.64669999999996
 21
43.03519999999999
 31
0.0
  0
LINE
  5
159
  8
LAYER_1
 62
     7
 10
12.64669999999996
 20
43.03519999999999
 30
0.0
 11
12.89089999999995
 21
43.33119999999999
 31
0.0
  0
LINE
  5
15A
  8
LAYER_1
 62
     7
 10
12.89089999999995
 20
43.33119999999999
 30
0.0
 11
13.18689999999997
 21
43.57539999999999
 31
0.0
  0
LINE
  5
15B
  8
LAYER_1
 62
     7
 10
13.18689999999997
 20
43.57539999999999
 30
0.0
 11
13.5266
 21
43.75989999999999
 31
0.0
  0
LINE
  5
15C
  8
LAYER_1
 62
     7
 10
13.5266
 20
43.75989999999999
 30
0.0
 11
13.90199999999995
 21
43.87639999999999
 31
0.0
  0
LINE
  5
15D
  8
LAYER_1
 62
     7
 10
13.90199999999995
 20
43.87639999999999
 30
0.0
 11
14.30500000000001
 21
43.91709999999999
 31
0.0
  0
LINE
  5
15E
  8
LAYER_1
 62
     7
 10
129.662
 20
43.91709999999999
 30
0.0
 11
130.065
 21
43.87649999999999
 31
0.0
  0
LINE
  5
15F
  8
LAYER_1
 62
     7
 10
130.065
 20
43.87649999999999
 30
0.0
 11
130.4405
 21
43.75989999999999
 31
0.0
  0
LINE
  5
160
  8
LAYER_1
 62
     7
 10
130.4405
 20
43.75989999999999
 30
0.0
 11
130.7802
 21
43.57549999999999
 31
0.0
  0
LINE
  5
161
  8
LAYER_1
 62
     7
 10
130.7802
 20
43.57549999999999
 30
0.0
 11
131.0762
 21
43.33119999999999
 31
0.0
  0
LINE
  5
162
  8
LAYER_1
 62
     7
 10
131.0762
 20
43.33119999999999
 30
0.0
 11
131.3204
 21
43.03519999999999
 31
0.0
  0
LINE
  5
163
  8
LAYER_1
 62
     7
 10
131.3204
 20
43.03519999999999
 30
0.0
 11
131.5048
 21
42.69549999999999
 31
0.0
  0
LINE
  5
164
  8
LAYER_1
 62
     7
 10
131.5048
 20
42.69549999999999
 30
0.0
 11
131.6214
 21
42.32009999999999
 31
0.0
  0
LINE
  5
165
  8
LAYER_1
 62
     7
 10
131.6214
 20
42.32009999999999
 30
0.0
 11
131.662
 21
41.91699999999999
 31
0.0
  0
LINE
  5
166
  8
LAYER_1
 62
     7
 10
131.662
 20
41.91699999999999
 30
0.0
 11
131.6214
 21
41.51389999999999
 31
0.0
  0
LINE
  5
167
  8
LAYER_1
 62
     7
 10
131.6214
 20
41.51389999999999
 30
0.0
 11
131.5048
 21
41.13839999999999
 31
0.0
  0
LINE
  5
168
  8
LAYER_1
 62
     7
 10
131.5048
 20
41.13839999999999
 30
0.0
 11
131.3204
 21
40.79869999999999
 31
0.0
  0
LINE
  5
169
  8
LAYER_1
 62
     7
 10
131.3204
 20
40.79869999999999
 30
0.0
 11
131.0762
 21
40.50269999999999
 31
0.0
  0
LINE
  5
16A
  8
LAYER_1
 62
     7
 10
131.0762
 20
40.50269999999999
 30
0.0
 11
130.7802
 21
40.25849999999999
 31
0.0
  0
LINE
  5
16B
  8
LAYER_1
 62
     7
 10
130.7802
 20
40.25849999999999
 30
0.0
 11
130.4405
 21
40.07409999999999
 31
0.0
  0
LINE
  5
16C
  8
LAYER_1
 62
     7
 10
130.4405
 20
40.07409999999999
 30
0.0
 11
130.065
 21
39.95749999999999
 31
0.0
  0
LINE
  5
16D
  8
LAYER_1
 62
     7
 10
130.065
 20
39.95749999999999
 30
0.0
 11
129.662
 21
39.91689999999999
 31
0.0
  0
LINE
  5
16E
  8
LAYER_1
 62
     7
 10
129.662
 20
39.91689999999999
 30
0.0
 11
129.259
 21
39.95759999999999
 31
0.0
  0
LINE
  5
16F
  8
LAYER_1
 62
     7
 10
129.259
 20
39.95759999999999
 30
0.0
 11
128.8835
 21
40.07419999999999
 31
0.0
  0
LINE
  5
170
  8
LAYER_1
 62
     7
 10
128.8835
 20
40.07419999999999
 30
0.0
 11
128.5438
 21
40.25859999999999
 31
0.0
  0
LINE
  5
171
  8
LAYER_1
 62
     7
 10
128.5438
 20
40.25859999999999
 30
0.0
 11
128.2478
 21
40.50279999999999
 31
0.0
  0
LINE
  5
172
  8
LAYER_1
 62
     7
 10
128.2478
 20
40.50279999999999
 30
0.0
 11
128.0035999999999
 21
40.79869999999999
 31
0.0
  0
LINE
  5
173
  8
LAYER_1
 62
     7
 10
128.0035999999999
 20
40.79869999999999
 30
0.0
 11
127.8192
 21
41.13849999999999
 31
0.0
  0
LINE
  5
174
  8
LAYER_1
 62
     7
 10
127.8192
 20
41.13849999999999
 30
0.0
 11
127.7026
 21
41.51389999999999
 31
0.0
  0
LINE
  5
175
  8
LAYER_1
 62
     7
 10
127.7026
 20
41.51389999999999
 30
0.0
 11
127.6619999999999
 21
41.91699999999999
 31
0.0
  0
LINE
  5
176
  8
LAYER_1
 62
     7
 10
127.6619999999999
 20
41.91699999999999
 30
0.0
 11
127.7026
 21
42.31999999999999
 31
0.0
  0
LINE
  5
177
  8
LAYER_1
 62
     7
 10
127.7026
 20
42.31999999999999
 30
0.0
 11
127.8192
 21
42.69549999999999
 31
0.0
  0
LINE
  5
178
  8
LAYER_1
 62
     7
 10
127.8192
 20
42.69549999999999
 30
0.0
 11
128.0035999999999
 21
43.03519999999999
 31
0.0
  0
LINE
  5
179
  8
LAYER_1
 62
     7
 10
128.0035999999999
 20
43.03519999999999
 30
0.0
 11
128.2478
 21
43.33119999999999
 31
0.0
  0
LINE
  5
17A
  8
LAYER_1
 62
     7
 10
128.2478
 20
43.33119999999999
 30
0.0
 11
128.5438
 21
43.57539999999999
 31
0.0
  0
LINE
  5
17B
  8
LAYER_1
 62
     7
 10
128.5438
 20
43.57539999999999
 30
0.0
 11
128.8835
 21
43.75989999999999
 31
0.0
  0
LINE
  5
17C
  8
LAYER_1
 62
     7
 10
128.8835
 20
43.75989999999999
 30
0.0
 11
129.259
 21
43.87639999999999
 31
0.0
  0
LINE
  5
17D
  8
LAYER_1
 62
     7
 10
129.259
 20
43.87639999999999
 30
0.0
 11
129.662
 21
43.91709999999999
 31
0.0
  0
LINE
  5
17E
  8
LAYER_1
 62
     7
 10
5.000099999999978
 20
145.75
 30
0.0
 11
5.554299999999968
 21
145.6941
 31
0.0
  0
LINE
  5
17F
  8
LAYER_1
 62
     7
 10
5.554299999999968
 20
145.6941
 30
0.0
 11
6.070499999999988
 21
145.5339
 31
0.0
  0
LINE
  5
180
  8
LAYER_1
 62
     7
 10
6.070499999999988
 20
145.5339
 30
0.0
 11
6.537599999999989
 21
145.2803
 31
0.0
  0
LINE
  5
181
  8
LAYER_1
 62
     7
 10
6.537599999999989
 20
145.2803
 30
0.0
 11
6.944599999999954
 21
144.9445
 31
0.0
  0
LINE
  5
182
  8
LAYER_1
 62
     7
 10
6.944599999999954
 20
144.9445
 30
0.0
 11
7.280399999999969
 21
144.5375
 31
0.0
  0
LINE
  5
183
  8
LAYER_1
 62
     7
 10
7.280399999999969
 20
144.5375
 30
0.0
 11
7.533999999999972
 21
144.0704
 31
0.0
  0
LINE
  5
184
  8
LAYER_1
 62
     7
 10
7.533999999999972
 20
144.0704
 30
0.0
 11
7.694199999999972
 21
143.5542
 31
0.0
  0
LINE
  5
185
  8
LAYER_1
 62
     7
 10
7.694199999999972
 20
143.5542
 30
0.0
 11
7.750099999999984
 21
143.0
 31
0.0
  0
LINE
  5
186
  8
LAYER_1
 62
     7
 10
7.750099999999984
 20
143.0
 30
0.0
 11
7.694199999999972
 21
142.4458
 31
0.0
  0
LINE
  5
187
  8
LAYER_1
 62
     7
 10
7.694199999999972
 20
142.4458
 30
0.0
 11
7.533999999999972
 21
141.9296
 31
0.0
  0
LINE
  5
188
  8
LAYER_1
 62
     7
 10
7.533999999999972
 20
141.9296
 30
0.0
 11
7.280399999999969
 21
141.4625
 31
0.0
  0
LINE
  5
189
  8
LAYER_1
 62
     7
 10
7.280399999999969
 20
141.4625
 30
0.0
 11
6.944599999999954
 21
141.0555
 31
0.0
  0
LINE
  5
18A
  8
LAYER_1
 62
     7
 10
6.944599999999954
 20
141.0555
 30
0.0
 11
6.537699999999975
 21
140.7196
 31
0.0
  0
LINE
  5
18B
  8
LAYER_1
 62
     7
 10
6.537699999999975
 20
140.7196
 30
0.0
 11
6.070499999999988
 21
140.4661
 31
0.0
  0
LINE
  5
18C
  8
LAYER_1
 62
     7
 10
6.070499999999988
 20
140.4661
 30
0.0
 11
5.554299999999968
 21
140.3058
 31
0.0
  0
LINE
  5
18D
  8
LAYER_1
 62
     7
 10
5.554299999999968
 20
140.3058
 30
0.0
 11
5.000099999999978
 21
140.2499
 31
0.0
  0
LINE
  5
18E
  8
LAYER_1
 62
     7
 10
5.000099999999978
 20
140.2499
 30
0.0
 11
4.445799999999956
 21
140.3058
 31
0.0
  0
LINE
  5
18F
  8
LAYER_1
 62
     7
 10
4.445799999999956
 20
140.3058
 30
0.0
 11
3.929599999999981
 21
140.4661
 31
0.0
  0
LINE
  5
190
  8
LAYER_1
 62
     7
 10
3.929599999999981
 20
140.4661
 30
0.0
 11
3.462499999999979
 21
140.7196
 31
0.0
  0
LINE
  5
191
  8
LAYER_1
 62
     7
 10
3.462499999999979
 20
140.7196
 30
0.0
 11
3.055499999999969
 21
141.0554
 31
0.0
  0
LINE
  5
192
  8
LAYER_1
 62
     7
 10
3.055499999999969
 20
141.0554
 30
0.0
 11
2.719699999999954
 21
141.4624
 31
0.0
  0
LINE
  5
193
  8
LAYER_1
 62
     7
 10
2.719699999999954
 20
141.4624
 30
0.0
 11
2.466199999999983
 21
141.9295
 31
0.0
  0
LINE
  5
194
  8
LAYER_1
 62
     7
 10
2.466199999999983
 20
141.9295
 30
0.0
 11
2.305999999999983
 21
142.4457
 31
0.0
  0
LINE
  5
195
  8
LAYER_1
 62
     7
 10
2.305999999999983
 20
142.4457
 30
0.0
 11
2.250099999999971
 21
143.0
 31
0.0
  0
LINE
  5
196
  8
LAYER_1
 62
     7
 10
2.250099999999971
 20
143.0
 30
0.0
 11
2.305999999999983
 21
143.5542
 31
0.0
  0
LINE
  5
197
  8
LAYER_1
 62
     7
 10
2.305999999999983
 20
143.5542
 30
0.0
 11
2.466199999999983
 21
144.0704
 31
0.0
  0
LINE
  5
198
  8
LAYER_1
 62
     7
 10
2.466199999999983
 20
144.0704
 30
0.0
 11
2.719799999999986
 21
144.5375
 31
0.0
  0
LINE
  5
199
  8
LAYER_1
 62
     7
 10
2.719799999999986
 20
144.5375
 30
0.0
 11
3.055499999999969
 21
144.9445
 31
0.0
  0
LINE
  5
19A
  8
LAYER_1
 62
     7
 10
3.055499999999969
 20
144.9445
 30
0.0
 11
3.462499999999979
 21
145.2803
 31
0.0
  0
LINE
  5
19B
  8
LAYER_1
 62
     7
 10
3.462499999999979
 20
145.2803
 30
0.0
 11
3.929699999999968
 21
145.5339
 31
0.0
  0
LINE
  5
19C
  8
LAYER_1
 62
     7
 10
3.929699999999968
 20
145.5339
 30
0.0
 11
4.445899999999988
 21
145.6941
 31
0.0
  0
LINE
  5
19D
  8
LAYER_1
 62
     7
 10
4.445899999999988
 20
145.6941
 30
0.0
 11
5.000099999999978
 21
145.75
 31
0.0
  0
LINE
  5
19E
  8
LAYER_1
 62
     7
 10
140.0000999999999
 20
145.75
 30
0.0
 11
140.5543
 21
145.6941
 31
0.0
  0
LINE
  5
19F
  8
LAYER_1
 62
     7
 10
140.5543
 20
145.6941
 30
0.0
 11
141.0705
 21
145.5339
 31
0.0
  0
LINE
  5
1A0
  8
LAYER_1
 62
     7
 10
141.0705
 20
145.5339
 30
0.0
 11
141.5377
 21
145.2803
 31
0.0
  0
LINE
  5
1A1
  8
LAYER_1
 62
     7
 10
141.5377
 20
145.2803
 30
0.0
 11
141.9446
 21
144.9445
 31
0.0
  0
LINE
  5
1A2
  8
LAYER_1
 62
     7
 10
141.9446
 20
144.9445
 30
0.0
 11
142.2804
 21
144.5375
 31
0.0
  0
LINE
  5
1A3
  8
LAYER_1
 62
     7
 10
142.2804
 20
144.5375
 30
0.0
 11
142.534
 21
144.0704
 31
0.0
  0
LINE
  5
1A4
  8
LAYER_1
 62
     7
 10
142.534
 20
144.0704
 30
0.0
 11
142.6942
 21
143.5542
 31
0.0
  0
LINE
  5
1A5
  8
LAYER_1
 62
     7
 10
142.6942
 20
143.5542
 30
0.0
 11
142.7501
 21
143.0
 31
0.0
  0
LINE
  5
1A6
  8
LAYER_1
 62
     7
 10
142.7501
 20
143.0
 30
0.0
 11
142.6942
 21
142.4458
 31
0.0
  0
LINE
  5
1A7
  8
LAYER_1
 62
     7
 10
142.6942
 20
142.4458
 30
0.0
 11
142.534
 21
141.9296
 31
0.0
  0
LINE
  5
1A8
  8
LAYER_1
 62
     7
 10
142.534
 20
141.9296
 30
0.0
 11
142.2804
 21
141.4625
 31
0.0
  0
LINE
  5
1A9
  8
LAYER_1
 62
     7
 10
142.2804
 20
141.4625
 30
0.0
 11
141.9446
 21
141.0555
 31
0.0
  0
LINE
  5
1AA
  8
LAYER_1
 62
     7
 10
141.9446
 20
141.0555
 30
0.0
 11
141.5377
 21
140.7196
 31
0.0
  0
LINE
  5
1AB
  8
LAYER_1
 62
     7
 10
141.5377
 20
140.7196
 30
0.0
 11
141.0705
 21
140.4661
 31
0.0
  0
LINE
  5
1AC
  8
LAYER_1
 62
     7
 10
141.0705
 20
140.4661
 30
0.0
 11
140.5543
 21
140.3058
 31
0.0
  0
LINE
  5
1AD
  8
LAYER_1
 62
     7
 10
140.5543
 20
140.3058
 30
0.0
 11
140.0000999999999
 21
140.2499
 31
0.0
  0
LINE
  5
1AE
  8
LAYER_1
 62
     7
 10
140.0000999999999
 20
140.2499
 30
0.0
 11
139.4459
 21
140.3058
 31
0.0
  0
LINE
  5
1AF
  8
LAYER_1
 62
     7
 10
139.4459
 20
140.3058
 30
0.0
 11
138.9297
 21
140.4661
 31
0.0
  0
LINE
  5
1B0
  8
LAYER_1
 62
     7
 10
138.9297
 20
140.4661
 30
0.0
 11
138.4624999999999
 21
140.7196
 31
0.0
  0
LINE
  5
1B1
  8
LAYER_1
 62
     7
 10
138.4624999999999
 20
140.7196
 30
0.0
 11
138.0555
 21
141.0554
 31
0.0
  0
LINE
  5
1B2
  8
LAYER_1
 62
     7
 10
138.0555
 20
141.0554
 30
0.0
 11
137.7198
 21
141.4624
 31
0.0
  0
LINE
  5
1B3
  8
LAYER_1
 62
     7
 10
137.7198
 20
141.4624
 30
0.0
 11
137.4662
 21
141.9295
 31
0.0
  0
LINE
  5
1B4
  8
LAYER_1
 62
     7
 10
137.4662
 20
141.9295
 30
0.0
 11
137.306
 21
142.4457
 31
0.0
  0
LINE
  5
1B5
  8
LAYER_1
 62
     7
 10
137.306
 20
142.4457
 30
0.0
 11
137.2501
 21
143.0
 31
0.0
  0
LINE
  5
1B6
  8
LAYER_1
 62
     7
 10
137.2501
 20
143.0
 30
0.0
 11
137.306
 21
143.5542
 31
0.0
  0
LINE
  5
1B7
  8
LAYER_1
 62
     7
 10
137.306
 20
143.5542
 30
0.0
 11
137.4662
 21
144.0704
 31
0.0
  0
LINE
  5
1B8
  8
LAYER_1
 62
     7
 10
137.4662
 20
144.0704
 30
0.0
 11
137.7198
 21
144.5375
 31
0.0
  0
LINE
  5
1B9
  8
LAYER_1
 62
     7
 10
137.7198
 20
144.5375
 30
0.0
 11
138.0555
 21
144.9445
 31
0.0
  0
LINE
  5
1BA
  8
LAYER_1
 62
     7
 10
138.0555
 20
144.9445
 30
0.0
 11
138.4624999999999
 21
145.2803
 31
0.0
  0
LINE
  5
1BB
  8
LAYER_1
 62
     7
 10
138.4624999999999
 20
145.2803
 30
0.0
 11
138.9297
 21
145.5339
 31
0.0
  0
LINE
  5
1BC
  8
LAYER_1
 62
     7
 10
138.9297
 20
145.5339
 30
0.0
 11
139.4459
 21
145.6941
 31
0.0
  0
LINE
  5
1BD
  8
LAYER_1
 62
     7
 10
139.4459
 20
145.6941
 30
0.0
 11
140.0000999999999
 21
145.75
 31
0.0
  0
LINE
  5
1BE
  8
LAYER_1
 62
     7
 10
140.0000999999999
 20
16.75009999999999
 30
0.0
 11
140.5543
 21
16.6942
 31
0.0
  0
LINE
  5
1BF
  8
LAYER_1
 62
     7
 10
140.5543
 20
16.6942
 30
0.0
 11
141.0705
 21
16.53399999999999
 31
0.0
  0
LINE
  5
1C0
  8
LAYER_1
 62
     7
 10
141.0705
 20
16.53399999999999
 30
0.0
 11
141.5377
 21
16.2804
 31
0.0
  0
LINE
  5
1C1
  8
LAYER_1
 62
     7
 10
141.5377
 20
16.2804
 30
0.0
 11
141.9446
 21
15.94459999999999
 31
0.0
  0
LINE
  5
1C2
  8
LAYER_1
 62
     7
 10
141.9446
 20
15.94459999999999
 30
0.0
 11
142.2804
 21
15.53759999999999
 31
0.0
  0
LINE
  5
1C3
  8
LAYER_1
 62
     7
 10
142.2804
 20
15.53759999999999
 30
0.0
 11
142.534
 21
15.0704
 31
0.0
  0
LINE
  5
1C4
  8
LAYER_1
 62
     7
 10
142.534
 20
15.0704
 30
0.0
 11
142.6942
 21
14.5542
 31
0.0
  0
LINE
  5
1C5
  8
LAYER_1
 62
     7
 10
142.6942
 20
14.5542
 30
0.0
 11
142.7501
 21
14.0
 31
0.0
  0
LINE
  5
1C6
  8
LAYER_1
 62
     7
 10
142.7501
 20
14.0
 30
0.0
 11
142.6942
 21
13.4457
 31
0.0
  0
LINE
  5
1C7
  8
LAYER_1
 62
     7
 10
142.6942
 20
13.4457
 30
0.0
 11
142.534
 21
12.9295
 31
0.0
  0
LINE
  5
1C8
  8
LAYER_1
 62
     7
 10
142.534
 20
12.9295
 30
0.0
 11
142.2804
 21
12.4624
 31
0.0
  0
LINE
  5
1C9
  8
LAYER_1
 62
     7
 10
142.2804
 20
12.4624
 30
0.0
 11
141.9446
 21
12.05539999999999
 31
0.0
  0
LINE
  5
1CA
  8
LAYER_1
 62
     7
 10
141.9446
 20
12.05539999999999
 30
0.0
 11
141.5377
 21
11.7196
 31
0.0
  0
LINE
  5
1CB
  8
LAYER_1
 62
     7
 10
141.5377
 20
11.7196
 30
0.0
 11
141.0705
 21
11.46599999999999
 31
0.0
  0
LINE
  5
1CC
  8
LAYER_1
 62
     7
 10
141.0705
 20
11.46599999999999
 30
0.0
 11
140.5543
 21
11.3058
 31
0.0
  0
LINE
  5
1CD
  8
LAYER_1
 62
     7
 10
140.5543
 20
11.3058
 30
0.0
 11
140.0000999999999
 21
11.24989999999999
 31
0.0
  0
LINE
  5
1CE
  8
LAYER_1
 62
     7
 10
140.0000999999999
 20
11.24989999999999
 30
0.0
 11
139.4459
 21
11.3058
 31
0.0
  0
LINE
  5
1CF
  8
LAYER_1
 62
     7
 10
139.4459
 20
11.3058
 30
0.0
 11
138.9297
 21
11.46599999999999
 31
0.0
  0
LINE
  5
1D0
  8
LAYER_1
 62
     7
 10
138.9297
 20
11.46599999999999
 30
0.0
 11
138.4624999999999
 21
11.7196
 31
0.0
  0
LINE
  5
1D1
  8
LAYER_1
 62
     7
 10
138.4624999999999
 20
11.7196
 30
0.0
 11
138.0555
 21
12.05539999999999
 31
0.0
  0
LINE
  5
1D2
  8
LAYER_1
 62
     7
 10
138.0555
 20
12.05539999999999
 30
0.0
 11
137.7198
 21
12.4624
 31
0.0
  0
LINE
  5
1D3
  8
LAYER_1
 62
     7
 10
137.7198
 20
12.4624
 30
0.0
 11
137.4662
 21
12.9295
 31
0.0
  0
LINE
  5
1D4
  8
LAYER_1
 62
     7
 10
137.4662
 20
12.9295
 30
0.0
 11
137.306
 21
13.4457
 31
0.0
  0
LINE
  5
1D5
  8
LAYER_1
 62
     7
 10
137.306
 20
13.4457
 30
0.0
 11
137.2501
 21
14.0
 31
0.0
  0
LINE
  5
1D6
  8
LAYER_1
 62
     7
 10
137.2501
 20
14.0
 30
0.0
 11
137.306
 21
14.5542
 31
0.0
  0
LINE
  5
1D7
  8
LAYER_1
 62
     7
 10
137.306
 20
14.5542
 30
0.0
 11
137.4662
 21
15.0704
 31
0.0
  0
LINE
  5
1D8
  8
LAYER_1
 62
     7
 10
137.4662
 20
15.0704
 30
0.0
 11
137.7198
 21
15.53759999999999
 31
0.0
  0
LINE
  5
1D9
  8
LAYER_1
 62
     7
 10
137.7198
 20
15.53759999999999
 30
0.0
 11
138.0555
 21
15.94459999999999
 31
0.0
  0
LINE
  5
1DA
  8
LAYER_1
 62
     7
 10
138.0555
 20
15.94459999999999
 30
0.0
 11
138.4624999999999
 21
16.2804
 31
0.0
  0
LINE
  5
1DB
  8
LAYER_1
 62
     7
 10
138.4624999999999
 20
16.2804
 30
0.0
 11
138.9297
 21
16.53389999999999
 31
0.0
  0
LINE
  5
1DC
  8
LAYER_1
 62
     7
 10
138.9297
 20
16.53389999999999
 30
0.0
 11
139.4459
 21
16.6942
 31
0.0
  0
LINE
  5
1DD
  8
LAYER_1
 62
     7
 10
139.4459
 20
16.6942
 30
0.0
 11
140.0000999999999
 21
16.75009999999999
 31
0.0
  0
LINE
  5
1DE
  8
LAYER_1
 62
     7
 10
5.000099999999978
 20
16.75009999999999
 30
0.0
 11
5.554299999999968
 21
16.6942
 31
0.0
  0
LINE
  5
1DF
  8
LAYER_1
 62
     7
 10
5.554299999999968
 20
16.6942
 30
0.0
 11
6.070499999999988
 21
16.53399999999999
 31
0.0
  0
LINE
  5
1E0
  8
LAYER_1
 62
     7
 10
6.070499999999988
 20
16.53399999999999
 30
0.0
 11
6.537599999999989
 21
16.2804
 31
0.0
  0
LINE
  5
1E1
  8
LAYER_1
 62
     7
 10
6.537599999999989
 20
16.2804
 30
0.0
 11
6.944599999999954
 21
15.94459999999999
 31
0.0
  0
LINE
  5
1E2
  8
LAYER_1
 62
     7
 10
6.944599999999954
 20
15.94459999999999
 30
0.0
 11
7.280399999999969
 21
15.53759999999999
 31
0.0
  0
LINE
  5
1E3
  8
LAYER_1
 62
     7
 10
7.280399999999969
 20
15.53759999999999
 30
0.0
 11
7.533999999999972
 21
15.0704
 31
0.0
  0
LINE
  5
1E4
  8
LAYER_1
 62
     7
 10
7.533999999999972
 20
15.0704
 30
0.0
 11
7.694199999999972
 21
14.5542
 31
0.0
  0
LINE
  5
1E5
  8
LAYER_1
 62
     7
 10
7.694199999999972
 20
14.5542
 30
0.0
 11
7.750099999999984
 21
14.0
 31
0.0
  0
LINE
  5
1E6
  8
LAYER_1
 62
     7
 10
7.750099999999984
 20
14.0
 30
0.0
 11
7.694199999999972
 21
13.4457
 31
0.0
  0
LINE
  5
1E7
  8
LAYER_1
 62
     7
 10
7.694199999999972
 20
13.4457
 30
0.0
 11
7.533999999999972
 21
12.9295
 31
0.0
  0
LINE
  5
1E8
  8
LAYER_1
 62
     7
 10
7.533999999999972
 20
12.9295
 30
0.0
 11
7.280399999999969
 21
12.4624
 31
0.0
  0
LINE
  5
1E9
  8
LAYER_1
 62
     7
 10
7.280399999999969
 20
12.4624
 30
0.0
 11
6.944599999999954
 21
12.05539999999999
 31
0.0
  0
LINE
  5
1EA
  8
LAYER_1
 62
     7
 10
6.944599999999954
 20
12.05539999999999
 30
0.0
 11
6.537699999999975
 21
11.7196
 31
0.0
  0
LINE
  5
1EB
  8
LAYER_1
 62
     7
 10
6.537699999999975
 20
11.7196
 30
0.0
 11
6.070499999999988
 21
11.46599999999999
 31
0.0
  0
LINE
  5
1EC
  8
LAYER_1
 62
     7
 10
6.070499999999988
 20
11.46599999999999
 30
0.0
 11
5.554299999999968
 21
11.3058
 31
0.0
  0
LINE
  5
1ED
  8
LAYER_1
 62
     7
 10
5.554299999999968
 20
11.3058
 30
0.0
 11
5.000099999999978
 21
11.24989999999999
 31
0.0
  0
LINE
  5
1EE
  8
LAYER_1
 62
     7
 10
5.000099999999978
 20
11.24989999999999
 30
0.0
 11
4.445799999999956
 21
11.3058
 31
0.0
  0
LINE
  5
1EF
  8
LAYER_1
 62
     7
 10
4.445799999999956
 20
11.3058
 30
0.0
 11
3.929599999999981
 21
11.46599999999999
 31
0.0
  0
LINE
  5
1F0
  8
LAYER_1
 62
     7
 10
3.929599999999981
 20
11.46599999999999
 30
0.0
 11
3.462499999999979
 21
11.7196
 31
0.0
  0
LINE
  5
1F1
  8
LAYER_1
 62
     7
 10
3.462499999999979
 20
11.7196
 30
0.0
 11
3.055499999999969
 21
12.05539999999999
 31
0.0
  0
LINE
  5
1F2
  8
LAYER_1
 62
     7
 10
3.055499999999969
 20
12.05539999999999
 30
0.0
 11
2.719699999999954
 21
12.4624
 31
0.0
  0
LINE
  5
1F3
  8
LAYER_1
 62
     7
 10
2.719699999999954
 20
12.4624
 30
0.0
 11
2.466199999999983
 21
12.9295
 31
0.0
  0
LINE
  5
1F4
  8
LAYER_1
 62
     7
 10
2.466199999999983
 20
12.9295
 30
0.0
 11
2.305999999999983
 21
13.4457
 31
0.0
  0
LINE
  5
1F5
  8
LAYER_1
 62
     7
 10
2.305999999999983
 20
13.4457
 30
0.0
 11
2.250099999999971
 21
14.0
 31
0.0
  0
LINE
  5
1F6
  8
LAYER_1
 62
     7
 10
2.250099999999971
 20
14.0
 30
0.0
 11
2.305999999999983
 21
14.5542
 31
0.0
  0
LINE
  5
1F7
  8
LAYER_1
 62
     7
 10
2.305999999999983
 20
14.5542
 30
0.0
 11
2.466199999999983
 21
15.0704
 31
0.0
  0
LINE
  5
1F8
  8
LAYER_1
 62
     7
 10
2.466199999999983
 20
15.0704
 30
0.0
 11
2.719799999999986
 21
15.53759999999999
 31
0.0
  0
LINE
  5
1F9
  8
LAYER_1
 62
     7
 10
2.719799999999986
 20
15.53759999999999
 30
0.0
 11
3.055499999999969
 21
15.94459999999999
 31
0.0
  0
LINE
  5
1FA
  8
LAYER_1
 62
     7
 10
3.055499999999969
 20
15.94459999999999
 30
0.0
 11
3.462499999999979
 21
16.2804
 31
0.0
  0
LINE
  5
1FB
  8
LAYER_1
 62
     7
 10
3.462499999999979
 20
16.2804
 30
0.0
 11
3.929699999999968
 21
16.53389999999999
 31
0.0
  0
LINE
  5
1FC
  8
LAYER_1
 62
     7
 10
3.929699999999968
 20
16.53389999999999
 30
0.0
 11
4.445899999999988
 21
16.6942
 31
0.0
  0
LINE
  5
1FD
  8
LAYER_1
 62
     7
 10
4.445899999999988
 20
16.6942
 30
0.0
 11
5.000099999999978
 21
16.75009999999999
 31
0.0
  0
ENDBLK
  5
46
  8
0
  0
ENDSEC
  0
SECTION
  2
ENTITIES
  0
LINE
  5
1FE
  8
LAYER_1
 62
   250
 10
62.18569809681024
 20
170.9875777188923
 30
0.0
 11
62.12729809681025
 21
170.7998777188923
 31
0.0
  0
LINE
  5
1FF
  8
LAYER_1
 62
   250
 10
206.8132980968103
 20
171.3060777188923
 30
0.0
 11
206.4953980968102
 21
171.5209777188923
 31
0.0
  0
LINE
  5
200
  8
LAYER_1
 62
   250
 10
207.1067980968102
 20
170.5985777188923
 30
0.0
 11
207.0279980968102
 21
170.9877777188923
 31
0.0
  0
LINE
  5
201
  8
LAYER_1
 62
   250
 10
206.4953980968102
 20
171.5209777188923
 30
0.0
 11
206.1068980968102
 21
171.5999777188923
 31
0.0
  0
LINE
  5
202
  8
LAYER_1
 62
   250
 10
206.6850980968103
 20
14.87167771889231
 30
0.0
 11
206.9439980968102
 21
15.14077771889231
 31
0.0
  0
LINE
  5
203
  8
LAYER_1
 62
   250
 10
62.40039809681025
 20
171.3060777188923
 30
0.0
 11
62.18569809681024
 21
170.9875777188923
 31
0.0
  0
LINE
  5
204
  8
LAYER_1
 62
   250
 10
206.9439980968102
 20
15.14077771889231
 30
0.0
 11
207.0874980968102
 21
15.49177771889231
 31
0.0
  0
LINE
  5
205
  8
LAYER_1
 62
   250
 10
62.12729809681025
 20
170.7998777188923
 30
0.0
 11
62.10679809681025
 21
15.6017777188923
 31
0.0
  0
LINE
  5
206
  8
LAYER_1
 62
   250
 10
207.0279980968102
 20
170.9877777188923
 30
0.0
 11
206.8132980968103
 21
171.3060777188923
 31
0.0
  0
LINE
  5
207
  8
LAYER_1
 62
   250
 10
207.0874980968102
 20
15.49177771889231
 30
0.0
 11
207.1067980968102
 21
170.5985777188923
 31
0.0
  0
LINE
  5
208
  8
LAYER_1
 62
   250
 10
206.5215980968103
 20
14.77727771889231
 30
0.0
 11
206.6850980968103
 21
14.87167771889231
 31
0.0
  0
LINE
  5
209
  8
LAYER_1
 62
   250
 10
206.1445980968103
 20
14.68807771889232
 30
0.0
 11
206.5215980968103
 21
14.77727771889231
 31
0.0
  0
LINE
  5
20A
  8
LAYER_1
 62
   250
 10
62.54839809681025
 20
171.4284777188923
 30
0.0
 11
62.40039809681025
 21
171.3060777188923
 31
0.0
  0
LINE
  5
20B
  8
LAYER_1
 62
   250
 10
62.10679809681025
 20
15.6017777188923
 30
0.0
 11
62.22699809681025
 21
15.12017771889231
 31
0.0
  0
LINE
  5
20C
  8
LAYER_1
 62
   250
 10
62.49139809681025
 20
14.81167771889231
 30
0.0
 11
62.93999809681024
 21
14.6124777188923
 31
0.0
  0
LINE
  5
20D
  8
LAYER_1
 62
   250
 10
62.93999809681024
 20
14.6124777188923
 30
0.0
 11
206.1445980968103
 21
14.68807771889232
 31
0.0
  0
LINE
  5
20E
  8
LAYER_1
 62
   250
 10
62.90579809681025
 20
171.5795777188923
 30
0.0
 11
62.54839809681025
 21
171.4284777188923
 31
0.0
  0
LINE
  5
20F
  8
LAYER_1
 62
   250
 10
206.1068980968102
 20
171.5999777188923
 30
0.0
 11
62.90579809681025
 21
171.5795777188923
 31
0.0
  0
LINE
  5
210
  8
LAYER_1
 62
   250
 10
62.22699809681025
 20
15.12017771889231
 30
0.0
 11
62.49139809681025
 21
14.81167771889231
 31
0.0
  0
LINE
  5
211
  8
LAYER_1
 62
   250
 10
185.1470980968102
 20
23.87547771889231
 30
0.0
 11
84.06669809681026
 21
23.87547771889231
 31
0.0
  0
LINE
  5
212
  8
LAYER_1
 62
   250
 10
84.06669809681026
 20
23.87547771889231
 30
0.0
 11
84.06669809681026
 21
162.3413777188923
 31
0.0
  0
LINE
  5
213
  8
LAYER_1
 62
   250
 10
185.1470980968102
 20
162.3413777188923
 30
0.0
 11
185.1470980968102
 21
23.87547771889231
 31
0.0
  0
LINE
  5
214
  8
LAYER_1
 62
   250
 10
84.06669809681026
 20
162.3413777188923
 30
0.0
 11
185.1470980968102
 21
162.3413777188923
 31
0.0
  0
CIRCLE
  5
215
  8
0
 10
-67.10689809681023
 20
157.6008777188923
 30
0.0
 40
2.250000000000007
210
0.0
220
0.0
230
-1.0
  0
CIRCLE
  5
216
  8
0
 10
-76.41184809681023
 20
56.51702771889231
 30
0.0
 40
1.249999999999996
210
0.0
220
0.0
230
-1.0
  0
CIRCLE
  5
217
  8
0
 10
-67.10691814388663
 20
28.60078026159666
 30
0.0
 40
2.249999999999996
210
0.0
220
0.0
230
-1.0
  0
CIRCLE
  5
218
  8
0
 10
-76.41179809681024
 20
129.1612777188923
 30
0.0
 40
1.25
210
0.0
220
0.0
230
-1.0
  0
CIRCLE
  5
219
  8
0
 10
-202.1069083820578
 20
157.6008777188923
 30
0.0
 40
2.250000000000008
210
0.0
220
0.0
230
-1.0
  0
CIRCLE
  5
21A
  8
0
 10
-191.7687480968102
 20
129.1613277188923
 30
0.0
 40
1.250000000000008
210
0.0
220
0.0
230
-1.0
  0
CIRCLE
  5
21B
  8
0
 10
-202.1605142293442
 20
28.71999555667565
 30
0.0
 40
2.250000000000007
210
0.0
220
0.0
230
-1.0
  0
CIRCLE
  5
21C
  8
0
 10
-191.7686980968102
 20
56.51702771889232
 30
0.0
 40
1.250000000000007
210
0.0
220
0.0
230
-1.0
  0
POLYLINE
  5
21D
  8
0
 66
     1
 10
0.0
 20
0.0
 30
0.0
 70
    64
 71
   215
 72
   231
  0
VERTEX
  5
21E
  8
0
 10
190.521727201585
 20
56.43005883674996
 30
0.0
 70
   192
  0
VERTEX
  5
21F
  8
0
 10
190.5613408139489
 20
128.8378039125141
 30
0.0
 70
   192
  0
VERTEX
  5
220
  8
0
 10
190.5187480968102
 20
129.1613277188923
 30
0.0
 70
   192
  0
VERTEX
  5
221
  8
0
 10
190.5417075014516
 20
56.75576204592037
 30
0.0
 70
   192
  0
VERTEX
  5
222
  8
0
 10
190.6453051826941
 20
57.06519590523094
 30
0.0
 70
   192
  0
VERTEX
  5
223
  8
0
 10
190.6862163420797
 20
128.5363277188923
 30
0.0
 70
   192
  0
VERTEX
  5
224
  8
0
 10
190.8254602345391
 20
57.3372730085333
 30
0.0
 70
   192
  0
VERTEX
  5
225
  8
0
 10
190.884864620327
 20
128.2774442424091
 30
0.0
 70
   192
  0
VERTEX
  5
226
  8
0
 10
191.0698953879236
 20
57.55345175086605
 30
0.0
 70
   192
  0
VERTEX
  5
227
  8
0
 10
191.1437480968102
 20
128.0787959641617
 30
0.0
 70
   192
  0
VERTEX
  5
228
  8
0
 10
191.3619527910926
 20
57.6989999081915
 30
0.0
 70
   192
  0
VERTEX
  5
229
  8
0
 10
191.4452242904321
 20
127.953920436031
 30
0.0
 70
   192
  0
VERTEX
  5
22A
  8
0
 10
191.6817292146679
 20
57.7639986141176
 30
0.0
 70
   192
  0
VERTEX
  5
22B
  8
0
 10
191.7687480968102
 20
127.9113277188923
 30
0.0
 70
   192
  0
VERTEX
  5
22C
  8
0
 10
192.0074324238383
 20
57.74401831425093
 30
0.0
 70
   192
  0
VERTEX
  5
22D
  8
0
 10
192.0922719031884
 20
127.953920436031
 30
0.0
 70
   192
  0
VERTEX
  5
22E
  8
0
 10
192.3168662831488
 20
57.64042063300841
 30
0.0
 70
   192
  0
VERTEX
  5
22F
  8
0
 10
192.3937480968102
 20
128.0787959641617
 30
0.0
 70
   192
  0
VERTEX
  5
230
  8
0
 10
192.5889433864512
 20
57.46026558116345
 30
0.0
 70
   192
  0
VERTEX
  5
231
  8
0
 10
192.6526315732934
 20
128.2774442424091
 30
0.0
 70
   192
  0
VERTEX
  5
232
  8
0
 10
192.8051221287839
 20
57.21583042777897
 30
0.0
 70
   192
  0
VERTEX
  5
233
  8
0
 10
192.8512798515408
 20
128.5363277188923
 30
0.0
 70
   192
  0
VERTEX
  5
234
  8
0
 10
192.9506702861094
 20
56.92377302460994
 30
0.0
 70
   192
  0
VERTEX
  5
235
  8
0
 10
192.9761553796716
 20
128.8378039125141
 30
0.0
 70
   192
  0
VERTEX
  5
236
  8
0
 10
193.0156689920355
 20
56.60399660103467
 30
0.0
 70
   192
  0
VERTEX
  5
237
  8
0
 10
193.0187480968102
 20
129.1613277188923
 30
0.0
 70
   192
  0
VERTEX
  5
238
  8
0
 10
199.9193489067088
 20
28.91918892156648
 30
0.0
 70
   192
  0
VERTEX
  5
239
  8
0
 10
199.9335752729073
 20
157.0185348674117
 30
0.0
 70
   192
  0
VERTEX
  5
23A
  8
0
 10
199.8569083820577
 20
157.6008777188923
 30
0.0
 70
   192
  0
VERTEX
  5
23B
  8
0
 10
200.047269799719
 20
29.49245784097051
 30
0.0
 70
   192
  0
VERTEX
  5
23C
  8
0
 10
200.1583512235427
 20
156.4758777188923
 30
0.0
 70
   192
  0
VERTEX
  5
23D
  8
0
 10
200.3192048083066
 20
30.01308473225412
 30
0.0
 70
   192
  0
VERTEX
  5
23E
  8
0
 10
200.515918124388
 20
156.0098874612226
 30
0.0
 70
   192
  0
VERTEX
  5
23F
  8
0
 10
200.7166220110303
 20
30.44558973315296
 30
0.0
 70
   192
  0
VERTEX
  5
240
  8
0
 10
200.9819083820577
 20
155.6523205603773
 30
0.0
 70
   192
  0
VERTEX
  5
241
  8
0
 10
201.2124380822873
 20
30.76049834260408
 30
0.0
 70
   192
  0
VERTEX
  5
242
  8
0
 10
201.524565530577
 20
155.4275446097419
 30
0.0
 70
   192
  0
VERTEX
  5
243
  8
0
 10
201.7728639761963
 20
30.93635005928447
 30
0.0
 70
   192
  0
VERTEX
  5
244
  8
0
 10
202.1069083820577
 20
155.3508777188923
 30
0.0
 70
   192
  0
VERTEX
  5
245
  8
0
 10
202.3597075942351
 20
30.96116087931106
 30
0.0
 70
   192
  0
VERTEX
  5
246
  8
0
 10
202.6892512335384
 20
155.4275446097419
 30
0.0
 70
   192
  0
VERTEX
  5
247
  8
0
 10
202.9329765136391
 20
30.83323998630086
 30
0.0
 70
   192
  0
VERTEX
  5
248
  8
0
 10
203.2319083820577
 20
155.6523205603773
 30
0.0
 70
   192
  0
VERTEX
  5
249
  8
0
 10
203.4536034049227
 20
30.56130497771324
 30
0.0
 70
   192
  0
VERTEX
  5
24A
  8
0
 10
203.6978986397275
 20
156.0098874612225
 30
0.0
 70
   192
  0
VERTEX
  5
24B
  8
0
 10
203.8861084058216
 20
30.1638877749896
 30
0.0
 70
   192
  0
VERTEX
  5
24C
  8
0
 10
204.0554655405727
 20
156.4758777188923
 30
0.0
 70
   192
  0
VERTEX
  5
24D
  8
0
 10
204.2010170152727
 20
29.66807170373259
 30
0.0
 70
   192
  0
VERTEX
  5
24E
  8
0
 10
204.2802414912082
 20
157.0185348674116
 30
0.0
 70
   192
  0
VERTEX
  5
24F
  8
0
 10
204.3768687319531
 20
29.10764580982354
 30
0.0
 70
   192
  0
VERTEX
  5
250
  8
0
 10
204.3569083820578
 20
157.6008777188923
 30
0.0
 70
   192
  0
VERTEX
  5
251
  8
0
 10
62.93999809681024
 20
14.6124777188923
 30
0.0
 70
   192
  0
VERTEX
  5
252
  8
0
 10
64.85691814388663
 20
28.60078026159667
 30
0.0
 70
   192
  0
VERTEX
  5
253
  8
0
 10
64.85689809681023
 20
157.6008777188923
 30
0.0
 70
   192
  0
VERTEX
  5
254
  8
0
 10
64.93358503473623
 20
28.018437410116
 30
0.0
 70
   192
  0
VERTEX
  5
255
  8
0
 10
65.15836098537164
 20
27.47578026159667
 30
0.0
 70
   192
  0
VERTEX
  5
256
  8
0
 10
65.5159278862169
 20
27.00979000392694
 30
0.0
 70
   192
  0
VERTEX
  5
257
  8
0
 10
65.98191814388663
 20
26.65222310308168
 30
0.0
 70
   192
  0
VERTEX
  5
258
  8
0
 10
66.52457529240596
 20
26.42744715244627
 30
0.0
 70
   192
  0
VERTEX
  5
259
  8
0
 10
84.06669809681026
 20
23.87547771889231
 30
0.0
 70
   192
  0
VERTEX
  5
25A
  8
0
 10
206.1445980968103
 20
14.68807771889232
 30
0.0
 70
   192
  0
VERTEX
  5
25B
  8
0
 10
67.10691814388662
 20
26.35078026159667
 30
0.0
 70
   192
  0
VERTEX
  5
25C
  8
0
 10
67.6892609953673
 20
26.42744715244626
 30
0.0
 70
   192
  0
VERTEX
  5
25D
  8
0
 10
68.23191814388663
 20
26.65222310308168
 30
0.0
 70
   192
  0
VERTEX
  5
25E
  8
0
 10
68.69790840155636
 20
27.00979000392693
 30
0.0
 70
   192
  0
VERTEX
  5
25F
  8
0
 10
69.0554753024016
 20
27.47578026159666
 30
0.0
 70
   192
  0
VERTEX
  5
260
  8
0
 10
69.28025125303704
 20
28.01843741011599
 30
0.0
 70
   192
  0
VERTEX
  5
261
  8
0
 10
69.35691814388663
 20
28.60078026159666
 30
0.0
 70
   192
  0
VERTEX
  5
262
  8
0
 10
75.2044522531071
 20
56.19346122401314
 30
0.0
 70
   192
  0
VERTEX
  5
263
  8
0
 10
75.1618480975915
 20
56.51698352429469
 30
0.0
 70
   192
  0
VERTEX
  5
264
  8
0
 10
75.3293384400551
 20
55.89198944563869
 30
0.0
 70
   192
  0
VERTEX
  5
265
  8
0
 10
75.52799587117917
 20
55.63311299266189
 30
0.0
 70
   192
  0
VERTEX
  5
266
  8
0
 10
75.78688637084512
 20
55.43447386753954
 30
0.0
 70
   192
  0
VERTEX
  5
267
  8
0
 10
76.08836697933752
 20
55.30960899838207
 30
0.0
 70
   192
  0
VERTEX
  5
268
  8
0
 10
76.41189229140787
 20
55.26702771967358
 30
0.0
 70
   192
  0
VERTEX
  5
269
  8
0
 10
76.7354145916894
 20
55.30963187518918
 30
0.0
 70
   192
  0
VERTEX
  5
26A
  8
0
 10
77.03688637006385
 20
55.43451806213717
 30
0.0
 70
   192
  0
VERTEX
  5
26B
  8
0
 10
77.29576282304065
 20
55.63317549326123
 30
0.0
 70
   192
  0
VERTEX
  5
26C
  8
0
 10
77.494401948163
 20
55.89206599292719
 30
0.0
 70
   192
  0
VERTEX
  5
26D
  8
0
 10
77.61926681732048
 20
56.19354660141959
 30
0.0
 70
   192
  0
VERTEX
  5
26E
  8
0
 10
77.66184809602898
 20
56.51707191348993
 30
0.0
 70
   192
  0
VERTEX
  5
26F
  8
0
 10
185.1470980968102
 20
23.87547771889231
 30
0.0
 70
   192
  0
VERTEX
  5
270
  8
0
 10
200.1200114434158
 20
27.77191940961871
 30
0.0
 70
   192
  0
VERTEX
  5
271
  8
0
 10
190.586725907511
 20
56.11028241317469
 30
0.0
 70
   192
  0
VERTEX
  5
272
  8
0
 10
185.1470980968102
 20
162.3413777188923
 30
0.0
 70
   192
  0
VERTEX
  5
273
  8
0
 10
190.7322740648365
 20
55.81822501000567
 30
0.0
 70
   192
  0
VERTEX
  5
274
  8
0
 10
190.9484528071692
 20
55.57378985662119
 30
0.0
 70
   192
  0
VERTEX
  5
275
  8
0
 10
191.2205299104716
 20
55.39363480477623
 30
0.0
 70
   192
  0
VERTEX
  5
276
  8
0
 10
199.9441597267354
 20
28.33234530352775
 30
0.0
 70
   192
  0
VERTEX
  5
277
  8
0
 10
191.5299637697821
 20
55.2900371235337
 30
0.0
 70
   192
  0
VERTEX
  5
278
  8
0
 10
191.8556669789526
 20
55.27005682366704
 30
0.0
 70
   192
  0
VERTEX
  5
279
  8
0
 10
192.1754434025279
 20
55.33505552959314
 30
0.0
 70
   192
  0
VERTEX
  5
27A
  8
0
 10
192.4675008056969
 20
55.48060368691858
 30
0.0
 70
   192
  0
VERTEX
  5
27B
  8
0
 10
192.7119359590814
 20
55.69678242925133
 30
0.0
 70
   192
  0
VERTEX
  5
27C
  8
0
 10
192.8920910109263
 20
55.96885953255369
 30
0.0
 70
   192
  0
VERTEX
  5
27D
  8
0
 10
192.9956886921688
 20
56.27829339186427
 30
0.0
 70
   192
  0
VERTEX
  5
27E
  8
0
 10
200.4349200528669
 20
27.27610333836169
 30
0.0
 70
   192
  0
VERTEX
  5
27F
  8
0
 10
200.8674250537658
 20
26.87868613563805
 30
0.0
 70
   192
  0
VERTEX
  5
280
  8
0
 10
201.3880519450494
 20
26.60675112705043
 30
0.0
 70
   192
  0
VERTEX
  5
281
  8
0
 10
201.9613208644534
 20
26.47883023404023
 30
0.0
 70
   192
  0
VERTEX
  5
282
  8
0
 10
202.5481644824922
 20
26.50364105406683
 30
0.0
 70
   192
  0
VERTEX
  5
283
  8
0
 10
203.1085903764012
 20
26.67949277074721
 30
0.0
 70
   192
  0
VERTEX
  5
284
  8
0
 10
203.6044064476582
 20
26.99440138019833
 30
0.0
 70
   192
  0
VERTEX
  5
285
  8
0
 10
204.0018236503819
 20
27.42690638109717
 30
0.0
 70
   192
  0
VERTEX
  5
286
  8
0
 10
204.2737586589695
 20
27.94753327238078
 30
0.0
 70
   192
  0
VERTEX
  5
287
  8
0
 10
204.4016795519797
 20
28.52080219178481
 30
0.0
 70
   192
  0
VERTEX
  5
288
  8
0
 10
206.1068980968102
 20
171.5999777188923
 30
0.0
 70
   192
  0
VERTEX
  5
289
  8
0
 10
206.4953980968102
 20
171.5209777188923
 30
0.0
 70
   192
  0
VERTEX
  5
28A
  8
0
 10
206.5215980968103
 20
14.77727771889231
 30
0.0
 70
   192
  0
VERTEX
  5
28B
  8
0
 10
206.8132980968103
 20
171.3060777188923
 30
0.0
 70
   192
  0
VERTEX
  5
28C
  8
0
 10
206.6850980968103
 20
14.87167771889231
 30
0.0
 70
   192
  0
VERTEX
  5
28D
  8
0
 10
206.9439980968102
 20
15.14077771889231
 30
0.0
 70
   192
  0
VERTEX
  5
28E
  8
0
 10
207.0279980968102
 20
170.9877777188923
 30
0.0
 70
   192
  0
VERTEX
  5
28F
  8
0
 10
207.0874980968102
 20
15.49177771889231
 30
0.0
 70
   192
  0
VERTEX
  5
290
  8
0
 10
207.1067980968102
 20
170.5985777188923
 30
0.0
 70
   192
  0
VERTEX
  5
291
  8
0
 10
62.22699809681025
 20
15.12017771889231
 30
0.0
 70
   192
  0
VERTEX
  5
292
  8
0
 10
62.12729809681025
 20
170.7998777188923
 30
0.0
 70
   192
  0
VERTEX
  5
293
  8
0
 10
62.10679809681025
 20
15.6017777188923
 30
0.0
 70
   192
  0
VERTEX
  5
294
  8
0
 10
62.18569809681024
 20
170.9875777188923
 30
0.0
 70
   192
  0
VERTEX
  5
295
  8
0
 10
62.40039809681025
 20
171.3060777188923
 30
0.0
 70
   192
  0
VERTEX
  5
296
  8
0
 10
62.49139809681025
 20
14.81167771889231
 30
0.0
 70
   192
  0
VERTEX
  5
297
  8
0
 10
62.54839809681025
 20
171.4284777188923
 30
0.0
 70
   192
  0
VERTEX
  5
298
  8
0
 10
62.90579809681025
 20
171.5795777188923
 30
0.0
 70
   192
  0
VERTEX
  5
299
  8
0
 10
64.93356498765982
 20
158.183220570373
 30
0.0
 70
   192
  0
VERTEX
  5
29A
  8
0
 10
65.15834093829523
 20
158.7258777188923
 30
0.0
 70
   192
  0
VERTEX
  5
29B
  8
0
 10
65.5159078391405
 20
159.1918679765621
 30
0.0
 70
   192
  0
VERTEX
  5
29C
  8
0
 10
65.98189809681023
 20
159.5494348774073
 30
0.0
 70
   192
  0
VERTEX
  5
29D
  8
0
 10
66.52455524532955
 20
159.7742108280427
 30
0.0
 70
   192
  0
VERTEX
  5
29E
  8
0
 10
84.06669809681026
 20
162.3413777188923
 30
0.0
 70
   192
  0
VERTEX
  5
29F
  8
0
 10
67.10689809681023
 20
159.8508777188923
 30
0.0
 70
   192
  0
VERTEX
  5
2A0
  8
0
 10
67.68924094829092
 20
159.7742108280427
 30
0.0
 70
   192
  0
VERTEX
  5
2A1
  8
0
 10
68.23189809681023
 20
159.5494348774073
 30
0.0
 70
   192
  0
VERTEX
  5
2A2
  8
0
 10
68.69788835447997
 20
159.1918679765621
 30
0.0
 70
   192
  0
VERTEX
  5
2A3
  8
0
 10
69.05545525532523
 20
158.7258777188923
 30
0.0
 70
   192
  0
VERTEX
  5
2A4
  8
0
 10
69.28023120596065
 20
158.183220570373
 30
0.0
 70
   192
  0
VERTEX
  5
2A5
  8
0
 10
69.35689809681024
 20
157.6008777188923
 30
0.0
 70
   192
  0
VERTEX
  5
2A6
  8
0
 10
75.25362197609223
 20
129.6315202875721
 30
0.0
 70
   192
  0
VERTEX
  5
2A7
  8
0
 10
75.17137813782517
 20
129.3157391229759
 30
0.0
 70
   192
  0
VERTEX
  5
2A8
  8
0
 10
75.41479360300968
 20
129.9152551982254
 30
0.0
 70
   192
  0
VERTEX
  5
2A9
  8
0
 10
75.64390943855182
 20
130.1476077896689
 30
0.0
 70
   192
  0
VERTEX
  5
2AA
  8
0
 10
75.92535561715826
 20
130.3127436167764
 30
0.0
 70
   192
  0
VERTEX
  5
2AB
  8
0
 10
76.23995204686878
 20
130.3994089458305
 30
0.0
 70
   192
  0
VERTEX
  5
2AC
  8
0
 10
76.56625950089378
 20
130.4016976778774
 30
0.0
 70
   192
  0
VERTEX
  5
2AD
  8
0
 10
76.88204066549002
 20
130.3194538396103
 30
0.0
 70
   192
  0
VERTEX
  5
2AE
  8
0
 10
77.16577557614335
 20
130.1582822126929
 30
0.0
 70
   192
  0
VERTEX
  5
2AF
  8
0
 10
77.39812816758679
 20
129.9291663771507
 30
0.0
 70
   192
  0
VERTEX
  5
2B0
  8
0
 10
77.56326399469434
 20
129.6477201985443
 30
0.0
 70
   192
  0
VERTEX
  5
2B1
  8
0
 10
77.64992932374845
 20
129.3331237688338
 30
0.0
 70
   192
  0
VERTEX
  5
2B2
  8
0
 10
77.65221805579533
 20
129.0068163148088
 30
0.0
 70
   192
  0
VERTEX
  5
2B3
  8
0
 10
200.1583512235428
 20
158.7258777188923
 30
0.0
 70
   192
  0
VERTEX
  5
2B4
  8
0
 10
199.9335752729073
 20
158.183220570373
 30
0.0
 70
   192
  0
VERTEX
  5
2B5
  8
0
 10
190.5613408139489
 20
129.4848515252704
 30
0.0
 70
   192
  0
VERTEX
  5
2B6
  8
0
 10
190.6862163420797
 20
129.7863277188923
 30
0.0
 70
   192
  0
VERTEX
  5
2B7
  8
0
 10
190.884864620327
 20
130.0452111953755
 30
0.0
 70
   192
  0
VERTEX
  5
2B8
  8
0
 10
191.1437480968102
 20
130.2438594736228
 30
0.0
 70
   192
  0
VERTEX
  5
2B9
  8
0
 10
191.4452242904321
 20
130.3687350017536
 30
0.0
 70
   192
  0
VERTEX
  5
2BA
  8
0
 10
191.7687480968102
 20
130.4113277188923
 30
0.0
 70
   192
  0
VERTEX
  5
2BB
  8
0
 10
192.0922719031884
 20
130.3687350017536
 30
0.0
 70
   192
  0
VERTEX
  5
2BC
  8
0
 10
192.3937480968102
 20
130.2438594736228
 30
0.0
 70
   192
  0
VERTEX
  5
2BD
  8
0
 10
192.6526315732934
 20
130.0452111953755
 30
0.0
 70
   192
  0
VERTEX
  5
2BE
  8
0
 10
192.8512798515408
 20
129.7863277188923
 30
0.0
 70
   192
  0
VERTEX
  5
2BF
  8
0
 10
192.9761553796716
 20
129.4848515252704
 30
0.0
 70
   192
  0
VERTEX
  5
2C0
  8
0
 10
200.515918124388
 20
159.1918679765621
 30
0.0
 70
   192
  0
VERTEX
  5
2C1
  8
0
 10
200.9819083820578
 20
159.5494348774073
 30
0.0
 70
   192
  0
VERTEX
  5
2C2
  8
0
 10
201.5245655305771
 20
159.7742108280427
 30
0.0
 70
   192
  0
VERTEX
  5
2C3
  8
0
 10
202.1069083820578
 20
159.8508777188923
 30
0.0
 70
   192
  0
VERTEX
  5
2C4
  8
0
 10
202.6892512335384
 20
159.7742108280427
 30
0.0
 70
   192
  0
VERTEX
  5
2C5
  8
0
 10
203.2319083820578
 20
159.5494348774073
 30
0.0
 70
   192
  0
VERTEX
  5
2C6
  8
0
 10
203.6978986397275
 20
159.191867976562
 30
0.0
 70
   192
  0
VERTEX
  5
2C7
  8
0
 10
204.0554655405727
 20
158.7258777188923
 30
0.0
 70
   192
  0
VERTEX
  5
2C8
  8
0
 10
204.2802414912082
 20
158.183220570373
 30
0.0
 70
   192
  0
VERTEX
  5
2C9
  8
0
 10
64.93356498765982
 20
157.0185348674116
 30
0.0
 70
   192
  0
VERTEX
  5
2CA
  8
0
 10
64.93358503473623
 20
29.18312311307734
 30
0.0
 70
   192
  0
VERTEX
  5
2CB
  8
0
 10
65.15834093829523
 20
156.4758777188923
 30
0.0
 70
   192
  0
VERTEX
  5
2CC
  8
0
 10
65.15836098537166
 20
29.72578026159667
 30
0.0
 70
   192
  0
VERTEX
  5
2CD
  8
0
 10
65.5159078391405
 20
156.0098874612225
 30
0.0
 70
   192
  0
VERTEX
  5
2CE
  8
0
 10
65.51592788621691
 20
30.1917705192664
 30
0.0
 70
   192
  0
VERTEX
  5
2CF
  8
0
 10
65.98189809681023
 20
155.6523205603773
 30
0.0
 70
   192
  0
VERTEX
  5
2D0
  8
0
 10
65.98191814388665
 20
30.54933742011165
 30
0.0
 70
   192
  0
VERTEX
  5
2D1
  8
0
 10
66.52455524532957
 20
155.4275446097419
 30
0.0
 70
   192
  0
VERTEX
  5
2D2
  8
0
 10
66.52457529240597
 20
30.77411337074707
 30
0.0
 70
   192
  0
VERTEX
  5
2D3
  8
0
 10
67.10689809681023
 20
155.3508777188923
 30
0.0
 70
   192
  0
VERTEX
  5
2D4
  8
0
 10
67.10691814388665
 20
30.85078026159666
 30
0.0
 70
   192
  0
VERTEX
  5
2D5
  8
0
 10
67.68924094829092
 20
155.4275446097419
 30
0.0
 70
   192
  0
VERTEX
  5
2D6
  8
0
 10
67.6892609953673
 20
30.77411337074706
 30
0.0
 70
   192
  0
VERTEX
  5
2D7
  8
0
 10
68.23189809681023
 20
155.6523205603773
 30
0.0
 70
   192
  0
VERTEX
  5
2D8
  8
0
 10
68.23191814388663
 20
30.54933742011164
 30
0.0
 70
   192
  0
VERTEX
  5
2D9
  8
0
 10
68.69788835447997
 20
156.0098874612225
 30
0.0
 70
   192
  0
VERTEX
  5
2DA
  8
0
 10
68.69790840155638
 20
30.19177051926639
 30
0.0
 70
   192
  0
VERTEX
  5
2DB
  8
0
 10
69.05545525532523
 20
156.4758777188923
 30
0.0
 70
   192
  0
VERTEX
  5
2DC
  8
0
 10
69.05547530240162
 20
29.72578026159666
 30
0.0
 70
   192
  0
VERTEX
  5
2DD
  8
0
 10
69.28023120596065
 20
157.0185348674116
 30
0.0
 70
   192
  0
VERTEX
  5
2DE
  8
0
 10
69.28025125303704
 20
29.18312311307733
 30
0.0
 70
   192
  0
VERTEX
  5
2DF
  8
0
 10
75.2044293763
 20
56.84050883636503
 30
0.0
 70
   192
  0
VERTEX
  5
2E0
  8
0
 10
75.17366686987204
 20
128.9894316689509
 30
0.0
 70
   192
  0
VERTEX
  5
2E1
  8
0
 10
75.26033219892615
 20
128.6748352392403
 30
0.0
 70
   192
  0
VERTEX
  5
2E2
  8
0
 10
75.32929424545748
 20
57.14198944485742
 30
0.0
 70
   192
  0
VERTEX
  5
2E3
  8
0
 10
75.4254680260337
 20
128.3933890606339
 30
0.0
 70
   192
  0
VERTEX
  5
2E4
  8
0
 10
75.52793337057983
 20
57.40087994452338
 30
0.0
 70
   192
  0
VERTEX
  5
2E5
  8
0
 10
75.65782061747716
 20
128.1642732250918
 30
0.0
 70
   192
  0
VERTEX
  5
2E6
  8
0
 10
75.78680982355662
 20
57.59953737564745
 30
0.0
 70
   192
  0
VERTEX
  5
2E7
  8
0
 10
75.94155552813046
 20
128.0031015981743
 30
0.0
 70
   192
  0
VERTEX
  5
2E8
  8
0
 10
76.08828160193107
 20
57.72442356259544
 30
0.0
 70
   192
  0
VERTEX
  5
2E9
  8
0
 10
76.25733669272671
 20
127.9208577599072
 30
0.0
 70
   192
  0
VERTEX
  5
2EA
  8
0
 10
76.41180390221261
 20
57.76702771811104
 30
0.0
 70
   192
  0
VERTEX
  5
2EB
  8
0
 10
76.58364414675171
 20
127.9231464919541
 30
0.0
 70
   192
  0
VERTEX
  5
2EC
  8
0
 10
76.73532921428296
 20
57.72444643940255
 30
0.0
 70
   192
  0
VERTEX
  5
2ED
  8
0
 10
76.89824057646223
 20
128.0098118210082
 30
0.0
 70
   192
  0
VERTEX
  5
2EE
  8
0
 10
77.03680982277535
 20
57.59958157024507
 30
0.0
 70
   192
  0
VERTEX
  5
2EF
  8
0
 10
77.17968675506867
 20
128.1749476481158
 30
0.0
 70
   192
  0
VERTEX
  5
2F0
  8
0
 10
77.2957003224413
 20
57.40094244512272
 30
0.0
 70
   192
  0
VERTEX
  5
2F1
  8
0
 10
77.4088025906108
 20
128.4073002395592
 30
0.0
 70
   192
  0
VERTEX
  5
2F2
  8
0
 10
77.49435775356538
 20
57.14206599214592
 30
0.0
 70
   192
  0
VERTEX
  5
2F3
  8
0
 10
77.56997421752826
 20
128.6910351502125
 30
0.0
 70
   192
  0
VERTEX
  5
2F4
  8
0
 10
77.61924394051337
 20
56.84059421377147
 30
0.0
 70
   192
  0
VERTEX
  5
2F5
  8
0
 10
0.0
 20
0.0
 30
0.0
 70
   128
 71
    -1
 72
     2
 73
    -3
  0
VERTEX
  5
2F6
  8
0
 10
0.0
 20
0.0
 30
0.0
 70
   128
 71
    -2
 72
     1
 73
    -4
  0
VERTEX
  5
2F7
  8
0
 10
0.0
 20
0.0
 30
0.0
 70
   128
 71
    -2
 72
     4
 73
    -5
  0
VERTEX
  5
2F8
  8
0
 10
0.0
 20
0.0
 30
0.0
 70
   128
 71
    -2
 72
    -5
 73
     6
  0
VERTEX
  5
2F9
  8
0
 10
0.0
 20
0.0
 30
0.0
 70
   128
 71
    -6
 72
     5
 73
    -7
  0
VERTEX
  5
2FA
  8
0
 10
0.0
 20
0.0
 30
0.0
 70
   128
 71
    -6
 72
    -7
 73
     8
  0
VERTEX
  5
2FB
  8
0
 10
0.0
 20
0.0
 30
0.0
 70
   128
 71
    -8
 72
     7
 73
    -9
  0
VERTEX
  5
2FC
  8
0
 10
0.0
 20
0.0
 30
0.0
 70
   128
 71
    -8
 72
    -9
 73
    10
  0
VERTEX
  5
2FD
  8
0
 10
0.0
 20
0.0
 30
0.0
 70
   128
 71
   -10
 72
     9
 73
   -11
  0
VERTEX
  5
2FE
  8
0
 10
0.0
 20
0.0
 30
0.0
 70
   128
 71
   -10
 72
   -11
 73
    12
  0
VERTEX
  5
2FF
  8
0
 10
0.0
 20
0.0
 30
0.0
 70
   128
 71
   -12
 72
    11
 73
   -13
  0
VERTEX
  5
300
  8
0
 10
0.0
 20
0.0
 30
0.0
 70
   128
 71
   -12
 72
   -13
 73
    14
  0
VERTEX
  5
301
  8
0
 10
0.0
 20
0.0
 30
0.0
 70
   128
 71
   -14
 72
    13
 73
   -15
  0
VERTEX
  5
302
  8
0
 10
0.0
 20
0.0
 30
0.0
 70
   128
 71
   -14
 72
   -15
 73
    16
  0
VERTEX
  5
303
  8
0
 10
0.0
 20
0.0
 30
0.0
 70
   128
 71
   -16
 72
    15
 73
   -17
  0
VERTEX
  5
304
  8
0
 10
0.0
 20
0.0
 30
0.0
 70
   128
 71
   -16
 72
   -17
 73
    18
  0
VERTEX
  5
305
  8
0
 10
0.0
 20
0.0
 30
0.0
 70
   128
 71
   -18
 72
    17
 73
   -19
  0
VERTEX
  5
306
  8
0
 10
0.0
 20
0.0
 30
0.0
 70
   128
 71
   -18
 72
   -19
 73
    20
  0
VERTEX
  5
307
  8
0
 10
0.0
 20
0.0
 30
0.0
 70
   128
 71
   -20
 72
    19
 73
   -21
  0
VERTEX
  5
308
  8
0
 10
0.0
 20
0.0
 30
0.0
 70
   128
 71
   -20
 72
   -21
 73
    22
  0
VERTEX
  5
309
  8
0
 10
0.0
 20
0.0
 30
0.0
 70
   128
 71
   -22
 72
    21
 73
   -23
  0
VERTEX
  5
30A
  8
0
 10
0.0
 20
0.0
 30
0.0
 70
   128
 71
   -22
 72
   -23
 73
    24
  0
VERTEX
  5
30B
  8
0
 10
0.0
 20
0.0
 30
0.0
 70
   128
 71
   -24
 72
    23
 73
   -25
  0
VERTEX
  5
30C
  8
0
 10
0.0
 20
0.0
 30
0.0
 70
   128
 71
   -24
 72
   -25
 73
    26
  0
VERTEX
  5
30D
  8
0
 10
0.0
 20
0.0
 30
0.0
 70
   128
 71
   -27
 72
    28
 73
   -29
  0
VERTEX
  5
30E
  8
0
 10
0.0
 20
0.0
 30
0.0
 70
   128
 71
   -28
 72
    27
 73
   -30
  0
VERTEX
  5
30F
  8
0
 10
0.0
 20
0.0
 30
0.0
 70
   128
 71
   -28
 72
   -30
 73
    31
  0
VERTEX
  5
310
  8
0
 10
0.0
 20
0.0
 30
0.0
 70
   128
 71
   -31
 72
    30
 73
   -32
  0
VERTEX
  5
311
  8
0
 10
0.0
 20
0.0
 30
0.0
 70
   128
 71
   -31
 72
   -32
 73
    33
  0
VERTEX
  5
312
  8
0
 10
0.0
 20
0.0
 30
0.0
 70
   128
 71
   -33
 72
    32
 73
   -34
  0
VERTEX
  5
313
  8
0
 10
0.0
 20
0.0
 30
0.0
 70
   128
 71
   -33
 72
   -34
 73
    35
  0
VERTEX
  5
314
  8
0
 10
0.0
 20
0.0
 30
0.0
 70
   128
 71
   -35
 72
    34
 73
   -36
  0
VERTEX
  5
315
  8
0
 10
0.0
 20
0.0
 30
0.0
 70
   128
 71
   -35
 72
   -36
 73
    37
  0
VERTEX
  5
316
  8
0
 10
0.0
 20
0.0
 30
0.0
 70
   128
 71
   -37
 72
    36
 73
   -38
  0
VERTEX
  5
317
  8
0
 10
0.0
 20
0.0
 30
0.0
 70
   128
 71
   -37
 72
   -38
 73
    39
  0
VERTEX
  5
318
  8
0
 10
0.0
 20
0.0
 30
0.0
 70
   128
 71
   -39
 72
    38
 73
   -40
  0
VERTEX
  5
319
  8
0
 10
0.0
 20
0.0
 30
0.0
 70
   128
 71
   -39
 72
   -40
 73
    41
  0
VERTEX
  5
31A
  8
0
 10
0.0
 20
0.0
 30
0.0
 70
   128
 71
   -41
 72
    40
 73
   -42
  0
VERTEX
  5
31B
  8
0
 10
0.0
 20
0.0
 30
0.0
 70
   128
 71
   -41
 72
   -42
 73
    43
  0
VERTEX
  5
31C
  8
0
 10
0.0
 20
0.0
 30
0.0
 70
   128
 71
   -43
 72
    42
 73
   -44
  0
VERTEX
  5
31D
  8
0
 10
0.0
 20
0.0
 30
0.0
 70
   128
 71
   -43
 72
   -44
 73
    45
  0
VERTEX
  5
31E
  8
0
 10
0.0
 20
0.0
 30
0.0
 70
   128
 71
   -45
 72
    44
 73
   -46
  0
VERTEX
  5
31F
  8
0
 10
0.0
 20
0.0
 30
0.0
 70
   128
 71
   -45
 72
   -46
 73
    47
  0
VERTEX
  5
320
  8
0
 10
0.0
 20
0.0
 30
0.0
 70
   128
 71
   -47
 72
    46
 73
   -48
  0
VERTEX
  5
321
  8
0
 10
0.0
 20
0.0
 30
0.0
 70
   128
 71
   -47
 72
   -48
 73
    49
  0
VERTEX
  5
322
  8
0
 10
0.0
 20
0.0
 30
0.0
 70
   128
 71
   -49
 72
    48
 73
   -50
  0
VERTEX
  5
323
  8
0
 10
0.0
 20
0.0
 30
0.0
 70
   128
 71
   -49
 72
   -50
 73
    51
  0
VERTEX
  5
324
  8
0
 10
0.0
 20
0.0
 30
0.0
 70
   128
 71
   -52
 72
   -53
 73
   -54
  0
VERTEX
  5
325
  8
0
 10
0.0
 20
0.0
 30
0.0
 70
   128
 71
   -53
 72
   -52
 73
    55
  0
VERTEX
  5
326
  8
0
 10
0.0
 20
0.0
 30
0.0
 70
   128
 71
   -55
 72
   -52
 73
    56
  0
VERTEX
  5
327
  8
0
 10
0.0
 20
0.0
 30
0.0
 70
   128
 71
   -56
 72
   -52
 73
    57
  0
VERTEX
  5
328
  8
0
 10
0.0
 20
0.0
 30
0.0
 70
   128
 71
   -57
 72
   -52
 73
    58
  0
VERTEX
  5
329
  8
0
 10
0.0
 20
0.0
 30
0.0
 70
   128
 71
   -58
 72
   -52
 73
    59
  0
VERTEX
  5
32A
  8
0
 10
0.0
 20
0.0
 30
0.0
 70
   128
 71
   -59
 72
   -52
 73
   -60
  0
VERTEX
  5
32B
  8
0
 10
0.0
 20
0.0
 30
0.0
 70
   128
 71
   -60
 72
    52
 73
   -61
  0
VERTEX
  5
32C
  8
0
 10
0.0
 20
0.0
 30
0.0
 70
   128
 71
   -59
 72
   -60
 73
    62
  0
VERTEX
  5
32D
  8
0
 10
0.0
 20
0.0
 30
0.0
 70
   128
 71
   -62
 72
   -60
 73
    63
  0
VERTEX
  5
32E
  8
0
 10
0.0
 20
0.0
 30
0.0
 70
   128
 71
   -63
 72
   -60
 73
    64
  0
VERTEX
  5
32F
  8
0
 10
0.0
 20
0.0
 30
0.0
 70
   128
 71
   -64
 72
   -60
 73
    65
  0
VERTEX
  5
330
  8
0
 10
0.0
 20
0.0
 30
0.0
 70
   128
 71
   -65
 72
   -60
 73
    66
  0
VERTEX
  5
331
  8
0
 10
0.0
 20
0.0
 30
0.0
 70
   128
 71
   -66
 72
   -60
 73
    67
  0
VERTEX
  5
332
  8
0
 10
0.0
 20
0.0
 30
0.0
 70
   128
 71
   -67
 72
   -60
 73
    68
  0
VERTEX
  5
333
  8
0
 10
0.0
 20
0.0
 30
0.0
 70
   128
 71
   -68
 72
   -60
 73
   -69
  0
VERTEX
  5
334
  8
0
 10
0.0
 20
0.0
 30
0.0
 70
   128
 71
   -68
 72
    69
 73
   -70
  0
VERTEX
  5
335
  8
0
 10
0.0
 20
0.0
 30
0.0
 70
   128
 71
   -69
 72
   -60
 73
    71
  0
VERTEX
  5
336
  8
0
 10
0.0
 20
0.0
 30
0.0
 70
   128
 71
   -71
 72
   -60
 73
    72
  0
VERTEX
  5
337
  8
0
 10
0.0
 20
0.0
 30
0.0
 70
   128
 71
   -72
 72
   -60
 73
    73
  0
VERTEX
  5
338
  8
0
 10
0.0
 20
0.0
 30
0.0
 70
   128
 71
   -73
 72
   -60
 73
    74
  0
VERTEX
  5
339
  8
0
 10
0.0
 20
0.0
 30
0.0
 70
   128
 71
   -74
 72
   -60
 73
    75
  0
VERTEX
  5
33A
  8
0
 10
0.0
 20
0.0
 30
0.0
 70
   128
 71
   -75
 72
   -60
 73
    76
  0
VERTEX
  5
33B
  8
0
 10
0.0
 20
0.0
 30
0.0
 70
   128
 71
   -76
 72
   -60
 73
    77
  0
VERTEX
  5
33C
  8
0
 10
0.0
 20
0.0
 30
0.0
 70
   128
 71
   -77
 72
   -60
 73
    78
  0
VERTEX
  5
33D
  8
0
 10
0.0
 20
0.0
 30
0.0
 70
   128
 71
   -78
 72
   -60
 73
    79
  0
VERTEX
  5
33E
  8
0
 10
0.0
 20
0.0
 30
0.0
 70
   128
 71
   -79
 72
   -60
 73
    80
  0
VERTEX
  5
33F
  8
0
 10
0.0
 20
0.0
 30
0.0
 70
   128
 71
   -80
 72
   -60
 73
    81
  0
VERTEX
  5
340
  8
0
 10
0.0
 20
0.0
 30
0.0
 70
   128
 71
   -60
 72
   -61
 73
    82
  0
VERTEX
  5
341
  8
0
 10
0.0
 20
0.0
 30
0.0
 70
   128
 71
   -82
 72
   -61
 73
   -83
  0
VERTEX
  5
342
  8
0
 10
0.0
 20
0.0
 30
0.0
 70
   128
 71
   -82
 72
   -83
 73
   -84
  0
VERTEX
  5
343
  8
0
 10
0.0
 20
0.0
 30
0.0
 70
   128
 71
   -82
 72
    84
 73
    -1
  0
VERTEX
  5
344
  8
0
 10
0.0
 20
0.0
 30
0.0
 70
   128
 71
   -82
 72
    -1
 73
    85
  0
VERTEX
  5
345
  8
0
 10
0.0
 20
0.0
 30
0.0
 70
   128
 71
   -85
 72
    -1
 73
    -3
  0
VERTEX
  5
346
  8
0
 10
0.0
 20
0.0
 30
0.0
 70
   128
 71
   -84
 72
   -83
 73
    86
  0
VERTEX
  5
347
  8
0
 10
0.0
 20
0.0
 30
0.0
 70
   128
 71
   -86
 72
   -83
 73
    87
  0
VERTEX
  5
348
  8
0
 10
0.0
 20
0.0
 30
0.0
 70
   128
 71
   -87
 72
   -83
 73
    88
  0
VERTEX
  5
349
  8
0
 10
0.0
 20
0.0
 30
0.0
 70
   128
 71
   -88
 72
    83
 73
   -89
  0
VERTEX
  5
34A
  8
0
 10
0.0
 20
0.0
 30
0.0
 70
   128
 71
   -88
 72
   -89
 73
    90
  0
VERTEX
  5
34B
  8
0
 10
0.0
 20
0.0
 30
0.0
 70
   128
 71
   -90
 72
   -89
 73
    91
  0
VERTEX
  5
34C
  8
0
 10
0.0
 20
0.0
 30
0.0
 70
   128
 71
   -91
 72
   -89
 73
    92
  0
VERTEX
  5
34D
  8
0
 10
0.0
 20
0.0
 30
0.0
 70
   128
 71
   -92
 72
   -89
 73
    93
  0
VERTEX
  5
34E
  8
0
 10
0.0
 20
0.0
 30
0.0
 70
   128
 71
   -93
 72
   -89
 73
    94
  0
VERTEX
  5
34F
  8
0
 10
0.0
 20
0.0
 30
0.0
 70
   128
 71
   -94
 72
   -89
 73
    95
  0
VERTEX
  5
350
  8
0
 10
0.0
 20
0.0
 30
0.0
 70
   128
 71
   -95
 72
   -89
 73
    96
  0
VERTEX
  5
351
  8
0
 10
0.0
 20
0.0
 30
0.0
 70
   128
 71
   -96
 72
   -89
 73
    25
  0
VERTEX
  5
352
  8
0
 10
0.0
 20
0.0
 30
0.0
 70
   128
 71
   -25
 72
   -89
 73
   -26
  0
VERTEX
  5
353
  8
0
 10
0.0
 20
0.0
 30
0.0
 70
   128
 71
   -26
 72
    89
 73
   -27
  0
VERTEX
  5
354
  8
0
 10
0.0
 20
0.0
 30
0.0
 70
   128
 71
   -26
 72
   -27
 73
   -29
  0
VERTEX
  5
355
  8
0
 10
0.0
 20
0.0
 30
0.0
 70
   128
 71
   -83
 72
   -61
 73
    97
  0
VERTEX
  5
356
  8
0
 10
0.0
 20
0.0
 30
0.0
 70
   128
 71
   -97
 72
   -61
 73
    98
  0
VERTEX
  5
357
  8
0
 10
0.0
 20
0.0
 30
0.0
 70
   128
 71
   -98
 72
   -61
 73
    99
  0
VERTEX
  5
358
  8
0
 10
0.0
 20
0.0
 30
0.0
 70
   128
 71
   -99
 72
   -61
 73
   100
  0
VERTEX
  5
359
  8
0
 10
0.0
 20
0.0
 30
0.0
 70
   128
 71
  -100
 72
   -61
 73
   101
  0
VERTEX
  5
35A
  8
0
 10
0.0
 20
0.0
 30
0.0
 70
   128
 71
  -101
 72
   -61
 73
   102
  0
VERTEX
  5
35B
  8
0
 10
0.0
 20
0.0
 30
0.0
 70
   128
 71
  -102
 72
   -61
 73
   103
  0
VERTEX
  5
35C
  8
0
 10
0.0
 20
0.0
 30
0.0
 70
   128
 71
  -103
 72
   -61
 73
   104
  0
VERTEX
  5
35D
  8
0
 10
0.0
 20
0.0
 30
0.0
 70
   128
 71
  -104
 72
   -61
 73
   105
  0
VERTEX
  5
35E
  8
0
 10
0.0
 20
0.0
 30
0.0
 70
   128
 71
  -105
 72
   -61
 73
   106
  0
VERTEX
  5
35F
  8
0
 10
0.0
 20
0.0
 30
0.0
 70
   128
 71
  -106
 72
   -61
 73
  -107
  0
VERTEX
  5
360
  8
0
 10
0.0
 20
0.0
 30
0.0
 70
   128
 71
  -107
 72
   -61
 73
   108
  0
VERTEX
  5
361
  8
0
 10
0.0
 20
0.0
 30
0.0
 70
   128
 71
  -108
 72
    61
 73
  -109
  0
VERTEX
  5
362
  8
0
 10
0.0
 20
0.0
 30
0.0
 70
   128
 71
  -108
 72
  -109
 73
   110
  0
VERTEX
  5
363
  8
0
 10
0.0
 20
0.0
 30
0.0
 70
   128
 71
  -110
 72
   109
 73
  -111
  0
VERTEX
  5
364
  8
0
 10
0.0
 20
0.0
 30
0.0
 70
   128
 71
  -110
 72
   111
 73
  -112
  0
VERTEX
  5
365
  8
0
 10
0.0
 20
0.0
 30
0.0
 70
   128
 71
  -110
 72
  -112
 73
   113
  0
VERTEX
  5
366
  8
0
 10
0.0
 20
0.0
 30
0.0
 70
   128
 71
  -113
 72
   112
 73
  -114
  0
VERTEX
  5
367
  8
0
 10
0.0
 20
0.0
 30
0.0
 70
   128
 71
  -113
 72
   114
 73
   115
  0
VERTEX
  5
368
  8
0
 10
0.0
 20
0.0
 30
0.0
 70
   128
 71
  -116
 72
   117
 73
   118
  0
VERTEX
  5
369
  8
0
 10
0.0
 20
0.0
 30
0.0
 70
   128
 71
  -117
 72
  -116
 73
   119
  0
VERTEX
  5
36A
  8
0
 10
0.0
 20
0.0
 30
0.0
 70
   128
 71
  -119
 72
  -116
 73
   120
  0
VERTEX
  5
36B
  8
0
 10
0.0
 20
0.0
 30
0.0
 70
   128
 71
  -120
 72
   116
 73
  -121
  0
VERTEX
  5
36C
  8
0
 10
0.0
 20
0.0
 30
0.0
 70
   128
 71
  -120
 72
  -121
 73
   122
  0
VERTEX
  5
36D
  8
0
 10
0.0
 20
0.0
 30
0.0
 70
   128
 71
  -122
 72
   121
 73
   -52
  0
VERTEX
  5
36E
  8
0
 10
0.0
 20
0.0
 30
0.0
 70
   128
 71
  -122
 72
   -52
 73
   123
  0
VERTEX
  5
36F
  8
0
 10
0.0
 20
0.0
 30
0.0
 70
   128
 71
  -123
 72
   -52
 73
   -54
  0
VERTEX
  5
370
  8
0
 10
0.0
 20
0.0
 30
0.0
 70
   128
 71
  -123
 72
    54
 73
  -124
  0
VERTEX
  5
371
  8
0
 10
0.0
 20
0.0
 30
0.0
 70
   128
 71
  -123
 72
   124
 73
  -125
  0
VERTEX
  5
372
  8
0
 10
0.0
 20
0.0
 30
0.0
 70
   128
 71
  -123
 72
   125
 73
  -126
  0
VERTEX
  5
373
  8
0
 10
0.0
 20
0.0
 30
0.0
 70
   128
 71
  -123
 72
   126
 73
  -127
  0
VERTEX
  5
374
  8
0
 10
0.0
 20
0.0
 30
0.0
 70
   128
 71
  -123
 72
   127
 73
  -128
  0
VERTEX
  5
375
  8
0
 10
0.0
 20
0.0
 30
0.0
 70
   128
 71
  -123
 72
  -128
 73
  -129
  0
VERTEX
  5
376
  8
0
 10
0.0
 20
0.0
 30
0.0
 70
   128
 71
  -123
 72
  -129
 73
   107
  0
VERTEX
  5
377
  8
0
 10
0.0
 20
0.0
 30
0.0
 70
   128
 71
  -129
 72
   128
 73
  -130
  0
VERTEX
  5
378
  8
0
 10
0.0
 20
0.0
 30
0.0
 70
   128
 71
  -129
 72
   130
 73
  -131
  0
VERTEX
  5
379
  8
0
 10
0.0
 20
0.0
 30
0.0
 70
   128
 71
  -129
 72
   131
 73
  -132
  0
VERTEX
  5
37A
  8
0
 10
0.0
 20
0.0
 30
0.0
 70
   128
 71
  -129
 72
   132
 73
  -133
  0
VERTEX
  5
37B
  8
0
 10
0.0
 20
0.0
 30
0.0
 70
   128
 71
  -129
 72
   133
 73
  -134
  0
VERTEX
  5
37C
  8
0
 10
0.0
 20
0.0
 30
0.0
 70
   128
 71
  -129
 72
   134
 73
  -135
  0
VERTEX
  5
37D
  8
0
 10
0.0
 20
0.0
 30
0.0
 70
   128
 71
  -129
 72
   135
 73
  -136
  0
VERTEX
  5
37E
  8
0
 10
0.0
 20
0.0
 30
0.0
 70
   128
 71
  -129
 72
  -136
 73
  -137
  0
VERTEX
  5
37F
  8
0
 10
0.0
 20
0.0
 30
0.0
 70
   128
 71
  -137
 72
  -136
 73
   138
  0
VERTEX
  5
380
  8
0
 10
0.0
 20
0.0
 30
0.0
 70
   128
 71
  -138
 72
  -136
 73
   -68
  0
VERTEX
  5
381
  8
0
 10
0.0
 20
0.0
 30
0.0
 70
   128
 71
  -138
 72
   -68
 73
   -70
  0
VERTEX
  5
382
  8
0
 10
0.0
 20
0.0
 30
0.0
 70
   128
 71
  -129
 72
   137
 73
  -139
  0
VERTEX
  5
383
  8
0
 10
0.0
 20
0.0
 30
0.0
 70
   128
 71
  -129
 72
   139
 73
  -140
  0
VERTEX
  5
384
  8
0
 10
0.0
 20
0.0
 30
0.0
 70
   128
 71
  -129
 72
   140
 73
  -141
  0
VERTEX
  5
385
  8
0
 10
0.0
 20
0.0
 30
0.0
 70
   128
 71
  -129
 72
   141
 73
  -142
  0
VERTEX
  5
386
  8
0
 10
0.0
 20
0.0
 30
0.0
 70
   128
 71
  -129
 72
   142
 73
  -143
  0
VERTEX
  5
387
  8
0
 10
0.0
 20
0.0
 30
0.0
 70
   128
 71
  -129
 72
   143
 73
  -144
  0
VERTEX
  5
388
  8
0
 10
0.0
 20
0.0
 30
0.0
 70
   128
 71
  -129
 72
   144
 73
  -145
  0
VERTEX
  5
389
  8
0
 10
0.0
 20
0.0
 30
0.0
 70
   128
 71
  -129
 72
   145
 73
  -146
  0
VERTEX
  5
38A
  8
0
 10
0.0
 20
0.0
 30
0.0
 70
   128
 71
  -129
 72
   146
 73
  -147
  0
VERTEX
  5
38B
  8
0
 10
0.0
 20
0.0
 30
0.0
 70
   128
 71
  -129
 72
   147
 73
  -148
  0
VERTEX
  5
38C
  8
0
 10
0.0
 20
0.0
 30
0.0
 70
   128
 71
  -129
 72
   148
 73
  -149
  0
VERTEX
  5
38D
  8
0
 10
0.0
 20
0.0
 30
0.0
 70
   128
 71
  -129
 72
  -149
 73
   -81
  0
VERTEX
  5
38E
  8
0
 10
0.0
 20
0.0
 30
0.0
 70
   128
 71
  -129
 72
   -81
 73
    60
  0
VERTEX
  5
38F
  8
0
 10
0.0
 20
0.0
 30
0.0
 70
   128
 71
  -107
 72
   129
 73
   -85
  0
VERTEX
  5
390
  8
0
 10
0.0
 20
0.0
 30
0.0
 70
   128
 71
  -107
 72
   -85
 73
  -150
  0
VERTEX
  5
391
  8
0
 10
0.0
 20
0.0
 30
0.0
 70
   128
 71
  -150
 72
   -85
 73
   151
  0
VERTEX
  5
392
  8
0
 10
0.0
 20
0.0
 30
0.0
 70
   128
 71
  -151
 72
   -85
 73
  -152
  0
VERTEX
  5
393
  8
0
 10
0.0
 20
0.0
 30
0.0
 70
   128
 71
  -152
 72
   -85
 73
     3
  0
VERTEX
  5
394
  8
0
 10
0.0
 20
0.0
 30
0.0
 70
   128
 71
  -151
 72
   152
 73
  -153
  0
VERTEX
  5
395
  8
0
 10
0.0
 20
0.0
 30
0.0
 70
   128
 71
  -151
 72
   153
 73
  -154
  0
VERTEX
  5
396
  8
0
 10
0.0
 20
0.0
 30
0.0
 70
   128
 71
  -151
 72
   154
 73
  -155
  0
VERTEX
  5
397
  8
0
 10
0.0
 20
0.0
 30
0.0
 70
   128
 71
  -151
 72
   155
 73
  -156
  0
VERTEX
  5
398
  8
0
 10
0.0
 20
0.0
 30
0.0
 70
   128
 71
  -151
 72
   156
 73
  -157
  0
VERTEX
  5
399
  8
0
 10
0.0
 20
0.0
 30
0.0
 70
   128
 71
  -151
 72
   157
 73
  -158
  0
VERTEX
  5
39A
  8
0
 10
0.0
 20
0.0
 30
0.0
 70
   128
 71
  -151
 72
   158
 73
  -159
  0
VERTEX
  5
39B
  8
0
 10
0.0
 20
0.0
 30
0.0
 70
   128
 71
  -151
 72
   159
 73
  -160
  0
VERTEX
  5
39C
  8
0
 10
0.0
 20
0.0
 30
0.0
 70
   128
 71
  -151
 72
   160
 73
  -161
  0
VERTEX
  5
39D
  8
0
 10
0.0
 20
0.0
 30
0.0
 70
   128
 71
  -151
 72
   161
 73
  -162
  0
VERTEX
  5
39E
  8
0
 10
0.0
 20
0.0
 30
0.0
 70
   128
 71
  -151
 72
   162
 73
   -26
  0
VERTEX
  5
39F
  8
0
 10
0.0
 20
0.0
 30
0.0
 70
   128
 71
  -151
 72
   -26
 73
    29
  0
VERTEX
  5
3A0
  8
0
 10
0.0
 20
0.0
 30
0.0
 70
   128
 71
  -107
 72
   150
 73
  -163
  0
VERTEX
  5
3A1
  8
0
 10
0.0
 20
0.0
 30
0.0
 70
   128
 71
  -107
 72
   163
 73
  -164
  0
VERTEX
  5
3A2
  8
0
 10
0.0
 20
0.0
 30
0.0
 70
   128
 71
  -107
 72
   164
 73
  -165
  0
VERTEX
  5
3A3
  8
0
 10
0.0
 20
0.0
 30
0.0
 70
   128
 71
  -107
 72
   165
 73
  -166
  0
VERTEX
  5
3A4
  8
0
 10
0.0
 20
0.0
 30
0.0
 70
   128
 71
  -107
 72
   166
 73
  -167
  0
VERTEX
  5
3A5
  8
0
 10
0.0
 20
0.0
 30
0.0
 70
   128
 71
  -107
 72
   167
 73
  -168
  0
VERTEX
  5
3A6
  8
0
 10
0.0
 20
0.0
 30
0.0
 70
   128
 71
  -107
 72
   168
 73
  -169
  0
VERTEX
  5
3A7
  8
0
 10
0.0
 20
0.0
 30
0.0
 70
   128
 71
  -107
 72
   169
 73
  -170
  0
VERTEX
  5
3A8
  8
0
 10
0.0
 20
0.0
 30
0.0
 70
   128
 71
  -107
 72
   170
 73
  -171
  0
VERTEX
  5
3A9
  8
0
 10
0.0
 20
0.0
 30
0.0
 70
   128
 71
  -107
 72
   171
 73
   -51
  0
VERTEX
  5
3AA
  8
0
 10
0.0
 20
0.0
 30
0.0
 70
   128
 71
  -107
 72
   -51
 73
   -50
  0
VERTEX
  5
3AB
  8
0
 10
0.0
 20
0.0
 30
0.0
 70
   128
 71
  -107
 72
    50
 73
  -106
  0
VERTEX
  5
3AC
  8
0
 10
0.0
 20
0.0
 30
0.0
 70
   128
 71
   -53
 72
   172
 73
   -54
  0
VERTEX
  5
3AD
  8
0
 10
0.0
 20
0.0
 30
0.0
 70
   128
 71
  -172
 72
    53
 73
  -173
  0
VERTEX
  5
3AE
  8
0
 10
0.0
 20
0.0
 30
0.0
 70
   128
 71
  -172
 72
  -173
 73
   174
  0
VERTEX
  5
3AF
  8
0
 10
0.0
 20
0.0
 30
0.0
 70
   128
 71
  -174
 72
   173
 73
  -175
  0
VERTEX
  5
3B0
  8
0
 10
0.0
 20
0.0
 30
0.0
 70
   128
 71
  -174
 72
  -175
 73
   176
  0
VERTEX
  5
3B1
  8
0
 10
0.0
 20
0.0
 30
0.0
 70
   128
 71
  -176
 72
   175
 73
  -177
  0
VERTEX
  5
3B2
  8
0
 10
0.0
 20
0.0
 30
0.0
 70
   128
 71
  -176
 72
  -177
 73
   178
  0
VERTEX
  5
3B3
  8
0
 10
0.0
 20
0.0
 30
0.0
 70
   128
 71
  -178
 72
   177
 73
  -179
  0
VERTEX
  5
3B4
  8
0
 10
0.0
 20
0.0
 30
0.0
 70
   128
 71
  -178
 72
  -179
 73
   180
  0
VERTEX
  5
3B5
  8
0
 10
0.0
 20
0.0
 30
0.0
 70
   128
 71
  -180
 72
   179
 73
  -181
  0
VERTEX
  5
3B6
  8
0
 10
0.0
 20
0.0
 30
0.0
 70
   128
 71
  -180
 72
  -181
 73
   182
  0
VERTEX
  5
3B7
  8
0
 10
0.0
 20
0.0
 30
0.0
 70
   128
 71
  -182
 72
   181
 73
  -183
  0
VERTEX
  5
3B8
  8
0
 10
0.0
 20
0.0
 30
0.0
 70
   128
 71
  -182
 72
  -183
 73
   184
  0
VERTEX
  5
3B9
  8
0
 10
0.0
 20
0.0
 30
0.0
 70
   128
 71
  -184
 72
   183
 73
  -185
  0
VERTEX
  5
3BA
  8
0
 10
0.0
 20
0.0
 30
0.0
 70
   128
 71
  -184
 72
  -185
 73
   186
  0
VERTEX
  5
3BB
  8
0
 10
0.0
 20
0.0
 30
0.0
 70
   128
 71
  -186
 72
   185
 73
  -187
  0
VERTEX
  5
3BC
  8
0
 10
0.0
 20
0.0
 30
0.0
 70
   128
 71
  -186
 72
  -187
 73
   188
  0
VERTEX
  5
3BD
  8
0
 10
0.0
 20
0.0
 30
0.0
 70
   128
 71
  -188
 72
   187
 73
  -189
  0
VERTEX
  5
3BE
  8
0
 10
0.0
 20
0.0
 30
0.0
 70
   128
 71
  -188
 72
  -189
 73
   190
  0
VERTEX
  5
3BF
  8
0
 10
0.0
 20
0.0
 30
0.0
 70
   128
 71
  -190
 72
   189
 73
  -191
  0
VERTEX
  5
3C0
  8
0
 10
0.0
 20
0.0
 30
0.0
 70
   128
 71
  -190
 72
  -191
 73
   192
  0
VERTEX
  5
3C1
  8
0
 10
0.0
 20
0.0
 30
0.0
 70
   128
 71
  -192
 72
   191
 73
  -193
  0
VERTEX
  5
3C2
  8
0
 10
0.0
 20
0.0
 30
0.0
 70
   128
 71
  -192
 72
  -193
 73
   136
  0
VERTEX
  5
3C3
  8
0
 10
0.0
 20
0.0
 30
0.0
 70
   128
 71
  -136
 72
   193
 73
   -68
  0
VERTEX
  5
3C4
  8
0
 10
0.0
 20
0.0
 30
0.0
 70
   128
 71
  -194
 72
  -138
 73
    70
  0
VERTEX
  5
3C5
  8
0
 10
0.0
 20
0.0
 30
0.0
 70
   128
 71
  -138
 72
  -194
 73
   195
  0
VERTEX
  5
3C6
  8
0
 10
0.0
 20
0.0
 30
0.0
 70
   128
 71
  -195
 72
  -194
 73
   196
  0
VERTEX
  5
3C7
  8
0
 10
0.0
 20
0.0
 30
0.0
 70
   128
 71
  -196
 72
   194
 73
  -197
  0
VERTEX
  5
3C8
  8
0
 10
0.0
 20
0.0
 30
0.0
 70
   128
 71
  -196
 72
  -197
 73
   198
  0
VERTEX
  5
3C9
  8
0
 10
0.0
 20
0.0
 30
0.0
 70
   128
 71
  -198
 72
   197
 73
  -199
  0
VERTEX
  5
3CA
  8
0
 10
0.0
 20
0.0
 30
0.0
 70
   128
 71
  -198
 72
  -199
 73
   200
  0
VERTEX
  5
3CB
  8
0
 10
0.0
 20
0.0
 30
0.0
 70
   128
 71
  -200
 72
   199
 73
  -201
  0
VERTEX
  5
3CC
  8
0
 10
0.0
 20
0.0
 30
0.0
 70
   128
 71
  -200
 72
  -201
 73
   202
  0
VERTEX
  5
3CD
  8
0
 10
0.0
 20
0.0
 30
0.0
 70
   128
 71
  -202
 72
   201
 73
  -203
  0
VERTEX
  5
3CE
  8
0
 10
0.0
 20
0.0
 30
0.0
 70
   128
 71
  -202
 72
  -203
 73
   204
  0
VERTEX
  5
3CF
  8
0
 10
0.0
 20
0.0
 30
0.0
 70
   128
 71
  -204
 72
   203
 73
  -205
  0
VERTEX
  5
3D0
  8
0
 10
0.0
 20
0.0
 30
0.0
 70
   128
 71
  -204
 72
  -205
 73
   206
  0
VERTEX
  5
3D1
  8
0
 10
0.0
 20
0.0
 30
0.0
 70
   128
 71
  -206
 72
   205
 73
  -207
  0
VERTEX
  5
3D2
  8
0
 10
0.0
 20
0.0
 30
0.0
 70
   128
 71
  -206
 72
  -207
 73
   208
  0
VERTEX
  5
3D3
  8
0
 10
0.0
 20
0.0
 30
0.0
 70
   128
 71
  -208
 72
   207
 73
  -209
  0
VERTEX
  5
3D4
  8
0
 10
0.0
 20
0.0
 30
0.0
 70
   128
 71
  -208
 72
  -209
 73
   210
  0
VERTEX
  5
3D5
  8
0
 10
0.0
 20
0.0
 30
0.0
 70
   128
 71
  -210
 72
   209
 73
  -211
  0
VERTEX
  5
3D6
  8
0
 10
0.0
 20
0.0
 30
0.0
 70
   128
 71
  -210
 72
  -211
 73
   212
  0
VERTEX
  5
3D7
  8
0
 10
0.0
 20
0.0
 30
0.0
 70
   128
 71
  -212
 72
   211
 73
  -213
  0
VERTEX
  5
3D8
  8
0
 10
0.0
 20
0.0
 30
0.0
 70
   128
 71
  -212
 72
  -213
 73
   214
  0
VERTEX
  5
3D9
  8
0
 10
0.0
 20
0.0
 30
0.0
 70
   128
 71
  -214
 72
   213
 73
  -215
  0
VERTEX
  5
3DA
  8
0
 10
0.0
 20
0.0
 30
0.0
 70
   128
 71
  -214
 72
  -215
 73
   149
  0
VERTEX
  5
3DB
  8
0
 10
0.0
 20
0.0
 30
0.0
 70
   128
 71
  -149
 72
   215
 73
   -81
  0
SEQEND
  5
3DC
  8
0
  0
ENDSEC
  0
EOF
