  0
SECTION
  2
HEADER
  9
$ACADVER
  1
AC1009
  9
$DWGCODEPAGE
  3
ansi_1252
  9
$INSBASE
 10
0.0
 20
0.0
 30
0.0
  9
$EXTMIN
 10
1.000000000000000E+20
 20
1.000000000000000E+20
 30
1.000000000000000E+20
  9
$EXTMAX
 10
-1.000000000000000E+20
 20
-1.000000000000000E+20
 30
-1.000000000000000E+20
  9
$LIMMIN
 10
0.0
 20
0.0
  9
$LIMMAX
 10
12.0
 20
9.0
  9
$ORTHOMODE
 70
     0
  9
$REGENMODE
 70
     1
  9
$FILLMODE
 70
     1
  9
$QTEXTMODE
 70
     0
  9
$MIRRTEXT
 70
     1
  9
$DRAGMODE
 70
     2
  9
$LTSCALE
 40
1.0
  9
$OSMODE
 70
    37
  9
$ATTMODE
 70
     1
  9
$TEXTSIZE
 40
0.2
  9
$TRACEWID
 40
0.05
  9
$TEXTSTYLE
  7
STANDARD
  9
$CLAYER
  8
0
  9
$CELTYPE
  6
BYLAYER
  9
$CECOLOR
 62
   256
  9
$DIMSCALE
 40
1.0
  9
$DIMASZ
 40
0.18
  9
$DIMEXO
 40
0.0625
  9
$DIMDLI
 40
0.38
  9
$DIMRND
 40
0.0
  9
$DIMDLE
 40
0.0
  9
$DIMEXE
 40
0.18
  9
$DIMTP
 40
0.0
  9
$DIMTM
 40
0.0
  9
$DIMTXT
 40
0.18
  9
$DIMCEN
 40
0.09
  9
$DIMTSZ
 40
0.0
  9
$DIMTOL
 70
     0
  9
$DIMLIM
 70
     0
  9
$DIMTIH
 70
     1
  9
$DIMTOH
 70
     1
  9
$DIMSE1
 70
     0
  9
$DIMSE2
 70
     0
  9
$DIMTAD
 70
     0
  9
$DIMZIN
 70
     0
  9
$DIMBLK
  1

  9
$DIMASO
 70
     1
  9
$DIMSHO
 70
     1
  9
$DIMPOST
  1

  9
$DIMAPOST
  1

  9
$DIMALT
 70
     0
  9
$DIMALTD
 70
     2
  9
$DIMALTF
 40
25.4
  9
$DIMLFAC
 40
1.0
  9
$DIMTOFL
 70
     0
  9
$DIMTVP
 40
0.0
  9
$DIMTIX
 70
     0
  9
$DIMSOXD
 70
     0
  9
$DIMSAH
 70
     0
  9
$DIMBLK1
  1

  9
$DIMBLK2
  1

  9
$DIMSTYLE
  2
STANDARD
  9
$DIMCLRD
 70
     0
  9
$DIMCLRE
 70
     0
  9
$DIMCLRT
 70
     0
  9
$DIMTFAC
 40
1.0
  9
$DIMGAP
 40
0.09
  9
$LUNITS
 70
     2
  9
$LUPREC
 70
     4
  9
$SKETCHINC
 40
0.1
  9
$FILLETRAD
 40
0.5
  9
$AUNITS
 70
     0
  9
$AUPREC
 70
     0
  9
$MENU
  1
.
  9
$ELEVATION
 40
0.0
  9
$PELEVATION
 40
0.0
  9
$THICKNESS
 40
0.0
  9
$LIMCHECK
 70
     0
  9
$CHAMFERA
 40
0.5
  9
$CHAMFERB
 40
0.5
  9
$SKPOLY
 70
     0
  9
$TDCREATE
 40
2456714.536095914
  9
$TDUPDATE
 40
2456714.536095926
  9
$TDINDWG
 40
0.0000000116
  9
$TDUSRTIMER
 40
0.0000000116
  9
$USRTIMER
 70
     1
  9
$ANGBASE
 50
0.0
  9
$ANGDIR
 70
     0
  9
$PDMODE
 70
     0
  9
$PDSIZE
 40
0.0
  9
$PLINEWID
 40
0.0
  9
$COORDS
 70
     1
  9
$SPLFRAME
 70
     0
  9
$SPLINETYPE
 70
     6
  9
$SPLINESEGS
 70
     8
  9
$ATTDIA
 70
     0
  9
$ATTREQ
 70
     1
  9
$HANDLING
 70
     1
  9
$HANDSEED
  5
65B
  9
$SURFTAB1
 70
     6
  9
$SURFTAB2
 70
     6
  9
$SURFTYPE
 70
     6
  9
$SURFU
 70
     6
  9
$SURFV
 70
     6
  9
$UCSNAME
  2

  9
$UCSORG
 10
0.0
 20
0.0
 30
0.0
  9
$UCSXDIR
 10
1.0
 20
0.0
 30
0.0
  9
$UCSYDIR
 10
0.0
 20
1.0
 30
0.0
  9
$PUCSNAME
  2

  9
$PUCSORG
 10
0.0
 20
0.0
 30
0.0
  9
$PUCSXDIR
 10
1.0
 20
0.0
 30
0.0
  9
$PUCSYDIR
 10
0.0
 20
1.0
 30
0.0
  9
$USERI1
 70
     0
  9
$USERI2
 70
     0
  9
$USERI3
 70
     0
  9
$USERI4
 70
     0
  9
$USERI5
 70
     0
  9
$USERR1
 40
0.0
  9
$USERR2
 40
0.0
  9
$USERR3
 40
0.0
  9
$USERR4
 40
0.0
  9
$USERR5
 40
0.0
  9
$WORLDVIEW
 70
     1
  9
$SHADEDGE
 70
     3
  9
$SHADEDIF
 70
    70
  9
$TILEMODE
 70
     1
  9
$MAXACTVP
 70
    64
  9
$PLIMCHECK
 70
     0
  9
$PEXTMIN
 10
1.000000000000000E+20
 20
1.000000000000000E+20
 30
1.000000000000000E+20
  9
$PEXTMAX
 10
-1.000000000000000E+20
 20
-1.000000000000000E+20
 30
-1.000000000000000E+20
  9
$PLIMMIN
 10
0.0
 20
0.0
  9
$PLIMMAX
 10
12.0
 20
9.0
  9
$UNITMODE
 70
     0
  9
$VISRETAIN
 70
     1
  9
$PLINEGEN
 70
     0
  9
$PSLTSCALE
 70
     1
  0
ENDSEC
  0
SECTION
  2
TABLES
  0
TABLE
  2
VPORT
 70
     1
  0
VPORT
  2
*ACTIVE
 70
     0
 10
0.0
 20
0.0
 11
1.0
 21
1.0
 12
0.0
 22
0.0
 13
0.0
 23
0.0
 14
0.5
 24
0.5
 15
0.5
 25
0.5
 16
381.1840263373671
 26
-115.9687719739381
 36
164.0133221913543
 17
61.85733402403082
 27
85.96940193970505
 37
46.050193405231
 40
3378.2
 41
1.3333
 42
50.0
 43
-405.4716605488865
 44
24969.12833945111
 50
0.0
 51
0.0
 71
     0
 72
   100
 73
     1
 74
     3
 75
     0
 76
     0
 77
     0
 78
     0
  0
ENDTAB
  0
TABLE
  2
LTYPE
 70
     1
  0
LTYPE
  2
CONTINUOUS
 70
     0
  3
Solid line
 72
    65
 73
     0
 40
0.0
  0
ENDTAB
  0
TABLE
  2
LAYER
 70
     1
  0
LAYER
  2
0
 70
     0
 62
    13
  6
CONTINUOUS
  0
ENDTAB
  0
TABLE
  2
STYLE
 70
     2
  0
STYLE
  2
STANDARD
 70
     0
 40
0.0
 41
1.0
 50
0.0
 71
     0
 42
0.2
  3
txt
  4

  0
STYLE
  2
TAHOMA
 70
     0
 40
0.0
 41
1.0
 50
0.0
 71
     0
 42
0.2
  3
Tahoma
  4

  0
ENDTAB
  0
TABLE
  2
VIEW
 70
     0
  0
ENDTAB
  0
TABLE
  2
UCS
 70
     0
  0
ENDTAB
  0
TABLE
  2
APPID
 70
     1
  0
APPID
  2
ACAD
 70
     0
  0
ENDTAB
  0
TABLE
  2
DIMSTYLE
 70
     1
  0
DIMSTYLE
  2
STANDARD
 70
     0
  3

  4

  5

  6

  7

 40
1.0
 41
0.18
 42
0.0625
 43
0.38
 44
0.18
 45
0.0
 46
0.0
 47
0.0
 48
0.0
140
0.18
141
0.09
142
0.0
143
25.4
144
1.0
145
0.0
146
1.0
147
0.09
 71
     0
 72
     0
 73
     1
 74
     1
 75
     0
 76
     0
 77
     0
 78
     0
170
     0
171
     2
172
     0
173
     0
174
     0
175
     0
176
     0
177
     0
178
     0
  0
ENDTAB
  0
ENDSEC
  0
SECTION
  2
BLOCKS
  0
BLOCK
  8
0
  2
$MODEL_SPACE
 70
     0
 10
0.0
 20
0.0
 30
0.0
  3
$MODEL_SPACE
  1

  0
ENDBLK
  5
21
  8
0
  0
BLOCK
 67
     1
  8
0
  2
$PAPER_SPACE
 70
     0
 10
0.0
 20
0.0
 30
0.0
  3
$PAPER_SPACE
  1

  0
ENDBLK
  5
1D
 67
     1
  8
0
  0
ENDSEC
  0
SECTION
  2
ENTITIES
  0
LINE
  5
40
  8
0
 10
121.55
 20
143.6
 30
23.29882212456581
 11
121.55
 21
135.6
 31
23.29882212456581
  0
LINE
  5
41
  8
0
 10
24.99359848919328
 20
155.7
 30
23.29882212456581
 11
24.99359848919328
 21
147.7
 31
23.29882212456581
  0
LINE
  5
42
  8
0
 10
132.55
 20
143.6
 30
23.29882212456581
 11
121.55
 21
143.6
 31
23.29882212456581
  0
LINE
  5
43
  8
0
 10
60.52692907775384
 20
3.340000000000008
 30
23.29882212456581
 11
60.52692907775384
 21
15.34000000000001
 31
23.29882212456581
  0
LINE
  5
44
  8
0
 10
24.99359848919328
 20
135.6
 30
23.29882212456581
 11
14.0
 21
135.6
 31
23.29882212456581
  0
LINE
  5
45
  8
0
 10
14.0
 20
131.5124515137408
 30
23.29882212456581
 11
14.0
 21
123.5
 31
23.29882212456581
  0
LINE
  5
46
  8
0
 10
14.0
 20
143.6
 30
23.29882212456581
 11
24.99359848919328
 21
143.6
 31
23.29882212456581
  0
LINE
  5
47
  8
0
 10
14.0
 20
123.5
 30
23.29882212456581
 11
24.99359848919328
 21
123.5
 31
23.29882212456581
  0
LINE
  5
48
  8
0
 10
16.57
 20
45.8
 30
23.29882212456581
 11
16.57
 21
33.8
 31
23.29882212456581
  0
LINE
  5
49
  8
0
 10
132.55
 20
131.5
 30
23.29882212456581
 11
121.55
 21
131.5
 31
23.29882212456581
  0
LINE
  5
4A
  8
0
 10
14.0
 20
147.7
 30
23.29882212456581
 11
14.0
 21
155.7
 31
23.29882212456581
  0
LINE
  5
4B
  8
0
 10
121.55
 20
123.5
 30
23.29882212456581
 11
132.55
 21
123.5
 31
23.29882212456581
  0
LINE
  5
4C
  8
0
 10
24.99359848919328
 20
143.6
 30
23.29882212456581
 11
24.99359848919328
 21
135.6
 31
23.29882212456581
  0
LINE
  5
4D
  8
0
 10
121.55
 20
131.5
 30
23.29882212456581
 11
121.55
 21
123.5
 31
23.29882212456581
  0
LINE
  5
4E
  8
0
 10
121.55
 20
135.6
 30
23.29882212456581
 11
132.55
 21
135.6
 31
23.29882212456581
  0
LINE
  5
4F
  8
0
 10
101.2935984891933
 20
3.340000000000008
 30
23.29882212456581
 11
89.29359848919327
 21
3.340000000000008
 31
23.29882212456581
  0
LINE
  5
50
  8
0
 10
60.52692907775384
 20
15.34000000000001
 30
23.29882212456581
 11
83.52692907775385
 21
15.34000000000001
 31
23.29882212456581
  0
LINE
  5
51
  8
0
 10
83.52692907775385
 20
15.34000000000001
 30
23.29882212456581
 11
83.52692907775385
 21
3.340000000000008
 31
23.29882212456581
  0
LINE
  5
52
  8
0
 10
29.45359848919327
 20
30.30000000000001
 30
23.29882212456581
 11
41.45359848919328
 21
30.30000000000001
 31
23.29882212456581
  0
LINE
  5
53
  8
0
 10
29.45359848919327
 20
18.30000000000001
 30
23.29882212456581
 11
29.45359848919327
 21
30.30000000000001
 31
23.29882212456581
  0
LINE
  5
54
  8
0
 10
30.0
 20
105.0
 30
23.29882212456581
 11
42.0
 21
105.0
 31
23.29882212456581
  0
LINE
  5
55
  8
0
 10
74.0
 20
93.00000000000001
 30
23.29882212456581
 11
62.0
 21
93.00000000000001
 31
23.29882212456581
  0
LINE
  5
56
  8
0
 10
77.99999999999999
 20
93.00000000000001
 30
23.29882212456581
 11
77.99999999999999
 21
105.0
 31
23.29882212456581
  0
LINE
  5
57
  8
0
 10
42.0
 20
93.00000000000001
 30
23.29882212456581
 11
30.0
 21
93.00000000000001
 31
23.29882212456581
  0
LINE
  5
58
  8
0
 10
46.0
 20
105.0
 30
23.29882212456581
 11
57.99999999999999
 21
105.0
 31
23.29882212456581
  0
LINE
  5
59
  8
0
 10
57.99999999999999
 20
105.0
 30
23.29882212456581
 11
57.99999999999999
 21
93.0
 31
23.29882212456581
  0
LINE
  5
5A
  8
0
 10
57.99999999999999
 20
93.0
 30
23.29882212456581
 11
46.0
 21
93.0
 31
23.29882212456581
  0
LINE
  5
5B
  8
0
 10
25.99999999999999
 20
105.0
 30
23.29882212456581
 11
14.0
 21
105.0
 31
23.29882212456581
  0
LINE
  5
5C
  8
0
 10
25.99999999999999
 20
93.00000000000001
 30
23.29882212456581
 11
14.0
 21
93.00000000000001
 31
23.29882212456581
  0
LINE
  5
5D
  8
0
 10
25.99999999999999
 20
105.0
 30
23.29882212456581
 11
25.99999999999999
 21
93.00000000000001
 31
23.29882212456581
  0
LINE
  5
5E
  8
0
 10
74.0
 20
105.0
 30
23.29882212456581
 11
74.0
 21
93.00000000000001
 31
23.29882212456581
  0
LINE
  5
5F
  8
0
 10
62.0
 20
105.0
 30
23.29882212456581
 11
74.0
 21
105.0
 31
23.29882212456581
  0
LINE
  5
60
  8
0
 10
62.0
 20
93.00000000000001
 30
23.29882212456581
 11
62.0
 21
105.0
 31
23.29882212456581
  0
LINE
  5
61
  8
0
 10
42.0
 20
105.0
 30
23.29882212456581
 11
42.0
 21
93.00000000000001
 31
23.29882212456581
  0
LINE
  5
62
  8
0
 10
46.0
 20
93.0
 30
23.29882212456581
 11
46.0
 21
105.0
 31
23.29882212456581
  0
LINE
  5
63
  8
0
 10
14.0
 20
105.0
 30
23.29882212456581
 11
14.0
 21
93.00000000000001
 31
23.29882212456581
  0
LINE
  5
64
  8
0
 10
30.0
 20
93.00000000000001
 30
23.29882212456581
 11
30.0
 21
105.0
 31
23.29882212456581
  0
LINE
  5
65
  8
0
 10
71.37359848919327
 20
18.30000000000001
 30
23.29882212456581
 11
71.37359848919327
 21
30.30000000000001
 31
23.29882212456581
  0
LINE
  5
66
  8
0
 10
44.41359848919328
 20
18.30000000000001
 30
23.29882212456581
 11
56.41359848919328
 21
18.30000000000001
 31
23.29882212456581
  0
LINE
  5
67
  8
0
 10
59.37359848919328
 20
18.30000000000001
 30
23.29882212456581
 11
71.37359848919327
 21
18.30000000000001
 31
23.29882212456581
  0
LINE
  5
68
  8
0
 10
56.41359848919328
 20
18.30000000000001
 30
23.29882212456581
 11
56.41359848919328
 21
30.30000000000001
 31
23.29882212456581
  0
LINE
  5
69
  8
0
 10
106.0
 20
93.00000000000001
 30
23.29882212456581
 11
93.99999999999999
 21
93.00000000000001
 31
23.29882212456581
  0
LINE
  5
6A
  8
0
 10
108.7393468449602
 20
105.0
 30
23.29882212456581
 11
132.2393468449602
 21
105.0
 31
23.29882212456581
  0
LINE
  5
6B
  8
0
 10
56.41359848919328
 20
30.30000000000001
 30
23.29882212456581
 11
44.41359848919328
 21
30.30000000000001
 31
23.29882212456581
  0
LINE
  5
6C
  8
0
 10
44.41359848919328
 20
30.30000000000001
 30
23.29882212456581
 11
44.41359848919328
 21
18.30000000000001
 31
23.29882212456581
  0
LINE
  5
6D
  8
0
 10
86.33359848919328
 20
18.30000000000001
 30
23.29882212456581
 11
86.33359848919328
 21
30.30000000000001
 31
23.29882212456581
  0
LINE
  5
6E
  8
0
 10
108.7393468449602
 20
93.00000000000001
 30
23.29882212456581
 11
132.2393468449602
 21
93.00000000000001
 31
23.29882212456581
  0
LINE
  5
6F
  8
0
 10
106.0
 20
105.0
 30
23.29882212456581
 11
106.0
 21
93.00000000000001
 31
23.29882212456581
  0
LINE
  5
70
  8
0
 10
77.99999999999999
 20
105.0
 30
23.29882212456581
 11
90.0
 21
105.0
 31
23.29882212456581
  0
LINE
  5
71
  8
0
 10
86.33359848919328
 20
30.30000000000001
 30
23.29882212456581
 11
74.33359848919328
 21
30.30000000000001
 31
23.29882212456581
  0
LINE
  5
72
  8
0
 10
74.33359848919328
 20
18.30000000000001
 30
23.29882212456581
 11
86.33359848919328
 21
18.30000000000001
 31
23.29882212456581
  0
LINE
  5
73
  8
0
 10
132.2393468449602
 20
105.0
 30
23.29882212456581
 11
132.2393468449602
 21
93.00000000000001
 31
23.29882212456581
  0
LINE
  5
74
  8
0
 10
90.0
 20
105.0
 30
23.29882212456581
 11
90.0
 21
93.00000000000001
 31
23.29882212456581
  0
LINE
  5
75
  8
0
 10
93.99999999999999
 20
93.00000000000001
 30
23.29882212456581
 11
93.99999999999999
 21
105.0
 31
23.29882212456581
  0
LINE
  5
76
  8
0
 10
120.8115397359717
 20
30.30000000000001
 30
23.29882212456581
 11
120.8115397359717
 21
3.340000000000008
 31
23.29882212456581
  0
LINE
  5
77
  8
0
 10
49.42405104558237
 20
3.340000000000008
 30
23.29882212456581
 11
49.42405104558237
 21
15.34000000000001
 31
23.29882212456581
  0
LINE
  5
78
  8
0
 10
116.1535984891933
 20
3.440000000000005
 30
23.29882212456581
 11
104.2535984891933
 21
3.440000000000005
 31
23.29882212456581
  0
LINE
  5
79
  8
0
 10
49.77
 20
33.7
 30
23.29882212456581
 11
37.77
 21
33.7
 31
23.29882212456581
  0
LINE
  5
7A
  8
0
 10
37.42405104558238
 20
3.340000000000008
 30
23.29882212456581
 11
49.42405104558237
 21
3.340000000000008
 31
23.29882212456581
  0
LINE
  5
7B
  8
0
 10
37.77
 20
45.8
 30
23.29882212456581
 11
49.77
 21
45.8
 31
23.29882212456581
  0
LINE
  5
7C
  8
0
 10
15.49359848919328
 20
30.3
 30
23.29882212456581
 11
15.49359848919328
 21
3.340000000000008
 31
23.29882212456581
  0
LINE
  5
7D
  8
0
 10
93.99999999999999
 20
105.0
 30
23.29882212456581
 11
106.0
 21
105.0
 31
23.29882212456581
  0
LINE
  5
7E
  8
0
 10
74.33359848919328
 20
30.30000000000001
 30
23.29882212456581
 11
74.33359848919328
 21
18.30000000000001
 31
23.29882212456581
  0
LINE
  5
7F
  8
0
 10
132.8117167034338
 20
30.30000000000001
 30
23.29882212456581
 11
132.8115397359717
 21
3.340000000000008
 31
23.29882212456581
  0
LINE
  5
80
  8
0
 10
108.7393468449602
 20
105.0
 30
23.29882212456581
 11
108.7393468449602
 21
93.00000000000001
 31
23.29882212456581
  0
LINE
  5
81
  8
0
 10
89.29359848919327
 20
15.34000000000001
 30
23.29882212456581
 11
101.2935984891933
 21
15.34000000000001
 31
23.29882212456581
  0
LINE
  5
82
  8
0
 10
41.45359848919328
 20
18.30000000000001
 30
23.29882212456581
 11
29.45359848919327
 21
18.30000000000001
 31
23.29882212456581
  0
LINE
  5
83
  8
0
 10
37.42405104558238
 20
15.34000000000001
 30
23.29882212456581
 11
37.42405104558238
 21
3.340000000000008
 31
23.29882212456581
  0
LINE
  5
84
  8
0
 10
101.2935984891933
 20
15.34000000000001
 30
23.29882212456581
 11
101.2935984891933
 21
3.340000000000008
 31
23.29882212456581
  0
LINE
  5
85
  8
0
 10
116.1535984891933
 20
15.34000000000001
 30
23.29882212456581
 11
116.1535984891933
 21
3.440000000000005
 31
23.29882212456581
  0
LINE
  5
86
  8
0
 10
41.45359848919328
 20
30.30000000000001
 30
23.29882212456581
 11
41.45359848919328
 21
18.30000000000001
 31
23.29882212456581
  0
LINE
  5
87
  8
0
 10
104.2535984891933
 20
3.440000000000005
 30
23.29882212456581
 11
104.2535984891933
 21
15.34000000000001
 31
23.29882212456581
  0
LINE
  5
88
  8
0
 10
89.29359848919327
 20
3.340000000000008
 30
23.29882212456581
 11
89.29359848919327
 21
15.34000000000001
 31
23.29882212456581
  0
LINE
  5
89
  8
0
 10
37.42405104558238
 20
15.34000000000001
 30
23.29882212456581
 11
49.42405104558237
 21
15.34000000000001
 31
23.29882212456581
  0
LINE
  5
8A
  8
0
 10
83.52692907775385
 20
3.340000000000008
 30
23.29882212456581
 11
60.52692907775384
 21
3.340000000000008
 31
23.29882212456581
  0
LINE
  5
8B
  8
0
 10
26.49359848919327
 20
30.3
 30
23.29882212456581
 11
15.49359848919328
 21
30.3
 31
23.29882212456581
  0
LINE
  5
8C
  8
0
 10
90.0
 20
93.00000000000001
 30
23.29882212456581
 11
77.99999999999999
 21
93.00000000000001
 31
23.29882212456581
  0
LINE
  5
8D
  8
0
 10
26.49359848919327
 20
3.340000000000008
 30
23.29882212456581
 11
26.49359848919327
 21
30.3
 31
23.29882212456581
  0
LINE
  5
8E
  8
0
 10
49.77
 20
45.8
 30
23.29882212456581
 11
49.77
 21
33.7
 31
23.29882212456581
  0
LINE
  5
8F
  8
0
 10
104.2535984891933
 20
15.34000000000001
 30
23.29882212456581
 11
116.1535984891933
 21
15.34000000000001
 31
23.29882212456581
  0
LINE
  5
90
  8
0
 10
59.37359848919327
 20
30.30000000000001
 30
23.29882212456581
 11
59.37359848919328
 21
18.30000000000001
 31
23.29882212456581
  0
LINE
  5
91
  8
0
 10
37.77
 20
33.7
 30
23.29882212456581
 11
37.77
 21
45.8
 31
23.29882212456581
  0
LINE
  5
92
  8
0
 10
129.88
 20
78.2
 30
23.29882212456581
 11
141.88
 21
78.2
 31
23.29882212456581
  0
LINE
  5
93
  8
0
 10
126.92
 20
78.2
 30
23.29882212456581
 11
114.92
 21
78.2
 31
23.29882212456581
  0
LINE
  5
94
  8
0
 10
101.2935984891933
 20
18.30000000000001
 30
23.29882212456581
 11
101.2935984891933
 21
30.3
 31
23.29882212456581
  0
LINE
  5
95
  8
0
 10
141.88
 20
90.2
 30
23.29882212456581
 11
141.88
 21
78.2
 31
23.29882212456581
  0
LINE
  5
96
  8
0
 10
136.05
 20
176.0
 30
23.29882212456581
 11
136.05
 21
181.5
 31
23.29882212456581
  0
LINE
  5
97
  8
0
 10
89.29359848919327
 20
30.3
 30
23.29882212456581
 11
89.29359848919327
 21
18.30000000000001
 31
23.29882212456581
  0
LINE
  5
98
  8
0
 10
111.5249999999999
 20
175.9889037387594
 30
23.29882212456581
 11
34.52500000000001
 21
175.9889037387594
 31
23.29882212456581
  0
LINE
  5
99
  8
0
 10
129.88
 20
90.2
 30
23.29882212456581
 11
129.88
 21
78.2
 31
23.29882212456581
  0
LINE
  5
9A
  8
0
 10
116.2535984891933
 20
30.30000000000001
 30
23.29882212456581
 11
104.2535984891933
 21
30.30000000000001
 31
23.29882212456581
  0
LINE
  5
9B
  8
0
 10
99.96000000000002
 20
78.2
 30
23.29882212456581
 11
111.96
 21
78.2
 31
23.29882212456581
  0
LINE
  5
9C
  8
0
 10
111.96
 20
90.2
 30
23.29882212456581
 11
99.96000000000002
 21
90.2
 31
23.29882212456581
  0
LINE
  5
9D
  8
0
 10
14.0
 20
167.8
 30
23.29882212456581
 11
24.99359848919328
 21
167.8
 31
23.29882212456581
  0
LINE
  5
9E
  8
0
 10
114.92
 20
78.2
 30
23.29882212456581
 11
114.92
 21
90.2
 31
23.29882212456581
  0
LINE
  5
9F
  8
0
 10
141.05
 20
171.0
 30
23.29882212456581
 11
146.55
 21
171.0
 31
23.29882212456581
  0
LINE
  5
A0
  8
0
 10
126.92
 20
90.2
 30
23.29882212456581
 11
126.92
 21
78.2
 31
23.29882212456581
  0
LINE
  5
A1
  8
0
 10
99.96000000000002
 20
75.39999999999999
 30
23.29882212456581
 11
99.96000000000002
 21
63.4
 31
23.29882212456581
  0
LINE
  5
A2
  8
0
 10
136.05
 20
181.5
 30
23.29882212456581
 11
9.999999999999998
 21
181.5
 31
23.29882212456581
  0
LINE
  5
A3
  8
0
 10
111.5249999999999
 20
112.0
 30
23.29882212456581
 11
111.5249999999999
 21
175.9889037387594
 31
23.29882212456581
  0
LINE
  5
A4
  8
0
 10
99.96000000000002
 20
90.2
 30
23.29882212456581
 11
99.96000000000002
 21
78.2
 31
23.29882212456581
  0
LINE
  5
A5
  8
0
 10
9.999999999999998
 20
181.5
 30
23.29882212456581
 11
9.99999999999999
 21
176.0
 31
23.29882212456581
  0
LINE
  5
A6
  8
0
 10
-0.5000000000000004
 20
171.0
 30
23.29882212456581
 11
-0.5000000000000004
 21
10.0
 31
23.29882212456581
  0
LINE
  5
A7
  8
0
 10
146.55
 20
10.0
 30
23.29882212456581
 11
146.55
 21
171.0
 31
23.29882212456581
  0
LINE
  5
A8
  8
0
 10
9.999999999999998
 20
-0.4999999999999998
 30
23.29882212456581
 11
10.0
 21
4.999999999999999
 31
23.29882212456581
  0
LINE
  5
A9
  8
0
 10
104.2535984891933
 20
30.30000000000001
 30
23.29882212456581
 11
104.2535984891933
 21
18.30000000000001
 31
23.29882212456581
  0
LINE
  5
AA
  8
0
 10
136.05
 20
-0.4999999999999998
 30
23.29882212456581
 11
136.05
 21
5.0
 31
23.29882212456581
  0
LINE
  5
AB
  8
0
 10
9.999999999999998
 20
-0.4999999999999998
 30
23.29882212456581
 11
136.05
 21
-0.4999999999999998
 31
23.29882212456581
  0
LINE
  5
AC
  8
0
 10
99.96000000000002
 20
75.39999999999999
 30
23.29882212456581
 11
111.96
 21
75.39999999999999
 31
23.29882212456581
  0
LINE
  5
AD
  8
0
 10
34.52500000000001
 20
112.0
 30
23.29882212456581
 11
111.5249999999999
 21
112.0
 31
23.29882212456581
  0
LINE
  5
AE
  8
0
 10
141.88
 20
90.2
 30
23.29882212456581
 11
129.88
 21
90.2
 31
23.29882212456581
  0
ARC
  5
AF
  8
0
 10
-141.05
 20
176.0
 30
-23.29882212456581
 40
4.999999999999991
 50
270.0
 51
0.0
210
0.0
220
0.0
230
-1.0
  0
LINE
  5
B0
  8
0
 10
101.2935984891933
 20
30.3
 30
23.29882212456581
 11
89.29359848919327
 21
30.3
 31
23.29882212456581
  0
LINE
  5
B1
  8
0
 10
89.29359848919327
 20
18.30000000000001
 30
23.29882212456581
 11
101.2935984891933
 21
18.30000000000001
 31
23.29882212456581
  0
LINE
  5
B2
  8
0
 10
104.2535984891933
 20
18.30000000000001
 30
23.29882212456581
 11
116.2535984891933
 21
18.30000000000001
 31
23.29882212456581
  0
LINE
  5
B3
  8
0
 10
34.52500000000001
 20
175.9889037387594
 30
23.29882212456581
 11
34.52500000000001
 21
112.0
 31
23.29882212456581
  0
LINE
  5
B4
  8
0
 10
116.2535984891933
 20
18.30000000000001
 30
23.29882212456581
 11
116.2535984891933
 21
30.30000000000001
 31
23.29882212456581
  0
LINE
  5
B5
  8
0
 10
114.92
 20
90.2
 30
23.29882212456581
 11
126.92
 21
90.2
 31
23.29882212456581
  0
LINE
  5
B6
  8
0
 10
4.999999999999999
 20
171.0
 30
23.29882212456581
 11
-0.5000000000000004
 21
171.0
 31
23.29882212456581
  0
ARC
  5
B7
  8
0
 10
-4.999999999999999
 20
176.0
 30
-23.29882212456581
 40
4.999999999999992
 50
180.0
 51
270.0
210
0.0
220
0.0
230
-1.0
  0
ARC
  5
B8
  8
0
 10
-4.999999999999999
 20
5.0
 30
-23.29882212456581
 40
4.999999999999998
 50
90.0
 51
180.0
210
0.0
220
0.0
230
-1.0
  0
LINE
  5
B9
  8
0
 10
141.05
 20
10.0
 30
23.29882212456581
 11
146.55
 21
10.0
 31
23.29882212456581
  0
ARC
  5
BA
  8
0
 10
-141.05
 20
5.0
 30
-23.29882212456581
 40
5.0
 50
0.0
 51
90.0
210
0.0
220
0.0
230
-1.0
  0
LINE
  5
BB
  8
0
 10
111.96
 20
78.2
 30
23.29882212456581
 11
111.96
 21
90.2
 31
23.29882212456581
  0
LINE
  5
BC
  8
0
 10
4.999999999999998
 20
10.0
 30
23.29882212456581
 11
-0.5000000000000004
 21
10.0
 31
23.29882212456581
  0
LINE
  5
BD
  8
0
 10
71.37359848919327
 20
30.30000000000001
 30
23.29882212456581
 11
59.37359848919327
 21
30.30000000000001
 31
23.29882212456581
  0
LINE
  5
BE
  8
0
 10
16.57
 20
33.8
 30
23.29882212456581
 11
4.17
 21
33.8
 31
23.29882212456581
  0
LINE
  5
BF
  8
0
 10
24.99359848919328
 20
131.5124515137408
 30
23.29882212456581
 11
14.0
 21
131.5124515137408
 31
23.29882212456581
  0
LINE
  5
C0
  8
0
 10
4.17
 20
33.8
 30
23.29882212456581
 11
4.17
 21
45.8
 31
23.29882212456581
  0
LINE
  5
C1
  8
0
 10
24.99359848919328
 20
123.5
 30
23.29882212456581
 11
24.99359848919328
 21
131.5124515137408
 31
23.29882212456581
  0
LINE
  5
C2
  8
0
 10
4.17
 20
45.8
 30
23.29882212456581
 11
16.57
 21
45.8
 31
23.29882212456581
  0
LINE
  5
C3
  8
0
 10
132.55
 20
123.5
 30
23.29882212456581
 11
132.55
 21
131.5
 31
23.29882212456581
  0
LINE
  5
C4
  8
0
 10
24.99359848919328
 20
147.7
 30
23.29882212456581
 11
14.0
 21
147.7
 31
23.29882212456581
  0
LINE
  5
C5
  8
0
 10
24.99359848919328
 20
167.8
 30
23.29882212456581
 11
24.99359848919328
 21
159.8
 31
23.29882212456581
  0
LINE
  5
C6
  8
0
 10
121.55
 20
159.8
 30
23.29882212456581
 11
132.55
 21
159.8
 31
23.29882212456581
  0
LINE
  5
C7
  8
0
 10
132.55
 20
159.8
 30
23.29882212456581
 11
132.55
 21
167.8
 31
23.29882212456581
  0
LINE
  5
C8
  8
0
 10
14.0
 20
159.8
 30
23.29882212456581
 11
14.0
 21
167.8
 31
23.29882212456581
  0
LINE
  5
C9
  8
0
 10
132.55
 20
167.8
 30
23.29882212456581
 11
121.55
 21
167.8
 31
23.29882212456581
  0
LINE
  5
CA
  8
0
 10
121.55
 20
147.7
 30
23.29882212456581
 11
132.55
 21
147.7
 31
23.29882212456581
  0
LINE
  5
CB
  8
0
 10
24.99359848919328
 20
159.8
 30
23.29882212456581
 11
14.0
 21
159.8
 31
23.29882212456581
  0
LINE
  5
CC
  8
0
 10
14.0
 20
135.6
 30
23.29882212456581
 11
14.0
 21
143.6
 31
23.29882212456581
  0
LINE
  5
CD
  8
0
 10
14.0
 20
155.7
 30
23.29882212456581
 11
24.99359848919328
 21
155.7
 31
23.29882212456581
  0
LINE
  5
CE
  8
0
 10
132.55
 20
155.7
 30
23.29882212456581
 11
121.55
 21
155.7
 31
23.29882212456581
  0
LINE
  5
CF
  8
0
 10
132.55
 20
135.6
 30
23.29882212456581
 11
132.55
 21
143.6
 31
23.29882212456581
  0
LINE
  5
D0
  8
0
 10
129.88
 20
33.72000000000001
 30
23.29882212456581
 11
141.88
 21
33.72000000000001
 31
23.29882212456581
  0
LINE
  5
D1
  8
0
 10
126.92
 20
33.7
 30
23.29882212456581
 11
126.92
 21
45.8
 31
23.29882212456581
  0
LINE
  5
D2
  8
0
 10
132.55
 20
147.7
 30
23.29882212456581
 11
132.55
 21
155.7
 31
23.29882212456581
  0
LINE
  5
D3
  8
0
 10
121.55
 20
155.7
 30
23.29882212456581
 11
121.55
 21
147.7
 31
23.29882212456581
  0
LINE
  5
D4
  8
0
 10
129.88
 20
45.8
 30
23.29882212456581
 11
129.88
 21
33.72000000000001
 31
23.29882212456581
  0
LINE
  5
D5
  8
0
 10
141.88
 20
45.8
 30
23.29882212456581
 11
129.88
 21
45.8
 31
23.29882212456581
  0
LINE
  5
D6
  8
0
 10
114.92
 20
33.7
 30
23.29882212456581
 11
126.92
 21
33.7
 31
23.29882212456581
  0
LINE
  5
D7
  8
0
 10
141.88
 20
33.72000000000001
 30
23.29882212456581
 11
141.88
 21
45.8
 31
23.29882212456581
  0
LINE
  5
D8
  8
0
 10
121.55
 20
167.8
 30
23.29882212456581
 11
121.55
 21
159.8
 31
23.29882212456581
  0
LINE
  5
D9
  8
0
 10
97.00000000000003
 20
33.7
 30
23.29882212456581
 11
97.00000000000003
 21
45.8
 31
23.29882212456581
  0
LINE
  5
DA
  8
0
 10
55.08000000000003
 20
60.6
 30
23.29882212456581
 11
55.08000000000003
 21
48.6
 31
23.29882212456581
  0
LINE
  5
DB
  8
0
 10
55.08000000000003
 20
33.7
 30
23.29882212456581
 11
67.08000000000003
 21
33.7
 31
23.29882212456581
  0
LINE
  5
DC
  8
0
 10
55.08000000000003
 20
48.6
 30
23.29882212456581
 11
67.08000000000003
 21
48.6
 31
23.29882212456581
  0
LINE
  5
DD
  8
0
 10
55.08000000000003
 20
63.4
 30
23.29882212456581
 11
67.08000000000003
 21
63.4
 31
23.29882212456581
  0
LINE
  5
DE
  8
0
 10
126.92
 20
45.8
 30
23.29882212456581
 11
114.92
 21
45.8
 31
23.29882212456581
  0
LINE
  5
DF
  8
0
 10
114.92
 20
45.8
 30
23.29882212456581
 11
114.92
 21
33.7
 31
23.29882212456581
  0
LINE
  5
E0
  8
0
 10
67.08000000000003
 20
63.4
 30
23.29882212456581
 11
67.08000000000003
 21
75.39999999999999
 31
23.29882212456581
  0
LINE
  5
E1
  8
0
 10
67.08000000000003
 20
33.7
 30
23.29882212456581
 11
67.08000000000003
 21
45.8
 31
23.29882212456581
  0
LINE
  5
E2
  8
0
 10
55.08000000000003
 20
75.39999999999999
 30
23.29882212456581
 11
55.08000000000003
 21
63.4
 31
23.29882212456581
  0
LINE
  5
E3
  8
0
 10
55.08000000000003
 20
45.8
 30
23.29882212456581
 11
55.08000000000003
 21
33.7
 31
23.29882212456581
  0
LINE
  5
E4
  8
0
 10
99.96000000000002
 20
45.8
 30
23.29882212456581
 11
99.96000000000002
 21
33.7
 31
23.29882212456581
  0
LINE
  5
E5
  8
0
 10
81.94000000000003
 20
45.8
 30
23.29882212456581
 11
70.04000000000002
 21
45.8
 31
23.29882212456581
  0
LINE
  5
E6
  8
0
 10
70.04000000000002
 20
48.6
 30
23.29882212456581
 11
82.04000000000002
 21
48.6
 31
23.29882212456581
  0
LINE
  5
E7
  8
0
 10
99.96000000000002
 20
33.7
 30
23.29882212456581
 11
111.96
 21
33.7
 31
23.29882212456581
  0
LINE
  5
E8
  8
0
 10
67.08000000000003
 20
78.2
 30
23.29882212456581
 11
55.08000000000003
 21
78.2
 31
23.29882212456581
  0
LINE
  5
E9
  8
0
 10
85.00000000000003
 20
33.7
 30
23.29882212456581
 11
97.00000000000003
 21
33.7
 31
23.29882212456581
  0
LINE
  5
EA
  8
0
 10
67.08000000000003
 20
60.6
 30
23.29882212456581
 11
55.08000000000003
 21
60.6
 31
23.29882212456581
  0
LINE
  5
EB
  8
0
 10
55.08000000000003
 20
78.2
 30
23.29882212456581
 11
55.08000000000003
 21
90.20000000000002
 31
23.29882212456581
  0
LINE
  5
EC
  8
0
 10
97.00000000000003
 20
45.8
 30
23.29882212456581
 11
85.00000000000003
 21
45.8
 31
23.29882212456581
  0
LINE
  5
ED
  8
0
 10
67.08000000000003
 20
45.8
 30
23.29882212456581
 11
55.08000000000003
 21
45.8
 31
23.29882212456581
  0
LINE
  5
EE
  8
0
 10
111.96
 20
45.8
 30
23.29882212456581
 11
99.96000000000002
 21
45.8
 31
23.29882212456581
  0
LINE
  5
EF
  8
0
 10
85.00000000000003
 20
45.8
 30
23.29882212456581
 11
85.00000000000003
 21
33.7
 31
23.29882212456581
  0
LINE
  5
F0
  8
0
 10
70.04000000000002
 20
33.7
 30
23.29882212456581
 11
81.94000000000003
 21
33.7
 31
23.29882212456581
  0
LINE
  5
F1
  8
0
 10
67.08000000000003
 20
90.20000000000002
 30
23.29882212456581
 11
67.08000000000003
 21
78.2
 31
23.29882212456581
  0
LINE
  5
F2
  8
0
 10
67.08000000000003
 20
48.6
 30
23.29882212456581
 11
67.08000000000003
 21
60.6
 31
23.29882212456581
  0
LINE
  5
F3
  8
0
 10
67.08000000000003
 20
75.39999999999999
 30
23.29882212456581
 11
55.08000000000003
 21
75.39999999999999
 31
23.29882212456581
  0
LINE
  5
F4
  8
0
 10
111.96
 20
33.7
 30
23.29882212456581
 11
111.96
 21
45.8
 31
23.29882212456581
  0
LINE
  5
F5
  8
0
 10
81.94000000000003
 20
33.7
 30
23.29882212456581
 11
81.94000000000003
 21
45.8
 31
23.29882212456581
  0
LINE
  5
F6
  8
0
 10
82.04000000000002
 20
48.6
 30
23.29882212456581
 11
82.04000000000002
 21
60.6
 31
23.29882212456581
  0
LINE
  5
F7
  8
0
 10
70.04000000000002
 20
45.8
 30
23.29882212456581
 11
70.04000000000002
 21
33.7
 31
23.29882212456581
  0
LINE
  5
F8
  8
0
 10
55.08000000000003
 20
90.20000000000002
 30
23.29882212456581
 11
67.08000000000003
 21
90.20000000000002
 31
23.29882212456581
  0
LINE
  5
F9
  8
0
 10
111.96
 20
48.6
 30
23.29882212456581
 11
99.96000000000002
 21
48.6
 31
23.29882212456581
  0
LINE
  5
FA
  8
0
 10
126.92
 20
60.6
 30
23.29882212456581
 11
114.92
 21
60.6
 31
23.29882212456581
  0
LINE
  5
FB
  8
0
 10
126.92
 20
48.6
 30
23.29882212456581
 11
114.92
 21
48.6
 31
23.29882212456581
  0
LINE
  5
FC
  8
0
 10
82.04000000000002
 20
90.2
 30
23.29882212456581
 11
70.04000000000002
 21
90.2
 31
23.29882212456581
  0
LINE
  5
FD
  8
0
 10
85.00000000000003
 20
78.2
 30
23.29882212456581
 11
97.00000000000003
 21
78.2
 31
23.29882212456581
  0
LINE
  5
FE
  8
0
 10
85.00000000000003
 20
90.2
 30
23.29882212456581
 11
85.00000000000003
 21
78.2
 31
23.29882212456581
  0
LINE
  5
FF
  8
0
 10
70.04000000000002
 20
75.39999999999999
 30
23.29882212456581
 11
70.04000000000002
 21
63.4
 31
23.29882212456581
  0
LINE
  5
100
  8
0
 10
97.00000000000003
 20
90.2
 30
23.29882212456581
 11
85.00000000000003
 21
90.2
 31
23.29882212456581
  0
LINE
  5
101
  8
0
 10
99.96000000000002
 20
48.6
 30
23.29882212456581
 11
99.96000000000002
 21
60.6
 31
23.29882212456581
  0
LINE
  5
102
  8
0
 10
126.92
 20
60.6
 30
23.29882212456581
 11
126.92
 21
48.6
 31
23.29882212456581
  0
LINE
  5
103
  8
0
 10
141.88
 20
48.6
 30
23.29882212456581
 11
141.88
 21
60.6
 31
23.29882212456581
  0
LINE
  5
104
  8
0
 10
97.00000000000003
 20
75.39999999999999
 30
23.29882212456581
 11
85.00000000000003
 21
75.39999999999999
 31
23.29882212456581
  0
LINE
  5
105
  8
0
 10
85.00000000000003
 20
63.4
 30
23.29882212456581
 11
85.00000000000003
 21
75.39999999999999
 31
23.29882212456581
  0
LINE
  5
106
  8
0
 10
82.24000000000002
 20
75.39999999999999
 30
23.29882212456581
 11
70.04000000000002
 21
75.39999999999999
 31
23.29882212456581
  0
LINE
  5
107
  8
0
 10
97.00000000000003
 20
60.6
 30
23.29882212456581
 11
97.00000000000003
 21
48.6
 31
23.29882212456581
  0
LINE
  5
108
  8
0
 10
97.00000000000003
 20
75.39999999999999
 30
23.29882212456581
 11
97.00000000000003
 21
63.4
 31
23.29882212456581
  0
LINE
  5
109
  8
0
 10
111.96
 20
60.6
 30
23.29882212456581
 11
111.96
 21
48.6
 31
23.29882212456581
  0
LINE
  5
10A
  8
0
 10
85.00000000000003
 20
48.6
 30
23.29882212456581
 11
85.00000000000003
 21
60.6
 31
23.29882212456581
  0
LINE
  5
10B
  8
0
 10
114.92
 20
48.6
 30
23.29882212456581
 11
114.92
 21
60.6
 31
23.29882212456581
  0
LINE
  5
10C
  8
0
 10
97.00000000000003
 20
60.6
 30
23.29882212456581
 11
85.00000000000003
 21
60.6
 31
23.29882212456581
  0
LINE
  5
10D
  8
0
 10
82.24000000000002
 20
63.4
 30
23.29882212456581
 11
82.24000000000002
 21
75.39999999999999
 31
23.29882212456581
  0
LINE
  5
10E
  8
0
 10
97.00000000000003
 20
48.6
 30
23.29882212456581
 11
85.00000000000003
 21
48.6
 31
23.29882212456581
  0
LINE
  5
10F
  8
0
 10
82.04000000000002
 20
90.2
 30
23.29882212456581
 11
82.04000000000002
 21
78.2
 31
23.29882212456581
  0
LINE
  5
110
  8
0
 10
82.04000000000002
 20
60.6
 30
23.29882212456581
 11
70.04000000000002
 21
60.6
 31
23.29882212456581
  0
LINE
  5
111
  8
0
 10
82.04000000000002
 20
78.2
 30
23.29882212456581
 11
70.04000000000002
 21
78.2
 31
23.29882212456581
  0
LINE
  5
112
  8
0
 10
97.00000000000003
 20
63.4
 30
23.29882212456581
 11
85.00000000000003
 21
63.4
 31
23.29882212456581
  0
LINE
  5
113
  8
0
 10
70.04000000000002
 20
63.4
 30
23.29882212456581
 11
82.24000000000002
 21
63.4
 31
23.29882212456581
  0
LINE
  5
114
  8
0
 10
70.04000000000002
 20
78.2
 30
23.29882212456581
 11
70.04000000000002
 21
90.2
 31
23.29882212456581
  0
LINE
  5
115
  8
0
 10
70.04000000000002
 20
60.6
 30
23.29882212456581
 11
70.04000000000002
 21
48.6
 31
23.29882212456581
  0
LINE
  5
116
  8
0
 10
111.96
 20
60.6
 30
23.29882212456581
 11
99.96000000000002
 21
60.6
 31
23.29882212456581
  0
LINE
  5
117
  8
0
 10
97.00000000000003
 20
78.2
 30
23.29882212456581
 11
97.00000000000003
 21
90.2
 31
23.29882212456581
  0
LINE
  5
118
  8
0
 10
129.88
 20
48.6
 30
23.29882212456581
 11
141.88
 21
48.6
 31
23.29882212456581
  0
LINE
  5
119
  8
0
 10
114.92
 20
75.39999999999999
 30
23.29882212456581
 11
114.92
 21
63.4
 31
23.29882212456581
  0
LINE
  5
11A
  8
0
 10
141.88
 20
63.4
 30
23.29882212456581
 11
141.88
 21
75.39999999999999
 31
23.29882212456581
  0
LINE
  5
11B
  8
0
 10
129.88
 20
75.39999999999999
 30
23.29882212456581
 11
129.88
 21
63.4
 31
23.29882212456581
  0
LINE
  5
11C
  8
0
 10
129.88
 20
60.6
 30
23.29882212456581
 11
129.88
 21
48.6
 31
23.29882212456581
  0
LINE
  5
11D
  8
0
 10
141.88
 20
60.6
 30
23.29882212456581
 11
129.88
 21
60.6
 31
23.29882212456581
  0
LINE
  5
11E
  8
0
 10
141.88
 20
75.39999999999999
 30
23.29882212456581
 11
129.88
 21
75.39999999999999
 31
23.29882212456581
  0
LINE
  5
11F
  8
0
 10
111.96
 20
63.4
 30
23.29882212456581
 11
111.96
 21
75.39999999999999
 31
23.29882212456581
  0
LINE
  5
120
  8
0
 10
126.92
 20
75.39999999999999
 30
23.29882212456581
 11
114.92
 21
75.39999999999999
 31
23.29882212456581
  0
LINE
  5
121
  8
0
 10
126.92
 20
63.4
 30
23.29882212456581
 11
126.92
 21
75.39999999999999
 31
23.29882212456581
  0
LINE
  5
122
  8
0
 10
114.92
 20
63.4
 30
23.29882212456581
 11
126.92
 21
63.4
 31
23.29882212456581
  0
LINE
  5
123
  8
0
 10
99.96000000000002
 20
63.4
 30
23.29882212456581
 11
111.96
 21
63.4
 31
23.29882212456581
  0
LINE
  5
124
  8
0
 10
129.88
 20
63.4
 30
23.29882212456581
 11
141.88
 21
63.4
 31
23.29882212456581
  0
LINE
  5
125
  8
0
 10
120.8115397359717
 20
3.340000000000008
 30
23.29882212456581
 11
132.8115397359717
 21
3.340000000000008
 31
23.29882212456581
  0
CIRCLE
  5
126
  8
0
 10
-26.98
 20
54.59999999999999
 30
-23.29882212456581
 40
6.0
210
0.0
220
0.0
230
-1.0
  0
LINE
  5
127
  8
0
 10
132.8117167034338
 20
30.30000000000001
 30
23.29882212456581
 11
120.8115397359717
 21
30.30000000000001
 31
23.29882212456581
  0
LINE
  5
128
  8
0
 10
26.49359848919327
 20
3.340000000000008
 30
23.29882212456581
 11
15.49359848919328
 21
3.340000000000008
 31
23.29882212456581
  0
CIRCLE
  5
129
  8
0
 10
-26.98000000000003
 20
39.8
 30
-23.29882212456581
 40
5.999999999999995
210
0.0
220
0.0
230
-1.0
  0
CIRCLE
  5
12A
  8
0
 10
-43.71614843959873
 20
54.6
 30
-23.29882212456581
 40
6.0
210
0.0
220
0.0
230
-1.0
  0
CIRCLE
  5
12B
  8
0
 10
-10.17249344728161
 20
54.6
 30
-23.29882212456581
 40
5.999999999999998
210
0.0
220
0.0
230
-1.0
  0
CIRCLE
  5
12C
  8
0
 10
-10.17249344728161
 20
69.39999999999999
 30
-23.29882212456581
 40
6.000000000000003
210
0.0
220
0.0
230
-1.0
  0
CIRCLE
  5
12D
  8
0
 10
-26.98000000000003
 20
69.39999999999999
 30
-23.29882212456581
 40
6.0
210
0.0
220
0.0
230
-1.0
  0
CIRCLE
  5
12E
  8
0
 10
-43.74721089438729
 20
84.20000000000002
 30
-23.29882212456581
 40
6.0
210
0.0
220
0.0
230
-1.0
  0
CIRCLE
  5
12F
  8
0
 10
-26.98000000000003
 20
84.2
 30
-23.29882212456581
 40
6.000000000000003
210
0.0
220
0.0
230
-1.0
  0
CIRCLE
  5
130
  8
0
 10
-10.17249344728161
 20
84.2
 30
-23.29882212456581
 40
6.000000000000003
210
0.0
220
0.0
230
-1.0
  0
CIRCLE
  5
131
  8
0
 10
-43.74721089438724
 20
69.39999999999999
 30
-23.29882212456581
 40
5.999999999999996
210
0.0
220
0.0
230
-1.0
  0
CIRCLE
  5
132
  8
0
 10
-27.5
 20
116.5
 30
-23.29882212456582
 40
1.374999999999998
210
1.255092354254999E-31
220
-4.684068434270943E-31
230
-1.0
  0
CIRCLE
  5
133
  8
0
 10
-118.55
 20
116.5
 30
-23.29882212456581
 40
1.375000000000003
210
2.173883725760919E-31
220
-3.765277062765026E-31
230
-1.0
  0
CIRCLE
  5
134
  8
0
 10
-8.5
 20
24.5
 30
-23.29882212456581
 40
1.375
210
-2.173883725760913E-31
220
-1.255092354255009E-31
230
-1.0
  0
CIRCLE
  5
135
  8
0
 10
-137.55
 20
24.5
 30
-23.29882212456581
 40
1.375000000000002
210
2.637221838620544E-31
220
-2.334736023957666E-31
230
-1.0
  0
POLYLINE
  5
136
  8
0
 66
     1
 10
0.0
 20
0.0
 30
0.0
 70
    64
 71
   588
 72
   722
  0
VERTEX
  5
137
  8
0
 10
25.99999999999999
 20
105.0
 30
23.29882212456581
 70
   192
  0
VERTEX
  5
138
  8
0
 10
14.0
 20
123.5
 30
23.29882212456581
 70
   192
  0
VERTEX
  5
139
  8
0
 10
14.0
 20
105.0
 30
23.29882212456581
 70
   192
  0
VERTEX
  5
13A
  8
0
 10
24.99359848919328
 20
123.5
 30
23.29882212456581
 70
   192
  0
VERTEX
  5
13B
  8
0
 10
24.99359848919328
 20
131.5124515137408
 30
23.29882212456581
 70
   192
  0
VERTEX
  5
13C
  8
0
 10
24.99359848919328
 20
135.6
 30
23.29882212456581
 70
   192
  0
VERTEX
  5
13D
  8
0
 10
24.99359848919328
 20
143.6
 30
23.29882212456581
 70
   192
  0
VERTEX
  5
13E
  8
0
 10
24.99359848919328
 20
147.7
 30
23.29882212456581
 70
   192
  0
VERTEX
  5
13F
  8
0
 10
24.99359848919328
 20
155.7
 30
23.29882212456581
 70
   192
  0
VERTEX
  5
140
  8
0
 10
24.99359848919328
 20
159.8
 30
23.29882212456581
 70
   192
  0
VERTEX
  5
141
  8
0
 10
24.99359848919328
 20
167.8
 30
23.29882212456581
 70
   192
  0
VERTEX
  5
142
  8
0
 10
14.41513413440088
 20
88.4426406871193
 30
23.29882212456581
 70
   192
  0
VERTEX
  5
143
  8
0
 10
14.0
 20
93.00000000000001
 30
23.29882212456581
 70
   192
  0
VERTEX
  5
144
  8
0
 10
13.17249344728159
 20
89.39615242270665
 30
23.29882212456581
 70
   192
  0
VERTEX
  5
145
  8
0
 10
25.99999999999999
 20
93.00000000000001
 30
23.29882212456581
 70
   192
  0
VERTEX
  5
146
  8
0
 10
15.36864586998823
 20
87.20000000000002
 30
23.29882212456581
 70
   192
  0
VERTEX
  5
147
  8
0
 10
15.96804840501601
 20
85.75291427061515
 30
23.29882212456581
 70
   192
  0
VERTEX
  5
148
  8
0
 10
16.17249344728161
 20
84.20000000000003
 30
23.29882212456581
 70
   192
  0
VERTEX
  5
149
  8
0
 10
21.7838475772934
 20
87.2
 30
23.29882212456581
 70
   192
  0
VERTEX
  5
14A
  8
0
 10
21.18444504226562
 20
85.75291427061512
 30
23.29882212456581
 70
   192
  0
VERTEX
  5
14B
  8
0
 10
20.98000000000003
 20
84.19999999999999
 30
23.29882212456581
 70
   192
  0
VERTEX
  5
14C
  8
0
 10
16.57
 20
45.8
 30
23.29882212456581
 70
   192
  0
VERTEX
  5
14D
  8
0
 10
20.98
 20
54.59999999999999
 30
23.29882212456581
 70
   192
  0
VERTEX
  5
14E
  8
0
 10
22.73735931288074
 20
88.4426406871193
 30
23.29882212456581
 70
   192
  0
VERTEX
  5
14F
  8
0
 10
23.98000000000003
 20
89.39615242270662
 30
23.29882212456581
 70
   192
  0
VERTEX
  5
150
  8
0
 10
25.4270857293849
 20
89.99555495773441
 30
23.29882212456581
 70
   192
  0
VERTEX
  5
151
  8
0
 10
26.98000000000003
 20
90.2
 30
23.29882212456581
 70
   192
  0
VERTEX
  5
152
  8
0
 10
26.125
 20
116.5
 30
23.29882212456582
 70
   192
  0
VERTEX
  5
153
  8
0
 10
26.17185198885253
 20
116.144123812984
 30
23.29882212456582
 70
   192
  0
VERTEX
  5
154
  8
0
 10
26.3092150697964
 20
115.8125
 30
23.29882212456582
 70
   192
  0
VERTEX
  5
155
  8
0
 10
26.5277281758685
 20
115.5277281758685
 30
23.29882212456582
 70
   192
  0
VERTEX
  5
156
  8
0
 10
26.8125
 20
115.3092150697964
 30
23.29882212456582
 70
   192
  0
VERTEX
  5
157
  8
0
 10
27.14412381298403
 20
115.1718519888525
 30
23.29882212456582
 70
   192
  0
VERTEX
  5
158
  8
0
 10
28.53291427061515
 20
89.99555495773441
 30
23.29882212456581
 70
   192
  0
VERTEX
  5
159
  8
0
 10
27.5
 20
115.125
 30
23.29882212456582
 70
   192
  0
VERTEX
  5
15A
  8
0
 10
27.85587618701597
 20
115.1718519888525
 30
23.29882212456582
 70
   192
  0
VERTEX
  5
15B
  8
0
 10
28.1875
 20
115.3092150697964
 30
23.29882212456582
 70
   192
  0
VERTEX
  5
15C
  8
0
 10
28.4722718241315
 20
115.5277281758685
 30
23.29882212456582
 70
   192
  0
VERTEX
  5
15D
  8
0
 10
28.6907849302036
 20
115.8125
 30
23.29882212456582
 70
   192
  0
VERTEX
  5
15E
  8
0
 10
29.98000000000003
 20
89.39615242270663
 30
23.29882212456581
 70
   192
  0
VERTEX
  5
15F
  8
0
 10
28.82814801114747
 20
116.144123812984
 30
23.29882212456582
 70
   192
  0
VERTEX
  5
160
  8
0
 10
28.875
 20
116.5
 30
23.29882212456582
 70
   192
  0
VERTEX
  5
161
  8
0
 10
-0.5000000000000004
 20
10.0
 30
23.29882212456581
 70
   192
  0
VERTEX
  5
162
  8
0
 10
4.17
 20
33.8
 30
23.29882212456581
 70
   192
  0
VERTEX
  5
163
  8
0
 10
-0.5000000000000004
 20
171.0
 30
23.29882212456581
 70
   192
  0
VERTEX
  5
164
  8
0
 10
4.999999999999998
 20
10.0
 30
23.29882212456581
 70
   192
  0
VERTEX
  5
165
  8
0
 10
7.17185198885253
 20
24.85587618701597
 30
23.29882212456581
 70
   192
  0
VERTEX
  5
166
  8
0
 10
7.309215069796397
 20
25.1875
 30
23.29882212456581
 70
   192
  0
VERTEX
  5
167
  8
0
 10
7.527728175868496
 20
25.4722718241315
 30
23.29882212456581
 70
   192
  0
VERTEX
  5
168
  8
0
 10
16.57
 20
33.8
 30
23.29882212456581
 70
   192
  0
VERTEX
  5
169
  8
0
 10
7.125
 20
24.5
 30
23.29882212456581
 70
   192
  0
VERTEX
  5
16A
  8
0
 10
6.294095225512602
 20
9.829629131445342
 30
23.29882212456581
 70
   192
  0
VERTEX
  5
16B
  8
0
 10
7.8125
 20
25.6907849302036
 30
23.29882212456581
 70
   192
  0
VERTEX
  5
16C
  8
0
 10
8.144123812984033
 20
25.82814801114747
 30
23.29882212456581
 70
   192
  0
VERTEX
  5
16D
  8
0
 10
8.5
 20
25.875
 30
23.29882212456581
 70
   192
  0
VERTEX
  5
16E
  8
0
 10
8.855876187015966
 20
25.82814801114747
 30
23.29882212456581
 70
   192
  0
VERTEX
  5
16F
  8
0
 10
9.187499999999998
 20
25.6907849302036
 30
23.29882212456581
 70
   192
  0
VERTEX
  5
170
  8
0
 10
9.472271824131502
 20
25.47227182413151
 30
23.29882212456581
 70
   192
  0
VERTEX
  5
171
  8
0
 10
9.690784930203604
 20
25.1875
 30
23.29882212456581
 70
   192
  0
VERTEX
  5
172
  8
0
 10
9.828148011147467
 20
24.85587618701597
 30
23.29882212456581
 70
   192
  0
VERTEX
  5
173
  8
0
 10
9.875
 20
24.5
 30
23.29882212456581
 70
   192
  0
VERTEX
  5
174
  8
0
 10
15.49359848919328
 20
30.3
 30
23.29882212456581
 70
   192
  0
VERTEX
  5
175
  8
0
 10
10.0
 20
4.999999999999999
 30
23.29882212456581
 70
   192
  0
VERTEX
  5
176
  8
0
 10
15.49359848919328
 20
3.340000000000008
 30
23.29882212456581
 70
   192
  0
VERTEX
  5
177
  8
0
 10
26.49359848919327
 20
30.3
 30
23.29882212456581
 70
   192
  0
VERTEX
  5
178
  8
0
 10
21.78384757729341
 20
36.79999999999999
 30
23.29882212456581
 70
   192
  0
VERTEX
  5
179
  8
0
 10
21.18444504226562
 20
38.24708572938486
 30
23.29882212456581
 70
   192
  0
VERTEX
  5
17A
  8
0
 10
20.98000000000003
 20
39.79999999999999
 30
23.29882212456581
 70
   192
  0
VERTEX
  5
17B
  8
0
 10
22.73735931288075
 20
35.55735931288071
 30
23.29882212456581
 70
   192
  0
VERTEX
  5
17C
  8
0
 10
23.98000000000005
 20
34.60384757729337
 30
23.29882212456581
 70
   192
  0
VERTEX
  5
17D
  8
0
 10
25.42708572938492
 20
34.00444504226559
 30
23.29882212456581
 70
   192
  0
VERTEX
  5
17E
  8
0
 10
26.98000000000004
 20
33.8
 30
23.29882212456581
 70
   192
  0
VERTEX
  5
17F
  8
0
 10
14.0
 20
159.8
 30
23.29882212456581
 70
   192
  0
VERTEX
  5
180
  8
0
 10
14.0
 20
155.7
 30
23.29882212456581
 70
   192
  0
VERTEX
  5
181
  8
0
 10
14.0
 20
147.7
 30
23.29882212456581
 70
   192
  0
VERTEX
  5
182
  8
0
 10
14.0
 20
143.6
 30
23.29882212456581
 70
   192
  0
VERTEX
  5
183
  8
0
 10
14.0
 20
135.6
 30
23.29882212456581
 70
   192
  0
VERTEX
  5
184
  8
0
 10
14.0
 20
131.5124515137408
 30
23.29882212456581
 70
   192
  0
VERTEX
  5
185
  8
0
 10
7.499999999999997
 20
9.330127018922195
 30
23.29882212456581
 70
   192
  0
VERTEX
  5
186
  8
0
 10
7.171851988852532
 20
24.14412381298403
 30
23.29882212456581
 70
   192
  0
VERTEX
  5
187
  8
0
 10
7.309215069796397
 20
23.8125
 30
23.29882212456581
 70
   192
  0
VERTEX
  5
188
  8
0
 10
7.527728175868497
 20
23.5277281758685
 30
23.29882212456581
 70
   192
  0
VERTEX
  5
189
  8
0
 10
8.535533905932738
 20
8.535533905932738
 30
23.29882212456581
 70
   192
  0
VERTEX
  5
18A
  8
0
 10
7.8125
 20
23.30921506979639
 30
23.29882212456581
 70
   192
  0
VERTEX
  5
18B
  8
0
 10
8.144123812984034
 20
23.17185198885253
 30
23.29882212456581
 70
   192
  0
VERTEX
  5
18C
  8
0
 10
8.5
 20
23.125
 30
23.29882212456581
 70
   192
  0
VERTEX
  5
18D
  8
0
 10
8.855876187015966
 20
23.17185198885253
 30
23.29882212456581
 70
   192
  0
VERTEX
  5
18E
  8
0
 10
9.330127018922193
 20
7.5
 30
23.29882212456581
 70
   192
  0
VERTEX
  5
18F
  8
0
 10
9.1875
 20
23.30921506979639
 30
23.29882212456581
 70
   192
  0
VERTEX
  5
190
  8
0
 10
9.472271824131504
 20
23.5277281758685
 30
23.29882212456581
 70
   192
  0
VERTEX
  5
191
  8
0
 10
9.82962913144534
 20
6.294095225512604
 30
23.29882212456581
 70
   192
  0
VERTEX
  5
192
  8
0
 10
9.690784930203604
 20
23.8125
 30
23.29882212456581
 70
   192
  0
VERTEX
  5
193
  8
0
 10
9.828148011147467
 20
24.14412381298403
 30
23.29882212456581
 70
   192
  0
VERTEX
  5
194
  8
0
 10
4.17
 20
45.8
 30
23.29882212456581
 70
   192
  0
VERTEX
  5
195
  8
0
 10
4.172503991138282
 20
69.38875161483001
 30
23.29882212456581
 70
   192
  0
VERTEX
  5
196
  8
0
 10
4.172493447281606
 20
84.19999999999997
 30
23.29882212456581
 70
   192
  0
VERTEX
  5
197
  8
0
 10
4.221969272426002
 20
53.83106434309559
 30
23.29882212456581
 70
   192
  0
VERTEX
  5
198
  8
0
 10
4.623743659296411
 20
52.31715620544588
 30
23.29882212456581
 70
   192
  0
VERTEX
  5
199
  8
0
 10
5.403656174475428
 20
50.9588200998173
 30
23.29882212456581
 70
   192
  0
VERTEX
  5
19A
  8
0
 10
6.508557068919969
 20
49.84862438705187
 30
23.29882212456581
 70
   192
  0
VERTEX
  5
19B
  8
0
 10
7.863149172608704
 20
49.06222707028941
 30
23.29882212456581
 70
   192
  0
VERTEX
  5
19C
  8
0
 10
9.375119272244543
 20
48.65321982708424
 30
23.29882212456581
 70
   192
  0
VERTEX
  5
19D
  8
0
 10
10.94142910418602
 20
48.64947582514439
 30
23.29882212456581
 70
   192
  0
VERTEX
  5
19E
  8
0
 10
12.45533724183572
 20
49.05125021201481
 30
23.29882212456581
 70
   192
  0
VERTEX
  5
19F
  8
0
 10
13.81367334746431
 20
49.83116272719382
 30
23.29882212456581
 70
   192
  0
VERTEX
  5
1A0
  8
0
 10
14.92386906022974
 20
50.93606362163837
 30
23.29882212456581
 70
   192
  0
VERTEX
  5
1A1
  8
0
 10
15.7102663769922
 20
52.29065572532711
 30
23.29882212456581
 70
   192
  0
VERTEX
  5
1A2
  8
0
 10
16.11927362019736
 20
53.80262582496293
 30
23.29882212456581
 70
   192
  0
VERTEX
  5
1A3
  8
0
 10
16.12301762213721
 20
55.36893565690442
 30
23.29882212456581
 70
   192
  0
VERTEX
  5
1A4
  8
0
 10
16.17248290342493
 20
69.41124838516998
 30
23.29882212456581
 70
   192
  0
VERTEX
  5
1A5
  8
0
 10
4.376938489547201
 20
82.64708572938487
 30
23.29882212456581
 70
   192
  0
VERTEX
  5
1A6
  8
0
 10
4.374037377822027
 20
70.94204643592445
 30
23.29882212456581
 70
   192
  0
VERTEX
  5
1A7
  8
0
 10
4.970725963237714
 20
72.3902533407629
 30
23.29882212456581
 70
   192
  0
VERTEX
  5
1A8
  8
0
 10
4.976341024574984
 20
81.19999999999999
 30
23.29882212456581
 70
   192
  0
VERTEX
  5
1A9
  8
0
 10
5.921906406363777
 20
73.63467942205563
 30
23.29882212456581
 70
   192
  0
VERTEX
  5
1AA
  8
0
 10
5.929852760162338
 20
79.9573593128807
 30
23.29882212456581
 70
   192
  0
VERTEX
  5
1AB
  8
0
 10
7.162757331901179
 20
74.5905190988739
 30
23.29882212456581
 70
   192
  0
VERTEX
  5
1AC
  8
0
 10
7.172493447281627
 20
79.00384757729336
 30
23.29882212456581
 70
   192
  0
VERTEX
  5
1AD
  8
0
 10
8.608716799877657
 20
75.19263347684229
 30
23.29882212456581
 70
   192
  0
VERTEX
  5
1AE
  8
0
 10
8.619579176666502
 20
78.40444504226558
 30
23.29882212456581
 70
   192
  0
VERTEX
  5
1AF
  8
0
 10
10.16124506211161
 20
75.39998945614332
 30
23.29882212456581
 70
   192
  0
VERTEX
  5
1B0
  8
0
 10
10.17249344728163
 20
78.2
 30
23.29882212456581
 70
   192
  0
VERTEX
  5
1B1
  8
0
 10
11.71453988320607
 20
75.19845606945958
 30
23.29882212456581
 70
   192
  0
VERTEX
  5
1B2
  8
0
 10
11.72540771789675
 20
78.40444504226559
 30
23.29882212456581
 70
   192
  0
VERTEX
  5
1B3
  8
0
 10
13.16274678804451
 20
74.60176748404389
 30
23.29882212456581
 70
   192
  0
VERTEX
  5
1B4
  8
0
 10
13.17249344728163
 20
79.00384757729339
 30
23.29882212456581
 70
   192
  0
VERTEX
  5
1B5
  8
0
 10
14.40717286933724
 20
73.65058704091783
 30
23.29882212456581
 70
   192
  0
VERTEX
  5
1B6
  8
0
 10
14.41513413440091
 20
79.95735931288073
 30
23.29882212456581
 70
   192
  0
VERTEX
  5
1B7
  8
0
 10
15.36301254615551
 20
72.40973611538043
 30
23.29882212456581
 70
   192
  0
VERTEX
  5
1B8
  8
0
 10
15.36864586998826
 20
81.20000000000002
 30
23.29882212456581
 70
   192
  0
VERTEX
  5
1B9
  8
0
 10
15.9651269241239
 20
70.96377664740395
 30
23.29882212456581
 70
   192
  0
VERTEX
  5
1BA
  8
0
 10
15.96804840501603
 20
82.6470857293849
 30
23.29882212456581
 70
   192
  0
VERTEX
  5
1BB
  8
0
 10
4.225713274365852
 20
55.39737417503707
 30
23.29882212456581
 70
   192
  0
VERTEX
  5
1BC
  8
0
 10
4.379859970439312
 20
67.83622335259605
 30
23.29882212456581
 70
   192
  0
VERTEX
  5
1BD
  8
0
 10
4.634720517571012
 20
56.90934427467291
 30
23.29882212456581
 70
   192
  0
VERTEX
  5
1BE
  8
0
 10
4.981974348407708
 20
66.39026388461956
 30
23.29882212456581
 70
   192
  0
VERTEX
  5
1BF
  8
0
 10
5.42111783433348
 20
58.26393637836164
 30
23.29882212456581
 70
   192
  0
VERTEX
  5
1C0
  8
0
 10
5.937814025225979
 20
65.14941295908216
 30
23.29882212456581
 70
   192
  0
VERTEX
  5
1C1
  8
0
 10
6.531313547098907
 20
59.36883727280618
 30
23.29882212456581
 70
   192
  0
VERTEX
  5
1C2
  8
0
 10
7.182240106518711
 20
64.19823251595611
 30
23.29882212456581
 70
   192
  0
VERTEX
  5
1C3
  8
0
 10
7.889649652727492
 20
60.1487497879852
 30
23.29882212456581
 70
   192
  0
VERTEX
  5
1C4
  8
0
 10
8.630447011357147
 20
63.60154393054042
 30
23.29882212456581
 70
   192
  0
VERTEX
  5
1C5
  8
0
 10
9.403557790377194
 20
60.55052417485561
 30
23.29882212456581
 70
   192
  0
VERTEX
  5
1C6
  8
0
 10
10.1837418324516
 20
63.40001054385667
 30
23.29882212456581
 70
   192
  0
VERTEX
  5
1C7
  8
0
 10
10.96986762231868
 20
60.54678017291576
 30
23.29882212456581
 70
   192
  0
VERTEX
  5
1C8
  8
0
 10
11.73627009468556
 20
63.6073665231577
 30
23.29882212456581
 70
   192
  0
VERTEX
  5
1C9
  8
0
 10
12.48183772195451
 20
60.1377729297106
 30
23.29882212456581
 70
   192
  0
VERTEX
  5
1CA
  8
0
 10
13.18222956266204
 20
64.20948090112608
 30
23.29882212456581
 70
   192
  0
VERTEX
  5
1CB
  8
0
 10
13.83642982564325
 20
59.35137561294813
 30
23.29882212456581
 70
   192
  0
VERTEX
  5
1CC
  8
0
 10
14.42308048819944
 20
65.16532057794437
 30
23.29882212456581
 70
   192
  0
VERTEX
  5
1CD
  8
0
 10
14.94133072008779
 20
58.2411799001827
 30
23.29882212456581
 70
   192
  0
VERTEX
  5
1CE
  8
0
 10
15.37426093132551
 20
66.4097466592371
 30
23.29882212456581
 70
   192
  0
VERTEX
  5
1CF
  8
0
 10
15.72124323526681
 20
56.88284379455412
 30
23.29882212456581
 70
   192
  0
VERTEX
  5
1D0
  8
0
 10
15.97094951674119
 20
67.85795356407553
 30
23.29882212456581
 70
   192
  0
VERTEX
  5
1D1
  8
0
 10
31.22264068711931
 20
88.4426406871193
 30
23.29882212456581
 70
   192
  0
VERTEX
  5
1D2
  8
0
 10
30.0
 20
93.00000000000001
 30
23.29882212456581
 70
   192
  0
VERTEX
  5
1D3
  8
0
 10
42.0
 20
93.00000000000001
 30
23.29882212456581
 70
   192
  0
VERTEX
  5
1D4
  8
0
 10
32.17615242270666
 20
87.2
 30
23.29882212456581
 70
   192
  0
VERTEX
  5
1D5
  8
0
 10
32.77555495773444
 20
85.75291427061514
 30
23.29882212456581
 70
   192
  0
VERTEX
  5
1D6
  8
0
 10
32.98000000000003
 20
84.20000000000002
 30
23.29882212456581
 70
   192
  0
VERTEX
  5
1D7
  8
0
 10
38.55105847168065
 20
87.20000000000002
 30
23.29882212456581
 70
   192
  0
VERTEX
  5
1D8
  8
0
 10
37.95165593665288
 20
85.75291427061514
 30
23.29882212456581
 70
   192
  0
VERTEX
  5
1D9
  8
0
 10
37.74721089438729
 20
84.20000000000003
 30
23.29882212456581
 70
   192
  0
VERTEX
  5
1DA
  8
0
 10
37.71614843959873
 20
54.6
 30
23.29882212456581
 70
   192
  0
VERTEX
  5
1DB
  8
0
 10
37.74721089438724
 20
69.39999999999999
 30
23.29882212456581
 70
   192
  0
VERTEX
  5
1DC
  8
0
 10
39.504570207268
 20
88.4426406871193
 30
23.29882212456581
 70
   192
  0
VERTEX
  5
1DD
  8
0
 10
40.74721089438729
 20
89.39615242270665
 30
23.29882212456581
 70
   192
  0
VERTEX
  5
1DE
  8
0
 10
42.19429662377217
 20
89.99555495773443
 30
23.29882212456581
 70
   192
  0
VERTEX
  5
1DF
  8
0
 10
42.0
 20
105.0
 30
23.29882212456581
 70
   192
  0
VERTEX
  5
1E0
  8
0
 10
37.77
 20
45.8
 30
23.29882212456581
 70
   192
  0
VERTEX
  5
1E1
  8
0
 10
37.92059348186432
 20
53.04708572938488
 30
23.29882212456581
 70
   192
  0
VERTEX
  5
1E2
  8
0
 10
37.77
 20
33.7
 30
23.29882212456581
 70
   192
  0
VERTEX
  5
1E3
  8
0
 10
38.51999601689209
 20
51.59999999999999
 30
23.29882212456581
 70
   192
  0
VERTEX
  5
1E4
  8
0
 10
39.47350775247944
 20
50.35735931288072
 30
23.29882212456581
 70
   192
  0
VERTEX
  5
1E5
  8
0
 10
40.71614843959873
 20
49.40384757729337
 30
23.29882212456581
 70
   192
  0
VERTEX
  5
1E6
  8
0
 10
42.16323416898361
 20
48.80444504226559
 30
23.29882212456581
 70
   192
  0
VERTEX
  5
1E7
  8
0
 10
49.77
 20
45.8
 30
23.29882212456581
 70
   192
  0
VERTEX
  5
1E8
  8
0
 10
43.71614843959873
 20
48.6
 30
23.29882212456581
 70
   192
  0
VERTEX
  5
1E9
  8
0
 10
45.26906271021385
 20
48.80444504226559
 30
23.29882212456581
 70
   192
  0
VERTEX
  5
1EA
  8
0
 10
46.71614843959873
 20
49.40384757729337
 30
23.29882212456581
 70
   192
  0
VERTEX
  5
1EB
  8
0
 10
47.95878912671801
 20
50.35735931288072
 30
23.29882212456581
 70
   192
  0
VERTEX
  5
1EC
  8
0
 10
48.91230086230536
 20
51.60000000000001
 30
23.29882212456581
 70
   192
  0
VERTEX
  5
1ED
  8
0
 10
49.51170339733314
 20
53.04708572938488
 30
23.29882212456581
 70
   192
  0
VERTEX
  5
1EE
  8
0
 10
49.71614843959873
 20
54.6
 30
23.29882212456581
 70
   192
  0
VERTEX
  5
1EF
  8
0
 10
49.74721089438724
 20
69.39999999999999
 30
23.29882212456581
 70
   192
  0
VERTEX
  5
1F0
  8
0
 10
49.74721089438729
 20
84.20000000000002
 30
23.29882212456581
 70
   192
  0
VERTEX
  5
1F1
  8
0
 10
37.95165593665283
 20
70.95291427061511
 30
23.29882212456581
 70
   192
  0
VERTEX
  5
1F2
  8
0
 10
37.95165593665288
 20
82.6470857293849
 30
23.29882212456581
 70
   192
  0
VERTEX
  5
1F3
  8
0
 10
38.55105847168061
 20
72.39999999999998
 30
23.29882212456581
 70
   192
  0
VERTEX
  5
1F4
  8
0
 10
38.55105847168065
 20
81.20000000000002
 30
23.29882212456581
 70
   192
  0
VERTEX
  5
1F5
  8
0
 10
39.50457020726795
 20
73.64264068711927
 30
23.29882212456581
 70
   192
  0
VERTEX
  5
1F6
  8
0
 10
39.504570207268
 20
79.95735931288073
 30
23.29882212456581
 70
   192
  0
VERTEX
  5
1F7
  8
0
 10
40.74721089438724
 20
74.59615242270662
 30
23.29882212456581
 70
   192
  0
VERTEX
  5
1F8
  8
0
 10
40.74721089438728
 20
79.00384757729339
 30
23.29882212456581
 70
   192
  0
VERTEX
  5
1F9
  8
0
 10
42.19429662377212
 20
75.1955549577344
 30
23.29882212456581
 70
   192
  0
VERTEX
  5
1FA
  8
0
 10
42.19429662377215
 20
78.4044450422656
 30
23.29882212456581
 70
   192
  0
VERTEX
  5
1FB
  8
0
 10
43.74721089438724
 20
75.39999999999999
 30
23.29882212456581
 70
   192
  0
VERTEX
  5
1FC
  8
0
 10
43.74721089438729
 20
78.20000000000002
 30
23.29882212456581
 70
   192
  0
VERTEX
  5
1FD
  8
0
 10
45.30012516500236
 20
75.1955549577344
 30
23.29882212456581
 70
   192
  0
VERTEX
  5
1FE
  8
0
 10
45.30012516500241
 20
78.4044450422656
 30
23.29882212456581
 70
   192
  0
VERTEX
  5
1FF
  8
0
 10
46.74721089438724
 20
74.59615242270662
 30
23.29882212456581
 70
   192
  0
VERTEX
  5
200
  8
0
 10
46.74721089438728
 20
79.00384757729339
 30
23.29882212456581
 70
   192
  0
VERTEX
  5
201
  8
0
 10
47.98985158150653
 20
73.64264068711927
 30
23.29882212456581
 70
   192
  0
VERTEX
  5
202
  8
0
 10
47.98985158150657
 20
79.95735931288073
 30
23.29882212456581
 70
   192
  0
VERTEX
  5
203
  8
0
 10
48.94336331709387
 20
72.39999999999999
 30
23.29882212456581
 70
   192
  0
VERTEX
  5
204
  8
0
 10
48.94336331709391
 20
81.2
 30
23.29882212456581
 70
   192
  0
VERTEX
  5
205
  8
0
 10
49.54276585212165
 20
70.95291427061511
 30
23.29882212456581
 70
   192
  0
VERTEX
  5
206
  8
0
 10
49.5427658521217
 20
82.64708572938488
 30
23.29882212456581
 70
   192
  0
VERTEX
  5
207
  8
0
 10
37.92059348186432
 20
56.15291427061513
 30
23.29882212456581
 70
   192
  0
VERTEX
  5
208
  8
0
 10
37.95165593665283
 20
67.84708572938486
 30
23.29882212456581
 70
   192
  0
VERTEX
  5
209
  8
0
 10
38.51999601689209
 20
57.59999999999999
 30
23.29882212456581
 70
   192
  0
VERTEX
  5
20A
  8
0
 10
38.55105847168061
 20
66.39999999999998
 30
23.29882212456581
 70
   192
  0
VERTEX
  5
20B
  8
0
 10
39.47350775247944
 20
58.84264068711929
 30
23.29882212456581
 70
   192
  0
VERTEX
  5
20C
  8
0
 10
39.50457020726795
 20
65.1573593128807
 30
23.29882212456581
 70
   192
  0
VERTEX
  5
20D
  8
0
 10
40.71614843959873
 20
59.79615242270663
 30
23.29882212456581
 70
   192
  0
VERTEX
  5
20E
  8
0
 10
40.74721089438724
 20
64.20384757729335
 30
23.29882212456581
 70
   192
  0
VERTEX
  5
20F
  8
0
 10
42.1632341689836
 20
60.39555495773441
 30
23.29882212456581
 70
   192
  0
VERTEX
  5
210
  8
0
 10
42.19429662377212
 20
63.60444504226557
 30
23.29882212456581
 70
   192
  0
VERTEX
  5
211
  8
0
 10
43.71614843959873
 20
60.6
 30
23.29882212456581
 70
   192
  0
VERTEX
  5
212
  8
0
 10
43.74721089438724
 20
63.39999999999998
 30
23.29882212456581
 70
   192
  0
VERTEX
  5
213
  8
0
 10
45.26906271021385
 20
60.39555495773441
 30
23.29882212456581
 70
   192
  0
VERTEX
  5
214
  8
0
 10
45.30012516500237
 20
63.60444504226557
 30
23.29882212456581
 70
   192
  0
VERTEX
  5
215
  8
0
 10
46.71614843959873
 20
59.79615242270663
 30
23.29882212456581
 70
   192
  0
VERTEX
  5
216
  8
0
 10
46.74721089438724
 20
64.20384757729335
 30
23.29882212456581
 70
   192
  0
VERTEX
  5
217
  8
0
 10
47.95878912671801
 20
58.84264068711929
 30
23.29882212456581
 70
   192
  0
VERTEX
  5
218
  8
0
 10
47.98985158150653
 20
65.1573593128807
 30
23.29882212456581
 70
   192
  0
VERTEX
  5
219
  8
0
 10
48.91230086230535
 20
57.60000000000001
 30
23.29882212456581
 70
   192
  0
VERTEX
  5
21A
  8
0
 10
48.94336331709388
 20
66.39999999999999
 30
23.29882212456581
 70
   192
  0
VERTEX
  5
21B
  8
0
 10
49.51170339733314
 20
56.15291427061513
 30
23.29882212456581
 70
   192
  0
VERTEX
  5
21C
  8
0
 10
49.54276585212165
 20
67.84708572938486
 30
23.29882212456581
 70
   192
  0
VERTEX
  5
21D
  8
0
 10
29.45359848919327
 20
18.30000000000001
 30
23.29882212456581
 70
   192
  0
VERTEX
  5
21E
  8
0
 10
37.42405104558238
 20
15.34000000000001
 30
23.29882212456581
 70
   192
  0
VERTEX
  5
21F
  8
0
 10
41.45359848919328
 20
18.30000000000001
 30
23.29882212456581
 70
   192
  0
VERTEX
  5
220
  8
0
 10
37.42405104558238
 20
3.340000000000008
 30
23.29882212456581
 70
   192
  0
VERTEX
  5
221
  8
0
 10
49.42405104558237
 20
15.34000000000001
 30
23.29882212456581
 70
   192
  0
VERTEX
  5
222
  8
0
 10
44.41359848919328
 20
18.30000000000001
 30
23.29882212456581
 70
   192
  0
VERTEX
  5
223
  8
0
 10
41.45359848919328
 20
30.30000000000001
 30
23.29882212456581
 70
   192
  0
VERTEX
  5
224
  8
0
 10
56.41359848919328
 20
18.30000000000001
 30
23.29882212456581
 70
   192
  0
VERTEX
  5
225
  8
0
 10
82.24000000000002
 20
75.39999999999999
 30
23.29882212456581
 70
   192
  0
VERTEX
  5
226
  8
0
 10
70.04000000000002
 20
78.2
 30
23.29882212456581
 70
   192
  0
VERTEX
  5
227
  8
0
 10
70.04000000000002
 20
75.39999999999999
 30
23.29882212456581
 70
   192
  0
VERTEX
  5
228
  8
0
 10
82.04000000000002
 20
78.2
 30
23.29882212456581
 70
   192
  0
VERTEX
  5
229
  8
0
 10
82.04000000000002
 20
90.2
 30
23.29882212456581
 70
   192
  0
VERTEX
  5
22A
  8
0
 10
9.999999999999998
 20
-0.4999999999999998
 30
23.29882212456581
 70
   192
  0
VERTEX
  5
22B
  8
0
 10
136.05
 20
-0.4999999999999998
 30
23.29882212456581
 70
   192
  0
VERTEX
  5
22C
  8
0
 10
26.49359848919327
 20
3.340000000000008
 30
23.29882212456581
 70
   192
  0
VERTEX
  5
22D
  8
0
 10
28.53291427061517
 20
34.0044450422656
 30
23.29882212456581
 70
   192
  0
VERTEX
  5
22E
  8
0
 10
49.42405104558237
 20
3.340000000000008
 30
23.29882212456581
 70
   192
  0
VERTEX
  5
22F
  8
0
 10
60.52692907775384
 20
3.340000000000008
 30
23.29882212456581
 70
   192
  0
VERTEX
  5
230
  8
0
 10
56.41359848919328
 20
30.30000000000001
 30
23.29882212456581
 70
   192
  0
VERTEX
  5
231
  8
0
 10
59.37359848919328
 20
18.30000000000001
 30
23.29882212456581
 70
   192
  0
VERTEX
  5
232
  8
0
 10
59.37359848919327
 20
30.30000000000001
 30
23.29882212456581
 70
   192
  0
VERTEX
  5
233
  8
0
 10
83.52692907775385
 20
3.340000000000008
 30
23.29882212456581
 70
   192
  0
VERTEX
  5
234
  8
0
 10
89.29359848919327
 20
3.340000000000008
 30
23.29882212456581
 70
   192
  0
VERTEX
  5
235
  8
0
 10
83.52692907775385
 20
15.34000000000001
 30
23.29882212456581
 70
   192
  0
VERTEX
  5
236
  8
0
 10
86.33359848919328
 20
18.30000000000001
 30
23.29882212456581
 70
   192
  0
VERTEX
  5
237
  8
0
 10
86.33359848919328
 20
30.30000000000001
 30
23.29882212456581
 70
   192
  0
VERTEX
  5
238
  8
0
 10
101.2935984891933
 20
3.340000000000008
 30
23.29882212456581
 70
   192
  0
VERTEX
  5
239
  8
0
 10
104.2535984891933
 20
3.440000000000005
 30
23.29882212456581
 70
   192
  0
VERTEX
  5
23A
  8
0
 10
101.2935984891933
 20
15.34000000000001
 30
23.29882212456581
 70
   192
  0
VERTEX
  5
23B
  8
0
 10
101.2935984891933
 20
18.30000000000001
 30
23.29882212456581
 70
   192
  0
VERTEX
  5
23C
  8
0
 10
101.2935984891933
 20
30.3
 30
23.29882212456581
 70
   192
  0
VERTEX
  5
23D
  8
0
 10
116.1535984891933
 20
3.440000000000005
 30
23.29882212456581
 70
   192
  0
VERTEX
  5
23E
  8
0
 10
120.8115397359717
 20
3.340000000000008
 30
23.29882212456581
 70
   192
  0
VERTEX
  5
23F
  8
0
 10
116.1535984891933
 20
15.34000000000001
 30
23.29882212456581
 70
   192
  0
VERTEX
  5
240
  8
0
 10
116.2535984891933
 20
18.30000000000001
 30
23.29882212456581
 70
   192
  0
VERTEX
  5
241
  8
0
 10
116.2535984891933
 20
30.30000000000001
 30
23.29882212456581
 70
   192
  0
VERTEX
  5
242
  8
0
 10
132.8115397359717
 20
3.340000000000008
 30
23.29882212456581
 70
   192
  0
VERTEX
  5
243
  8
0
 10
132.8117167034338
 20
30.30000000000001
 30
23.29882212456581
 70
   192
  0
VERTEX
  5
244
  8
0
 10
136.2203708685547
 20
6.294095225512601
 30
23.29882212456581
 70
   192
  0
VERTEX
  5
245
  8
0
 10
136.1775376066101
 20
24.41650162438356
 30
23.29882212456581
 70
   192
  0
VERTEX
  5
246
  8
0
 10
136.05
 20
5.0
 30
23.29882212456581
 70
   192
  0
VERTEX
  5
247
  8
0
 10
136.2459140984589
 20
24.06412735644261
 30
23.29882212456581
 70
   192
  0
VERTEX
  5
248
  8
0
 10
136.7198729810778
 20
7.499999999999997
 30
23.29882212456581
 70
   192
  0
VERTEX
  5
249
  8
0
 10
136.4031618893938
 20
23.7414570888465
 30
23.29882212456581
 70
   192
  0
VERTEX
  5
24A
  8
0
 10
136.638564802327
 20
23.47048026709406
 30
23.29882212456581
 70
   192
  0
VERTEX
  5
24B
  8
0
 10
136.9360805177637
 20
23.26966351377737
 30
23.29882212456581
 70
   192
  0
VERTEX
  5
24C
  8
0
 10
137.5144660940672
 20
8.535533905932738
 30
23.29882212456581
 70
   192
  0
VERTEX
  5
24D
  8
0
 10
137.2754338313648
 20
23.15269215876957
 30
23.29882212456581
 70
   192
  0
VERTEX
  5
24E
  8
0
 10
137.6334983756165
 20
23.12753760661014
 30
23.29882212456581
 70
   192
  0
VERTEX
  5
24F
  8
0
 10
138.55
 20
9.330127018922193
 30
23.29882212456581
 70
   192
  0
VERTEX
  5
250
  8
0
 10
137.9858726435574
 20
23.19591409845889
 30
23.29882212456581
 70
   192
  0
VERTEX
  5
251
  8
0
 10
138.3085429111535
 20
23.35316188939381
 30
23.29882212456581
 70
   192
  0
VERTEX
  5
252
  8
0
 10
138.5795197329059
 20
23.58856480232696
 30
23.29882212456581
 70
   192
  0
VERTEX
  5
253
  8
0
 10
139.7559047744874
 20
9.82962913144534
 30
23.29882212456581
 70
   192
  0
VERTEX
  5
254
  8
0
 10
138.7803364862226
 20
23.88608051776364
 30
23.29882212456581
 70
   192
  0
VERTEX
  5
255
  8
0
 10
138.8973078412305
 20
24.22543383136482
 30
23.29882212456581
 70
   192
  0
VERTEX
  5
256
  8
0
 10
138.9224623933899
 20
24.58349837561644
 30
23.29882212456581
 70
   192
  0
VERTEX
  5
257
  8
0
 10
29.45359848919327
 20
30.30000000000001
 30
23.29882212456581
 70
   192
  0
VERTEX
  5
258
  8
0
 10
29.98000000000004
 20
34.60384757729338
 30
23.29882212456581
 70
   192
  0
VERTEX
  5
259
  8
0
 10
31.22264068711933
 20
35.55735931288073
 30
23.29882212456581
 70
   192
  0
VERTEX
  5
25A
  8
0
 10
32.17615242270666
 20
36.80000000000003
 30
23.29882212456581
 70
   192
  0
VERTEX
  5
25B
  8
0
 10
32.77555495773444
 20
38.2470857293849
 30
23.29882212456581
 70
   192
  0
VERTEX
  5
25C
  8
0
 10
32.98000000000003
 20
39.80000000000003
 30
23.29882212456581
 70
   192
  0
VERTEX
  5
25D
  8
0
 10
49.77
 20
33.7
 30
23.29882212456581
 70
   192
  0
VERTEX
  5
25E
  8
0
 10
44.41359848919328
 20
30.30000000000001
 30
23.29882212456581
 70
   192
  0
VERTEX
  5
25F
  8
0
 10
55.08000000000003
 20
33.7
 30
23.29882212456581
 70
   192
  0
VERTEX
  5
260
  8
0
 10
67.08000000000003
 20
33.7
 30
23.29882212456581
 70
   192
  0
VERTEX
  5
261
  8
0
 10
71.37359848919327
 20
30.30000000000001
 30
23.29882212456581
 70
   192
  0
VERTEX
  5
262
  8
0
 10
70.04000000000002
 20
33.7
 30
23.29882212456581
 70
   192
  0
VERTEX
  5
263
  8
0
 10
67.08000000000003
 20
45.8
 30
23.29882212456581
 70
   192
  0
VERTEX
  5
264
  8
0
 10
67.08000000000003
 20
48.6
 30
23.29882212456581
 70
   192
  0
VERTEX
  5
265
  8
0
 10
67.08000000000003
 20
60.6
 30
23.29882212456581
 70
   192
  0
VERTEX
  5
266
  8
0
 10
67.08000000000003
 20
63.4
 30
23.29882212456581
 70
   192
  0
VERTEX
  5
267
  8
0
 10
67.08000000000003
 20
75.39999999999999
 30
23.29882212456581
 70
   192
  0
VERTEX
  5
268
  8
0
 10
67.08000000000003
 20
78.2
 30
23.29882212456581
 70
   192
  0
VERTEX
  5
269
  8
0
 10
67.08000000000003
 20
90.20000000000002
 30
23.29882212456581
 70
   192
  0
VERTEX
  5
26A
  8
0
 10
81.94000000000003
 20
33.7
 30
23.29882212456581
 70
   192
  0
VERTEX
  5
26B
  8
0
 10
74.33359848919328
 20
30.30000000000001
 30
23.29882212456581
 70
   192
  0
VERTEX
  5
26C
  8
0
 10
74.33359848919328
 20
18.30000000000001
 30
23.29882212456581
 70
   192
  0
VERTEX
  5
26D
  8
0
 10
85.00000000000003
 20
33.7
 30
23.29882212456581
 70
   192
  0
VERTEX
  5
26E
  8
0
 10
81.94000000000003
 20
45.8
 30
23.29882212456581
 70
   192
  0
VERTEX
  5
26F
  8
0
 10
82.04000000000002
 20
48.6
 30
23.29882212456581
 70
   192
  0
VERTEX
  5
270
  8
0
 10
82.04000000000002
 20
60.6
 30
23.29882212456581
 70
   192
  0
VERTEX
  5
271
  8
0
 10
82.24000000000002
 20
63.4
 30
23.29882212456581
 70
   192
  0
VERTEX
  5
272
  8
0
 10
97.00000000000003
 20
33.7
 30
23.29882212456581
 70
   192
  0
VERTEX
  5
273
  8
0
 10
89.29359848919327
 20
30.3
 30
23.29882212456581
 70
   192
  0
VERTEX
  5
274
  8
0
 10
89.29359848919327
 20
15.34000000000001
 30
23.29882212456581
 70
   192
  0
VERTEX
  5
275
  8
0
 10
89.29359848919327
 20
18.30000000000001
 30
23.29882212456581
 70
   192
  0
VERTEX
  5
276
  8
0
 10
99.96000000000002
 20
33.7
 30
23.29882212456581
 70
   192
  0
VERTEX
  5
277
  8
0
 10
97.00000000000003
 20
45.8
 30
23.29882212456581
 70
   192
  0
VERTEX
  5
278
  8
0
 10
97.00000000000003
 20
48.6
 30
23.29882212456581
 70
   192
  0
VERTEX
  5
279
  8
0
 10
97.00000000000003
 20
60.6
 30
23.29882212456581
 70
   192
  0
VERTEX
  5
27A
  8
0
 10
97.00000000000003
 20
63.4
 30
23.29882212456581
 70
   192
  0
VERTEX
  5
27B
  8
0
 10
97.00000000000003
 20
75.39999999999999
 30
23.29882212456581
 70
   192
  0
VERTEX
  5
27C
  8
0
 10
97.00000000000003
 20
78.2
 30
23.29882212456581
 70
   192
  0
VERTEX
  5
27D
  8
0
 10
97.00000000000003
 20
90.2
 30
23.29882212456581
 70
   192
  0
VERTEX
  5
27E
  8
0
 10
111.96
 20
33.7
 30
23.29882212456581
 70
   192
  0
VERTEX
  5
27F
  8
0
 10
104.2535984891933
 20
30.30000000000001
 30
23.29882212456581
 70
   192
  0
VERTEX
  5
280
  8
0
 10
104.2535984891933
 20
15.34000000000001
 30
23.29882212456581
 70
   192
  0
VERTEX
  5
281
  8
0
 10
104.2535984891933
 20
18.30000000000001
 30
23.29882212456581
 70
   192
  0
VERTEX
  5
282
  8
0
 10
114.92
 20
33.7
 30
23.29882212456581
 70
   192
  0
VERTEX
  5
283
  8
0
 10
111.96
 20
45.8
 30
23.29882212456581
 70
   192
  0
VERTEX
  5
284
  8
0
 10
111.96
 20
48.6
 30
23.29882212456581
 70
   192
  0
VERTEX
  5
285
  8
0
 10
111.96
 20
60.6
 30
23.29882212456581
 70
   192
  0
VERTEX
  5
286
  8
0
 10
111.96
 20
63.4
 30
23.29882212456581
 70
   192
  0
VERTEX
  5
287
  8
0
 10
111.96
 20
75.39999999999999
 30
23.29882212456581
 70
   192
  0
VERTEX
  5
288
  8
0
 10
111.96
 20
78.2
 30
23.29882212456581
 70
   192
  0
VERTEX
  5
289
  8
0
 10
111.96
 20
90.2
 30
23.29882212456581
 70
   192
  0
VERTEX
  5
28A
  8
0
 10
126.92
 20
33.7
 30
23.29882212456581
 70
   192
  0
VERTEX
  5
28B
  8
0
 10
120.8115397359717
 20
30.30000000000001
 30
23.29882212456581
 70
   192
  0
VERTEX
  5
28C
  8
0
 10
129.88
 20
33.72000000000001
 30
23.29882212456581
 70
   192
  0
VERTEX
  5
28D
  8
0
 10
126.92
 20
45.8
 30
23.29882212456581
 70
   192
  0
VERTEX
  5
28E
  8
0
 10
126.92
 20
48.6
 30
23.29882212456581
 70
   192
  0
VERTEX
  5
28F
  8
0
 10
126.92
 20
60.6
 30
23.29882212456581
 70
   192
  0
VERTEX
  5
290
  8
0
 10
126.92
 20
63.4
 30
23.29882212456581
 70
   192
  0
VERTEX
  5
291
  8
0
 10
126.92
 20
75.39999999999999
 30
23.29882212456581
 70
   192
  0
VERTEX
  5
292
  8
0
 10
126.92
 20
78.2
 30
23.29882212456581
 70
   192
  0
VERTEX
  5
293
  8
0
 10
126.92
 20
90.2
 30
23.29882212456581
 70
   192
  0
VERTEX
  5
294
  8
0
 10
141.88
 20
33.72000000000001
 30
23.29882212456581
 70
   192
  0
VERTEX
  5
295
  8
0
 10
136.3196635137774
 20
25.11391948223635
 30
23.29882212456581
 70
   192
  0
VERTEX
  5
296
  8
0
 10
136.2026921587696
 20
24.77456616863518
 30
23.29882212456581
 70
   192
  0
VERTEX
  5
297
  8
0
 10
136.5204802670941
 20
25.41143519767304
 30
23.29882212456581
 70
   192
  0
VERTEX
  5
298
  8
0
 10
136.7914570888465
 20
25.64683811060619
 30
23.29882212456581
 70
   192
  0
VERTEX
  5
299
  8
0
 10
137.1141273564426
 20
25.80408590154111
 30
23.29882212456581
 70
   192
  0
VERTEX
  5
29A
  8
0
 10
137.4665016243836
 20
25.87246239338986
 30
23.29882212456581
 70
   192
  0
VERTEX
  5
29B
  8
0
 10
137.8245661686352
 20
25.84730784123043
 30
23.29882212456581
 70
   192
  0
VERTEX
  5
29C
  8
0
 10
138.1639194822364
 20
25.73033648622263
 30
23.29882212456581
 70
   192
  0
VERTEX
  5
29D
  8
0
 10
138.461435197673
 20
25.52951973290593
 30
23.29882212456581
 70
   192
  0
VERTEX
  5
29E
  8
0
 10
138.6968381106062
 20
25.2585429111535
 30
23.29882212456581
 70
   192
  0
VERTEX
  5
29F
  8
0
 10
138.8540859015411
 20
24.93587264355739
 30
23.29882212456581
 70
   192
  0
VERTEX
  5
2A0
  8
0
 10
141.05
 20
10.0
 30
23.29882212456581
 70
   192
  0
VERTEX
  5
2A1
  8
0
 10
146.55
 20
10.0
 30
23.29882212456581
 70
   192
  0
VERTEX
  5
2A2
  8
0
 10
141.88
 20
45.8
 30
23.29882212456581
 70
   192
  0
VERTEX
  5
2A3
  8
0
 10
141.88
 20
48.6
 30
23.29882212456581
 70
   192
  0
VERTEX
  5
2A4
  8
0
 10
141.88
 20
60.6
 30
23.29882212456581
 70
   192
  0
VERTEX
  5
2A5
  8
0
 10
141.88
 20
63.4
 30
23.29882212456581
 70
   192
  0
VERTEX
  5
2A6
  8
0
 10
141.88
 20
75.39999999999999
 30
23.29882212456581
 70
   192
  0
VERTEX
  5
2A7
  8
0
 10
141.88
 20
78.2
 30
23.29882212456581
 70
   192
  0
VERTEX
  5
2A8
  8
0
 10
141.88
 20
90.2
 30
23.29882212456581
 70
   192
  0
VERTEX
  5
2A9
  8
0
 10
46.74721089438729
 20
89.39615242270665
 30
23.29882212456581
 70
   192
  0
VERTEX
  5
2AA
  8
0
 10
46.0
 20
93.0
 30
23.29882212456581
 70
   192
  0
VERTEX
  5
2AB
  8
0
 10
45.30012516500241
 20
89.99555495773443
 30
23.29882212456581
 70
   192
  0
VERTEX
  5
2AC
  8
0
 10
57.99999999999999
 20
93.0
 30
23.29882212456581
 70
   192
  0
VERTEX
  5
2AD
  8
0
 10
47.98985158150658
 20
88.4426406871193
 30
23.29882212456581
 70
   192
  0
VERTEX
  5
2AE
  8
0
 10
48.94336331709392
 20
87.2
 30
23.29882212456581
 70
   192
  0
VERTEX
  5
2AF
  8
0
 10
49.5427658521217
 20
85.75291427061514
 30
23.29882212456581
 70
   192
  0
VERTEX
  5
2B0
  8
0
 10
55.08000000000003
 20
90.20000000000002
 30
23.29882212456581
 70
   192
  0
VERTEX
  5
2B1
  8
0
 10
55.08000000000003
 20
45.8
 30
23.29882212456581
 70
   192
  0
VERTEX
  5
2B2
  8
0
 10
55.08000000000003
 20
48.6
 30
23.29882212456581
 70
   192
  0
VERTEX
  5
2B3
  8
0
 10
55.08000000000003
 20
60.6
 30
23.29882212456581
 70
   192
  0
VERTEX
  5
2B4
  8
0
 10
55.08000000000003
 20
63.4
 30
23.29882212456581
 70
   192
  0
VERTEX
  5
2B5
  8
0
 10
55.08000000000003
 20
75.39999999999999
 30
23.29882212456581
 70
   192
  0
VERTEX
  5
2B6
  8
0
 10
55.08000000000003
 20
78.2
 30
23.29882212456581
 70
   192
  0
VERTEX
  5
2B7
  8
0
 10
62.0
 20
93.00000000000001
 30
23.29882212456581
 70
   192
  0
VERTEX
  5
2B8
  8
0
 10
57.99999999999999
 20
105.0
 30
23.29882212456581
 70
   192
  0
VERTEX
  5
2B9
  8
0
 10
74.0
 20
93.00000000000001
 30
23.29882212456581
 70
   192
  0
VERTEX
  5
2BA
  8
0
 10
70.04000000000002
 20
90.2
 30
23.29882212456581
 70
   192
  0
VERTEX
  5
2BB
  8
0
 10
70.04000000000002
 20
45.8
 30
23.29882212456581
 70
   192
  0
VERTEX
  5
2BC
  8
0
 10
70.04000000000002
 20
48.6
 30
23.29882212456581
 70
   192
  0
VERTEX
  5
2BD
  8
0
 10
70.04000000000002
 20
60.6
 30
23.29882212456581
 70
   192
  0
VERTEX
  5
2BE
  8
0
 10
70.04000000000002
 20
63.4
 30
23.29882212456581
 70
   192
  0
VERTEX
  5
2BF
  8
0
 10
77.99999999999999
 20
93.00000000000001
 30
23.29882212456581
 70
   192
  0
VERTEX
  5
2C0
  8
0
 10
74.0
 20
105.0
 30
23.29882212456581
 70
   192
  0
VERTEX
  5
2C1
  8
0
 10
90.0
 20
93.00000000000001
 30
23.29882212456581
 70
   192
  0
VERTEX
  5
2C2
  8
0
 10
85.00000000000003
 20
90.2
 30
23.29882212456581
 70
   192
  0
VERTEX
  5
2C3
  8
0
 10
85.00000000000003
 20
45.8
 30
23.29882212456581
 70
   192
  0
VERTEX
  5
2C4
  8
0
 10
85.00000000000003
 20
48.6
 30
23.29882212456581
 70
   192
  0
VERTEX
  5
2C5
  8
0
 10
85.00000000000003
 20
60.6
 30
23.29882212456581
 70
   192
  0
VERTEX
  5
2C6
  8
0
 10
85.00000000000003
 20
63.4
 30
23.29882212456581
 70
   192
  0
VERTEX
  5
2C7
  8
0
 10
85.00000000000003
 20
75.39999999999999
 30
23.29882212456581
 70
   192
  0
VERTEX
  5
2C8
  8
0
 10
85.00000000000003
 20
78.2
 30
23.29882212456581
 70
   192
  0
VERTEX
  5
2C9
  8
0
 10
93.99999999999999
 20
93.00000000000001
 30
23.29882212456581
 70
   192
  0
VERTEX
  5
2CA
  8
0
 10
90.0
 20
105.0
 30
23.29882212456581
 70
   192
  0
VERTEX
  5
2CB
  8
0
 10
106.0
 20
93.00000000000001
 30
23.29882212456581
 70
   192
  0
VERTEX
  5
2CC
  8
0
 10
99.96000000000002
 20
90.2
 30
23.29882212456581
 70
   192
  0
VERTEX
  5
2CD
  8
0
 10
99.96000000000002
 20
45.8
 30
23.29882212456581
 70
   192
  0
VERTEX
  5
2CE
  8
0
 10
99.96000000000002
 20
48.6
 30
23.29882212456581
 70
   192
  0
VERTEX
  5
2CF
  8
0
 10
99.96000000000002
 20
60.6
 30
23.29882212456581
 70
   192
  0
VERTEX
  5
2D0
  8
0
 10
99.96000000000002
 20
63.4
 30
23.29882212456581
 70
   192
  0
VERTEX
  5
2D1
  8
0
 10
99.96000000000002
 20
75.39999999999999
 30
23.29882212456581
 70
   192
  0
VERTEX
  5
2D2
  8
0
 10
99.96000000000002
 20
78.2
 30
23.29882212456581
 70
   192
  0
VERTEX
  5
2D3
  8
0
 10
108.7393468449602
 20
93.00000000000001
 30
23.29882212456581
 70
   192
  0
VERTEX
  5
2D4
  8
0
 10
106.0
 20
105.0
 30
23.29882212456581
 70
   192
  0
VERTEX
  5
2D5
  8
0
 10
132.2393468449602
 20
93.00000000000001
 30
23.29882212456581
 70
   192
  0
VERTEX
  5
2D6
  8
0
 10
114.92
 20
90.2
 30
23.29882212456581
 70
   192
  0
VERTEX
  5
2D7
  8
0
 10
114.92
 20
45.8
 30
23.29882212456581
 70
   192
  0
VERTEX
  5
2D8
  8
0
 10
114.92
 20
48.6
 30
23.29882212456581
 70
   192
  0
VERTEX
  5
2D9
  8
0
 10
114.92
 20
60.6
 30
23.29882212456581
 70
   192
  0
VERTEX
  5
2DA
  8
0
 10
114.92
 20
63.4
 30
23.29882212456581
 70
   192
  0
VERTEX
  5
2DB
  8
0
 10
114.92
 20
75.39999999999999
 30
23.29882212456581
 70
   192
  0
VERTEX
  5
2DC
  8
0
 10
114.92
 20
78.2
 30
23.29882212456581
 70
   192
  0
VERTEX
  5
2DD
  8
0
 10
129.88
 20
90.2
 30
23.29882212456581
 70
   192
  0
VERTEX
  5
2DE
  8
0
 10
129.88
 20
45.8
 30
23.29882212456581
 70
   192
  0
VERTEX
  5
2DF
  8
0
 10
129.88
 20
48.6
 30
23.29882212456581
 70
   192
  0
VERTEX
  5
2E0
  8
0
 10
129.88
 20
60.6
 30
23.29882212456581
 70
   192
  0
VERTEX
  5
2E1
  8
0
 10
129.88
 20
63.4
 30
23.29882212456581
 70
   192
  0
VERTEX
  5
2E2
  8
0
 10
129.88
 20
75.39999999999999
 30
23.29882212456581
 70
   192
  0
VERTEX
  5
2E3
  8
0
 10
129.88
 20
78.2
 30
23.29882212456581
 70
   192
  0
VERTEX
  5
2E4
  8
0
 10
132.2393468449602
 20
105.0
 30
23.29882212456581
 70
   192
  0
VERTEX
  5
2E5
  8
0
 10
132.55
 20
123.5
 30
23.29882212456581
 70
   192
  0
VERTEX
  5
2E6
  8
0
 10
132.55
 20
131.5
 30
23.29882212456581
 70
   192
  0
VERTEX
  5
2E7
  8
0
 10
132.55
 20
135.6
 30
23.29882212456581
 70
   192
  0
VERTEX
  5
2E8
  8
0
 10
132.55
 20
143.6
 30
23.29882212456581
 70
   192
  0
VERTEX
  5
2E9
  8
0
 10
132.55
 20
147.7
 30
23.29882212456581
 70
   192
  0
VERTEX
  5
2EA
  8
0
 10
132.55
 20
155.7
 30
23.29882212456581
 70
   192
  0
VERTEX
  5
2EB
  8
0
 10
132.55
 20
159.8
 30
23.29882212456581
 70
   192
  0
VERTEX
  5
2EC
  8
0
 10
132.55
 20
167.8
 30
23.29882212456581
 70
   192
  0
VERTEX
  5
2ED
  8
0
 10
136.05
 20
176.0
 30
23.29882212456581
 70
   192
  0
VERTEX
  5
2EE
  8
0
 10
136.2203708685547
 20
174.7059047744874
 30
23.29882212456581
 70
   192
  0
VERTEX
  5
2EF
  8
0
 10
136.7198729810778
 20
173.5
 30
23.29882212456581
 70
   192
  0
VERTEX
  5
2F0
  8
0
 10
137.5144660940673
 20
172.4644660940673
 30
23.29882212456581
 70
   192
  0
VERTEX
  5
2F1
  8
0
 10
138.55
 20
171.6698729810778
 30
23.29882212456581
 70
   192
  0
VERTEX
  5
2F2
  8
0
 10
139.7559047744874
 20
171.1703708685547
 30
23.29882212456581
 70
   192
  0
VERTEX
  5
2F3
  8
0
 10
141.05
 20
171.0
 30
23.29882212456581
 70
   192
  0
VERTEX
  5
2F4
  8
0
 10
146.55
 20
171.0
 30
23.29882212456581
 70
   192
  0
VERTEX
  5
2F5
  8
0
 10
4.999999999999999
 20
171.0
 30
23.29882212456581
 70
   192
  0
VERTEX
  5
2F6
  8
0
 10
4.376938489547191
 20
85.75291427061512
 30
23.29882212456581
 70
   192
  0
VERTEX
  5
2F7
  8
0
 10
4.976341024574965
 20
87.19999999999999
 30
23.29882212456581
 70
   192
  0
VERTEX
  5
2F8
  8
0
 10
5.929852760162307
 20
88.44264068711928
 30
23.29882212456581
 70
   192
  0
VERTEX
  5
2F9
  8
0
 10
6.294095225512605
 20
171.1703708685547
 30
23.29882212456581
 70
   192
  0
VERTEX
  5
2FA
  8
0
 10
7.17249344728159
 20
89.39615242270662
 30
23.29882212456581
 70
   192
  0
VERTEX
  5
2FB
  8
0
 10
7.499999999999997
 20
171.6698729810778
 30
23.29882212456581
 70
   192
  0
VERTEX
  5
2FC
  8
0
 10
8.619579176666464
 20
89.99555495773441
 30
23.29882212456581
 70
   192
  0
VERTEX
  5
2FD
  8
0
 10
8.535533905932732
 20
172.4644660940673
 30
23.29882212456581
 70
   192
  0
VERTEX
  5
2FE
  8
0
 10
9.330127018922187
 20
173.5
 30
23.29882212456581
 70
   192
  0
VERTEX
  5
2FF
  8
0
 10
10.17249344728159
 20
90.2
 30
23.29882212456581
 70
   192
  0
VERTEX
  5
300
  8
0
 10
9.829629131445333
 20
174.7059047744874
 30
23.29882212456581
 70
   192
  0
VERTEX
  5
301
  8
0
 10
9.99999999999999
 20
176.0
 30
23.29882212456581
 70
   192
  0
VERTEX
  5
302
  8
0
 10
9.999999999999998
 20
181.5
 30
23.29882212456581
 70
   192
  0
VERTEX
  5
303
  8
0
 10
14.0
 20
167.8
 30
23.29882212456581
 70
   192
  0
VERTEX
  5
304
  8
0
 10
34.52500000000001
 20
175.9889037387594
 30
23.29882212456581
 70
   192
  0
VERTEX
  5
305
  8
0
 10
136.05
 20
181.5
 30
23.29882212456581
 70
   192
  0
VERTEX
  5
306
  8
0
 10
11.72540771789672
 20
89.99555495773443
 30
23.29882212456581
 70
   192
  0
VERTEX
  5
307
  8
0
 10
26.17185198885253
 20
116.855876187016
 30
23.29882212456582
 70
   192
  0
VERTEX
  5
308
  8
0
 10
26.3092150697964
 20
117.1875
 30
23.29882212456582
 70
   192
  0
VERTEX
  5
309
  8
0
 10
26.5277281758685
 20
117.4722718241315
 30
23.29882212456582
 70
   192
  0
VERTEX
  5
30A
  8
0
 10
26.8125
 20
117.6907849302036
 30
23.29882212456582
 70
   192
  0
VERTEX
  5
30B
  8
0
 10
27.14412381298403
 20
117.8281480111474
 30
23.29882212456582
 70
   192
  0
VERTEX
  5
30C
  8
0
 10
27.5
 20
117.875
 30
23.29882212456582
 70
   192
  0
VERTEX
  5
30D
  8
0
 10
27.85587618701597
 20
117.8281480111474
 30
23.29882212456582
 70
   192
  0
VERTEX
  5
30E
  8
0
 10
28.1875
 20
117.6907849302036
 30
23.29882212456582
 70
   192
  0
VERTEX
  5
30F
  8
0
 10
28.4722718241315
 20
117.4722718241315
 30
23.29882212456582
 70
   192
  0
VERTEX
  5
310
  8
0
 10
28.6907849302036
 20
117.1875
 30
23.29882212456582
 70
   192
  0
VERTEX
  5
311
  8
0
 10
28.82814801114747
 20
116.855876187016
 30
23.29882212456582
 70
   192
  0
VERTEX
  5
312
  8
0
 10
30.0
 20
105.0
 30
23.29882212456581
 70
   192
  0
VERTEX
  5
313
  8
0
 10
34.52500000000001
 20
112.0
 30
23.29882212456581
 70
   192
  0
VERTEX
  5
314
  8
0
 10
111.5249999999999
 20
175.9889037387594
 30
23.29882212456581
 70
   192
  0
VERTEX
  5
315
  8
0
 10
121.55
 20
167.8
 30
23.29882212456581
 70
   192
  0
VERTEX
  5
316
  8
0
 10
117.175
 20
116.5
 30
23.29882212456581
 70
   192
  0
VERTEX
  5
317
  8
0
 10
117.2218519888526
 20
116.855876187016
 30
23.29882212456581
 70
   192
  0
VERTEX
  5
318
  8
0
 10
117.3592150697964
 20
117.1875
 30
23.29882212456581
 70
   192
  0
VERTEX
  5
319
  8
0
 10
117.5777281758685
 20
117.4722718241315
 30
23.29882212456581
 70
   192
  0
VERTEX
  5
31A
  8
0
 10
117.8625
 20
117.6907849302036
 30
23.29882212456581
 70
   192
  0
VERTEX
  5
31B
  8
0
 10
118.1941238129841
 20
117.8281480111474
 30
23.29882212456581
 70
   192
  0
VERTEX
  5
31C
  8
0
 10
118.55
 20
117.875
 30
23.29882212456581
 70
   192
  0
VERTEX
  5
31D
  8
0
 10
118.905876187016
 20
117.8281480111474
 30
23.29882212456581
 70
   192
  0
VERTEX
  5
31E
  8
0
 10
119.2375
 20
117.6907849302036
 30
23.29882212456581
 70
   192
  0
VERTEX
  5
31F
  8
0
 10
119.5222718241315
 20
117.4722718241315
 30
23.29882212456581
 70
   192
  0
VERTEX
  5
320
  8
0
 10
119.7407849302036
 20
117.1875
 30
23.29882212456581
 70
   192
  0
VERTEX
  5
321
  8
0
 10
119.8781480111475
 20
116.855876187016
 30
23.29882212456581
 70
   192
  0
VERTEX
  5
322
  8
0
 10
119.925
 20
116.5
 30
23.29882212456581
 70
   192
  0
VERTEX
  5
323
  8
0
 10
121.55
 20
123.5
 30
23.29882212456581
 70
   192
  0
VERTEX
  5
324
  8
0
 10
121.55
 20
131.5
 30
23.29882212456581
 70
   192
  0
VERTEX
  5
325
  8
0
 10
121.55
 20
135.6
 30
23.29882212456581
 70
   192
  0
VERTEX
  5
326
  8
0
 10
121.55
 20
143.6
 30
23.29882212456581
 70
   192
  0
VERTEX
  5
327
  8
0
 10
121.55
 20
147.7
 30
23.29882212456581
 70
   192
  0
VERTEX
  5
328
  8
0
 10
121.55
 20
155.7
 30
23.29882212456581
 70
   192
  0
VERTEX
  5
329
  8
0
 10
121.55
 20
159.8
 30
23.29882212456581
 70
   192
  0
VERTEX
  5
32A
  8
0
 10
111.5249999999999
 20
112.0
 30
23.29882212456581
 70
   192
  0
VERTEX
  5
32B
  8
0
 10
46.0
 20
105.0
 30
23.29882212456581
 70
   192
  0
VERTEX
  5
32C
  8
0
 10
43.74721089438729
 20
90.20000000000002
 30
23.29882212456581
 70
   192
  0
VERTEX
  5
32D
  8
0
 10
62.0
 20
105.0
 30
23.29882212456581
 70
   192
  0
VERTEX
  5
32E
  8
0
 10
77.99999999999999
 20
105.0
 30
23.29882212456581
 70
   192
  0
VERTEX
  5
32F
  8
0
 10
93.99999999999999
 20
105.0
 30
23.29882212456581
 70
   192
  0
VERTEX
  5
330
  8
0
 10
108.7393468449602
 20
105.0
 30
23.29882212456581
 70
   192
  0
VERTEX
  5
331
  8
0
 10
117.8625
 20
115.3092150697964
 30
23.29882212456581
 70
   192
  0
VERTEX
  5
332
  8
0
 10
117.5777281758685
 20
115.5277281758685
 30
23.29882212456581
 70
   192
  0
VERTEX
  5
333
  8
0
 10
117.3592150697964
 20
115.8125
 30
23.29882212456581
 70
   192
  0
VERTEX
  5
334
  8
0
 10
117.2218519888526
 20
116.144123812984
 30
23.29882212456581
 70
   192
  0
VERTEX
  5
335
  8
0
 10
118.1941238129841
 20
115.1718519888525
 30
23.29882212456581
 70
   192
  0
VERTEX
  5
336
  8
0
 10
118.55
 20
115.125
 30
23.29882212456581
 70
   192
  0
VERTEX
  5
337
  8
0
 10
118.905876187016
 20
115.1718519888525
 30
23.29882212456581
 70
   192
  0
VERTEX
  5
338
  8
0
 10
119.2375
 20
115.3092150697964
 30
23.29882212456581
 70
   192
  0
VERTEX
  5
339
  8
0
 10
119.5222718241315
 20
115.5277281758685
 30
23.29882212456581
 70
   192
  0
VERTEX
  5
33A
  8
0
 10
119.7407849302036
 20
115.8125
 30
23.29882212456581
 70
   192
  0
VERTEX
  5
33B
  8
0
 10
119.8781480111475
 20
116.144123812984
 30
23.29882212456581
 70
   192
  0
VERTEX
  5
33C
  8
0
 10
60.52692907775384
 20
15.34000000000001
 30
23.29882212456581
 70
   192
  0
VERTEX
  5
33D
  8
0
 10
71.37359848919327
 20
18.30000000000001
 30
23.29882212456581
 70
   192
  0
VERTEX
  5
33E
  8
0
 10
20.98011979042688
 20
69.43791399177769
 30
23.29882212456581
 70
   192
  0
VERTEX
  5
33F
  8
0
 10
21.18444504226559
 20
56.15291427061511
 30
23.29882212456581
 70
   192
  0
VERTEX
  5
340
  8
0
 10
21.17474788778474
 20
67.88373883726454
 30
23.29882212456581
 70
   192
  0
VERTEX
  5
341
  8
0
 10
21.76499432295734
 20
66.43289437525178
 30
23.29882212456581
 70
   192
  0
VERTEX
  5
342
  8
0
 10
21.78384757729338
 20
57.59999999999999
 30
23.29882212456581
 70
   192
  0
VERTEX
  5
343
  8
0
 10
22.71063477681604
 20
65.18425325819172
 30
23.29882212456581
 70
   192
  0
VERTEX
  5
344
  8
0
 10
22.73735931288072
 20
58.84264068711927
 30
23.29882212456581
 70
   192
  0
VERTEX
  5
345
  8
0
 10
23.9472254151751
 20
64.222908314735
 30
23.29882212456581
 70
   192
  0
VERTEX
  5
346
  8
0
 10
23.98
 20
59.79615242270663
 30
23.29882212456581
 70
   192
  0
VERTEX
  5
347
  8
0
 10
25.39049462959301
 20
63.61437361408055
 30
23.29882212456581
 70
   192
  0
VERTEX
  5
348
  8
0
 10
25.42708572938488
 20
60.3955549577344
 30
23.29882212456581
 70
   192
  0
VERTEX
  5
349
  8
0
 10
26.94208600822234
 20
63.40011979042685
 30
23.29882212456581
 70
   192
  0
VERTEX
  5
34A
  8
0
 10
26.98
 20
60.59999999999999
 30
23.29882212456581
 70
   192
  0
VERTEX
  5
34B
  8
0
 10
28.49626116273549
 20
63.5947478877847
 30
23.29882212456581
 70
   192
  0
VERTEX
  5
34C
  8
0
 10
28.53291427061513
 20
60.3955549577344
 30
23.29882212456581
 70
   192
  0
VERTEX
  5
34D
  8
0
 10
29.94710562474825
 20
64.18499432295731
 30
23.29882212456581
 70
   192
  0
VERTEX
  5
34E
  8
0
 10
29.98
 20
59.79615242270663
 30
23.29882212456581
 70
   192
  0
VERTEX
  5
34F
  8
0
 10
31.19574674180831
 20
65.13063477681601
 30
23.29882212456581
 70
   192
  0
VERTEX
  5
350
  8
0
 10
31.22264068711929
 20
58.84264068711927
 30
23.29882212456581
 70
   192
  0
VERTEX
  5
351
  8
0
 10
32.15709168526503
 20
66.36722541517507
 30
23.29882212456581
 70
   192
  0
VERTEX
  5
352
  8
0
 10
32.17615242270664
 20
57.59999999999999
 30
23.29882212456581
 70
   192
  0
VERTEX
  5
353
  8
0
 10
32.76562638591947
 20
67.81049462959298
 30
23.29882212456581
 70
   192
  0
VERTEX
  5
354
  8
0
 10
32.77555495773441
 20
56.15291427061511
 30
23.29882212456581
 70
   192
  0
VERTEX
  5
355
  8
0
 10
32.97988020957317
 20
69.3620860082223
 30
23.29882212456581
 70
   192
  0
VERTEX
  5
356
  8
0
 10
32.98
 20
54.59999999999999
 30
23.29882212456581
 70
   192
  0
VERTEX
  5
357
  8
0
 10
21.18444504226559
 20
53.04708572938487
 30
23.29882212456581
 70
   192
  0
VERTEX
  5
358
  8
0
 10
21.18444504226561
 20
41.35291427061512
 30
23.29882212456581
 70
   192
  0
VERTEX
  5
359
  8
0
 10
21.78384757729338
 20
51.59999999999999
 30
23.29882212456581
 70
   192
  0
VERTEX
  5
35A
  8
0
 10
21.78384757729339
 20
42.79999999999999
 30
23.29882212456581
 70
   192
  0
VERTEX
  5
35B
  8
0
 10
22.73735931288072
 20
50.3573593128807
 30
23.29882212456581
 70
   192
  0
VERTEX
  5
35C
  8
0
 10
22.73735931288073
 20
44.04264068711928
 30
23.29882212456581
 70
   192
  0
VERTEX
  5
35D
  8
0
 10
23.98000000000001
 20
49.40384757729336
 30
23.29882212456581
 70
   192
  0
VERTEX
  5
35E
  8
0
 10
23.98000000000001
 20
44.99615242270663
 30
23.29882212456581
 70
   192
  0
VERTEX
  5
35F
  8
0
 10
25.42708572938488
 20
48.80444504226558
 30
23.29882212456581
 70
   192
  0
VERTEX
  5
360
  8
0
 10
25.42708572938488
 20
45.59555495773441
 30
23.29882212456581
 70
   192
  0
VERTEX
  5
361
  8
0
 10
26.98000000000001
 20
45.8
 30
23.29882212456581
 70
   192
  0
VERTEX
  5
362
  8
0
 10
26.98
 20
48.59999999999999
 30
23.29882212456581
 70
   192
  0
VERTEX
  5
363
  8
0
 10
28.53291427061513
 20
48.80444504226558
 30
23.29882212456581
 70
   192
  0
VERTEX
  5
364
  8
0
 10
28.53291427061513
 20
45.59555495773442
 30
23.29882212456581
 70
   192
  0
VERTEX
  5
365
  8
0
 10
29.98000000000001
 20
44.99615242270664
 30
23.29882212456581
 70
   192
  0
VERTEX
  5
366
  8
0
 10
29.98
 20
49.40384757729336
 30
23.29882212456581
 70
   192
  0
VERTEX
  5
367
  8
0
 10
31.22264068711929
 20
50.3573593128807
 30
23.29882212456581
 70
   192
  0
VERTEX
  5
368
  8
0
 10
31.2226406871193
 20
44.0426406871193
 30
23.29882212456581
 70
   192
  0
VERTEX
  5
369
  8
0
 10
32.17615242270664
 20
51.59999999999999
 30
23.29882212456581
 70
   192
  0
VERTEX
  5
36A
  8
0
 10
32.17615242270665
 20
42.80000000000003
 30
23.29882212456581
 70
   192
  0
VERTEX
  5
36B
  8
0
 10
32.77555495773441
 20
53.04708572938487
 30
23.29882212456581
 70
   192
  0
VERTEX
  5
36C
  8
0
 10
32.77555495773443
 20
41.35291427061515
 30
23.29882212456581
 70
   192
  0
VERTEX
  5
36D
  8
0
 10
21.18444504226562
 20
82.64708572938487
 30
23.29882212456581
 70
   192
  0
VERTEX
  5
36E
  8
0
 10
21.19437361408059
 20
70.98950537040702
 30
23.29882212456581
 70
   192
  0
VERTEX
  5
36F
  8
0
 10
21.7838475772934
 20
81.2
 30
23.29882212456581
 70
   192
  0
VERTEX
  5
370
  8
0
 10
21.80290831473502
 20
72.43277458482493
 30
23.29882212456581
 70
   192
  0
VERTEX
  5
371
  8
0
 10
22.73735931288075
 20
79.95735931288071
 30
23.29882212456581
 70
   192
  0
VERTEX
  5
372
  8
0
 10
22.76425325819175
 20
73.66936522318399
 30
23.29882212456581
 70
   192
  0
VERTEX
  5
373
  8
0
 10
23.98000000000004
 20
79.00384757729337
 30
23.29882212456581
 70
   192
  0
VERTEX
  5
374
  8
0
 10
24.0128943752518
 20
74.61500567704269
 30
23.29882212456581
 70
   192
  0
VERTEX
  5
375
  8
0
 10
25.42708572938491
 20
78.40444504226559
 30
23.29882212456581
 70
   192
  0
VERTEX
  5
376
  8
0
 10
25.46373883726457
 20
75.20525211221529
 30
23.29882212456581
 70
   192
  0
VERTEX
  5
377
  8
0
 10
26.98000000000004
 20
78.2
 30
23.29882212456581
 70
   192
  0
VERTEX
  5
378
  8
0
 10
27.01791399177771
 20
75.39988020957314
 30
23.29882212456581
 70
   192
  0
VERTEX
  5
379
  8
0
 10
28.53291427061516
 20
78.40444504226559
 30
23.29882212456581
 70
   192
  0
VERTEX
  5
37A
  8
0
 10
28.56950537040704
 20
75.18562638591945
 30
23.29882212456581
 70
   192
  0
VERTEX
  5
37B
  8
0
 10
29.98000000000004
 20
79.00384757729339
 30
23.29882212456581
 70
   192
  0
VERTEX
  5
37C
  8
0
 10
30.01277458482495
 20
74.577091685265
 30
23.29882212456581
 70
   192
  0
VERTEX
  5
37D
  8
0
 10
31.22264068711933
 20
79.95735931288073
 30
23.29882212456581
 70
   192
  0
VERTEX
  5
37E
  8
0
 10
31.24936522318401
 20
73.61574674180828
 30
23.29882212456581
 70
   192
  0
VERTEX
  5
37F
  8
0
 10
32.17615242270666
 20
81.2
 30
23.29882212456581
 70
   192
  0
VERTEX
  5
380
  8
0
 10
32.19500567704272
 20
72.36710562474822
 30
23.29882212456581
 70
   192
  0
VERTEX
  5
381
  8
0
 10
32.77555495773444
 20
82.64708572938488
 30
23.29882212456581
 70
   192
  0
VERTEX
  5
382
  8
0
 10
32.78525211221532
 20
70.91626116273545
 30
23.29882212456581
 70
   192
  0
VERTEX
  5
383
  8
0
 10
0.0
 20
0.0
 30
0.0
 70
   128
 71
    -1
 72
    -2
 73
     3
  0
VERTEX
  5
384
  8
0
 10
0.0
 20
0.0
 30
0.0
 70
   128
 71
    -2
 72
    -1
 73
     4
  0
VERTEX
  5
385
  8
0
 10
0.0
 20
0.0
 30
0.0
 70
   128
 71
    -4
 72
    -1
 73
     5
  0
VERTEX
  5
386
  8
0
 10
0.0
 20
0.0
 30
0.0
 70
   128
 71
    -5
 72
    -1
 73
    -6
  0
VERTEX
  5
387
  8
0
 10
0.0
 20
0.0
 30
0.0
 70
   128
 71
    -6
 72
    -1
 73
     7
  0
VERTEX
  5
388
  8
0
 10
0.0
 20
0.0
 30
0.0
 70
   128
 71
    -7
 72
    -1
 73
    -8
  0
VERTEX
  5
389
  8
0
 10
0.0
 20
0.0
 30
0.0
 70
   128
 71
    -8
 72
    -1
 73
     9
  0
VERTEX
  5
38A
  8
0
 10
0.0
 20
0.0
 30
0.0
 70
   128
 71
    -9
 72
    -1
 73
   -10
  0
VERTEX
  5
38B
  8
0
 10
0.0
 20
0.0
 30
0.0
 70
   128
 71
   -10
 72
    -1
 73
    11
  0
VERTEX
  5
38C
  8
0
 10
0.0
 20
0.0
 30
0.0
 70
   128
 71
   -12
 72
   -13
 73
    14
  0
VERTEX
  5
38D
  8
0
 10
0.0
 20
0.0
 30
0.0
 70
   128
 71
   -13
 72
   -12
 73
    15
  0
VERTEX
  5
38E
  8
0
 10
0.0
 20
0.0
 30
0.0
 70
   128
 71
   -15
 72
    12
 73
   -16
  0
VERTEX
  5
38F
  8
0
 10
0.0
 20
0.0
 30
0.0
 70
   128
 71
   -15
 72
    16
 73
   -17
  0
VERTEX
  5
390
  8
0
 10
0.0
 20
0.0
 30
0.0
 70
   128
 71
   -15
 72
    17
 73
   -18
  0
VERTEX
  5
391
  8
0
 10
0.0
 20
0.0
 30
0.0
 70
   128
 71
   -15
 72
   -18
 73
   -19
  0
VERTEX
  5
392
  8
0
 10
0.0
 20
0.0
 30
0.0
 70
   128
 71
   -19
 72
   -18
 73
    20
  0
VERTEX
  5
393
  8
0
 10
0.0
 20
0.0
 30
0.0
 70
   128
 71
   -20
 72
   -18
 73
    21
  0
VERTEX
  5
394
  8
0
 10
0.0
 20
0.0
 30
0.0
 70
   128
 71
   -21
 72
   -18
 73
   -22
  0
VERTEX
  5
395
  8
0
 10
0.0
 20
0.0
 30
0.0
 70
   128
 71
   -21
 72
   -22
 73
   -23
  0
VERTEX
  5
396
  8
0
 10
0.0
 20
0.0
 30
0.0
 70
   128
 71
   -15
 72
    19
 73
   -24
  0
VERTEX
  5
397
  8
0
 10
0.0
 20
0.0
 30
0.0
 70
   128
 71
   -15
 72
    24
 73
   -25
  0
VERTEX
  5
398
  8
0
 10
0.0
 20
0.0
 30
0.0
 70
   128
 71
   -15
 72
    25
 73
   -26
  0
VERTEX
  5
399
  8
0
 10
0.0
 20
0.0
 30
0.0
 70
   128
 71
   -15
 72
    26
 73
   -27
  0
VERTEX
  5
39A
  8
0
 10
0.0
 20
0.0
 30
0.0
 70
   128
 71
   -15
 72
   -27
 73
     1
  0
VERTEX
  5
39B
  8
0
 10
0.0
 20
0.0
 30
0.0
 70
   128
 71
    -1
 72
   -27
 73
   -28
  0
VERTEX
  5
39C
  8
0
 10
0.0
 20
0.0
 30
0.0
 70
   128
 71
   -28
 72
   -27
 73
    29
  0
VERTEX
  5
39D
  8
0
 10
0.0
 20
0.0
 30
0.0
 70
   128
 71
   -29
 72
   -27
 73
    30
  0
VERTEX
  5
39E
  8
0
 10
0.0
 20
0.0
 30
0.0
 70
   128
 71
   -30
 72
   -27
 73
    31
  0
VERTEX
  5
39F
  8
0
 10
0.0
 20
0.0
 30
0.0
 70
   128
 71
   -31
 72
   -27
 73
    32
  0
VERTEX
  5
3A0
  8
0
 10
0.0
 20
0.0
 30
0.0
 70
   128
 71
   -32
 72
   -27
 73
    33
  0
VERTEX
  5
3A1
  8
0
 10
0.0
 20
0.0
 30
0.0
 70
   128
 71
   -33
 72
    27
 73
   -34
  0
VERTEX
  5
3A2
  8
0
 10
0.0
 20
0.0
 30
0.0
 70
   128
 71
   -33
 72
   -34
 73
    35
  0
VERTEX
  5
3A3
  8
0
 10
0.0
 20
0.0
 30
0.0
 70
   128
 71
   -35
 72
   -34
 73
    36
  0
VERTEX
  5
3A4
  8
0
 10
0.0
 20
0.0
 30
0.0
 70
   128
 71
   -36
 72
   -34
 73
    37
  0
VERTEX
  5
3A5
  8
0
 10
0.0
 20
0.0
 30
0.0
 70
   128
 71
   -37
 72
   -34
 73
    38
  0
VERTEX
  5
3A6
  8
0
 10
0.0
 20
0.0
 30
0.0
 70
   128
 71
   -38
 72
   -34
 73
    39
  0
VERTEX
  5
3A7
  8
0
 10
0.0
 20
0.0
 30
0.0
 70
   128
 71
   -39
 72
    34
 73
   -40
  0
VERTEX
  5
3A8
  8
0
 10
0.0
 20
0.0
 30
0.0
 70
   128
 71
   -39
 72
   -40
 73
    41
  0
VERTEX
  5
3A9
  8
0
 10
0.0
 20
0.0
 30
0.0
 70
   128
 71
   -41
 72
   -40
 73
    42
  0
VERTEX
  5
3AA
  8
0
 10
0.0
 20
0.0
 30
0.0
 70
   128
 71
   -43
 72
   -44
 73
    45
  0
VERTEX
  5
3AB
  8
0
 10
0.0
 20
0.0
 30
0.0
 70
   128
 71
   -44
 72
    43
 73
   -46
  0
VERTEX
  5
3AC
  8
0
 10
0.0
 20
0.0
 30
0.0
 70
   128
 71
   -44
 72
   -46
 73
   -47
  0
VERTEX
  5
3AD
  8
0
 10
0.0
 20
0.0
 30
0.0
 70
   128
 71
   -44
 72
    47
 73
   -48
  0
VERTEX
  5
3AE
  8
0
 10
0.0
 20
0.0
 30
0.0
 70
   128
 71
   -44
 72
    48
 73
   -49
  0
VERTEX
  5
3AF
  8
0
 10
0.0
 20
0.0
 30
0.0
 70
   128
 71
   -44
 72
   -49
 73
    50
  0
VERTEX
  5
3B0
  8
0
 10
0.0
 20
0.0
 30
0.0
 70
   128
 71
   -47
 72
   -46
 73
    51
  0
VERTEX
  5
3B1
  8
0
 10
0.0
 20
0.0
 30
0.0
 70
   128
 71
   -51
 72
    46
 73
   -52
  0
VERTEX
  5
3B2
  8
0
 10
0.0
 20
0.0
 30
0.0
 70
   128
 71
   -50
 72
    49
 73
   -53
  0
VERTEX
  5
3B3
  8
0
 10
0.0
 20
0.0
 30
0.0
 70
   128
 71
   -50
 72
    53
 73
   -54
  0
VERTEX
  5
3B4
  8
0
 10
0.0
 20
0.0
 30
0.0
 70
   128
 71
   -50
 72
    54
 73
   -55
  0
VERTEX
  5
3B5
  8
0
 10
0.0
 20
0.0
 30
0.0
 70
   128
 71
   -50
 72
    55
 73
   -56
  0
VERTEX
  5
3B6
  8
0
 10
0.0
 20
0.0
 30
0.0
 70
   128
 71
   -50
 72
    56
 73
   -57
  0
VERTEX
  5
3B7
  8
0
 10
0.0
 20
0.0
 30
0.0
 70
   128
 71
   -50
 72
    57
 73
   -58
  0
VERTEX
  5
3B8
  8
0
 10
0.0
 20
0.0
 30
0.0
 70
   128
 71
   -50
 72
    58
 73
   -59
  0
VERTEX
  5
3B9
  8
0
 10
0.0
 20
0.0
 30
0.0
 70
   128
 71
   -50
 72
    59
 73
   -60
  0
VERTEX
  5
3BA
  8
0
 10
0.0
 20
0.0
 30
0.0
 70
   128
 71
   -50
 72
    60
 73
   -61
  0
VERTEX
  5
3BB
  8
0
 10
0.0
 20
0.0
 30
0.0
 70
   128
 71
   -50
 72
   -61
 73
   -62
  0
VERTEX
  5
3BC
  8
0
 10
0.0
 20
0.0
 30
0.0
 70
   128
 71
   -62
 72
   -61
 73
   -63
  0
VERTEX
  5
3BD
  8
0
 10
0.0
 20
0.0
 30
0.0
 70
   128
 71
   -62
 72
   -63
 73
    64
  0
VERTEX
  5
3BE
  8
0
 10
0.0
 20
0.0
 30
0.0
 70
   128
 71
   -50
 72
    62
 73
   -65
  0
VERTEX
  5
3BF
  8
0
 10
0.0
 20
0.0
 30
0.0
 70
   128
 71
   -50
 72
   -65
 73
   -66
  0
VERTEX
  5
3C0
  8
0
 10
0.0
 20
0.0
 30
0.0
 70
   128
 71
   -50
 72
   -66
 73
    22
  0
VERTEX
  5
3C1
  8
0
 10
0.0
 20
0.0
 30
0.0
 70
   128
 71
   -22
 72
    66
 73
   -67
  0
VERTEX
  5
3C2
  8
0
 10
0.0
 20
0.0
 30
0.0
 70
   128
 71
   -22
 72
    67
 73
   -68
  0
VERTEX
  5
3C3
  8
0
 10
0.0
 20
0.0
 30
0.0
 70
   128
 71
   -22
 72
   -68
 73
   -23
  0
VERTEX
  5
3C4
  8
0
 10
0.0
 20
0.0
 30
0.0
 70
   128
 71
   -66
 72
   -65
 73
    69
  0
VERTEX
  5
3C5
  8
0
 10
0.0
 20
0.0
 30
0.0
 70
   128
 71
   -69
 72
   -65
 73
    70
  0
VERTEX
  5
3C6
  8
0
 10
0.0
 20
0.0
 30
0.0
 70
   128
 71
   -70
 72
   -65
 73
    71
  0
VERTEX
  5
3C7
  8
0
 10
0.0
 20
0.0
 30
0.0
 70
   128
 71
   -71
 72
   -65
 73
    72
  0
VERTEX
  5
3C8
  8
0
 10
0.0
 20
0.0
 30
0.0
 70
   128
 71
    -9
 72
   -73
 73
    74
  0
VERTEX
  5
3C9
  8
0
 10
0.0
 20
0.0
 30
0.0
 70
   128
 71
   -73
 72
    -9
 73
    10
  0
VERTEX
  5
3CA
  8
0
 10
0.0
 20
0.0
 30
0.0
 70
   128
 71
    -7
 72
   -75
 73
    76
  0
VERTEX
  5
3CB
  8
0
 10
0.0
 20
0.0
 30
0.0
 70
   128
 71
   -75
 72
    -7
 73
     8
  0
VERTEX
  5
3CC
  8
0
 10
0.0
 20
0.0
 30
0.0
 70
   128
 71
    -5
 72
   -77
 73
    78
  0
VERTEX
  5
3CD
  8
0
 10
0.0
 20
0.0
 30
0.0
 70
   128
 71
   -77
 72
    -5
 73
     6
  0
VERTEX
  5
3CE
  8
0
 10
0.0
 20
0.0
 30
0.0
 70
   128
 71
   -79
 72
   -51
 73
    52
  0
VERTEX
  5
3CF
  8
0
 10
0.0
 20
0.0
 30
0.0
 70
   128
 71
   -51
 72
   -79
 73
    80
  0
VERTEX
  5
3D0
  8
0
 10
0.0
 20
0.0
 30
0.0
 70
   128
 71
   -80
 72
   -79
 73
    81
  0
VERTEX
  5
3D1
  8
0
 10
0.0
 20
0.0
 30
0.0
 70
   128
 71
   -81
 72
   -79
 73
    82
  0
VERTEX
  5
3D2
  8
0
 10
0.0
 20
0.0
 30
0.0
 70
   128
 71
   -82
 72
    79
 73
   -83
  0
VERTEX
  5
3D3
  8
0
 10
0.0
 20
0.0
 30
0.0
 70
   128
 71
   -82
 72
   -83
 73
    84
  0
VERTEX
  5
3D4
  8
0
 10
0.0
 20
0.0
 30
0.0
 70
   128
 71
   -84
 72
   -83
 73
    85
  0
VERTEX
  5
3D5
  8
0
 10
0.0
 20
0.0
 30
0.0
 70
   128
 71
   -85
 72
   -83
 73
    86
  0
VERTEX
  5
3D6
  8
0
 10
0.0
 20
0.0
 30
0.0
 70
   128
 71
   -86
 72
   -83
 73
    87
  0
VERTEX
  5
3D7
  8
0
 10
0.0
 20
0.0
 30
0.0
 70
   128
 71
   -87
 72
    83
 73
   -88
  0
VERTEX
  5
3D8
  8
0
 10
0.0
 20
0.0
 30
0.0
 70
   128
 71
   -87
 72
   -88
 73
    89
  0
VERTEX
  5
3D9
  8
0
 10
0.0
 20
0.0
 30
0.0
 70
   128
 71
   -89
 72
   -88
 73
    90
  0
VERTEX
  5
3DA
  8
0
 10
0.0
 20
0.0
 30
0.0
 70
   128
 71
   -90
 72
    88
 73
   -91
  0
VERTEX
  5
3DB
  8
0
 10
0.0
 20
0.0
 30
0.0
 70
   128
 71
   -90
 72
   -91
 73
    92
  0
VERTEX
  5
3DC
  8
0
 10
0.0
 20
0.0
 30
0.0
 70
   128
 71
   -92
 72
   -91
 73
    93
  0
VERTEX
  5
3DD
  8
0
 10
0.0
 20
0.0
 30
0.0
 70
   128
 71
   -93
 72
   -91
 73
    61
  0
VERTEX
  5
3DE
  8
0
 10
0.0
 20
0.0
 30
0.0
 70
   128
 71
   -61
 72
    91
 73
   -63
  0
VERTEX
  5
3DF
  8
0
 10
0.0
 20
0.0
 30
0.0
 70
   128
 71
   -94
 72
   -95
 73
   -96
  0
VERTEX
  5
3E0
  8
0
 10
0.0
 20
0.0
 30
0.0
 70
   128
 71
   -95
 72
   -94
 73
   -97
  0
VERTEX
  5
3E1
  8
0
 10
0.0
 20
0.0
 30
0.0
 70
   128
 71
   -97
 72
   -94
 73
    98
  0
VERTEX
  5
3E2
  8
0
 10
0.0
 20
0.0
 30
0.0
 70
   128
 71
   -98
 72
   -94
 73
    99
  0
VERTEX
  5
3E3
  8
0
 10
0.0
 20
0.0
 30
0.0
 70
   128
 71
   -99
 72
   -94
 73
   100
  0
VERTEX
  5
3E4
  8
0
 10
0.0
 20
0.0
 30
0.0
 70
   128
 71
  -100
 72
   -94
 73
   101
  0
VERTEX
  5
3E5
  8
0
 10
0.0
 20
0.0
 30
0.0
 70
   128
 71
  -101
 72
    94
 73
   -22
  0
VERTEX
  5
3E6
  8
0
 10
0.0
 20
0.0
 30
0.0
 70
   128
 71
  -101
 72
   -22
 73
   102
  0
VERTEX
  5
3E7
  8
0
 10
0.0
 20
0.0
 30
0.0
 70
   128
 71
  -102
 72
   -22
 73
   103
  0
VERTEX
  5
3E8
  8
0
 10
0.0
 20
0.0
 30
0.0
 70
   128
 71
  -103
 72
   -22
 73
   104
  0
VERTEX
  5
3E9
  8
0
 10
0.0
 20
0.0
 30
0.0
 70
   128
 71
  -104
 72
   -22
 73
   105
  0
VERTEX
  5
3EA
  8
0
 10
0.0
 20
0.0
 30
0.0
 70
   128
 71
  -105
 72
   -22
 73
   106
  0
VERTEX
  5
3EB
  8
0
 10
0.0
 20
0.0
 30
0.0
 70
   128
 71
  -106
 72
   -22
 73
   107
  0
VERTEX
  5
3EC
  8
0
 10
0.0
 20
0.0
 30
0.0
 70
   128
 71
  -107
 72
   -22
 73
   108
  0
VERTEX
  5
3ED
  8
0
 10
0.0
 20
0.0
 30
0.0
 70
   128
 71
  -108
 72
   -22
 73
   109
  0
VERTEX
  5
3EE
  8
0
 10
0.0
 20
0.0
 30
0.0
 70
   128
 71
  -109
 72
   -22
 73
  -110
  0
VERTEX
  5
3EF
  8
0
 10
0.0
 20
0.0
 30
0.0
 70
   128
 71
  -110
 72
   -22
 73
   -18
  0
VERTEX
  5
3F0
  8
0
 10
0.0
 20
0.0
 30
0.0
 70
   128
 71
   -95
 72
   111
 73
   -96
  0
VERTEX
  5
3F1
  8
0
 10
0.0
 20
0.0
 30
0.0
 70
   128
 71
  -111
 72
    95
 73
  -112
  0
VERTEX
  5
3F2
  8
0
 10
0.0
 20
0.0
 30
0.0
 70
   128
 71
  -111
 72
   112
 73
  -113
  0
VERTEX
  5
3F3
  8
0
 10
0.0
 20
0.0
 30
0.0
 70
   128
 71
  -111
 72
  -113
 73
   114
  0
VERTEX
  5
3F4
  8
0
 10
0.0
 20
0.0
 30
0.0
 70
   128
 71
  -114
 72
   113
 73
  -115
  0
VERTEX
  5
3F5
  8
0
 10
0.0
 20
0.0
 30
0.0
 70
   128
 71
  -114
 72
  -115
 73
   116
  0
VERTEX
  5
3F6
  8
0
 10
0.0
 20
0.0
 30
0.0
 70
   128
 71
  -116
 72
   115
 73
  -117
  0
VERTEX
  5
3F7
  8
0
 10
0.0
 20
0.0
 30
0.0
 70
   128
 71
  -116
 72
  -117
 73
   118
  0
VERTEX
  5
3F8
  8
0
 10
0.0
 20
0.0
 30
0.0
 70
   128
 71
  -118
 72
   117
 73
  -119
  0
VERTEX
  5
3F9
  8
0
 10
0.0
 20
0.0
 30
0.0
 70
   128
 71
  -118
 72
  -119
 73
   120
  0
VERTEX
  5
3FA
  8
0
 10
0.0
 20
0.0
 30
0.0
 70
   128
 71
  -120
 72
   119
 73
  -121
  0
VERTEX
  5
3FB
  8
0
 10
0.0
 20
0.0
 30
0.0
 70
   128
 71
  -120
 72
  -121
 73
   122
  0
VERTEX
  5
3FC
  8
0
 10
0.0
 20
0.0
 30
0.0
 70
   128
 71
  -122
 72
   121
 73
  -123
  0
VERTEX
  5
3FD
  8
0
 10
0.0
 20
0.0
 30
0.0
 70
   128
 71
  -122
 72
  -123
 73
   124
  0
VERTEX
  5
3FE
  8
0
 10
0.0
 20
0.0
 30
0.0
 70
   128
 71
  -124
 72
   123
 73
  -125
  0
VERTEX
  5
3FF
  8
0
 10
0.0
 20
0.0
 30
0.0
 70
   128
 71
  -124
 72
  -125
 73
   126
  0
VERTEX
  5
400
  8
0
 10
0.0
 20
0.0
 30
0.0
 70
   128
 71
  -126
 72
   125
 73
  -127
  0
VERTEX
  5
401
  8
0
 10
0.0
 20
0.0
 30
0.0
 70
   128
 71
  -126
 72
  -127
 73
   128
  0
VERTEX
  5
402
  8
0
 10
0.0
 20
0.0
 30
0.0
 70
   128
 71
  -128
 72
   127
 73
  -129
  0
VERTEX
  5
403
  8
0
 10
0.0
 20
0.0
 30
0.0
 70
   128
 71
  -128
 72
  -129
 73
   130
  0
VERTEX
  5
404
  8
0
 10
0.0
 20
0.0
 30
0.0
 70
   128
 71
  -130
 72
   129
 73
  -131
  0
VERTEX
  5
405
  8
0
 10
0.0
 20
0.0
 30
0.0
 70
   128
 71
  -130
 72
  -131
 73
   132
  0
VERTEX
  5
406
  8
0
 10
0.0
 20
0.0
 30
0.0
 70
   128
 71
  -132
 72
   131
 73
  -110
  0
VERTEX
  5
407
  8
0
 10
0.0
 20
0.0
 30
0.0
 70
   128
 71
  -132
 72
  -110
 73
    18
  0
VERTEX
  5
408
  8
0
 10
0.0
 20
0.0
 30
0.0
 70
   128
 71
   -95
 72
  -133
 73
   134
  0
VERTEX
  5
409
  8
0
 10
0.0
 20
0.0
 30
0.0
 70
   128
 71
  -133
 72
   -95
 73
    97
  0
VERTEX
  5
40A
  8
0
 10
0.0
 20
0.0
 30
0.0
 70
   128
 71
  -134
 72
   133
 73
  -135
  0
VERTEX
  5
40B
  8
0
 10
0.0
 20
0.0
 30
0.0
 70
   128
 71
  -134
 72
  -135
 73
   136
  0
VERTEX
  5
40C
  8
0
 10
0.0
 20
0.0
 30
0.0
 70
   128
 71
  -136
 72
   135
 73
  -137
  0
VERTEX
  5
40D
  8
0
 10
0.0
 20
0.0
 30
0.0
 70
   128
 71
  -136
 72
  -137
 73
   138
  0
VERTEX
  5
40E
  8
0
 10
0.0
 20
0.0
 30
0.0
 70
   128
 71
  -138
 72
   137
 73
  -139
  0
VERTEX
  5
40F
  8
0
 10
0.0
 20
0.0
 30
0.0
 70
   128
 71
  -138
 72
  -139
 73
   140
  0
VERTEX
  5
410
  8
0
 10
0.0
 20
0.0
 30
0.0
 70
   128
 71
  -140
 72
   139
 73
  -141
  0
VERTEX
  5
411
  8
0
 10
0.0
 20
0.0
 30
0.0
 70
   128
 71
  -140
 72
  -141
 73
   142
  0
VERTEX
  5
412
  8
0
 10
0.0
 20
0.0
 30
0.0
 70
   128
 71
  -142
 72
   141
 73
  -143
  0
VERTEX
  5
413
  8
0
 10
0.0
 20
0.0
 30
0.0
 70
   128
 71
  -142
 72
  -143
 73
   144
  0
VERTEX
  5
414
  8
0
 10
0.0
 20
0.0
 30
0.0
 70
   128
 71
  -144
 72
   143
 73
  -145
  0
VERTEX
  5
415
  8
0
 10
0.0
 20
0.0
 30
0.0
 70
   128
 71
  -144
 72
  -145
 73
   146
  0
VERTEX
  5
416
  8
0
 10
0.0
 20
0.0
 30
0.0
 70
   128
 71
  -146
 72
   145
 73
  -147
  0
VERTEX
  5
417
  8
0
 10
0.0
 20
0.0
 30
0.0
 70
   128
 71
  -146
 72
  -147
 73
   148
  0
VERTEX
  5
418
  8
0
 10
0.0
 20
0.0
 30
0.0
 70
   128
 71
  -148
 72
   147
 73
  -149
  0
VERTEX
  5
419
  8
0
 10
0.0
 20
0.0
 30
0.0
 70
   128
 71
  -148
 72
  -149
 73
   150
  0
VERTEX
  5
41A
  8
0
 10
0.0
 20
0.0
 30
0.0
 70
   128
 71
  -150
 72
   149
 73
  -151
  0
VERTEX
  5
41B
  8
0
 10
0.0
 20
0.0
 30
0.0
 70
   128
 71
  -150
 72
  -151
 73
   152
  0
VERTEX
  5
41C
  8
0
 10
0.0
 20
0.0
 30
0.0
 70
   128
 71
  -152
 72
   151
 73
  -153
  0
VERTEX
  5
41D
  8
0
 10
0.0
 20
0.0
 30
0.0
 70
   128
 71
  -152
 72
  -153
 73
   154
  0
VERTEX
  5
41E
  8
0
 10
0.0
 20
0.0
 30
0.0
 70
   128
 71
  -154
 72
   153
 73
  -109
  0
VERTEX
  5
41F
  8
0
 10
0.0
 20
0.0
 30
0.0
 70
   128
 71
  -154
 72
  -109
 73
   110
  0
VERTEX
  5
420
  8
0
 10
0.0
 20
0.0
 30
0.0
 70
   128
 71
  -155
 72
  -156
 73
    40
  0
VERTEX
  5
421
  8
0
 10
0.0
 20
0.0
 30
0.0
 70
   128
 71
  -156
 72
  -155
 73
   157
  0
VERTEX
  5
422
  8
0
 10
0.0
 20
0.0
 30
0.0
 70
   128
 71
  -157
 72
   155
 73
  -158
  0
VERTEX
  5
423
  8
0
 10
0.0
 20
0.0
 30
0.0
 70
   128
 71
  -157
 72
   158
 73
  -159
  0
VERTEX
  5
424
  8
0
 10
0.0
 20
0.0
 30
0.0
 70
   128
 71
  -157
 72
   159
 73
  -160
  0
VERTEX
  5
425
  8
0
 10
0.0
 20
0.0
 30
0.0
 70
   128
 71
  -157
 72
  -160
 73
  -161
  0
VERTEX
  5
426
  8
0
 10
0.0
 20
0.0
 30
0.0
 70
   128
 71
  -161
 72
  -160
 73
   162
  0
VERTEX
  5
427
  8
0
 10
0.0
 20
0.0
 30
0.0
 70
   128
 71
  -162
 72
  -160
 73
   163
  0
VERTEX
  5
428
  8
0
 10
0.0
 20
0.0
 30
0.0
 70
   128
 71
  -163
 72
  -160
 73
  -164
  0
VERTEX
  5
429
  8
0
 10
0.0
 20
0.0
 30
0.0
 70
   128
 71
  -163
 72
  -164
 73
  -165
  0
VERTEX
  5
42A
  8
0
 10
0.0
 20
0.0
 30
0.0
 70
   128
 71
  -157
 72
   161
 73
  -166
  0
VERTEX
  5
42B
  8
0
 10
0.0
 20
0.0
 30
0.0
 70
   128
 71
  -157
 72
   166
 73
  -167
  0
VERTEX
  5
42C
  8
0
 10
0.0
 20
0.0
 30
0.0
 70
   128
 71
  -157
 72
   167
 73
  -168
  0
VERTEX
  5
42D
  8
0
 10
0.0
 20
0.0
 30
0.0
 70
   128
 71
  -157
 72
  -168
 73
   169
  0
VERTEX
  5
42E
  8
0
 10
0.0
 20
0.0
 30
0.0
 70
   128
 71
  -164
 72
  -170
 73
   171
  0
VERTEX
  5
42F
  8
0
 10
0.0
 20
0.0
 30
0.0
 70
   128
 71
  -170
 72
  -164
 73
   172
  0
VERTEX
  5
430
  8
0
 10
0.0
 20
0.0
 30
0.0
 70
   128
 71
  -171
 72
  -170
 73
   173
  0
VERTEX
  5
431
  8
0
 10
0.0
 20
0.0
 30
0.0
 70
   128
 71
  -173
 72
  -170
 73
   174
  0
VERTEX
  5
432
  8
0
 10
0.0
 20
0.0
 30
0.0
 70
   128
 71
  -174
 72
  -170
 73
   175
  0
VERTEX
  5
433
  8
0
 10
0.0
 20
0.0
 30
0.0
 70
   128
 71
  -175
 72
  -170
 73
   176
  0
VERTEX
  5
434
  8
0
 10
0.0
 20
0.0
 30
0.0
 70
   128
 71
  -176
 72
   170
 73
  -177
  0
VERTEX
  5
435
  8
0
 10
0.0
 20
0.0
 30
0.0
 70
   128
 71
  -176
 72
  -177
 73
   178
  0
VERTEX
  5
436
  8
0
 10
0.0
 20
0.0
 30
0.0
 70
   128
 71
  -178
 72
  -177
 73
   179
  0
VERTEX
  5
437
  8
0
 10
0.0
 20
0.0
 30
0.0
 70
   128
 71
  -179
 72
  -177
 73
   180
  0
VERTEX
  5
438
  8
0
 10
0.0
 20
0.0
 30
0.0
 70
   128
 71
  -180
 72
  -177
 73
   181
  0
VERTEX
  5
439
  8
0
 10
0.0
 20
0.0
 30
0.0
 70
   128
 71
  -181
 72
  -177
 73
   182
  0
VERTEX
  5
43A
  8
0
 10
0.0
 20
0.0
 30
0.0
 70
   128
 71
  -182
 72
  -177
 73
   183
  0
VERTEX
  5
43B
  8
0
 10
0.0
 20
0.0
 30
0.0
 70
   128
 71
  -183
 72
  -177
 73
   184
  0
VERTEX
  5
43C
  8
0
 10
0.0
 20
0.0
 30
0.0
 70
   128
 71
  -184
 72
  -177
 73
  -185
  0
VERTEX
  5
43D
  8
0
 10
0.0
 20
0.0
 30
0.0
 70
   128
 71
  -185
 72
  -177
 73
  -186
  0
VERTEX
  5
43E
  8
0
 10
0.0
 20
0.0
 30
0.0
 70
   128
 71
  -187
 72
  -163
 73
   165
  0
VERTEX
  5
43F
  8
0
 10
0.0
 20
0.0
 30
0.0
 70
   128
 71
  -163
 72
  -187
 73
   188
  0
VERTEX
  5
440
  8
0
 10
0.0
 20
0.0
 30
0.0
 70
   128
 71
  -188
 72
   187
 73
  -189
  0
VERTEX
  5
441
  8
0
 10
0.0
 20
0.0
 30
0.0
 70
   128
 71
  -188
 72
  -189
 73
   190
  0
VERTEX
  5
442
  8
0
 10
0.0
 20
0.0
 30
0.0
 70
   128
 71
  -190
 72
   189
 73
  -191
  0
VERTEX
  5
443
  8
0
 10
0.0
 20
0.0
 30
0.0
 70
   128
 71
  -190
 72
  -191
 73
   192
  0
VERTEX
  5
444
  8
0
 10
0.0
 20
0.0
 30
0.0
 70
   128
 71
  -192
 72
   191
 73
  -193
  0
VERTEX
  5
445
  8
0
 10
0.0
 20
0.0
 30
0.0
 70
   128
 71
  -192
 72
  -193
 73
   194
  0
VERTEX
  5
446
  8
0
 10
0.0
 20
0.0
 30
0.0
 70
   128
 71
  -194
 72
   193
 73
  -195
  0
VERTEX
  5
447
  8
0
 10
0.0
 20
0.0
 30
0.0
 70
   128
 71
  -194
 72
  -195
 73
   196
  0
VERTEX
  5
448
  8
0
 10
0.0
 20
0.0
 30
0.0
 70
   128
 71
  -196
 72
   195
 73
  -197
  0
VERTEX
  5
449
  8
0
 10
0.0
 20
0.0
 30
0.0
 70
   128
 71
  -196
 72
  -197
 73
   198
  0
VERTEX
  5
44A
  8
0
 10
0.0
 20
0.0
 30
0.0
 70
   128
 71
  -198
 72
   197
 73
  -199
  0
VERTEX
  5
44B
  8
0
 10
0.0
 20
0.0
 30
0.0
 70
   128
 71
  -198
 72
  -199
 73
   200
  0
VERTEX
  5
44C
  8
0
 10
0.0
 20
0.0
 30
0.0
 70
   128
 71
  -200
 72
   199
 73
  -201
  0
VERTEX
  5
44D
  8
0
 10
0.0
 20
0.0
 30
0.0
 70
   128
 71
  -200
 72
  -201
 73
   202
  0
VERTEX
  5
44E
  8
0
 10
0.0
 20
0.0
 30
0.0
 70
   128
 71
  -202
 72
   201
 73
  -203
  0
VERTEX
  5
44F
  8
0
 10
0.0
 20
0.0
 30
0.0
 70
   128
 71
  -202
 72
  -203
 73
   204
  0
VERTEX
  5
450
  8
0
 10
0.0
 20
0.0
 30
0.0
 70
   128
 71
  -204
 72
   203
 73
  -205
  0
VERTEX
  5
451
  8
0
 10
0.0
 20
0.0
 30
0.0
 70
   128
 71
  -204
 72
  -205
 73
   206
  0
VERTEX
  5
452
  8
0
 10
0.0
 20
0.0
 30
0.0
 70
   128
 71
  -206
 72
   205
 73
  -207
  0
VERTEX
  5
453
  8
0
 10
0.0
 20
0.0
 30
0.0
 70
   128
 71
  -206
 72
  -207
 73
   208
  0
VERTEX
  5
454
  8
0
 10
0.0
 20
0.0
 30
0.0
 70
   128
 71
  -208
 72
   207
 73
  -185
  0
VERTEX
  5
455
  8
0
 10
0.0
 20
0.0
 30
0.0
 70
   128
 71
  -208
 72
  -185
 73
   186
  0
VERTEX
  5
456
  8
0
 10
0.0
 20
0.0
 30
0.0
 70
   128
 71
  -209
 72
  -165
 73
   164
  0
VERTEX
  5
457
  8
0
 10
0.0
 20
0.0
 30
0.0
 70
   128
 71
  -165
 72
  -209
 73
   210
  0
VERTEX
  5
458
  8
0
 10
0.0
 20
0.0
 30
0.0
 70
   128
 71
  -210
 72
   209
 73
  -211
  0
VERTEX
  5
459
  8
0
 10
0.0
 20
0.0
 30
0.0
 70
   128
 71
  -210
 72
  -211
 73
   212
  0
VERTEX
  5
45A
  8
0
 10
0.0
 20
0.0
 30
0.0
 70
   128
 71
  -212
 72
   211
 73
  -213
  0
VERTEX
  5
45B
  8
0
 10
0.0
 20
0.0
 30
0.0
 70
   128
 71
  -212
 72
  -213
 73
   214
  0
VERTEX
  5
45C
  8
0
 10
0.0
 20
0.0
 30
0.0
 70
   128
 71
  -214
 72
   213
 73
  -215
  0
VERTEX
  5
45D
  8
0
 10
0.0
 20
0.0
 30
0.0
 70
   128
 71
  -214
 72
  -215
 73
   216
  0
VERTEX
  5
45E
  8
0
 10
0.0
 20
0.0
 30
0.0
 70
   128
 71
  -216
 72
   215
 73
  -217
  0
VERTEX
  5
45F
  8
0
 10
0.0
 20
0.0
 30
0.0
 70
   128
 71
  -216
 72
  -217
 73
   218
  0
VERTEX
  5
460
  8
0
 10
0.0
 20
0.0
 30
0.0
 70
   128
 71
  -218
 72
   217
 73
  -219
  0
VERTEX
  5
461
  8
0
 10
0.0
 20
0.0
 30
0.0
 70
   128
 71
  -218
 72
  -219
 73
   220
  0
VERTEX
  5
462
  8
0
 10
0.0
 20
0.0
 30
0.0
 70
   128
 71
  -220
 72
   219
 73
  -221
  0
VERTEX
  5
463
  8
0
 10
0.0
 20
0.0
 30
0.0
 70
   128
 71
  -220
 72
  -221
 73
   222
  0
VERTEX
  5
464
  8
0
 10
0.0
 20
0.0
 30
0.0
 70
   128
 71
  -222
 72
   221
 73
  -223
  0
VERTEX
  5
465
  8
0
 10
0.0
 20
0.0
 30
0.0
 70
   128
 71
  -222
 72
  -223
 73
   224
  0
VERTEX
  5
466
  8
0
 10
0.0
 20
0.0
 30
0.0
 70
   128
 71
  -224
 72
   223
 73
  -225
  0
VERTEX
  5
467
  8
0
 10
0.0
 20
0.0
 30
0.0
 70
   128
 71
  -224
 72
  -225
 73
   226
  0
VERTEX
  5
468
  8
0
 10
0.0
 20
0.0
 30
0.0
 70
   128
 71
  -226
 72
   225
 73
  -227
  0
VERTEX
  5
469
  8
0
 10
0.0
 20
0.0
 30
0.0
 70
   128
 71
  -226
 72
  -227
 73
   228
  0
VERTEX
  5
46A
  8
0
 10
0.0
 20
0.0
 30
0.0
 70
   128
 71
  -228
 72
   227
 73
  -229
  0
VERTEX
  5
46B
  8
0
 10
0.0
 20
0.0
 30
0.0
 70
   128
 71
  -228
 72
  -229
 73
   230
  0
VERTEX
  5
46C
  8
0
 10
0.0
 20
0.0
 30
0.0
 70
   128
 71
  -230
 72
   229
 73
  -184
  0
VERTEX
  5
46D
  8
0
 10
0.0
 20
0.0
 30
0.0
 70
   128
 71
  -230
 72
  -184
 73
   185
  0
VERTEX
  5
46E
  8
0
 10
0.0
 20
0.0
 30
0.0
 70
   128
 71
  -231
 72
  -232
 73
   233
  0
VERTEX
  5
46F
  8
0
 10
0.0
 20
0.0
 30
0.0
 70
   128
 71
  -232
 72
  -231
 73
   234
  0
VERTEX
  5
470
  8
0
 10
0.0
 20
0.0
 30
0.0
 70
   128
 71
  -233
 72
   232
 73
  -235
  0
VERTEX
  5
471
  8
0
 10
0.0
 20
0.0
 30
0.0
 70
   128
 71
  -233
 72
  -235
 73
  -236
  0
VERTEX
  5
472
  8
0
 10
0.0
 20
0.0
 30
0.0
 70
   128
 71
  -233
 72
  -236
 73
   237
  0
VERTEX
  5
473
  8
0
 10
0.0
 20
0.0
 30
0.0
 70
   128
 71
  -236
 72
  -235
 73
   238
  0
VERTEX
  5
474
  8
0
 10
0.0
 20
0.0
 30
0.0
 70
   128
 71
  -239
 72
  -240
 73
   241
  0
VERTEX
  5
475
  8
0
 10
0.0
 20
0.0
 30
0.0
 70
   128
 71
  -240
 72
  -239
 73
   242
  0
VERTEX
  5
476
  8
0
 10
0.0
 20
0.0
 30
0.0
 70
   128
 71
  -242
 72
  -239
 73
   243
  0
VERTEX
  5
477
  8
0
 10
0.0
 20
0.0
 30
0.0
 70
   128
 71
  -244
 72
   -64
 73
    63
  0
VERTEX
  5
478
  8
0
 10
0.0
 20
0.0
 30
0.0
 70
   128
 71
   -64
 72
   244
 73
  -245
  0
VERTEX
  5
479
  8
0
 10
0.0
 20
0.0
 30
0.0
 70
   128
 71
   -64
 72
  -245
 73
   246
  0
VERTEX
  5
47A
  8
0
 10
0.0
 20
0.0
 30
0.0
 70
   128
 71
  -246
 72
  -245
 73
  -234
  0
VERTEX
  5
47B
  8
0
 10
0.0
 20
0.0
 30
0.0
 70
   128
 71
  -246
 72
  -234
 73
  -231
  0
VERTEX
  5
47C
  8
0
 10
0.0
 20
0.0
 30
0.0
 70
   128
 71
  -246
 72
  -231
 73
    65
  0
VERTEX
  5
47D
  8
0
 10
0.0
 20
0.0
 30
0.0
 70
   128
 71
   -65
 72
  -231
 73
   -72
  0
VERTEX
  5
47E
  8
0
 10
0.0
 20
0.0
 30
0.0
 70
   128
 71
   -72
 72
  -231
 73
   247
  0
VERTEX
  5
47F
  8
0
 10
0.0
 20
0.0
 30
0.0
 70
   128
 71
  -234
 72
  -245
 73
   248
  0
VERTEX
  5
480
  8
0
 10
0.0
 20
0.0
 30
0.0
 70
   128
 71
  -248
 72
  -245
 73
  -249
  0
VERTEX
  5
481
  8
0
 10
0.0
 20
0.0
 30
0.0
 70
   128
 71
  -248
 72
  -249
 73
   235
  0
VERTEX
  5
482
  8
0
 10
0.0
 20
0.0
 30
0.0
 70
   128
 71
  -235
 72
  -249
 73
  -238
  0
VERTEX
  5
483
  8
0
 10
0.0
 20
0.0
 30
0.0
 70
   128
 71
  -238
 72
  -249
 73
   250
  0
VERTEX
  5
484
  8
0
 10
0.0
 20
0.0
 30
0.0
 70
   128
 71
  -250
 72
  -249
 73
  -251
  0
VERTEX
  5
485
  8
0
 10
0.0
 20
0.0
 30
0.0
 70
   128
 71
  -250
 72
   251
 73
  -252
  0
VERTEX
  5
486
  8
0
 10
0.0
 20
0.0
 30
0.0
 70
   128
 71
  -249
 72
  -245
 73
   253
  0
VERTEX
  5
487
  8
0
 10
0.0
 20
0.0
 30
0.0
 70
   128
 71
  -253
 72
  -245
 73
  -254
  0
VERTEX
  5
488
  8
0
 10
0.0
 20
0.0
 30
0.0
 70
   128
 71
  -253
 72
  -254
 73
   255
  0
VERTEX
  5
489
  8
0
 10
0.0
 20
0.0
 30
0.0
 70
   128
 71
  -255
 72
  -254
 73
  -256
  0
VERTEX
  5
48A
  8
0
 10
0.0
 20
0.0
 30
0.0
 70
   128
 71
  -256
 72
  -254
 73
   257
  0
VERTEX
  5
48B
  8
0
 10
0.0
 20
0.0
 30
0.0
 70
   128
 71
  -254
 72
  -245
 73
   258
  0
VERTEX
  5
48C
  8
0
 10
0.0
 20
0.0
 30
0.0
 70
   128
 71
  -258
 72
  -245
 73
  -259
  0
VERTEX
  5
48D
  8
0
 10
0.0
 20
0.0
 30
0.0
 70
   128
 71
  -258
 72
  -259
 73
   260
  0
VERTEX
  5
48E
  8
0
 10
0.0
 20
0.0
 30
0.0
 70
   128
 71
  -260
 72
  -259
 73
  -261
  0
VERTEX
  5
48F
  8
0
 10
0.0
 20
0.0
 30
0.0
 70
   128
 71
  -261
 72
  -259
 73
   262
  0
VERTEX
  5
490
  8
0
 10
0.0
 20
0.0
 30
0.0
 70
   128
 71
  -259
 72
  -245
 73
   263
  0
VERTEX
  5
491
  8
0
 10
0.0
 20
0.0
 30
0.0
 70
   128
 71
  -263
 72
  -245
 73
  -264
  0
VERTEX
  5
492
  8
0
 10
0.0
 20
0.0
 30
0.0
 70
   128
 71
  -263
 72
  -264
 73
   265
  0
VERTEX
  5
493
  8
0
 10
0.0
 20
0.0
 30
0.0
 70
   128
 71
  -265
 72
  -264
 73
  -266
  0
VERTEX
  5
494
  8
0
 10
0.0
 20
0.0
 30
0.0
 70
   128
 71
  -266
 72
  -264
 73
   267
  0
VERTEX
  5
495
  8
0
 10
0.0
 20
0.0
 30
0.0
 70
   128
 71
  -264
 72
  -245
 73
   268
  0
VERTEX
  5
496
  8
0
 10
0.0
 20
0.0
 30
0.0
 70
   128
 71
  -268
 72
  -245
 73
   269
  0
VERTEX
  5
497
  8
0
 10
0.0
 20
0.0
 30
0.0
 70
   128
 71
  -270
 72
  -271
 73
   272
  0
VERTEX
  5
498
  8
0
 10
0.0
 20
0.0
 30
0.0
 70
   128
 71
  -271
 72
  -270
 73
   273
  0
VERTEX
  5
499
  8
0
 10
0.0
 20
0.0
 30
0.0
 70
   128
 71
  -273
 72
   270
 73
  -274
  0
VERTEX
  5
49A
  8
0
 10
0.0
 20
0.0
 30
0.0
 70
   128
 71
  -273
 72
  -274
 73
   275
  0
VERTEX
  5
49B
  8
0
 10
0.0
 20
0.0
 30
0.0
 70
   128
 71
  -275
 72
  -274
 73
   276
  0
VERTEX
  5
49C
  8
0
 10
0.0
 20
0.0
 30
0.0
 70
   128
 71
  -276
 72
  -274
 73
   277
  0
VERTEX
  5
49D
  8
0
 10
0.0
 20
0.0
 30
0.0
 70
   128
 71
  -277
 72
   274
 73
  -278
  0
VERTEX
  5
49E
  8
0
 10
0.0
 20
0.0
 30
0.0
 70
   128
 71
  -277
 72
  -278
 73
   279
  0
VERTEX
  5
49F
  8
0
 10
0.0
 20
0.0
 30
0.0
 70
   128
 71
  -279
 72
  -278
 73
   280
  0
VERTEX
  5
4A0
  8
0
 10
0.0
 20
0.0
 30
0.0
 70
   128
 71
  -280
 72
   278
 73
  -281
  0
VERTEX
  5
4A1
  8
0
 10
0.0
 20
0.0
 30
0.0
 70
   128
 71
  -280
 72
  -281
 73
   282
  0
VERTEX
  5
4A2
  8
0
 10
0.0
 20
0.0
 30
0.0
 70
   128
 71
  -282
 72
  -281
 73
   283
  0
VERTEX
  5
4A3
  8
0
 10
0.0
 20
0.0
 30
0.0
 70
   128
 71
  -283
 72
  -281
 73
   284
  0
VERTEX
  5
4A4
  8
0
 10
0.0
 20
0.0
 30
0.0
 70
   128
 71
  -284
 72
   281
 73
  -285
  0
VERTEX
  5
4A5
  8
0
 10
0.0
 20
0.0
 30
0.0
 70
   128
 71
  -284
 72
  -285
 73
   286
  0
VERTEX
  5
4A6
  8
0
 10
0.0
 20
0.0
 30
0.0
 70
   128
 71
  -286
 72
  -285
 73
   287
  0
VERTEX
  5
4A7
  8
0
 10
0.0
 20
0.0
 30
0.0
 70
   128
 71
  -287
 72
  -285
 73
   288
  0
VERTEX
  5
4A8
  8
0
 10
0.0
 20
0.0
 30
0.0
 70
   128
 71
  -247
 72
  -289
 73
   290
  0
VERTEX
  5
4A9
  8
0
 10
0.0
 20
0.0
 30
0.0
 70
   128
 71
  -289
 72
  -247
 73
   231
  0
VERTEX
  5
4AA
  8
0
 10
0.0
 20
0.0
 30
0.0
 70
   128
 71
  -290
 72
   289
 73
  -237
  0
VERTEX
  5
4AB
  8
0
 10
0.0
 20
0.0
 30
0.0
 70
   128
 71
  -290
 72
  -237
 73
   291
  0
VERTEX
  5
4AC
  8
0
 10
0.0
 20
0.0
 30
0.0
 70
   128
 71
  -291
 72
  -237
 73
   292
  0
VERTEX
  5
4AD
  8
0
 10
0.0
 20
0.0
 30
0.0
 70
   128
 71
  -292
 72
  -237
 73
   293
  0
VERTEX
  5
4AE
  8
0
 10
0.0
 20
0.0
 30
0.0
 70
   128
 71
  -293
 72
  -237
 73
  -172
  0
VERTEX
  5
4AF
  8
0
 10
0.0
 20
0.0
 30
0.0
 70
   128
 71
  -293
 72
  -172
 73
   294
  0
VERTEX
  5
4B0
  8
0
 10
0.0
 20
0.0
 30
0.0
 70
   128
 71
  -294
 72
  -172
 73
  -160
  0
VERTEX
  5
4B1
  8
0
 10
0.0
 20
0.0
 30
0.0
 70
   128
 71
  -160
 72
  -172
 73
  -164
  0
VERTEX
  5
4B2
  8
0
 10
0.0
 20
0.0
 30
0.0
 70
   128
 71
  -172
 72
  -237
 73
   295
  0
VERTEX
  5
4B3
  8
0
 10
0.0
 20
0.0
 30
0.0
 70
   128
 71
  -295
 72
  -237
 73
  -296
  0
VERTEX
  5
4B4
  8
0
 10
0.0
 20
0.0
 30
0.0
 70
   128
 71
  -296
 72
  -237
 73
   236
  0
VERTEX
  5
4B5
  8
0
 10
0.0
 20
0.0
 30
0.0
 70
   128
 71
  -295
 72
   296
 73
  -250
  0
VERTEX
  5
4B6
  8
0
 10
0.0
 20
0.0
 30
0.0
 70
   128
 71
  -295
 72
  -250
 73
   177
  0
VERTEX
  5
4B7
  8
0
 10
0.0
 20
0.0
 30
0.0
 70
   128
 71
  -177
 72
  -250
 73
  -297
  0
VERTEX
  5
4B8
  8
0
 10
0.0
 20
0.0
 30
0.0
 70
   128
 71
  -297
 72
  -250
 73
   298
  0
VERTEX
  5
4B9
  8
0
 10
0.0
 20
0.0
 30
0.0
 70
   128
 71
  -298
 72
  -250
 73
  -252
  0
VERTEX
  5
4BA
  8
0
 10
0.0
 20
0.0
 30
0.0
 70
   128
 71
  -298
 72
   252
 73
  -299
  0
VERTEX
  5
4BB
  8
0
 10
0.0
 20
0.0
 30
0.0
 70
   128
 71
  -298
 72
  -299
 73
  -300
  0
VERTEX
  5
4BC
  8
0
 10
0.0
 20
0.0
 30
0.0
 70
   128
 71
  -298
 72
  -300
 73
   301
  0
VERTEX
  5
4BD
  8
0
 10
0.0
 20
0.0
 30
0.0
 70
   128
 71
  -301
 72
  -300
 73
  -302
  0
VERTEX
  5
4BE
  8
0
 10
0.0
 20
0.0
 30
0.0
 70
   128
 71
  -302
 72
  -300
 73
   303
  0
VERTEX
  5
4BF
  8
0
 10
0.0
 20
0.0
 30
0.0
 70
   128
 71
  -303
 72
  -300
 73
  -304
  0
VERTEX
  5
4C0
  8
0
 10
0.0
 20
0.0
 30
0.0
 70
   128
 71
  -304
 72
  -300
 73
   305
  0
VERTEX
  5
4C1
  8
0
 10
0.0
 20
0.0
 30
0.0
 70
   128
 71
  -305
 72
  -300
 73
  -306
  0
VERTEX
  5
4C2
  8
0
 10
0.0
 20
0.0
 30
0.0
 70
   128
 71
  -306
 72
  -300
 73
   307
  0
VERTEX
  5
4C3
  8
0
 10
0.0
 20
0.0
 30
0.0
 70
   128
 71
  -300
 72
  -299
 73
   308
  0
VERTEX
  5
4C4
  8
0
 10
0.0
 20
0.0
 30
0.0
 70
   128
 71
  -308
 72
  -299
 73
  -309
  0
VERTEX
  5
4C5
  8
0
 10
0.0
 20
0.0
 30
0.0
 70
   128
 71
  -309
 72
  -299
 73
   310
  0
VERTEX
  5
4C6
  8
0
 10
0.0
 20
0.0
 30
0.0
 70
   128
 71
  -308
 72
   309
 73
  -257
  0
VERTEX
  5
4C7
  8
0
 10
0.0
 20
0.0
 30
0.0
 70
   128
 71
  -308
 72
  -257
 73
  -311
  0
VERTEX
  5
4C8
  8
0
 10
0.0
 20
0.0
 30
0.0
 70
   128
 71
  -308
 72
  -311
 73
   312
  0
VERTEX
  5
4C9
  8
0
 10
0.0
 20
0.0
 30
0.0
 70
   128
 71
  -312
 72
  -311
 73
  -313
  0
VERTEX
  5
4CA
  8
0
 10
0.0
 20
0.0
 30
0.0
 70
   128
 71
  -313
 72
  -311
 73
   314
  0
VERTEX
  5
4CB
  8
0
 10
0.0
 20
0.0
 30
0.0
 70
   128
 71
  -314
 72
  -311
 73
  -315
  0
VERTEX
  5
4CC
  8
0
 10
0.0
 20
0.0
 30
0.0
 70
   128
 71
  -315
 72
  -311
 73
   239
  0
VERTEX
  5
4CD
  8
0
 10
0.0
 20
0.0
 30
0.0
 70
   128
 71
  -311
 72
  -257
 73
   316
  0
VERTEX
  5
4CE
  8
0
 10
0.0
 20
0.0
 30
0.0
 70
   128
 71
  -316
 72
  -257
 73
  -317
  0
VERTEX
  5
4CF
  8
0
 10
0.0
 20
0.0
 30
0.0
 70
   128
 71
  -317
 72
  -257
 73
  -254
  0
VERTEX
  5
4D0
  8
0
 10
0.0
 20
0.0
 30
0.0
 70
   128
 71
  -317
 72
   254
 73
  -318
  0
VERTEX
  5
4D1
  8
0
 10
0.0
 20
0.0
 30
0.0
 70
   128
 71
  -317
 72
  -318
 73
   319
  0
VERTEX
  5
4D2
  8
0
 10
0.0
 20
0.0
 30
0.0
 70
   128
 71
  -316
 72
   317
 73
  -262
  0
VERTEX
  5
4D3
  8
0
 10
0.0
 20
0.0
 30
0.0
 70
   128
 71
  -316
 72
  -262
 73
  -320
  0
VERTEX
  5
4D4
  8
0
 10
0.0
 20
0.0
 30
0.0
 70
   128
 71
  -316
 72
  -320
 73
   321
  0
VERTEX
  5
4D5
  8
0
 10
0.0
 20
0.0
 30
0.0
 70
   128
 71
  -321
 72
  -320
 73
  -322
  0
VERTEX
  5
4D6
  8
0
 10
0.0
 20
0.0
 30
0.0
 70
   128
 71
  -322
 72
  -320
 73
   323
  0
VERTEX
  5
4D7
  8
0
 10
0.0
 20
0.0
 30
0.0
 70
   128
 71
  -323
 72
  -320
 73
  -324
  0
VERTEX
  5
4D8
  8
0
 10
0.0
 20
0.0
 30
0.0
 70
   128
 71
  -324
 72
  -320
 73
   325
  0
VERTEX
  5
4D9
  8
0
 10
0.0
 20
0.0
 30
0.0
 70
   128
 71
  -325
 72
  -320
 73
  -326
  0
VERTEX
  5
4DA
  8
0
 10
0.0
 20
0.0
 30
0.0
 70
   128
 71
  -326
 72
  -320
 73
   327
  0
VERTEX
  5
4DB
  8
0
 10
0.0
 20
0.0
 30
0.0
 70
   128
 71
  -320
 72
  -262
 73
   328
  0
VERTEX
  5
4DC
  8
0
 10
0.0
 20
0.0
 30
0.0
 70
   128
 71
  -328
 72
  -262
 73
  -329
  0
VERTEX
  5
4DD
  8
0
 10
0.0
 20
0.0
 30
0.0
 70
   128
 71
  -329
 72
  -262
 73
  -259
  0
VERTEX
  5
4DE
  8
0
 10
0.0
 20
0.0
 30
0.0
 70
   128
 71
  -329
 72
   259
 73
  -330
  0
VERTEX
  5
4DF
  8
0
 10
0.0
 20
0.0
 30
0.0
 70
   128
 71
  -329
 72
  -330
 73
   331
  0
VERTEX
  5
4E0
  8
0
 10
0.0
 20
0.0
 30
0.0
 70
   128
 71
  -328
 72
   329
 73
  -267
  0
VERTEX
  5
4E1
  8
0
 10
0.0
 20
0.0
 30
0.0
 70
   128
 71
  -328
 72
  -267
 73
  -332
  0
VERTEX
  5
4E2
  8
0
 10
0.0
 20
0.0
 30
0.0
 70
   128
 71
  -328
 72
  -332
 73
   333
  0
VERTEX
  5
4E3
  8
0
 10
0.0
 20
0.0
 30
0.0
 70
   128
 71
  -333
 72
  -332
 73
  -334
  0
VERTEX
  5
4E4
  8
0
 10
0.0
 20
0.0
 30
0.0
 70
   128
 71
  -334
 72
  -332
 73
   335
  0
VERTEX
  5
4E5
  8
0
 10
0.0
 20
0.0
 30
0.0
 70
   128
 71
  -335
 72
  -332
 73
  -336
  0
VERTEX
  5
4E6
  8
0
 10
0.0
 20
0.0
 30
0.0
 70
   128
 71
  -336
 72
  -332
 73
   337
  0
VERTEX
  5
4E7
  8
0
 10
0.0
 20
0.0
 30
0.0
 70
   128
 71
  -337
 72
  -332
 73
  -338
  0
VERTEX
  5
4E8
  8
0
 10
0.0
 20
0.0
 30
0.0
 70
   128
 71
  -338
 72
  -332
 73
   339
  0
VERTEX
  5
4E9
  8
0
 10
0.0
 20
0.0
 30
0.0
 70
   128
 71
  -332
 72
  -267
 73
   340
  0
VERTEX
  5
4EA
  8
0
 10
0.0
 20
0.0
 30
0.0
 70
   128
 71
  -340
 72
  -267
 73
  -341
  0
VERTEX
  5
4EB
  8
0
 10
0.0
 20
0.0
 30
0.0
 70
   128
 71
  -341
 72
  -267
 73
   264
  0
VERTEX
  5
4EC
  8
0
 10
0.0
 20
0.0
 30
0.0
 70
   128
 71
  -340
 72
   341
 73
  -269
  0
VERTEX
  5
4ED
  8
0
 10
0.0
 20
0.0
 30
0.0
 70
   128
 71
  -340
 72
  -269
 73
  -342
  0
VERTEX
  5
4EE
  8
0
 10
0.0
 20
0.0
 30
0.0
 70
   128
 71
  -340
 72
  -342
 73
   343
  0
VERTEX
  5
4EF
  8
0
 10
0.0
 20
0.0
 30
0.0
 70
   128
 71
  -343
 72
  -342
 73
  -344
  0
VERTEX
  5
4F0
  8
0
 10
0.0
 20
0.0
 30
0.0
 70
   128
 71
  -344
 72
  -342
 73
   345
  0
VERTEX
  5
4F1
  8
0
 10
0.0
 20
0.0
 30
0.0
 70
   128
 71
  -345
 72
  -342
 73
  -346
  0
VERTEX
  5
4F2
  8
0
 10
0.0
 20
0.0
 30
0.0
 70
   128
 71
  -346
 72
  -342
 73
   347
  0
VERTEX
  5
4F3
  8
0
 10
0.0
 20
0.0
 30
0.0
 70
   128
 71
  -347
 72
  -342
 73
  -348
  0
VERTEX
  5
4F4
  8
0
 10
0.0
 20
0.0
 30
0.0
 70
   128
 71
  -348
 72
  -342
 73
   349
  0
VERTEX
  5
4F5
  8
0
 10
0.0
 20
0.0
 30
0.0
 70
   128
 71
  -342
 72
  -269
 73
   350
  0
VERTEX
  5
4F6
  8
0
 10
0.0
 20
0.0
 30
0.0
 70
   128
 71
  -350
 72
  -269
 73
  -351
  0
VERTEX
  5
4F7
  8
0
 10
0.0
 20
0.0
 30
0.0
 70
   128
 71
  -351
 72
  -269
 73
   352
  0
VERTEX
  5
4F8
  8
0
 10
0.0
 20
0.0
 30
0.0
 70
   128
 71
  -352
 72
  -269
 73
   271
  0
VERTEX
  5
4F9
  8
0
 10
0.0
 20
0.0
 30
0.0
 70
   128
 71
  -271
 72
  -269
 73
  -272
  0
VERTEX
  5
4FA
  8
0
 10
0.0
 20
0.0
 30
0.0
 70
   128
 71
  -272
 72
  -269
 73
   245
  0
VERTEX
  5
4FB
  8
0
 10
0.0
 20
0.0
 30
0.0
 70
   128
 71
  -350
 72
   351
 73
  -353
  0
VERTEX
  5
4FC
  8
0
 10
0.0
 20
0.0
 30
0.0
 70
   128
 71
  -350
 72
   353
 73
  -354
  0
VERTEX
  5
4FD
  8
0
 10
0.0
 20
0.0
 30
0.0
 70
   128
 71
  -350
 72
   354
 73
  -355
  0
VERTEX
  5
4FE
  8
0
 10
0.0
 20
0.0
 30
0.0
 70
   128
 71
  -350
 72
   355
 73
  -356
  0
VERTEX
  5
4FF
  8
0
 10
0.0
 20
0.0
 30
0.0
 70
   128
 71
  -350
 72
   356
 73
  -357
  0
VERTEX
  5
500
  8
0
 10
0.0
 20
0.0
 30
0.0
 70
   128
 71
  -350
 72
   357
 73
  -358
  0
VERTEX
  5
501
  8
0
 10
0.0
 20
0.0
 30
0.0
 70
   128
 71
  -350
 72
   358
 73
  -359
  0
VERTEX
  5
502
  8
0
 10
0.0
 20
0.0
 30
0.0
 70
   128
 71
  -350
 72
   359
 73
  -360
  0
VERTEX
  5
503
  8
0
 10
0.0
 20
0.0
 30
0.0
 70
   128
 71
  -350
 72
   360
 73
  -361
  0
VERTEX
  5
504
  8
0
 10
0.0
 20
0.0
 30
0.0
 70
   128
 71
  -350
 72
   361
 73
  -288
  0
VERTEX
  5
505
  8
0
 10
0.0
 20
0.0
 30
0.0
 70
   128
 71
  -350
 72
  -288
 73
  -285
  0
VERTEX
  5
506
  8
0
 10
0.0
 20
0.0
 30
0.0
 70
   128
 71
  -350
 72
   285
 73
  -362
  0
VERTEX
  5
507
  8
0
 10
0.0
 20
0.0
 30
0.0
 70
   128
 71
  -350
 72
   362
 73
  -363
  0
VERTEX
  5
508
  8
0
 10
0.0
 20
0.0
 30
0.0
 70
   128
 71
  -350
 72
  -363
 73
   364
  0
VERTEX
  5
509
  8
0
 10
0.0
 20
0.0
 30
0.0
 70
   128
 71
  -364
 72
  -363
 73
  -365
  0
VERTEX
  5
50A
  8
0
 10
0.0
 20
0.0
 30
0.0
 70
   128
 71
  -365
 72
  -363
 73
   366
  0
VERTEX
  5
50B
  8
0
 10
0.0
 20
0.0
 30
0.0
 70
   128
 71
  -366
 72
  -363
 73
  -367
  0
VERTEX
  5
50C
  8
0
 10
0.0
 20
0.0
 30
0.0
 70
   128
 71
  -367
 72
  -363
 73
   368
  0
VERTEX
  5
50D
  8
0
 10
0.0
 20
0.0
 30
0.0
 70
   128
 71
  -368
 72
  -363
 73
  -369
  0
VERTEX
  5
50E
  8
0
 10
0.0
 20
0.0
 30
0.0
 70
   128
 71
  -369
 72
  -363
 73
   370
  0
VERTEX
  5
50F
  8
0
 10
0.0
 20
0.0
 30
0.0
 70
   128
 71
  -371
 72
  -372
 73
   373
  0
VERTEX
  5
510
  8
0
 10
0.0
 20
0.0
 30
0.0
 70
   128
 71
  -372
 72
  -371
 73
   374
  0
VERTEX
  5
511
  8
0
 10
0.0
 20
0.0
 30
0.0
 70
   128
 71
  -374
 72
   371
 73
  -375
  0
VERTEX
  5
512
  8
0
 10
0.0
 20
0.0
 30
0.0
 70
   128
 71
  -374
 72
   375
 73
  -376
  0
VERTEX
  5
513
  8
0
 10
0.0
 20
0.0
 30
0.0
 70
   128
 71
  -374
 72
   376
 73
  -377
  0
VERTEX
  5
514
  8
0
 10
0.0
 20
0.0
 30
0.0
 70
   128
 71
  -374
 72
  -377
 73
  -378
  0
VERTEX
  5
515
  8
0
 10
0.0
 20
0.0
 30
0.0
 70
   128
 71
  -378
 72
   377
 73
  -186
  0
VERTEX
  5
516
  8
0
 10
0.0
 20
0.0
 30
0.0
 70
   128
 71
  -378
 72
  -186
 73
  -177
  0
VERTEX
  5
517
  8
0
 10
0.0
 20
0.0
 30
0.0
 70
   128
 71
  -378
 72
  -177
 73
  -297
  0
VERTEX
  5
518
  8
0
 10
0.0
 20
0.0
 30
0.0
 70
   128
 71
  -378
 72
   297
 73
  -379
  0
VERTEX
  5
519
  8
0
 10
0.0
 20
0.0
 30
0.0
 70
   128
 71
  -378
 72
  -379
 73
  -380
  0
VERTEX
  5
51A
  8
0
 10
0.0
 20
0.0
 30
0.0
 70
   128
 71
  -378
 72
   380
 73
  -381
  0
VERTEX
  5
51B
  8
0
 10
0.0
 20
0.0
 30
0.0
 70
   128
 71
  -378
 72
  -381
 73
  -382
  0
VERTEX
  5
51C
  8
0
 10
0.0
 20
0.0
 30
0.0
 70
   128
 71
  -378
 72
   382
 73
  -383
  0
VERTEX
  5
51D
  8
0
 10
0.0
 20
0.0
 30
0.0
 70
   128
 71
  -378
 72
  -383
 73
   384
  0
VERTEX
  5
51E
  8
0
 10
0.0
 20
0.0
 30
0.0
 70
   128
 71
  -374
 72
   378
 73
  -307
  0
VERTEX
  5
51F
  8
0
 10
0.0
 20
0.0
 30
0.0
 70
   128
 71
  -374
 72
  -307
 73
  -385
  0
VERTEX
  5
520
  8
0
 10
0.0
 20
0.0
 30
0.0
 70
   128
 71
  -374
 72
  -385
 73
   386
  0
VERTEX
  5
521
  8
0
 10
0.0
 20
0.0
 30
0.0
 70
   128
 71
  -385
 72
  -307
 73
   387
  0
VERTEX
  5
522
  8
0
 10
0.0
 20
0.0
 30
0.0
 70
   128
 71
  -387
 72
  -307
 73
  -388
  0
VERTEX
  5
523
  8
0
 10
0.0
 20
0.0
 30
0.0
 70
   128
 71
  -388
 72
  -307
 73
  -300
  0
VERTEX
  5
524
  8
0
 10
0.0
 20
0.0
 30
0.0
 70
   128
 71
  -388
 72
   300
 73
  -389
  0
VERTEX
  5
525
  8
0
 10
0.0
 20
0.0
 30
0.0
 70
   128
 71
  -388
 72
  -389
 73
  -390
  0
VERTEX
  5
526
  8
0
 10
0.0
 20
0.0
 30
0.0
 70
   128
 71
  -388
 72
   390
 73
  -391
  0
VERTEX
  5
527
  8
0
 10
0.0
 20
0.0
 30
0.0
 70
   128
 71
  -388
 72
  -391
 73
  -392
  0
VERTEX
  5
528
  8
0
 10
0.0
 20
0.0
 30
0.0
 70
   128
 71
  -388
 72
   392
 73
  -241
  0
VERTEX
  5
529
  8
0
 10
0.0
 20
0.0
 30
0.0
 70
   128
 71
  -388
 72
  -241
 73
   240
  0
VERTEX
  5
52A
  8
0
 10
0.0
 20
0.0
 30
0.0
 70
   128
 71
  -387
 72
   388
 73
  -243
  0
VERTEX
  5
52B
  8
0
 10
0.0
 20
0.0
 30
0.0
 70
   128
 71
  -387
 72
  -243
 73
  -393
  0
VERTEX
  5
52C
  8
0
 10
0.0
 20
0.0
 30
0.0
 70
   128
 71
  -387
 72
  -393
 73
   394
  0
VERTEX
  5
52D
  8
0
 10
0.0
 20
0.0
 30
0.0
 70
   128
 71
  -393
 72
  -243
 73
   395
  0
VERTEX
  5
52E
  8
0
 10
0.0
 20
0.0
 30
0.0
 70
   128
 71
  -395
 72
  -243
 73
  -396
  0
VERTEX
  5
52F
  8
0
 10
0.0
 20
0.0
 30
0.0
 70
   128
 71
  -396
 72
  -243
 73
  -239
  0
VERTEX
  5
530
  8
0
 10
0.0
 20
0.0
 30
0.0
 70
   128
 71
  -396
 72
  -239
 73
  -311
  0
VERTEX
  5
531
  8
0
 10
0.0
 20
0.0
 30
0.0
 70
   128
 71
  -396
 72
   311
 73
  -397
  0
VERTEX
  5
532
  8
0
 10
0.0
 20
0.0
 30
0.0
 70
   128
 71
  -396
 72
  -397
 73
  -398
  0
VERTEX
  5
533
  8
0
 10
0.0
 20
0.0
 30
0.0
 70
   128
 71
  -396
 72
   398
 73
  -399
  0
VERTEX
  5
534
  8
0
 10
0.0
 20
0.0
 30
0.0
 70
   128
 71
  -396
 72
  -399
 73
  -400
  0
VERTEX
  5
535
  8
0
 10
0.0
 20
0.0
 30
0.0
 70
   128
 71
  -396
 72
   400
 73
  -401
  0
VERTEX
  5
536
  8
0
 10
0.0
 20
0.0
 30
0.0
 70
   128
 71
  -396
 72
  -401
 73
   402
  0
VERTEX
  5
537
  8
0
 10
0.0
 20
0.0
 30
0.0
 70
   128
 71
  -395
 72
   396
 73
  -327
  0
VERTEX
  5
538
  8
0
 10
0.0
 20
0.0
 30
0.0
 70
   128
 71
  -395
 72
  -327
 73
  -403
  0
VERTEX
  5
539
  8
0
 10
0.0
 20
0.0
 30
0.0
 70
   128
 71
  -395
 72
  -403
 73
   404
  0
VERTEX
  5
53A
  8
0
 10
0.0
 20
0.0
 30
0.0
 70
   128
 71
  -403
 72
  -327
 73
   405
  0
VERTEX
  5
53B
  8
0
 10
0.0
 20
0.0
 30
0.0
 70
   128
 71
  -405
 72
  -327
 73
  -406
  0
VERTEX
  5
53C
  8
0
 10
0.0
 20
0.0
 30
0.0
 70
   128
 71
  -406
 72
  -327
 73
  -320
  0
VERTEX
  5
53D
  8
0
 10
0.0
 20
0.0
 30
0.0
 70
   128
 71
  -406
 72
   320
 73
  -407
  0
VERTEX
  5
53E
  8
0
 10
0.0
 20
0.0
 30
0.0
 70
   128
 71
  -406
 72
  -407
 73
  -408
  0
VERTEX
  5
53F
  8
0
 10
0.0
 20
0.0
 30
0.0
 70
   128
 71
  -406
 72
   408
 73
  -409
  0
VERTEX
  5
540
  8
0
 10
0.0
 20
0.0
 30
0.0
 70
   128
 71
  -406
 72
  -409
 73
  -410
  0
VERTEX
  5
541
  8
0
 10
0.0
 20
0.0
 30
0.0
 70
   128
 71
  -406
 72
   410
 73
  -411
  0
VERTEX
  5
542
  8
0
 10
0.0
 20
0.0
 30
0.0
 70
   128
 71
  -406
 72
  -411
 73
   412
  0
VERTEX
  5
543
  8
0
 10
0.0
 20
0.0
 30
0.0
 70
   128
 71
  -405
 72
   406
 73
  -339
  0
VERTEX
  5
544
  8
0
 10
0.0
 20
0.0
 30
0.0
 70
   128
 71
  -405
 72
  -339
 73
  -413
  0
VERTEX
  5
545
  8
0
 10
0.0
 20
0.0
 30
0.0
 70
   128
 71
  -405
 72
  -413
 73
   414
  0
VERTEX
  5
546
  8
0
 10
0.0
 20
0.0
 30
0.0
 70
   128
 71
  -413
 72
  -339
 73
   415
  0
VERTEX
  5
547
  8
0
 10
0.0
 20
0.0
 30
0.0
 70
   128
 71
  -415
 72
  -339
 73
  -416
  0
VERTEX
  5
548
  8
0
 10
0.0
 20
0.0
 30
0.0
 70
   128
 71
  -416
 72
  -339
 73
  -332
  0
VERTEX
  5
549
  8
0
 10
0.0
 20
0.0
 30
0.0
 70
   128
 71
  -416
 72
   332
 73
  -417
  0
VERTEX
  5
54A
  8
0
 10
0.0
 20
0.0
 30
0.0
 70
   128
 71
  -416
 72
  -417
 73
  -418
  0
VERTEX
  5
54B
  8
0
 10
0.0
 20
0.0
 30
0.0
 70
   128
 71
  -416
 72
   418
 73
  -419
  0
VERTEX
  5
54C
  8
0
 10
0.0
 20
0.0
 30
0.0
 70
   128
 71
  -416
 72
  -419
 73
  -420
  0
VERTEX
  5
54D
  8
0
 10
0.0
 20
0.0
 30
0.0
 70
   128
 71
  -416
 72
   420
 73
  -421
  0
VERTEX
  5
54E
  8
0
 10
0.0
 20
0.0
 30
0.0
 70
   128
 71
  -416
 72
  -421
 73
   422
  0
VERTEX
  5
54F
  8
0
 10
0.0
 20
0.0
 30
0.0
 70
   128
 71
  -415
 72
   416
 73
  -349
  0
VERTEX
  5
550
  8
0
 10
0.0
 20
0.0
 30
0.0
 70
   128
 71
  -415
 72
  -349
 73
  -423
  0
VERTEX
  5
551
  8
0
 10
0.0
 20
0.0
 30
0.0
 70
   128
 71
  -423
 72
  -349
 73
  -342
  0
VERTEX
  5
552
  8
0
 10
0.0
 20
0.0
 30
0.0
 70
   128
 71
  -423
 72
   342
 73
  -424
  0
VERTEX
  5
553
  8
0
 10
0.0
 20
0.0
 30
0.0
 70
   128
 71
  -423
 72
  -424
 73
  -425
  0
VERTEX
  5
554
  8
0
 10
0.0
 20
0.0
 30
0.0
 70
   128
 71
  -423
 72
   425
 73
  -426
  0
VERTEX
  5
555
  8
0
 10
0.0
 20
0.0
 30
0.0
 70
   128
 71
  -423
 72
  -426
 73
  -427
  0
VERTEX
  5
556
  8
0
 10
0.0
 20
0.0
 30
0.0
 70
   128
 71
  -423
 72
   427
 73
  -428
  0
VERTEX
  5
557
  8
0
 10
0.0
 20
0.0
 30
0.0
 70
   128
 71
  -423
 72
  -428
 73
   429
  0
VERTEX
  5
558
  8
0
 10
0.0
 20
0.0
 30
0.0
 70
   128
 71
  -415
 72
   423
 73
  -370
  0
VERTEX
  5
559
  8
0
 10
0.0
 20
0.0
 30
0.0
 70
   128
 71
  -415
 72
  -370
 73
   430
  0
VERTEX
  5
55A
  8
0
 10
0.0
 20
0.0
 30
0.0
 70
   128
 71
  -430
 72
  -370
 73
  -431
  0
VERTEX
  5
55B
  8
0
 10
0.0
 20
0.0
 30
0.0
 70
   128
 71
  -431
 72
  -370
 73
   432
  0
VERTEX
  5
55C
  8
0
 10
0.0
 20
0.0
 30
0.0
 70
   128
 71
  -432
 72
  -370
 73
  -433
  0
VERTEX
  5
55D
  8
0
 10
0.0
 20
0.0
 30
0.0
 70
   128
 71
  -433
 72
  -370
 73
   434
  0
VERTEX
  5
55E
  8
0
 10
0.0
 20
0.0
 30
0.0
 70
   128
 71
  -434
 72
  -370
 73
  -435
  0
VERTEX
  5
55F
  8
0
 10
0.0
 20
0.0
 30
0.0
 70
   128
 71
  -435
 72
  -370
 73
   436
  0
VERTEX
  5
560
  8
0
 10
0.0
 20
0.0
 30
0.0
 70
   128
 71
  -436
 72
  -370
 73
  -437
  0
VERTEX
  5
561
  8
0
 10
0.0
 20
0.0
 30
0.0
 70
   128
 71
  -437
 72
  -370
 73
   438
  0
VERTEX
  5
562
  8
0
 10
0.0
 20
0.0
 30
0.0
 70
   128
 71
  -438
 72
  -370
 73
  -439
  0
VERTEX
  5
563
  8
0
 10
0.0
 20
0.0
 30
0.0
 70
   128
 71
  -439
 72
  -370
 73
   440
  0
VERTEX
  5
564
  8
0
 10
0.0
 20
0.0
 30
0.0
 70
   128
 71
  -440
 72
  -370
 73
   441
  0
VERTEX
  5
565
  8
0
 10
0.0
 20
0.0
 30
0.0
 70
   128
 71
  -441
 72
  -370
 73
   442
  0
VERTEX
  5
566
  8
0
 10
0.0
 20
0.0
 30
0.0
 70
   128
 71
  -442
 72
  -370
 73
   443
  0
VERTEX
  5
567
  8
0
 10
0.0
 20
0.0
 30
0.0
 70
   128
 71
  -443
 72
  -370
 73
   444
  0
VERTEX
  5
568
  8
0
 10
0.0
 20
0.0
 30
0.0
 70
   128
 71
  -444
 72
  -370
 73
   445
  0
VERTEX
  5
569
  8
0
 10
0.0
 20
0.0
 30
0.0
 70
   128
 71
  -445
 72
  -370
 73
   446
  0
VERTEX
  5
56A
  8
0
 10
0.0
 20
0.0
 30
0.0
 70
   128
 71
  -446
 72
  -370
 73
   363
  0
VERTEX
  5
56B
  8
0
 10
0.0
 20
0.0
 30
0.0
 70
   128
 71
  -368
 72
  -429
 73
   428
  0
VERTEX
  5
56C
  8
0
 10
0.0
 20
0.0
 30
0.0
 70
   128
 71
  -429
 72
  -368
 73
   369
  0
VERTEX
  5
56D
  8
0
 10
0.0
 20
0.0
 30
0.0
 70
   128
 71
  -366
 72
  -427
 73
   426
  0
VERTEX
  5
56E
  8
0
 10
0.0
 20
0.0
 30
0.0
 70
   128
 71
  -427
 72
  -366
 73
   367
  0
VERTEX
  5
56F
  8
0
 10
0.0
 20
0.0
 30
0.0
 70
   128
 71
  -364
 72
  -425
 73
   424
  0
VERTEX
  5
570
  8
0
 10
0.0
 20
0.0
 30
0.0
 70
   128
 71
  -425
 72
  -364
 73
   365
  0
VERTEX
  5
571
  8
0
 10
0.0
 20
0.0
 30
0.0
 70
   128
 71
   -45
 72
   -96
 73
   447
  0
VERTEX
  5
572
  8
0
 10
0.0
 20
0.0
 30
0.0
 70
   128
 71
   -96
 72
   -45
 73
   -94
  0
VERTEX
  5
573
  8
0
 10
0.0
 20
0.0
 30
0.0
 70
   128
 71
   -94
 72
   -45
 73
    44
  0
VERTEX
  5
574
  8
0
 10
0.0
 20
0.0
 30
0.0
 70
   128
 71
  -447
 72
    96
 73
  -448
  0
VERTEX
  5
575
  8
0
 10
0.0
 20
0.0
 30
0.0
 70
   128
 71
  -447
 72
   448
 73
  -449
  0
VERTEX
  5
576
  8
0
 10
0.0
 20
0.0
 30
0.0
 70
   128
 71
  -447
 72
   449
 73
  -450
  0
VERTEX
  5
577
  8
0
 10
0.0
 20
0.0
 30
0.0
 70
   128
 71
  -447
 72
  -450
 73
   451
  0
VERTEX
  5
578
  8
0
 10
0.0
 20
0.0
 30
0.0
 70
   128
 71
  -451
 72
   450
 73
  -452
  0
VERTEX
  5
579
  8
0
 10
0.0
 20
0.0
 30
0.0
 70
   128
 71
  -451
 72
  -452
 73
   453
  0
VERTEX
  5
57A
  8
0
 10
0.0
 20
0.0
 30
0.0
 70
   128
 71
  -453
 72
   452
 73
  -454
  0
VERTEX
  5
57B
  8
0
 10
0.0
 20
0.0
 30
0.0
 70
   128
 71
  -453
 72
  -454
 73
   455
  0
VERTEX
  5
57C
  8
0
 10
0.0
 20
0.0
 30
0.0
 70
   128
 71
  -455
 72
  -454
 73
   456
  0
VERTEX
  5
57D
  8
0
 10
0.0
 20
0.0
 30
0.0
 70
   128
 71
  -456
 72
   454
 73
  -457
  0
VERTEX
  5
57E
  8
0
 10
0.0
 20
0.0
 30
0.0
 70
   128
 71
  -456
 72
  -457
 73
   458
  0
VERTEX
  5
57F
  8
0
 10
0.0
 20
0.0
 30
0.0
 70
   128
 71
  -458
 72
  -457
 73
   459
  0
VERTEX
  5
580
  8
0
 10
0.0
 20
0.0
 30
0.0
 70
   128
 71
  -459
 72
  -457
 73
   460
  0
VERTEX
  5
581
  8
0
 10
0.0
 20
0.0
 30
0.0
 70
   128
 71
  -460
 72
  -457
 73
  -461
  0
VERTEX
  5
582
  8
0
 10
0.0
 20
0.0
 30
0.0
 70
   128
 71
  -460
 72
  -461
 73
  -462
  0
VERTEX
  5
583
  8
0
 10
0.0
 20
0.0
 30
0.0
 70
   128
 71
  -460
 72
  -462
 73
   463
  0
VERTEX
  5
584
  8
0
 10
0.0
 20
0.0
 30
0.0
 70
   128
 71
  -461
 72
   457
 73
  -464
  0
VERTEX
  5
585
  8
0
 10
0.0
 20
0.0
 30
0.0
 70
   128
 71
  -461
 72
   464
 73
   -14
  0
VERTEX
  5
586
  8
0
 10
0.0
 20
0.0
 30
0.0
 70
   128
 71
  -461
 72
   -14
 73
   -13
  0
VERTEX
  5
587
  8
0
 10
0.0
 20
0.0
 30
0.0
 70
   128
 71
  -461
 72
    13
 73
    -3
  0
VERTEX
  5
588
  8
0
 10
0.0
 20
0.0
 30
0.0
 70
   128
 71
  -461
 72
    -3
 73
    -2
  0
VERTEX
  5
589
  8
0
 10
0.0
 20
0.0
 30
0.0
 70
   128
 71
  -461
 72
     2
 73
   -78
  0
VERTEX
  5
58A
  8
0
 10
0.0
 20
0.0
 30
0.0
 70
   128
 71
  -461
 72
   -78
 73
   -77
  0
VERTEX
  5
58B
  8
0
 10
0.0
 20
0.0
 30
0.0
 70
   128
 71
  -461
 72
    77
 73
   -76
  0
VERTEX
  5
58C
  8
0
 10
0.0
 20
0.0
 30
0.0
 70
   128
 71
  -461
 72
   -76
 73
   -75
  0
VERTEX
  5
58D
  8
0
 10
0.0
 20
0.0
 30
0.0
 70
   128
 71
  -461
 72
    75
 73
   -74
  0
VERTEX
  5
58E
  8
0
 10
0.0
 20
0.0
 30
0.0
 70
   128
 71
  -461
 72
   -74
 73
    73
  0
VERTEX
  5
58F
  8
0
 10
0.0
 20
0.0
 30
0.0
 70
   128
 71
  -462
 72
   461
 73
   -11
  0
VERTEX
  5
590
  8
0
 10
0.0
 20
0.0
 30
0.0
 70
   128
 71
  -462
 72
   -11
 73
  -465
  0
VERTEX
  5
591
  8
0
 10
0.0
 20
0.0
 30
0.0
 70
   128
 71
  -465
 72
   -11
 73
    28
  0
VERTEX
  5
592
  8
0
 10
0.0
 20
0.0
 30
0.0
 70
   128
 71
   -28
 72
   -11
 73
    -1
  0
VERTEX
  5
593
  8
0
 10
0.0
 20
0.0
 30
0.0
 70
   128
 71
  -462
 72
   465
 73
  -466
  0
VERTEX
  5
594
  8
0
 10
0.0
 20
0.0
 30
0.0
 70
   128
 71
  -462
 72
   466
 73
  -467
  0
VERTEX
  5
595
  8
0
 10
0.0
 20
0.0
 30
0.0
 70
   128
 71
  -462
 72
   467
 73
  -468
  0
VERTEX
  5
596
  8
0
 10
0.0
 20
0.0
 30
0.0
 70
   128
 71
  -462
 72
   468
 73
  -469
  0
VERTEX
  5
597
  8
0
 10
0.0
 20
0.0
 30
0.0
 70
   128
 71
  -462
 72
   469
 73
  -470
  0
VERTEX
  5
598
  8
0
 10
0.0
 20
0.0
 30
0.0
 70
   128
 71
  -462
 72
   470
 73
  -471
  0
VERTEX
  5
599
  8
0
 10
0.0
 20
0.0
 30
0.0
 70
   128
 71
  -462
 72
   471
 73
  -472
  0
VERTEX
  5
59A
  8
0
 10
0.0
 20
0.0
 30
0.0
 70
   128
 71
  -462
 72
   472
 73
  -473
  0
VERTEX
  5
59B
  8
0
 10
0.0
 20
0.0
 30
0.0
 70
   128
 71
  -462
 72
   473
 73
  -474
  0
VERTEX
  5
59C
  8
0
 10
0.0
 20
0.0
 30
0.0
 70
   128
 71
  -462
 72
   474
 73
  -475
  0
VERTEX
  5
59D
  8
0
 10
0.0
 20
0.0
 30
0.0
 70
   128
 71
  -462
 72
   475
 73
   -42
  0
VERTEX
  5
59E
  8
0
 10
0.0
 20
0.0
 30
0.0
 70
   128
 71
  -462
 72
   -42
 73
  -476
  0
VERTEX
  5
59F
  8
0
 10
0.0
 20
0.0
 30
0.0
 70
   128
 71
  -476
 72
   -42
 73
   -40
  0
VERTEX
  5
5A0
  8
0
 10
0.0
 20
0.0
 30
0.0
 70
   128
 71
  -476
 72
   -40
 73
   156
  0
VERTEX
  5
5A1
  8
0
 10
0.0
 20
0.0
 30
0.0
 70
   128
 71
  -462
 72
  -476
 73
   477
  0
VERTEX
  5
5A2
  8
0
 10
0.0
 20
0.0
 30
0.0
 70
   128
 71
  -463
 72
   462
 73
  -478
  0
VERTEX
  5
5A3
  8
0
 10
0.0
 20
0.0
 30
0.0
 70
   128
 71
  -463
 72
  -478
 73
  -479
  0
VERTEX
  5
5A4
  8
0
 10
0.0
 20
0.0
 30
0.0
 70
   128
 71
  -479
 72
  -478
 73
  -480
  0
VERTEX
  5
5A5
  8
0
 10
0.0
 20
0.0
 30
0.0
 70
   128
 71
  -479
 72
   480
 73
  -481
  0
VERTEX
  5
5A6
  8
0
 10
0.0
 20
0.0
 30
0.0
 70
   128
 71
  -479
 72
   481
 73
  -482
  0
VERTEX
  5
5A7
  8
0
 10
0.0
 20
0.0
 30
0.0
 70
   128
 71
  -479
 72
   482
 73
  -483
  0
VERTEX
  5
5A8
  8
0
 10
0.0
 20
0.0
 30
0.0
 70
   128
 71
  -479
 72
   483
 73
  -484
  0
VERTEX
  5
5A9
  8
0
 10
0.0
 20
0.0
 30
0.0
 70
   128
 71
  -479
 72
   484
 73
  -485
  0
VERTEX
  5
5AA
  8
0
 10
0.0
 20
0.0
 30
0.0
 70
   128
 71
  -479
 72
   485
 73
  -486
  0
VERTEX
  5
5AB
  8
0
 10
0.0
 20
0.0
 30
0.0
 70
   128
 71
  -479
 72
   486
 73
  -487
  0
VERTEX
  5
5AC
  8
0
 10
0.0
 20
0.0
 30
0.0
 70
   128
 71
  -479
 72
   487
 73
  -488
  0
VERTEX
  5
5AD
  8
0
 10
0.0
 20
0.0
 30
0.0
 70
   128
 71
  -479
 72
   488
 73
  -489
  0
VERTEX
  5
5AE
  8
0
 10
0.0
 20
0.0
 30
0.0
 70
   128
 71
  -479
 72
   489
 73
  -490
  0
VERTEX
  5
5AF
  8
0
 10
0.0
 20
0.0
 30
0.0
 70
   128
 71
  -479
 72
   490
 73
  -491
  0
VERTEX
  5
5B0
  8
0
 10
0.0
 20
0.0
 30
0.0
 70
   128
 71
  -479
 72
   491
 73
  -492
  0
VERTEX
  5
5B1
  8
0
 10
0.0
 20
0.0
 30
0.0
 70
   128
 71
  -479
 72
  -492
 73
  -493
  0
VERTEX
  5
5B2
  8
0
 10
0.0
 20
0.0
 30
0.0
 70
   128
 71
  -479
 72
   493
 73
  -494
  0
VERTEX
  5
5B3
  8
0
 10
0.0
 20
0.0
 30
0.0
 70
   128
 71
  -479
 72
  -494
 73
  -495
  0
VERTEX
  5
5B4
  8
0
 10
0.0
 20
0.0
 30
0.0
 70
   128
 71
  -479
 72
   495
 73
  -496
  0
VERTEX
  5
5B5
  8
0
 10
0.0
 20
0.0
 30
0.0
 70
   128
 71
  -479
 72
  -496
 73
  -497
  0
VERTEX
  5
5B6
  8
0
 10
0.0
 20
0.0
 30
0.0
 70
   128
 71
  -479
 72
   497
 73
  -498
  0
VERTEX
  5
5B7
  8
0
 10
0.0
 20
0.0
 30
0.0
 70
   128
 71
  -479
 72
  -498
 73
   499
  0
VERTEX
  5
5B8
  8
0
 10
0.0
 20
0.0
 30
0.0
 70
   128
 71
  -463
 72
   479
 73
  -438
  0
VERTEX
  5
5B9
  8
0
 10
0.0
 20
0.0
 30
0.0
 70
   128
 71
  -463
 72
  -438
 73
   439
  0
VERTEX
  5
5BA
  8
0
 10
0.0
 20
0.0
 30
0.0
 70
   128
 71
  -436
 72
  -499
 73
   498
  0
VERTEX
  5
5BB
  8
0
 10
0.0
 20
0.0
 30
0.0
 70
   128
 71
  -499
 72
  -436
 73
   437
  0
VERTEX
  5
5BC
  8
0
 10
0.0
 20
0.0
 30
0.0
 70
   128
 71
  -434
 72
  -497
 73
   496
  0
VERTEX
  5
5BD
  8
0
 10
0.0
 20
0.0
 30
0.0
 70
   128
 71
  -497
 72
  -434
 73
   435
  0
VERTEX
  5
5BE
  8
0
 10
0.0
 20
0.0
 30
0.0
 70
   128
 71
  -432
 72
  -495
 73
   494
  0
VERTEX
  5
5BF
  8
0
 10
0.0
 20
0.0
 30
0.0
 70
   128
 71
  -495
 72
  -432
 73
   433
  0
VERTEX
  5
5C0
  8
0
 10
0.0
 20
0.0
 30
0.0
 70
   128
 71
  -169
 72
  -477
 73
   476
  0
VERTEX
  5
5C1
  8
0
 10
0.0
 20
0.0
 30
0.0
 70
   128
 71
  -477
 72
  -169
 73
   500
  0
VERTEX
  5
5C2
  8
0
 10
0.0
 20
0.0
 30
0.0
 70
   128
 71
  -500
 72
  -169
 73
  -501
  0
VERTEX
  5
5C3
  8
0
 10
0.0
 20
0.0
 30
0.0
 70
   128
 71
  -501
 72
  -169
 73
  -168
  0
VERTEX
  5
5C4
  8
0
 10
0.0
 20
0.0
 30
0.0
 70
   128
 71
  -501
 72
   168
 73
  -502
  0
VERTEX
  5
5C5
  8
0
 10
0.0
 20
0.0
 30
0.0
 70
   128
 71
  -501
 72
   502
 73
  -373
  0
VERTEX
  5
5C6
  8
0
 10
0.0
 20
0.0
 30
0.0
 70
   128
 71
  -501
 72
  -373
 73
   372
  0
VERTEX
  5
5C7
  8
0
 10
0.0
 20
0.0
 30
0.0
 70
   128
 71
  -500
 72
   501
 73
  -386
  0
VERTEX
  5
5C8
  8
0
 10
0.0
 20
0.0
 30
0.0
 70
   128
 71
  -500
 72
  -386
 73
  -503
  0
VERTEX
  5
5C9
  8
0
 10
0.0
 20
0.0
 30
0.0
 70
   128
 71
  -503
 72
  -386
 73
   385
  0
VERTEX
  5
5CA
  8
0
 10
0.0
 20
0.0
 30
0.0
 70
   128
 71
  -500
 72
   503
 73
  -394
  0
VERTEX
  5
5CB
  8
0
 10
0.0
 20
0.0
 30
0.0
 70
   128
 71
  -500
 72
  -394
 73
  -504
  0
VERTEX
  5
5CC
  8
0
 10
0.0
 20
0.0
 30
0.0
 70
   128
 71
  -504
 72
  -394
 73
   393
  0
VERTEX
  5
5CD
  8
0
 10
0.0
 20
0.0
 30
0.0
 70
   128
 71
  -500
 72
   504
 73
  -404
  0
VERTEX
  5
5CE
  8
0
 10
0.0
 20
0.0
 30
0.0
 70
   128
 71
  -500
 72
  -404
 73
  -505
  0
VERTEX
  5
5CF
  8
0
 10
0.0
 20
0.0
 30
0.0
 70
   128
 71
  -505
 72
  -404
 73
   403
  0
VERTEX
  5
5D0
  8
0
 10
0.0
 20
0.0
 30
0.0
 70
   128
 71
  -500
 72
   505
 73
  -414
  0
VERTEX
  5
5D1
  8
0
 10
0.0
 20
0.0
 30
0.0
 70
   128
 71
  -500
 72
  -414
 73
  -506
  0
VERTEX
  5
5D2
  8
0
 10
0.0
 20
0.0
 30
0.0
 70
   128
 71
  -506
 72
  -414
 73
   413
  0
VERTEX
  5
5D3
  8
0
 10
0.0
 20
0.0
 30
0.0
 70
   128
 71
  -500
 72
   506
 73
  -430
  0
VERTEX
  5
5D4
  8
0
 10
0.0
 20
0.0
 30
0.0
 70
   128
 71
  -500
 72
  -430
 73
  -507
  0
VERTEX
  5
5D5
  8
0
 10
0.0
 20
0.0
 30
0.0
 70
   128
 71
  -500
 72
   507
 73
  -508
  0
VERTEX
  5
5D6
  8
0
 10
0.0
 20
0.0
 30
0.0
 70
   128
 71
  -500
 72
   508
 73
  -509
  0
VERTEX
  5
5D7
  8
0
 10
0.0
 20
0.0
 30
0.0
 70
   128
 71
  -500
 72
   509
 73
  -510
  0
VERTEX
  5
5D8
  8
0
 10
0.0
 20
0.0
 30
0.0
 70
   128
 71
  -500
 72
   510
 73
  -480
  0
VERTEX
  5
5D9
  8
0
 10
0.0
 20
0.0
 30
0.0
 70
   128
 71
  -500
 72
  -480
 73
   478
  0
VERTEX
  5
5DA
  8
0
 10
0.0
 20
0.0
 30
0.0
 70
   128
 71
  -507
 72
  -430
 73
   511
  0
VERTEX
  5
5DB
  8
0
 10
0.0
 20
0.0
 30
0.0
 70
   128
 71
  -511
 72
  -430
 73
   512
  0
VERTEX
  5
5DC
  8
0
 10
0.0
 20
0.0
 30
0.0
 70
   128
 71
  -512
 72
  -430
 73
   513
  0
VERTEX
  5
5DD
  8
0
 10
0.0
 20
0.0
 30
0.0
 70
   128
 71
  -513
 72
  -430
 73
   514
  0
VERTEX
  5
5DE
  8
0
 10
0.0
 20
0.0
 30
0.0
 70
   128
 71
  -514
 72
  -430
 73
   515
  0
VERTEX
  5
5DF
  8
0
 10
0.0
 20
0.0
 30
0.0
 70
   128
 71
  -515
 72
  -430
 73
   516
  0
VERTEX
  5
5E0
  8
0
 10
0.0
 20
0.0
 30
0.0
 70
   128
 71
  -516
 72
  -430
 73
   517
  0
VERTEX
  5
5E1
  8
0
 10
0.0
 20
0.0
 30
0.0
 70
   128
 71
  -517
 72
  -430
 73
   492
  0
VERTEX
  5
5E2
  8
0
 10
0.0
 20
0.0
 30
0.0
 70
   128
 71
  -492
 72
  -430
 73
  -493
  0
VERTEX
  5
5E3
  8
0
 10
0.0
 20
0.0
 30
0.0
 70
   128
 71
  -493
 72
  -430
 73
   431
  0
VERTEX
  5
5E4
  8
0
 10
0.0
 20
0.0
 30
0.0
 70
   128
 71
  -347
 72
  -422
 73
   421
  0
VERTEX
  5
5E5
  8
0
 10
0.0
 20
0.0
 30
0.0
 70
   128
 71
  -422
 72
  -347
 73
   348
  0
VERTEX
  5
5E6
  8
0
 10
0.0
 20
0.0
 30
0.0
 70
   128
 71
  -345
 72
  -420
 73
   419
  0
VERTEX
  5
5E7
  8
0
 10
0.0
 20
0.0
 30
0.0
 70
   128
 71
  -420
 72
  -345
 73
   346
  0
VERTEX
  5
5E8
  8
0
 10
0.0
 20
0.0
 30
0.0
 70
   128
 71
  -343
 72
  -418
 73
   417
  0
VERTEX
  5
5E9
  8
0
 10
0.0
 20
0.0
 30
0.0
 70
   128
 71
  -418
 72
  -343
 73
   344
  0
VERTEX
  5
5EA
  8
0
 10
0.0
 20
0.0
 30
0.0
 70
   128
 71
  -265
 72
  -331
 73
   330
  0
VERTEX
  5
5EB
  8
0
 10
0.0
 20
0.0
 30
0.0
 70
   128
 71
  -331
 72
  -265
 73
   266
  0
VERTEX
  5
5EC
  8
0
 10
0.0
 20
0.0
 30
0.0
 70
   128
 71
  -337
 72
  -412
 73
   411
  0
VERTEX
  5
5ED
  8
0
 10
0.0
 20
0.0
 30
0.0
 70
   128
 71
  -412
 72
  -337
 73
   338
  0
VERTEX
  5
5EE
  8
0
 10
0.0
 20
0.0
 30
0.0
 70
   128
 71
  -335
 72
  -410
 73
   409
  0
VERTEX
  5
5EF
  8
0
 10
0.0
 20
0.0
 30
0.0
 70
   128
 71
  -410
 72
  -335
 73
   336
  0
VERTEX
  5
5F0
  8
0
 10
0.0
 20
0.0
 30
0.0
 70
   128
 71
  -333
 72
  -408
 73
   407
  0
VERTEX
  5
5F1
  8
0
 10
0.0
 20
0.0
 30
0.0
 70
   128
 71
  -408
 72
  -333
 73
   334
  0
VERTEX
  5
5F2
  8
0
 10
0.0
 20
0.0
 30
0.0
 70
   128
 71
  -260
 72
  -319
 73
   318
  0
VERTEX
  5
5F3
  8
0
 10
0.0
 20
0.0
 30
0.0
 70
   128
 71
  -319
 72
  -260
 73
   261
  0
VERTEX
  5
5F4
  8
0
 10
0.0
 20
0.0
 30
0.0
 70
   128
 71
  -325
 72
  -402
 73
   401
  0
VERTEX
  5
5F5
  8
0
 10
0.0
 20
0.0
 30
0.0
 70
   128
 71
  -402
 72
  -325
 73
   326
  0
VERTEX
  5
5F6
  8
0
 10
0.0
 20
0.0
 30
0.0
 70
   128
 71
  -323
 72
  -400
 73
   399
  0
VERTEX
  5
5F7
  8
0
 10
0.0
 20
0.0
 30
0.0
 70
   128
 71
  -400
 72
  -323
 73
   324
  0
VERTEX
  5
5F8
  8
0
 10
0.0
 20
0.0
 30
0.0
 70
   128
 71
  -321
 72
  -398
 73
   397
  0
VERTEX
  5
5F9
  8
0
 10
0.0
 20
0.0
 30
0.0
 70
   128
 71
  -398
 72
  -321
 73
   322
  0
VERTEX
  5
5FA
  8
0
 10
0.0
 20
0.0
 30
0.0
 70
   128
 71
  -251
 72
  -518
 73
   519
  0
VERTEX
  5
5FB
  8
0
 10
0.0
 20
0.0
 30
0.0
 70
   128
 71
  -518
 72
  -251
 73
   249
  0
VERTEX
  5
5FC
  8
0
 10
0.0
 20
0.0
 30
0.0
 70
   128
 71
  -519
 72
   518
 73
  -255
  0
VERTEX
  5
5FD
  8
0
 10
0.0
 20
0.0
 30
0.0
 70
   128
 71
  -519
 72
  -255
 73
  -310
  0
VERTEX
  5
5FE
  8
0
 10
0.0
 20
0.0
 30
0.0
 70
   128
 71
  -519
 72
  -310
 73
   299
  0
VERTEX
  5
5FF
  8
0
 10
0.0
 20
0.0
 30
0.0
 70
   128
 71
  -310
 72
  -255
 73
   256
  0
VERTEX
  5
600
  8
0
 10
0.0
 20
0.0
 30
0.0
 70
   128
 71
  -314
 72
  -392
 73
   391
  0
VERTEX
  5
601
  8
0
 10
0.0
 20
0.0
 30
0.0
 70
   128
 71
  -392
 72
  -314
 73
   315
  0
VERTEX
  5
602
  8
0
 10
0.0
 20
0.0
 30
0.0
 70
   128
 71
  -312
 72
  -390
 73
   389
  0
VERTEX
  5
603
  8
0
 10
0.0
 20
0.0
 30
0.0
 70
   128
 71
  -390
 72
  -312
 73
   313
  0
VERTEX
  5
604
  8
0
 10
0.0
 20
0.0
 30
0.0
 70
   128
 71
  -305
 72
  -384
 73
   383
  0
VERTEX
  5
605
  8
0
 10
0.0
 20
0.0
 30
0.0
 70
   128
 71
  -384
 72
  -305
 73
   306
  0
VERTEX
  5
606
  8
0
 10
0.0
 20
0.0
 30
0.0
 70
   128
 71
  -303
 72
  -382
 73
   381
  0
VERTEX
  5
607
  8
0
 10
0.0
 20
0.0
 30
0.0
 70
   128
 71
  -382
 72
  -303
 73
   304
  0
VERTEX
  5
608
  8
0
 10
0.0
 20
0.0
 30
0.0
 70
   128
 71
  -301
 72
  -380
 73
   379
  0
VERTEX
  5
609
  8
0
 10
0.0
 20
0.0
 30
0.0
 70
   128
 71
  -380
 72
  -301
 73
   302
  0
VERTEX
  5
60A
  8
0
 10
0.0
 20
0.0
 30
0.0
 70
   128
 71
   -23
 72
  -520
 73
   -21
  0
VERTEX
  5
60B
  8
0
 10
0.0
 20
0.0
 30
0.0
 70
   128
 71
  -520
 72
    23
 73
  -521
  0
VERTEX
  5
60C
  8
0
 10
0.0
 20
0.0
 30
0.0
 70
   128
 71
  -520
 72
  -521
 73
   522
  0
VERTEX
  5
60D
  8
0
 10
0.0
 20
0.0
 30
0.0
 70
   128
 71
  -522
 72
  -521
 73
   523
  0
VERTEX
  5
60E
  8
0
 10
0.0
 20
0.0
 30
0.0
 70
   128
 71
  -523
 72
   521
 73
  -524
  0
VERTEX
  5
60F
  8
0
 10
0.0
 20
0.0
 30
0.0
 70
   128
 71
  -523
 72
  -524
 73
   525
  0
VERTEX
  5
610
  8
0
 10
0.0
 20
0.0
 30
0.0
 70
   128
 71
  -525
 72
   524
 73
  -526
  0
VERTEX
  5
611
  8
0
 10
0.0
 20
0.0
 30
0.0
 70
   128
 71
  -525
 72
  -526
 73
   527
  0
VERTEX
  5
612
  8
0
 10
0.0
 20
0.0
 30
0.0
 70
   128
 71
  -527
 72
   526
 73
  -528
  0
VERTEX
  5
613
  8
0
 10
0.0
 20
0.0
 30
0.0
 70
   128
 71
  -527
 72
  -528
 73
   529
  0
VERTEX
  5
614
  8
0
 10
0.0
 20
0.0
 30
0.0
 70
   128
 71
  -529
 72
   528
 73
  -530
  0
VERTEX
  5
615
  8
0
 10
0.0
 20
0.0
 30
0.0
 70
   128
 71
  -529
 72
  -530
 73
   531
  0
VERTEX
  5
616
  8
0
 10
0.0
 20
0.0
 30
0.0
 70
   128
 71
  -531
 72
   530
 73
  -532
  0
VERTEX
  5
617
  8
0
 10
0.0
 20
0.0
 30
0.0
 70
   128
 71
  -531
 72
  -532
 73
   533
  0
VERTEX
  5
618
  8
0
 10
0.0
 20
0.0
 30
0.0
 70
   128
 71
  -533
 72
   532
 73
  -534
  0
VERTEX
  5
619
  8
0
 10
0.0
 20
0.0
 30
0.0
 70
   128
 71
  -533
 72
  -534
 73
   535
  0
VERTEX
  5
61A
  8
0
 10
0.0
 20
0.0
 30
0.0
 70
   128
 71
  -535
 72
   534
 73
  -536
  0
VERTEX
  5
61B
  8
0
 10
0.0
 20
0.0
 30
0.0
 70
   128
 71
  -535
 72
  -536
 73
   537
  0
VERTEX
  5
61C
  8
0
 10
0.0
 20
0.0
 30
0.0
 70
   128
 71
  -537
 72
   536
 73
  -538
  0
VERTEX
  5
61D
  8
0
 10
0.0
 20
0.0
 30
0.0
 70
   128
 71
  -537
 72
  -538
 73
   539
  0
VERTEX
  5
61E
  8
0
 10
0.0
 20
0.0
 30
0.0
 70
   128
 71
  -539
 72
   538
 73
  -540
  0
VERTEX
  5
61F
  8
0
 10
0.0
 20
0.0
 30
0.0
 70
   128
 71
  -539
 72
  -540
 73
   541
  0
VERTEX
  5
620
  8
0
 10
0.0
 20
0.0
 30
0.0
 70
   128
 71
  -541
 72
   540
 73
  -542
  0
VERTEX
  5
621
  8
0
 10
0.0
 20
0.0
 30
0.0
 70
   128
 71
  -541
 72
  -542
 73
   543
  0
VERTEX
  5
622
  8
0
 10
0.0
 20
0.0
 30
0.0
 70
   128
 71
  -543
 72
   542
 73
  -544
  0
VERTEX
  5
623
  8
0
 10
0.0
 20
0.0
 30
0.0
 70
   128
 71
   -68
 72
   545
 73
   -23
  0
VERTEX
  5
624
  8
0
 10
0.0
 20
0.0
 30
0.0
 70
   128
 71
  -545
 72
    68
 73
  -546
  0
VERTEX
  5
625
  8
0
 10
0.0
 20
0.0
 30
0.0
 70
   128
 71
  -545
 72
  -546
 73
   547
  0
VERTEX
  5
626
  8
0
 10
0.0
 20
0.0
 30
0.0
 70
   128
 71
  -547
 72
   546
 73
  -548
  0
VERTEX
  5
627
  8
0
 10
0.0
 20
0.0
 30
0.0
 70
   128
 71
  -547
 72
  -548
 73
   549
  0
VERTEX
  5
628
  8
0
 10
0.0
 20
0.0
 30
0.0
 70
   128
 71
  -549
 72
   548
 73
  -550
  0
VERTEX
  5
629
  8
0
 10
0.0
 20
0.0
 30
0.0
 70
   128
 71
  -549
 72
  -550
 73
   551
  0
VERTEX
  5
62A
  8
0
 10
0.0
 20
0.0
 30
0.0
 70
   128
 71
  -551
 72
   550
 73
  -552
  0
VERTEX
  5
62B
  8
0
 10
0.0
 20
0.0
 30
0.0
 70
   128
 71
  -551
 72
  -552
 73
   553
  0
VERTEX
  5
62C
  8
0
 10
0.0
 20
0.0
 30
0.0
 70
   128
 71
  -553
 72
   552
 73
  -554
  0
VERTEX
  5
62D
  8
0
 10
0.0
 20
0.0
 30
0.0
 70
   128
 71
  -553
 72
   554
 73
  -555
  0
VERTEX
  5
62E
  8
0
 10
0.0
 20
0.0
 30
0.0
 70
   128
 71
  -553
 72
  -555
 73
   556
  0
VERTEX
  5
62F
  8
0
 10
0.0
 20
0.0
 30
0.0
 70
   128
 71
  -556
 72
  -555
 73
   557
  0
VERTEX
  5
630
  8
0
 10
0.0
 20
0.0
 30
0.0
 70
   128
 71
  -557
 72
   555
 73
  -558
  0
VERTEX
  5
631
  8
0
 10
0.0
 20
0.0
 30
0.0
 70
   128
 71
  -557
 72
   558
 73
  -559
  0
VERTEX
  5
632
  8
0
 10
0.0
 20
0.0
 30
0.0
 70
   128
 71
  -557
 72
  -559
 73
   560
  0
VERTEX
  5
633
  8
0
 10
0.0
 20
0.0
 30
0.0
 70
   128
 71
  -560
 72
  -559
 73
   561
  0
VERTEX
  5
634
  8
0
 10
0.0
 20
0.0
 30
0.0
 70
   128
 71
  -561
 72
   559
 73
  -562
  0
VERTEX
  5
635
  8
0
 10
0.0
 20
0.0
 30
0.0
 70
   128
 71
  -561
 72
  -562
 73
   563
  0
VERTEX
  5
636
  8
0
 10
0.0
 20
0.0
 30
0.0
 70
   128
 71
  -563
 72
   562
 73
  -564
  0
VERTEX
  5
637
  8
0
 10
0.0
 20
0.0
 30
0.0
 70
   128
 71
  -563
 72
  -564
 73
   565
  0
VERTEX
  5
638
  8
0
 10
0.0
 20
0.0
 30
0.0
 70
   128
 71
  -565
 72
   564
 73
  -566
  0
VERTEX
  5
639
  8
0
 10
0.0
 20
0.0
 30
0.0
 70
   128
 71
  -565
 72
  -566
 73
   544
  0
VERTEX
  5
63A
  8
0
 10
0.0
 20
0.0
 30
0.0
 70
   128
 71
  -544
 72
   566
 73
  -294
  0
VERTEX
  5
63B
  8
0
 10
0.0
 20
0.0
 30
0.0
 70
   128
 71
  -520
 72
   567
 73
   -21
  0
VERTEX
  5
63C
  8
0
 10
0.0
 20
0.0
 30
0.0
 70
   128
 71
  -567
 72
   520
 73
  -568
  0
VERTEX
  5
63D
  8
0
 10
0.0
 20
0.0
 30
0.0
 70
   128
 71
  -567
 72
  -568
 73
   569
  0
VERTEX
  5
63E
  8
0
 10
0.0
 20
0.0
 30
0.0
 70
   128
 71
  -569
 72
   568
 73
  -570
  0
VERTEX
  5
63F
  8
0
 10
0.0
 20
0.0
 30
0.0
 70
   128
 71
  -569
 72
  -570
 73
   571
  0
VERTEX
  5
640
  8
0
 10
0.0
 20
0.0
 30
0.0
 70
   128
 71
  -571
 72
   570
 73
  -572
  0
VERTEX
  5
641
  8
0
 10
0.0
 20
0.0
 30
0.0
 70
   128
 71
  -571
 72
  -572
 73
   573
  0
VERTEX
  5
642
  8
0
 10
0.0
 20
0.0
 30
0.0
 70
   128
 71
  -573
 72
   572
 73
  -574
  0
VERTEX
  5
643
  8
0
 10
0.0
 20
0.0
 30
0.0
 70
   128
 71
  -573
 72
  -574
 73
   575
  0
VERTEX
  5
644
  8
0
 10
0.0
 20
0.0
 30
0.0
 70
   128
 71
  -575
 72
   574
 73
  -576
  0
VERTEX
  5
645
  8
0
 10
0.0
 20
0.0
 30
0.0
 70
   128
 71
  -575
 72
  -576
 73
   577
  0
VERTEX
  5
646
  8
0
 10
0.0
 20
0.0
 30
0.0
 70
   128
 71
  -577
 72
   576
 73
  -578
  0
VERTEX
  5
647
  8
0
 10
0.0
 20
0.0
 30
0.0
 70
   128
 71
  -577
 72
  -578
 73
   579
  0
VERTEX
  5
648
  8
0
 10
0.0
 20
0.0
 30
0.0
 70
   128
 71
  -579
 72
   578
 73
  -580
  0
VERTEX
  5
649
  8
0
 10
0.0
 20
0.0
 30
0.0
 70
   128
 71
  -579
 72
  -580
 73
   581
  0
VERTEX
  5
64A
  8
0
 10
0.0
 20
0.0
 30
0.0
 70
   128
 71
  -581
 72
   580
 73
  -582
  0
VERTEX
  5
64B
  8
0
 10
0.0
 20
0.0
 30
0.0
 70
   128
 71
  -581
 72
  -582
 73
   583
  0
VERTEX
  5
64C
  8
0
 10
0.0
 20
0.0
 30
0.0
 70
   128
 71
  -583
 72
   582
 73
  -584
  0
VERTEX
  5
64D
  8
0
 10
0.0
 20
0.0
 30
0.0
 70
   128
 71
  -583
 72
  -584
 73
   585
  0
VERTEX
  5
64E
  8
0
 10
0.0
 20
0.0
 30
0.0
 70
   128
 71
  -585
 72
   584
 73
  -586
  0
VERTEX
  5
64F
  8
0
 10
0.0
 20
0.0
 30
0.0
 70
   128
 71
  -585
 72
  -586
 73
   587
  0
VERTEX
  5
650
  8
0
 10
0.0
 20
0.0
 30
0.0
 70
   128
 71
  -587
 72
   586
 73
  -588
  0
VERTEX
  5
651
  8
0
 10
0.0
 20
0.0
 30
0.0
 70
   128
 71
  -587
 72
  -588
 73
   160
  0
VERTEX
  5
652
  8
0
 10
0.0
 20
0.0
 30
0.0
 70
   128
 71
  -160
 72
   588
 73
  -543
  0
VERTEX
  5
653
  8
0
 10
0.0
 20
0.0
 30
0.0
 70
   128
 71
  -160
 72
  -543
 73
  -544
  0
VERTEX
  5
654
  8
0
 10
0.0
 20
0.0
 30
0.0
 70
   128
 71
  -160
 72
  -544
 73
  -294
  0
SEQEND
  5
655
  8
0
  0
ENDSEC
  0
EOF
