  0
SECTION
  2
HEADER
  9
$ACADVER
  1
AC1009
  9
$DWGCODEPAGE
  3
ansi_1252
  9
$INSBASE
 10
0.0
 20
0.0
 30
0.0
  9
$EXTMIN
 10
1.000000000000000E+20
 20
1.000000000000000E+20
 30
1.000000000000000E+20
  9
$EXTMAX
 10
-1.000000000000000E+20
 20
-1.000000000000000E+20
 30
-1.000000000000000E+20
  9
$LIMMIN
 10
0.0
 20
0.0
  9
$LIMMAX
 10
12.0
 20
9.0
  9
$ORTHOMODE
 70
     0
  9
$REGENMODE
 70
     1
  9
$FILLMODE
 70
     1
  9
$QTEXTMODE
 70
     0
  9
$MIRRTEXT
 70
     1
  9
$DRAGMODE
 70
     2
  9
$LTSCALE
 40
1.0
  9
$OSMODE
 70
    37
  9
$ATTMODE
 70
     1
  9
$TEXTSIZE
 40
0.2
  9
$TRACEWID
 40
0.05
  9
$TEXTSTYLE
  7
STANDARD
  9
$CLAYER
  8
0
  9
$CELTYPE
  6
BYLAYER
  9
$CECOLOR
 62
   256
  9
$DIMSCALE
 40
1.0
  9
$DIMASZ
 40
0.18
  9
$DIMEXO
 40
0.0625
  9
$DIMDLI
 40
0.38
  9
$DIMRND
 40
0.0
  9
$DIMDLE
 40
0.0
  9
$DIMEXE
 40
0.18
  9
$DIMTP
 40
0.0
  9
$DIMTM
 40
0.0
  9
$DIMTXT
 40
0.18
  9
$DIMCEN
 40
0.09
  9
$DIMTSZ
 40
0.0
  9
$DIMTOL
 70
     0
  9
$DIMLIM
 70
     0
  9
$DIMTIH
 70
     1
  9
$DIMTOH
 70
     1
  9
$DIMSE1
 70
     0
  9
$DIMSE2
 70
     0
  9
$DIMTAD
 70
     0
  9
$DIMZIN
 70
     0
  9
$DIMBLK
  1

  9
$DIMASO
 70
     1
  9
$DIMSHO
 70
     1
  9
$DIMPOST
  1

  9
$DIMAPOST
  1

  9
$DIMALT
 70
     0
  9
$DIMALTD
 70
     2
  9
$DIMALTF
 40
25.4
  9
$DIMLFAC
 40
1.0
  9
$DIMTOFL
 70
     0
  9
$DIMTVP
 40
0.0
  9
$DIMTIX
 70
     0
  9
$DIMSOXD
 70
     0
  9
$DIMSAH
 70
     0
  9
$DIMBLK1
  1

  9
$DIMBLK2
  1

  9
$DIMSTYLE
  2
STANDARD
  9
$DIMCLRD
 70
     0
  9
$DIMCLRE
 70
     0
  9
$DIMCLRT
 70
     0
  9
$DIMTFAC
 40
1.0
  9
$DIMGAP
 40
0.09
  9
$LUNITS
 70
     2
  9
$LUPREC
 70
     4
  9
$SKETCHINC
 40
0.1
  9
$FILLETRAD
 40
0.5
  9
$AUNITS
 70
     0
  9
$AUPREC
 70
     0
  9
$MENU
  1
.
  9
$ELEVATION
 40
0.0
  9
$PELEVATION
 40
0.0
  9
$THICKNESS
 40
0.0
  9
$LIMCHECK
 70
     0
  9
$CHAMFERA
 40
0.5
  9
$CHAMFERB
 40
0.5
  9
$SKPOLY
 70
     0
  9
$TDCREATE
 40
2456714.570125451
  9
$TDUPDATE
 40
2456714.570125463
  9
$TDINDWG
 40
0.0000000116
  9
$TDUSRTIMER
 40
0.0000000116
  9
$USRTIMER
 70
     1
  9
$ANGBASE
 50
0.0
  9
$ANGDIR
 70
     0
  9
$PDMODE
 70
     0
  9
$PDSIZE
 40
0.0
  9
$PLINEWID
 40
0.0
  9
$COORDS
 70
     1
  9
$SPLFRAME
 70
     0
  9
$SPLINETYPE
 70
     6
  9
$SPLINESEGS
 70
     8
  9
$ATTDIA
 70
     0
  9
$ATTREQ
 70
     1
  9
$HANDLING
 70
     1
  9
$HANDSEED
  5
675
  9
$SURFTAB1
 70
     6
  9
$SURFTAB2
 70
     6
  9
$SURFTYPE
 70
     6
  9
$SURFU
 70
     6
  9
$SURFV
 70
     6
  9
$UCSNAME
  2

  9
$UCSORG
 10
0.0
 20
0.0
 30
0.0
  9
$UCSXDIR
 10
1.0
 20
0.0
 30
0.0
  9
$UCSYDIR
 10
0.0
 20
1.0
 30
0.0
  9
$PUCSNAME
  2

  9
$PUCSORG
 10
0.0
 20
0.0
 30
0.0
  9
$PUCSXDIR
 10
1.0
 20
0.0
 30
0.0
  9
$PUCSYDIR
 10
0.0
 20
1.0
 30
0.0
  9
$USERI1
 70
     0
  9
$USERI2
 70
     0
  9
$USERI3
 70
     0
  9
$USERI4
 70
     0
  9
$USERI5
 70
     0
  9
$USERR1
 40
0.0
  9
$USERR2
 40
0.0
  9
$USERR3
 40
0.0
  9
$USERR4
 40
0.0
  9
$USERR5
 40
0.0
  9
$WORLDVIEW
 70
     1
  9
$SHADEDGE
 70
     3
  9
$SHADEDIF
 70
    70
  9
$TILEMODE
 70
     1
  9
$MAXACTVP
 70
    64
  9
$PLIMCHECK
 70
     0
  9
$PEXTMIN
 10
1.000000000000000E+20
 20
1.000000000000000E+20
 30
1.000000000000000E+20
  9
$PEXTMAX
 10
-1.000000000000000E+20
 20
-1.000000000000000E+20
 30
-1.000000000000000E+20
  9
$PLIMMIN
 10
0.0
 20
0.0
  9
$PLIMMAX
 10
12.0
 20
9.0
  9
$UNITMODE
 70
     0
  9
$VISRETAIN
 70
     1
  9
$PLINEGEN
 70
     0
  9
$PSLTSCALE
 70
     1
  0
ENDSEC
  0
SECTION
  2
TABLES
  0
TABLE
  2
VPORT
 70
     1
  0
VPORT
  2
*ACTIVE
 70
     0
 10
0.0
 20
0.0
 11
1.0
 21
1.0
 12
0.0
 22
0.0
 13
0.0
 23
0.0
 14
0.5
 24
0.5
 15
0.5
 25
0.5
 16
174.4941334447539
 26
27.301589197124
 36
310.7350652665709
 17
102.8437015317819
 27
78.68988867684618
 37
3.225694459453223
 40
3378.2
 41
1.3333
 42
50.0
 43
-332.0211243974594
 44
25042.57887560254
 50
0.0
 51
0.0
 71
     0
 72
   100
 73
     1
 74
     3
 75
     0
 76
     0
 77
     0
 78
     0
  0
ENDTAB
  0
TABLE
  2
LTYPE
 70
     1
  0
LTYPE
  2
CONTINUOUS
 70
     0
  3
Solid line
 72
    65
 73
     0
 40
0.0
  0
ENDTAB
  0
TABLE
  2
LAYER
 70
     1
  0
LAYER
  2
0
 70
     0
 62
    13
  6
CONTINUOUS
  0
ENDTAB
  0
TABLE
  2
STYLE
 70
     2
  0
STYLE
  2
STANDARD
 70
     0
 40
0.0
 41
1.0
 50
0.0
 71
     0
 42
0.2
  3
txt
  4

  0
STYLE
  2
TAHOMA
 70
     0
 40
0.0
 41
1.0
 50
0.0
 71
     0
 42
0.2
  3
Tahoma
  4

  0
ENDTAB
  0
TABLE
  2
VIEW
 70
     0
  0
ENDTAB
  0
TABLE
  2
UCS
 70
     0
  0
ENDTAB
  0
TABLE
  2
APPID
 70
     1
  0
APPID
  2
ACAD
 70
     0
  0
ENDTAB
  0
TABLE
  2
DIMSTYLE
 70
     1
  0
DIMSTYLE
  2
STANDARD
 70
     0
  3

  4

  5

  6

  7

 40
1.0
 41
0.18
 42
0.0625
 43
0.38
 44
0.18
 45
0.0
 46
0.0
 47
0.0
 48
0.0
140
0.18
141
0.09
142
0.0
143
25.4
144
1.0
145
0.0
146
1.0
147
0.09
 71
     0
 72
     0
 73
     1
 74
     1
 75
     0
 76
     0
 77
     0
 78
     0
170
     0
171
     2
172
     0
173
     0
174
     0
175
     0
176
     0
177
     0
178
     0
  0
ENDTAB
  0
ENDSEC
  0
SECTION
  2
BLOCKS
  0
BLOCK
  8
0
  2
$MODEL_SPACE
 70
     0
 10
0.0
 20
0.0
 30
0.0
  3
$MODEL_SPACE
  1

  0
ENDBLK
  5
21
  8
0
  0
BLOCK
 67
     1
  8
0
  2
$PAPER_SPACE
 70
     0
 10
0.0
 20
0.0
 30
0.0
  3
$PAPER_SPACE
  1

  0
ENDBLK
  5
1D
 67
     1
  8
0
  0
ENDSEC
  0
SECTION
  2
ENTITIES
  0
LINE
  5
40
  8
0
 10
99.96000000000002
 20
75.40000000000002
 30
18.93281677064765
 11
111.96
 21
75.40000000000002
 31
18.93281677064765
  0
LINE
  5
41
  8
0
 10
126.92
 20
90.20000000000003
 30
18.93281677064765
 11
126.92
 21
78.20000000000003
 31
18.93281677064765
  0
LINE
  5
42
  8
0
 10
116.2535984891933
 20
30.30000000000003
 30
18.93281677064765
 11
104.2535984891933
 21
30.30000000000003
 31
18.93281677064765
  0
LINE
  5
43
  8
0
 10
116.2535984891933
 20
18.30000000000003
 30
18.93281677064765
 11
116.2535984891933
 21
30.30000000000003
 31
18.93281677064765
  0
LINE
  5
44
  8
0
 10
55.08000000000003
 20
45.80000000000003
 30
18.93281677064765
 11
55.08000000000003
 21
33.70000000000003
 31
18.93281677064765
  0
LINE
  5
45
  8
0
 10
104.2535984891933
 20
18.30000000000003
 30
18.93281677064765
 11
116.2535984891933
 21
18.30000000000003
 31
18.93281677064765
  0
LINE
  5
46
  8
0
 10
141.88
 20
90.20000000000003
 30
18.93281677064765
 11
141.88
 21
78.20000000000003
 31
18.93281677064765
  0
LINE
  5
47
  8
0
 10
126.92
 20
78.20000000000003
 30
18.93281677064765
 11
114.92
 21
78.20000000000003
 31
18.93281677064765
  0
LINE
  5
48
  8
0
 10
99.96000000000002
 20
63.40000000000002
 30
18.93281677064765
 11
111.96
 21
63.40000000000002
 31
18.93281677064765
  0
LINE
  5
49
  8
0
 10
42.0
 20
105.0
 30
18.93281677064765
 11
42.0
 21
93.00000000000003
 31
18.93281677064765
  0
LINE
  5
4A
  8
0
 10
30.0
 20
93.00000000000003
 30
18.93281677064765
 11
30.0
 21
105.0
 31
18.93281677064765
  0
LINE
  5
4B
  8
0
 10
104.2535984891933
 20
30.30000000000003
 30
18.93281677064765
 11
104.2535984891933
 21
18.30000000000003
 31
18.93281677064765
  0
LINE
  5
4C
  8
0
 10
99.96000000000002
 20
75.40000000000002
 30
18.93281677064765
 11
99.96000000000002
 21
63.40000000000002
 31
18.93281677064765
  0
LINE
  5
4D
  8
0
 10
114.92
 20
78.20000000000003
 30
18.93281677064765
 11
114.92
 21
90.20000000000003
 31
18.93281677064765
  0
LINE
  5
4E
  8
0
 10
101.2935984891933
 20
30.30000000000002
 30
18.93281677064765
 11
89.29359848919327
 21
30.30000000000002
 31
18.93281677064765
  0
CIRCLE
  5
4F
  8
0
 10
-26.98000000000003
 20
39.80000000000003
 30
-18.93281677064765
 40
5.999999999999996
210
0.0
220
0.0
230
-1.0
  0
CIRCLE
  5
50
  8
0
 10
-43.71614843959873
 20
54.60000000000002
 30
-18.93281677064765
 40
5.999999999999997
210
0.0
220
0.0
230
-1.0
  0
CIRCLE
  5
51
  8
0
 10
-26.98
 20
54.60000000000002
 30
-18.93281677064765
 40
5.999999999999999
210
0.0
220
0.0
230
-1.0
  0
LINE
  5
52
  8
0
 10
57.99999999999999
 20
105.0
 30
18.93281677064765
 11
57.99999999999999
 21
93.00000000000003
 31
18.93281677064765
  0
LINE
  5
53
  8
0
 10
46.0
 20
105.0
 30
18.93281677064765
 11
57.99999999999999
 21
105.0
 31
18.93281677064765
  0
LINE
  5
54
  8
0
 10
62.0
 20
93.00000000000003
 30
18.93281677064765
 11
62.0
 21
105.0
 31
18.93281677064765
  0
LINE
  5
55
  8
0
 10
77.99999999999999
 20
93.00000000000003
 30
18.93281677064765
 11
77.99999999999999
 21
105.0
 31
18.93281677064765
  0
LINE
  5
56
  8
0
 10
74.0
 20
93.00000000000003
 30
18.93281677064765
 11
62.0
 21
93.00000000000003
 31
18.93281677064765
  0
LINE
  5
57
  8
0
 10
74.0
 20
105.0
 30
18.93281677064765
 11
74.0
 21
93.00000000000003
 31
18.93281677064765
  0
LINE
  5
58
  8
0
 10
62.0
 20
105.0
 30
18.93281677064765
 11
74.0
 21
105.0
 31
18.93281677064765
  0
LINE
  5
59
  8
0
 10
111.5249999999999
 20
112.0
 30
18.93281677064765
 11
111.5249999999999
 21
175.9889037387595
 31
18.93281677064765
  0
LINE
  5
5A
  8
0
 10
34.52500000000001
 20
112.0
 30
18.93281677064765
 11
111.5249999999999
 21
112.0
 31
18.93281677064765
  0
LINE
  5
5B
  8
0
 10
14.0
 20
167.8
 30
18.93281677064765
 11
24.99359848919328
 21
167.8
 31
18.93281677064765
  0
LINE
  5
5C
  8
0
 10
111.5249999999999
 20
175.9889037387595
 30
18.93281677064765
 11
34.52500000000001
 21
175.9889037387595
 31
18.93281677064765
  0
LINE
  5
5D
  8
0
 10
141.88
 20
90.20000000000003
 30
18.93281677064765
 11
129.88
 21
90.20000000000003
 31
18.93281677064765
  0
LINE
  5
5E
  8
0
 10
67.08000000000003
 20
33.70000000000003
 30
18.93281677064765
 11
67.08000000000003
 21
45.80000000000003
 31
18.93281677064765
  0
LINE
  5
5F
  8
0
 10
55.08000000000003
 20
33.70000000000003
 30
18.93281677064765
 11
67.08000000000003
 21
33.70000000000003
 31
18.93281677064765
  0
LINE
  5
60
  8
0
 10
89.29359848919327
 20
30.30000000000002
 30
18.93281677064765
 11
89.29359848919327
 21
18.30000000000003
 31
18.93281677064765
  0
LINE
  5
61
  8
0
 10
67.08000000000003
 20
45.80000000000003
 30
18.93281677064765
 11
55.08000000000003
 21
45.80000000000003
 31
18.93281677064765
  0
LINE
  5
62
  8
0
 10
129.88
 20
90.20000000000003
 30
18.93281677064765
 11
129.88
 21
78.20000000000003
 31
18.93281677064765
  0
LINE
  5
63
  8
0
 10
-0.4999999999999991
 20
-0.4999999999999765
 30
18.93281677064765
 11
146.55
 21
-0.4999999999999765
 31
18.93281677064765
  0
LINE
  5
64
  8
0
 10
-0.5000000000000004
 20
181.5
 30
18.93281677064765
 11
-0.4999999999999991
 21
-0.4999999999999765
 31
18.93281677064765
  0
LINE
  5
65
  8
0
 10
129.88
 20
78.20000000000003
 30
18.93281677064765
 11
141.88
 21
78.20000000000003
 31
18.93281677064765
  0
LINE
  5
66
  8
0
 10
111.96
 20
63.40000000000002
 30
18.93281677064765
 11
111.96
 21
75.40000000000002
 31
18.93281677064765
  0
LINE
  5
67
  8
0
 10
89.29359848919327
 20
18.30000000000003
 30
18.93281677064765
 11
101.2935984891933
 21
18.30000000000003
 31
18.93281677064765
  0
LINE
  5
68
  8
0
 10
101.2935984891933
 20
18.30000000000003
 30
18.93281677064765
 11
101.2935984891933
 21
30.30000000000002
 31
18.93281677064765
  0
LINE
  5
69
  8
0
 10
25.99999999999999
 20
105.0
 30
18.93281677064765
 11
25.99999999999999
 21
93.00000000000003
 31
18.93281677064765
  0
LINE
  5
6A
  8
0
 10
25.99999999999999
 20
93.00000000000003
 30
18.93281677064765
 11
14.0
 21
93.00000000000003
 31
18.93281677064765
  0
LINE
  5
6B
  8
0
 10
146.55
 20
181.5
 30
18.93281677064765
 11
-0.5000000000000004
 21
181.5
 31
18.93281677064765
  0
LINE
  5
6C
  8
0
 10
14.0
 20
105.0
 30
18.93281677064765
 11
14.0
 21
93.00000000000003
 31
18.93281677064765
  0
CIRCLE
  5
6D
  8
0
 10
-26.98000000000003
 20
69.40000000000002
 30
-18.93281677064765
 40
6.0
210
0.0
220
0.0
230
-1.0
  0
LINE
  5
6E
  8
0
 10
42.0
 20
93.00000000000003
 30
18.93281677064765
 11
30.0
 21
93.00000000000003
 31
18.93281677064765
  0
LINE
  5
6F
  8
0
 10
46.0
 20
93.00000000000003
 30
18.93281677064765
 11
46.0
 21
105.0
 31
18.93281677064765
  0
LINE
  5
70
  8
0
 10
25.99999999999999
 20
105.0
 30
18.93281677064765
 11
14.0
 21
105.0
 31
18.93281677064765
  0
LINE
  5
71
  8
0
 10
146.55
 20
-0.4999999999999765
 30
18.93281677064765
 11
146.55
 21
181.5
 31
18.93281677064765
  0
LINE
  5
72
  8
0
 10
67.08000000000003
 20
78.20000000000003
 30
18.93281677064765
 11
55.08000000000003
 21
78.20000000000003
 31
18.93281677064765
  0
LINE
  5
73
  8
0
 10
141.88
 20
63.40000000000002
 30
18.93281677064765
 11
141.88
 21
75.40000000000002
 31
18.93281677064765
  0
LINE
  5
74
  8
0
 10
126.92
 20
48.60000000000002
 30
18.93281677064765
 11
114.92
 21
48.60000000000002
 31
18.93281677064765
  0
LINE
  5
75
  8
0
 10
81.94000000000003
 20
33.70000000000003
 30
18.93281677064765
 11
81.94000000000003
 21
45.80000000000003
 31
18.93281677064765
  0
LINE
  5
76
  8
0
 10
129.88
 20
75.40000000000002
 30
18.93281677064765
 11
129.88
 21
63.40000000000002
 31
18.93281677064765
  0
LINE
  5
77
  8
0
 10
85.00000000000003
 20
78.20000000000003
 30
18.93281677064765
 11
97.00000000000003
 21
78.20000000000003
 31
18.93281677064765
  0
LINE
  5
78
  8
0
 10
97.00000000000003
 20
75.40000000000002
 30
18.93281677064765
 11
97.00000000000003
 21
63.40000000000002
 31
18.93281677064765
  0
LINE
  5
79
  8
0
 10
126.92
 20
63.40000000000002
 30
18.93281677064765
 11
126.92
 21
75.40000000000002
 31
18.93281677064765
  0
LINE
  5
7A
  8
0
 10
55.08000000000003
 20
75.40000000000002
 30
18.93281677064765
 11
55.08000000000003
 21
63.40000000000002
 31
18.93281677064765
  0
LINE
  5
7B
  8
0
 10
82.24000000000002
 20
75.40000000000002
 30
18.93281677064765
 11
70.04000000000002
 21
75.40000000000002
 31
18.93281677064765
  0
LINE
  5
7C
  8
0
 10
67.08000000000003
 20
48.60000000000002
 30
18.93281677064765
 11
67.08000000000003
 21
60.60000000000002
 31
18.93281677064765
  0
LINE
  5
7D
  8
0
 10
81.94000000000003
 20
45.80000000000003
 30
18.93281677064765
 11
70.04000000000002
 21
45.80000000000003
 31
18.93281677064765
  0
LINE
  5
7E
  8
0
 10
129.88
 20
63.40000000000002
 30
18.93281677064765
 11
141.88
 21
63.40000000000002
 31
18.93281677064765
  0
LINE
  5
7F
  8
0
 10
70.04000000000002
 20
45.80000000000003
 30
18.93281677064765
 11
70.04000000000002
 21
33.70000000000003
 31
18.93281677064765
  0
LINE
  5
80
  8
0
 10
114.92
 20
63.40000000000002
 30
18.93281677064765
 11
126.92
 21
63.40000000000002
 31
18.93281677064765
  0
LINE
  5
81
  8
0
 10
114.92
 20
48.60000000000002
 30
18.93281677064765
 11
114.92
 21
60.60000000000002
 31
18.93281677064765
  0
LINE
  5
82
  8
0
 10
70.04000000000002
 20
60.60000000000002
 30
18.93281677064765
 11
70.04000000000002
 21
48.60000000000002
 31
18.93281677064765
  0
LINE
  5
83
  8
0
 10
85.00000000000003
 20
90.20000000000003
 30
18.93281677064765
 11
85.00000000000003
 21
78.20000000000003
 31
18.93281677064765
  0
LINE
  5
84
  8
0
 10
97.00000000000003
 20
60.60000000000002
 30
18.93281677064765
 11
85.00000000000003
 21
60.60000000000002
 31
18.93281677064765
  0
LINE
  5
85
  8
0
 10
111.96
 20
60.60000000000002
 30
18.93281677064765
 11
99.96000000000002
 21
60.60000000000002
 31
18.93281677064765
  0
LINE
  5
86
  8
0
 10
97.00000000000003
 20
60.60000000000002
 30
18.93281677064765
 11
97.00000000000003
 21
48.60000000000002
 31
18.93281677064765
  0
LINE
  5
87
  8
0
 10
97.00000000000003
 20
78.20000000000003
 30
18.93281677064765
 11
97.00000000000003
 21
90.20000000000003
 31
18.93281677064765
  0
LINE
  5
88
  8
0
 10
82.04000000000002
 20
78.20000000000003
 30
18.93281677064765
 11
70.04000000000002
 21
78.20000000000003
 31
18.93281677064765
  0
LINE
  5
89
  8
0
 10
114.92
 20
75.40000000000002
 30
18.93281677064765
 11
114.92
 21
63.40000000000002
 31
18.93281677064765
  0
LINE
  5
8A
  8
0
 10
67.08000000000003
 20
60.60000000000002
 30
18.93281677064765
 11
55.08000000000003
 21
60.60000000000002
 31
18.93281677064765
  0
LINE
  5
8B
  8
0
 10
97.00000000000003
 20
90.20000000000003
 30
18.93281677064765
 11
85.00000000000003
 21
90.20000000000003
 31
18.93281677064765
  0
LINE
  5
8C
  8
0
 10
67.08000000000003
 20
75.40000000000002
 30
18.93281677064765
 11
55.08000000000003
 21
75.40000000000002
 31
18.93281677064765
  0
LINE
  5
8D
  8
0
 10
70.04000000000002
 20
48.60000000000002
 30
18.93281677064765
 11
82.04000000000002
 21
48.60000000000002
 31
18.93281677064765
  0
LINE
  5
8E
  8
0
 10
67.08000000000003
 20
90.20000000000003
 30
18.93281677064765
 11
67.08000000000003
 21
78.20000000000003
 31
18.93281677064765
  0
LINE
  5
8F
  8
0
 10
82.04000000000002
 20
48.60000000000002
 30
18.93281677064765
 11
82.04000000000002
 21
60.60000000000002
 31
18.93281677064765
  0
LINE
  5
90
  8
0
 10
67.08000000000003
 20
63.40000000000002
 30
18.93281677064765
 11
67.08000000000003
 21
75.40000000000002
 31
18.93281677064765
  0
LINE
  5
91
  8
0
 10
111.96
 20
60.60000000000002
 30
18.93281677064765
 11
111.96
 21
48.60000000000002
 31
18.93281677064765
  0
LINE
  5
92
  8
0
 10
126.92
 20
60.60000000000002
 30
18.93281677064765
 11
126.92
 21
48.60000000000002
 31
18.93281677064765
  0
LINE
  5
93
  8
0
 10
141.88
 20
60.60000000000002
 30
18.93281677064765
 11
129.88
 21
60.60000000000002
 31
18.93281677064765
  0
LINE
  5
94
  8
0
 10
97.00000000000003
 20
63.40000000000002
 30
18.93281677064765
 11
85.00000000000003
 21
63.40000000000002
 31
18.93281677064765
  0
LINE
  5
95
  8
0
 10
129.88
 20
48.60000000000002
 30
18.93281677064765
 11
141.88
 21
48.60000000000002
 31
18.93281677064765
  0
LINE
  5
96
  8
0
 10
99.96000000000002
 20
78.20000000000003
 30
18.93281677064765
 11
111.96
 21
78.20000000000003
 31
18.93281677064765
  0
LINE
  5
97
  8
0
 10
111.96
 20
48.60000000000002
 30
18.93281677064765
 11
99.96000000000002
 21
48.60000000000002
 31
18.93281677064765
  0
LINE
  5
98
  8
0
 10
99.96000000000002
 20
48.60000000000002
 30
18.93281677064765
 11
99.96000000000002
 21
60.60000000000002
 31
18.93281677064765
  0
LINE
  5
99
  8
0
 10
141.88
 20
48.60000000000002
 30
18.93281677064765
 11
141.88
 21
60.60000000000002
 31
18.93281677064765
  0
LINE
  5
9A
  8
0
 10
85.00000000000003
 20
63.40000000000002
 30
18.93281677064765
 11
85.00000000000003
 21
75.40000000000002
 31
18.93281677064765
  0
LINE
  5
9B
  8
0
 10
129.88
 20
60.60000000000002
 30
18.93281677064765
 11
129.88
 21
48.60000000000002
 31
18.93281677064765
  0
LINE
  5
9C
  8
0
 10
141.88
 20
75.40000000000002
 30
18.93281677064765
 11
129.88
 21
75.40000000000002
 31
18.93281677064765
  0
LINE
  5
9D
  8
0
 10
97.00000000000003
 20
75.40000000000002
 30
18.93281677064765
 11
85.00000000000003
 21
75.40000000000002
 31
18.93281677064765
  0
LINE
  5
9E
  8
0
 10
99.96000000000002
 20
90.20000000000003
 30
18.93281677064765
 11
99.96000000000002
 21
78.20000000000003
 31
18.93281677064765
  0
LINE
  5
9F
  8
0
 10
97.00000000000003
 20
48.60000000000002
 30
18.93281677064765
 11
85.00000000000003
 21
48.60000000000002
 31
18.93281677064765
  0
LINE
  5
A0
  8
0
 10
111.96
 20
78.20000000000003
 30
18.93281677064765
 11
111.96
 21
90.20000000000003
 31
18.93281677064765
  0
LINE
  5
A1
  8
0
 10
126.92
 20
60.60000000000002
 30
18.93281677064765
 11
114.92
 21
60.60000000000002
 31
18.93281677064765
  0
LINE
  5
A2
  8
0
 10
114.92
 20
90.20000000000003
 30
18.93281677064765
 11
126.92
 21
90.20000000000003
 31
18.93281677064765
  0
LINE
  5
A3
  8
0
 10
14.0
 20
155.7
 30
18.93281677064765
 11
24.99359848919328
 21
155.7
 31
18.93281677064765
  0
LINE
  5
A4
  8
0
 10
129.88
 20
45.80000000000003
 30
18.93281677064765
 11
129.88
 21
33.72000000000003
 31
18.93281677064765
  0
LINE
  5
A5
  8
0
 10
85.00000000000003
 20
48.60000000000002
 30
18.93281677064765
 11
85.00000000000003
 21
60.60000000000002
 31
18.93281677064765
  0
LINE
  5
A6
  8
0
 10
126.92
 20
75.40000000000002
 30
18.93281677064765
 11
114.92
 21
75.40000000000002
 31
18.93281677064765
  0
LINE
  5
A7
  8
0
 10
141.88
 20
33.72000000000003
 30
18.93281677064765
 11
141.88
 21
45.80000000000003
 31
18.93281677064765
  0
LINE
  5
A8
  8
0
 10
83.52692907775385
 20
3.340000000000031
 30
18.93281677064765
 11
60.52692907775384
 21
3.340000000000031
 31
18.93281677064765
  0
LINE
  5
A9
  8
0
 10
89.29359848919327
 20
3.340000000000031
 30
18.93281677064765
 11
89.29359848919327
 21
15.34000000000003
 31
18.93281677064765
  0
LINE
  5
AA
  8
0
 10
49.77
 20
33.70000000000003
 30
18.93281677064765
 11
37.77
 21
33.70000000000003
 31
18.93281677064765
  0
LINE
  5
AB
  8
0
 10
132.8115397359717
 20
30.30000000000002
 30
18.93281677064765
 11
132.8115397359717
 21
4.300000000000032
 31
18.93281677064765
  0
LINE
  5
AC
  8
0
 10
116.1535984891933
 20
3.440000000000028
 30
18.93281677064765
 11
104.2535984891933
 21
3.440000000000028
 31
18.93281677064765
  0
LINE
  5
AD
  8
0
 10
111.96
 20
90.20000000000003
 30
18.93281677064765
 11
99.96000000000002
 21
90.20000000000003
 31
18.93281677064765
  0
LINE
  5
AE
  8
0
 10
121.55
 20
167.8
 30
18.93281677064765
 11
121.55
 21
159.8
 31
18.93281677064765
  0
LINE
  5
AF
  8
0
 10
121.55
 20
131.5
 30
18.93281677064765
 11
121.55
 21
123.5
 31
18.93281677064765
  0
LINE
  5
B0
  8
0
 10
37.77
 20
33.70000000000003
 30
18.93281677064765
 11
37.77
 21
45.80000000000003
 31
18.93281677064765
  0
LINE
  5
B1
  8
0
 10
120.8115397359717
 20
30.30000000000002
 30
18.93281677064765
 11
120.8115397359717
 21
4.300000000000032
 31
18.93281677064765
  0
LINE
  5
B2
  8
0
 10
132.55
 20
159.8
 30
18.93281677064765
 11
132.55
 21
167.8
 31
18.93281677064765
  0
LINE
  5
B3
  8
0
 10
141.88
 20
45.80000000000003
 30
18.93281677064765
 11
129.88
 21
45.80000000000003
 31
18.93281677064765
  0
LINE
  5
B4
  8
0
 10
132.55
 20
167.8
 30
18.93281677064765
 11
121.55
 21
167.8
 31
18.93281677064765
  0
LINE
  5
B5
  8
0
 10
121.55
 20
143.6
 30
18.93281677064765
 11
121.55
 21
135.6
 31
18.93281677064765
  0
LINE
  5
B6
  8
0
 10
132.55
 20
123.5
 30
18.93281677064765
 11
132.55
 21
131.5
 31
18.93281677064765
  0
LINE
  5
B7
  8
0
 10
132.55
 20
155.7
 30
18.93281677064765
 11
121.55
 21
155.7
 31
18.93281677064765
  0
LINE
  5
B8
  8
0
 10
132.55
 20
131.5
 30
18.93281677064765
 11
121.55
 21
131.5
 31
18.93281677064765
  0
LINE
  5
B9
  8
0
 10
132.55
 20
135.6
 30
18.93281677064765
 11
132.55
 21
143.6
 31
18.93281677064765
  0
LINE
  5
BA
  8
0
 10
121.55
 20
123.5
 30
18.93281677064765
 11
132.55
 21
123.5
 31
18.93281677064765
  0
LINE
  5
BB
  8
0
 10
99.96000000000002
 20
33.70000000000003
 30
18.93281677064765
 11
111.96
 21
33.70000000000003
 31
18.93281677064765
  0
LINE
  5
BC
  8
0
 10
55.08000000000003
 20
60.60000000000002
 30
18.93281677064765
 11
55.08000000000003
 21
48.60000000000002
 31
18.93281677064765
  0
LINE
  5
BD
  8
0
 10
24.99359848919328
 20
147.7
 30
18.93281677064765
 11
14.0
 21
147.7
 31
18.93281677064765
  0
LINE
  5
BE
  8
0
 10
14.0
 20
135.6
 30
18.93281677064765
 11
14.0
 21
143.6
 31
18.93281677064765
  0
LINE
  5
BF
  8
0
 10
55.08000000000003
 20
63.40000000000002
 30
18.93281677064765
 11
67.08000000000003
 21
63.40000000000002
 31
18.93281677064765
  0
LINE
  5
C0
  8
0
 10
55.08000000000003
 20
90.20000000000003
 30
18.93281677064765
 11
67.08000000000003
 21
90.20000000000003
 31
18.93281677064765
  0
LINE
  5
C1
  8
0
 10
121.55
 20
135.6
 30
18.93281677064765
 11
132.55
 21
135.6
 31
18.93281677064765
  0
LINE
  5
C2
  8
0
 10
70.04000000000002
 20
33.70000000000003
 30
18.93281677064765
 11
81.94000000000003
 21
33.70000000000003
 31
18.93281677064765
  0
LINE
  5
C3
  8
0
 10
14.0
 20
147.7
 30
18.93281677064765
 11
14.0
 21
155.7
 31
18.93281677064765
  0
LINE
  5
C4
  8
0
 10
85.00000000000003
 20
33.70000000000003
 30
18.93281677064765
 11
97.00000000000003
 21
33.70000000000003
 31
18.93281677064765
  0
LINE
  5
C5
  8
0
 10
55.08000000000003
 20
78.20000000000003
 30
18.93281677064765
 11
55.08000000000003
 21
90.20000000000003
 31
18.93281677064765
  0
LINE
  5
C6
  8
0
 10
85.00000000000003
 20
45.80000000000003
 30
18.93281677064765
 11
85.00000000000003
 21
33.70000000000003
 31
18.93281677064765
  0
LINE
  5
C7
  8
0
 10
132.55
 20
143.6
 30
18.93281677064765
 11
121.55
 21
143.6
 31
18.93281677064765
  0
LINE
  5
C8
  8
0
 10
121.55
 20
155.7
 30
18.93281677064765
 11
121.55
 21
147.7
 31
18.93281677064765
  0
LINE
  5
C9
  8
0
 10
55.08000000000003
 20
48.60000000000002
 30
18.93281677064765
 11
67.08000000000003
 21
48.60000000000002
 31
18.93281677064765
  0
LINE
  5
CA
  8
0
 10
14.0
 20
143.6
 30
18.93281677064765
 11
24.99359848919328
 21
143.6
 31
18.93281677064765
  0
LINE
  5
CB
  8
0
 10
24.99359848919328
 20
155.7
 30
18.93281677064765
 11
24.99359848919328
 21
147.7
 31
18.93281677064765
  0
LINE
  5
CC
  8
0
 10
24.99359848919328
 20
159.8
 30
18.93281677064765
 11
14.0
 21
159.8
 31
18.93281677064765
  0
LINE
  5
CD
  8
0
 10
129.88
 20
33.72000000000003
 30
18.93281677064765
 11
141.88
 21
33.72000000000003
 31
18.93281677064765
  0
LINE
  5
CE
  8
0
 10
14.0
 20
159.8
 30
18.93281677064765
 11
14.0
 21
167.8
 31
18.93281677064765
  0
LINE
  5
CF
  8
0
 10
121.55
 20
159.8
 30
18.93281677064765
 11
132.55
 21
159.8
 31
18.93281677064765
  0
LINE
  5
D0
  8
0
 10
121.55
 20
147.7
 30
18.93281677064765
 11
132.55
 21
147.7
 31
18.93281677064765
  0
LINE
  5
D1
  8
0
 10
24.99359848919328
 20
143.6
 30
18.93281677064765
 11
24.99359848919328
 21
135.6
 31
18.93281677064765
  0
LINE
  5
D2
  8
0
 10
97.00000000000003
 20
45.80000000000003
 30
18.93281677064765
 11
85.00000000000003
 21
45.80000000000003
 31
18.93281677064765
  0
LINE
  5
D3
  8
0
 10
132.55
 20
147.7
 30
18.93281677064765
 11
132.55
 21
155.7
 31
18.93281677064765
  0
LINE
  5
D4
  8
0
 10
24.99359848919328
 20
167.8
 30
18.93281677064765
 11
24.99359848919328
 21
159.8
 31
18.93281677064765
  0
LINE
  5
D5
  8
0
 10
15.49359848919328
 20
29.30000000000003
 30
18.93281677064765
 11
15.49359848919328
 21
3.30000000000003
 31
18.93281677064765
  0
LINE
  5
D6
  8
0
 10
70.04000000000002
 20
75.40000000000002
 30
18.93281677064765
 11
70.04000000000002
 21
63.40000000000002
 31
18.93281677064765
  0
LINE
  5
D7
  8
0
 10
70.04000000000002
 20
78.20000000000003
 30
18.93281677064765
 11
70.04000000000002
 21
90.20000000000003
 31
18.93281677064765
  0
LINE
  5
D8
  8
0
 10
82.04000000000002
 20
90.20000000000003
 30
18.93281677064765
 11
82.04000000000002
 21
78.20000000000003
 31
18.93281677064765
  0
LINE
  5
D9
  8
0
 10
34.52500000000001
 20
175.9889037387595
 30
18.93281677064765
 11
34.52500000000001
 21
112.0
 31
18.93281677064765
  0
LINE
  5
DA
  8
0
 10
82.04000000000002
 20
60.60000000000002
 30
18.93281677064765
 11
70.04000000000002
 21
60.60000000000002
 31
18.93281677064765
  0
LINE
  5
DB
  8
0
 10
82.04000000000002
 20
90.20000000000003
 30
18.93281677064765
 11
70.04000000000002
 21
90.20000000000003
 31
18.93281677064765
  0
LINE
  5
DC
  8
0
 10
82.24000000000002
 20
63.40000000000002
 30
18.93281677064765
 11
82.24000000000002
 21
75.40000000000002
 31
18.93281677064765
  0
LINE
  5
DD
  8
0
 10
99.96000000000002
 20
45.80000000000003
 30
18.93281677064765
 11
99.96000000000002
 21
33.70000000000003
 31
18.93281677064765
  0
LINE
  5
DE
  8
0
 10
70.04000000000002
 20
63.40000000000002
 30
18.93281677064765
 11
82.24000000000002
 21
63.40000000000002
 31
18.93281677064765
  0
LINE
  5
DF
  8
0
 10
97.00000000000003
 20
33.70000000000003
 30
18.93281677064765
 11
97.00000000000003
 21
45.80000000000003
 31
18.93281677064765
  0
LINE
  5
E0
  8
0
 10
59.37359848919327
 20
30.30000000000003
 30
18.93281677064765
 11
59.37359848919328
 21
18.30000000000003
 31
18.93281677064765
  0
LINE
  5
E1
  8
0
 10
90.0
 20
105.0
 30
18.93281677064765
 11
90.0
 21
93.00000000000003
 31
18.93281677064765
  0
LINE
  5
E2
  8
0
 10
77.99999999999999
 20
105.0
 30
18.93281677064765
 11
90.0
 21
105.0
 31
18.93281677064765
  0
LINE
  5
E3
  8
0
 10
106.0
 20
105.0
 30
18.93281677064765
 11
106.0
 21
93.00000000000003
 31
18.93281677064765
  0
LINE
  5
E4
  8
0
 10
71.37359848919327
 20
18.30000000000003
 30
18.93281677064765
 11
71.37359848919327
 21
30.30000000000003
 31
18.93281677064765
  0
LINE
  5
E5
  8
0
 10
86.33359848919328
 20
30.30000000000003
 30
18.93281677064765
 11
74.33359848919328
 21
30.30000000000003
 31
18.93281677064765
  0
LINE
  5
E6
  8
0
 10
59.37359848919328
 20
18.30000000000003
 30
18.93281677064765
 11
71.37359848919327
 21
18.30000000000003
 31
18.93281677064765
  0
LINE
  5
E7
  8
0
 10
41.45359848919328
 20
30.30000000000003
 30
18.93281677064765
 11
41.45359848919328
 21
18.30000000000003
 31
18.93281677064765
  0
LINE
  5
E8
  8
0
 10
49.42405104558237
 20
3.340000000000031
 30
18.93281677064765
 11
49.42405104558237
 21
15.34000000000003
 31
18.93281677064765
  0
LINE
  5
E9
  8
0
 10
37.42405104558238
 20
15.34000000000003
 30
18.93281677064765
 11
49.42405104558237
 21
15.34000000000003
 31
18.93281677064765
  0
LINE
  5
EA
  8
0
 10
44.41359848919328
 20
18.30000000000003
 30
18.93281677064765
 11
56.41359848919328
 21
18.30000000000003
 31
18.93281677064765
  0
LINE
  5
EB
  8
0
 10
74.33359848919328
 20
18.30000000000003
 30
18.93281677064765
 11
86.33359848919328
 21
18.30000000000003
 31
18.93281677064765
  0
LINE
  5
EC
  8
0
 10
41.45359848919328
 20
18.30000000000003
 30
18.93281677064765
 11
29.45359848919327
 21
18.30000000000003
 31
18.93281677064765
  0
LINE
  5
ED
  8
0
 10
56.41359848919328
 20
18.30000000000003
 30
18.93281677064765
 11
56.41359848919328
 21
30.30000000000003
 31
18.93281677064765
  0
LINE
  5
EE
  8
0
 10
109.7393468449602
 20
105.0
 30
18.93281677064765
 11
132.2393468449602
 21
105.0
 31
18.93281677064765
  0
LINE
  5
EF
  8
0
 10
86.33359848919328
 20
18.30000000000003
 30
18.93281677064765
 11
86.33359848919328
 21
30.30000000000003
 31
18.93281677064765
  0
LINE
  5
F0
  8
0
 10
106.0
 20
93.00000000000003
 30
18.93281677064765
 11
93.99999999999999
 21
93.00000000000003
 31
18.93281677064765
  0
LINE
  5
F1
  8
0
 10
93.99999999999999
 20
93.00000000000003
 30
18.93281677064765
 11
93.99999999999999
 21
105.0
 31
18.93281677064765
  0
LINE
  5
F2
  8
0
 10
109.7393468449602
 20
93.00000000000003
 30
18.93281677064765
 11
132.2393468449602
 21
93.00000000000003
 31
18.93281677064765
  0
LINE
  5
F3
  8
0
 10
116.1535984891933
 20
15.34000000000003
 30
18.93281677064765
 11
116.1535984891933
 21
3.440000000000028
 31
18.93281677064765
  0
LINE
  5
F4
  8
0
 10
16.16999999999999
 20
33.80000000000003
 30
18.93281677064765
 11
4.170000000000002
 21
33.80000000000003
 31
18.93281677064765
  0
LINE
  5
F5
  8
0
 10
90.0
 20
93.00000000000003
 30
18.93281677064765
 11
77.99999999999999
 21
93.00000000000003
 31
18.93281677064765
  0
LINE
  5
F6
  8
0
 10
29.45359848919327
 20
18.30000000000003
 30
18.93281677064765
 11
29.45359848919327
 21
30.30000000000003
 31
18.93281677064765
  0
LINE
  5
F7
  8
0
 10
44.41359848919328
 20
30.30000000000003
 30
18.93281677064765
 11
44.41359848919328
 21
18.30000000000003
 31
18.93281677064765
  0
LINE
  5
F8
  8
0
 10
74.33359848919328
 20
30.30000000000003
 30
18.93281677064765
 11
74.33359848919328
 21
18.30000000000003
 31
18.93281677064765
  0
LINE
  5
F9
  8
0
 10
26.49359848919327
 20
29.30000000000003
 30
18.93281677064765
 11
15.49359848919328
 21
29.30000000000003
 31
18.93281677064765
  0
LINE
  5
FA
  8
0
 10
29.45359848919327
 20
30.30000000000003
 30
18.93281677064765
 11
41.45359848919328
 21
30.30000000000003
 31
18.93281677064765
  0
LINE
  5
FB
  8
0
 10
71.37359848919327
 20
30.30000000000003
 30
18.93281677064765
 11
59.37359848919327
 21
30.30000000000003
 31
18.93281677064765
  0
LINE
  5
FC
  8
0
 10
120.8115397359717
 20
30.30000000000002
 30
18.93281677064765
 11
132.8115397359717
 21
30.30000000000002
 31
18.93281677064765
  0
LINE
  5
FD
  8
0
 10
101.2935984891933
 20
15.34000000000003
 30
18.93281677064765
 11
101.2935984891933
 21
3.340000000000031
 31
18.93281677064765
  0
LINE
  5
FE
  8
0
 10
89.29359848919327
 20
15.34000000000003
 30
18.93281677064765
 11
101.2935984891933
 21
15.34000000000003
 31
18.93281677064765
  0
LINE
  5
FF
  8
0
 10
37.42405104558238
 20
3.340000000000031
 30
18.93281677064765
 11
49.42405104558237
 21
3.340000000000031
 31
18.93281677064765
  0
LINE
  5
100
  8
0
 10
56.41359848919328
 20
30.30000000000003
 30
18.93281677064765
 11
44.41359848919328
 21
30.30000000000003
 31
18.93281677064765
  0
LINE
  5
101
  8
0
 10
93.99999999999999
 20
105.0
 30
18.93281677064765
 11
106.0
 21
105.0
 31
18.93281677064765
  0
LINE
  5
102
  8
0
 10
109.7393468449602
 20
105.0
 30
18.93281677064765
 11
109.7393468449602
 21
93.00000000000003
 31
18.93281677064765
  0
LINE
  5
103
  8
0
 10
104.2535984891933
 20
15.34000000000003
 30
18.93281677064765
 11
116.1535984891933
 21
15.34000000000003
 31
18.93281677064765
  0
LINE
  5
104
  8
0
 10
4.170000000000002
 20
45.80000000000003
 30
18.93281677064765
 11
16.16999999999999
 21
45.80000000000003
 31
18.93281677064765
  0
LINE
  5
105
  8
0
 10
14.0
 20
131.5124515137409
 30
18.93281677064765
 11
14.0
 21
123.5
 31
18.93281677064765
  0
LINE
  5
106
  8
0
 10
24.99359848919328
 20
135.6
 30
18.93281677064765
 11
14.0
 21
135.6
 31
18.93281677064765
  0
LINE
  5
107
  8
0
 10
4.170000000000002
 20
33.80000000000003
 30
18.93281677064765
 11
4.170000000000002
 21
45.80000000000003
 31
18.93281677064765
  0
LINE
  5
108
  8
0
 10
14.0
 20
123.5
 30
18.93281677064765
 11
24.99359848919328
 21
123.5
 31
18.93281677064765
  0
LINE
  5
109
  8
0
 10
132.2393468449602
 20
105.0
 30
18.93281677064765
 11
132.2393468449602
 21
93.00000000000003
 31
18.93281677064765
  0
LINE
  5
10A
  8
0
 10
16.16999999999999
 20
45.80000000000003
 30
18.93281677064765
 11
16.16999999999999
 21
33.80000000000003
 31
18.93281677064765
  0
LINE
  5
10B
  8
0
 10
60.52692907775384
 20
3.340000000000031
 30
18.93281677064765
 11
60.52692907775384
 21
15.34000000000003
 31
18.93281677064765
  0
LINE
  5
10C
  8
0
 10
60.52692907775384
 20
15.34000000000003
 30
18.93281677064765
 11
83.52692907775385
 21
15.34000000000003
 31
18.93281677064765
  0
LINE
  5
10D
  8
0
 10
37.42405104558238
 20
15.34000000000003
 30
18.93281677064765
 11
37.42405104558238
 21
3.340000000000031
 31
18.93281677064765
  0
LINE
  5
10E
  8
0
 10
15.49359848919328
 20
3.30000000000003
 30
18.93281677064765
 11
26.49359848919327
 21
3.30000000000003
 31
18.93281677064765
  0
LINE
  5
10F
  8
0
 10
24.99359848919328
 20
131.5124515137409
 30
18.93281677064765
 11
14.0
 21
131.5124515137409
 31
18.93281677064765
  0
LINE
  5
110
  8
0
 10
24.99359848919328
 20
123.5
 30
18.93281677064765
 11
24.99359848919328
 21
131.5124515137409
 31
18.93281677064765
  0
LINE
  5
111
  8
0
 10
49.77
 20
45.80000000000003
 30
18.93281677064765
 11
49.77
 21
33.70000000000003
 31
18.93281677064765
  0
LINE
  5
112
  8
0
 10
37.77
 20
45.80000000000003
 30
18.93281677064765
 11
49.77
 21
45.80000000000003
 31
18.93281677064765
  0
LINE
  5
113
  8
0
 10
101.2935984891933
 20
3.340000000000031
 30
18.93281677064765
 11
89.29359848919327
 21
3.340000000000031
 31
18.93281677064765
  0
LINE
  5
114
  8
0
 10
104.2535984891933
 20
3.440000000000028
 30
18.93281677064765
 11
104.2535984891933
 21
15.34000000000003
 31
18.93281677064765
  0
LINE
  5
115
  8
0
 10
83.52692907775385
 20
15.34000000000003
 30
18.93281677064765
 11
83.52692907775385
 21
3.340000000000031
 31
18.93281677064765
  0
LINE
  5
116
  8
0
 10
26.49359848919327
 20
3.30000000000003
 30
18.93281677064765
 11
26.49359848919327
 21
29.30000000000003
 31
18.93281677064765
  0
CIRCLE
  5
117
  8
0
 10
-10.17249344728161
 20
54.60000000000002
 30
-18.93281677064765
 40
5.999999999999998
210
0.0
220
0.0
230
-1.0
  0
CIRCLE
  5
118
  8
0
 10
-10.17249344728161
 20
69.40000000000002
 30
-18.93281677064765
 40
6.0
210
0.0
220
0.0
230
-1.0
  0
CIRCLE
  5
119
  8
0
 10
-43.74721089438729
 20
84.20000000000003
 30
-18.93281677064765
 40
6.0
210
0.0
220
0.0
230
-1.0
  0
CIRCLE
  5
11A
  8
0
 10
-43.74721089438724
 20
69.4
 30
-18.93281677064765
 40
5.999999999999997
210
0.0
220
0.0
230
-1.0
  0
CIRCLE
  5
11B
  8
0
 10
-26.98000000000003
 20
84.20000000000003
 30
-18.93281677064765
 40
6.000000000000002
210
0.0
220
0.0
230
-1.0
  0
LINE
  5
11C
  8
0
 10
57.99999999999999
 20
93.00000000000003
 30
18.93281677064765
 11
46.0
 21
93.00000000000003
 31
18.93281677064765
  0
LINE
  5
11D
  8
0
 10
30.0
 20
105.0
 30
18.93281677064765
 11
42.0
 21
105.0
 31
18.93281677064765
  0
CIRCLE
  5
11E
  8
0
 10
-10.17249344728161
 20
84.20000000000003
 30
-18.93281677064765
 40
6.000000000000003
210
0.0
220
0.0
230
-1.0
  0
CIRCLE
  5
11F
  8
0
 10
-8.499999999999998
 20
24.50000000000002
 30
-18.93281677064765
 40
1.375
210
0.0
220
0.0
230
-1.0
  0
CIRCLE
  5
120
  8
0
 10
-27.5
 20
116.5
 30
-18.93281677064765
 40
1.374999999999998
210
0.0
220
0.0
230
-1.0
  0
CIRCLE
  5
121
  8
0
 10
-137.55
 20
24.50000000000002
 30
-18.93281677064764
 40
1.375000000000002
210
0.0
220
0.0
230
-1.0
  0
LINE
  5
122
  8
0
 10
114.92
 20
33.72000000000003
 30
18.93281677064761
 11
126.92
 21
33.72000000000003
 31
18.93281677064761
  0
LINE
  5
123
  8
0
 10
126.92
 20
33.72000000000003
 30
18.93281677064761
 11
126.92
 21
45.80000000000003
 31
18.93281677064761
  0
LINE
  5
124
  8
0
 10
114.92
 20
45.80000000000003
 30
18.93281677064761
 11
114.92
 21
33.72000000000003
 31
18.93281677064761
  0
LINE
  5
125
  8
0
 10
126.92
 20
45.80000000000003
 30
18.93281677064761
 11
114.92
 21
45.80000000000003
 31
18.93281677064761
  0
LINE
  5
126
  8
0
 10
111.96
 20
45.80000000000003
 30
18.93281677064765
 11
111.96
 21
33.70000000000003
 31
18.93281677064765
  0
LINE
  5
127
  8
0
 10
120.8115397359717
 20
4.300000000000032
 30
18.93281677064765
 11
132.8115397359717
 21
4.300000000000032
 31
18.93281677064765
  0
CIRCLE
  5
128
  8
0
 10
-118.55
 20
116.5
 30
-18.93281677064765
 40
1.375000000000003
210
0.0
220
0.0
230
-1.0
  0
LINE
  5
129
  8
0
 10
111.96
 20
45.80000000000003
 30
18.93281677064765
 11
99.96000000000002
 21
45.80000000000003
 31
18.93281677064765
  0
CIRCLE
  5
12A
  8
0
 10
-137.55
 20
98.50000000000003
 30
-18.93281677064764
 40
1.375000000000003
210
0.0
220
0.0
230
-1.0
  0
CIRCLE
  5
12B
  8
0
 10
-8.499999999999998
 20
98.50000000000003
 30
-18.93281677064764
 40
1.375000000000003
210
0.0
220
0.0
230
-1.0
  0
POLYLINE
  5
12C
  8
0
 66
     1
 10
0.0
 20
0.0
 30
0.0
 70
    64
 71
   604
 72
   742
  0
VERTEX
  5
12D
  8
0
 10
7.172493447281592
 20
89.39615242270665
 30
18.93281677064765
 70
   192
  0
VERTEX
  5
12E
  8
0
 10
7.124999999999996
 20
98.50000000000003
 30
18.93281677064764
 70
   192
  0
VERTEX
  5
12F
  8
0
 10
5.929852760162309
 20
88.4426406871193
 30
18.93281677064765
 70
   192
  0
VERTEX
  5
130
  8
0
 10
7.171851988852527
 20
98.14412381298406
 30
18.93281677064764
 70
   192
  0
VERTEX
  5
131
  8
0
 10
7.309215069796393
 20
97.81250000000003
 30
18.93281677064764
 70
   192
  0
VERTEX
  5
132
  8
0
 10
8.619579176666466
 20
89.99555495773444
 30
18.93281677064765
 70
   192
  0
VERTEX
  5
133
  8
0
 10
7.527728175868493
 20
97.52772817586852
 30
18.93281677064764
 70
   192
  0
VERTEX
  5
134
  8
0
 10
7.812499999999997
 20
97.30921506979644
 30
18.93281677064764
 70
   192
  0
VERTEX
  5
135
  8
0
 10
8.144123812984033
 20
97.17185198885257
 30
18.93281677064764
 70
   192
  0
VERTEX
  5
136
  8
0
 10
8.499999999999998
 20
97.12500000000003
 30
18.93281677064764
 70
   192
  0
VERTEX
  5
137
  8
0
 10
8.855876187015966
 20
97.17185198885257
 30
18.93281677064764
 70
   192
  0
VERTEX
  5
138
  8
0
 10
10.17249344728159
 20
90.20000000000003
 30
18.93281677064765
 70
   192
  0
VERTEX
  5
139
  8
0
 10
9.1875
 20
97.30921506979644
 30
18.93281677064764
 70
   192
  0
VERTEX
  5
13A
  8
0
 10
9.472271824131504
 20
97.52772817586853
 30
18.93281677064764
 70
   192
  0
VERTEX
  5
13B
  8
0
 10
9.690784930203604
 20
97.81250000000003
 30
18.93281677064764
 70
   192
  0
VERTEX
  5
13C
  8
0
 10
9.828148011147471
 20
98.14412381298408
 30
18.93281677064764
 70
   192
  0
VERTEX
  5
13D
  8
0
 10
9.875000000000002
 20
98.50000000000003
 30
18.93281677064764
 70
   192
  0
VERTEX
  5
13E
  8
0
 10
4.170000000000002
 20
45.80000000000003
 30
18.93281677064765
 70
   192
  0
VERTEX
  5
13F
  8
0
 10
4.172503991138284
 20
69.38875161483003
 30
18.93281677064765
 70
   192
  0
VERTEX
  5
140
  8
0
 10
4.172493447281607
 20
84.2
 30
18.93281677064765
 70
   192
  0
VERTEX
  5
141
  8
0
 10
4.221969272426004
 20
53.83106434309561
 30
18.93281677064765
 70
   192
  0
VERTEX
  5
142
  8
0
 10
4.623743659296413
 20
52.31715620544591
 30
18.93281677064765
 70
   192
  0
VERTEX
  5
143
  8
0
 10
5.403656174475429
 20
50.95882009981732
 30
18.93281677064765
 70
   192
  0
VERTEX
  5
144
  8
0
 10
6.508557068919971
 20
49.8486243870519
 30
18.93281677064765
 70
   192
  0
VERTEX
  5
145
  8
0
 10
7.863149172608706
 20
49.06222707028943
 30
18.93281677064765
 70
   192
  0
VERTEX
  5
146
  8
0
 10
16.16999999999999
 20
45.80000000000003
 30
18.93281677064765
 70
   192
  0
VERTEX
  5
147
  8
0
 10
9.375119272244543
 20
48.65321982708426
 30
18.93281677064765
 70
   192
  0
VERTEX
  5
148
  8
0
 10
10.94142910418602
 20
48.64947582514442
 30
18.93281677064765
 70
   192
  0
VERTEX
  5
149
  8
0
 10
12.45533724183572
 20
49.05125021201483
 30
18.93281677064765
 70
   192
  0
VERTEX
  5
14A
  8
0
 10
13.81367334746431
 20
49.83116272719385
 30
18.93281677064765
 70
   192
  0
VERTEX
  5
14B
  8
0
 10
14.92386906022974
 20
50.93606362163839
 30
18.93281677064765
 70
   192
  0
VERTEX
  5
14C
  8
0
 10
15.7102663769922
 20
52.29065572532713
 30
18.93281677064765
 70
   192
  0
VERTEX
  5
14D
  8
0
 10
16.11927362019736
 20
53.80262582496296
 30
18.93281677064765
 70
   192
  0
VERTEX
  5
14E
  8
0
 10
16.12301762213721
 20
55.36893565690445
 30
18.93281677064765
 70
   192
  0
VERTEX
  5
14F
  8
0
 10
4.376938489547203
 20
82.64708572938488
 30
18.93281677064765
 70
   192
  0
VERTEX
  5
150
  8
0
 10
4.374037377822028
 20
70.94204643592448
 30
18.93281677064765
 70
   192
  0
VERTEX
  5
151
  8
0
 10
4.970725963237715
 20
72.39025334076292
 30
18.93281677064765
 70
   192
  0
VERTEX
  5
152
  8
0
 10
4.976341024574984
 20
81.2
 30
18.93281677064765
 70
   192
  0
VERTEX
  5
153
  8
0
 10
5.921906406363778
 20
73.63467942205565
 30
18.93281677064765
 70
   192
  0
VERTEX
  5
154
  8
0
 10
5.92985276016234
 20
79.95735931288073
 30
18.93281677064765
 70
   192
  0
VERTEX
  5
155
  8
0
 10
7.16275733190118
 20
74.59051909887393
 30
18.93281677064765
 70
   192
  0
VERTEX
  5
156
  8
0
 10
7.172493447281628
 20
79.00384757729339
 30
18.93281677064765
 70
   192
  0
VERTEX
  5
157
  8
0
 10
8.608716799877659
 20
75.19263347684232
 30
18.93281677064765
 70
   192
  0
VERTEX
  5
158
  8
0
 10
8.619579176666504
 20
78.4044450422656
 30
18.93281677064765
 70
   192
  0
VERTEX
  5
159
  8
0
 10
10.16124506211162
 20
75.39998945614335
 30
18.93281677064765
 70
   192
  0
VERTEX
  5
15A
  8
0
 10
10.17249344728163
 20
78.20000000000003
 30
18.93281677064765
 70
   192
  0
VERTEX
  5
15B
  8
0
 10
11.71453988320607
 20
75.1984560694596
 30
18.93281677064765
 70
   192
  0
VERTEX
  5
15C
  8
0
 10
11.72540771789676
 20
78.40444504226562
 30
18.93281677064765
 70
   192
  0
VERTEX
  5
15D
  8
0
 10
13.16274678804451
 20
74.60176748404392
 30
18.93281677064765
 70
   192
  0
VERTEX
  5
15E
  8
0
 10
13.17249344728163
 20
79.0038475772934
 30
18.93281677064765
 70
   192
  0
VERTEX
  5
15F
  8
0
 10
14.40717286933724
 20
73.65058704091786
 30
18.93281677064765
 70
   192
  0
VERTEX
  5
160
  8
0
 10
14.41513413440091
 20
79.95735931288075
 30
18.93281677064765
 70
   192
  0
VERTEX
  5
161
  8
0
 10
15.36301254615551
 20
72.40973611538045
 30
18.93281677064765
 70
   192
  0
VERTEX
  5
162
  8
0
 10
15.36864586998826
 20
81.20000000000005
 30
18.93281677064765
 70
   192
  0
VERTEX
  5
163
  8
0
 10
15.9651269241239
 20
70.96377664740398
 30
18.93281677064765
 70
   192
  0
VERTEX
  5
164
  8
0
 10
15.96804840501603
 20
82.64708572938493
 30
18.93281677064765
 70
   192
  0
VERTEX
  5
165
  8
0
 10
16.17248290342493
 20
69.41124838517001
 30
18.93281677064765
 70
   192
  0
VERTEX
  5
166
  8
0
 10
16.17249344728161
 20
84.20000000000005
 30
18.93281677064765
 70
   192
  0
VERTEX
  5
167
  8
0
 10
4.225713274365853
 20
55.39737417503709
 30
18.93281677064765
 70
   192
  0
VERTEX
  5
168
  8
0
 10
4.379859970439314
 20
67.83622335259606
 30
18.93281677064765
 70
   192
  0
VERTEX
  5
169
  8
0
 10
4.634720517571014
 20
56.90934427467293
 30
18.93281677064765
 70
   192
  0
VERTEX
  5
16A
  8
0
 10
4.98197434840771
 20
66.39026388461959
 30
18.93281677064765
 70
   192
  0
VERTEX
  5
16B
  8
0
 10
5.421117834333482
 20
58.26393637836167
 30
18.93281677064765
 70
   192
  0
VERTEX
  5
16C
  8
0
 10
5.937814025225981
 20
65.14941295908218
 30
18.93281677064765
 70
   192
  0
VERTEX
  5
16D
  8
0
 10
6.531313547098908
 20
59.3688372728062
 30
18.93281677064765
 70
   192
  0
VERTEX
  5
16E
  8
0
 10
7.182240106518713
 20
64.19823251595612
 30
18.93281677064765
 70
   192
  0
VERTEX
  5
16F
  8
0
 10
7.889649652727494
 20
60.14874978798522
 30
18.93281677064765
 70
   192
  0
VERTEX
  5
170
  8
0
 10
8.630447011357147
 20
63.60154393054044
 30
18.93281677064765
 70
   192
  0
VERTEX
  5
171
  8
0
 10
9.403557790377194
 20
60.55052417485563
 30
18.93281677064765
 70
   192
  0
VERTEX
  5
172
  8
0
 10
10.1837418324516
 20
63.40001054385669
 30
18.93281677064765
 70
   192
  0
VERTEX
  5
173
  8
0
 10
10.96986762231868
 20
60.54678017291578
 30
18.93281677064765
 70
   192
  0
VERTEX
  5
174
  8
0
 10
11.73627009468556
 20
63.60736652315772
 30
18.93281677064765
 70
   192
  0
VERTEX
  5
175
  8
0
 10
12.48183772195451
 20
60.13777292971062
 30
18.93281677064765
 70
   192
  0
VERTEX
  5
176
  8
0
 10
13.18222956266204
 20
64.20948090112611
 30
18.93281677064765
 70
   192
  0
VERTEX
  5
177
  8
0
 10
13.83642982564325
 20
59.35137561294815
 30
18.93281677064765
 70
   192
  0
VERTEX
  5
178
  8
0
 10
14.42308048819944
 20
65.16532057794439
 30
18.93281677064765
 70
   192
  0
VERTEX
  5
179
  8
0
 10
14.94133072008779
 20
58.24117990018272
 30
18.93281677064765
 70
   192
  0
VERTEX
  5
17A
  8
0
 10
15.37426093132551
 20
66.40974665923713
 30
18.93281677064765
 70
   192
  0
VERTEX
  5
17B
  8
0
 10
15.72124323526681
 20
56.88284379455414
 30
18.93281677064765
 70
   192
  0
VERTEX
  5
17C
  8
0
 10
15.97094951674119
 20
67.85795356407556
 30
18.93281677064765
 70
   192
  0
VERTEX
  5
17D
  8
0
 10
25.99999999999999
 20
105.0
 30
18.93281677064765
 70
   192
  0
VERTEX
  5
17E
  8
0
 10
14.0
 20
123.5
 30
18.93281677064765
 70
   192
  0
VERTEX
  5
17F
  8
0
 10
14.0
 20
105.0
 30
18.93281677064765
 70
   192
  0
VERTEX
  5
180
  8
0
 10
24.99359848919328
 20
123.5
 30
18.93281677064765
 70
   192
  0
VERTEX
  5
181
  8
0
 10
24.99359848919328
 20
131.5124515137409
 30
18.93281677064765
 70
   192
  0
VERTEX
  5
182
  8
0
 10
24.99359848919328
 20
135.6
 30
18.93281677064765
 70
   192
  0
VERTEX
  5
183
  8
0
 10
24.99359848919328
 20
143.6
 30
18.93281677064765
 70
   192
  0
VERTEX
  5
184
  8
0
 10
24.99359848919328
 20
147.7
 30
18.93281677064765
 70
   192
  0
VERTEX
  5
185
  8
0
 10
24.99359848919328
 20
155.7
 30
18.93281677064765
 70
   192
  0
VERTEX
  5
186
  8
0
 10
24.99359848919328
 20
159.8
 30
18.93281677064765
 70
   192
  0
VERTEX
  5
187
  8
0
 10
24.99359848919328
 20
167.8
 30
18.93281677064765
 70
   192
  0
VERTEX
  5
188
  8
0
 10
14.41513413440088
 20
88.44264068711932
 30
18.93281677064765
 70
   192
  0
VERTEX
  5
189
  8
0
 10
14.0
 20
93.00000000000003
 30
18.93281677064765
 70
   192
  0
VERTEX
  5
18A
  8
0
 10
13.17249344728159
 20
89.39615242270668
 30
18.93281677064765
 70
   192
  0
VERTEX
  5
18B
  8
0
 10
25.99999999999999
 20
93.00000000000003
 30
18.93281677064765
 70
   192
  0
VERTEX
  5
18C
  8
0
 10
15.36864586998823
 20
87.20000000000005
 30
18.93281677064765
 70
   192
  0
VERTEX
  5
18D
  8
0
 10
15.96804840501601
 20
85.75291427061518
 30
18.93281677064765
 70
   192
  0
VERTEX
  5
18E
  8
0
 10
21.7838475772934
 20
87.20000000000002
 30
18.93281677064765
 70
   192
  0
VERTEX
  5
18F
  8
0
 10
21.18444504226562
 20
85.75291427061514
 30
18.93281677064765
 70
   192
  0
VERTEX
  5
190
  8
0
 10
20.98000000000003
 20
84.20000000000002
 30
18.93281677064765
 70
   192
  0
VERTEX
  5
191
  8
0
 10
20.98
 20
54.60000000000002
 30
18.93281677064765
 70
   192
  0
VERTEX
  5
192
  8
0
 10
22.73735931288074
 20
88.44264068711931
 30
18.93281677064765
 70
   192
  0
VERTEX
  5
193
  8
0
 10
23.98000000000003
 20
89.39615242270665
 30
18.93281677064765
 70
   192
  0
VERTEX
  5
194
  8
0
 10
25.4270857293849
 20
89.99555495773444
 30
18.93281677064765
 70
   192
  0
VERTEX
  5
195
  8
0
 10
26.98000000000003
 20
90.20000000000003
 30
18.93281677064765
 70
   192
  0
VERTEX
  5
196
  8
0
 10
26.125
 20
116.5
 30
18.93281677064765
 70
   192
  0
VERTEX
  5
197
  8
0
 10
26.17185198885253
 20
116.1441238129841
 30
18.93281677064765
 70
   192
  0
VERTEX
  5
198
  8
0
 10
26.30921506979639
 20
115.8125
 30
18.93281677064765
 70
   192
  0
VERTEX
  5
199
  8
0
 10
26.5277281758685
 20
115.5277281758685
 30
18.93281677064765
 70
   192
  0
VERTEX
  5
19A
  8
0
 10
26.8125
 20
115.3092150697964
 30
18.93281677064765
 70
   192
  0
VERTEX
  5
19B
  8
0
 10
27.14412381298403
 20
115.1718519888526
 30
18.93281677064765
 70
   192
  0
VERTEX
  5
19C
  8
0
 10
28.53291427061515
 20
89.99555495773444
 30
18.93281677064765
 70
   192
  0
VERTEX
  5
19D
  8
0
 10
27.5
 20
115.125
 30
18.93281677064765
 70
   192
  0
VERTEX
  5
19E
  8
0
 10
27.85587618701596
 20
115.1718519888526
 30
18.93281677064765
 70
   192
  0
VERTEX
  5
19F
  8
0
 10
28.1875
 20
115.3092150697964
 30
18.93281677064765
 70
   192
  0
VERTEX
  5
1A0
  8
0
 10
28.47227182413149
 20
115.5277281758685
 30
18.93281677064765
 70
   192
  0
VERTEX
  5
1A1
  8
0
 10
28.69078493020359
 20
115.8125
 30
18.93281677064765
 70
   192
  0
VERTEX
  5
1A2
  8
0
 10
29.98000000000003
 20
89.39615242270666
 30
18.93281677064765
 70
   192
  0
VERTEX
  5
1A3
  8
0
 10
28.82814801114746
 20
116.1441238129841
 30
18.93281677064765
 70
   192
  0
VERTEX
  5
1A4
  8
0
 10
28.87499999999999
 20
116.5
 30
18.93281677064765
 70
   192
  0
VERTEX
  5
1A5
  8
0
 10
4.170000000000002
 20
33.80000000000003
 30
18.93281677064765
 70
   192
  0
VERTEX
  5
1A6
  8
0
 10
7.651623047053918
 20
25.58207280055917
 30
18.93281677064765
 70
   192
  0
VERTEX
  5
1A7
  8
0
 10
16.16999999999999
 20
33.80000000000003
 30
18.93281677064765
 70
   192
  0
VERTEX
  5
1A8
  8
0
 10
7.400469741748823
 20
25.32562595113656
 30
18.93281677064765
 70
   192
  0
VERTEX
  5
1A9
  8
0
 10
7.224247606483882
 20
25.01291405755538
 30
18.93281677064765
 70
   192
  0
VERTEX
  5
1AA
  8
0
 10
7.134965888556549
 20
24.66524791858236
 30
18.93281677064765
 70
   192
  0
VERTEX
  5
1AB
  8
0
 10
7.960591839693084
 20
25.76477817683354
 30
18.93281677064765
 70
   192
  0
VERTEX
  5
1AC
  8
0
 10
8.306320407043032
 20
25.86129101050146
 30
18.93281677064765
 70
   192
  0
VERTEX
  5
1AD
  8
0
 10
8.665247918582338
 20
25.86503411144347
 30
18.93281677064765
 70
   192
  0
VERTEX
  5
1AE
  8
0
 10
9.012914057555356
 20
25.77575239351614
 30
18.93281677064765
 70
   192
  0
VERTEX
  5
1AF
  8
0
 10
9.325625951136532
 20
25.5995302582512
 30
18.93281677064765
 70
   192
  0
VERTEX
  5
1B0
  8
0
 10
9.58207280055915
 20
25.3483769529461
 30
18.93281677064765
 70
   192
  0
VERTEX
  5
1B1
  8
0
 10
9.764778176833513
 20
25.03940816030694
 30
18.93281677064765
 70
   192
  0
VERTEX
  5
1B2
  8
0
 10
9.861291010501438
 20
24.69367959295699
 30
18.93281677064765
 70
   192
  0
VERTEX
  5
1B3
  8
0
 10
9.865034111443448
 20
24.33475208141768
 30
18.93281677064765
 70
   192
  0
VERTEX
  5
1B4
  8
0
 10
15.49359848919328
 20
29.30000000000003
 30
18.93281677064765
 70
   192
  0
VERTEX
  5
1B5
  8
0
 10
15.49359848919328
 20
3.30000000000003
 30
18.93281677064765
 70
   192
  0
VERTEX
  5
1B6
  8
0
 10
26.49359848919327
 20
29.30000000000003
 30
18.93281677064765
 70
   192
  0
VERTEX
  5
1B7
  8
0
 10
21.78384757729341
 20
36.80000000000001
 30
18.93281677064765
 70
   192
  0
VERTEX
  5
1B8
  8
0
 10
21.18444504226562
 20
38.24708572938488
 30
18.93281677064765
 70
   192
  0
VERTEX
  5
1B9
  8
0
 10
20.98000000000003
 20
39.80000000000001
 30
18.93281677064765
 70
   192
  0
VERTEX
  5
1BA
  8
0
 10
22.73735931288075
 20
35.55735931288073
 30
18.93281677064765
 70
   192
  0
VERTEX
  5
1BB
  8
0
 10
23.98000000000005
 20
34.60384757729339
 30
18.93281677064765
 70
   192
  0
VERTEX
  5
1BC
  8
0
 10
25.42708572938492
 20
34.00444504226562
 30
18.93281677064765
 70
   192
  0
VERTEX
  5
1BD
  8
0
 10
26.98000000000004
 20
33.80000000000003
 30
18.93281677064765
 70
   192
  0
VERTEX
  5
1BE
  8
0
 10
14.0
 20
159.8
 30
18.93281677064765
 70
   192
  0
VERTEX
  5
1BF
  8
0
 10
14.0
 20
155.7
 30
18.93281677064765
 70
   192
  0
VERTEX
  5
1C0
  8
0
 10
14.0
 20
147.7
 30
18.93281677064765
 70
   192
  0
VERTEX
  5
1C1
  8
0
 10
14.0
 20
143.6
 30
18.93281677064765
 70
   192
  0
VERTEX
  5
1C2
  8
0
 10
14.0
 20
135.6
 30
18.93281677064765
 70
   192
  0
VERTEX
  5
1C3
  8
0
 10
14.0
 20
131.5124515137409
 30
18.93281677064765
 70
   192
  0
VERTEX
  5
1C4
  8
0
 10
31.22264068711931
 20
88.44264068711932
 30
18.93281677064765
 70
   192
  0
VERTEX
  5
1C5
  8
0
 10
30.0
 20
93.00000000000003
 30
18.93281677064765
 70
   192
  0
VERTEX
  5
1C6
  8
0
 10
42.0
 20
93.00000000000003
 30
18.93281677064765
 70
   192
  0
VERTEX
  5
1C7
  8
0
 10
32.17615242270666
 20
87.20000000000003
 30
18.93281677064765
 70
   192
  0
VERTEX
  5
1C8
  8
0
 10
32.77555495773444
 20
85.75291427061516
 30
18.93281677064765
 70
   192
  0
VERTEX
  5
1C9
  8
0
 10
32.98000000000003
 20
84.20000000000003
 30
18.93281677064765
 70
   192
  0
VERTEX
  5
1CA
  8
0
 10
38.55105847168065
 20
87.20000000000005
 30
18.93281677064765
 70
   192
  0
VERTEX
  5
1CB
  8
0
 10
37.95165593665288
 20
85.75291427061516
 30
18.93281677064765
 70
   192
  0
VERTEX
  5
1CC
  8
0
 10
37.74721089438729
 20
84.20000000000005
 30
18.93281677064765
 70
   192
  0
VERTEX
  5
1CD
  8
0
 10
37.71614843959873
 20
54.60000000000002
 30
18.93281677064765
 70
   192
  0
VERTEX
  5
1CE
  8
0
 10
37.74721089438724
 20
69.4
 30
18.93281677064765
 70
   192
  0
VERTEX
  5
1CF
  8
0
 10
39.504570207268
 20
88.44264068711932
 30
18.93281677064765
 70
   192
  0
VERTEX
  5
1D0
  8
0
 10
40.74721089438729
 20
89.39615242270668
 30
18.93281677064765
 70
   192
  0
VERTEX
  5
1D1
  8
0
 10
42.19429662377217
 20
89.99555495773444
 30
18.93281677064765
 70
   192
  0
VERTEX
  5
1D2
  8
0
 10
42.0
 20
105.0
 30
18.93281677064765
 70
   192
  0
VERTEX
  5
1D3
  8
0
 10
37.77
 20
45.80000000000003
 30
18.93281677064765
 70
   192
  0
VERTEX
  5
1D4
  8
0
 10
37.92059348186432
 20
53.0470857293849
 30
18.93281677064765
 70
   192
  0
VERTEX
  5
1D5
  8
0
 10
37.77
 20
33.70000000000003
 30
18.93281677064765
 70
   192
  0
VERTEX
  5
1D6
  8
0
 10
38.51999601689209
 20
51.60000000000002
 30
18.93281677064765
 70
   192
  0
VERTEX
  5
1D7
  8
0
 10
39.47350775247944
 20
50.35735931288074
 30
18.93281677064765
 70
   192
  0
VERTEX
  5
1D8
  8
0
 10
40.71614843959873
 20
49.40384757729339
 30
18.93281677064765
 70
   192
  0
VERTEX
  5
1D9
  8
0
 10
42.16323416898361
 20
48.80444504226561
 30
18.93281677064765
 70
   192
  0
VERTEX
  5
1DA
  8
0
 10
49.77
 20
45.80000000000003
 30
18.93281677064765
 70
   192
  0
VERTEX
  5
1DB
  8
0
 10
43.71614843959873
 20
48.60000000000002
 30
18.93281677064765
 70
   192
  0
VERTEX
  5
1DC
  8
0
 10
45.26906271021385
 20
48.80444504226561
 30
18.93281677064765
 70
   192
  0
VERTEX
  5
1DD
  8
0
 10
46.71614843959873
 20
49.4038475772934
 30
18.93281677064765
 70
   192
  0
VERTEX
  5
1DE
  8
0
 10
47.95878912671801
 20
50.35735931288074
 30
18.93281677064765
 70
   192
  0
VERTEX
  5
1DF
  8
0
 10
48.91230086230536
 20
51.60000000000003
 30
18.93281677064765
 70
   192
  0
VERTEX
  5
1E0
  8
0
 10
49.51170339733314
 20
53.0470857293849
 30
18.93281677064765
 70
   192
  0
VERTEX
  5
1E1
  8
0
 10
49.71614843959873
 20
54.60000000000002
 30
18.93281677064765
 70
   192
  0
VERTEX
  5
1E2
  8
0
 10
49.74721089438724
 20
69.4
 30
18.93281677064765
 70
   192
  0
VERTEX
  5
1E3
  8
0
 10
49.74721089438729
 20
84.20000000000003
 30
18.93281677064765
 70
   192
  0
VERTEX
  5
1E4
  8
0
 10
37.95165593665283
 20
70.95291427061514
 30
18.93281677064765
 70
   192
  0
VERTEX
  5
1E5
  8
0
 10
37.95165593665288
 20
82.64708572938493
 30
18.93281677064765
 70
   192
  0
VERTEX
  5
1E6
  8
0
 10
38.55105847168061
 20
72.4
 30
18.93281677064765
 70
   192
  0
VERTEX
  5
1E7
  8
0
 10
38.55105847168065
 20
81.20000000000005
 30
18.93281677064765
 70
   192
  0
VERTEX
  5
1E8
  8
0
 10
39.50457020726795
 20
73.6426406871193
 30
18.93281677064765
 70
   192
  0
VERTEX
  5
1E9
  8
0
 10
39.504570207268
 20
79.95735931288075
 30
18.93281677064765
 70
   192
  0
VERTEX
  5
1EA
  8
0
 10
40.74721089438724
 20
74.59615242270664
 30
18.93281677064765
 70
   192
  0
VERTEX
  5
1EB
  8
0
 10
40.74721089438728
 20
79.0038475772934
 30
18.93281677064765
 70
   192
  0
VERTEX
  5
1EC
  8
0
 10
42.19429662377212
 20
75.19555495773442
 30
18.93281677064765
 70
   192
  0
VERTEX
  5
1ED
  8
0
 10
42.19429662377215
 20
78.40444504226562
 30
18.93281677064765
 70
   192
  0
VERTEX
  5
1EE
  8
0
 10
43.74721089438724
 20
75.4
 30
18.93281677064765
 70
   192
  0
VERTEX
  5
1EF
  8
0
 10
43.74721089438729
 20
78.20000000000003
 30
18.93281677064765
 70
   192
  0
VERTEX
  5
1F0
  8
0
 10
45.30012516500236
 20
75.19555495773442
 30
18.93281677064765
 70
   192
  0
VERTEX
  5
1F1
  8
0
 10
45.30012516500241
 20
78.40444504226562
 30
18.93281677064765
 70
   192
  0
VERTEX
  5
1F2
  8
0
 10
46.74721089438724
 20
74.59615242270664
 30
18.93281677064765
 70
   192
  0
VERTEX
  5
1F3
  8
0
 10
46.74721089438728
 20
79.0038475772934
 30
18.93281677064765
 70
   192
  0
VERTEX
  5
1F4
  8
0
 10
47.98985158150653
 20
73.6426406871193
 30
18.93281677064765
 70
   192
  0
VERTEX
  5
1F5
  8
0
 10
47.98985158150657
 20
79.95735931288075
 30
18.93281677064765
 70
   192
  0
VERTEX
  5
1F6
  8
0
 10
48.94336331709387
 20
72.40000000000002
 30
18.93281677064765
 70
   192
  0
VERTEX
  5
1F7
  8
0
 10
48.94336331709391
 20
81.20000000000003
 30
18.93281677064765
 70
   192
  0
VERTEX
  5
1F8
  8
0
 10
49.54276585212165
 20
70.95291427061514
 30
18.93281677064765
 70
   192
  0
VERTEX
  5
1F9
  8
0
 10
49.5427658521217
 20
82.64708572938491
 30
18.93281677064765
 70
   192
  0
VERTEX
  5
1FA
  8
0
 10
37.92059348186432
 20
56.15291427061515
 30
18.93281677064765
 70
   192
  0
VERTEX
  5
1FB
  8
0
 10
37.95165593665283
 20
67.84708572938489
 30
18.93281677064765
 70
   192
  0
VERTEX
  5
1FC
  8
0
 10
38.51999601689209
 20
57.60000000000002
 30
18.93281677064765
 70
   192
  0
VERTEX
  5
1FD
  8
0
 10
38.55105847168061
 20
66.4
 30
18.93281677064765
 70
   192
  0
VERTEX
  5
1FE
  8
0
 10
39.47350775247944
 20
58.84264068711931
 30
18.93281677064765
 70
   192
  0
VERTEX
  5
1FF
  8
0
 10
39.50457020726795
 20
65.15735931288073
 30
18.93281677064765
 70
   192
  0
VERTEX
  5
200
  8
0
 10
40.71614843959873
 20
59.79615242270666
 30
18.93281677064765
 70
   192
  0
VERTEX
  5
201
  8
0
 10
40.74721089438724
 20
64.20384757729337
 30
18.93281677064765
 70
   192
  0
VERTEX
  5
202
  8
0
 10
42.1632341689836
 20
60.39555495773443
 30
18.93281677064765
 70
   192
  0
VERTEX
  5
203
  8
0
 10
42.19429662377212
 20
63.6044450422656
 30
18.93281677064765
 70
   192
  0
VERTEX
  5
204
  8
0
 10
43.71614843959873
 20
60.60000000000002
 30
18.93281677064765
 70
   192
  0
VERTEX
  5
205
  8
0
 10
43.74721089438724
 20
63.40000000000001
 30
18.93281677064765
 70
   192
  0
VERTEX
  5
206
  8
0
 10
45.26906271021385
 20
60.39555495773443
 30
18.93281677064765
 70
   192
  0
VERTEX
  5
207
  8
0
 10
45.30012516500237
 20
63.6044450422656
 30
18.93281677064765
 70
   192
  0
VERTEX
  5
208
  8
0
 10
46.71614843959873
 20
59.79615242270666
 30
18.93281677064765
 70
   192
  0
VERTEX
  5
209
  8
0
 10
46.74721089438724
 20
64.20384757729337
 30
18.93281677064765
 70
   192
  0
VERTEX
  5
20A
  8
0
 10
47.95878912671801
 20
58.84264068711931
 30
18.93281677064765
 70
   192
  0
VERTEX
  5
20B
  8
0
 10
47.98985158150653
 20
65.15735931288073
 30
18.93281677064765
 70
   192
  0
VERTEX
  5
20C
  8
0
 10
48.91230086230535
 20
57.60000000000003
 30
18.93281677064765
 70
   192
  0
VERTEX
  5
20D
  8
0
 10
48.94336331709388
 20
66.40000000000002
 30
18.93281677064765
 70
   192
  0
VERTEX
  5
20E
  8
0
 10
49.51170339733314
 20
56.15291427061515
 30
18.93281677064765
 70
   192
  0
VERTEX
  5
20F
  8
0
 10
49.54276585212165
 20
67.84708572938489
 30
18.93281677064765
 70
   192
  0
VERTEX
  5
210
  8
0
 10
29.45359848919327
 20
18.30000000000003
 30
18.93281677064765
 70
   192
  0
VERTEX
  5
211
  8
0
 10
37.42405104558238
 20
15.34000000000003
 30
18.93281677064765
 70
   192
  0
VERTEX
  5
212
  8
0
 10
41.45359848919328
 20
18.30000000000003
 30
18.93281677064765
 70
   192
  0
VERTEX
  5
213
  8
0
 10
37.42405104558238
 20
3.340000000000031
 30
18.93281677064765
 70
   192
  0
VERTEX
  5
214
  8
0
 10
49.42405104558237
 20
15.34000000000003
 30
18.93281677064765
 70
   192
  0
VERTEX
  5
215
  8
0
 10
44.41359848919328
 20
18.30000000000003
 30
18.93281677064765
 70
   192
  0
VERTEX
  5
216
  8
0
 10
41.45359848919328
 20
30.30000000000003
 30
18.93281677064765
 70
   192
  0
VERTEX
  5
217
  8
0
 10
56.41359848919328
 20
18.30000000000003
 30
18.93281677064765
 70
   192
  0
VERTEX
  5
218
  8
0
 10
82.24000000000002
 20
75.40000000000002
 30
18.93281677064765
 70
   192
  0
VERTEX
  5
219
  8
0
 10
70.04000000000002
 20
78.20000000000003
 30
18.93281677064765
 70
   192
  0
VERTEX
  5
21A
  8
0
 10
70.04000000000002
 20
75.40000000000002
 30
18.93281677064765
 70
   192
  0
VERTEX
  5
21B
  8
0
 10
82.04000000000002
 20
78.20000000000003
 30
18.93281677064765
 70
   192
  0
VERTEX
  5
21C
  8
0
 10
82.04000000000002
 20
90.20000000000003
 30
18.93281677064765
 70
   192
  0
VERTEX
  5
21D
  8
0
 10
46.74721089438729
 20
89.39615242270668
 30
18.93281677064765
 70
   192
  0
VERTEX
  5
21E
  8
0
 10
46.0
 20
93.00000000000003
 30
18.93281677064765
 70
   192
  0
VERTEX
  5
21F
  8
0
 10
45.30012516500241
 20
89.99555495773444
 30
18.93281677064765
 70
   192
  0
VERTEX
  5
220
  8
0
 10
57.99999999999999
 20
93.00000000000003
 30
18.93281677064765
 70
   192
  0
VERTEX
  5
221
  8
0
 10
47.98985158150658
 20
88.44264068711932
 30
18.93281677064765
 70
   192
  0
VERTEX
  5
222
  8
0
 10
48.94336331709392
 20
87.20000000000003
 30
18.93281677064765
 70
   192
  0
VERTEX
  5
223
  8
0
 10
49.5427658521217
 20
85.75291427061516
 30
18.93281677064765
 70
   192
  0
VERTEX
  5
224
  8
0
 10
55.08000000000003
 20
90.20000000000003
 30
18.93281677064765
 70
   192
  0
VERTEX
  5
225
  8
0
 10
55.08000000000003
 20
33.70000000000003
 30
18.93281677064765
 70
   192
  0
VERTEX
  5
226
  8
0
 10
55.08000000000003
 20
45.80000000000003
 30
18.93281677064765
 70
   192
  0
VERTEX
  5
227
  8
0
 10
55.08000000000003
 20
48.60000000000002
 30
18.93281677064765
 70
   192
  0
VERTEX
  5
228
  8
0
 10
55.08000000000003
 20
60.60000000000002
 30
18.93281677064765
 70
   192
  0
VERTEX
  5
229
  8
0
 10
55.08000000000003
 20
63.40000000000002
 30
18.93281677064765
 70
   192
  0
VERTEX
  5
22A
  8
0
 10
55.08000000000003
 20
75.40000000000002
 30
18.93281677064765
 70
   192
  0
VERTEX
  5
22B
  8
0
 10
55.08000000000003
 20
78.20000000000003
 30
18.93281677064765
 70
   192
  0
VERTEX
  5
22C
  8
0
 10
67.08000000000003
 20
90.20000000000003
 30
18.93281677064765
 70
   192
  0
VERTEX
  5
22D
  8
0
 10
62.0
 20
93.00000000000003
 30
18.93281677064765
 70
   192
  0
VERTEX
  5
22E
  8
0
 10
57.99999999999999
 20
105.0
 30
18.93281677064765
 70
   192
  0
VERTEX
  5
22F
  8
0
 10
74.0
 20
93.00000000000003
 30
18.93281677064765
 70
   192
  0
VERTEX
  5
230
  8
0
 10
70.04000000000002
 20
90.20000000000003
 30
18.93281677064765
 70
   192
  0
VERTEX
  5
231
  8
0
 10
70.04000000000002
 20
33.70000000000003
 30
18.93281677064765
 70
   192
  0
VERTEX
  5
232
  8
0
 10
70.04000000000002
 20
45.80000000000003
 30
18.93281677064765
 70
   192
  0
VERTEX
  5
233
  8
0
 10
70.04000000000002
 20
48.60000000000002
 30
18.93281677064765
 70
   192
  0
VERTEX
  5
234
  8
0
 10
70.04000000000002
 20
60.60000000000002
 30
18.93281677064765
 70
   192
  0
VERTEX
  5
235
  8
0
 10
70.04000000000002
 20
63.40000000000002
 30
18.93281677064765
 70
   192
  0
VERTEX
  5
236
  8
0
 10
77.99999999999999
 20
93.00000000000003
 30
18.93281677064765
 70
   192
  0
VERTEX
  5
237
  8
0
 10
74.0
 20
105.0
 30
18.93281677064765
 70
   192
  0
VERTEX
  5
238
  8
0
 10
90.0
 20
93.00000000000003
 30
18.93281677064765
 70
   192
  0
VERTEX
  5
239
  8
0
 10
85.00000000000003
 20
90.20000000000003
 30
18.93281677064765
 70
   192
  0
VERTEX
  5
23A
  8
0
 10
85.00000000000003
 20
33.70000000000003
 30
18.93281677064765
 70
   192
  0
VERTEX
  5
23B
  8
0
 10
85.00000000000003
 20
45.80000000000003
 30
18.93281677064765
 70
   192
  0
VERTEX
  5
23C
  8
0
 10
85.00000000000003
 20
48.60000000000002
 30
18.93281677064765
 70
   192
  0
VERTEX
  5
23D
  8
0
 10
85.00000000000003
 20
60.60000000000002
 30
18.93281677064765
 70
   192
  0
VERTEX
  5
23E
  8
0
 10
85.00000000000003
 20
63.40000000000002
 30
18.93281677064765
 70
   192
  0
VERTEX
  5
23F
  8
0
 10
85.00000000000003
 20
75.40000000000002
 30
18.93281677064765
 70
   192
  0
VERTEX
  5
240
  8
0
 10
85.00000000000003
 20
78.20000000000003
 30
18.93281677064765
 70
   192
  0
VERTEX
  5
241
  8
0
 10
97.00000000000003
 20
90.20000000000003
 30
18.93281677064765
 70
   192
  0
VERTEX
  5
242
  8
0
 10
93.99999999999999
 20
93.00000000000003
 30
18.93281677064765
 70
   192
  0
VERTEX
  5
243
  8
0
 10
90.0
 20
105.0
 30
18.93281677064765
 70
   192
  0
VERTEX
  5
244
  8
0
 10
106.0
 20
93.00000000000003
 30
18.93281677064765
 70
   192
  0
VERTEX
  5
245
  8
0
 10
99.96000000000002
 20
90.20000000000003
 30
18.93281677064765
 70
   192
  0
VERTEX
  5
246
  8
0
 10
99.96000000000002
 20
33.70000000000003
 30
18.93281677064765
 70
   192
  0
VERTEX
  5
247
  8
0
 10
99.96000000000002
 20
45.80000000000003
 30
18.93281677064765
 70
   192
  0
VERTEX
  5
248
  8
0
 10
99.96000000000002
 20
48.60000000000002
 30
18.93281677064765
 70
   192
  0
VERTEX
  5
249
  8
0
 10
99.96000000000002
 20
60.60000000000002
 30
18.93281677064765
 70
   192
  0
VERTEX
  5
24A
  8
0
 10
99.96000000000002
 20
63.40000000000002
 30
18.93281677064765
 70
   192
  0
VERTEX
  5
24B
  8
0
 10
99.96000000000002
 20
75.40000000000002
 30
18.93281677064765
 70
   192
  0
VERTEX
  5
24C
  8
0
 10
99.96000000000002
 20
78.20000000000003
 30
18.93281677064765
 70
   192
  0
VERTEX
  5
24D
  8
0
 10
111.96
 20
90.20000000000003
 30
18.93281677064765
 70
   192
  0
VERTEX
  5
24E
  8
0
 10
109.7393468449602
 20
93.00000000000003
 30
18.93281677064765
 70
   192
  0
VERTEX
  5
24F
  8
0
 10
106.0
 20
105.0
 30
18.93281677064765
 70
   192
  0
VERTEX
  5
250
  8
0
 10
132.2393468449602
 20
93.00000000000003
 30
18.93281677064765
 70
   192
  0
VERTEX
  5
251
  8
0
 10
114.92
 20
90.20000000000003
 30
18.93281677064765
 70
   192
  0
VERTEX
  5
252
  8
0
 10
114.92
 20
33.72000000000003
 30
18.93281677064761
 70
   192
  0
VERTEX
  5
253
  8
0
 10
114.92
 20
45.80000000000003
 30
18.93281677064761
 70
   192
  0
VERTEX
  5
254
  8
0
 10
114.92
 20
48.60000000000002
 30
18.93281677064765
 70
   192
  0
VERTEX
  5
255
  8
0
 10
114.92
 20
60.60000000000002
 30
18.93281677064765
 70
   192
  0
VERTEX
  5
256
  8
0
 10
114.92
 20
63.40000000000002
 30
18.93281677064765
 70
   192
  0
VERTEX
  5
257
  8
0
 10
114.92
 20
75.40000000000002
 30
18.93281677064765
 70
   192
  0
VERTEX
  5
258
  8
0
 10
114.92
 20
78.20000000000003
 30
18.93281677064765
 70
   192
  0
VERTEX
  5
259
  8
0
 10
126.92
 20
90.20000000000003
 30
18.93281677064765
 70
   192
  0
VERTEX
  5
25A
  8
0
 10
129.88
 20
90.20000000000003
 30
18.93281677064765
 70
   192
  0
VERTEX
  5
25B
  8
0
 10
129.88
 20
33.72000000000003
 30
18.93281677064765
 70
   192
  0
VERTEX
  5
25C
  8
0
 10
129.88
 20
45.80000000000003
 30
18.93281677064765
 70
   192
  0
VERTEX
  5
25D
  8
0
 10
129.88
 20
48.60000000000002
 30
18.93281677064765
 70
   192
  0
VERTEX
  5
25E
  8
0
 10
129.88
 20
60.60000000000002
 30
18.93281677064765
 70
   192
  0
VERTEX
  5
25F
  8
0
 10
129.88
 20
63.40000000000002
 30
18.93281677064765
 70
   192
  0
VERTEX
  5
260
  8
0
 10
129.88
 20
75.40000000000002
 30
18.93281677064765
 70
   192
  0
VERTEX
  5
261
  8
0
 10
129.88
 20
78.20000000000003
 30
18.93281677064765
 70
   192
  0
VERTEX
  5
262
  8
0
 10
141.88
 20
90.20000000000003
 30
18.93281677064765
 70
   192
  0
VERTEX
  5
263
  8
0
 10
136.3592150697964
 20
97.81250000000003
 30
18.93281677064764
 70
   192
  0
VERTEX
  5
264
  8
0
 10
132.2393468449602
 20
105.0
 30
18.93281677064765
 70
   192
  0
VERTEX
  5
265
  8
0
 10
136.2218519888525
 20
98.14412381298406
 30
18.93281677064764
 70
   192
  0
VERTEX
  5
266
  8
0
 10
132.55
 20
123.5
 30
18.93281677064765
 70
   192
  0
VERTEX
  5
267
  8
0
 10
136.175
 20
98.50000000000003
 30
18.93281677064764
 70
   192
  0
VERTEX
  5
268
  8
0
 10
132.55
 20
131.5
 30
18.93281677064765
 70
   192
  0
VERTEX
  5
269
  8
0
 10
132.55
 20
135.6
 30
18.93281677064765
 70
   192
  0
VERTEX
  5
26A
  8
0
 10
132.55
 20
143.6
 30
18.93281677064765
 70
   192
  0
VERTEX
  5
26B
  8
0
 10
132.55
 20
147.7
 30
18.93281677064765
 70
   192
  0
VERTEX
  5
26C
  8
0
 10
132.55
 20
155.7
 30
18.93281677064765
 70
   192
  0
VERTEX
  5
26D
  8
0
 10
132.55
 20
159.8
 30
18.93281677064765
 70
   192
  0
VERTEX
  5
26E
  8
0
 10
132.55
 20
167.8
 30
18.93281677064765
 70
   192
  0
VERTEX
  5
26F
  8
0
 10
136.5777281758685
 20
97.52772817586852
 30
18.93281677064764
 70
   192
  0
VERTEX
  5
270
  8
0
 10
136.8625
 20
97.30921506979644
 30
18.93281677064764
 70
   192
  0
VERTEX
  5
271
  8
0
 10
137.194123812984
 20
97.17185198885257
 30
18.93281677064764
 70
   192
  0
VERTEX
  5
272
  8
0
 10
137.55
 20
97.12500000000003
 30
18.93281677064764
 70
   192
  0
VERTEX
  5
273
  8
0
 10
137.905876187016
 20
97.17185198885257
 30
18.93281677064764
 70
   192
  0
VERTEX
  5
274
  8
0
 10
138.2375
 20
97.30921506979644
 30
18.93281677064764
 70
   192
  0
VERTEX
  5
275
  8
0
 10
138.5222718241315
 20
97.52772817586853
 30
18.93281677064764
 70
   192
  0
VERTEX
  5
276
  8
0
 10
138.7407849302036
 20
97.81250000000003
 30
18.93281677064764
 70
   192
  0
VERTEX
  5
277
  8
0
 10
138.8781480111475
 20
98.14412381298408
 30
18.93281677064764
 70
   192
  0
VERTEX
  5
278
  8
0
 10
138.925
 20
98.50000000000003
 30
18.93281677064764
 70
   192
  0
VERTEX
  5
279
  8
0
 10
-0.4999999999999991
 20
-0.4999999999999765
 30
18.93281677064765
 70
   192
  0
VERTEX
  5
27A
  8
0
 10
7.235221823166484
 20
23.96059183969311
 30
18.93281677064765
 70
   192
  0
VERTEX
  5
27B
  8
0
 10
146.55
 20
-0.4999999999999765
 30
18.93281677064765
 70
   192
  0
VERTEX
  5
27C
  8
0
 10
7.138708989498562
 20
24.30632040704306
 30
18.93281677064765
 70
   192
  0
VERTEX
  5
27D
  8
0
 10
7.417927199440847
 20
23.65162304705394
 30
18.93281677064765
 70
   192
  0
VERTEX
  5
27E
  8
0
 10
7.674374048863466
 20
23.40046974174885
 30
18.93281677064765
 70
   192
  0
VERTEX
  5
27F
  8
0
 10
7.987085942444641
 20
23.22424760648391
 30
18.93281677064765
 70
   192
  0
VERTEX
  5
280
  8
0
 10
8.334752081417658
 20
23.13496588855658
 30
18.93281677064765
 70
   192
  0
VERTEX
  5
281
  8
0
 10
8.693679592956965
 20
23.13870898949859
 30
18.93281677064765
 70
   192
  0
VERTEX
  5
282
  8
0
 10
9.039408160306914
 20
23.23522182316651
 30
18.93281677064765
 70
   192
  0
VERTEX
  5
283
  8
0
 10
9.34837695294608
 20
23.41792719944087
 30
18.93281677064765
 70
   192
  0
VERTEX
  5
284
  8
0
 10
9.599530258251173
 20
23.67437404886349
 30
18.93281677064765
 70
   192
  0
VERTEX
  5
285
  8
0
 10
9.775752393516115
 20
23.98708594244467
 30
18.93281677064765
 70
   192
  0
VERTEX
  5
286
  8
0
 10
26.49359848919327
 20
3.30000000000003
 30
18.93281677064765
 70
   192
  0
VERTEX
  5
287
  8
0
 10
28.53291427061517
 20
34.00444504226562
 30
18.93281677064765
 70
   192
  0
VERTEX
  5
288
  8
0
 10
49.42405104558237
 20
3.340000000000031
 30
18.93281677064765
 70
   192
  0
VERTEX
  5
289
  8
0
 10
60.52692907775384
 20
3.340000000000031
 30
18.93281677064765
 70
   192
  0
VERTEX
  5
28A
  8
0
 10
56.41359848919328
 20
30.30000000000003
 30
18.93281677064765
 70
   192
  0
VERTEX
  5
28B
  8
0
 10
59.37359848919328
 20
18.30000000000003
 30
18.93281677064765
 70
   192
  0
VERTEX
  5
28C
  8
0
 10
59.37359848919327
 20
30.30000000000003
 30
18.93281677064765
 70
   192
  0
VERTEX
  5
28D
  8
0
 10
83.52692907775385
 20
3.340000000000031
 30
18.93281677064765
 70
   192
  0
VERTEX
  5
28E
  8
0
 10
89.29359848919327
 20
3.340000000000031
 30
18.93281677064765
 70
   192
  0
VERTEX
  5
28F
  8
0
 10
83.52692907775385
 20
15.34000000000003
 30
18.93281677064765
 70
   192
  0
VERTEX
  5
290
  8
0
 10
86.33359848919328
 20
18.30000000000003
 30
18.93281677064765
 70
   192
  0
VERTEX
  5
291
  8
0
 10
86.33359848919328
 20
30.30000000000003
 30
18.93281677064765
 70
   192
  0
VERTEX
  5
292
  8
0
 10
101.2935984891933
 20
3.340000000000031
 30
18.93281677064765
 70
   192
  0
VERTEX
  5
293
  8
0
 10
104.2535984891933
 20
3.440000000000028
 30
18.93281677064765
 70
   192
  0
VERTEX
  5
294
  8
0
 10
101.2935984891933
 20
15.34000000000003
 30
18.93281677064765
 70
   192
  0
VERTEX
  5
295
  8
0
 10
101.2935984891933
 20
18.30000000000003
 30
18.93281677064765
 70
   192
  0
VERTEX
  5
296
  8
0
 10
101.2935984891933
 20
30.30000000000002
 30
18.93281677064765
 70
   192
  0
VERTEX
  5
297
  8
0
 10
116.1535984891933
 20
3.440000000000028
 30
18.93281677064765
 70
   192
  0
VERTEX
  5
298
  8
0
 10
120.8115397359717
 20
4.300000000000032
 30
18.93281677064765
 70
   192
  0
VERTEX
  5
299
  8
0
 10
116.1535984891933
 20
15.34000000000003
 30
18.93281677064765
 70
   192
  0
VERTEX
  5
29A
  8
0
 10
116.2535984891933
 20
18.30000000000003
 30
18.93281677064765
 70
   192
  0
VERTEX
  5
29B
  8
0
 10
116.2535984891933
 20
30.30000000000003
 30
18.93281677064765
 70
   192
  0
VERTEX
  5
29C
  8
0
 10
132.8115397359717
 20
4.300000000000032
 30
18.93281677064765
 70
   192
  0
VERTEX
  5
29D
  8
0
 10
132.8115397359717
 20
30.30000000000002
 30
18.93281677064765
 70
   192
  0
VERTEX
  5
29E
  8
0
 10
136.3123700619878
 20
23.90091975784884
 30
18.93281677064764
 70
   192
  0
VERTEX
  5
29F
  8
0
 10
136.1994879032721
 20
24.2416551208333
 30
18.93281677064764
 70
   192
  0
VERTEX
  5
2A0
  8
0
 10
136.1786409121217
 20
24.59999626039787
 30
18.93281677064764
 70
   192
  0
VERTEX
  5
2A1
  8
0
 10
136.5095946556988
 20
23.60101072334008
 30
18.93281677064764
 70
   192
  0
VERTEX
  5
2A2
  8
0
 10
136.7777211542729
 20
23.36236632238566
 30
18.93281677064764
 70
   192
  0
VERTEX
  5
2A3
  8
0
 10
137.0984771799321
 20
23.20124977653213
 30
18.93281677064764
 70
   192
  0
VERTEX
  5
2A4
  8
0
 10
137.4500037396022
 20
23.12864091212171
 30
18.93281677064764
 70
   192
  0
VERTEX
  5
2A5
  8
0
 10
137.8083448791668
 20
23.14948790327214
 30
18.93281677064764
 70
   192
  0
VERTEX
  5
2A6
  8
0
 10
138.1490802421512
 20
23.26237006198782
 30
18.93281677064764
 70
   192
  0
VERTEX
  5
2A7
  8
0
 10
138.44898927666
 20
23.45959465569885
 30
18.93281677064764
 70
   192
  0
VERTEX
  5
2A8
  8
0
 10
138.6876336776144
 20
23.72772115427289
 30
18.93281677064764
 70
   192
  0
VERTEX
  5
2A9
  8
0
 10
138.8487502234679
 20
24.04847717993209
 30
18.93281677064764
 70
   192
  0
VERTEX
  5
2AA
  8
0
 10
138.9213590878783
 20
24.40000373960218
 30
18.93281677064764
 70
   192
  0
VERTEX
  5
2AB
  8
0
 10
141.88
 20
33.72000000000003
 30
18.93281677064765
 70
   192
  0
VERTEX
  5
2AC
  8
0
 10
141.88
 20
45.80000000000003
 30
18.93281677064765
 70
   192
  0
VERTEX
  5
2AD
  8
0
 10
141.88
 20
48.60000000000002
 30
18.93281677064765
 70
   192
  0
VERTEX
  5
2AE
  8
0
 10
141.88
 20
60.60000000000002
 30
18.93281677064765
 70
   192
  0
VERTEX
  5
2AF
  8
0
 10
141.88
 20
63.40000000000002
 30
18.93281677064765
 70
   192
  0
VERTEX
  5
2B0
  8
0
 10
141.88
 20
75.40000000000002
 30
18.93281677064765
 70
   192
  0
VERTEX
  5
2B1
  8
0
 10
141.88
 20
78.20000000000003
 30
18.93281677064765
 70
   192
  0
VERTEX
  5
2B2
  8
0
 10
-0.5000000000000004
 20
181.5
 30
18.93281677064765
 70
   192
  0
VERTEX
  5
2B3
  8
0
 10
34.52500000000001
 20
175.9889037387595
 30
18.93281677064765
 70
   192
  0
VERTEX
  5
2B4
  8
0
 10
146.55
 20
181.5
 30
18.93281677064765
 70
   192
  0
VERTEX
  5
2B5
  8
0
 10
14.0
 20
167.8
 30
18.93281677064765
 70
   192
  0
VERTEX
  5
2B6
  8
0
 10
4.376938489547192
 20
85.75291427061514
 30
18.93281677064765
 70
   192
  0
VERTEX
  5
2B7
  8
0
 10
4.976341024574967
 20
87.2
 30
18.93281677064765
 70
   192
  0
VERTEX
  5
2B8
  8
0
 10
7.171851988852526
 20
98.855876187016
 30
18.93281677064764
 70
   192
  0
VERTEX
  5
2B9
  8
0
 10
7.309215069796393
 20
99.18750000000003
 30
18.93281677064764
 70
   192
  0
VERTEX
  5
2BA
  8
0
 10
7.527728175868493
 20
99.47227182413154
 30
18.93281677064764
 70
   192
  0
VERTEX
  5
2BB
  8
0
 10
7.812499999999997
 20
99.69078493020363
 30
18.93281677064764
 70
   192
  0
VERTEX
  5
2BC
  8
0
 10
8.14412381298403
 20
99.8281480111475
 30
18.93281677064764
 70
   192
  0
VERTEX
  5
2BD
  8
0
 10
8.499999999999998
 20
99.87500000000004
 30
18.93281677064764
 70
   192
  0
VERTEX
  5
2BE
  8
0
 10
8.855876187015966
 20
99.8281480111475
 30
18.93281677064764
 70
   192
  0
VERTEX
  5
2BF
  8
0
 10
9.1875
 20
99.69078493020363
 30
18.93281677064764
 70
   192
  0
VERTEX
  5
2C0
  8
0
 10
9.472271824131504
 20
99.47227182413154
 30
18.93281677064764
 70
   192
  0
VERTEX
  5
2C1
  8
0
 10
9.690784930203604
 20
99.18750000000003
 30
18.93281677064764
 70
   192
  0
VERTEX
  5
2C2
  8
0
 10
9.82814801114747
 20
98.855876187016
 30
18.93281677064764
 70
   192
  0
VERTEX
  5
2C3
  8
0
 10
11.72540771789672
 20
89.99555495773444
 30
18.93281677064765
 70
   192
  0
VERTEX
  5
2C4
  8
0
 10
26.17185198885253
 20
116.855876187016
 30
18.93281677064765
 70
   192
  0
VERTEX
  5
2C5
  8
0
 10
26.30921506979639
 20
117.1875
 30
18.93281677064765
 70
   192
  0
VERTEX
  5
2C6
  8
0
 10
26.5277281758685
 20
117.4722718241315
 30
18.93281677064765
 70
   192
  0
VERTEX
  5
2C7
  8
0
 10
26.81249999999999
 20
117.6907849302036
 30
18.93281677064765
 70
   192
  0
VERTEX
  5
2C8
  8
0
 10
27.14412381298403
 20
117.8281480111475
 30
18.93281677064765
 70
   192
  0
VERTEX
  5
2C9
  8
0
 10
27.5
 20
117.875
 30
18.93281677064765
 70
   192
  0
VERTEX
  5
2CA
  8
0
 10
27.85587618701596
 20
117.8281480111475
 30
18.93281677064765
 70
   192
  0
VERTEX
  5
2CB
  8
0
 10
28.18749999999999
 20
117.6907849302036
 30
18.93281677064765
 70
   192
  0
VERTEX
  5
2CC
  8
0
 10
28.47227182413149
 20
117.4722718241315
 30
18.93281677064765
 70
   192
  0
VERTEX
  5
2CD
  8
0
 10
28.69078493020359
 20
117.1875
 30
18.93281677064765
 70
   192
  0
VERTEX
  5
2CE
  8
0
 10
28.82814801114746
 20
116.855876187016
 30
18.93281677064765
 70
   192
  0
VERTEX
  5
2CF
  8
0
 10
30.0
 20
105.0
 30
18.93281677064765
 70
   192
  0
VERTEX
  5
2D0
  8
0
 10
34.52500000000001
 20
112.0
 30
18.93281677064765
 70
   192
  0
VERTEX
  5
2D1
  8
0
 10
111.5249999999999
 20
175.9889037387595
 30
18.93281677064765
 70
   192
  0
VERTEX
  5
2D2
  8
0
 10
121.55
 20
167.8
 30
18.93281677064765
 70
   192
  0
VERTEX
  5
2D3
  8
0
 10
117.175
 20
116.5
 30
18.93281677064765
 70
   192
  0
VERTEX
  5
2D4
  8
0
 10
117.2218519888526
 20
116.855876187016
 30
18.93281677064765
 70
   192
  0
VERTEX
  5
2D5
  8
0
 10
117.3592150697964
 20
117.1875
 30
18.93281677064765
 70
   192
  0
VERTEX
  5
2D6
  8
0
 10
117.5777281758685
 20
117.4722718241315
 30
18.93281677064765
 70
   192
  0
VERTEX
  5
2D7
  8
0
 10
117.8625
 20
117.6907849302036
 30
18.93281677064765
 70
   192
  0
VERTEX
  5
2D8
  8
0
 10
118.1941238129841
 20
117.8281480111475
 30
18.93281677064765
 70
   192
  0
VERTEX
  5
2D9
  8
0
 10
118.55
 20
117.875
 30
18.93281677064765
 70
   192
  0
VERTEX
  5
2DA
  8
0
 10
118.905876187016
 20
117.8281480111475
 30
18.93281677064765
 70
   192
  0
VERTEX
  5
2DB
  8
0
 10
119.2375
 20
117.6907849302036
 30
18.93281677064765
 70
   192
  0
VERTEX
  5
2DC
  8
0
 10
119.5222718241315
 20
117.4722718241315
 30
18.93281677064765
 70
   192
  0
VERTEX
  5
2DD
  8
0
 10
119.7407849302036
 20
117.1875
 30
18.93281677064765
 70
   192
  0
VERTEX
  5
2DE
  8
0
 10
119.8781480111475
 20
116.855876187016
 30
18.93281677064765
 70
   192
  0
VERTEX
  5
2DF
  8
0
 10
119.925
 20
116.5
 30
18.93281677064765
 70
   192
  0
VERTEX
  5
2E0
  8
0
 10
121.55
 20
123.5
 30
18.93281677064765
 70
   192
  0
VERTEX
  5
2E1
  8
0
 10
121.55
 20
131.5
 30
18.93281677064765
 70
   192
  0
VERTEX
  5
2E2
  8
0
 10
121.55
 20
135.6
 30
18.93281677064765
 70
   192
  0
VERTEX
  5
2E3
  8
0
 10
121.55
 20
143.6
 30
18.93281677064765
 70
   192
  0
VERTEX
  5
2E4
  8
0
 10
121.55
 20
147.7
 30
18.93281677064765
 70
   192
  0
VERTEX
  5
2E5
  8
0
 10
121.55
 20
155.7
 30
18.93281677064765
 70
   192
  0
VERTEX
  5
2E6
  8
0
 10
121.55
 20
159.8
 30
18.93281677064765
 70
   192
  0
VERTEX
  5
2E7
  8
0
 10
136.2218519888525
 20
98.855876187016
 30
18.93281677064764
 70
   192
  0
VERTEX
  5
2E8
  8
0
 10
136.3592150697964
 20
99.18750000000003
 30
18.93281677064764
 70
   192
  0
VERTEX
  5
2E9
  8
0
 10
136.5777281758685
 20
99.47227182413154
 30
18.93281677064764
 70
   192
  0
VERTEX
  5
2EA
  8
0
 10
136.8625
 20
99.69078493020363
 30
18.93281677064764
 70
   192
  0
VERTEX
  5
2EB
  8
0
 10
137.194123812984
 20
99.8281480111475
 30
18.93281677064764
 70
   192
  0
VERTEX
  5
2EC
  8
0
 10
137.55
 20
99.87500000000004
 30
18.93281677064764
 70
   192
  0
VERTEX
  5
2ED
  8
0
 10
137.905876187016
 20
99.8281480111475
 30
18.93281677064764
 70
   192
  0
VERTEX
  5
2EE
  8
0
 10
138.2375
 20
99.69078493020363
 30
18.93281677064764
 70
   192
  0
VERTEX
  5
2EF
  8
0
 10
138.5222718241315
 20
99.47227182413154
 30
18.93281677064764
 70
   192
  0
VERTEX
  5
2F0
  8
0
 10
138.7407849302036
 20
99.18750000000003
 30
18.93281677064764
 70
   192
  0
VERTEX
  5
2F1
  8
0
 10
138.8781480111475
 20
98.855876187016
 30
18.93281677064764
 70
   192
  0
VERTEX
  5
2F2
  8
0
 10
29.45359848919327
 20
30.30000000000003
 30
18.93281677064765
 70
   192
  0
VERTEX
  5
2F3
  8
0
 10
29.98000000000004
 20
34.60384757729341
 30
18.93281677064765
 70
   192
  0
VERTEX
  5
2F4
  8
0
 10
31.22264068711933
 20
35.55735931288076
 30
18.93281677064765
 70
   192
  0
VERTEX
  5
2F5
  8
0
 10
32.17615242270666
 20
36.80000000000005
 30
18.93281677064765
 70
   192
  0
VERTEX
  5
2F6
  8
0
 10
32.77555495773444
 20
38.24708572938492
 30
18.93281677064765
 70
   192
  0
VERTEX
  5
2F7
  8
0
 10
32.98000000000003
 20
39.80000000000005
 30
18.93281677064765
 70
   192
  0
VERTEX
  5
2F8
  8
0
 10
49.77
 20
33.70000000000003
 30
18.93281677064765
 70
   192
  0
VERTEX
  5
2F9
  8
0
 10
44.41359848919328
 20
30.30000000000003
 30
18.93281677064765
 70
   192
  0
VERTEX
  5
2FA
  8
0
 10
67.08000000000003
 20
33.70000000000003
 30
18.93281677064765
 70
   192
  0
VERTEX
  5
2FB
  8
0
 10
71.37359848919327
 20
30.30000000000003
 30
18.93281677064765
 70
   192
  0
VERTEX
  5
2FC
  8
0
 10
67.08000000000003
 20
45.80000000000003
 30
18.93281677064765
 70
   192
  0
VERTEX
  5
2FD
  8
0
 10
67.08000000000003
 20
48.60000000000002
 30
18.93281677064765
 70
   192
  0
VERTEX
  5
2FE
  8
0
 10
67.08000000000003
 20
60.60000000000002
 30
18.93281677064765
 70
   192
  0
VERTEX
  5
2FF
  8
0
 10
67.08000000000003
 20
63.40000000000002
 30
18.93281677064765
 70
   192
  0
VERTEX
  5
300
  8
0
 10
67.08000000000003
 20
75.40000000000002
 30
18.93281677064765
 70
   192
  0
VERTEX
  5
301
  8
0
 10
67.08000000000003
 20
78.20000000000003
 30
18.93281677064765
 70
   192
  0
VERTEX
  5
302
  8
0
 10
81.94000000000003
 20
33.70000000000003
 30
18.93281677064765
 70
   192
  0
VERTEX
  5
303
  8
0
 10
74.33359848919328
 20
30.30000000000003
 30
18.93281677064765
 70
   192
  0
VERTEX
  5
304
  8
0
 10
74.33359848919328
 20
18.30000000000003
 30
18.93281677064765
 70
   192
  0
VERTEX
  5
305
  8
0
 10
81.94000000000003
 20
45.80000000000003
 30
18.93281677064765
 70
   192
  0
VERTEX
  5
306
  8
0
 10
82.04000000000002
 20
48.60000000000002
 30
18.93281677064765
 70
   192
  0
VERTEX
  5
307
  8
0
 10
82.04000000000002
 20
60.60000000000002
 30
18.93281677064765
 70
   192
  0
VERTEX
  5
308
  8
0
 10
82.24000000000002
 20
63.40000000000002
 30
18.93281677064765
 70
   192
  0
VERTEX
  5
309
  8
0
 10
97.00000000000003
 20
33.70000000000003
 30
18.93281677064765
 70
   192
  0
VERTEX
  5
30A
  8
0
 10
89.29359848919327
 20
30.30000000000002
 30
18.93281677064765
 70
   192
  0
VERTEX
  5
30B
  8
0
 10
89.29359848919327
 20
15.34000000000003
 30
18.93281677064765
 70
   192
  0
VERTEX
  5
30C
  8
0
 10
89.29359848919327
 20
18.30000000000003
 30
18.93281677064765
 70
   192
  0
VERTEX
  5
30D
  8
0
 10
97.00000000000003
 20
45.80000000000003
 30
18.93281677064765
 70
   192
  0
VERTEX
  5
30E
  8
0
 10
97.00000000000003
 20
48.60000000000002
 30
18.93281677064765
 70
   192
  0
VERTEX
  5
30F
  8
0
 10
97.00000000000003
 20
60.60000000000002
 30
18.93281677064765
 70
   192
  0
VERTEX
  5
310
  8
0
 10
97.00000000000003
 20
63.40000000000002
 30
18.93281677064765
 70
   192
  0
VERTEX
  5
311
  8
0
 10
97.00000000000003
 20
75.40000000000002
 30
18.93281677064765
 70
   192
  0
VERTEX
  5
312
  8
0
 10
97.00000000000003
 20
78.20000000000003
 30
18.93281677064765
 70
   192
  0
VERTEX
  5
313
  8
0
 10
111.96
 20
33.70000000000003
 30
18.93281677064765
 70
   192
  0
VERTEX
  5
314
  8
0
 10
104.2535984891933
 20
30.30000000000003
 30
18.93281677064765
 70
   192
  0
VERTEX
  5
315
  8
0
 10
104.2535984891933
 20
15.34000000000003
 30
18.93281677064765
 70
   192
  0
VERTEX
  5
316
  8
0
 10
104.2535984891933
 20
18.30000000000003
 30
18.93281677064765
 70
   192
  0
VERTEX
  5
317
  8
0
 10
111.96
 20
45.80000000000003
 30
18.93281677064765
 70
   192
  0
VERTEX
  5
318
  8
0
 10
111.96
 20
48.60000000000002
 30
18.93281677064765
 70
   192
  0
VERTEX
  5
319
  8
0
 10
111.96
 20
60.60000000000002
 30
18.93281677064765
 70
   192
  0
VERTEX
  5
31A
  8
0
 10
111.96
 20
63.40000000000002
 30
18.93281677064765
 70
   192
  0
VERTEX
  5
31B
  8
0
 10
111.96
 20
75.40000000000002
 30
18.93281677064765
 70
   192
  0
VERTEX
  5
31C
  8
0
 10
111.96
 20
78.20000000000003
 30
18.93281677064765
 70
   192
  0
VERTEX
  5
31D
  8
0
 10
126.92
 20
33.72000000000003
 30
18.93281677064761
 70
   192
  0
VERTEX
  5
31E
  8
0
 10
120.8115397359717
 20
30.30000000000002
 30
18.93281677064765
 70
   192
  0
VERTEX
  5
31F
  8
0
 10
126.92
 20
45.80000000000003
 30
18.93281677064761
 70
   192
  0
VERTEX
  5
320
  8
0
 10
126.92
 20
48.60000000000002
 30
18.93281677064765
 70
   192
  0
VERTEX
  5
321
  8
0
 10
126.92
 20
60.60000000000002
 30
18.93281677064765
 70
   192
  0
VERTEX
  5
322
  8
0
 10
126.92
 20
63.40000000000002
 30
18.93281677064765
 70
   192
  0
VERTEX
  5
323
  8
0
 10
126.92
 20
75.40000000000002
 30
18.93281677064765
 70
   192
  0
VERTEX
  5
324
  8
0
 10
126.92
 20
78.20000000000003
 30
18.93281677064765
 70
   192
  0
VERTEX
  5
325
  8
0
 10
136.4123663223857
 20
25.27227884572715
 30
18.93281677064764
 70
   192
  0
VERTEX
  5
326
  8
0
 10
136.2512497765321
 20
24.95152282006795
 30
18.93281677064764
 70
   192
  0
VERTEX
  5
327
  8
0
 10
136.6510107233401
 20
25.54040534430119
 30
18.93281677064764
 70
   192
  0
VERTEX
  5
328
  8
0
 10
136.9509197578488
 20
25.73762993801223
 30
18.93281677064764
 70
   192
  0
VERTEX
  5
329
  8
0
 10
137.2916551208333
 20
25.8505120967279
 30
18.93281677064764
 70
   192
  0
VERTEX
  5
32A
  8
0
 10
137.6499962603978
 20
25.87135908787834
 30
18.93281677064764
 70
   192
  0
VERTEX
  5
32B
  8
0
 10
138.0015228200679
 20
25.79875022346792
 30
18.93281677064764
 70
   192
  0
VERTEX
  5
32C
  8
0
 10
138.3222788457271
 20
25.63763367761438
 30
18.93281677064764
 70
   192
  0
VERTEX
  5
32D
  8
0
 10
138.5904053443012
 20
25.39898927665997
 30
18.93281677064764
 70
   192
  0
VERTEX
  5
32E
  8
0
 10
138.7876299380122
 20
25.0990802421512
 30
18.93281677064764
 70
   192
  0
VERTEX
  5
32F
  8
0
 10
138.9005120967279
 20
24.75834487916675
 30
18.93281677064764
 70
   192
  0
VERTEX
  5
330
  8
0
 10
111.5249999999999
 20
112.0
 30
18.93281677064765
 70
   192
  0
VERTEX
  5
331
  8
0
 10
46.0
 20
105.0
 30
18.93281677064765
 70
   192
  0
VERTEX
  5
332
  8
0
 10
43.74721089438729
 20
90.20000000000003
 30
18.93281677064765
 70
   192
  0
VERTEX
  5
333
  8
0
 10
62.0
 20
105.0
 30
18.93281677064765
 70
   192
  0
VERTEX
  5
334
  8
0
 10
77.99999999999999
 20
105.0
 30
18.93281677064765
 70
   192
  0
VERTEX
  5
335
  8
0
 10
93.99999999999999
 20
105.0
 30
18.93281677064765
 70
   192
  0
VERTEX
  5
336
  8
0
 10
109.7393468449602
 20
105.0
 30
18.93281677064765
 70
   192
  0
VERTEX
  5
337
  8
0
 10
117.8625
 20
115.3092150697964
 30
18.93281677064765
 70
   192
  0
VERTEX
  5
338
  8
0
 10
117.5777281758685
 20
115.5277281758685
 30
18.93281677064765
 70
   192
  0
VERTEX
  5
339
  8
0
 10
117.3592150697964
 20
115.8125
 30
18.93281677064765
 70
   192
  0
VERTEX
  5
33A
  8
0
 10
117.2218519888526
 20
116.1441238129841
 30
18.93281677064765
 70
   192
  0
VERTEX
  5
33B
  8
0
 10
118.1941238129841
 20
115.1718519888526
 30
18.93281677064765
 70
   192
  0
VERTEX
  5
33C
  8
0
 10
118.55
 20
115.125
 30
18.93281677064765
 70
   192
  0
VERTEX
  5
33D
  8
0
 10
118.905876187016
 20
115.1718519888526
 30
18.93281677064765
 70
   192
  0
VERTEX
  5
33E
  8
0
 10
119.2375
 20
115.3092150697964
 30
18.93281677064765
 70
   192
  0
VERTEX
  5
33F
  8
0
 10
119.5222718241315
 20
115.5277281758685
 30
18.93281677064765
 70
   192
  0
VERTEX
  5
340
  8
0
 10
119.7407849302036
 20
115.8125
 30
18.93281677064765
 70
   192
  0
VERTEX
  5
341
  8
0
 10
119.8781480111475
 20
116.1441238129841
 30
18.93281677064765
 70
   192
  0
VERTEX
  5
342
  8
0
 10
60.52692907775384
 20
15.34000000000003
 30
18.93281677064765
 70
   192
  0
VERTEX
  5
343
  8
0
 10
71.37359848919327
 20
18.30000000000003
 30
18.93281677064765
 70
   192
  0
VERTEX
  5
344
  8
0
 10
20.98011979042688
 20
69.4379139917777
 30
18.93281677064765
 70
   192
  0
VERTEX
  5
345
  8
0
 10
21.18444504226559
 20
56.15291427061513
 30
18.93281677064765
 70
   192
  0
VERTEX
  5
346
  8
0
 10
21.17474788778474
 20
67.88373883726457
 30
18.93281677064765
 70
   192
  0
VERTEX
  5
347
  8
0
 10
21.76499432295734
 20
66.4328943752518
 30
18.93281677064765
 70
   192
  0
VERTEX
  5
348
  8
0
 10
21.78384757729338
 20
57.60000000000001
 30
18.93281677064765
 70
   192
  0
VERTEX
  5
349
  8
0
 10
22.71063477681604
 20
65.18425325819173
 30
18.93281677064765
 70
   192
  0
VERTEX
  5
34A
  8
0
 10
22.73735931288072
 20
58.8426406871193
 30
18.93281677064765
 70
   192
  0
VERTEX
  5
34B
  8
0
 10
23.9472254151751
 20
64.22290831473502
 30
18.93281677064765
 70
   192
  0
VERTEX
  5
34C
  8
0
 10
23.98
 20
59.79615242270665
 30
18.93281677064765
 70
   192
  0
VERTEX
  5
34D
  8
0
 10
25.39049462959301
 20
63.61437361408057
 30
18.93281677064765
 70
   192
  0
VERTEX
  5
34E
  8
0
 10
25.42708572938488
 20
60.39555495773443
 30
18.93281677064765
 70
   192
  0
VERTEX
  5
34F
  8
0
 10
26.94208600822234
 20
63.40011979042687
 30
18.93281677064765
 70
   192
  0
VERTEX
  5
350
  8
0
 10
26.98
 20
60.60000000000002
 30
18.93281677064765
 70
   192
  0
VERTEX
  5
351
  8
0
 10
28.49626116273549
 20
63.59474788778472
 30
18.93281677064765
 70
   192
  0
VERTEX
  5
352
  8
0
 10
28.53291427061513
 20
60.39555495773443
 30
18.93281677064765
 70
   192
  0
VERTEX
  5
353
  8
0
 10
29.94710562474825
 20
64.18499432295734
 30
18.93281677064765
 70
   192
  0
VERTEX
  5
354
  8
0
 10
29.98
 20
59.79615242270665
 30
18.93281677064765
 70
   192
  0
VERTEX
  5
355
  8
0
 10
31.19574674180831
 20
65.13063477681604
 30
18.93281677064765
 70
   192
  0
VERTEX
  5
356
  8
0
 10
31.22264068711929
 20
58.8426406871193
 30
18.93281677064765
 70
   192
  0
VERTEX
  5
357
  8
0
 10
32.15709168526503
 20
66.36722541517508
 30
18.93281677064765
 70
   192
  0
VERTEX
  5
358
  8
0
 10
32.17615242270664
 20
57.60000000000002
 30
18.93281677064765
 70
   192
  0
VERTEX
  5
359
  8
0
 10
32.76562638591947
 20
67.81049462959301
 30
18.93281677064765
 70
   192
  0
VERTEX
  5
35A
  8
0
 10
32.77555495773441
 20
56.15291427061513
 30
18.93281677064765
 70
   192
  0
VERTEX
  5
35B
  8
0
 10
32.97988020957317
 20
69.36208600822233
 30
18.93281677064765
 70
   192
  0
VERTEX
  5
35C
  8
0
 10
32.98
 20
54.60000000000002
 30
18.93281677064765
 70
   192
  0
VERTEX
  5
35D
  8
0
 10
21.18444504226559
 20
53.04708572938489
 30
18.93281677064765
 70
   192
  0
VERTEX
  5
35E
  8
0
 10
21.18444504226561
 20
41.35291427061514
 30
18.93281677064765
 70
   192
  0
VERTEX
  5
35F
  8
0
 10
21.78384757729338
 20
51.60000000000001
 30
18.93281677064765
 70
   192
  0
VERTEX
  5
360
  8
0
 10
21.78384757729339
 20
42.80000000000001
 30
18.93281677064765
 70
   192
  0
VERTEX
  5
361
  8
0
 10
22.73735931288072
 20
50.35735931288073
 30
18.93281677064765
 70
   192
  0
VERTEX
  5
362
  8
0
 10
22.73735931288073
 20
44.0426406871193
 30
18.93281677064765
 70
   192
  0
VERTEX
  5
363
  8
0
 10
23.98000000000001
 20
49.40384757729338
 30
18.93281677064765
 70
   192
  0
VERTEX
  5
364
  8
0
 10
23.98000000000001
 20
44.99615242270665
 30
18.93281677064765
 70
   192
  0
VERTEX
  5
365
  8
0
 10
25.42708572938488
 20
48.80444504226561
 30
18.93281677064765
 70
   192
  0
VERTEX
  5
366
  8
0
 10
25.42708572938488
 20
45.59555495773444
 30
18.93281677064765
 70
   192
  0
VERTEX
  5
367
  8
0
 10
26.98000000000001
 20
45.80000000000003
 30
18.93281677064765
 70
   192
  0
VERTEX
  5
368
  8
0
 10
26.98
 20
48.60000000000002
 30
18.93281677064765
 70
   192
  0
VERTEX
  5
369
  8
0
 10
28.53291427061513
 20
48.80444504226561
 30
18.93281677064765
 70
   192
  0
VERTEX
  5
36A
  8
0
 10
28.53291427061513
 20
45.59555495773444
 30
18.93281677064765
 70
   192
  0
VERTEX
  5
36B
  8
0
 10
29.98000000000001
 20
44.99615242270667
 30
18.93281677064765
 70
   192
  0
VERTEX
  5
36C
  8
0
 10
29.98
 20
49.40384757729338
 30
18.93281677064765
 70
   192
  0
VERTEX
  5
36D
  8
0
 10
31.22264068711929
 20
50.35735931288073
 30
18.93281677064765
 70
   192
  0
VERTEX
  5
36E
  8
0
 10
31.2226406871193
 20
44.04264068711932
 30
18.93281677064765
 70
   192
  0
VERTEX
  5
36F
  8
0
 10
32.17615242270664
 20
51.60000000000002
 30
18.93281677064765
 70
   192
  0
VERTEX
  5
370
  8
0
 10
32.17615242270665
 20
42.80000000000005
 30
18.93281677064765
 70
   192
  0
VERTEX
  5
371
  8
0
 10
32.77555495773441
 20
53.04708572938489
 30
18.93281677064765
 70
   192
  0
VERTEX
  5
372
  8
0
 10
32.77555495773443
 20
41.35291427061517
 30
18.93281677064765
 70
   192
  0
VERTEX
  5
373
  8
0
 10
21.18444504226562
 20
82.64708572938488
 30
18.93281677064765
 70
   192
  0
VERTEX
  5
374
  8
0
 10
21.19437361408059
 20
70.98950537040703
 30
18.93281677064765
 70
   192
  0
VERTEX
  5
375
  8
0
 10
21.7838475772934
 20
81.20000000000002
 30
18.93281677064765
 70
   192
  0
VERTEX
  5
376
  8
0
 10
21.80290831473502
 20
72.43277458482494
 30
18.93281677064765
 70
   192
  0
VERTEX
  5
377
  8
0
 10
22.73735931288075
 20
79.95735931288073
 30
18.93281677064765
 70
   192
  0
VERTEX
  5
378
  8
0
 10
22.76425325819175
 20
73.66936522318402
 30
18.93281677064765
 70
   192
  0
VERTEX
  5
379
  8
0
 10
23.98000000000004
 20
79.00384757729339
 30
18.93281677064765
 70
   192
  0
VERTEX
  5
37A
  8
0
 10
24.0128943752518
 20
74.6150056770427
 30
18.93281677064765
 70
   192
  0
VERTEX
  5
37B
  8
0
 10
25.42708572938491
 20
78.40444504226562
 30
18.93281677064765
 70
   192
  0
VERTEX
  5
37C
  8
0
 10
25.46373883726457
 20
75.20525211221532
 30
18.93281677064765
 70
   192
  0
VERTEX
  5
37D
  8
0
 10
26.98000000000004
 20
78.20000000000003
 30
18.93281677064765
 70
   192
  0
VERTEX
  5
37E
  8
0
 10
27.01791399177771
 20
75.39988020957317
 30
18.93281677064765
 70
   192
  0
VERTEX
  5
37F
  8
0
 10
28.53291427061516
 20
78.40444504226562
 30
18.93281677064765
 70
   192
  0
VERTEX
  5
380
  8
0
 10
28.56950537040704
 20
75.18562638591946
 30
18.93281677064765
 70
   192
  0
VERTEX
  5
381
  8
0
 10
29.98000000000004
 20
79.0038475772934
 30
18.93281677064765
 70
   192
  0
VERTEX
  5
382
  8
0
 10
30.01277458482495
 20
74.57709168526502
 30
18.93281677064765
 70
   192
  0
VERTEX
  5
383
  8
0
 10
31.22264068711933
 20
79.95735931288075
 30
18.93281677064765
 70
   192
  0
VERTEX
  5
384
  8
0
 10
31.24936522318401
 20
73.61574674180831
 30
18.93281677064765
 70
   192
  0
VERTEX
  5
385
  8
0
 10
32.17615242270666
 20
81.20000000000003
 30
18.93281677064765
 70
   192
  0
VERTEX
  5
386
  8
0
 10
32.19500567704272
 20
72.36710562474823
 30
18.93281677064765
 70
   192
  0
VERTEX
  5
387
  8
0
 10
32.77555495773444
 20
82.64708572938491
 30
18.93281677064765
 70
   192
  0
VERTEX
  5
388
  8
0
 10
32.78525211221532
 20
70.91626116273547
 30
18.93281677064765
 70
   192
  0
VERTEX
  5
389
  8
0
 10
0.0
 20
0.0
 30
0.0
 70
   128
 71
    -1
 72
    -2
 73
     3
  0
VERTEX
  5
38A
  8
0
 10
0.0
 20
0.0
 30
0.0
 70
   128
 71
    -2
 72
    -1
 73
     4
  0
VERTEX
  5
38B
  8
0
 10
0.0
 20
0.0
 30
0.0
 70
   128
 71
    -4
 72
    -1
 73
     5
  0
VERTEX
  5
38C
  8
0
 10
0.0
 20
0.0
 30
0.0
 70
   128
 71
    -5
 72
     1
 73
    -6
  0
VERTEX
  5
38D
  8
0
 10
0.0
 20
0.0
 30
0.0
 70
   128
 71
    -5
 72
    -6
 73
     7
  0
VERTEX
  5
38E
  8
0
 10
0.0
 20
0.0
 30
0.0
 70
   128
 71
    -7
 72
    -6
 73
     8
  0
VERTEX
  5
38F
  8
0
 10
0.0
 20
0.0
 30
0.0
 70
   128
 71
    -8
 72
    -6
 73
     9
  0
VERTEX
  5
390
  8
0
 10
0.0
 20
0.0
 30
0.0
 70
   128
 71
    -9
 72
    -6
 73
    10
  0
VERTEX
  5
391
  8
0
 10
0.0
 20
0.0
 30
0.0
 70
   128
 71
   -10
 72
    -6
 73
    11
  0
VERTEX
  5
392
  8
0
 10
0.0
 20
0.0
 30
0.0
 70
   128
 71
   -11
 72
     6
 73
   -12
  0
VERTEX
  5
393
  8
0
 10
0.0
 20
0.0
 30
0.0
 70
   128
 71
   -11
 72
   -12
 73
    13
  0
VERTEX
  5
394
  8
0
 10
0.0
 20
0.0
 30
0.0
 70
   128
 71
   -13
 72
   -12
 73
    14
  0
VERTEX
  5
395
  8
0
 10
0.0
 20
0.0
 30
0.0
 70
   128
 71
   -14
 72
   -12
 73
    15
  0
VERTEX
  5
396
  8
0
 10
0.0
 20
0.0
 30
0.0
 70
   128
 71
   -15
 72
   -12
 73
    16
  0
VERTEX
  5
397
  8
0
 10
0.0
 20
0.0
 30
0.0
 70
   128
 71
   -16
 72
   -12
 73
    17
  0
VERTEX
  5
398
  8
0
 10
0.0
 20
0.0
 30
0.0
 70
   128
 71
   -18
 72
   -19
 73
   -20
  0
VERTEX
  5
399
  8
0
 10
0.0
 20
0.0
 30
0.0
 70
   128
 71
   -19
 72
   -18
 73
   -21
  0
VERTEX
  5
39A
  8
0
 10
0.0
 20
0.0
 30
0.0
 70
   128
 71
   -21
 72
   -18
 73
    22
  0
VERTEX
  5
39B
  8
0
 10
0.0
 20
0.0
 30
0.0
 70
   128
 71
   -22
 72
   -18
 73
    23
  0
VERTEX
  5
39C
  8
0
 10
0.0
 20
0.0
 30
0.0
 70
   128
 71
   -23
 72
   -18
 73
    24
  0
VERTEX
  5
39D
  8
0
 10
0.0
 20
0.0
 30
0.0
 70
   128
 71
   -24
 72
   -18
 73
    25
  0
VERTEX
  5
39E
  8
0
 10
0.0
 20
0.0
 30
0.0
 70
   128
 71
   -25
 72
    18
 73
   -26
  0
VERTEX
  5
39F
  8
0
 10
0.0
 20
0.0
 30
0.0
 70
   128
 71
   -25
 72
   -26
 73
    27
  0
VERTEX
  5
3A0
  8
0
 10
0.0
 20
0.0
 30
0.0
 70
   128
 71
   -27
 72
   -26
 73
    28
  0
VERTEX
  5
3A1
  8
0
 10
0.0
 20
0.0
 30
0.0
 70
   128
 71
   -28
 72
   -26
 73
    29
  0
VERTEX
  5
3A2
  8
0
 10
0.0
 20
0.0
 30
0.0
 70
   128
 71
   -29
 72
   -26
 73
    30
  0
VERTEX
  5
3A3
  8
0
 10
0.0
 20
0.0
 30
0.0
 70
   128
 71
   -30
 72
   -26
 73
    31
  0
VERTEX
  5
3A4
  8
0
 10
0.0
 20
0.0
 30
0.0
 70
   128
 71
   -31
 72
   -26
 73
    32
  0
VERTEX
  5
3A5
  8
0
 10
0.0
 20
0.0
 30
0.0
 70
   128
 71
   -32
 72
   -26
 73
    33
  0
VERTEX
  5
3A6
  8
0
 10
0.0
 20
0.0
 30
0.0
 70
   128
 71
   -33
 72
   -26
 73
    34
  0
VERTEX
  5
3A7
  8
0
 10
0.0
 20
0.0
 30
0.0
 70
   128
 71
   -19
 72
    35
 73
   -20
  0
VERTEX
  5
3A8
  8
0
 10
0.0
 20
0.0
 30
0.0
 70
   128
 71
   -35
 72
    19
 73
   -36
  0
VERTEX
  5
3A9
  8
0
 10
0.0
 20
0.0
 30
0.0
 70
   128
 71
   -35
 72
    36
 73
   -37
  0
VERTEX
  5
3AA
  8
0
 10
0.0
 20
0.0
 30
0.0
 70
   128
 71
   -35
 72
   -37
 73
    38
  0
VERTEX
  5
3AB
  8
0
 10
0.0
 20
0.0
 30
0.0
 70
   128
 71
   -38
 72
    37
 73
   -39
  0
VERTEX
  5
3AC
  8
0
 10
0.0
 20
0.0
 30
0.0
 70
   128
 71
   -38
 72
   -39
 73
    40
  0
VERTEX
  5
3AD
  8
0
 10
0.0
 20
0.0
 30
0.0
 70
   128
 71
   -40
 72
    39
 73
   -41
  0
VERTEX
  5
3AE
  8
0
 10
0.0
 20
0.0
 30
0.0
 70
   128
 71
   -40
 72
   -41
 73
    42
  0
VERTEX
  5
3AF
  8
0
 10
0.0
 20
0.0
 30
0.0
 70
   128
 71
   -42
 72
    41
 73
   -43
  0
VERTEX
  5
3B0
  8
0
 10
0.0
 20
0.0
 30
0.0
 70
   128
 71
   -42
 72
   -43
 73
    44
  0
VERTEX
  5
3B1
  8
0
 10
0.0
 20
0.0
 30
0.0
 70
   128
 71
   -44
 72
    43
 73
   -45
  0
VERTEX
  5
3B2
  8
0
 10
0.0
 20
0.0
 30
0.0
 70
   128
 71
   -44
 72
   -45
 73
    46
  0
VERTEX
  5
3B3
  8
0
 10
0.0
 20
0.0
 30
0.0
 70
   128
 71
   -46
 72
    45
 73
   -47
  0
VERTEX
  5
3B4
  8
0
 10
0.0
 20
0.0
 30
0.0
 70
   128
 71
   -46
 72
   -47
 73
    48
  0
VERTEX
  5
3B5
  8
0
 10
0.0
 20
0.0
 30
0.0
 70
   128
 71
   -48
 72
    47
 73
   -49
  0
VERTEX
  5
3B6
  8
0
 10
0.0
 20
0.0
 30
0.0
 70
   128
 71
   -48
 72
   -49
 73
    50
  0
VERTEX
  5
3B7
  8
0
 10
0.0
 20
0.0
 30
0.0
 70
   128
 71
   -50
 72
    49
 73
   -51
  0
VERTEX
  5
3B8
  8
0
 10
0.0
 20
0.0
 30
0.0
 70
   128
 71
   -50
 72
   -51
 73
    52
  0
VERTEX
  5
3B9
  8
0
 10
0.0
 20
0.0
 30
0.0
 70
   128
 71
   -52
 72
    51
 73
   -53
  0
VERTEX
  5
3BA
  8
0
 10
0.0
 20
0.0
 30
0.0
 70
   128
 71
   -52
 72
   -53
 73
    54
  0
VERTEX
  5
3BB
  8
0
 10
0.0
 20
0.0
 30
0.0
 70
   128
 71
   -54
 72
    53
 73
   -55
  0
VERTEX
  5
3BC
  8
0
 10
0.0
 20
0.0
 30
0.0
 70
   128
 71
   -54
 72
   -55
 73
    56
  0
VERTEX
  5
3BD
  8
0
 10
0.0
 20
0.0
 30
0.0
 70
   128
 71
   -56
 72
    55
 73
   -57
  0
VERTEX
  5
3BE
  8
0
 10
0.0
 20
0.0
 30
0.0
 70
   128
 71
   -56
 72
   -57
 73
    58
  0
VERTEX
  5
3BF
  8
0
 10
0.0
 20
0.0
 30
0.0
 70
   128
 71
   -19
 72
   -59
 73
    60
  0
VERTEX
  5
3C0
  8
0
 10
0.0
 20
0.0
 30
0.0
 70
   128
 71
   -59
 72
   -19
 73
    21
  0
VERTEX
  5
3C1
  8
0
 10
0.0
 20
0.0
 30
0.0
 70
   128
 71
   -60
 72
    59
 73
   -61
  0
VERTEX
  5
3C2
  8
0
 10
0.0
 20
0.0
 30
0.0
 70
   128
 71
   -60
 72
   -61
 73
    62
  0
VERTEX
  5
3C3
  8
0
 10
0.0
 20
0.0
 30
0.0
 70
   128
 71
   -62
 72
    61
 73
   -63
  0
VERTEX
  5
3C4
  8
0
 10
0.0
 20
0.0
 30
0.0
 70
   128
 71
   -62
 72
   -63
 73
    64
  0
VERTEX
  5
3C5
  8
0
 10
0.0
 20
0.0
 30
0.0
 70
   128
 71
   -64
 72
    63
 73
   -65
  0
VERTEX
  5
3C6
  8
0
 10
0.0
 20
0.0
 30
0.0
 70
   128
 71
   -64
 72
   -65
 73
    66
  0
VERTEX
  5
3C7
  8
0
 10
0.0
 20
0.0
 30
0.0
 70
   128
 71
   -66
 72
    65
 73
   -67
  0
VERTEX
  5
3C8
  8
0
 10
0.0
 20
0.0
 30
0.0
 70
   128
 71
   -66
 72
   -67
 73
    68
  0
VERTEX
  5
3C9
  8
0
 10
0.0
 20
0.0
 30
0.0
 70
   128
 71
   -68
 72
    67
 73
   -69
  0
VERTEX
  5
3CA
  8
0
 10
0.0
 20
0.0
 30
0.0
 70
   128
 71
   -68
 72
   -69
 73
    70
  0
VERTEX
  5
3CB
  8
0
 10
0.0
 20
0.0
 30
0.0
 70
   128
 71
   -70
 72
    69
 73
   -71
  0
VERTEX
  5
3CC
  8
0
 10
0.0
 20
0.0
 30
0.0
 70
   128
 71
   -70
 72
   -71
 73
    72
  0
VERTEX
  5
3CD
  8
0
 10
0.0
 20
0.0
 30
0.0
 70
   128
 71
   -72
 72
    71
 73
   -73
  0
VERTEX
  5
3CE
  8
0
 10
0.0
 20
0.0
 30
0.0
 70
   128
 71
   -72
 72
   -73
 73
    74
  0
VERTEX
  5
3CF
  8
0
 10
0.0
 20
0.0
 30
0.0
 70
   128
 71
   -74
 72
    73
 73
   -75
  0
VERTEX
  5
3D0
  8
0
 10
0.0
 20
0.0
 30
0.0
 70
   128
 71
   -74
 72
   -75
 73
    76
  0
VERTEX
  5
3D1
  8
0
 10
0.0
 20
0.0
 30
0.0
 70
   128
 71
   -76
 72
    75
 73
   -77
  0
VERTEX
  5
3D2
  8
0
 10
0.0
 20
0.0
 30
0.0
 70
   128
 71
   -76
 72
   -77
 73
    78
  0
VERTEX
  5
3D3
  8
0
 10
0.0
 20
0.0
 30
0.0
 70
   128
 71
   -78
 72
    77
 73
   -79
  0
VERTEX
  5
3D4
  8
0
 10
0.0
 20
0.0
 30
0.0
 70
   128
 71
   -78
 72
   -79
 73
    80
  0
VERTEX
  5
3D5
  8
0
 10
0.0
 20
0.0
 30
0.0
 70
   128
 71
   -80
 72
    79
 73
   -34
  0
VERTEX
  5
3D6
  8
0
 10
0.0
 20
0.0
 30
0.0
 70
   128
 71
   -80
 72
   -34
 73
    57
  0
VERTEX
  5
3D7
  8
0
 10
0.0
 20
0.0
 30
0.0
 70
   128
 71
   -57
 72
   -34
 73
   -26
  0
VERTEX
  5
3D8
  8
0
 10
0.0
 20
0.0
 30
0.0
 70
   128
 71
   -81
 72
   -82
 73
    83
  0
VERTEX
  5
3D9
  8
0
 10
0.0
 20
0.0
 30
0.0
 70
   128
 71
   -82
 72
   -81
 73
    84
  0
VERTEX
  5
3DA
  8
0
 10
0.0
 20
0.0
 30
0.0
 70
   128
 71
   -84
 72
   -81
 73
    85
  0
VERTEX
  5
3DB
  8
0
 10
0.0
 20
0.0
 30
0.0
 70
   128
 71
   -85
 72
   -81
 73
   -86
  0
VERTEX
  5
3DC
  8
0
 10
0.0
 20
0.0
 30
0.0
 70
   128
 71
   -86
 72
   -81
 73
    87
  0
VERTEX
  5
3DD
  8
0
 10
0.0
 20
0.0
 30
0.0
 70
   128
 71
   -87
 72
   -81
 73
   -88
  0
VERTEX
  5
3DE
  8
0
 10
0.0
 20
0.0
 30
0.0
 70
   128
 71
   -88
 72
   -81
 73
    89
  0
VERTEX
  5
3DF
  8
0
 10
0.0
 20
0.0
 30
0.0
 70
   128
 71
   -89
 72
   -81
 73
   -90
  0
VERTEX
  5
3E0
  8
0
 10
0.0
 20
0.0
 30
0.0
 70
   128
 71
   -90
 72
   -81
 73
    91
  0
VERTEX
  5
3E1
  8
0
 10
0.0
 20
0.0
 30
0.0
 70
   128
 71
   -92
 72
   -93
 73
    94
  0
VERTEX
  5
3E2
  8
0
 10
0.0
 20
0.0
 30
0.0
 70
   128
 71
   -93
 72
   -92
 73
    95
  0
VERTEX
  5
3E3
  8
0
 10
0.0
 20
0.0
 30
0.0
 70
   128
 71
   -95
 72
    92
 73
   -96
  0
VERTEX
  5
3E4
  8
0
 10
0.0
 20
0.0
 30
0.0
 70
   128
 71
   -95
 72
    96
 73
   -97
  0
VERTEX
  5
3E5
  8
0
 10
0.0
 20
0.0
 30
0.0
 70
   128
 71
   -95
 72
    97
 73
   -58
  0
VERTEX
  5
3E6
  8
0
 10
0.0
 20
0.0
 30
0.0
 70
   128
 71
   -95
 72
   -58
 73
   -98
  0
VERTEX
  5
3E7
  8
0
 10
0.0
 20
0.0
 30
0.0
 70
   128
 71
   -98
 72
   -58
 73
    99
  0
VERTEX
  5
3E8
  8
0
 10
0.0
 20
0.0
 30
0.0
 70
   128
 71
   -99
 72
   -58
 73
   100
  0
VERTEX
  5
3E9
  8
0
 10
0.0
 20
0.0
 30
0.0
 70
   128
 71
  -100
 72
   -58
 73
  -101
  0
VERTEX
  5
3EA
  8
0
 10
0.0
 20
0.0
 30
0.0
 70
   128
 71
   -95
 72
    98
 73
  -102
  0
VERTEX
  5
3EB
  8
0
 10
0.0
 20
0.0
 30
0.0
 70
   128
 71
   -95
 72
   102
 73
  -103
  0
VERTEX
  5
3EC
  8
0
 10
0.0
 20
0.0
 30
0.0
 70
   128
 71
   -95
 72
   103
 73
  -104
  0
VERTEX
  5
3ED
  8
0
 10
0.0
 20
0.0
 30
0.0
 70
   128
 71
   -95
 72
   104
 73
  -105
  0
VERTEX
  5
3EE
  8
0
 10
0.0
 20
0.0
 30
0.0
 70
   128
 71
   -95
 72
  -105
 73
    81
  0
VERTEX
  5
3EF
  8
0
 10
0.0
 20
0.0
 30
0.0
 70
   128
 71
   -81
 72
  -105
 73
  -106
  0
VERTEX
  5
3F0
  8
0
 10
0.0
 20
0.0
 30
0.0
 70
   128
 71
  -106
 72
  -105
 73
   107
  0
VERTEX
  5
3F1
  8
0
 10
0.0
 20
0.0
 30
0.0
 70
   128
 71
  -107
 72
  -105
 73
   108
  0
VERTEX
  5
3F2
  8
0
 10
0.0
 20
0.0
 30
0.0
 70
   128
 71
  -108
 72
  -105
 73
   109
  0
VERTEX
  5
3F3
  8
0
 10
0.0
 20
0.0
 30
0.0
 70
   128
 71
  -109
 72
  -105
 73
   110
  0
VERTEX
  5
3F4
  8
0
 10
0.0
 20
0.0
 30
0.0
 70
   128
 71
  -110
 72
  -105
 73
   111
  0
VERTEX
  5
3F5
  8
0
 10
0.0
 20
0.0
 30
0.0
 70
   128
 71
  -111
 72
   105
 73
  -112
  0
VERTEX
  5
3F6
  8
0
 10
0.0
 20
0.0
 30
0.0
 70
   128
 71
  -111
 72
  -112
 73
   113
  0
VERTEX
  5
3F7
  8
0
 10
0.0
 20
0.0
 30
0.0
 70
   128
 71
  -113
 72
  -112
 73
   114
  0
VERTEX
  5
3F8
  8
0
 10
0.0
 20
0.0
 30
0.0
 70
   128
 71
  -114
 72
  -112
 73
   115
  0
VERTEX
  5
3F9
  8
0
 10
0.0
 20
0.0
 30
0.0
 70
   128
 71
  -115
 72
  -112
 73
   116
  0
VERTEX
  5
3FA
  8
0
 10
0.0
 20
0.0
 30
0.0
 70
   128
 71
  -116
 72
  -112
 73
   117
  0
VERTEX
  5
3FB
  8
0
 10
0.0
 20
0.0
 30
0.0
 70
   128
 71
  -117
 72
   112
 73
  -118
  0
VERTEX
  5
3FC
  8
0
 10
0.0
 20
0.0
 30
0.0
 70
   128
 71
  -117
 72
  -118
 73
   119
  0
VERTEX
  5
3FD
  8
0
 10
0.0
 20
0.0
 30
0.0
 70
   128
 71
  -119
 72
  -118
 73
   120
  0
VERTEX
  5
3FE
  8
0
 10
0.0
 20
0.0
 30
0.0
 70
   128
 71
  -121
 72
  -122
 73
   123
  0
VERTEX
  5
3FF
  8
0
 10
0.0
 20
0.0
 30
0.0
 70
   128
 71
  -122
 72
  -121
 73
   124
  0
VERTEX
  5
400
  8
0
 10
0.0
 20
0.0
 30
0.0
 70
   128
 71
  -124
 72
  -121
 73
   125
  0
VERTEX
  5
401
  8
0
 10
0.0
 20
0.0
 30
0.0
 70
   128
 71
  -125
 72
  -121
 73
   126
  0
VERTEX
  5
402
  8
0
 10
0.0
 20
0.0
 30
0.0
 70
   128
 71
  -123
 72
   122
 73
  -127
  0
VERTEX
  5
403
  8
0
 10
0.0
 20
0.0
 30
0.0
 70
   128
 71
  -123
 72
   127
 73
  -128
  0
VERTEX
  5
404
  8
0
 10
0.0
 20
0.0
 30
0.0
 70
   128
 71
  -123
 72
   128
 73
  -129
  0
VERTEX
  5
405
  8
0
 10
0.0
 20
0.0
 30
0.0
 70
   128
 71
  -123
 72
   129
 73
  -130
  0
VERTEX
  5
406
  8
0
 10
0.0
 20
0.0
 30
0.0
 70
   128
 71
  -123
 72
   130
 73
  -131
  0
VERTEX
  5
407
  8
0
 10
0.0
 20
0.0
 30
0.0
 70
   128
 71
  -123
 72
   131
 73
  -132
  0
VERTEX
  5
408
  8
0
 10
0.0
 20
0.0
 30
0.0
 70
   128
 71
  -123
 72
   132
 73
  -133
  0
VERTEX
  5
409
  8
0
 10
0.0
 20
0.0
 30
0.0
 70
   128
 71
  -123
 72
   133
 73
  -134
  0
VERTEX
  5
40A
  8
0
 10
0.0
 20
0.0
 30
0.0
 70
   128
 71
  -123
 72
   134
 73
  -135
  0
VERTEX
  5
40B
  8
0
 10
0.0
 20
0.0
 30
0.0
 70
   128
 71
  -123
 72
  -135
 73
  -136
  0
VERTEX
  5
40C
  8
0
 10
0.0
 20
0.0
 30
0.0
 70
   128
 71
  -136
 72
  -135
 73
   137
  0
VERTEX
  5
40D
  8
0
 10
0.0
 20
0.0
 30
0.0
 70
   128
 71
  -123
 72
   136
 73
  -138
  0
VERTEX
  5
40E
  8
0
 10
0.0
 20
0.0
 30
0.0
 70
   128
 71
  -123
 72
  -138
 73
  -139
  0
VERTEX
  5
40F
  8
0
 10
0.0
 20
0.0
 30
0.0
 70
   128
 71
  -123
 72
  -139
 73
    26
  0
VERTEX
  5
410
  8
0
 10
0.0
 20
0.0
 30
0.0
 70
   128
 71
   -26
 72
   139
 73
  -140
  0
VERTEX
  5
411
  8
0
 10
0.0
 20
0.0
 30
0.0
 70
   128
 71
   -26
 72
  -140
 73
   -57
  0
VERTEX
  5
412
  8
0
 10
0.0
 20
0.0
 30
0.0
 70
   128
 71
   -57
 72
   140
 73
  -141
  0
VERTEX
  5
413
  8
0
 10
0.0
 20
0.0
 30
0.0
 70
   128
 71
   -57
 72
  -141
 73
   -58
  0
VERTEX
  5
414
  8
0
 10
0.0
 20
0.0
 30
0.0
 70
   128
 71
   -58
 72
  -141
 73
  -101
  0
VERTEX
  5
415
  8
0
 10
0.0
 20
0.0
 30
0.0
 70
   128
 71
  -139
 72
  -138
 73
   142
  0
VERTEX
  5
416
  8
0
 10
0.0
 20
0.0
 30
0.0
 70
   128
 71
  -142
 72
  -138
 73
   143
  0
VERTEX
  5
417
  8
0
 10
0.0
 20
0.0
 30
0.0
 70
   128
 71
  -143
 72
  -138
 73
   144
  0
VERTEX
  5
418
  8
0
 10
0.0
 20
0.0
 30
0.0
 70
   128
 71
  -144
 72
  -138
 73
   145
  0
VERTEX
  5
419
  8
0
 10
0.0
 20
0.0
 30
0.0
 70
   128
 71
   -89
 72
  -146
 73
   147
  0
VERTEX
  5
41A
  8
0
 10
0.0
 20
0.0
 30
0.0
 70
   128
 71
  -146
 72
   -89
 73
    90
  0
VERTEX
  5
41B
  8
0
 10
0.0
 20
0.0
 30
0.0
 70
   128
 71
   -87
 72
  -148
 73
   149
  0
VERTEX
  5
41C
  8
0
 10
0.0
 20
0.0
 30
0.0
 70
   128
 71
  -148
 72
   -87
 73
    88
  0
VERTEX
  5
41D
  8
0
 10
0.0
 20
0.0
 30
0.0
 70
   128
 71
   -85
 72
  -150
 73
   151
  0
VERTEX
  5
41E
  8
0
 10
0.0
 20
0.0
 30
0.0
 70
   128
 71
  -150
 72
   -85
 73
    86
  0
VERTEX
  5
41F
  8
0
 10
0.0
 20
0.0
 30
0.0
 70
   128
 71
  -152
 72
  -153
 73
   118
  0
VERTEX
  5
420
  8
0
 10
0.0
 20
0.0
 30
0.0
 70
   128
 71
  -153
 72
  -152
 73
   154
  0
VERTEX
  5
421
  8
0
 10
0.0
 20
0.0
 30
0.0
 70
   128
 71
  -154
 72
   152
 73
  -155
  0
VERTEX
  5
422
  8
0
 10
0.0
 20
0.0
 30
0.0
 70
   128
 71
  -154
 72
   155
 73
  -156
  0
VERTEX
  5
423
  8
0
 10
0.0
 20
0.0
 30
0.0
 70
   128
 71
  -154
 72
   156
 73
  -157
  0
VERTEX
  5
424
  8
0
 10
0.0
 20
0.0
 30
0.0
 70
   128
 71
  -154
 72
  -157
 73
  -158
  0
VERTEX
  5
425
  8
0
 10
0.0
 20
0.0
 30
0.0
 70
   128
 71
  -158
 72
  -157
 73
   159
  0
VERTEX
  5
426
  8
0
 10
0.0
 20
0.0
 30
0.0
 70
   128
 71
  -159
 72
  -157
 73
   160
  0
VERTEX
  5
427
  8
0
 10
0.0
 20
0.0
 30
0.0
 70
   128
 71
  -160
 72
  -157
 73
  -161
  0
VERTEX
  5
428
  8
0
 10
0.0
 20
0.0
 30
0.0
 70
   128
 71
  -160
 72
  -161
 73
  -162
  0
VERTEX
  5
429
  8
0
 10
0.0
 20
0.0
 30
0.0
 70
   128
 71
  -154
 72
   158
 73
  -163
  0
VERTEX
  5
42A
  8
0
 10
0.0
 20
0.0
 30
0.0
 70
   128
 71
  -154
 72
   163
 73
  -164
  0
VERTEX
  5
42B
  8
0
 10
0.0
 20
0.0
 30
0.0
 70
   128
 71
  -154
 72
   164
 73
  -165
  0
VERTEX
  5
42C
  8
0
 10
0.0
 20
0.0
 30
0.0
 70
   128
 71
  -154
 72
  -165
 73
   166
  0
VERTEX
  5
42D
  8
0
 10
0.0
 20
0.0
 30
0.0
 70
   128
 71
  -161
 72
  -167
 73
   168
  0
VERTEX
  5
42E
  8
0
 10
0.0
 20
0.0
 30
0.0
 70
   128
 71
  -167
 72
  -161
 73
   169
  0
VERTEX
  5
42F
  8
0
 10
0.0
 20
0.0
 30
0.0
 70
   128
 71
  -168
 72
  -167
 73
   170
  0
VERTEX
  5
430
  8
0
 10
0.0
 20
0.0
 30
0.0
 70
   128
 71
  -170
 72
  -167
 73
   171
  0
VERTEX
  5
431
  8
0
 10
0.0
 20
0.0
 30
0.0
 70
   128
 71
  -171
 72
  -167
 73
   172
  0
VERTEX
  5
432
  8
0
 10
0.0
 20
0.0
 30
0.0
 70
   128
 71
  -172
 72
  -167
 73
   173
  0
VERTEX
  5
433
  8
0
 10
0.0
 20
0.0
 30
0.0
 70
   128
 71
  -173
 72
   167
 73
  -174
  0
VERTEX
  5
434
  8
0
 10
0.0
 20
0.0
 30
0.0
 70
   128
 71
  -173
 72
  -174
 73
   175
  0
VERTEX
  5
435
  8
0
 10
0.0
 20
0.0
 30
0.0
 70
   128
 71
  -175
 72
  -174
 73
   176
  0
VERTEX
  5
436
  8
0
 10
0.0
 20
0.0
 30
0.0
 70
   128
 71
  -176
 72
  -174
 73
   177
  0
VERTEX
  5
437
  8
0
 10
0.0
 20
0.0
 30
0.0
 70
   128
 71
  -177
 72
  -174
 73
   178
  0
VERTEX
  5
438
  8
0
 10
0.0
 20
0.0
 30
0.0
 70
   128
 71
  -178
 72
  -174
 73
   179
  0
VERTEX
  5
439
  8
0
 10
0.0
 20
0.0
 30
0.0
 70
   128
 71
  -179
 72
  -174
 73
   180
  0
VERTEX
  5
43A
  8
0
 10
0.0
 20
0.0
 30
0.0
 70
   128
 71
  -180
 72
  -174
 73
   181
  0
VERTEX
  5
43B
  8
0
 10
0.0
 20
0.0
 30
0.0
 70
   128
 71
  -181
 72
  -174
 73
  -182
  0
VERTEX
  5
43C
  8
0
 10
0.0
 20
0.0
 30
0.0
 70
   128
 71
  -182
 72
  -174
 73
  -183
  0
VERTEX
  5
43D
  8
0
 10
0.0
 20
0.0
 30
0.0
 70
   128
 71
  -184
 72
  -160
 73
   162
  0
VERTEX
  5
43E
  8
0
 10
0.0
 20
0.0
 30
0.0
 70
   128
 71
  -160
 72
  -184
 73
   185
  0
VERTEX
  5
43F
  8
0
 10
0.0
 20
0.0
 30
0.0
 70
   128
 71
  -185
 72
   184
 73
  -186
  0
VERTEX
  5
440
  8
0
 10
0.0
 20
0.0
 30
0.0
 70
   128
 71
  -185
 72
  -186
 73
   187
  0
VERTEX
  5
441
  8
0
 10
0.0
 20
0.0
 30
0.0
 70
   128
 71
  -187
 72
   186
 73
  -188
  0
VERTEX
  5
442
  8
0
 10
0.0
 20
0.0
 30
0.0
 70
   128
 71
  -187
 72
  -188
 73
   189
  0
VERTEX
  5
443
  8
0
 10
0.0
 20
0.0
 30
0.0
 70
   128
 71
  -189
 72
   188
 73
  -190
  0
VERTEX
  5
444
  8
0
 10
0.0
 20
0.0
 30
0.0
 70
   128
 71
  -189
 72
  -190
 73
   191
  0
VERTEX
  5
445
  8
0
 10
0.0
 20
0.0
 30
0.0
 70
   128
 71
  -191
 72
   190
 73
  -192
  0
VERTEX
  5
446
  8
0
 10
0.0
 20
0.0
 30
0.0
 70
   128
 71
  -191
 72
  -192
 73
   193
  0
VERTEX
  5
447
  8
0
 10
0.0
 20
0.0
 30
0.0
 70
   128
 71
  -193
 72
   192
 73
  -194
  0
VERTEX
  5
448
  8
0
 10
0.0
 20
0.0
 30
0.0
 70
   128
 71
  -193
 72
  -194
 73
   195
  0
VERTEX
  5
449
  8
0
 10
0.0
 20
0.0
 30
0.0
 70
   128
 71
  -195
 72
   194
 73
  -196
  0
VERTEX
  5
44A
  8
0
 10
0.0
 20
0.0
 30
0.0
 70
   128
 71
  -195
 72
  -196
 73
   197
  0
VERTEX
  5
44B
  8
0
 10
0.0
 20
0.0
 30
0.0
 70
   128
 71
  -197
 72
   196
 73
  -198
  0
VERTEX
  5
44C
  8
0
 10
0.0
 20
0.0
 30
0.0
 70
   128
 71
  -197
 72
  -198
 73
   199
  0
VERTEX
  5
44D
  8
0
 10
0.0
 20
0.0
 30
0.0
 70
   128
 71
  -199
 72
   198
 73
  -200
  0
VERTEX
  5
44E
  8
0
 10
0.0
 20
0.0
 30
0.0
 70
   128
 71
  -199
 72
  -200
 73
   201
  0
VERTEX
  5
44F
  8
0
 10
0.0
 20
0.0
 30
0.0
 70
   128
 71
  -201
 72
   200
 73
  -202
  0
VERTEX
  5
450
  8
0
 10
0.0
 20
0.0
 30
0.0
 70
   128
 71
  -201
 72
  -202
 73
   203
  0
VERTEX
  5
451
  8
0
 10
0.0
 20
0.0
 30
0.0
 70
   128
 71
  -203
 72
   202
 73
  -204
  0
VERTEX
  5
452
  8
0
 10
0.0
 20
0.0
 30
0.0
 70
   128
 71
  -203
 72
  -204
 73
   205
  0
VERTEX
  5
453
  8
0
 10
0.0
 20
0.0
 30
0.0
 70
   128
 71
  -205
 72
   204
 73
  -182
  0
VERTEX
  5
454
  8
0
 10
0.0
 20
0.0
 30
0.0
 70
   128
 71
  -205
 72
  -182
 73
   183
  0
VERTEX
  5
455
  8
0
 10
0.0
 20
0.0
 30
0.0
 70
   128
 71
  -206
 72
  -162
 73
   161
  0
VERTEX
  5
456
  8
0
 10
0.0
 20
0.0
 30
0.0
 70
   128
 71
  -162
 72
  -206
 73
   207
  0
VERTEX
  5
457
  8
0
 10
0.0
 20
0.0
 30
0.0
 70
   128
 71
  -207
 72
   206
 73
  -208
  0
VERTEX
  5
458
  8
0
 10
0.0
 20
0.0
 30
0.0
 70
   128
 71
  -207
 72
  -208
 73
   209
  0
VERTEX
  5
459
  8
0
 10
0.0
 20
0.0
 30
0.0
 70
   128
 71
  -209
 72
   208
 73
  -210
  0
VERTEX
  5
45A
  8
0
 10
0.0
 20
0.0
 30
0.0
 70
   128
 71
  -209
 72
  -210
 73
   211
  0
VERTEX
  5
45B
  8
0
 10
0.0
 20
0.0
 30
0.0
 70
   128
 71
  -211
 72
   210
 73
  -212
  0
VERTEX
  5
45C
  8
0
 10
0.0
 20
0.0
 30
0.0
 70
   128
 71
  -211
 72
  -212
 73
   213
  0
VERTEX
  5
45D
  8
0
 10
0.0
 20
0.0
 30
0.0
 70
   128
 71
  -213
 72
   212
 73
  -214
  0
VERTEX
  5
45E
  8
0
 10
0.0
 20
0.0
 30
0.0
 70
   128
 71
  -213
 72
  -214
 73
   215
  0
VERTEX
  5
45F
  8
0
 10
0.0
 20
0.0
 30
0.0
 70
   128
 71
  -215
 72
   214
 73
  -216
  0
VERTEX
  5
460
  8
0
 10
0.0
 20
0.0
 30
0.0
 70
   128
 71
  -215
 72
  -216
 73
   217
  0
VERTEX
  5
461
  8
0
 10
0.0
 20
0.0
 30
0.0
 70
   128
 71
  -217
 72
   216
 73
  -218
  0
VERTEX
  5
462
  8
0
 10
0.0
 20
0.0
 30
0.0
 70
   128
 71
  -217
 72
  -218
 73
   219
  0
VERTEX
  5
463
  8
0
 10
0.0
 20
0.0
 30
0.0
 70
   128
 71
  -219
 72
   218
 73
  -220
  0
VERTEX
  5
464
  8
0
 10
0.0
 20
0.0
 30
0.0
 70
   128
 71
  -219
 72
  -220
 73
   221
  0
VERTEX
  5
465
  8
0
 10
0.0
 20
0.0
 30
0.0
 70
   128
 71
  -221
 72
   220
 73
  -222
  0
VERTEX
  5
466
  8
0
 10
0.0
 20
0.0
 30
0.0
 70
   128
 71
  -221
 72
  -222
 73
   223
  0
VERTEX
  5
467
  8
0
 10
0.0
 20
0.0
 30
0.0
 70
   128
 71
  -223
 72
   222
 73
  -224
  0
VERTEX
  5
468
  8
0
 10
0.0
 20
0.0
 30
0.0
 70
   128
 71
  -223
 72
  -224
 73
   225
  0
VERTEX
  5
469
  8
0
 10
0.0
 20
0.0
 30
0.0
 70
   128
 71
  -225
 72
   224
 73
  -226
  0
VERTEX
  5
46A
  8
0
 10
0.0
 20
0.0
 30
0.0
 70
   128
 71
  -225
 72
  -226
 73
   227
  0
VERTEX
  5
46B
  8
0
 10
0.0
 20
0.0
 30
0.0
 70
   128
 71
  -227
 72
   226
 73
  -181
  0
VERTEX
  5
46C
  8
0
 10
0.0
 20
0.0
 30
0.0
 70
   128
 71
  -227
 72
  -181
 73
   182
  0
VERTEX
  5
46D
  8
0
 10
0.0
 20
0.0
 30
0.0
 70
   128
 71
  -228
 72
  -229
 73
   230
  0
VERTEX
  5
46E
  8
0
 10
0.0
 20
0.0
 30
0.0
 70
   128
 71
  -229
 72
  -228
 73
   231
  0
VERTEX
  5
46F
  8
0
 10
0.0
 20
0.0
 30
0.0
 70
   128
 71
  -230
 72
   229
 73
  -232
  0
VERTEX
  5
470
  8
0
 10
0.0
 20
0.0
 30
0.0
 70
   128
 71
  -230
 72
  -232
 73
  -233
  0
VERTEX
  5
471
  8
0
 10
0.0
 20
0.0
 30
0.0
 70
   128
 71
  -230
 72
  -233
 73
   234
  0
VERTEX
  5
472
  8
0
 10
0.0
 20
0.0
 30
0.0
 70
   128
 71
  -233
 72
  -232
 73
   235
  0
VERTEX
  5
473
  8
0
 10
0.0
 20
0.0
 30
0.0
 70
   128
 71
  -236
 72
  -237
 73
   238
  0
VERTEX
  5
474
  8
0
 10
0.0
 20
0.0
 30
0.0
 70
   128
 71
  -237
 72
  -236
 73
   239
  0
VERTEX
  5
475
  8
0
 10
0.0
 20
0.0
 30
0.0
 70
   128
 71
  -239
 72
  -236
 73
   240
  0
VERTEX
  5
476
  8
0
 10
0.0
 20
0.0
 30
0.0
 70
   128
 71
  -241
 72
  -242
 73
   243
  0
VERTEX
  5
477
  8
0
 10
0.0
 20
0.0
 30
0.0
 70
   128
 71
  -242
 72
  -241
 73
   244
  0
VERTEX
  5
478
  8
0
 10
0.0
 20
0.0
 30
0.0
 70
   128
 71
  -244
 72
   241
 73
  -245
  0
VERTEX
  5
479
  8
0
 10
0.0
 20
0.0
 30
0.0
 70
   128
 71
  -244
 72
   245
 73
  -246
  0
VERTEX
  5
47A
  8
0
 10
0.0
 20
0.0
 30
0.0
 70
   128
 71
  -244
 72
   246
 73
  -247
  0
VERTEX
  5
47B
  8
0
 10
0.0
 20
0.0
 30
0.0
 70
   128
 71
  -244
 72
  -247
 73
  -248
  0
VERTEX
  5
47C
  8
0
 10
0.0
 20
0.0
 30
0.0
 70
   128
 71
  -248
 72
   247
 73
  -183
  0
VERTEX
  5
47D
  8
0
 10
0.0
 20
0.0
 30
0.0
 70
   128
 71
  -248
 72
  -183
 73
  -174
  0
VERTEX
  5
47E
  8
0
 10
0.0
 20
0.0
 30
0.0
 70
   128
 71
  -248
 72
  -174
 73
  -249
  0
VERTEX
  5
47F
  8
0
 10
0.0
 20
0.0
 30
0.0
 70
   128
 71
  -248
 72
   249
 73
  -250
  0
VERTEX
  5
480
  8
0
 10
0.0
 20
0.0
 30
0.0
 70
   128
 71
  -248
 72
  -250
 73
  -251
  0
VERTEX
  5
481
  8
0
 10
0.0
 20
0.0
 30
0.0
 70
   128
 71
  -248
 72
   251
 73
  -252
  0
VERTEX
  5
482
  8
0
 10
0.0
 20
0.0
 30
0.0
 70
   128
 71
  -248
 72
  -252
 73
  -253
  0
VERTEX
  5
483
  8
0
 10
0.0
 20
0.0
 30
0.0
 70
   128
 71
  -248
 72
   253
 73
  -254
  0
VERTEX
  5
484
  8
0
 10
0.0
 20
0.0
 30
0.0
 70
   128
 71
  -248
 72
  -254
 73
   255
  0
VERTEX
  5
485
  8
0
 10
0.0
 20
0.0
 30
0.0
 70
   128
 71
  -244
 72
   248
 73
  -256
  0
VERTEX
  5
486
  8
0
 10
0.0
 20
0.0
 30
0.0
 70
   128
 71
  -244
 72
  -256
 73
  -257
  0
VERTEX
  5
487
  8
0
 10
0.0
 20
0.0
 30
0.0
 70
   128
 71
  -244
 72
  -257
 73
   258
  0
VERTEX
  5
488
  8
0
 10
0.0
 20
0.0
 30
0.0
 70
   128
 71
  -257
 72
  -256
 73
   259
  0
VERTEX
  5
489
  8
0
 10
0.0
 20
0.0
 30
0.0
 70
   128
 71
  -259
 72
  -256
 73
  -260
  0
VERTEX
  5
48A
  8
0
 10
0.0
 20
0.0
 30
0.0
 70
   128
 71
  -260
 72
  -256
 73
  -261
  0
VERTEX
  5
48B
  8
0
 10
0.0
 20
0.0
 30
0.0
 70
   128
 71
  -260
 72
   261
 73
  -262
  0
VERTEX
  5
48C
  8
0
 10
0.0
 20
0.0
 30
0.0
 70
   128
 71
  -260
 72
  -262
 73
  -263
  0
VERTEX
  5
48D
  8
0
 10
0.0
 20
0.0
 30
0.0
 70
   128
 71
  -260
 72
   263
 73
  -264
  0
VERTEX
  5
48E
  8
0
 10
0.0
 20
0.0
 30
0.0
 70
   128
 71
  -260
 72
  -264
 73
  -265
  0
VERTEX
  5
48F
  8
0
 10
0.0
 20
0.0
 30
0.0
 70
   128
 71
  -260
 72
   265
 73
  -238
  0
VERTEX
  5
490
  8
0
 10
0.0
 20
0.0
 30
0.0
 70
   128
 71
  -260
 72
  -238
 73
   237
  0
VERTEX
  5
491
  8
0
 10
0.0
 20
0.0
 30
0.0
 70
   128
 71
  -259
 72
   260
 73
  -240
  0
VERTEX
  5
492
  8
0
 10
0.0
 20
0.0
 30
0.0
 70
   128
 71
  -259
 72
  -240
 73
  -266
  0
VERTEX
  5
493
  8
0
 10
0.0
 20
0.0
 30
0.0
 70
   128
 71
  -259
 72
  -266
 73
   267
  0
VERTEX
  5
494
  8
0
 10
0.0
 20
0.0
 30
0.0
 70
   128
 71
  -266
 72
  -240
 73
   268
  0
VERTEX
  5
495
  8
0
 10
0.0
 20
0.0
 30
0.0
 70
   128
 71
  -268
 72
  -240
 73
  -269
  0
VERTEX
  5
496
  8
0
 10
0.0
 20
0.0
 30
0.0
 70
   128
 71
  -269
 72
  -240
 73
  -236
  0
VERTEX
  5
497
  8
0
 10
0.0
 20
0.0
 30
0.0
 70
   128
 71
  -269
 72
  -236
 73
  -270
  0
VERTEX
  5
498
  8
0
 10
0.0
 20
0.0
 30
0.0
 70
   128
 71
  -269
 72
   270
 73
  -271
  0
VERTEX
  5
499
  8
0
 10
0.0
 20
0.0
 30
0.0
 70
   128
 71
  -269
 72
  -271
 73
  -272
  0
VERTEX
  5
49A
  8
0
 10
0.0
 20
0.0
 30
0.0
 70
   128
 71
  -269
 72
   272
 73
  -273
  0
VERTEX
  5
49B
  8
0
 10
0.0
 20
0.0
 30
0.0
 70
   128
 71
  -269
 72
  -273
 73
  -274
  0
VERTEX
  5
49C
  8
0
 10
0.0
 20
0.0
 30
0.0
 70
   128
 71
  -269
 72
   274
 73
  -275
  0
VERTEX
  5
49D
  8
0
 10
0.0
 20
0.0
 30
0.0
 70
   128
 71
  -269
 72
  -275
 73
   276
  0
VERTEX
  5
49E
  8
0
 10
0.0
 20
0.0
 30
0.0
 70
   128
 71
  -268
 72
   269
 73
  -277
  0
VERTEX
  5
49F
  8
0
 10
0.0
 20
0.0
 30
0.0
 70
   128
 71
  -268
 72
  -277
 73
  -278
  0
VERTEX
  5
4A0
  8
0
 10
0.0
 20
0.0
 30
0.0
 70
   128
 71
  -268
 72
  -278
 73
   279
  0
VERTEX
  5
4A1
  8
0
 10
0.0
 20
0.0
 30
0.0
 70
   128
 71
  -278
 72
  -277
 73
   280
  0
VERTEX
  5
4A2
  8
0
 10
0.0
 20
0.0
 30
0.0
 70
   128
 71
  -280
 72
  -277
 73
  -281
  0
VERTEX
  5
4A3
  8
0
 10
0.0
 20
0.0
 30
0.0
 70
   128
 71
  -281
 72
  -277
 73
  -282
  0
VERTEX
  5
4A4
  8
0
 10
0.0
 20
0.0
 30
0.0
 70
   128
 71
  -281
 72
   282
 73
  -283
  0
VERTEX
  5
4A5
  8
0
 10
0.0
 20
0.0
 30
0.0
 70
   128
 71
  -281
 72
  -283
 73
  -284
  0
VERTEX
  5
4A6
  8
0
 10
0.0
 20
0.0
 30
0.0
 70
   128
 71
  -281
 72
   284
 73
  -285
  0
VERTEX
  5
4A7
  8
0
 10
0.0
 20
0.0
 30
0.0
 70
   128
 71
  -281
 72
  -285
 73
  -286
  0
VERTEX
  5
4A8
  8
0
 10
0.0
 20
0.0
 30
0.0
 70
   128
 71
  -281
 72
   286
 73
  -287
  0
VERTEX
  5
4A9
  8
0
 10
0.0
 20
0.0
 30
0.0
 70
   128
 71
  -281
 72
  -287
 73
   288
  0
VERTEX
  5
4AA
  8
0
 10
0.0
 20
0.0
 30
0.0
 70
   128
 71
  -280
 72
   281
 73
  -289
  0
VERTEX
  5
4AB
  8
0
 10
0.0
 20
0.0
 30
0.0
 70
   128
 71
  -280
 72
  -289
 73
  -290
  0
VERTEX
  5
4AC
  8
0
 10
0.0
 20
0.0
 30
0.0
 70
   128
 71
  -280
 72
  -290
 73
   291
  0
VERTEX
  5
4AD
  8
0
 10
0.0
 20
0.0
 30
0.0
 70
   128
 71
  -290
 72
  -289
 73
   292
  0
VERTEX
  5
4AE
  8
0
 10
0.0
 20
0.0
 30
0.0
 70
   128
 71
  -292
 72
  -289
 73
  -293
  0
VERTEX
  5
4AF
  8
0
 10
0.0
 20
0.0
 30
0.0
 70
   128
 71
  -293
 72
  -289
 73
  -294
  0
VERTEX
  5
4B0
  8
0
 10
0.0
 20
0.0
 30
0.0
 70
   128
 71
  -293
 72
   294
 73
  -295
  0
VERTEX
  5
4B1
  8
0
 10
0.0
 20
0.0
 30
0.0
 70
   128
 71
  -293
 72
  -295
 73
  -296
  0
VERTEX
  5
4B2
  8
0
 10
0.0
 20
0.0
 30
0.0
 70
   128
 71
  -293
 72
   296
 73
  -297
  0
VERTEX
  5
4B3
  8
0
 10
0.0
 20
0.0
 30
0.0
 70
   128
 71
  -293
 72
  -297
 73
  -298
  0
VERTEX
  5
4B4
  8
0
 10
0.0
 20
0.0
 30
0.0
 70
   128
 71
  -293
 72
   298
 73
  -299
  0
VERTEX
  5
4B5
  8
0
 10
0.0
 20
0.0
 30
0.0
 70
   128
 71
  -293
 72
  -299
 73
   300
  0
VERTEX
  5
4B6
  8
0
 10
0.0
 20
0.0
 30
0.0
 70
   128
 71
  -292
 72
   293
 73
  -301
  0
VERTEX
  5
4B7
  8
0
 10
0.0
 20
0.0
 30
0.0
 70
   128
 71
  -292
 72
  -301
 73
  -302
  0
VERTEX
  5
4B8
  8
0
 10
0.0
 20
0.0
 30
0.0
 70
   128
 71
  -302
 72
  -301
 73
  -303
  0
VERTEX
  5
4B9
  8
0
 10
0.0
 20
0.0
 30
0.0
 70
   128
 71
  -302
 72
   303
 73
  -304
  0
VERTEX
  5
4BA
  8
0
 10
0.0
 20
0.0
 30
0.0
 70
   128
 71
  -302
 72
  -304
 73
  -305
  0
VERTEX
  5
4BB
  8
0
 10
0.0
 20
0.0
 30
0.0
 70
   128
 71
  -302
 72
   305
 73
  -306
  0
VERTEX
  5
4BC
  8
0
 10
0.0
 20
0.0
 30
0.0
 70
   128
 71
  -302
 72
  -306
 73
  -307
  0
VERTEX
  5
4BD
  8
0
 10
0.0
 20
0.0
 30
0.0
 70
   128
 71
  -302
 72
   307
 73
  -308
  0
VERTEX
  5
4BE
  8
0
 10
0.0
 20
0.0
 30
0.0
 70
   128
 71
  -302
 72
  -308
 73
   309
  0
VERTEX
  5
4BF
  8
0
 10
0.0
 20
0.0
 30
0.0
 70
   128
 71
  -292
 72
   302
 73
  -310
  0
VERTEX
  5
4C0
  8
0
 10
0.0
 20
0.0
 30
0.0
 70
   128
 71
  -292
 72
  -310
 73
  -311
  0
VERTEX
  5
4C1
  8
0
 10
0.0
 20
0.0
 30
0.0
 70
   128
 71
  -292
 72
  -311
 73
   312
  0
VERTEX
  5
4C2
  8
0
 10
0.0
 20
0.0
 30
0.0
 70
   128
 71
  -312
 72
   311
 73
  -313
  0
VERTEX
  5
4C3
  8
0
 10
0.0
 20
0.0
 30
0.0
 70
   128
 71
  -312
 72
  -313
 73
  -314
  0
VERTEX
  5
4C4
  8
0
 10
0.0
 20
0.0
 30
0.0
 70
   128
 71
  -314
 72
   313
 73
  -315
  0
VERTEX
  5
4C5
  8
0
 10
0.0
 20
0.0
 30
0.0
 70
   128
 71
  -314
 72
  -315
 73
   316
  0
VERTEX
  5
4C6
  8
0
 10
0.0
 20
0.0
 30
0.0
 70
   128
 71
  -316
 72
  -315
 73
  -317
  0
VERTEX
  5
4C7
  8
0
 10
0.0
 20
0.0
 30
0.0
 70
   128
 71
  -317
 72
  -315
 73
   318
  0
VERTEX
  5
4C8
  8
0
 10
0.0
 20
0.0
 30
0.0
 70
   128
 71
  -318
 72
  -315
 73
  -319
  0
VERTEX
  5
4C9
  8
0
 10
0.0
 20
0.0
 30
0.0
 70
   128
 71
  -319
 72
  -315
 73
   320
  0
VERTEX
  5
4CA
  8
0
 10
0.0
 20
0.0
 30
0.0
 70
   128
 71
  -320
 72
  -315
 73
  -321
  0
VERTEX
  5
4CB
  8
0
 10
0.0
 20
0.0
 30
0.0
 70
   128
 71
  -321
 72
  -315
 73
   322
  0
VERTEX
  5
4CC
  8
0
 10
0.0
 20
0.0
 30
0.0
 70
   128
 71
  -311
 72
  -310
 73
   323
  0
VERTEX
  5
4CD
  8
0
 10
0.0
 20
0.0
 30
0.0
 70
   128
 71
  -323
 72
  -310
 73
   324
  0
VERTEX
  5
4CE
  8
0
 10
0.0
 20
0.0
 30
0.0
 70
   128
 71
  -324
 72
  -310
 73
   325
  0
VERTEX
  5
4CF
  8
0
 10
0.0
 20
0.0
 30
0.0
 70
   128
 71
  -325
 72
  -310
 73
   326
  0
VERTEX
  5
4D0
  8
0
 10
0.0
 20
0.0
 30
0.0
 70
   128
 71
  -326
 72
  -310
 73
   327
  0
VERTEX
  5
4D1
  8
0
 10
0.0
 20
0.0
 30
0.0
 70
   128
 71
  -327
 72
  -310
 73
   328
  0
VERTEX
  5
4D2
  8
0
 10
0.0
 20
0.0
 30
0.0
 70
   128
 71
  -328
 72
  -310
 73
   329
  0
VERTEX
  5
4D3
  8
0
 10
0.0
 20
0.0
 30
0.0
 70
   128
 71
  -329
 72
  -310
 73
   330
  0
VERTEX
  5
4D4
  8
0
 10
0.0
 20
0.0
 30
0.0
 70
   128
 71
  -330
 72
  -310
 73
   331
  0
VERTEX
  5
4D5
  8
0
 10
0.0
 20
0.0
 30
0.0
 70
   128
 71
  -331
 72
  -310
 73
   332
  0
VERTEX
  5
4D6
  8
0
 10
0.0
 20
0.0
 30
0.0
 70
   128
 71
  -333
 72
  -334
 73
  -121
  0
VERTEX
  5
4D7
  8
0
 10
0.0
 20
0.0
 30
0.0
 70
   128
 71
  -334
 72
  -333
 73
  -137
  0
VERTEX
  5
4D8
  8
0
 10
0.0
 20
0.0
 30
0.0
 70
   128
 71
  -137
 72
   333
 73
  -335
  0
VERTEX
  5
4D9
  8
0
 10
0.0
 20
0.0
 30
0.0
 70
   128
 71
  -121
 72
   334
 73
  -336
  0
VERTEX
  5
4DA
  8
0
 10
0.0
 20
0.0
 30
0.0
 70
   128
 71
  -121
 72
   336
 73
  -126
  0
VERTEX
  5
4DB
  8
0
 10
0.0
 20
0.0
 30
0.0
 70
   128
 71
  -334
 72
  -137
 73
   337
  0
VERTEX
  5
4DC
  8
0
 10
0.0
 20
0.0
 30
0.0
 70
   128
 71
  -337
 72
  -137
 73
   338
  0
VERTEX
  5
4DD
  8
0
 10
0.0
 20
0.0
 30
0.0
 70
   128
 71
  -338
 72
  -137
 73
   339
  0
VERTEX
  5
4DE
  8
0
 10
0.0
 20
0.0
 30
0.0
 70
   128
 71
  -339
 72
  -137
 73
   340
  0
VERTEX
  5
4DF
  8
0
 10
0.0
 20
0.0
 30
0.0
 70
   128
 71
  -340
 72
  -137
 73
   341
  0
VERTEX
  5
4E0
  8
0
 10
0.0
 20
0.0
 30
0.0
 70
   128
 71
  -341
 72
  -137
 73
   342
  0
VERTEX
  5
4E1
  8
0
 10
0.0
 20
0.0
 30
0.0
 70
   128
 71
  -342
 72
  -137
 73
   343
  0
VERTEX
  5
4E2
  8
0
 10
0.0
 20
0.0
 30
0.0
 70
   128
 71
  -343
 72
  -137
 73
   344
  0
VERTEX
  5
4E3
  8
0
 10
0.0
 20
0.0
 30
0.0
 70
   128
 71
  -344
 72
  -137
 73
   345
  0
VERTEX
  5
4E4
  8
0
 10
0.0
 20
0.0
 30
0.0
 70
   128
 71
  -345
 72
  -137
 73
   135
  0
VERTEX
  5
4E5
  8
0
 10
0.0
 20
0.0
 30
0.0
 70
   128
 71
  -137
 72
  -335
 73
   346
  0
VERTEX
  5
4E6
  8
0
 10
0.0
 20
0.0
 30
0.0
 70
   128
 71
  -346
 72
  -335
 73
  -231
  0
VERTEX
  5
4E7
  8
0
 10
0.0
 20
0.0
 30
0.0
 70
   128
 71
  -346
 72
  -231
 73
  -228
  0
VERTEX
  5
4E8
  8
0
 10
0.0
 20
0.0
 30
0.0
 70
   128
 71
  -346
 72
  -228
 73
   138
  0
VERTEX
  5
4E9
  8
0
 10
0.0
 20
0.0
 30
0.0
 70
   128
 71
  -138
 72
  -228
 73
  -145
  0
VERTEX
  5
4EA
  8
0
 10
0.0
 20
0.0
 30
0.0
 70
   128
 71
  -145
 72
  -228
 73
   347
  0
VERTEX
  5
4EB
  8
0
 10
0.0
 20
0.0
 30
0.0
 70
   128
 71
  -231
 72
  -335
 73
   348
  0
VERTEX
  5
4EC
  8
0
 10
0.0
 20
0.0
 30
0.0
 70
   128
 71
  -348
 72
  -335
 73
  -349
  0
VERTEX
  5
4ED
  8
0
 10
0.0
 20
0.0
 30
0.0
 70
   128
 71
  -348
 72
  -349
 73
   232
  0
VERTEX
  5
4EE
  8
0
 10
0.0
 20
0.0
 30
0.0
 70
   128
 71
  -232
 72
  -349
 73
  -235
  0
VERTEX
  5
4EF
  8
0
 10
0.0
 20
0.0
 30
0.0
 70
   128
 71
  -235
 72
  -349
 73
   350
  0
VERTEX
  5
4F0
  8
0
 10
0.0
 20
0.0
 30
0.0
 70
   128
 71
  -350
 72
  -349
 73
  -351
  0
VERTEX
  5
4F1
  8
0
 10
0.0
 20
0.0
 30
0.0
 70
   128
 71
  -350
 72
   351
 73
  -352
  0
VERTEX
  5
4F2
  8
0
 10
0.0
 20
0.0
 30
0.0
 70
   128
 71
  -349
 72
  -335
 73
   353
  0
VERTEX
  5
4F3
  8
0
 10
0.0
 20
0.0
 30
0.0
 70
   128
 71
  -353
 72
  -335
 73
  -354
  0
VERTEX
  5
4F4
  8
0
 10
0.0
 20
0.0
 30
0.0
 70
   128
 71
  -353
 72
  -354
 73
   355
  0
VERTEX
  5
4F5
  8
0
 10
0.0
 20
0.0
 30
0.0
 70
   128
 71
  -355
 72
  -354
 73
  -356
  0
VERTEX
  5
4F6
  8
0
 10
0.0
 20
0.0
 30
0.0
 70
   128
 71
  -356
 72
  -354
 73
   357
  0
VERTEX
  5
4F7
  8
0
 10
0.0
 20
0.0
 30
0.0
 70
   128
 71
  -354
 72
  -335
 73
   358
  0
VERTEX
  5
4F8
  8
0
 10
0.0
 20
0.0
 30
0.0
 70
   128
 71
  -358
 72
  -335
 73
  -359
  0
VERTEX
  5
4F9
  8
0
 10
0.0
 20
0.0
 30
0.0
 70
   128
 71
  -358
 72
  -359
 73
   360
  0
VERTEX
  5
4FA
  8
0
 10
0.0
 20
0.0
 30
0.0
 70
   128
 71
  -360
 72
  -359
 73
  -361
  0
VERTEX
  5
4FB
  8
0
 10
0.0
 20
0.0
 30
0.0
 70
   128
 71
  -361
 72
  -359
 73
   362
  0
VERTEX
  5
4FC
  8
0
 10
0.0
 20
0.0
 30
0.0
 70
   128
 71
  -359
 72
  -335
 73
   363
  0
VERTEX
  5
4FD
  8
0
 10
0.0
 20
0.0
 30
0.0
 70
   128
 71
  -363
 72
  -335
 73
  -364
  0
VERTEX
  5
4FE
  8
0
 10
0.0
 20
0.0
 30
0.0
 70
   128
 71
  -363
 72
  -364
 73
   365
  0
VERTEX
  5
4FF
  8
0
 10
0.0
 20
0.0
 30
0.0
 70
   128
 71
  -365
 72
  -364
 73
  -366
  0
VERTEX
  5
500
  8
0
 10
0.0
 20
0.0
 30
0.0
 70
   128
 71
  -366
 72
  -364
 73
   367
  0
VERTEX
  5
501
  8
0
 10
0.0
 20
0.0
 30
0.0
 70
   128
 71
  -364
 72
  -335
 73
   368
  0
VERTEX
  5
502
  8
0
 10
0.0
 20
0.0
 30
0.0
 70
   128
 71
  -368
 72
  -335
 73
   369
  0
VERTEX
  5
503
  8
0
 10
0.0
 20
0.0
 30
0.0
 70
   128
 71
  -369
 72
  -335
 73
  -370
  0
VERTEX
  5
504
  8
0
 10
0.0
 20
0.0
 30
0.0
 70
   128
 71
  -369
 72
   370
 73
  -371
  0
VERTEX
  5
505
  8
0
 10
0.0
 20
0.0
 30
0.0
 70
   128
 71
  -369
 72
   371
 73
  -372
  0
VERTEX
  5
506
  8
0
 10
0.0
 20
0.0
 30
0.0
 70
   128
 71
  -370
 72
  -335
 73
   373
  0
VERTEX
  5
507
  8
0
 10
0.0
 20
0.0
 30
0.0
 70
   128
 71
  -373
 72
  -335
 73
   374
  0
VERTEX
  5
508
  8
0
 10
0.0
 20
0.0
 30
0.0
 70
   128
 71
  -374
 72
  -335
 73
   375
  0
VERTEX
  5
509
  8
0
 10
0.0
 20
0.0
 30
0.0
 70
   128
 71
  -375
 72
  -335
 73
   376
  0
VERTEX
  5
50A
  8
0
 10
0.0
 20
0.0
 30
0.0
 70
   128
 71
  -376
 72
  -335
 73
   377
  0
VERTEX
  5
50B
  8
0
 10
0.0
 20
0.0
 30
0.0
 70
   128
 71
  -377
 72
  -335
 73
   378
  0
VERTEX
  5
50C
  8
0
 10
0.0
 20
0.0
 30
0.0
 70
   128
 71
  -378
 72
  -335
 73
   379
  0
VERTEX
  5
50D
  8
0
 10
0.0
 20
0.0
 30
0.0
 70
   128
 71
  -379
 72
  -335
 73
   380
  0
VERTEX
  5
50E
  8
0
 10
0.0
 20
0.0
 30
0.0
 70
   128
 71
  -380
 72
  -335
 73
   381
  0
VERTEX
  5
50F
  8
0
 10
0.0
 20
0.0
 30
0.0
 70
   128
 71
  -381
 72
  -335
 73
   382
  0
VERTEX
  5
510
  8
0
 10
0.0
 20
0.0
 30
0.0
 70
   128
 71
  -382
 72
  -335
 73
  -383
  0
VERTEX
  5
511
  8
0
 10
0.0
 20
0.0
 30
0.0
 70
   128
 71
  -383
 72
  -335
 73
   384
  0
VERTEX
  5
512
  8
0
 10
0.0
 20
0.0
 30
0.0
 70
   128
 71
  -384
 72
  -335
 73
  -385
  0
VERTEX
  5
513
  8
0
 10
0.0
 20
0.0
 30
0.0
 70
   128
 71
  -385
 72
  -335
 73
   386
  0
VERTEX
  5
514
  8
0
 10
0.0
 20
0.0
 30
0.0
 70
   128
 71
  -386
 72
  -335
 73
  -387
  0
VERTEX
  5
515
  8
0
 10
0.0
 20
0.0
 30
0.0
 70
   128
 71
  -387
 72
  -335
 73
   388
  0
VERTEX
  5
516
  8
0
 10
0.0
 20
0.0
 30
0.0
 70
   128
 71
  -388
 72
  -335
 73
  -389
  0
VERTEX
  5
517
  8
0
 10
0.0
 20
0.0
 30
0.0
 70
   128
 71
  -389
 72
  -335
 73
   310
  0
VERTEX
  5
518
  8
0
 10
0.0
 20
0.0
 30
0.0
 70
   128
 71
  -390
 72
  -391
 73
   392
  0
VERTEX
  5
519
  8
0
 10
0.0
 20
0.0
 30
0.0
 70
   128
 71
  -391
 72
  -390
 73
  -393
  0
VERTEX
  5
51A
  8
0
 10
0.0
 20
0.0
 30
0.0
 70
   128
 71
  -393
 72
  -390
 73
   -20
  0
VERTEX
  5
51B
  8
0
 10
0.0
 20
0.0
 30
0.0
 70
   128
 71
   -20
 72
   390
 73
  -333
  0
VERTEX
  5
51C
  8
0
 10
0.0
 20
0.0
 30
0.0
 70
   128
 71
   -20
 72
  -333
 73
   -18
  0
VERTEX
  5
51D
  8
0
 10
0.0
 20
0.0
 30
0.0
 70
   128
 71
   -18
 72
  -333
 73
   121
  0
VERTEX
  5
51E
  8
0
 10
0.0
 20
0.0
 30
0.0
 70
   128
 71
  -393
 72
    20
 73
  -394
  0
VERTEX
  5
51F
  8
0
 10
0.0
 20
0.0
 30
0.0
 70
   128
 71
  -393
 72
   394
 73
  -395
  0
VERTEX
  5
520
  8
0
 10
0.0
 20
0.0
 30
0.0
 70
   128
 71
  -393
 72
   395
 73
    -3
  0
VERTEX
  5
521
  8
0
 10
0.0
 20
0.0
 30
0.0
 70
   128
 71
  -393
 72
    -3
 73
    -2
  0
VERTEX
  5
522
  8
0
 10
0.0
 20
0.0
 30
0.0
 70
   128
 71
  -393
 72
     2
 73
  -396
  0
VERTEX
  5
523
  8
0
 10
0.0
 20
0.0
 30
0.0
 70
   128
 71
  -393
 72
   396
 73
  -397
  0
VERTEX
  5
524
  8
0
 10
0.0
 20
0.0
 30
0.0
 70
   128
 71
  -393
 72
   397
 73
  -398
  0
VERTEX
  5
525
  8
0
 10
0.0
 20
0.0
 30
0.0
 70
   128
 71
  -393
 72
   398
 73
  -399
  0
VERTEX
  5
526
  8
0
 10
0.0
 20
0.0
 30
0.0
 70
   128
 71
  -393
 72
   399
 73
  -400
  0
VERTEX
  5
527
  8
0
 10
0.0
 20
0.0
 30
0.0
 70
   128
 71
  -393
 72
   400
 73
  -401
  0
VERTEX
  5
528
  8
0
 10
0.0
 20
0.0
 30
0.0
 70
   128
 71
  -393
 72
   401
 73
  -402
  0
VERTEX
  5
529
  8
0
 10
0.0
 20
0.0
 30
0.0
 70
   128
 71
  -393
 72
   402
 73
  -403
  0
VERTEX
  5
52A
  8
0
 10
0.0
 20
0.0
 30
0.0
 70
   128
 71
  -393
 72
   403
 73
  -404
  0
VERTEX
  5
52B
  8
0
 10
0.0
 20
0.0
 30
0.0
 70
   128
 71
  -393
 72
   404
 73
  -405
  0
VERTEX
  5
52C
  8
0
 10
0.0
 20
0.0
 30
0.0
 70
   128
 71
  -393
 72
   405
 73
  -406
  0
VERTEX
  5
52D
  8
0
 10
0.0
 20
0.0
 30
0.0
 70
   128
 71
  -393
 72
   406
 73
   -17
  0
VERTEX
  5
52E
  8
0
 10
0.0
 20
0.0
 30
0.0
 70
   128
 71
  -393
 72
   -17
 73
   -12
  0
VERTEX
  5
52F
  8
0
 10
0.0
 20
0.0
 30
0.0
 70
   128
 71
  -393
 72
    12
 73
  -407
  0
VERTEX
  5
530
  8
0
 10
0.0
 20
0.0
 30
0.0
 70
   128
 71
  -393
 72
   407
 73
   -94
  0
VERTEX
  5
531
  8
0
 10
0.0
 20
0.0
 30
0.0
 70
   128
 71
  -393
 72
   -94
 73
   -93
  0
VERTEX
  5
532
  8
0
 10
0.0
 20
0.0
 30
0.0
 70
   128
 71
  -393
 72
    93
 73
   -83
  0
VERTEX
  5
533
  8
0
 10
0.0
 20
0.0
 30
0.0
 70
   128
 71
  -393
 72
   -83
 73
   -82
  0
VERTEX
  5
534
  8
0
 10
0.0
 20
0.0
 30
0.0
 70
   128
 71
  -393
 72
    82
 73
  -151
  0
VERTEX
  5
535
  8
0
 10
0.0
 20
0.0
 30
0.0
 70
   128
 71
  -393
 72
  -151
 73
  -150
  0
VERTEX
  5
536
  8
0
 10
0.0
 20
0.0
 30
0.0
 70
   128
 71
  -393
 72
   150
 73
  -149
  0
VERTEX
  5
537
  8
0
 10
0.0
 20
0.0
 30
0.0
 70
   128
 71
  -393
 72
  -149
 73
  -148
  0
VERTEX
  5
538
  8
0
 10
0.0
 20
0.0
 30
0.0
 70
   128
 71
  -393
 72
   148
 73
  -147
  0
VERTEX
  5
539
  8
0
 10
0.0
 20
0.0
 30
0.0
 70
   128
 71
  -393
 72
  -147
 73
   146
  0
VERTEX
  5
53A
  8
0
 10
0.0
 20
0.0
 30
0.0
 70
   128
 71
  -391
 72
   393
 73
   -91
  0
VERTEX
  5
53B
  8
0
 10
0.0
 20
0.0
 30
0.0
 70
   128
 71
  -391
 72
   -91
 73
  -408
  0
VERTEX
  5
53C
  8
0
 10
0.0
 20
0.0
 30
0.0
 70
   128
 71
  -408
 72
   -91
 73
   106
  0
VERTEX
  5
53D
  8
0
 10
0.0
 20
0.0
 30
0.0
 70
   128
 71
  -106
 72
   -91
 73
   -81
  0
VERTEX
  5
53E
  8
0
 10
0.0
 20
0.0
 30
0.0
 70
   128
 71
  -391
 72
   408
 73
  -409
  0
VERTEX
  5
53F
  8
0
 10
0.0
 20
0.0
 30
0.0
 70
   128
 71
  -391
 72
   409
 73
  -410
  0
VERTEX
  5
540
  8
0
 10
0.0
 20
0.0
 30
0.0
 70
   128
 71
  -391
 72
   410
 73
  -411
  0
VERTEX
  5
541
  8
0
 10
0.0
 20
0.0
 30
0.0
 70
   128
 71
  -391
 72
   411
 73
  -412
  0
VERTEX
  5
542
  8
0
 10
0.0
 20
0.0
 30
0.0
 70
   128
 71
  -391
 72
   412
 73
  -413
  0
VERTEX
  5
543
  8
0
 10
0.0
 20
0.0
 30
0.0
 70
   128
 71
  -391
 72
   413
 73
  -414
  0
VERTEX
  5
544
  8
0
 10
0.0
 20
0.0
 30
0.0
 70
   128
 71
  -391
 72
   414
 73
  -415
  0
VERTEX
  5
545
  8
0
 10
0.0
 20
0.0
 30
0.0
 70
   128
 71
  -391
 72
   415
 73
  -416
  0
VERTEX
  5
546
  8
0
 10
0.0
 20
0.0
 30
0.0
 70
   128
 71
  -391
 72
   416
 73
  -417
  0
VERTEX
  5
547
  8
0
 10
0.0
 20
0.0
 30
0.0
 70
   128
 71
  -391
 72
   417
 73
  -418
  0
VERTEX
  5
548
  8
0
 10
0.0
 20
0.0
 30
0.0
 70
   128
 71
  -391
 72
   418
 73
  -120
  0
VERTEX
  5
549
  8
0
 10
0.0
 20
0.0
 30
0.0
 70
   128
 71
  -391
 72
  -120
 73
  -419
  0
VERTEX
  5
54A
  8
0
 10
0.0
 20
0.0
 30
0.0
 70
   128
 71
  -419
 72
  -120
 73
  -118
  0
VERTEX
  5
54B
  8
0
 10
0.0
 20
0.0
 30
0.0
 70
   128
 71
  -419
 72
  -118
 73
   153
  0
VERTEX
  5
54C
  8
0
 10
0.0
 20
0.0
 30
0.0
 70
   128
 71
  -391
 72
  -419
 73
   420
  0
VERTEX
  5
54D
  8
0
 10
0.0
 20
0.0
 30
0.0
 70
   128
 71
  -392
 72
   391
 73
  -421
  0
VERTEX
  5
54E
  8
0
 10
0.0
 20
0.0
 30
0.0
 70
   128
 71
  -392
 72
  -421
 73
  -422
  0
VERTEX
  5
54F
  8
0
 10
0.0
 20
0.0
 30
0.0
 70
   128
 71
  -422
 72
  -421
 73
  -423
  0
VERTEX
  5
550
  8
0
 10
0.0
 20
0.0
 30
0.0
 70
   128
 71
  -422
 72
   423
 73
  -424
  0
VERTEX
  5
551
  8
0
 10
0.0
 20
0.0
 30
0.0
 70
   128
 71
  -422
 72
   424
 73
  -425
  0
VERTEX
  5
552
  8
0
 10
0.0
 20
0.0
 30
0.0
 70
   128
 71
  -422
 72
   425
 73
  -426
  0
VERTEX
  5
553
  8
0
 10
0.0
 20
0.0
 30
0.0
 70
   128
 71
  -422
 72
   426
 73
  -427
  0
VERTEX
  5
554
  8
0
 10
0.0
 20
0.0
 30
0.0
 70
   128
 71
  -422
 72
   427
 73
  -428
  0
VERTEX
  5
555
  8
0
 10
0.0
 20
0.0
 30
0.0
 70
   128
 71
  -422
 72
   428
 73
  -429
  0
VERTEX
  5
556
  8
0
 10
0.0
 20
0.0
 30
0.0
 70
   128
 71
  -422
 72
   429
 73
  -430
  0
VERTEX
  5
557
  8
0
 10
0.0
 20
0.0
 30
0.0
 70
   128
 71
  -422
 72
   430
 73
  -431
  0
VERTEX
  5
558
  8
0
 10
0.0
 20
0.0
 30
0.0
 70
   128
 71
  -422
 72
   431
 73
  -432
  0
VERTEX
  5
559
  8
0
 10
0.0
 20
0.0
 30
0.0
 70
   128
 71
  -422
 72
   432
 73
  -433
  0
VERTEX
  5
55A
  8
0
 10
0.0
 20
0.0
 30
0.0
 70
   128
 71
  -422
 72
   433
 73
  -434
  0
VERTEX
  5
55B
  8
0
 10
0.0
 20
0.0
 30
0.0
 70
   128
 71
  -422
 72
   434
 73
  -435
  0
VERTEX
  5
55C
  8
0
 10
0.0
 20
0.0
 30
0.0
 70
   128
 71
  -422
 72
  -435
 73
  -436
  0
VERTEX
  5
55D
  8
0
 10
0.0
 20
0.0
 30
0.0
 70
   128
 71
  -422
 72
   436
 73
  -437
  0
VERTEX
  5
55E
  8
0
 10
0.0
 20
0.0
 30
0.0
 70
   128
 71
  -422
 72
  -437
 73
  -438
  0
VERTEX
  5
55F
  8
0
 10
0.0
 20
0.0
 30
0.0
 70
   128
 71
  -422
 72
   438
 73
  -439
  0
VERTEX
  5
560
  8
0
 10
0.0
 20
0.0
 30
0.0
 70
   128
 71
  -422
 72
  -439
 73
  -440
  0
VERTEX
  5
561
  8
0
 10
0.0
 20
0.0
 30
0.0
 70
   128
 71
  -422
 72
   440
 73
  -441
  0
VERTEX
  5
562
  8
0
 10
0.0
 20
0.0
 30
0.0
 70
   128
 71
  -422
 72
  -441
 73
   442
  0
VERTEX
  5
563
  8
0
 10
0.0
 20
0.0
 30
0.0
 70
   128
 71
  -392
 72
   422
 73
  -322
  0
VERTEX
  5
564
  8
0
 10
0.0
 20
0.0
 30
0.0
 70
   128
 71
  -392
 72
  -322
 73
  -315
  0
VERTEX
  5
565
  8
0
 10
0.0
 20
0.0
 30
0.0
 70
   128
 71
  -392
 72
   315
 73
  -443
  0
VERTEX
  5
566
  8
0
 10
0.0
 20
0.0
 30
0.0
 70
   128
 71
  -392
 72
   443
 73
  -444
  0
VERTEX
  5
567
  8
0
 10
0.0
 20
0.0
 30
0.0
 70
   128
 71
  -392
 72
   444
 73
  -445
  0
VERTEX
  5
568
  8
0
 10
0.0
 20
0.0
 30
0.0
 70
   128
 71
  -392
 72
   445
 73
  -446
  0
VERTEX
  5
569
  8
0
 10
0.0
 20
0.0
 30
0.0
 70
   128
 71
  -392
 72
   446
 73
  -447
  0
VERTEX
  5
56A
  8
0
 10
0.0
 20
0.0
 30
0.0
 70
   128
 71
  -392
 72
   447
 73
  -448
  0
VERTEX
  5
56B
  8
0
 10
0.0
 20
0.0
 30
0.0
 70
   128
 71
  -392
 72
   448
 73
  -449
  0
VERTEX
  5
56C
  8
0
 10
0.0
 20
0.0
 30
0.0
 70
   128
 71
  -392
 72
   449
 73
  -450
  0
VERTEX
  5
56D
  8
0
 10
0.0
 20
0.0
 30
0.0
 70
   128
 71
  -392
 72
   450
 73
  -451
  0
VERTEX
  5
56E
  8
0
 10
0.0
 20
0.0
 30
0.0
 70
   128
 71
  -392
 72
   451
 73
  -452
  0
VERTEX
  5
56F
  8
0
 10
0.0
 20
0.0
 30
0.0
 70
   128
 71
  -392
 72
   452
 73
  -453
  0
VERTEX
  5
570
  8
0
 10
0.0
 20
0.0
 30
0.0
 70
   128
 71
  -392
 72
   453
 73
  -332
  0
VERTEX
  5
571
  8
0
 10
0.0
 20
0.0
 30
0.0
 70
   128
 71
  -392
 72
  -332
 73
  -310
  0
VERTEX
  5
572
  8
0
 10
0.0
 20
0.0
 30
0.0
 70
   128
 71
  -392
 72
  -310
 73
   335
  0
VERTEX
  5
573
  8
0
 10
0.0
 20
0.0
 30
0.0
 70
   128
 71
  -388
 72
  -309
 73
   308
  0
VERTEX
  5
574
  8
0
 10
0.0
 20
0.0
 30
0.0
 70
   128
 71
  -309
 72
  -388
 73
   389
  0
VERTEX
  5
575
  8
0
 10
0.0
 20
0.0
 30
0.0
 70
   128
 71
  -386
 72
  -307
 73
   306
  0
VERTEX
  5
576
  8
0
 10
0.0
 20
0.0
 30
0.0
 70
   128
 71
  -307
 72
  -386
 73
   387
  0
VERTEX
  5
577
  8
0
 10
0.0
 20
0.0
 30
0.0
 70
   128
 71
  -384
 72
  -305
 73
   304
  0
VERTEX
  5
578
  8
0
 10
0.0
 20
0.0
 30
0.0
 70
   128
 71
  -305
 72
  -384
 73
   385
  0
VERTEX
  5
579
  8
0
 10
0.0
 20
0.0
 30
0.0
 70
   128
 71
  -347
 72
  -454
 73
   455
  0
VERTEX
  5
57A
  8
0
 10
0.0
 20
0.0
 30
0.0
 70
   128
 71
  -454
 72
  -347
 73
   228
  0
VERTEX
  5
57B
  8
0
 10
0.0
 20
0.0
 30
0.0
 70
   128
 71
  -455
 72
   454
 73
  -234
  0
VERTEX
  5
57C
  8
0
 10
0.0
 20
0.0
 30
0.0
 70
   128
 71
  -455
 72
  -234
 73
   456
  0
VERTEX
  5
57D
  8
0
 10
0.0
 20
0.0
 30
0.0
 70
   128
 71
  -456
 72
  -234
 73
   457
  0
VERTEX
  5
57E
  8
0
 10
0.0
 20
0.0
 30
0.0
 70
   128
 71
  -457
 72
  -234
 73
   458
  0
VERTEX
  5
57F
  8
0
 10
0.0
 20
0.0
 30
0.0
 70
   128
 71
  -458
 72
  -234
 73
  -169
  0
VERTEX
  5
580
  8
0
 10
0.0
 20
0.0
 30
0.0
 70
   128
 71
  -458
 72
  -169
 73
   459
  0
VERTEX
  5
581
  8
0
 10
0.0
 20
0.0
 30
0.0
 70
   128
 71
  -459
 72
  -169
 73
  -157
  0
VERTEX
  5
582
  8
0
 10
0.0
 20
0.0
 30
0.0
 70
   128
 71
  -157
 72
  -169
 73
  -161
  0
VERTEX
  5
583
  8
0
 10
0.0
 20
0.0
 30
0.0
 70
   128
 71
  -169
 72
  -234
 73
   460
  0
VERTEX
  5
584
  8
0
 10
0.0
 20
0.0
 30
0.0
 70
   128
 71
  -460
 72
  -234
 73
  -461
  0
VERTEX
  5
585
  8
0
 10
0.0
 20
0.0
 30
0.0
 70
   128
 71
  -461
 72
  -234
 73
   233
  0
VERTEX
  5
586
  8
0
 10
0.0
 20
0.0
 30
0.0
 70
   128
 71
  -460
 72
   461
 73
  -350
  0
VERTEX
  5
587
  8
0
 10
0.0
 20
0.0
 30
0.0
 70
   128
 71
  -460
 72
  -350
 73
   174
  0
VERTEX
  5
588
  8
0
 10
0.0
 20
0.0
 30
0.0
 70
   128
 71
  -174
 72
  -350
 73
  -249
  0
VERTEX
  5
589
  8
0
 10
0.0
 20
0.0
 30
0.0
 70
   128
 71
  -249
 72
  -350
 73
   462
  0
VERTEX
  5
58A
  8
0
 10
0.0
 20
0.0
 30
0.0
 70
   128
 71
  -462
 72
  -350
 73
  -352
  0
VERTEX
  5
58B
  8
0
 10
0.0
 20
0.0
 30
0.0
 70
   128
 71
  -462
 72
   352
 73
  -463
  0
VERTEX
  5
58C
  8
0
 10
0.0
 20
0.0
 30
0.0
 70
   128
 71
  -462
 72
  -463
 73
  -261
  0
VERTEX
  5
58D
  8
0
 10
0.0
 20
0.0
 30
0.0
 70
   128
 71
  -462
 72
  -261
 73
   464
  0
VERTEX
  5
58E
  8
0
 10
0.0
 20
0.0
 30
0.0
 70
   128
 71
  -464
 72
  -261
 73
  -465
  0
VERTEX
  5
58F
  8
0
 10
0.0
 20
0.0
 30
0.0
 70
   128
 71
  -465
 72
  -261
 73
   466
  0
VERTEX
  5
590
  8
0
 10
0.0
 20
0.0
 30
0.0
 70
   128
 71
  -466
 72
  -261
 73
  -467
  0
VERTEX
  5
591
  8
0
 10
0.0
 20
0.0
 30
0.0
 70
   128
 71
  -467
 72
  -261
 73
   468
  0
VERTEX
  5
592
  8
0
 10
0.0
 20
0.0
 30
0.0
 70
   128
 71
  -468
 72
  -261
 73
  -469
  0
VERTEX
  5
593
  8
0
 10
0.0
 20
0.0
 30
0.0
 70
   128
 71
  -469
 72
  -261
 73
   256
  0
VERTEX
  5
594
  8
0
 10
0.0
 20
0.0
 30
0.0
 70
   128
 71
  -261
 72
  -463
 73
   470
  0
VERTEX
  5
595
  8
0
 10
0.0
 20
0.0
 30
0.0
 70
   128
 71
  -470
 72
  -463
 73
  -471
  0
VERTEX
  5
596
  8
0
 10
0.0
 20
0.0
 30
0.0
 70
   128
 71
  -471
 72
  -463
 73
   472
  0
VERTEX
  5
597
  8
0
 10
0.0
 20
0.0
 30
0.0
 70
   128
 71
  -470
 72
   471
 73
  -357
  0
VERTEX
  5
598
  8
0
 10
0.0
 20
0.0
 30
0.0
 70
   128
 71
  -470
 72
  -357
 73
  -270
  0
VERTEX
  5
599
  8
0
 10
0.0
 20
0.0
 30
0.0
 70
   128
 71
  -470
 72
  -270
 73
   473
  0
VERTEX
  5
59A
  8
0
 10
0.0
 20
0.0
 30
0.0
 70
   128
 71
  -473
 72
  -270
 73
  -474
  0
VERTEX
  5
59B
  8
0
 10
0.0
 20
0.0
 30
0.0
 70
   128
 71
  -474
 72
  -270
 73
   475
  0
VERTEX
  5
59C
  8
0
 10
0.0
 20
0.0
 30
0.0
 70
   128
 71
  -475
 72
  -270
 73
  -476
  0
VERTEX
  5
59D
  8
0
 10
0.0
 20
0.0
 30
0.0
 70
   128
 71
  -476
 72
  -270
 73
   236
  0
VERTEX
  5
59E
  8
0
 10
0.0
 20
0.0
 30
0.0
 70
   128
 71
  -270
 72
  -357
 73
   477
  0
VERTEX
  5
59F
  8
0
 10
0.0
 20
0.0
 30
0.0
 70
   128
 71
  -477
 72
  -357
 73
  -478
  0
VERTEX
  5
5A0
  8
0
 10
0.0
 20
0.0
 30
0.0
 70
   128
 71
  -478
 72
  -357
 73
  -354
  0
VERTEX
  5
5A1
  8
0
 10
0.0
 20
0.0
 30
0.0
 70
   128
 71
  -478
 72
   354
 73
  -479
  0
VERTEX
  5
5A2
  8
0
 10
0.0
 20
0.0
 30
0.0
 70
   128
 71
  -478
 72
  -479
 73
   480
  0
VERTEX
  5
5A3
  8
0
 10
0.0
 20
0.0
 30
0.0
 70
   128
 71
  -477
 72
   478
 73
  -362
  0
VERTEX
  5
5A4
  8
0
 10
0.0
 20
0.0
 30
0.0
 70
   128
 71
  -477
 72
  -362
 73
  -282
  0
VERTEX
  5
5A5
  8
0
 10
0.0
 20
0.0
 30
0.0
 70
   128
 71
  -477
 72
  -282
 73
   481
  0
VERTEX
  5
5A6
  8
0
 10
0.0
 20
0.0
 30
0.0
 70
   128
 71
  -481
 72
  -282
 73
  -482
  0
VERTEX
  5
5A7
  8
0
 10
0.0
 20
0.0
 30
0.0
 70
   128
 71
  -482
 72
  -282
 73
   483
  0
VERTEX
  5
5A8
  8
0
 10
0.0
 20
0.0
 30
0.0
 70
   128
 71
  -483
 72
  -282
 73
  -484
  0
VERTEX
  5
5A9
  8
0
 10
0.0
 20
0.0
 30
0.0
 70
   128
 71
  -484
 72
  -282
 73
   485
  0
VERTEX
  5
5AA
  8
0
 10
0.0
 20
0.0
 30
0.0
 70
   128
 71
  -485
 72
  -282
 73
  -486
  0
VERTEX
  5
5AB
  8
0
 10
0.0
 20
0.0
 30
0.0
 70
   128
 71
  -486
 72
  -282
 73
   277
  0
VERTEX
  5
5AC
  8
0
 10
0.0
 20
0.0
 30
0.0
 70
   128
 71
  -282
 72
  -362
 73
   487
  0
VERTEX
  5
5AD
  8
0
 10
0.0
 20
0.0
 30
0.0
 70
   128
 71
  -487
 72
  -362
 73
  -488
  0
VERTEX
  5
5AE
  8
0
 10
0.0
 20
0.0
 30
0.0
 70
   128
 71
  -488
 72
  -362
 73
  -359
  0
VERTEX
  5
5AF
  8
0
 10
0.0
 20
0.0
 30
0.0
 70
   128
 71
  -488
 72
   359
 73
  -489
  0
VERTEX
  5
5B0
  8
0
 10
0.0
 20
0.0
 30
0.0
 70
   128
 71
  -488
 72
  -489
 73
   490
  0
VERTEX
  5
5B1
  8
0
 10
0.0
 20
0.0
 30
0.0
 70
   128
 71
  -487
 72
   488
 73
  -367
  0
VERTEX
  5
5B2
  8
0
 10
0.0
 20
0.0
 30
0.0
 70
   128
 71
  -487
 72
  -367
 73
  -294
  0
VERTEX
  5
5B3
  8
0
 10
0.0
 20
0.0
 30
0.0
 70
   128
 71
  -487
 72
  -294
 73
   491
  0
VERTEX
  5
5B4
  8
0
 10
0.0
 20
0.0
 30
0.0
 70
   128
 71
  -491
 72
  -294
 73
  -492
  0
VERTEX
  5
5B5
  8
0
 10
0.0
 20
0.0
 30
0.0
 70
   128
 71
  -492
 72
  -294
 73
   493
  0
VERTEX
  5
5B6
  8
0
 10
0.0
 20
0.0
 30
0.0
 70
   128
 71
  -493
 72
  -294
 73
  -494
  0
VERTEX
  5
5B7
  8
0
 10
0.0
 20
0.0
 30
0.0
 70
   128
 71
  -494
 72
  -294
 73
   495
  0
VERTEX
  5
5B8
  8
0
 10
0.0
 20
0.0
 30
0.0
 70
   128
 71
  -495
 72
  -294
 73
  -496
  0
VERTEX
  5
5B9
  8
0
 10
0.0
 20
0.0
 30
0.0
 70
   128
 71
  -496
 72
  -294
 73
   289
  0
VERTEX
  5
5BA
  8
0
 10
0.0
 20
0.0
 30
0.0
 70
   128
 71
  -294
 72
  -367
 73
   497
  0
VERTEX
  5
5BB
  8
0
 10
0.0
 20
0.0
 30
0.0
 70
   128
 71
  -497
 72
  -367
 73
  -498
  0
VERTEX
  5
5BC
  8
0
 10
0.0
 20
0.0
 30
0.0
 70
   128
 71
  -498
 72
  -367
 73
   364
  0
VERTEX
  5
5BD
  8
0
 10
0.0
 20
0.0
 30
0.0
 70
   128
 71
  -497
 72
   498
 73
  -369
  0
VERTEX
  5
5BE
  8
0
 10
0.0
 20
0.0
 30
0.0
 70
   128
 71
  -497
 72
  -369
 73
  -303
  0
VERTEX
  5
5BF
  8
0
 10
0.0
 20
0.0
 30
0.0
 70
   128
 71
  -497
 72
  -303
 73
   499
  0
VERTEX
  5
5C0
  8
0
 10
0.0
 20
0.0
 30
0.0
 70
   128
 71
  -499
 72
  -303
 73
  -500
  0
VERTEX
  5
5C1
  8
0
 10
0.0
 20
0.0
 30
0.0
 70
   128
 71
  -500
 72
  -303
 73
   501
  0
VERTEX
  5
5C2
  8
0
 10
0.0
 20
0.0
 30
0.0
 70
   128
 71
  -501
 72
  -303
 73
  -502
  0
VERTEX
  5
5C3
  8
0
 10
0.0
 20
0.0
 30
0.0
 70
   128
 71
  -502
 72
  -303
 73
   503
  0
VERTEX
  5
5C4
  8
0
 10
0.0
 20
0.0
 30
0.0
 70
   128
 71
  -503
 72
  -303
 73
  -504
  0
VERTEX
  5
5C5
  8
0
 10
0.0
 20
0.0
 30
0.0
 70
   128
 71
  -504
 72
  -303
 73
   301
  0
VERTEX
  5
5C6
  8
0
 10
0.0
 20
0.0
 30
0.0
 70
   128
 71
  -303
 72
  -369
 73
   383
  0
VERTEX
  5
5C7
  8
0
 10
0.0
 20
0.0
 30
0.0
 70
   128
 71
  -383
 72
  -369
 73
  -505
  0
VERTEX
  5
5C8
  8
0
 10
0.0
 20
0.0
 30
0.0
 70
   128
 71
  -505
 72
  -369
 73
   506
  0
VERTEX
  5
5C9
  8
0
 10
0.0
 20
0.0
 30
0.0
 70
   128
 71
  -506
 72
  -369
 73
   372
  0
VERTEX
  5
5CA
  8
0
 10
0.0
 20
0.0
 30
0.0
 70
   128
 71
  -383
 72
   505
 73
  -507
  0
VERTEX
  5
5CB
  8
0
 10
0.0
 20
0.0
 30
0.0
 70
   128
 71
  -383
 72
   507
 73
  -508
  0
VERTEX
  5
5CC
  8
0
 10
0.0
 20
0.0
 30
0.0
 70
   128
 71
  -383
 72
   508
 73
  -509
  0
VERTEX
  5
5CD
  8
0
 10
0.0
 20
0.0
 30
0.0
 70
   128
 71
  -383
 72
   509
 73
  -510
  0
VERTEX
  5
5CE
  8
0
 10
0.0
 20
0.0
 30
0.0
 70
   128
 71
  -383
 72
   510
 73
  -511
  0
VERTEX
  5
5CF
  8
0
 10
0.0
 20
0.0
 30
0.0
 70
   128
 71
  -383
 72
   511
 73
  -512
  0
VERTEX
  5
5D0
  8
0
 10
0.0
 20
0.0
 30
0.0
 70
   128
 71
  -383
 72
   512
 73
  -513
  0
VERTEX
  5
5D1
  8
0
 10
0.0
 20
0.0
 30
0.0
 70
   128
 71
  -383
 72
   513
 73
  -514
  0
VERTEX
  5
5D2
  8
0
 10
0.0
 20
0.0
 30
0.0
 70
   128
 71
  -383
 72
   514
 73
  -515
  0
VERTEX
  5
5D3
  8
0
 10
0.0
 20
0.0
 30
0.0
 70
   128
 71
  -383
 72
   515
 73
  -382
  0
VERTEX
  5
5D4
  8
0
 10
0.0
 20
0.0
 30
0.0
 70
   128
 71
  -320
 72
  -442
 73
   441
  0
VERTEX
  5
5D5
  8
0
 10
0.0
 20
0.0
 30
0.0
 70
   128
 71
  -442
 72
  -320
 73
   321
  0
VERTEX
  5
5D6
  8
0
 10
0.0
 20
0.0
 30
0.0
 70
   128
 71
  -318
 72
  -440
 73
   439
  0
VERTEX
  5
5D7
  8
0
 10
0.0
 20
0.0
 30
0.0
 70
   128
 71
  -440
 72
  -318
 73
   319
  0
VERTEX
  5
5D8
  8
0
 10
0.0
 20
0.0
 30
0.0
 70
   128
 71
  -316
 72
  -438
 73
   437
  0
VERTEX
  5
5D9
  8
0
 10
0.0
 20
0.0
 30
0.0
 70
   128
 71
  -438
 72
  -316
 73
   317
  0
VERTEX
  5
5DA
  8
0
 10
0.0
 20
0.0
 30
0.0
 70
   128
 71
  -166
 72
  -420
 73
   419
  0
VERTEX
  5
5DB
  8
0
 10
0.0
 20
0.0
 30
0.0
 70
   128
 71
  -420
 72
  -166
 73
   516
  0
VERTEX
  5
5DC
  8
0
 10
0.0
 20
0.0
 30
0.0
 70
   128
 71
  -516
 72
  -166
 73
  -517
  0
VERTEX
  5
5DD
  8
0
 10
0.0
 20
0.0
 30
0.0
 70
   128
 71
  -517
 72
  -166
 73
  -165
  0
VERTEX
  5
5DE
  8
0
 10
0.0
 20
0.0
 30
0.0
 70
   128
 71
  -517
 72
   165
 73
  -518
  0
VERTEX
  5
5DF
  8
0
 10
0.0
 20
0.0
 30
0.0
 70
   128
 71
  -517
 72
   518
 73
  -243
  0
VERTEX
  5
5E0
  8
0
 10
0.0
 20
0.0
 30
0.0
 70
   128
 71
  -517
 72
  -243
 73
   242
  0
VERTEX
  5
5E1
  8
0
 10
0.0
 20
0.0
 30
0.0
 70
   128
 71
  -516
 72
   517
 73
  -258
  0
VERTEX
  5
5E2
  8
0
 10
0.0
 20
0.0
 30
0.0
 70
   128
 71
  -516
 72
  -258
 73
  -519
  0
VERTEX
  5
5E3
  8
0
 10
0.0
 20
0.0
 30
0.0
 70
   128
 71
  -519
 72
  -258
 73
   257
  0
VERTEX
  5
5E4
  8
0
 10
0.0
 20
0.0
 30
0.0
 70
   128
 71
  -516
 72
   519
 73
  -267
  0
VERTEX
  5
5E5
  8
0
 10
0.0
 20
0.0
 30
0.0
 70
   128
 71
  -516
 72
  -267
 73
  -520
  0
VERTEX
  5
5E6
  8
0
 10
0.0
 20
0.0
 30
0.0
 70
   128
 71
  -520
 72
  -267
 73
   266
  0
VERTEX
  5
5E7
  8
0
 10
0.0
 20
0.0
 30
0.0
 70
   128
 71
  -516
 72
   520
 73
  -279
  0
VERTEX
  5
5E8
  8
0
 10
0.0
 20
0.0
 30
0.0
 70
   128
 71
  -516
 72
  -279
 73
  -521
  0
VERTEX
  5
5E9
  8
0
 10
0.0
 20
0.0
 30
0.0
 70
   128
 71
  -521
 72
  -279
 73
   278
  0
VERTEX
  5
5EA
  8
0
 10
0.0
 20
0.0
 30
0.0
 70
   128
 71
  -516
 72
   521
 73
  -291
  0
VERTEX
  5
5EB
  8
0
 10
0.0
 20
0.0
 30
0.0
 70
   128
 71
  -516
 72
  -291
 73
  -522
  0
VERTEX
  5
5EC
  8
0
 10
0.0
 20
0.0
 30
0.0
 70
   128
 71
  -522
 72
  -291
 73
   290
  0
VERTEX
  5
5ED
  8
0
 10
0.0
 20
0.0
 30
0.0
 70
   128
 71
  -516
 72
   522
 73
  -312
  0
VERTEX
  5
5EE
  8
0
 10
0.0
 20
0.0
 30
0.0
 70
   128
 71
  -516
 72
  -312
 73
  -523
  0
VERTEX
  5
5EF
  8
0
 10
0.0
 20
0.0
 30
0.0
 70
   128
 71
  -516
 72
   523
 73
  -524
  0
VERTEX
  5
5F0
  8
0
 10
0.0
 20
0.0
 30
0.0
 70
   128
 71
  -516
 72
   524
 73
  -525
  0
VERTEX
  5
5F1
  8
0
 10
0.0
 20
0.0
 30
0.0
 70
   128
 71
  -516
 72
   525
 73
  -526
  0
VERTEX
  5
5F2
  8
0
 10
0.0
 20
0.0
 30
0.0
 70
   128
 71
  -516
 72
   526
 73
  -423
  0
VERTEX
  5
5F3
  8
0
 10
0.0
 20
0.0
 30
0.0
 70
   128
 71
  -516
 72
  -423
 73
   421
  0
VERTEX
  5
5F4
  8
0
 10
0.0
 20
0.0
 30
0.0
 70
   128
 71
  -523
 72
  -312
 73
   527
  0
VERTEX
  5
5F5
  8
0
 10
0.0
 20
0.0
 30
0.0
 70
   128
 71
  -527
 72
  -312
 73
   528
  0
VERTEX
  5
5F6
  8
0
 10
0.0
 20
0.0
 30
0.0
 70
   128
 71
  -528
 72
  -312
 73
   529
  0
VERTEX
  5
5F7
  8
0
 10
0.0
 20
0.0
 30
0.0
 70
   128
 71
  -529
 72
  -312
 73
   530
  0
VERTEX
  5
5F8
  8
0
 10
0.0
 20
0.0
 30
0.0
 70
   128
 71
  -530
 72
  -312
 73
   531
  0
VERTEX
  5
5F9
  8
0
 10
0.0
 20
0.0
 30
0.0
 70
   128
 71
  -531
 72
  -312
 73
   532
  0
VERTEX
  5
5FA
  8
0
 10
0.0
 20
0.0
 30
0.0
 70
   128
 71
  -532
 72
  -312
 73
   533
  0
VERTEX
  5
5FB
  8
0
 10
0.0
 20
0.0
 30
0.0
 70
   128
 71
  -533
 72
  -312
 73
   435
  0
VERTEX
  5
5FC
  8
0
 10
0.0
 20
0.0
 30
0.0
 70
   128
 71
  -435
 72
  -312
 73
  -436
  0
VERTEX
  5
5FD
  8
0
 10
0.0
 20
0.0
 30
0.0
 70
   128
 71
  -436
 72
  -312
 73
   314
  0
VERTEX
  5
5FE
  8
0
 10
0.0
 20
0.0
 30
0.0
 70
   128
 71
  -503
 72
  -300
 73
   299
  0
VERTEX
  5
5FF
  8
0
 10
0.0
 20
0.0
 30
0.0
 70
   128
 71
  -300
 72
  -503
 73
   504
  0
VERTEX
  5
600
  8
0
 10
0.0
 20
0.0
 30
0.0
 70
   128
 71
  -501
 72
  -298
 73
   297
  0
VERTEX
  5
601
  8
0
 10
0.0
 20
0.0
 30
0.0
 70
   128
 71
  -298
 72
  -501
 73
   502
  0
VERTEX
  5
602
  8
0
 10
0.0
 20
0.0
 30
0.0
 70
   128
 71
  -499
 72
  -296
 73
   295
  0
VERTEX
  5
603
  8
0
 10
0.0
 20
0.0
 30
0.0
 70
   128
 71
  -296
 72
  -499
 73
   500
  0
VERTEX
  5
604
  8
0
 10
0.0
 20
0.0
 30
0.0
 70
   128
 71
  -365
 72
  -490
 73
   489
  0
VERTEX
  5
605
  8
0
 10
0.0
 20
0.0
 30
0.0
 70
   128
 71
  -490
 72
  -365
 73
   366
  0
VERTEX
  5
606
  8
0
 10
0.0
 20
0.0
 30
0.0
 70
   128
 71
  -495
 72
  -288
 73
   287
  0
VERTEX
  5
607
  8
0
 10
0.0
 20
0.0
 30
0.0
 70
   128
 71
  -288
 72
  -495
 73
   496
  0
VERTEX
  5
608
  8
0
 10
0.0
 20
0.0
 30
0.0
 70
   128
 71
  -493
 72
  -286
 73
   285
  0
VERTEX
  5
609
  8
0
 10
0.0
 20
0.0
 30
0.0
 70
   128
 71
  -286
 72
  -493
 73
   494
  0
VERTEX
  5
60A
  8
0
 10
0.0
 20
0.0
 30
0.0
 70
   128
 71
  -491
 72
  -284
 73
   283
  0
VERTEX
  5
60B
  8
0
 10
0.0
 20
0.0
 30
0.0
 70
   128
 71
  -284
 72
  -491
 73
   492
  0
VERTEX
  5
60C
  8
0
 10
0.0
 20
0.0
 30
0.0
 70
   128
 71
  -360
 72
  -480
 73
   479
  0
VERTEX
  5
60D
  8
0
 10
0.0
 20
0.0
 30
0.0
 70
   128
 71
  -480
 72
  -360
 73
   361
  0
VERTEX
  5
60E
  8
0
 10
0.0
 20
0.0
 30
0.0
 70
   128
 71
  -485
 72
  -276
 73
   275
  0
VERTEX
  5
60F
  8
0
 10
0.0
 20
0.0
 30
0.0
 70
   128
 71
  -276
 72
  -485
 73
   486
  0
VERTEX
  5
610
  8
0
 10
0.0
 20
0.0
 30
0.0
 70
   128
 71
  -483
 72
  -274
 73
   273
  0
VERTEX
  5
611
  8
0
 10
0.0
 20
0.0
 30
0.0
 70
   128
 71
  -274
 72
  -483
 73
   484
  0
VERTEX
  5
612
  8
0
 10
0.0
 20
0.0
 30
0.0
 70
   128
 71
  -481
 72
  -272
 73
   271
  0
VERTEX
  5
613
  8
0
 10
0.0
 20
0.0
 30
0.0
 70
   128
 71
  -272
 72
  -481
 73
   482
  0
VERTEX
  5
614
  8
0
 10
0.0
 20
0.0
 30
0.0
 70
   128
 71
  -351
 72
  -534
 73
   535
  0
VERTEX
  5
615
  8
0
 10
0.0
 20
0.0
 30
0.0
 70
   128
 71
  -534
 72
  -351
 73
   349
  0
VERTEX
  5
616
  8
0
 10
0.0
 20
0.0
 30
0.0
 70
   128
 71
  -535
 72
   534
 73
  -355
  0
VERTEX
  5
617
  8
0
 10
0.0
 20
0.0
 30
0.0
 70
   128
 71
  -535
 72
  -355
 73
  -472
  0
VERTEX
  5
618
  8
0
 10
0.0
 20
0.0
 30
0.0
 70
   128
 71
  -535
 72
  -472
 73
   463
  0
VERTEX
  5
619
  8
0
 10
0.0
 20
0.0
 30
0.0
 70
   128
 71
  -472
 72
  -355
 73
   356
  0
VERTEX
  5
61A
  8
0
 10
0.0
 20
0.0
 30
0.0
 70
   128
 71
  -475
 72
  -265
 73
   264
  0
VERTEX
  5
61B
  8
0
 10
0.0
 20
0.0
 30
0.0
 70
   128
 71
  -265
 72
  -475
 73
   476
  0
VERTEX
  5
61C
  8
0
 10
0.0
 20
0.0
 30
0.0
 70
   128
 71
  -473
 72
  -263
 73
   262
  0
VERTEX
  5
61D
  8
0
 10
0.0
 20
0.0
 30
0.0
 70
   128
 71
  -263
 72
  -473
 73
   474
  0
VERTEX
  5
61E
  8
0
 10
0.0
 20
0.0
 30
0.0
 70
   128
 71
  -468
 72
  -255
 73
   254
  0
VERTEX
  5
61F
  8
0
 10
0.0
 20
0.0
 30
0.0
 70
   128
 71
  -255
 72
  -468
 73
   469
  0
VERTEX
  5
620
  8
0
 10
0.0
 20
0.0
 30
0.0
 70
   128
 71
  -466
 72
  -253
 73
   252
  0
VERTEX
  5
621
  8
0
 10
0.0
 20
0.0
 30
0.0
 70
   128
 71
  -253
 72
  -466
 73
   467
  0
VERTEX
  5
622
  8
0
 10
0.0
 20
0.0
 30
0.0
 70
   128
 71
  -464
 72
  -251
 73
   250
  0
VERTEX
  5
623
  8
0
 10
0.0
 20
0.0
 30
0.0
 70
   128
 71
  -251
 72
  -464
 73
   465
  0
VERTEX
  5
624
  8
0
 10
0.0
 20
0.0
 30
0.0
 70
   128
 71
  -101
 72
  -536
 73
  -100
  0
VERTEX
  5
625
  8
0
 10
0.0
 20
0.0
 30
0.0
 70
   128
 71
  -536
 72
   101
 73
  -537
  0
VERTEX
  5
626
  8
0
 10
0.0
 20
0.0
 30
0.0
 70
   128
 71
  -536
 72
  -537
 73
   538
  0
VERTEX
  5
627
  8
0
 10
0.0
 20
0.0
 30
0.0
 70
   128
 71
  -538
 72
  -537
 73
   539
  0
VERTEX
  5
628
  8
0
 10
0.0
 20
0.0
 30
0.0
 70
   128
 71
  -539
 72
   537
 73
  -540
  0
VERTEX
  5
629
  8
0
 10
0.0
 20
0.0
 30
0.0
 70
   128
 71
  -539
 72
  -540
 73
   541
  0
VERTEX
  5
62A
  8
0
 10
0.0
 20
0.0
 30
0.0
 70
   128
 71
  -541
 72
   540
 73
  -542
  0
VERTEX
  5
62B
  8
0
 10
0.0
 20
0.0
 30
0.0
 70
   128
 71
  -541
 72
  -542
 73
   543
  0
VERTEX
  5
62C
  8
0
 10
0.0
 20
0.0
 30
0.0
 70
   128
 71
  -543
 72
   542
 73
  -544
  0
VERTEX
  5
62D
  8
0
 10
0.0
 20
0.0
 30
0.0
 70
   128
 71
  -543
 72
  -544
 73
   545
  0
VERTEX
  5
62E
  8
0
 10
0.0
 20
0.0
 30
0.0
 70
   128
 71
  -545
 72
   544
 73
  -546
  0
VERTEX
  5
62F
  8
0
 10
0.0
 20
0.0
 30
0.0
 70
   128
 71
  -545
 72
  -546
 73
   547
  0
VERTEX
  5
630
  8
0
 10
0.0
 20
0.0
 30
0.0
 70
   128
 71
  -547
 72
   546
 73
  -548
  0
VERTEX
  5
631
  8
0
 10
0.0
 20
0.0
 30
0.0
 70
   128
 71
  -547
 72
  -548
 73
   549
  0
VERTEX
  5
632
  8
0
 10
0.0
 20
0.0
 30
0.0
 70
   128
 71
  -549
 72
   548
 73
  -550
  0
VERTEX
  5
633
  8
0
 10
0.0
 20
0.0
 30
0.0
 70
   128
 71
  -549
 72
  -550
 73
   551
  0
VERTEX
  5
634
  8
0
 10
0.0
 20
0.0
 30
0.0
 70
   128
 71
  -551
 72
   550
 73
  -552
  0
VERTEX
  5
635
  8
0
 10
0.0
 20
0.0
 30
0.0
 70
   128
 71
  -551
 72
  -552
 73
   553
  0
VERTEX
  5
636
  8
0
 10
0.0
 20
0.0
 30
0.0
 70
   128
 71
  -553
 72
   552
 73
  -554
  0
VERTEX
  5
637
  8
0
 10
0.0
 20
0.0
 30
0.0
 70
   128
 71
  -553
 72
  -554
 73
   555
  0
VERTEX
  5
638
  8
0
 10
0.0
 20
0.0
 30
0.0
 70
   128
 71
  -555
 72
   554
 73
  -556
  0
VERTEX
  5
639
  8
0
 10
0.0
 20
0.0
 30
0.0
 70
   128
 71
  -555
 72
  -556
 73
   557
  0
VERTEX
  5
63A
  8
0
 10
0.0
 20
0.0
 30
0.0
 70
   128
 71
  -557
 72
   556
 73
  -558
  0
VERTEX
  5
63B
  8
0
 10
0.0
 20
0.0
 30
0.0
 70
   128
 71
  -557
 72
  -558
 73
   559
  0
VERTEX
  5
63C
  8
0
 10
0.0
 20
0.0
 30
0.0
 70
   128
 71
  -559
 72
   558
 73
  -560
  0
VERTEX
  5
63D
  8
0
 10
0.0
 20
0.0
 30
0.0
 70
   128
 71
  -141
 72
   561
 73
  -101
  0
VERTEX
  5
63E
  8
0
 10
0.0
 20
0.0
 30
0.0
 70
   128
 71
  -561
 72
   141
 73
  -562
  0
VERTEX
  5
63F
  8
0
 10
0.0
 20
0.0
 30
0.0
 70
   128
 71
  -561
 72
  -562
 73
   563
  0
VERTEX
  5
640
  8
0
 10
0.0
 20
0.0
 30
0.0
 70
   128
 71
  -563
 72
   562
 73
  -564
  0
VERTEX
  5
641
  8
0
 10
0.0
 20
0.0
 30
0.0
 70
   128
 71
  -563
 72
  -564
 73
   565
  0
VERTEX
  5
642
  8
0
 10
0.0
 20
0.0
 30
0.0
 70
   128
 71
  -565
 72
   564
 73
  -566
  0
VERTEX
  5
643
  8
0
 10
0.0
 20
0.0
 30
0.0
 70
   128
 71
  -565
 72
  -566
 73
   567
  0
VERTEX
  5
644
  8
0
 10
0.0
 20
0.0
 30
0.0
 70
   128
 71
  -567
 72
   566
 73
  -568
  0
VERTEX
  5
645
  8
0
 10
0.0
 20
0.0
 30
0.0
 70
   128
 71
  -567
 72
  -568
 73
   569
  0
VERTEX
  5
646
  8
0
 10
0.0
 20
0.0
 30
0.0
 70
   128
 71
  -569
 72
   568
 73
  -570
  0
VERTEX
  5
647
  8
0
 10
0.0
 20
0.0
 30
0.0
 70
   128
 71
  -569
 72
   570
 73
  -571
  0
VERTEX
  5
648
  8
0
 10
0.0
 20
0.0
 30
0.0
 70
   128
 71
  -569
 72
  -571
 73
   572
  0
VERTEX
  5
649
  8
0
 10
0.0
 20
0.0
 30
0.0
 70
   128
 71
  -572
 72
  -571
 73
   573
  0
VERTEX
  5
64A
  8
0
 10
0.0
 20
0.0
 30
0.0
 70
   128
 71
  -573
 72
   571
 73
  -574
  0
VERTEX
  5
64B
  8
0
 10
0.0
 20
0.0
 30
0.0
 70
   128
 71
  -573
 72
   574
 73
  -575
  0
VERTEX
  5
64C
  8
0
 10
0.0
 20
0.0
 30
0.0
 70
   128
 71
  -573
 72
  -575
 73
   576
  0
VERTEX
  5
64D
  8
0
 10
0.0
 20
0.0
 30
0.0
 70
   128
 71
  -576
 72
  -575
 73
   577
  0
VERTEX
  5
64E
  8
0
 10
0.0
 20
0.0
 30
0.0
 70
   128
 71
  -577
 72
   575
 73
  -578
  0
VERTEX
  5
64F
  8
0
 10
0.0
 20
0.0
 30
0.0
 70
   128
 71
  -577
 72
  -578
 73
   579
  0
VERTEX
  5
650
  8
0
 10
0.0
 20
0.0
 30
0.0
 70
   128
 71
  -579
 72
   578
 73
  -580
  0
VERTEX
  5
651
  8
0
 10
0.0
 20
0.0
 30
0.0
 70
   128
 71
  -579
 72
  -580
 73
   581
  0
VERTEX
  5
652
  8
0
 10
0.0
 20
0.0
 30
0.0
 70
   128
 71
  -581
 72
   580
 73
  -582
  0
VERTEX
  5
653
  8
0
 10
0.0
 20
0.0
 30
0.0
 70
   128
 71
  -581
 72
  -582
 73
   560
  0
VERTEX
  5
654
  8
0
 10
0.0
 20
0.0
 30
0.0
 70
   128
 71
  -560
 72
   582
 73
  -459
  0
VERTEX
  5
655
  8
0
 10
0.0
 20
0.0
 30
0.0
 70
   128
 71
  -536
 72
   583
 73
  -100
  0
VERTEX
  5
656
  8
0
 10
0.0
 20
0.0
 30
0.0
 70
   128
 71
  -583
 72
   536
 73
  -584
  0
VERTEX
  5
657
  8
0
 10
0.0
 20
0.0
 30
0.0
 70
   128
 71
  -583
 72
  -584
 73
   585
  0
VERTEX
  5
658
  8
0
 10
0.0
 20
0.0
 30
0.0
 70
   128
 71
  -585
 72
   584
 73
  -586
  0
VERTEX
  5
659
  8
0
 10
0.0
 20
0.0
 30
0.0
 70
   128
 71
  -585
 72
  -586
 73
   587
  0
VERTEX
  5
65A
  8
0
 10
0.0
 20
0.0
 30
0.0
 70
   128
 71
  -587
 72
   586
 73
  -588
  0
VERTEX
  5
65B
  8
0
 10
0.0
 20
0.0
 30
0.0
 70
   128
 71
  -587
 72
  -588
 73
   589
  0
VERTEX
  5
65C
  8
0
 10
0.0
 20
0.0
 30
0.0
 70
   128
 71
  -589
 72
   588
 73
  -590
  0
VERTEX
  5
65D
  8
0
 10
0.0
 20
0.0
 30
0.0
 70
   128
 71
  -589
 72
  -590
 73
   591
  0
VERTEX
  5
65E
  8
0
 10
0.0
 20
0.0
 30
0.0
 70
   128
 71
  -591
 72
   590
 73
  -592
  0
VERTEX
  5
65F
  8
0
 10
0.0
 20
0.0
 30
0.0
 70
   128
 71
  -591
 72
  -592
 73
   593
  0
VERTEX
  5
660
  8
0
 10
0.0
 20
0.0
 30
0.0
 70
   128
 71
  -593
 72
   592
 73
  -594
  0
VERTEX
  5
661
  8
0
 10
0.0
 20
0.0
 30
0.0
 70
   128
 71
  -593
 72
  -594
 73
   595
  0
VERTEX
  5
662
  8
0
 10
0.0
 20
0.0
 30
0.0
 70
   128
 71
  -595
 72
   594
 73
  -596
  0
VERTEX
  5
663
  8
0
 10
0.0
 20
0.0
 30
0.0
 70
   128
 71
  -595
 72
  -596
 73
   597
  0
VERTEX
  5
664
  8
0
 10
0.0
 20
0.0
 30
0.0
 70
   128
 71
  -597
 72
   596
 73
  -598
  0
VERTEX
  5
665
  8
0
 10
0.0
 20
0.0
 30
0.0
 70
   128
 71
  -597
 72
  -598
 73
   599
  0
VERTEX
  5
666
  8
0
 10
0.0
 20
0.0
 30
0.0
 70
   128
 71
  -599
 72
   598
 73
  -600
  0
VERTEX
  5
667
  8
0
 10
0.0
 20
0.0
 30
0.0
 70
   128
 71
  -599
 72
  -600
 73
   601
  0
VERTEX
  5
668
  8
0
 10
0.0
 20
0.0
 30
0.0
 70
   128
 71
  -601
 72
   600
 73
  -602
  0
VERTEX
  5
669
  8
0
 10
0.0
 20
0.0
 30
0.0
 70
   128
 71
  -601
 72
  -602
 73
   603
  0
VERTEX
  5
66A
  8
0
 10
0.0
 20
0.0
 30
0.0
 70
   128
 71
  -603
 72
   602
 73
  -604
  0
VERTEX
  5
66B
  8
0
 10
0.0
 20
0.0
 30
0.0
 70
   128
 71
  -603
 72
  -604
 73
   157
  0
VERTEX
  5
66C
  8
0
 10
0.0
 20
0.0
 30
0.0
 70
   128
 71
  -157
 72
   604
 73
  -559
  0
VERTEX
  5
66D
  8
0
 10
0.0
 20
0.0
 30
0.0
 70
   128
 71
  -157
 72
  -559
 73
  -560
  0
VERTEX
  5
66E
  8
0
 10
0.0
 20
0.0
 30
0.0
 70
   128
 71
  -157
 72
  -560
 73
  -459
  0
SEQEND
  5
66F
  8
0
  0
ENDSEC
  0
EOF
