  0
SECTION
  2
HEADER
  9
$ACADVER
  1
AC1009
  9
$DWGCODEPAGE
  3
ansi_1252
  9
$INSBASE
 10
0.0
 20
0.0
 30
0.0
  9
$EXTMIN
 10
1.000000000000000E+20
 20
1.000000000000000E+20
 30
1.000000000000000E+20
  9
$EXTMAX
 10
-1.000000000000000E+20
 20
-1.000000000000000E+20
 30
-1.000000000000000E+20
  9
$LIMMIN
 10
0.0
 20
0.0
  9
$LIMMAX
 10
12.0
 20
9.0
  9
$ORTHOMODE
 70
     0
  9
$REGENMODE
 70
     1
  9
$FILLMODE
 70
     1
  9
$QTEXTMODE
 70
     0
  9
$MIRRTEXT
 70
     1
  9
$DRAGMODE
 70
     2
  9
$LTSCALE
 40
1.0
  9
$OSMODE
 70
    37
  9
$ATTMODE
 70
     1
  9
$TEXTSIZE
 40
0.2
  9
$TRACEWID
 40
0.05
  9
$TEXTSTYLE
  7
STANDARD
  9
$CLAYER
  8
0
  9
$CELTYPE
  6
BYLAYER
  9
$CECOLOR
 62
   256
  9
$DIMSCALE
 40
1.0
  9
$DIMASZ
 40
0.18
  9
$DIMEXO
 40
0.0625
  9
$DIMDLI
 40
0.38
  9
$DIMRND
 40
0.0
  9
$DIMDLE
 40
0.0
  9
$DIMEXE
 40
0.18
  9
$DIMTP
 40
0.0
  9
$DIMTM
 40
0.0
  9
$DIMTXT
 40
0.18
  9
$DIMCEN
 40
0.09
  9
$DIMTSZ
 40
0.0
  9
$DIMTOL
 70
     0
  9
$DIMLIM
 70
     0
  9
$DIMTIH
 70
     1
  9
$DIMTOH
 70
     1
  9
$DIMSE1
 70
     0
  9
$DIMSE2
 70
     0
  9
$DIMTAD
 70
     0
  9
$DIMZIN
 70
     0
  9
$DIMBLK
  1

  9
$DIMASO
 70
     1
  9
$DIMSHO
 70
     1
  9
$DIMPOST
  1

  9
$DIMAPOST
  1

  9
$DIMALT
 70
     0
  9
$DIMALTD
 70
     2
  9
$DIMALTF
 40
25.4
  9
$DIMLFAC
 40
1.0
  9
$DIMTOFL
 70
     0
  9
$DIMTVP
 40
0.0
  9
$DIMTIX
 70
     0
  9
$DIMSOXD
 70
     0
  9
$DIMSAH
 70
     0
  9
$DIMBLK1
  1

  9
$DIMBLK2
  1

  9
$DIMSTYLE
  2
STANDARD
  9
$DIMCLRD
 70
     0
  9
$DIMCLRE
 70
     0
  9
$DIMCLRT
 70
     0
  9
$DIMTFAC
 40
1.0
  9
$DIMGAP
 40
0.09
  9
$LUNITS
 70
     2
  9
$LUPREC
 70
     4
  9
$SKETCHINC
 40
0.1
  9
$FILLETRAD
 40
0.5
  9
$AUNITS
 70
     0
  9
$AUPREC
 70
     0
  9
$MENU
  1
.
  9
$ELEVATION
 40
0.0
  9
$PELEVATION
 40
0.0
  9
$THICKNESS
 40
0.0
  9
$LIMCHECK
 70
     0
  9
$CHAMFERA
 40
0.5
  9
$CHAMFERB
 40
0.5
  9
$SKPOLY
 70
     0
  9
$TDCREATE
 40
2456714.536968484
  9
$TDUPDATE
 40
2456714.536968495
  9
$TDINDWG
 40
0.0000000116
  9
$TDUSRTIMER
 40
0.0000000116
  9
$USRTIMER
 70
     1
  9
$ANGBASE
 50
0.0
  9
$ANGDIR
 70
     0
  9
$PDMODE
 70
     0
  9
$PDSIZE
 40
0.0
  9
$PLINEWID
 40
0.0
  9
$COORDS
 70
     1
  9
$SPLFRAME
 70
     0
  9
$SPLINETYPE
 70
     6
  9
$SPLINESEGS
 70
     8
  9
$ATTDIA
 70
     0
  9
$ATTREQ
 70
     1
  9
$HANDLING
 70
     1
  9
$HANDSEED
  5
65B
  9
$SURFTAB1
 70
     6
  9
$SURFTAB2
 70
     6
  9
$SURFTYPE
 70
     6
  9
$SURFU
 70
     6
  9
$SURFV
 70
     6
  9
$UCSNAME
  2

  9
$UCSORG
 10
0.0
 20
0.0
 30
0.0
  9
$UCSXDIR
 10
1.0
 20
0.0
 30
0.0
  9
$UCSYDIR
 10
0.0
 20
1.0
 30
0.0
  9
$PUCSNAME
  2

  9
$PUCSORG
 10
0.0
 20
0.0
 30
0.0
  9
$PUCSXDIR
 10
1.0
 20
0.0
 30
0.0
  9
$PUCSYDIR
 10
0.0
 20
1.0
 30
0.0
  9
$USERI1
 70
     0
  9
$USERI2
 70
     0
  9
$USERI3
 70
     0
  9
$USERI4
 70
     0
  9
$USERI5
 70
     0
  9
$USERR1
 40
0.0
  9
$USERR2
 40
0.0
  9
$USERR3
 40
0.0
  9
$USERR4
 40
0.0
  9
$USERR5
 40
0.0
  9
$WORLDVIEW
 70
     1
  9
$SHADEDGE
 70
     3
  9
$SHADEDIF
 70
    70
  9
$TILEMODE
 70
     1
  9
$MAXACTVP
 70
    64
  9
$PLIMCHECK
 70
     0
  9
$PEXTMIN
 10
1.000000000000000E+20
 20
1.000000000000000E+20
 30
1.000000000000000E+20
  9
$PEXTMAX
 10
-1.000000000000000E+20
 20
-1.000000000000000E+20
 30
-1.000000000000000E+20
  9
$PLIMMIN
 10
0.0
 20
0.0
  9
$PLIMMAX
 10
12.0
 20
9.0
  9
$UNITMODE
 70
     0
  9
$VISRETAIN
 70
     1
  9
$PLINEGEN
 70
     0
  9
$PSLTSCALE
 70
     1
  0
ENDSEC
  0
SECTION
  2
TABLES
  0
TABLE
  2
VPORT
 70
     1
  0
VPORT
  2
*ACTIVE
 70
     0
 10
0.0
 20
0.0
 11
1.0
 21
1.0
 12
0.0
 22
0.0
 13
0.0
 23
0.0
 14
0.5
 24
0.5
 15
0.5
 25
0.5
 16
360.7178233066797
 26
-11.62105871070661
 36
21.72119685424912
 17
74.41079184586039
 27
76.06124597514633
 37
-19.70248032086189
 40
3378.2
 41
1.3333
 42
50.0
 43
-336.1580277762448
 44
25038.44197222375
 50
0.0
 51
0.0
 71
     0
 72
   100
 73
     1
 74
     3
 75
     0
 76
     0
 77
     0
 78
     0
  0
ENDTAB
  0
TABLE
  2
LTYPE
 70
     1
  0
LTYPE
  2
CONTINUOUS
 70
     0
  3
Solid line
 72
    65
 73
     0
 40
0.0
  0
ENDTAB
  0
TABLE
  2
LAYER
 70
     1
  0
LAYER
  2
0
 70
     0
 62
    13
  6
CONTINUOUS
  0
ENDTAB
  0
TABLE
  2
STYLE
 70
     2
  0
STYLE
  2
STANDARD
 70
     0
 40
0.0
 41
1.0
 50
0.0
 71
     0
 42
0.2
  3
txt
  4

  0
STYLE
  2
TAHOMA
 70
     0
 40
0.0
 41
1.0
 50
0.0
 71
     0
 42
0.2
  3
Tahoma
  4

  0
ENDTAB
  0
TABLE
  2
VIEW
 70
     0
  0
ENDTAB
  0
TABLE
  2
UCS
 70
     0
  0
ENDTAB
  0
TABLE
  2
APPID
 70
     1
  0
APPID
  2
ACAD
 70
     0
  0
ENDTAB
  0
TABLE
  2
DIMSTYLE
 70
     1
  0
DIMSTYLE
  2
STANDARD
 70
     0
  3

  4

  5

  6

  7

 40
1.0
 41
0.18
 42
0.0625
 43
0.38
 44
0.18
 45
0.0
 46
0.0
 47
0.0
 48
0.0
140
0.18
141
0.09
142
0.0
143
25.4
144
1.0
145
0.0
146
1.0
147
0.09
 71
     0
 72
     0
 73
     1
 74
     1
 75
     0
 76
     0
 77
     0
 78
     0
170
     0
171
     2
172
     0
173
     0
174
     0
175
     0
176
     0
177
     0
178
     0
  0
ENDTAB
  0
ENDSEC
  0
SECTION
  2
BLOCKS
  0
BLOCK
  8
0
  2
$MODEL_SPACE
 70
     0
 10
0.0
 20
0.0
 30
0.0
  3
$MODEL_SPACE
  1

  0
ENDBLK
  5
21
  8
0
  0
BLOCK
 67
     1
  8
0
  2
$PAPER_SPACE
 70
     0
 10
0.0
 20
0.0
 30
0.0
  3
$PAPER_SPACE
  1

  0
ENDBLK
  5
1D
 67
     1
  8
0
  0
ENDSEC
  0
SECTION
  2
ENTITIES
  0
LINE
  5
40
  8
0
 10
96.50000000000003
 20
64.89999999999999
 30
3.0
 11
86.50000000000003
 21
64.89999999999999
 31
3.0
  0
LINE
  5
41
  8
0
 10
111.46
 20
60.1
 30
3.0
 11
111.46
 21
50.1
 31
3.0
  0
LINE
  5
42
  8
0
 10
131.38
 20
60.1
 30
3.0
 11
131.38
 21
50.1
 31
3.0
  0
LINE
  5
43
  8
0
 10
141.38
 20
89.7
 30
3.0
 11
131.38
 21
89.7
 31
3.0
  0
CIRCLE
  5
44
  8
0
 10
-10.67249344728161
 20
55.1
 30
-3.0
 40
5.000000000000003
210
0.0
220
0.0
230
-1.0
  0
LINE
  5
45
  8
0
 10
101.46
 20
64.89999999999999
 30
3.0
 11
111.46
 21
64.89999999999999
 31
3.0
  0
LINE
  5
46
  8
0
 10
90.79359848919327
 20
29.8
 30
3.0
 11
90.79359848919327
 21
19.80000000000001
 31
3.0
  0
LINE
  5
47
  8
0
 10
131.38
 20
89.7
 30
3.0
 11
131.38
 21
79.7
 31
3.0
  0
CIRCLE
  5
48
  8
0
 10
27.48000000000003
 20
40.3
 30
3.0
 40
5.000000000000002
  0
LINE
  5
49
  8
0
 10
47.5
 20
104.5
 30
3.0
 11
57.49999999999999
 21
104.5
 31
3.0
  0
LINE
  5
4A
  8
0
 10
57.49999999999999
 20
104.5
 30
3.0
 11
57.49999999999999
 21
94.50000000000001
 31
3.0
  0
LINE
  5
4B
  8
0
 10
70.87359848919327
 20
29.80000000000001
 30
3.0
 11
60.87359848919327
 21
29.80000000000001
 31
3.0
  0
LINE
  5
4C
  8
0
 10
95.49999999999999
 20
94.50000000000001
 30
3.0
 11
95.49999999999999
 21
104.5
 31
3.0
  0
LINE
  5
4D
  8
0
 10
85.83359848919328
 20
19.80000000000001
 30
3.0
 11
85.83359848919328
 21
29.80000000000001
 31
3.0
  0
LINE
  5
4E
  8
0
 10
105.5
 20
94.50000000000001
 30
3.0
 11
95.49999999999999
 21
94.50000000000001
 31
3.0
  0
CIRCLE
  5
4F
  8
0
 10
-27.99999999999999
 20
117.0
 30
-3.000000000000014
 40
3.499999999999999
210
2.510184708510021E-31
220
-2.510184708510016E-31
230
-1.0
  0
CIRCLE
  5
50
  8
0
 10
-119.05
 20
117.0
 30
-3.000000000000006
 40
3.500000000000003
210
2.636858894600742E-31
220
-2.601153444976065E-31
230
-1.0
  0
LINE
  5
51
  8
0
 10
95.49999999999999
 20
104.5
 30
3.0
 11
105.5
 21
104.5
 31
3.0
  0
LINE
  5
52
  8
0
 10
57.49999999999999
 20
94.50000000000001
 30
3.0
 11
47.5
 21
94.50000000000001
 31
3.0
  0
LINE
  5
53
  8
0
 10
60.87359848919327
 20
29.80000000000001
 30
3.0
 11
60.87359848919328
 21
19.80000000000001
 31
3.0
  0
LINE
  5
54
  8
0
 10
111.46
 20
50.1
 30
3.0
 11
101.46
 21
50.1
 31
3.0
  0
LINE
  5
55
  8
0
 10
105.7535984891933
 20
19.80000000000001
 30
3.0
 11
115.7535984891933
 21
19.80000000000001
 31
3.0
  0
CIRCLE
  5
56
  8
0
 10
-44.24721089438727
 20
69.89999999999999
 30
-3.0
 40
4.999999999999998
210
-3.692197841361553E-32
220
-6.395074252834360E-32
230
-1.0
  0
LINE
  5
57
  8
0
 10
131.38
 20
50.1
 30
3.0
 11
141.38
 21
50.1
 31
3.0
  0
LINE
  5
58
  8
0
 10
101.46
 20
74.89999999999999
 30
3.0
 11
111.46
 21
74.89999999999999
 31
3.0
  0
LINE
  5
59
  8
0
 10
101.46
 20
50.1
 30
3.0
 11
101.46
 21
60.1
 31
3.0
  0
LINE
  5
5A
  8
0
 10
56.58000000000002
 20
45.3
 30
3.0
 11
56.58000000000002
 21
35.3
 31
3.0
  0
LINE
  5
5B
  8
0
 10
111.46
 20
64.89999999999999
 30
3.0
 11
111.46
 21
74.89999999999999
 31
3.0
  0
LINE
  5
5C
  8
0
 10
66.58000000000003
 20
60.1
 30
3.0
 11
56.58000000000002
 21
60.1
 31
3.0
  0
LINE
  5
5D
  8
0
 10
96.50000000000003
 20
74.89999999999999
 30
3.0
 11
86.50000000000003
 21
74.89999999999999
 31
3.0
  0
LINE
  5
5E
  8
0
 10
141.38
 20
50.1
 30
3.0
 11
141.38
 21
60.1
 31
3.0
  0
LINE
  5
5F
  8
0
 10
126.42
 20
60.1
 30
3.0
 11
126.42
 21
50.1
 31
3.0
  0
LINE
  5
60
  8
0
 10
86.50000000000003
 20
50.1
 30
3.0
 11
86.50000000000003
 21
60.1
 31
3.0
  0
LINE
  5
61
  8
0
 10
126.42
 20
79.7
 30
3.0
 11
116.42
 21
79.7
 31
3.0
  0
LINE
  5
62
  8
0
 10
101.46
 20
74.89999999999999
 30
3.0
 11
101.46
 21
64.89999999999999
 31
3.0
  0
LINE
  5
63
  8
0
 10
115.7535984891933
 20
29.80000000000001
 30
3.0
 11
105.7535984891933
 21
29.80000000000001
 31
3.0
  0
LINE
  5
64
  8
0
 10
96.50000000000003
 20
50.1
 30
3.0
 11
86.50000000000003
 21
50.1
 31
3.0
  0
LINE
  5
65
  8
0
 10
105.7535984891933
 20
29.80000000000001
 30
3.0
 11
105.7535984891933
 21
19.80000000000001
 31
3.0
  0
CIRCLE
  5
66
  8
0
 10
-138.05
 20
25.0
 30
-3.0
 40
3.5
210
-2.450997711417776E-32
220
4.245252565410630E-32
230
-1.0
  0
LINE
  5
67
  8
0
 10
116.42
 20
74.89999999999999
 30
3.0
 11
116.42
 21
64.89999999999999
 31
3.0
  0
LINE
  5
68
  8
0
 10
126.42
 20
74.89999999999999
 30
3.0
 11
116.42
 21
74.89999999999999
 31
3.0
  0
LINE
  5
69
  8
0
 10
96.50000000000003
 20
60.1
 30
3.0
 11
86.50000000000003
 21
60.1
 31
3.0
  0
LINE
  5
6A
  8
0
 10
96.50000000000003
 20
60.1
 30
3.0
 11
96.50000000000003
 21
50.1
 31
3.0
  0
LINE
  5
6B
  8
0
 10
66.58000000000003
 20
74.89999999999999
 30
3.0
 11
56.58000000000002
 21
74.89999999999999
 31
3.0
  0
LINE
  5
6C
  8
0
 10
111.46
 20
60.1
 30
3.0
 11
101.46
 21
60.1
 31
3.0
  0
LINE
  5
6D
  8
0
 10
71.54000000000002
 20
50.1
 30
3.0
 11
81.54000000000002
 21
50.1
 31
3.0
  0
LINE
  5
6E
  8
0
 10
86.50000000000003
 20
64.89999999999999
 30
3.0
 11
86.50000000000003
 21
74.89999999999999
 31
3.0
  0
LINE
  5
6F
  8
0
 10
66.58000000000003
 20
64.89999999999999
 30
3.0
 11
66.58000000000003
 21
74.89999999999999
 31
3.0
  0
LINE
  5
70
  8
0
 10
101.46
 20
79.7
 30
3.0
 11
111.46
 21
79.7
 31
3.0
  0
LINE
  5
71
  8
0
 10
116.42
 20
89.7
 30
3.0
 11
126.42
 21
89.7
 31
3.0
  0
LINE
  5
72
  8
0
 10
71.54000000000002
 20
45.3
 30
3.0
 11
71.54000000000002
 21
35.3
 31
3.0
  0
LINE
  5
73
  8
0
 10
141.38
 20
64.89999999999999
 30
3.0
 11
141.38
 21
74.89999999999999
 31
3.0
  0
LINE
  5
74
  8
0
 10
56.58000000000002
 20
74.89999999999999
 30
3.0
 11
56.58000000000002
 21
64.89999999999999
 31
3.0
  0
LINE
  5
75
  8
0
 10
126.42
 20
64.89999999999999
 30
3.0
 11
126.42
 21
74.89999999999999
 31
3.0
  0
LINE
  5
76
  8
0
 10
111.46
 20
79.7
 30
3.0
 11
111.46
 21
89.7
 31
3.0
  0
LINE
  5
77
  8
0
 10
66.58000000000003
 20
79.7
 30
3.0
 11
56.58000000000002
 21
79.7
 31
3.0
  0
LINE
  5
78
  8
0
 10
71.54000000000002
 20
60.1
 30
3.0
 11
71.54000000000002
 21
50.1
 31
3.0
  0
LINE
  5
79
  8
0
 10
131.38
 20
64.89999999999999
 30
3.0
 11
141.38
 21
64.89999999999999
 31
3.0
  0
LINE
  5
7A
  8
0
 10
131.38
 20
74.89999999999999
 30
3.0
 11
131.38
 21
64.89999999999999
 31
3.0
  0
LINE
  5
7B
  8
0
 10
81.44000000000003
 20
35.3
 30
3.0
 11
81.44000000000003
 21
45.3
 31
3.0
  0
LINE
  5
7C
  8
0
 10
126.42
 20
60.1
 30
3.0
 11
116.42
 21
60.1
 31
3.0
  0
LINE
  5
7D
  8
0
 10
116.42
 20
64.89999999999999
 30
3.0
 11
126.42
 21
64.89999999999999
 31
3.0
  0
LINE
  5
7E
  8
0
 10
116.42
 20
50.1
 30
3.0
 11
116.42
 21
60.1
 31
3.0
  0
LINE
  5
7F
  8
0
 10
141.38
 20
74.89999999999999
 30
3.0
 11
131.38
 21
74.89999999999999
 31
3.0
  0
LINE
  5
80
  8
0
 10
111.46
 20
89.7
 30
3.0
 11
101.46
 21
89.7
 31
3.0
  0
LINE
  5
81
  8
0
 10
141.38
 20
60.1
 30
3.0
 11
131.38
 21
60.1
 31
3.0
  0
LINE
  5
82
  8
0
 10
126.42
 20
50.1
 30
3.0
 11
116.42
 21
50.1
 31
3.0
  0
LINE
  5
83
  8
0
 10
81.54000000000002
 20
50.1
 30
3.0
 11
81.54000000000002
 21
60.1
 31
3.0
  0
LINE
  5
84
  8
0
 10
101.46
 20
89.7
 30
3.0
 11
101.46
 21
79.7
 31
3.0
  0
LINE
  5
85
  8
0
 10
66.58000000000003
 20
50.1
 30
3.0
 11
66.58000000000003
 21
60.1
 31
3.0
  0
CIRCLE
  5
86
  8
0
 10
-9.0
 20
25.0
 30
-3.000000000000006
 40
3.499999999999999
210
6.619565635539699E-32
220
-3.966367126670031E-31
230
-1.0
  0
LINE
  5
87
  8
0
 10
25.49999999999999
 20
94.50000000000001
 30
3.0
 11
15.5
 21
94.50000000000001
 31
3.0
  0
LINE
  5
88
  8
0
 10
63.5
 20
94.50000000000001
 30
3.0
 11
63.5
 21
104.5
 31
3.0
  0
LINE
  5
89
  8
0
 10
25.49999999999999
 20
104.5
 30
3.0
 11
25.49999999999999
 21
94.50000000000001
 31
3.0
  0
LINE
  5
8A
  8
0
 10
41.5
 20
94.50000000000001
 30
3.0
 11
31.5
 21
94.50000000000001
 31
3.0
  0
LINE
  5
8B
  8
0
 10
31.5
 20
104.5
 30
3.0
 11
41.5
 21
104.5
 31
3.0
  0
LINE
  5
8C
  8
0
 10
63.5
 20
104.5
 30
3.0
 11
73.5
 21
104.5
 31
3.0
  0
LINE
  5
8D
  8
0
 10
73.5
 20
104.5
 30
3.0
 11
73.5
 21
94.50000000000001
 31
3.0
  0
LINE
  5
8E
  8
0
 10
41.5
 20
104.5
 30
3.0
 11
41.5
 21
94.50000000000001
 31
3.0
  0
LINE
  5
8F
  8
0
 10
47.5
 20
94.50000000000001
 30
3.0
 11
47.5
 21
104.5
 31
3.0
  0
LINE
  5
90
  8
0
 10
31.5
 20
94.50000000000001
 30
3.0
 11
31.5
 21
104.5
 31
3.0
  0
LINE
  5
91
  8
0
 10
73.5
 20
94.50000000000001
 30
3.0
 11
63.5
 21
94.50000000000001
 31
3.0
  0
LINE
  5
92
  8
0
 10
55.91359848919328
 20
19.80000000000001
 30
3.0
 11
55.91359848919328
 21
29.80000000000001
 31
3.0
  0
LINE
  5
93
  8
0
 10
110.2393468449602
 20
94.50000000000001
 30
3.0
 11
131.7393468449602
 21
94.50000000000001
 31
3.0
  0
LINE
  5
94
  8
0
 10
45.91359848919327
 20
29.80000000000001
 30
3.0
 11
45.91359848919327
 21
19.80000000000001
 31
3.0
  0
LINE
  5
95
  8
0
 10
105.5
 20
104.5
 30
3.0
 11
105.5
 21
94.50000000000001
 31
3.0
  0
LINE
  5
96
  8
0
 10
45.91359848919327
 20
19.80000000000001
 30
3.0
 11
55.91359848919328
 21
19.80000000000001
 31
3.0
  0
LINE
  5
97
  8
0
 10
55.91359848919328
 20
29.80000000000001
 30
3.0
 11
45.91359848919327
 21
29.80000000000001
 31
3.0
  0
LINE
  5
98
  8
0
 10
131.7393468449602
 20
104.5
 30
3.0
 11
131.7393468449602
 21
94.50000000000001
 31
3.0
  0
LINE
  5
99
  8
0
 10
70.87359848919327
 20
19.80000000000001
 30
3.0
 11
70.87359848919327
 21
29.80000000000001
 31
3.0
  0
LINE
  5
9A
  8
0
 10
79.49999999999999
 20
104.5
 30
3.0
 11
89.5
 21
104.5
 31
3.0
  0
LINE
  5
9B
  8
0
 10
85.83359848919328
 20
29.80000000000001
 30
3.0
 11
75.83359848919326
 21
29.80000000000001
 31
3.0
  0
LINE
  5
9C
  8
0
 10
15.99359848919328
 20
5.900000000000004
 30
3.0
 11
25.99359848919327
 21
5.900000000000004
 31
3.0
  0
LINE
  5
9D
  8
0
 10
75.83359848919326
 20
29.80000000000001
 30
3.0
 11
75.83359848919326
 21
19.80000000000001
 31
3.0
  0
LINE
  5
9E
  8
0
 10
49.27
 20
35.3
 30
3.0
 11
39.27
 21
35.3
 31
3.0
  0
LINE
  5
9F
  8
0
 10
49.27
 20
45.3
 30
3.0
 11
49.27
 21
35.3
 31
3.0
  0
LINE
  5
A0
  8
0
 10
110.2393468449602
 20
104.5
 30
3.0
 11
110.2393468449602
 21
94.50000000000001
 31
3.0
  0
LINE
  5
A1
  8
0
 10
38.92405104558238
 20
4.840000000000008
 30
3.0
 11
48.92405104558237
 21
4.840000000000008
 31
3.0
  0
LINE
  5
A2
  8
0
 10
122.3115397359717
 20
29.80000000000001
 30
3.0
 11
122.3115397359717
 21
4.840000000000008
 31
3.0
  0
LINE
  5
A3
  8
0
 10
15.99359848919328
 20
29.8
 30
3.0
 11
15.99359848919328
 21
5.900000000000004
 31
3.0
  0
LINE
  5
A4
  8
0
 10
48.92405104558237
 20
4.840000000000008
 30
3.0
 11
48.92405104558237
 21
14.84000000000001
 31
3.0
  0
LINE
  5
A5
  8
0
 10
40.95359848919328
 20
19.80000000000001
 30
3.0
 11
30.95359848919327
 21
19.80000000000001
 31
3.0
  0
LINE
  5
A6
  8
0
 10
89.5
 20
94.50000000000001
 30
3.0
 11
79.49999999999999
 21
94.50000000000001
 31
3.0
  0
LINE
  5
A7
  8
0
 10
105.7535984891933
 20
14.84000000000001
 30
3.0
 11
115.6535984891933
 21
14.84000000000001
 31
3.0
  0
LINE
  5
A8
  8
0
 10
15.5
 20
104.5
 30
3.0
 11
15.5
 21
94.50000000000001
 31
3.0
  0
LINE
  5
A9
  8
0
 10
25.49999999999999
 20
104.5
 30
3.0
 11
15.5
 21
104.5
 31
3.0
  0
LINE
  5
AA
  8
0
 10
79.49999999999999
 20
94.50000000000001
 30
3.0
 11
79.49999999999999
 21
104.5
 31
3.0
  0
LINE
  5
AB
  8
0
 10
75.83359848919326
 20
19.80000000000001
 30
3.0
 11
85.83359848919328
 21
19.80000000000001
 31
3.0
  0
LINE
  5
AC
  8
0
 10
110.2393468449602
 20
104.5
 30
3.0
 11
131.7393468449602
 21
104.5
 31
3.0
  0
LINE
  5
AD
  8
0
 10
89.5
 20
104.5
 30
3.0
 11
89.5
 21
94.50000000000001
 31
3.0
  0
LINE
  5
AE
  8
0
 10
60.87359848919328
 20
19.80000000000001
 30
3.0
 11
70.87359848919327
 21
19.80000000000001
 31
3.0
  0
LINE
  5
AF
  8
0
 10
56.58000000000002
 20
60.1
 30
3.0
 11
56.58000000000002
 21
50.1
 31
3.0
  0
LINE
  5
B0
  8
0
 10
86.50000000000003
 20
89.7
 30
3.0
 11
86.50000000000003
 21
79.7
 31
3.0
  0
LINE
  5
B1
  8
0
 10
56.58000000000002
 20
50.1
 30
3.0
 11
66.58000000000003
 21
50.1
 31
3.0
  0
CIRCLE
  5
B2
  8
0
 10
-44.24721089438727
 20
84.7
 30
-3.0
 40
5.000000000000006
210
0.0
220
0.0
230
-1.0
  0
CIRCLE
  5
B3
  8
0
 10
-10.67249344728161
 20
84.7
 30
-3.0
 40
4.999999999999997
210
0.0
220
0.0
230
-1.0
  0
LINE
  5
B4
  8
0
 10
123.05
 20
162.3
 30
3.0
 11
132.05
 21
162.3
 31
3.0
  0
LINE
  5
B5
  8
0
 10
56.58000000000002
 20
89.7
 30
3.0
 11
66.58000000000003
 21
89.7
 31
3.0
  0
LINE
  5
B6
  8
0
 10
81.54000000000002
 20
79.7
 30
3.0
 11
71.54000000000002
 21
79.7
 31
3.0
  0
LINE
  5
B7
  8
0
 10
24.49359848919327
 20
167.3
 30
3.0
 11
24.49359848919327
 21
161.3
 31
3.0
  0
LINE
  5
B8
  8
0
 10
96.50000000000003
 20
79.7
 30
3.0
 11
96.50000000000003
 21
89.7
 31
3.0
  0
LINE
  5
B9
  8
0
 10
81.74000000000002
 20
64.89999999999999
 30
3.0
 11
81.74000000000002
 21
74.89999999999999
 31
3.0
  0
LINE
  5
BA
  8
0
 10
81.74000000000002
 20
74.89999999999999
 30
3.0
 11
71.54000000000002
 21
74.89999999999999
 31
3.0
  0
LINE
  5
BB
  8
0
 10
86.50000000000003
 20
79.7
 30
3.0
 11
96.50000000000003
 21
79.7
 31
3.0
  0
LINE
  5
BC
  8
0
 10
96.50000000000003
 20
74.89999999999999
 30
3.0
 11
96.50000000000003
 21
64.89999999999999
 31
3.0
  0
LINE
  5
BD
  8
0
 10
56.58000000000002
 20
64.89999999999999
 30
3.0
 11
66.58000000000003
 21
64.89999999999999
 31
3.0
  0
LINE
  5
BE
  8
0
 10
66.58000000000003
 20
89.7
 30
3.0
 11
66.58000000000003
 21
79.7
 31
3.0
  0
LINE
  5
BF
  8
0
 10
71.54000000000002
 20
79.7
 30
3.0
 11
71.54000000000002
 21
89.7
 31
3.0
  0
LINE
  5
C0
  8
0
 10
81.44000000000003
 20
45.3
 30
3.0
 11
71.54000000000002
 21
45.3
 31
3.0
  0
LINE
  5
C1
  8
0
 10
96.50000000000003
 20
89.7
 30
3.0
 11
86.50000000000003
 21
89.7
 31
3.0
  0
LINE
  5
C2
  8
0
 10
81.54000000000002
 20
89.7
 30
3.0
 11
81.54000000000002
 21
79.7
 31
3.0
  0
LINE
  5
C3
  8
0
 10
81.54000000000002
 20
89.7
 30
3.0
 11
71.54000000000002
 21
89.7
 31
3.0
  0
CIRCLE
  5
C4
  8
0
 10
-10.67249344728161
 20
69.89999999999999
 30
-3.0
 40
5.000000000000001
210
0.0
220
0.0
230
-1.0
  0
LINE
  5
C5
  8
0
 10
112.0249999999999
 20
176.4889037387594
 30
3.0
 11
35.02500000000001
 21
176.4889037387594
 31
3.0
  0
LINE
  5
C6
  8
0
 10
81.54000000000002
 20
60.1
 30
3.0
 11
71.54000000000002
 21
60.1
 31
3.0
  0
LINE
  5
C7
  8
0
 10
90.79359848919327
 20
19.80000000000001
 30
3.0
 11
100.7935984891933
 21
19.80000000000001
 31
3.0
  0
CIRCLE
  5
C8
  8
0
 10
-44.21614843959873
 20
55.1
 30
-3.0
 40
5.000000000000001
210
0.0
220
0.0
230
-1.0
  0
LINE
  5
C9
  8
0
 10
126.42
 20
89.7
 30
3.0
 11
126.42
 21
79.7
 31
3.0
  0
LINE
  5
CA
  8
0
 10
100.7935984891933
 20
19.80000000000001
 30
3.0
 11
100.7935984891933
 21
29.8
 31
3.0
  0
LINE
  5
CB
  8
0
 10
100.7935984891933
 20
29.8
 30
3.0
 11
90.79359848919327
 21
29.8
 31
3.0
  0
LINE
  5
CC
  8
0
 10
131.38
 20
79.7
 30
3.0
 11
141.38
 21
79.7
 31
3.0
  0
LINE
  5
CD
  8
0
 10
141.38
 20
89.7
 30
3.0
 11
141.38
 21
79.7
 31
3.0
  0
LINE
  5
CE
  8
0
 10
116.42
 20
79.7
 30
3.0
 11
116.42
 21
89.7
 31
3.0
  0
LINE
  5
CF
  8
0
 10
56.58000000000002
 20
35.3
 30
3.0
 11
66.58000000000003
 21
35.3
 31
3.0
  0
LINE
  5
D0
  8
0
 10
66.58000000000003
 20
45.3
 30
3.0
 11
56.58000000000002
 21
45.3
 31
3.0
  0
LINE
  5
D1
  8
0
 10
115.7535984891933
 20
19.80000000000001
 30
3.0
 11
115.7535984891933
 21
29.80000000000001
 31
3.0
  0
CIRCLE
  5
D2
  8
0
 10
-27.48000000000003
 20
55.09999999999999
 30
-3.0
 40
4.999999999999998
210
0.0
220
0.0
230
-1.0
  0
LINE
  5
D3
  8
0
 10
66.58000000000003
 20
35.3
 30
3.0
 11
66.58000000000003
 21
45.3
 31
3.0
  0
LINE
  5
D4
  8
0
 10
116.42
 20
45.3
 30
3.0
 11
116.42
 21
35.3
 31
3.0
  0
LINE
  5
D5
  8
0
 10
16.07
 20
45.3
 30
3.0
 11
16.07
 21
35.3
 31
3.0
  0
LINE
  5
D6
  8
0
 10
90.79359848919327
 20
14.84000000000001
 30
3.0
 11
100.7935984891933
 21
14.84000000000001
 31
3.0
  0
LINE
  5
D7
  8
0
 10
90.79359848919327
 20
4.840000000000008
 30
3.0
 11
90.79359848919327
 21
14.84000000000001
 31
3.0
  0
LINE
  5
D8
  8
0
 10
40.95359848919328
 20
29.80000000000001
 30
3.0
 11
40.95359848919328
 21
19.80000000000001
 31
3.0
  0
LINE
  5
D9
  8
0
 10
39.27
 20
35.3
 30
3.0
 11
39.27
 21
45.3
 31
3.0
  0
LINE
  5
DA
  8
0
 10
61.02692907775384
 20
4.840000000000008
 30
3.0
 11
61.02692907775384
 21
14.84000000000001
 31
3.0
  0
LINE
  5
DB
  8
0
 10
123.05
 20
137.1
 30
3.0
 11
132.05
 21
137.1
 31
3.0
  0
LINE
  5
DC
  8
0
 10
105.7535984891933
 20
4.940000000000005
 30
3.0
 11
105.7535984891933
 21
14.84000000000001
 31
3.0
  0
LINE
  5
DD
  8
0
 10
24.49359848919327
 20
155.2
 30
3.0
 11
24.49359848919327
 21
149.2
 31
3.0
  0
LINE
  5
DE
  8
0
 10
30.95359848919327
 20
19.80000000000001
 30
3.0
 11
30.95359848919327
 21
29.80000000000001
 31
3.0
  0
LINE
  5
DF
  8
0
 10
24.49359848919327
 20
149.2
 30
3.0
 11
15.5
 21
149.2
 31
3.0
  0
LINE
  5
E0
  8
0
 10
132.3115397359717
 20
29.80000000000001
 30
3.0
 11
132.3115397359717
 21
4.840000000000008
 31
3.0
  0
LINE
  5
E1
  8
0
 10
115.6535984891933
 20
4.940000000000005
 30
3.0
 11
105.7535984891933
 21
4.940000000000005
 31
3.0
  0
LINE
  5
E2
  8
0
 10
100.7935984891933
 20
14.84000000000001
 30
3.0
 11
100.7935984891933
 21
4.840000000000008
 31
3.0
  0
LINE
  5
E3
  8
0
 10
38.92405104558238
 20
14.84000000000001
 30
3.0
 11
38.92405104558238
 21
4.840000000000008
 31
3.0
  0
LINE
  5
E4
  8
0
 10
25.99359848919327
 20
29.8
 30
3.0
 11
15.99359848919328
 21
29.8
 31
3.0
  0
LINE
  5
E5
  8
0
 10
100.7935984891933
 20
4.840000000000008
 30
3.0
 11
90.79359848919327
 21
4.840000000000008
 31
3.0
  0
LINE
  5
E6
  8
0
 10
25.99359848919327
 20
5.900000000000004
 30
3.0
 11
25.99359848919327
 21
29.8
 31
3.0
  0
LINE
  5
E7
  8
0
 10
115.6535984891933
 20
14.84000000000001
 30
3.0
 11
115.6535984891933
 21
4.940000000000005
 31
3.0
  0
LINE
  5
E8
  8
0
 10
61.02692907775384
 20
14.84000000000001
 30
3.0
 11
84.02692907775385
 21
14.84000000000001
 31
3.0
  0
LINE
  5
E9
  8
0
 10
5.670000000000001
 20
45.3
 30
3.0
 11
16.07
 21
45.3
 31
3.0
  0
LINE
  5
EA
  8
0
 10
84.02692907775385
 20
14.84000000000001
 30
3.0
 11
84.02692907775385
 21
4.840000000000008
 31
3.0
  0
LINE
  5
EB
  8
0
 10
15.5
 20
137.1
 30
3.0
 11
15.5
 21
143.1
 31
3.0
  0
LINE
  5
EC
  8
0
 10
132.05
 20
125.0
 30
3.0
 11
132.05
 21
131.0
 31
3.0
  0
LINE
  5
ED
  8
0
 10
38.92405104558238
 20
14.84000000000001
 30
3.0
 11
48.92405104558237
 21
14.84000000000001
 31
3.0
  0
LINE
  5
EE
  8
0
 10
39.27
 20
45.3
 30
3.0
 11
49.27
 21
45.3
 31
3.0
  0
LINE
  5
EF
  8
0
 10
84.02692907775385
 20
4.840000000000008
 30
3.0
 11
61.02692907775384
 21
4.840000000000008
 31
3.0
  0
LINE
  5
F0
  8
0
 10
24.49359848919327
 20
131.0124515137408
 30
3.0
 11
15.5
 21
131.0124515137408
 31
3.0
  0
LINE
  5
F1
  8
0
 10
5.670000000000001
 20
35.3
 30
3.0
 11
5.670000000000001
 21
45.3
 31
3.0
  0
LINE
  5
F2
  8
0
 10
86.50000000000003
 20
35.3
 30
3.0
 11
96.50000000000003
 21
35.3
 31
3.0
  0
LINE
  5
F3
  8
0
 10
16.07
 20
35.3
 30
3.0
 11
5.670000000000001
 21
35.3
 31
3.0
  0
LINE
  5
F4
  8
0
 10
71.54000000000002
 20
35.3
 30
3.0
 11
81.44000000000003
 21
35.3
 31
3.0
  0
LINE
  5
F5
  8
0
 10
116.42
 20
35.3
 30
3.0
 11
126.42
 21
35.3
 31
3.0
  0
LINE
  5
F6
  8
0
 10
15.5
 20
125.0
 30
3.0
 11
24.49359848919327
 21
125.0
 31
3.0
  0
LINE
  5
F7
  8
0
 10
24.49359848919327
 20
143.1
 30
3.0
 11
24.49359848919327
 21
137.1
 31
3.0
  0
LINE
  5
F8
  8
0
 10
101.46
 20
45.3
 30
3.0
 11
101.46
 21
35.3
 31
3.0
  0
LINE
  5
F9
  8
0
 10
126.42
 20
35.3
 30
3.0
 11
126.42
 21
45.3
 31
3.0
  0
LINE
  5
FA
  8
0
 10
30.95359848919327
 20
29.80000000000001
 30
3.0
 11
40.95359848919328
 21
29.80000000000001
 31
3.0
  0
LINE
  5
FB
  8
0
 10
132.05
 20
137.1
 30
3.0
 11
132.05
 21
143.1
 31
3.0
  0
LINE
  5
FC
  8
0
 10
24.49359848919327
 20
137.1
 30
3.0
 11
15.5
 21
137.1
 31
3.0
  0
LINE
  5
FD
  8
0
 10
71.54000000000002
 20
64.89999999999999
 30
3.0
 11
81.74000000000002
 21
64.89999999999999
 31
3.0
  0
LINE
  5
FE
  8
0
 10
132.05
 20
143.1
 30
3.0
 11
123.05
 21
143.1
 31
3.0
  0
LINE
  5
FF
  8
0
 10
123.05
 20
131.0
 30
3.0
 11
123.05
 21
125.0
 31
3.0
  0
LINE
  5
100
  8
0
 10
123.05
 20
149.2
 30
3.0
 11
132.05
 21
149.2
 31
3.0
  0
LINE
  5
101
  8
0
 10
24.49359848919327
 20
161.3
 30
3.0
 11
15.5
 21
161.3
 31
3.0
  0
LINE
  5
102
  8
0
 10
123.05
 20
125.0
 30
3.0
 11
132.05
 21
125.0
 31
3.0
  0
LINE
  5
103
  8
0
 10
123.05
 20
155.2
 30
3.0
 11
123.05
 21
149.2
 31
3.0
  0
LINE
  5
104
  8
0
 10
15.5
 20
155.2
 30
3.0
 11
24.49359848919327
 21
155.2
 31
3.0
  0
LINE
  5
105
  8
0
 10
132.05
 20
149.2
 30
3.0
 11
132.05
 21
155.2
 31
3.0
  0
LINE
  5
106
  8
0
 10
15.5
 20
149.2
 30
3.0
 11
15.5
 21
155.2
 31
3.0
  0
LINE
  5
107
  8
0
 10
132.05
 20
131.0
 30
3.0
 11
123.05
 21
131.0
 31
3.0
  0
LINE
  5
108
  8
0
 10
56.58000000000002
 20
79.7
 30
3.0
 11
56.58000000000002
 21
89.7
 31
3.0
  0
LINE
  5
109
  8
0
 10
96.50000000000003
 20
35.3
 30
3.0
 11
96.50000000000003
 21
45.3
 31
3.0
  0
LINE
  5
10A
  8
0
 10
71.54000000000002
 20
74.89999999999999
 30
3.0
 11
71.54000000000002
 21
64.89999999999999
 31
3.0
  0
LINE
  5
10B
  8
0
 10
123.05
 20
143.1
 30
3.0
 11
123.05
 21
137.1
 31
3.0
  0
LINE
  5
10C
  8
0
 10
15.5
 20
143.1
 30
3.0
 11
24.49359848919327
 21
143.1
 31
3.0
  0
LINE
  5
10D
  8
0
 10
15.5
 20
167.3
 30
3.0
 11
24.49359848919327
 21
167.3
 31
3.0
  0
LINE
  5
10E
  8
0
 10
141.38
 20
45.3
 30
3.0
 11
131.38
 21
45.3
 31
3.0
  0
LINE
  5
10F
  8
0
 10
24.49359848919327
 20
125.0
 30
3.0
 11
24.49359848919327
 21
131.0124515137408
 31
3.0
  0
LINE
  5
110
  8
0
 10
15.5
 20
131.0124515137408
 30
3.0
 11
15.5
 21
125.0
 31
3.0
  0
LINE
  5
111
  8
0
 10
112.0249999999999
 20
112.5
 30
3.0
 11
112.0249999999999
 21
176.4889037387594
 31
3.0
  0
LINE
  5
112
  8
0
 10
96.50000000000003
 20
45.3
 30
3.0
 11
86.50000000000003
 21
45.3
 31
3.0
  0
LINE
  5
113
  8
0
 10
126.42
 20
45.3
 30
3.0
 11
116.42
 21
45.3
 31
3.0
  0
LINE
  5
114
  8
0
 10
101.46
 20
35.3
 30
3.0
 11
111.46
 21
35.3
 31
3.0
  0
LINE
  5
115
  8
0
 10
132.05
 20
162.3
 30
3.0
 11
132.05
 21
167.3
 31
3.0
  0
LINE
  5
116
  8
0
 10
131.38
 20
45.3
 30
3.0
 11
131.38
 21
35.22
 31
3.0
  0
LINE
  5
117
  8
0
 10
15.5
 20
161.3
 30
3.0
 11
15.5
 21
167.3
 31
3.0
  0
LINE
  5
118
  8
0
 10
111.46
 20
35.3
 30
3.0
 11
111.46
 21
45.3
 31
3.0
  0
LINE
  5
119
  8
0
 10
35.02500000000001
 20
112.5
 30
3.0
 11
112.0249999999999
 21
112.5
 31
3.0
  0
LINE
  5
11A
  8
0
 10
123.05
 20
167.3
 30
3.0
 11
123.05
 21
162.3
 31
3.0
  0
LINE
  5
11B
  8
0
 10
132.05
 20
167.3
 30
3.0
 11
123.05
 21
167.3
 31
3.0
  0
LINE
  5
11C
  8
0
 10
131.38
 20
35.22
 30
3.0
 11
141.38
 21
35.22
 31
3.0
  0
LINE
  5
11D
  8
0
 10
111.46
 20
45.3
 30
3.0
 11
101.46
 21
45.3
 31
3.0
  0
LINE
  5
11E
  8
0
 10
86.50000000000003
 20
45.3
 30
3.0
 11
86.50000000000003
 21
35.3
 31
3.0
  0
LINE
  5
11F
  8
0
 10
141.38
 20
35.22
 30
3.0
 11
141.38
 21
45.3
 31
3.0
  0
LINE
  5
120
  8
0
 10
35.02500000000001
 20
176.4889037387594
 30
3.0
 11
35.02500000000001
 21
112.5
 31
3.0
  0
LINE
  5
121
  8
0
 10
132.05
 20
155.2
 30
3.0
 11
123.05
 21
155.2
 31
3.0
  0
LINE
  5
122
  8
0
 10
5.499999999999999
 20
10.5
 30
3.0
 11
0.0
 21
10.5
 31
3.0
  0
LINE
  5
123
  8
0
 10
0.0
 20
171.5
 30
3.0
 11
0.0
 21
10.5
 31
3.0
  0
LINE
  5
124
  8
0
 10
10.5
 20
182.0
 30
3.0
 11
10.49999999999999
 21
176.5
 31
3.0
  0
LINE
  5
125
  8
0
 10
10.5
 20
0.0
 30
3.0
 11
136.55
 21
0.0
 31
3.0
  0
LINE
  5
126
  8
0
 10
136.55
 20
0.0
 30
3.0
 11
136.55
 21
5.5
 31
3.0
  0
LINE
  5
127
  8
0
 10
5.5
 20
171.5
 30
3.0
 11
0.0
 21
171.5
 31
3.0
  0
LINE
  5
128
  8
0
 10
10.5
 20
0.0
 30
3.0
 11
10.5
 21
5.499999999999999
 31
3.0
  0
ARC
  5
129
  8
0
 10
-141.55
 20
5.5
 30
-3.0
 40
5.0
 50
0.0
 51
90.0
210
0.0
220
0.0
230
-1.0
  0
ARC
  5
12A
  8
0
 10
-5.5
 20
5.5
 30
-3.0
 40
4.999999999999998
 50
90.0
 51
180.0
210
0.0
220
0.0
230
-1.0
  0
CIRCLE
  5
12B
  8
0
 10
-27.48000000000003
 20
69.89999999999999
 30
-3.0
 40
5.000000000000002
210
0.0
220
0.0
230
-1.0
  0
CIRCLE
  5
12C
  8
0
 10
-27.48000000000003
 20
84.7
 30
-3.0
 40
5.000000000000002
210
0.0
220
0.0
230
-1.0
  0
LINE
  5
12D
  8
0
 10
141.55
 20
10.5
 30
3.0
 11
147.05
 21
10.5
 31
3.0
  0
LINE
  5
12E
  8
0
 10
147.05
 20
10.5
 30
3.0
 11
147.05
 21
171.5
 31
3.0
  0
LINE
  5
12F
  8
0
 10
141.55
 20
171.5
 30
3.0
 11
147.05
 21
171.5
 31
3.0
  0
ARC
  5
130
  8
0
 10
-141.55
 20
176.5
 30
-3.0
 40
4.999999999999991
 50
270.0
 51
0.0
210
0.0
220
0.0
230
-1.0
  0
LINE
  5
131
  8
0
 10
136.55
 20
176.5
 30
3.0
 11
136.55
 21
182.0
 31
3.0
  0
LINE
  5
132
  8
0
 10
136.55
 20
182.0
 30
3.0
 11
10.5
 21
182.0
 31
3.0
  0
ARC
  5
133
  8
0
 10
-5.5
 20
176.5
 30
-3.0
 40
4.999999999999992
 50
180.0
 51
270.0
210
0.0
220
0.0
230
-1.0
  0
LINE
  5
134
  8
0
 10
132.3115397359717
 20
4.840000000000008
 30
3.0
 11
122.3115397359717
 21
4.840000000000008
 31
3.0
  0
LINE
  5
135
  8
0
 10
132.3115397359717
 20
29.80000000000001
 30
3.0
 11
122.3115397359717
 21
29.80000000000001
 31
3.0
  0
POLYLINE
  5
136
  8
0
 66
     1
 10
0.0
 20
0.0
 30
0.0
 70
    64
 71
   588
 72
   722
  0
VERTEX
  5
137
  8
0
 10
5.672493447281606
 20
55.1
 30
3.0
 70
   192
  0
VERTEX
  5
138
  8
0
 10
5.684560611384451
 20
70.24716858236161
 30
3.0
 70
   192
  0
VERTEX
  5
139
  8
0
 10
5.672493447281612
 20
84.7
 30
3.0
 70
   192
  0
VERTEX
  5
13A
  8
0
 10
5.842864315836263
 20
56.3940952255126
 30
3.0
 70
   192
  0
VERTEX
  5
13B
  8
0
 10
5.764666460316842
 20
68.94436708615683
 30
3.0
 70
   192
  0
VERTEX
  5
13C
  8
0
 10
6.179232607843306
 20
67.7066903937724
 30
3.0
 70
   192
  0
VERTEX
  5
13D
  8
0
 10
6.34236642835941
 20
57.59999999999999
 30
3.0
 70
   192
  0
VERTEX
  5
13E
  8
0
 10
6.900007056112864
 20
66.61848412643688
 30
3.0
 70
   192
  0
VERTEX
  5
13F
  8
0
 10
7.136959541348867
 20
58.63553390593274
 30
3.0
 70
   192
  0
VERTEX
  5
140
  8
0
 10
7.877870217612042
 20
65.7539077429233
 30
3.0
 70
   192
  0
VERTEX
  5
141
  8
0
 10
8.172493447281603
 20
59.43012701892219
 30
3.0
 70
   192
  0
VERTEX
  5
142
  8
0
 10
9.046182333879951
 20
65.17188069498809
 30
3.0
 70
   192
  0
VERTEX
  5
143
  8
0
 10
9.378398221769
 20
59.92962913144534
 30
3.0
 70
   192
  0
VERTEX
  5
144
  8
0
 10
10.32532486491999
 20
64.91206716410284
 30
3.0
 70
   192
  0
VERTEX
  5
145
  8
0
 10
10.67249344728161
 20
60.1
 30
3.0
 70
   192
  0
VERTEX
  5
146
  8
0
 10
11.62812636112477
 20
64.99217301303523
 30
3.0
 70
   192
  0
VERTEX
  5
147
  8
0
 10
11.96658867279421
 20
59.92962913144534
 30
3.0
 70
   192
  0
VERTEX
  5
148
  8
0
 10
12.8658030535092
 20
65.4067391605617
 30
3.0
 70
   192
  0
VERTEX
  5
149
  8
0
 10
13.17249344728161
 20
59.43012701892219
 30
3.0
 70
   192
  0
VERTEX
  5
14A
  8
0
 10
13.95400932084472
 20
66.12751360883125
 30
3.0
 70
   192
  0
VERTEX
  5
14B
  8
0
 10
14.20802735321434
 20
58.63553390593274
 30
3.0
 70
   192
  0
VERTEX
  5
14C
  8
0
 10
14.8185857043583
 20
67.10537677033042
 30
3.0
 70
   192
  0
VERTEX
  5
14D
  8
0
 10
15.0026204662038
 20
57.60000000000001
 30
3.0
 70
   192
  0
VERTEX
  5
14E
  8
0
 10
15.40061275229352
 20
68.27368888659834
 30
3.0
 70
   192
  0
VERTEX
  5
14F
  8
0
 10
15.50212257872695
 20
56.3940952255126
 30
3.0
 70
   192
  0
VERTEX
  5
150
  8
0
 10
15.66042628317877
 20
69.55283141763839
 30
3.0
 70
   192
  0
VERTEX
  5
151
  8
0
 10
15.67249344728161
 20
55.1
 30
3.0
 70
   192
  0
VERTEX
  5
152
  8
0
 10
15.6724934472816
 20
84.7
 30
3.0
 70
   192
  0
VERTEX
  5
153
  8
0
 10
5.670000000000001
 20
45.3
 30
3.0
 70
   192
  0
VERTEX
  5
154
  8
0
 10
5.842864315836265
 20
53.80590477448739
 30
3.0
 70
   192
  0
VERTEX
  5
155
  8
0
 10
6.342366428359414
 20
52.59999999999999
 30
3.0
 70
   192
  0
VERTEX
  5
156
  8
0
 10
7.13695954134887
 20
51.56446609406726
 30
3.0
 70
   192
  0
VERTEX
  5
157
  8
0
 10
8.172493447281608
 20
50.7698729810778
 30
3.0
 70
   192
  0
VERTEX
  5
158
  8
0
 10
16.07
 20
45.3
 30
3.0
 70
   192
  0
VERTEX
  5
159
  8
0
 10
9.378398221769006
 20
50.27037086855466
 30
3.0
 70
   192
  0
VERTEX
  5
15A
  8
0
 10
10.67249344728161
 20
50.1
 30
3.0
 70
   192
  0
VERTEX
  5
15B
  8
0
 10
11.96658867279421
 20
50.27037086855466
 30
3.0
 70
   192
  0
VERTEX
  5
15C
  8
0
 10
13.17249344728161
 20
50.7698729810778
 30
3.0
 70
   192
  0
VERTEX
  5
15D
  8
0
 10
14.20802735321434
 20
51.56446609406726
 30
3.0
 70
   192
  0
VERTEX
  5
15E
  8
0
 10
15.0026204662038
 20
52.60000000000001
 30
3.0
 70
   192
  0
VERTEX
  5
15F
  8
0
 10
15.50212257872695
 20
53.8059047744874
 30
3.0
 70
   192
  0
VERTEX
  5
160
  8
0
 10
5.842864315836271
 20
83.4059047744874
 30
3.0
 70
   192
  0
VERTEX
  5
161
  8
0
 10
5.944374142269698
 20
71.52631111340166
 30
3.0
 70
   192
  0
VERTEX
  5
162
  8
0
 10
6.342366428359421
 20
82.2
 30
3.0
 70
   192
  0
VERTEX
  5
163
  8
0
 10
6.526401190204919
 20
72.69462322966956
 30
3.0
 70
   192
  0
VERTEX
  5
164
  8
0
 10
7.136959541348877
 20
81.16446609406727
 30
3.0
 70
   192
  0
VERTEX
  5
165
  8
0
 10
7.390977573718498
 20
73.67248639116873
 30
3.0
 70
   192
  0
VERTEX
  5
166
  8
0
 10
8.172493447281616
 20
80.36987298107782
 30
3.0
 70
   192
  0
VERTEX
  5
167
  8
0
 10
8.479183841054015
 20
74.3932608394383
 30
3.0
 70
   192
  0
VERTEX
  5
168
  8
0
 10
9.37839822176901
 20
79.87037086855466
 30
3.0
 70
   192
  0
VERTEX
  5
169
  8
0
 10
9.716860533438444
 20
74.80782698696476
 30
3.0
 70
   192
  0
VERTEX
  5
16A
  8
0
 10
10.67249344728161
 20
79.7
 30
3.0
 70
   192
  0
VERTEX
  5
16B
  8
0
 10
11.01966202964322
 20
74.88793283589715
 30
3.0
 70
   192
  0
VERTEX
  5
16C
  8
0
 10
11.96658867279421
 20
79.87037086855466
 30
3.0
 70
   192
  0
VERTEX
  5
16D
  8
0
 10
12.29880456068327
 20
74.62811930501191
 30
3.0
 70
   192
  0
VERTEX
  5
16E
  8
0
 10
13.17249344728161
 20
80.36987298107782
 30
3.0
 70
   192
  0
VERTEX
  5
16F
  8
0
 10
13.46711667695118
 20
74.04609225707668
 30
3.0
 70
   192
  0
VERTEX
  5
170
  8
0
 10
14.20802735321434
 20
81.16446609406727
 30
3.0
 70
   192
  0
VERTEX
  5
171
  8
0
 10
14.44497983845035
 20
73.1815158735631
 30
3.0
 70
   192
  0
VERTEX
  5
172
  8
0
 10
15.0026204662038
 20
82.2
 30
3.0
 70
   192
  0
VERTEX
  5
173
  8
0
 10
15.16575428671991
 20
72.09330960622758
 30
3.0
 70
   192
  0
VERTEX
  5
174
  8
0
 10
15.50212257872695
 20
83.4059047744874
 30
3.0
 70
   192
  0
VERTEX
  5
175
  8
0
 10
15.58032043424638
 20
70.85563291384315
 30
3.0
 70
   192
  0
VERTEX
  5
176
  8
0
 10
5.499999999999999
 20
10.5
 30
3.0
 70
   192
  0
VERTEX
  5
177
  8
0
 10
0.0
 20
171.5
 30
3.0
 70
   192
  0
VERTEX
  5
178
  8
0
 10
0.0
 20
10.5
 30
3.0
 70
   192
  0
VERTEX
  5
179
  8
0
 10
5.5
 20
171.5
 30
3.0
 70
   192
  0
VERTEX
  5
17A
  8
0
 10
5.516260560873145
 20
25.33698593482829
 30
3.000000000000006
 70
   192
  0
VERTEX
  5
17B
  8
0
 10
5.547747725820338
 20
24.42384530252601
 30
3.000000000000006
 70
   192
  0
VERTEX
  5
17C
  8
0
 10
6.794095225512602
 20
10.32962913144534
 30
3.0
 70
   192
  0
VERTEX
  5
17D
  8
0
 10
5.814500178136244
 20
23.54996866071592
 30
3.000000000000006
 70
   192
  0
VERTEX
  5
17E
  8
0
 10
6.298339179024807
 20
22.77490925838795
 30
3.000000000000006
 70
   192
  0
VERTEX
  5
17F
  8
0
 10
6.966291900157223
 20
22.15148611296454
 30
3.000000000000006
 70
   192
  0
VERTEX
  5
180
  8
0
 10
7.999999999999998
 20
9.830127018922195
 30
3.0
 70
   192
  0
VERTEX
  5
181
  8
0
 10
7.772838467432383
 20
21.72218448155082
 30
3.000000000000006
 70
   192
  0
VERTEX
  5
182
  8
0
 10
8.663014065171707
 20
21.51626056087315
 30
3.000000000000006
 70
   192
  0
VERTEX
  5
183
  8
0
 10
9.035533905932738
 20
9.035533905932736
 30
3.0
 70
   192
  0
VERTEX
  5
184
  8
0
 10
9.57615469747399
 20
21.54774772582034
 30
3.000000000000006
 70
   192
  0
VERTEX
  5
185
  8
0
 10
9.830127018922193
 20
7.999999999999999
 30
3.0
 70
   192
  0
VERTEX
  5
186
  8
0
 10
10.45003133928408
 20
21.81450017813624
 30
3.000000000000006
 70
   192
  0
VERTEX
  5
187
  8
0
 10
10.32962913144534
 20
6.794095225512604
 30
3.0
 70
   192
  0
VERTEX
  5
188
  8
0
 10
10.5
 20
5.499999999999999
 30
3.0
 70
   192
  0
VERTEX
  5
189
  8
0
 10
11.22509074161204
 20
22.29833917902481
 30
3.000000000000006
 70
   192
  0
VERTEX
  5
18A
  8
0
 10
5.722184481550816
 20
26.22716153256762
 30
3.000000000000006
 70
   192
  0
VERTEX
  5
18B
  8
0
 10
5.670000000000001
 20
35.3
 30
3.0
 70
   192
  0
VERTEX
  5
18C
  8
0
 10
6.151486112964538
 20
27.03370809984278
 30
3.000000000000006
 70
   192
  0
VERTEX
  5
18D
  8
0
 10
6.774909258387955
 20
27.70166082097519
 30
3.000000000000006
 70
   192
  0
VERTEX
  5
18E
  8
0
 10
16.07
 20
35.3
 30
3.0
 70
   192
  0
VERTEX
  5
18F
  8
0
 10
7.549968660715922
 20
28.18549982186375
 30
3.000000000000006
 70
   192
  0
VERTEX
  5
190
  8
0
 10
8.42384530252601
 20
28.45225227417966
 30
3.000000000000006
 70
   192
  0
VERTEX
  5
191
  8
0
 10
9.336985934828292
 20
28.48373943912685
 30
3.000000000000006
 70
   192
  0
VERTEX
  5
192
  8
0
 10
10.22716153256762
 20
28.27781551844918
 30
3.000000000000006
 70
   192
  0
VERTEX
  5
193
  8
0
 10
11.03370809984278
 20
27.84851388703546
 30
3.000000000000006
 70
   192
  0
VERTEX
  5
194
  8
0
 10
11.70166082097519
 20
27.22509074161205
 30
3.000000000000006
 70
   192
  0
VERTEX
  5
195
  8
0
 10
12.18549982186376
 20
26.45003133928408
 30
3.000000000000006
 70
   192
  0
VERTEX
  5
196
  8
0
 10
12.45225227417966
 20
25.57615469747399
 30
3.000000000000006
 70
   192
  0
VERTEX
  5
197
  8
0
 10
12.48373943912686
 20
24.6630140651717
 30
3.000000000000006
 70
   192
  0
VERTEX
  5
198
  8
0
 10
15.99359848919328
 20
29.8
 30
3.0
 70
   192
  0
VERTEX
  5
199
  8
0
 10
15.99359848919328
 20
5.900000000000004
 30
3.0
 70
   192
  0
VERTEX
  5
19A
  8
0
 10
25.99359848919327
 20
29.8
 30
3.0
 70
   192
  0
VERTEX
  5
19B
  8
0
 10
22.65037086855468
 20
39.00590477448741
 30
3.0
 70
   192
  0
VERTEX
  5
19C
  8
0
 10
22.48000000000002
 20
40.3
 30
3.0
 70
   192
  0
VERTEX
  5
19D
  8
0
 10
23.14987298107783
 20
37.8
 30
3.0
 70
   192
  0
VERTEX
  5
19E
  8
0
 10
23.94446609406728
 20
36.76446609406727
 30
3.0
 70
   192
  0
VERTEX
  5
19F
  8
0
 10
24.98000000000003
 20
35.96987298107781
 30
3.0
 70
   192
  0
VERTEX
  5
1A0
  8
0
 10
26.18590477448742
 20
35.47037086855466
 30
3.0
 70
   192
  0
VERTEX
  5
1A1
  8
0
 10
25.49999999999999
 20
104.5
 30
3.0
 70
   192
  0
VERTEX
  5
1A2
  8
0
 10
15.5
 20
125.0
 30
3.0
 70
   192
  0
VERTEX
  5
1A3
  8
0
 10
15.5
 20
104.5
 30
3.0
 70
   192
  0
VERTEX
  5
1A4
  8
0
 10
24.49999999999999
 20
117.0
 30
3.000000000000014
 70
   192
  0
VERTEX
  5
1A5
  8
0
 10
24.49359848919327
 20
125.0
 30
3.0
 70
   192
  0
VERTEX
  5
1A6
  8
0
 10
24.49359848919327
 20
131.0124515137408
 30
3.0
 70
   192
  0
VERTEX
  5
1A7
  8
0
 10
24.49359848919327
 20
137.1
 30
3.0
 70
   192
  0
VERTEX
  5
1A8
  8
0
 10
24.49359848919327
 20
143.1
 30
3.0
 70
   192
  0
VERTEX
  5
1A9
  8
0
 10
24.49359848919327
 20
149.2
 30
3.0
 70
   192
  0
VERTEX
  5
1AA
  8
0
 10
24.49359848919327
 20
155.2
 30
3.0
 70
   192
  0
VERTEX
  5
1AB
  8
0
 10
24.49359848919327
 20
161.3
 30
3.0
 70
   192
  0
VERTEX
  5
1AC
  8
0
 10
24.49359848919327
 20
167.3
 30
3.0
 70
   192
  0
VERTEX
  5
1AD
  8
0
 10
24.61925960798826
 20
116.0941333421412
 30
3.000000000000014
 70
   192
  0
VERTEX
  5
1AE
  8
0
 10
24.96891108675446
 20
115.25
 30
3.000000000000014
 70
   192
  0
VERTEX
  5
1AF
  8
0
 10
25.52512626584708
 20
114.5251262658471
 30
3.000000000000014
 70
   192
  0
VERTEX
  5
1B0
  8
0
 10
15.5
 20
161.3
 30
3.0
 70
   192
  0
VERTEX
  5
1B1
  8
0
 10
15.5
 20
155.2
 30
3.0
 70
   192
  0
VERTEX
  5
1B2
  8
0
 10
15.5
 20
149.2
 30
3.0
 70
   192
  0
VERTEX
  5
1B3
  8
0
 10
15.5
 20
143.1
 30
3.0
 70
   192
  0
VERTEX
  5
1B4
  8
0
 10
15.5
 20
137.1
 30
3.0
 70
   192
  0
VERTEX
  5
1B5
  8
0
 10
15.5
 20
131.0124515137408
 30
3.0
 70
   192
  0
VERTEX
  5
1B6
  8
0
 10
15.50212257872695
 20
85.99409522551261
 30
3.0
 70
   192
  0
VERTEX
  5
1B7
  8
0
 10
15.5
 20
94.50000000000001
 30
3.0
 70
   192
  0
VERTEX
  5
1B8
  8
0
 10
15.00262046620379
 20
87.2
 30
3.0
 70
   192
  0
VERTEX
  5
1B9
  8
0
 10
25.49999999999999
 20
94.50000000000001
 30
3.0
 70
   192
  0
VERTEX
  5
1BA
  8
0
 10
22.65037086855468
 20
85.9940952255126
 30
3.0
 70
   192
  0
VERTEX
  5
1BB
  8
0
 10
22.48000000000003
 20
84.69999999999999
 30
3.0
 70
   192
  0
VERTEX
  5
1BC
  8
0
 10
22.48000000000002
 20
69.89999999999999
 30
3.0
 70
   192
  0
VERTEX
  5
1BD
  8
0
 10
23.14987298107783
 20
87.2
 30
3.0
 70
   192
  0
VERTEX
  5
1BE
  8
0
 10
23.94446609406728
 20
88.23553390593274
 30
3.0
 70
   192
  0
VERTEX
  5
1BF
  8
0
 10
24.98000000000002
 20
89.03012701892219
 30
3.0
 70
   192
  0
VERTEX
  5
1C0
  8
0
 10
26.18590477448742
 20
89.52962913144535
 30
3.0
 70
   192
  0
VERTEX
  5
1C1
  8
0
 10
26.25
 20
113.9689110867545
 30
3.000000000000014
 70
   192
  0
VERTEX
  5
1C2
  8
0
 10
27.48000000000002
 20
89.7
 30
3.0
 70
   192
  0
VERTEX
  5
1C3
  8
0
 10
27.09413334214118
 20
113.6192596079883
 30
3.000000000000014
 70
   192
  0
VERTEX
  5
1C4
  8
0
 10
27.99999999999999
 20
113.5
 30
3.000000000000014
 70
   192
  0
VERTEX
  5
1C5
  8
0
 10
28.77409522551262
 20
89.52962913144535
 30
3.0
 70
   192
  0
VERTEX
  5
1C6
  8
0
 10
28.90586665785882
 20
113.6192596079883
 30
3.000000000000014
 70
   192
  0
VERTEX
  5
1C7
  8
0
 10
29.98000000000002
 20
89.03012701892219
 30
3.0
 70
   192
  0
VERTEX
  5
1C8
  8
0
 10
29.75
 20
113.9689110867545
 30
3.000000000000014
 70
   192
  0
VERTEX
  5
1C9
  8
0
 10
30.47487373415291
 20
114.5251262658471
 30
3.000000000000014
 70
   192
  0
VERTEX
  5
1CA
  8
0
 10
31.01553390593276
 20
88.23553390593274
 30
3.0
 70
   192
  0
VERTEX
  5
1CB
  8
0
 10
31.03108891324553
 20
115.25
 30
3.000000000000014
 70
   192
  0
VERTEX
  5
1CC
  8
0
 10
31.5
 20
94.50000000000001
 30
3.0
 70
   192
  0
VERTEX
  5
1CD
  8
0
 10
31.81012701892222
 20
87.2
 30
3.0
 70
   192
  0
VERTEX
  5
1CE
  8
0
 10
31.38074039201173
 20
116.0941333421412
 30
3.000000000000014
 70
   192
  0
VERTEX
  5
1CF
  8
0
 10
31.49999999999999
 20
117.0
 30
3.000000000000014
 70
   192
  0
VERTEX
  5
1D0
  8
0
 10
41.5
 20
94.50000000000001
 30
3.0
 70
   192
  0
VERTEX
  5
1D1
  8
0
 10
32.30962913144536
 20
85.99409522551262
 30
3.0
 70
   192
  0
VERTEX
  5
1D2
  8
0
 10
32.48000000000002
 20
84.70000000000002
 30
3.0
 70
   192
  0
VERTEX
  5
1D3
  8
0
 10
32.48000000000003
 20
69.89999999999999
 30
3.0
 70
   192
  0
VERTEX
  5
1D4
  8
0
 10
39.41758176294192
 20
85.99409522551261
 30
3.0
 70
   192
  0
VERTEX
  5
1D5
  8
0
 10
39.24721089438726
 20
84.7
 30
3.0
 70
   192
  0
VERTEX
  5
1D6
  8
0
 10
39.21614843959872
 20
55.09999999999999
 30
3.0
 70
   192
  0
VERTEX
  5
1D7
  8
0
 10
39.91708387546507
 20
87.2
 30
3.0
 70
   192
  0
VERTEX
  5
1D8
  8
0
 10
40.71167698845452
 20
88.23553390593274
 30
3.0
 70
   192
  0
VERTEX
  5
1D9
  8
0
 10
41.74721089438726
 20
89.03012701892219
 30
3.0
 70
   192
  0
VERTEX
  5
1DA
  8
0
 10
41.5
 20
104.5
 30
3.0
 70
   192
  0
VERTEX
  5
1DB
  8
0
 10
39.27
 20
45.3
 30
3.0
 70
   192
  0
VERTEX
  5
1DC
  8
0
 10
39.38651930815339
 20
53.80590477448739
 30
3.0
 70
   192
  0
VERTEX
  5
1DD
  8
0
 10
39.27
 20
35.3
 30
3.0
 70
   192
  0
VERTEX
  5
1DE
  8
0
 10
39.88602142067653
 20
52.59999999999999
 30
3.0
 70
   192
  0
VERTEX
  5
1DF
  8
0
 10
40.680614533666
 20
51.56446609406726
 30
3.0
 70
   192
  0
VERTEX
  5
1E0
  8
0
 10
41.71614843959873
 20
50.7698729810778
 30
3.0
 70
   192
  0
VERTEX
  5
1E1
  8
0
 10
49.27
 20
45.3
 30
3.0
 70
   192
  0
VERTEX
  5
1E2
  8
0
 10
42.92205321408613
 20
50.27037086855466
 30
3.0
 70
   192
  0
VERTEX
  5
1E3
  8
0
 10
44.21614843959873
 20
50.1
 30
3.0
 70
   192
  0
VERTEX
  5
1E4
  8
0
 10
45.51024366511134
 20
50.27037086855466
 30
3.0
 70
   192
  0
VERTEX
  5
1E5
  8
0
 10
46.71614843959873
 20
50.76987298107781
 30
3.0
 70
   192
  0
VERTEX
  5
1E6
  8
0
 10
47.75168234553147
 20
51.56446609406726
 30
3.0
 70
   192
  0
VERTEX
  5
1E7
  8
0
 10
48.54627545852092
 20
52.60000000000001
 30
3.0
 70
   192
  0
VERTEX
  5
1E8
  8
0
 10
49.04577757104407
 20
53.80590477448741
 30
3.0
 70
   192
  0
VERTEX
  5
1E9
  8
0
 10
49.21614843959873
 20
55.10000000000001
 30
3.0
 70
   192
  0
VERTEX
  5
1EA
  8
0
 10
49.24721089438726
 20
69.89999999999999
 30
3.0
 70
   192
  0
VERTEX
  5
1EB
  8
0
 10
49.24721089438727
 20
84.7
 30
3.0
 70
   192
  0
VERTEX
  5
1EC
  8
0
 10
29.98000000000003
 20
35.96987298107781
 30
3.0
 70
   192
  0
VERTEX
  5
1ED
  8
0
 10
30.95359848919327
 20
29.80000000000001
 30
3.0
 70
   192
  0
VERTEX
  5
1EE
  8
0
 10
31.01553390593276
 20
36.76446609406727
 30
3.0
 70
   192
  0
VERTEX
  5
1EF
  8
0
 10
30.95359848919327
 20
19.80000000000001
 30
3.0
 70
   192
  0
VERTEX
  5
1F0
  8
0
 10
40.95359848919328
 20
29.80000000000001
 30
3.0
 70
   192
  0
VERTEX
  5
1F1
  8
0
 10
31.81012701892222
 20
37.8
 30
3.0
 70
   192
  0
VERTEX
  5
1F2
  8
0
 10
32.30962913144537
 20
39.0059047744874
 30
3.0
 70
   192
  0
VERTEX
  5
1F3
  8
0
 10
32.48000000000003
 20
40.3
 30
3.0
 70
   192
  0
VERTEX
  5
1F4
  8
0
 10
49.27
 20
35.3
 30
3.0
 70
   192
  0
VERTEX
  5
1F5
  8
0
 10
45.91359848919327
 20
29.80000000000001
 30
3.0
 70
   192
  0
VERTEX
  5
1F6
  8
0
 10
45.91359848919327
 20
19.80000000000001
 30
3.0
 70
   192
  0
VERTEX
  5
1F7
  8
0
 10
55.91359848919328
 20
29.80000000000001
 30
3.0
 70
   192
  0
VERTEX
  5
1F8
  8
0
 10
39.24721089438727
 20
69.89999999999999
 30
3.0
 70
   192
  0
VERTEX
  5
1F9
  8
0
 10
39.41758176294192
 20
83.4059047744874
 30
3.0
 70
   192
  0
VERTEX
  5
1FA
  8
0
 10
39.41758176294192
 20
71.1940952255126
 30
3.0
 70
   192
  0
VERTEX
  5
1FB
  8
0
 10
39.91708387546507
 20
82.2
 30
3.0
 70
   192
  0
VERTEX
  5
1FC
  8
0
 10
39.91708387546507
 20
72.39999999999999
 30
3.0
 70
   192
  0
VERTEX
  5
1FD
  8
0
 10
40.71167698845452
 20
73.43553390593273
 30
3.0
 70
   192
  0
VERTEX
  5
1FE
  8
0
 10
40.71167698845453
 20
81.16446609406725
 30
3.0
 70
   192
  0
VERTEX
  5
1FF
  8
0
 10
41.74721089438726
 20
74.23012701892219
 30
3.0
 70
   192
  0
VERTEX
  5
200
  8
0
 10
41.74721089438726
 20
80.36987298107782
 30
3.0
 70
   192
  0
VERTEX
  5
201
  8
0
 10
42.95311566887465
 20
74.72962913144534
 30
3.0
 70
   192
  0
VERTEX
  5
202
  8
0
 10
42.95311566887466
 20
79.87037086855466
 30
3.0
 70
   192
  0
VERTEX
  5
203
  8
0
 10
44.24721089438727
 20
74.89999999999999
 30
3.0
 70
   192
  0
VERTEX
  5
204
  8
0
 10
44.24721089438727
 20
79.7
 30
3.0
 70
   192
  0
VERTEX
  5
205
  8
0
 10
45.54130611989986
 20
74.72962913144534
 30
3.0
 70
   192
  0
VERTEX
  5
206
  8
0
 10
45.54130611989987
 20
79.87037086855466
 30
3.0
 70
   192
  0
VERTEX
  5
207
  8
0
 10
46.74721089438726
 20
74.23012701892219
 30
3.0
 70
   192
  0
VERTEX
  5
208
  8
0
 10
46.74721089438727
 20
80.36987298107782
 30
3.0
 70
   192
  0
VERTEX
  5
209
  8
0
 10
47.78274480032
 20
73.43553390593273
 30
3.0
 70
   192
  0
VERTEX
  5
20A
  8
0
 10
47.78274480032
 20
81.16446609406727
 30
3.0
 70
   192
  0
VERTEX
  5
20B
  8
0
 10
48.57733791330945
 20
72.4
 30
3.0
 70
   192
  0
VERTEX
  5
20C
  8
0
 10
48.57733791330946
 20
82.2
 30
3.0
 70
   192
  0
VERTEX
  5
20D
  8
0
 10
49.0768400258326
 20
71.1940952255126
 30
3.0
 70
   192
  0
VERTEX
  5
20E
  8
0
 10
49.0768400258326
 20
83.4059047744874
 30
3.0
 70
   192
  0
VERTEX
  5
20F
  8
0
 10
39.38651930815338
 20
56.39409522551259
 30
3.0
 70
   192
  0
VERTEX
  5
210
  8
0
 10
39.41758176294192
 20
68.6059047744874
 30
3.0
 70
   192
  0
VERTEX
  5
211
  8
0
 10
39.88602142067652
 20
57.59999999999999
 30
3.0
 70
   192
  0
VERTEX
  5
212
  8
0
 10
39.91708387546507
 20
67.39999999999999
 30
3.0
 70
   192
  0
VERTEX
  5
213
  8
0
 10
40.68061453366597
 20
58.63553390593274
 30
3.0
 70
   192
  0
VERTEX
  5
214
  8
0
 10
40.71167698845453
 20
66.36446609406727
 30
3.0
 70
   192
  0
VERTEX
  5
215
  8
0
 10
41.71614843959872
 20
59.43012701892219
 30
3.0
 70
   192
  0
VERTEX
  5
216
  8
0
 10
41.74721089438727
 20
65.56987298107781
 30
3.0
 70
   192
  0
VERTEX
  5
217
  8
0
 10
42.92205321408611
 20
59.92962913144534
 30
3.0
 70
   192
  0
VERTEX
  5
218
  8
0
 10
42.95311566887467
 20
65.07037086855466
 30
3.0
 70
   192
  0
VERTEX
  5
219
  8
0
 10
44.21614843959872
 20
60.1
 30
3.0
 70
   192
  0
VERTEX
  5
21A
  8
0
 10
44.24721089438727
 20
64.89999999999999
 30
3.0
 70
   192
  0
VERTEX
  5
21B
  8
0
 10
45.51024366511132
 20
59.92962913144535
 30
3.0
 70
   192
  0
VERTEX
  5
21C
  8
0
 10
45.54130611989987
 20
65.07037086855466
 30
3.0
 70
   192
  0
VERTEX
  5
21D
  8
0
 10
46.71614843959872
 20
59.4301270189222
 30
3.0
 70
   192
  0
VERTEX
  5
21E
  8
0
 10
46.74721089438727
 20
65.56987298107781
 30
3.0
 70
   192
  0
VERTEX
  5
21F
  8
0
 10
47.75168234553146
 20
58.63553390593275
 30
3.0
 70
   192
  0
VERTEX
  5
220
  8
0
 10
47.78274480032
 20
66.36446609406727
 30
3.0
 70
   192
  0
VERTEX
  5
221
  8
0
 10
48.54627545852092
 20
57.60000000000001
 30
3.0
 70
   192
  0
VERTEX
  5
222
  8
0
 10
48.57733791330946
 20
67.4
 30
3.0
 70
   192
  0
VERTEX
  5
223
  8
0
 10
49.04577757104406
 20
56.39409522551261
 30
3.0
 70
   192
  0
VERTEX
  5
224
  8
0
 10
49.0768400258326
 20
68.6059047744874
 30
3.0
 70
   192
  0
VERTEX
  5
225
  8
0
 10
38.92405104558238
 20
14.84000000000001
 30
3.0
 70
   192
  0
VERTEX
  5
226
  8
0
 10
40.95359848919328
 20
19.80000000000001
 30
3.0
 70
   192
  0
VERTEX
  5
227
  8
0
 10
38.92405104558238
 20
4.840000000000008
 30
3.0
 70
   192
  0
VERTEX
  5
228
  8
0
 10
48.92405104558237
 20
14.84000000000001
 30
3.0
 70
   192
  0
VERTEX
  5
229
  8
0
 10
55.91359848919328
 20
19.80000000000001
 30
3.0
 70
   192
  0
VERTEX
  5
22A
  8
0
 10
116.42
 20
35.3
 30
3.0
 70
   192
  0
VERTEX
  5
22B
  8
0
 10
122.3115397359717
 20
29.80000000000001
 30
3.0
 70
   192
  0
VERTEX
  5
22C
  8
0
 10
126.42
 20
35.3
 30
3.0
 70
   192
  0
VERTEX
  5
22D
  8
0
 10
122.3115397359717
 20
4.840000000000008
 30
3.0
 70
   192
  0
VERTEX
  5
22E
  8
0
 10
132.3115397359717
 20
29.80000000000001
 30
3.0
 70
   192
  0
VERTEX
  5
22F
  8
0
 10
126.42
 20
45.3
 30
3.0
 70
   192
  0
VERTEX
  5
230
  8
0
 10
126.42
 20
50.1
 30
3.0
 70
   192
  0
VERTEX
  5
231
  8
0
 10
126.42
 20
60.1
 30
3.0
 70
   192
  0
VERTEX
  5
232
  8
0
 10
131.38
 20
35.22
 30
3.0
 70
   192
  0
VERTEX
  5
233
  8
0
 10
126.42
 20
64.89999999999999
 30
3.0
 70
   192
  0
VERTEX
  5
234
  8
0
 10
126.42
 20
74.89999999999999
 30
3.0
 70
   192
  0
VERTEX
  5
235
  8
0
 10
126.42
 20
79.7
 30
3.0
 70
   192
  0
VERTEX
  5
236
  8
0
 10
126.42
 20
89.7
 30
3.0
 70
   192
  0
VERTEX
  5
237
  8
0
 10
141.38
 20
35.22
 30
3.0
 70
   192
  0
VERTEX
  5
238
  8
0
 10
135.0189110867545
 20
26.75
 30
3.0
 70
   192
  0
VERTEX
  5
239
  8
0
 10
134.6692596079883
 20
25.90586665785882
 30
3.0
 70
   192
  0
VERTEX
  5
23A
  8
0
 10
134.55
 20
25.0
 30
3.0
 70
   192
  0
VERTEX
  5
23B
  8
0
 10
135.5751262658471
 20
27.47487373415292
 30
3.0
 70
   192
  0
VERTEX
  5
23C
  8
0
 10
136.3
 20
28.03108891324553
 30
3.0
 70
   192
  0
VERTEX
  5
23D
  8
0
 10
137.1441333421412
 20
28.38074039201173
 30
3.0
 70
   192
  0
VERTEX
  5
23E
  8
0
 10
138.05
 20
28.5
 30
3.0
 70
   192
  0
VERTEX
  5
23F
  8
0
 10
138.9558666578588
 20
28.38074039201173
 30
3.0
 70
   192
  0
VERTEX
  5
240
  8
0
 10
139.8
 20
28.03108891324553
 30
3.0
 70
   192
  0
VERTEX
  5
241
  8
0
 10
140.5248737341529
 20
27.47487373415292
 30
3.0
 70
   192
  0
VERTEX
  5
242
  8
0
 10
141.0810889132455
 20
26.75
 30
3.0
 70
   192
  0
VERTEX
  5
243
  8
0
 10
141.4307403920118
 20
25.90586665785882
 30
3.0
 70
   192
  0
VERTEX
  5
244
  8
0
 10
141.38
 20
45.3
 30
3.0
 70
   192
  0
VERTEX
  5
245
  8
0
 10
141.38
 20
50.1
 30
3.0
 70
   192
  0
VERTEX
  5
246
  8
0
 10
141.38
 20
60.1
 30
3.0
 70
   192
  0
VERTEX
  5
247
  8
0
 10
141.38
 20
64.89999999999999
 30
3.0
 70
   192
  0
VERTEX
  5
248
  8
0
 10
141.38
 20
74.89999999999999
 30
3.0
 70
   192
  0
VERTEX
  5
249
  8
0
 10
141.38
 20
79.7
 30
3.0
 70
   192
  0
VERTEX
  5
24A
  8
0
 10
141.38
 20
89.7
 30
3.0
 70
   192
  0
VERTEX
  5
24B
  8
0
 10
136.55
 20
0.0
 30
3.0
 70
   192
  0
VERTEX
  5
24C
  8
0
 10
10.5
 20
0.0
 30
3.0
 70
   192
  0
VERTEX
  5
24D
  8
0
 10
11.84851388703546
 20
22.96629190015722
 30
3.000000000000006
 70
   192
  0
VERTEX
  5
24E
  8
0
 10
12.27781551844918
 20
23.77283846743238
 30
3.000000000000006
 70
   192
  0
VERTEX
  5
24F
  8
0
 10
25.99359848919327
 20
5.900000000000004
 30
3.0
 70
   192
  0
VERTEX
  5
250
  8
0
 10
27.48000000000003
 20
35.3
 30
3.0
 70
   192
  0
VERTEX
  5
251
  8
0
 10
28.77409522551263
 20
35.47037086855466
 30
3.0
 70
   192
  0
VERTEX
  5
252
  8
0
 10
48.92405104558237
 20
4.840000000000008
 30
3.0
 70
   192
  0
VERTEX
  5
253
  8
0
 10
61.02692907775384
 20
4.840000000000008
 30
3.0
 70
   192
  0
VERTEX
  5
254
  8
0
 10
56.58000000000002
 20
35.3
 30
3.0
 70
   192
  0
VERTEX
  5
255
  8
0
 10
60.87359848919328
 20
19.80000000000001
 30
3.0
 70
   192
  0
VERTEX
  5
256
  8
0
 10
60.87359848919327
 20
29.80000000000001
 30
3.0
 70
   192
  0
VERTEX
  5
257
  8
0
 10
84.02692907775385
 20
4.840000000000008
 30
3.0
 70
   192
  0
VERTEX
  5
258
  8
0
 10
90.79359848919327
 20
4.840000000000008
 30
3.0
 70
   192
  0
VERTEX
  5
259
  8
0
 10
84.02692907775385
 20
14.84000000000001
 30
3.0
 70
   192
  0
VERTEX
  5
25A
  8
0
 10
85.83359848919328
 20
19.80000000000001
 30
3.0
 70
   192
  0
VERTEX
  5
25B
  8
0
 10
85.83359848919328
 20
29.80000000000001
 30
3.0
 70
   192
  0
VERTEX
  5
25C
  8
0
 10
86.50000000000003
 20
35.3
 30
3.0
 70
   192
  0
VERTEX
  5
25D
  8
0
 10
100.7935984891933
 20
4.840000000000008
 30
3.0
 70
   192
  0
VERTEX
  5
25E
  8
0
 10
105.7535984891933
 20
4.940000000000005
 30
3.0
 70
   192
  0
VERTEX
  5
25F
  8
0
 10
100.7935984891933
 20
14.84000000000001
 30
3.0
 70
   192
  0
VERTEX
  5
260
  8
0
 10
100.7935984891933
 20
19.80000000000001
 30
3.0
 70
   192
  0
VERTEX
  5
261
  8
0
 10
100.7935984891933
 20
29.8
 30
3.0
 70
   192
  0
VERTEX
  5
262
  8
0
 10
101.46
 20
35.3
 30
3.0
 70
   192
  0
VERTEX
  5
263
  8
0
 10
115.6535984891933
 20
4.940000000000005
 30
3.0
 70
   192
  0
VERTEX
  5
264
  8
0
 10
115.6535984891933
 20
14.84000000000001
 30
3.0
 70
   192
  0
VERTEX
  5
265
  8
0
 10
115.7535984891933
 20
19.80000000000001
 30
3.0
 70
   192
  0
VERTEX
  5
266
  8
0
 10
115.7535984891933
 20
29.80000000000001
 30
3.0
 70
   192
  0
VERTEX
  5
267
  8
0
 10
132.3115397359717
 20
4.840000000000008
 30
3.0
 70
   192
  0
VERTEX
  5
268
  8
0
 10
134.6692596079883
 20
24.09413334214118
 30
3.0
 70
   192
  0
VERTEX
  5
269
  8
0
 10
135.0189110867545
 20
23.25
 30
3.0
 70
   192
  0
VERTEX
  5
26A
  8
0
 10
135.5751262658471
 20
22.52512626584708
 30
3.0
 70
   192
  0
VERTEX
  5
26B
  8
0
 10
136.3
 20
21.96891108675446
 30
3.0
 70
   192
  0
VERTEX
  5
26C
  8
0
 10
136.55
 20
5.5
 30
3.0
 70
   192
  0
VERTEX
  5
26D
  8
0
 10
137.1441333421412
 20
21.61925960798826
 30
3.0
 70
   192
  0
VERTEX
  5
26E
  8
0
 10
136.7203708685547
 20
6.794095225512601
 30
3.0
 70
   192
  0
VERTEX
  5
26F
  8
0
 10
137.2198729810778
 20
7.999999999999996
 30
3.0
 70
   192
  0
VERTEX
  5
270
  8
0
 10
138.05
 20
21.5
 30
3.0
 70
   192
  0
VERTEX
  5
271
  8
0
 10
138.0144660940672
 20
9.035533905932736
 30
3.0
 70
   192
  0
VERTEX
  5
272
  8
0
 10
139.05
 20
9.830127018922191
 30
3.0
 70
   192
  0
VERTEX
  5
273
  8
0
 10
138.9558666578588
 20
21.61925960798826
 30
3.0
 70
   192
  0
VERTEX
  5
274
  8
0
 10
139.8
 20
21.96891108675446
 30
3.0
 70
   192
  0
VERTEX
  5
275
  8
0
 10
140.2559047744874
 20
10.32962913144534
 30
3.0
 70
   192
  0
VERTEX
  5
276
  8
0
 10
140.5248737341529
 20
22.52512626584708
 30
3.0
 70
   192
  0
VERTEX
  5
277
  8
0
 10
141.55
 20
10.5
 30
3.0
 70
   192
  0
VERTEX
  5
278
  8
0
 10
141.0810889132455
 20
23.25
 30
3.0
 70
   192
  0
VERTEX
  5
279
  8
0
 10
141.4307403920118
 20
24.09413334214118
 30
3.0
 70
   192
  0
VERTEX
  5
27A
  8
0
 10
141.55
 20
25.0
 30
3.0
 70
   192
  0
VERTEX
  5
27B
  8
0
 10
147.05
 20
10.5
 30
3.0
 70
   192
  0
VERTEX
  5
27C
  8
0
 10
141.55
 20
171.5
 30
3.0
 70
   192
  0
VERTEX
  5
27D
  8
0
 10
147.05
 20
171.5
 30
3.0
 70
   192
  0
VERTEX
  5
27E
  8
0
 10
47.78274480032
 20
88.23553390593274
 30
3.0
 70
   192
  0
VERTEX
  5
27F
  8
0
 10
47.5
 20
94.50000000000001
 30
3.0
 70
   192
  0
VERTEX
  5
280
  8
0
 10
46.74721089438727
 20
89.03012701892219
 30
3.0
 70
   192
  0
VERTEX
  5
281
  8
0
 10
57.49999999999999
 20
94.50000000000001
 30
3.0
 70
   192
  0
VERTEX
  5
282
  8
0
 10
48.57733791330946
 20
87.2
 30
3.0
 70
   192
  0
VERTEX
  5
283
  8
0
 10
49.0768400258326
 20
85.99409522551261
 30
3.0
 70
   192
  0
VERTEX
  5
284
  8
0
 10
56.58000000000002
 20
89.7
 30
3.0
 70
   192
  0
VERTEX
  5
285
  8
0
 10
56.58000000000002
 20
45.3
 30
3.0
 70
   192
  0
VERTEX
  5
286
  8
0
 10
56.58000000000002
 20
50.1
 30
3.0
 70
   192
  0
VERTEX
  5
287
  8
0
 10
56.58000000000002
 20
60.1
 30
3.0
 70
   192
  0
VERTEX
  5
288
  8
0
 10
56.58000000000002
 20
64.89999999999999
 30
3.0
 70
   192
  0
VERTEX
  5
289
  8
0
 10
56.58000000000002
 20
74.89999999999999
 30
3.0
 70
   192
  0
VERTEX
  5
28A
  8
0
 10
56.58000000000002
 20
79.7
 30
3.0
 70
   192
  0
VERTEX
  5
28B
  8
0
 10
66.58000000000003
 20
89.7
 30
3.0
 70
   192
  0
VERTEX
  5
28C
  8
0
 10
63.5
 20
94.50000000000001
 30
3.0
 70
   192
  0
VERTEX
  5
28D
  8
0
 10
57.49999999999999
 20
104.5
 30
3.0
 70
   192
  0
VERTEX
  5
28E
  8
0
 10
73.5
 20
94.50000000000001
 30
3.0
 70
   192
  0
VERTEX
  5
28F
  8
0
 10
71.54000000000002
 20
89.7
 30
3.0
 70
   192
  0
VERTEX
  5
290
  8
0
 10
70.87359848919327
 20
29.80000000000001
 30
3.0
 70
   192
  0
VERTEX
  5
291
  8
0
 10
71.54000000000002
 20
35.3
 30
3.0
 70
   192
  0
VERTEX
  5
292
  8
0
 10
71.54000000000002
 20
45.3
 30
3.0
 70
   192
  0
VERTEX
  5
293
  8
0
 10
71.54000000000002
 20
50.1
 30
3.0
 70
   192
  0
VERTEX
  5
294
  8
0
 10
71.54000000000002
 20
60.1
 30
3.0
 70
   192
  0
VERTEX
  5
295
  8
0
 10
71.54000000000002
 20
64.89999999999999
 30
3.0
 70
   192
  0
VERTEX
  5
296
  8
0
 10
71.54000000000002
 20
74.89999999999999
 30
3.0
 70
   192
  0
VERTEX
  5
297
  8
0
 10
71.54000000000002
 20
79.7
 30
3.0
 70
   192
  0
VERTEX
  5
298
  8
0
 10
81.54000000000002
 20
89.7
 30
3.0
 70
   192
  0
VERTEX
  5
299
  8
0
 10
73.5
 20
104.5
 30
3.0
 70
   192
  0
VERTEX
  5
29A
  8
0
 10
79.49999999999999
 20
94.50000000000001
 30
3.0
 70
   192
  0
VERTEX
  5
29B
  8
0
 10
89.5
 20
94.50000000000001
 30
3.0
 70
   192
  0
VERTEX
  5
29C
  8
0
 10
86.50000000000003
 20
89.7
 30
3.0
 70
   192
  0
VERTEX
  5
29D
  8
0
 10
81.74000000000002
 20
74.89999999999999
 30
3.0
 70
   192
  0
VERTEX
  5
29E
  8
0
 10
86.50000000000003
 20
45.3
 30
3.0
 70
   192
  0
VERTEX
  5
29F
  8
0
 10
86.50000000000003
 20
50.1
 30
3.0
 70
   192
  0
VERTEX
  5
2A0
  8
0
 10
86.50000000000003
 20
60.1
 30
3.0
 70
   192
  0
VERTEX
  5
2A1
  8
0
 10
86.50000000000003
 20
64.89999999999999
 30
3.0
 70
   192
  0
VERTEX
  5
2A2
  8
0
 10
86.50000000000003
 20
74.89999999999999
 30
3.0
 70
   192
  0
VERTEX
  5
2A3
  8
0
 10
86.50000000000003
 20
79.7
 30
3.0
 70
   192
  0
VERTEX
  5
2A4
  8
0
 10
96.50000000000003
 20
89.7
 30
3.0
 70
   192
  0
VERTEX
  5
2A5
  8
0
 10
89.5
 20
104.5
 30
3.0
 70
   192
  0
VERTEX
  5
2A6
  8
0
 10
95.49999999999999
 20
94.50000000000001
 30
3.0
 70
   192
  0
VERTEX
  5
2A7
  8
0
 10
105.5
 20
94.50000000000001
 30
3.0
 70
   192
  0
VERTEX
  5
2A8
  8
0
 10
101.46
 20
89.7
 30
3.0
 70
   192
  0
VERTEX
  5
2A9
  8
0
 10
101.46
 20
45.3
 30
3.0
 70
   192
  0
VERTEX
  5
2AA
  8
0
 10
101.46
 20
50.1
 30
3.0
 70
   192
  0
VERTEX
  5
2AB
  8
0
 10
101.46
 20
60.1
 30
3.0
 70
   192
  0
VERTEX
  5
2AC
  8
0
 10
101.46
 20
64.89999999999999
 30
3.0
 70
   192
  0
VERTEX
  5
2AD
  8
0
 10
101.46
 20
74.89999999999999
 30
3.0
 70
   192
  0
VERTEX
  5
2AE
  8
0
 10
101.46
 20
79.7
 30
3.0
 70
   192
  0
VERTEX
  5
2AF
  8
0
 10
111.46
 20
89.7
 30
3.0
 70
   192
  0
VERTEX
  5
2B0
  8
0
 10
105.5
 20
104.5
 30
3.0
 70
   192
  0
VERTEX
  5
2B1
  8
0
 10
110.2393468449602
 20
94.50000000000001
 30
3.0
 70
   192
  0
VERTEX
  5
2B2
  8
0
 10
131.7393468449602
 20
94.50000000000001
 30
3.0
 70
   192
  0
VERTEX
  5
2B3
  8
0
 10
116.42
 20
89.7
 30
3.0
 70
   192
  0
VERTEX
  5
2B4
  8
0
 10
116.42
 20
45.3
 30
3.0
 70
   192
  0
VERTEX
  5
2B5
  8
0
 10
116.42
 20
50.1
 30
3.0
 70
   192
  0
VERTEX
  5
2B6
  8
0
 10
116.42
 20
60.1
 30
3.0
 70
   192
  0
VERTEX
  5
2B7
  8
0
 10
116.42
 20
64.89999999999999
 30
3.0
 70
   192
  0
VERTEX
  5
2B8
  8
0
 10
116.42
 20
74.89999999999999
 30
3.0
 70
   192
  0
VERTEX
  5
2B9
  8
0
 10
116.42
 20
79.7
 30
3.0
 70
   192
  0
VERTEX
  5
2BA
  8
0
 10
131.38
 20
89.7
 30
3.0
 70
   192
  0
VERTEX
  5
2BB
  8
0
 10
131.38
 20
45.3
 30
3.0
 70
   192
  0
VERTEX
  5
2BC
  8
0
 10
131.38
 20
50.1
 30
3.0
 70
   192
  0
VERTEX
  5
2BD
  8
0
 10
131.38
 20
60.1
 30
3.0
 70
   192
  0
VERTEX
  5
2BE
  8
0
 10
131.38
 20
64.89999999999999
 30
3.0
 70
   192
  0
VERTEX
  5
2BF
  8
0
 10
131.38
 20
74.89999999999999
 30
3.0
 70
   192
  0
VERTEX
  5
2C0
  8
0
 10
131.38
 20
79.7
 30
3.0
 70
   192
  0
VERTEX
  5
2C1
  8
0
 10
131.7393468449602
 20
104.5
 30
3.0
 70
   192
  0
VERTEX
  5
2C2
  8
0
 10
132.05
 20
125.0
 30
3.0
 70
   192
  0
VERTEX
  5
2C3
  8
0
 10
132.05
 20
131.0
 30
3.0
 70
   192
  0
VERTEX
  5
2C4
  8
0
 10
132.05
 20
137.1
 30
3.0
 70
   192
  0
VERTEX
  5
2C5
  8
0
 10
132.05
 20
143.1
 30
3.0
 70
   192
  0
VERTEX
  5
2C6
  8
0
 10
132.05
 20
149.2
 30
3.0
 70
   192
  0
VERTEX
  5
2C7
  8
0
 10
132.05
 20
155.2
 30
3.0
 70
   192
  0
VERTEX
  5
2C8
  8
0
 10
132.05
 20
162.3
 30
3.0
 70
   192
  0
VERTEX
  5
2C9
  8
0
 10
132.05
 20
167.3
 30
3.0
 70
   192
  0
VERTEX
  5
2CA
  8
0
 10
136.55
 20
176.5
 30
3.0
 70
   192
  0
VERTEX
  5
2CB
  8
0
 10
136.7203708685547
 20
175.2059047744874
 30
3.0
 70
   192
  0
VERTEX
  5
2CC
  8
0
 10
137.2198729810778
 20
174.0
 30
3.0
 70
   192
  0
VERTEX
  5
2CD
  8
0
 10
138.0144660940673
 20
172.9644660940673
 30
3.0
 70
   192
  0
VERTEX
  5
2CE
  8
0
 10
139.05
 20
172.1698729810778
 30
3.0
 70
   192
  0
VERTEX
  5
2CF
  8
0
 10
140.2559047744874
 20
171.6703708685547
 30
3.0
 70
   192
  0
VERTEX
  5
2D0
  8
0
 10
6.794095225512605
 20
171.6703708685547
 30
3.0
 70
   192
  0
VERTEX
  5
2D1
  8
0
 10
5.842864315836268
 20
85.99409522551261
 30
3.0
 70
   192
  0
VERTEX
  5
2D2
  8
0
 10
6.342366428359416
 20
87.2
 30
3.0
 70
   192
  0
VERTEX
  5
2D3
  8
0
 10
7.13695954134887
 20
88.23553390593274
 30
3.0
 70
   192
  0
VERTEX
  5
2D4
  8
0
 10
7.999999999999998
 20
172.1698729810778
 30
3.0
 70
   192
  0
VERTEX
  5
2D5
  8
0
 10
8.172493447281603
 20
89.03012701892219
 30
3.0
 70
   192
  0
VERTEX
  5
2D6
  8
0
 10
9.035533905932732
 20
172.9644660940673
 30
3.0
 70
   192
  0
VERTEX
  5
2D7
  8
0
 10
9.378398221769002
 20
89.52962913144535
 30
3.0
 70
   192
  0
VERTEX
  5
2D8
  8
0
 10
9.830127018922187
 20
174.0
 30
3.0
 70
   192
  0
VERTEX
  5
2D9
  8
0
 10
10.6724934472816
 20
89.7
 30
3.0
 70
   192
  0
VERTEX
  5
2DA
  8
0
 10
10.32962913144533
 20
175.2059047744874
 30
3.0
 70
   192
  0
VERTEX
  5
2DB
  8
0
 10
10.49999999999999
 20
176.5
 30
3.0
 70
   192
  0
VERTEX
  5
2DC
  8
0
 10
10.5
 20
182.0
 30
3.0
 70
   192
  0
VERTEX
  5
2DD
  8
0
 10
15.5
 20
167.3
 30
3.0
 70
   192
  0
VERTEX
  5
2DE
  8
0
 10
35.02500000000001
 20
176.4889037387594
 30
3.0
 70
   192
  0
VERTEX
  5
2DF
  8
0
 10
136.55
 20
182.0
 30
3.0
 70
   192
  0
VERTEX
  5
2E0
  8
0
 10
11.96658867279421
 20
89.52962913144535
 30
3.0
 70
   192
  0
VERTEX
  5
2E1
  8
0
 10
13.1724934472816
 20
89.03012701892219
 30
3.0
 70
   192
  0
VERTEX
  5
2E2
  8
0
 10
14.20802735321434
 20
88.23553390593274
 30
3.0
 70
   192
  0
VERTEX
  5
2E3
  8
0
 10
24.61925960798826
 20
117.9058666578588
 30
3.000000000000014
 70
   192
  0
VERTEX
  5
2E4
  8
0
 10
24.96891108675446
 20
118.75
 30
3.000000000000014
 70
   192
  0
VERTEX
  5
2E5
  8
0
 10
25.52512626584708
 20
119.4748737341529
 30
3.000000000000014
 70
   192
  0
VERTEX
  5
2E6
  8
0
 10
26.24999999999999
 20
120.0310889132456
 30
3.000000000000014
 70
   192
  0
VERTEX
  5
2E7
  8
0
 10
27.09413334214117
 20
120.3807403920118
 30
3.000000000000014
 70
   192
  0
VERTEX
  5
2E8
  8
0
 10
27.99999999999999
 20
120.5
 30
3.000000000000014
 70
   192
  0
VERTEX
  5
2E9
  8
0
 10
28.90586665785882
 20
120.3807403920118
 30
3.000000000000014
 70
   192
  0
VERTEX
  5
2EA
  8
0
 10
29.74999999999999
 20
120.0310889132456
 30
3.000000000000014
 70
   192
  0
VERTEX
  5
2EB
  8
0
 10
30.47487373415291
 20
119.4748737341529
 30
3.000000000000014
 70
   192
  0
VERTEX
  5
2EC
  8
0
 10
31.03108891324553
 20
118.75
 30
3.000000000000014
 70
   192
  0
VERTEX
  5
2ED
  8
0
 10
31.38074039201173
 20
117.9058666578588
 30
3.000000000000014
 70
   192
  0
VERTEX
  5
2EE
  8
0
 10
31.5
 20
104.5
 30
3.0
 70
   192
  0
VERTEX
  5
2EF
  8
0
 10
35.02500000000001
 20
112.5
 30
3.0
 70
   192
  0
VERTEX
  5
2F0
  8
0
 10
112.0249999999999
 20
176.4889037387594
 30
3.0
 70
   192
  0
VERTEX
  5
2F1
  8
0
 10
123.05
 20
167.3
 30
3.0
 70
   192
  0
VERTEX
  5
2F2
  8
0
 10
115.6631633603709
 20
117.8828009834984
 30
3.000000000000006
 70
   192
  0
VERTEX
  5
2F3
  8
0
 10
115.5500813127955
 20
116.9761424444474
 30
3.000000000000006
 70
   192
  0
VERTEX
  5
2F4
  8
0
 10
116.0070527279248
 20
118.7292980944215
 30
3.000000000000006
 70
   192
  0
VERTEX
  5
2F5
  8
0
 10
116.5583139233625
 20
119.4579463980101
 30
3.000000000000006
 70
   192
  0
VERTEX
  5
2F6
  8
0
 10
117.2793794072171
 20
120.0190897165227
 30
3.000000000000006
 70
   192
  0
VERTEX
  5
2F7
  8
0
 10
118.121109758381
 20
120.3744870601359
 30
3.000000000000006
 70
   192
  0
VERTEX
  5
2F8
  8
0
 10
119.0261424444475
 20
120.4999186872045
 30
3.000000000000006
 70
   192
  0
VERTEX
  5
2F9
  8
0
 10
119.9328009834984
 20
120.3868366396291
 30
3.000000000000006
 70
   192
  0
VERTEX
  5
2FA
  8
0
 10
120.7792980944215
 20
120.0429472720753
 30
3.000000000000006
 70
   192
  0
VERTEX
  5
2FB
  8
0
 10
121.5079463980101
 20
119.4916860766376
 30
3.000000000000006
 70
   192
  0
VERTEX
  5
2FC
  8
0
 10
122.0690897165227
 20
118.770620592783
 30
3.000000000000006
 70
   192
  0
VERTEX
  5
2FD
  8
0
 10
122.424487060136
 20
117.9288902416191
 30
3.000000000000006
 70
   192
  0
VERTEX
  5
2FE
  8
0
 10
122.5499186872045
 20
117.0238575555526
 30
3.000000000000006
 70
   192
  0
VERTEX
  5
2FF
  8
0
 10
123.05
 20
125.0
 30
3.0
 70
   192
  0
VERTEX
  5
300
  8
0
 10
123.05
 20
131.0
 30
3.0
 70
   192
  0
VERTEX
  5
301
  8
0
 10
123.05
 20
137.1
 30
3.0
 70
   192
  0
VERTEX
  5
302
  8
0
 10
123.05
 20
143.1
 30
3.0
 70
   192
  0
VERTEX
  5
303
  8
0
 10
123.05
 20
149.2
 30
3.0
 70
   192
  0
VERTEX
  5
304
  8
0
 10
123.05
 20
155.2
 30
3.0
 70
   192
  0
VERTEX
  5
305
  8
0
 10
123.05
 20
162.3
 30
3.0
 70
   192
  0
VERTEX
  5
306
  8
0
 10
112.0249999999999
 20
112.5
 30
3.0
 70
   192
  0
VERTEX
  5
307
  8
0
 10
47.5
 20
104.5
 30
3.0
 70
   192
  0
VERTEX
  5
308
  8
0
 10
42.95311566887465
 20
89.52962913144535
 30
3.0
 70
   192
  0
VERTEX
  5
309
  8
0
 10
44.24721089438727
 20
89.7
 30
3.0
 70
   192
  0
VERTEX
  5
30A
  8
0
 10
45.54130611989986
 20
89.52962913144535
 30
3.0
 70
   192
  0
VERTEX
  5
30B
  8
0
 10
63.5
 20
104.5
 30
3.0
 70
   192
  0
VERTEX
  5
30C
  8
0
 10
79.49999999999999
 20
104.5
 30
3.0
 70
   192
  0
VERTEX
  5
30D
  8
0
 10
95.49999999999999
 20
104.5
 30
3.0
 70
   192
  0
VERTEX
  5
30E
  8
0
 10
110.2393468449602
 20
104.5
 30
3.0
 70
   192
  0
VERTEX
  5
30F
  8
0
 10
117.3207019055785
 20
113.9570527279248
 30
3.000000000000006
 70
   192
  0
VERTEX
  5
310
  8
0
 10
116.59205360199
 20
114.5083139233625
 30
3.000000000000006
 70
   192
  0
VERTEX
  5
311
  8
0
 10
116.0309102834773
 20
115.2293794072171
 30
3.000000000000006
 70
   192
  0
VERTEX
  5
312
  8
0
 10
115.6755129398641
 20
116.0711097583809
 30
3.000000000000006
 70
   192
  0
VERTEX
  5
313
  8
0
 10
118.1671990165016
 20
113.6131633603709
 30
3.000000000000006
 70
   192
  0
VERTEX
  5
314
  8
0
 10
119.0738575555526
 20
113.5000813127955
 30
3.000000000000006
 70
   192
  0
VERTEX
  5
315
  8
0
 10
119.9788902416191
 20
113.6255129398641
 30
3.000000000000006
 70
   192
  0
VERTEX
  5
316
  8
0
 10
120.820620592783
 20
113.9809102834773
 30
3.000000000000006
 70
   192
  0
VERTEX
  5
317
  8
0
 10
121.5416860766376
 20
114.54205360199
 30
3.000000000000006
 70
   192
  0
VERTEX
  5
318
  8
0
 10
122.0929472720753
 20
115.2707019055785
 30
3.000000000000006
 70
   192
  0
VERTEX
  5
319
  8
0
 10
122.4368366396291
 20
116.1171990165016
 30
3.000000000000006
 70
   192
  0
VERTEX
  5
31A
  8
0
 10
105.7535984891933
 20
29.80000000000001
 30
3.0
 70
   192
  0
VERTEX
  5
31B
  8
0
 10
111.46
 20
35.3
 30
3.0
 70
   192
  0
VERTEX
  5
31C
  8
0
 10
105.7535984891933
 20
14.84000000000001
 30
3.0
 70
   192
  0
VERTEX
  5
31D
  8
0
 10
105.7535984891933
 20
19.80000000000001
 30
3.0
 70
   192
  0
VERTEX
  5
31E
  8
0
 10
111.46
 20
45.3
 30
3.0
 70
   192
  0
VERTEX
  5
31F
  8
0
 10
111.46
 20
50.1
 30
3.0
 70
   192
  0
VERTEX
  5
320
  8
0
 10
111.46
 20
60.1
 30
3.0
 70
   192
  0
VERTEX
  5
321
  8
0
 10
111.46
 20
64.89999999999999
 30
3.0
 70
   192
  0
VERTEX
  5
322
  8
0
 10
111.46
 20
74.89999999999999
 30
3.0
 70
   192
  0
VERTEX
  5
323
  8
0
 10
111.46
 20
79.7
 30
3.0
 70
   192
  0
VERTEX
  5
324
  8
0
 10
90.79359848919327
 20
29.8
 30
3.0
 70
   192
  0
VERTEX
  5
325
  8
0
 10
96.50000000000003
 20
35.3
 30
3.0
 70
   192
  0
VERTEX
  5
326
  8
0
 10
90.79359848919327
 20
14.84000000000001
 30
3.0
 70
   192
  0
VERTEX
  5
327
  8
0
 10
90.79359848919327
 20
19.80000000000001
 30
3.0
 70
   192
  0
VERTEX
  5
328
  8
0
 10
96.50000000000003
 20
45.3
 30
3.0
 70
   192
  0
VERTEX
  5
329
  8
0
 10
96.50000000000003
 20
50.1
 30
3.0
 70
   192
  0
VERTEX
  5
32A
  8
0
 10
96.50000000000003
 20
60.1
 30
3.0
 70
   192
  0
VERTEX
  5
32B
  8
0
 10
96.50000000000003
 20
64.89999999999999
 30
3.0
 70
   192
  0
VERTEX
  5
32C
  8
0
 10
96.50000000000003
 20
74.89999999999999
 30
3.0
 70
   192
  0
VERTEX
  5
32D
  8
0
 10
96.50000000000003
 20
79.7
 30
3.0
 70
   192
  0
VERTEX
  5
32E
  8
0
 10
66.58000000000003
 20
35.3
 30
3.0
 70
   192
  0
VERTEX
  5
32F
  8
0
 10
66.58000000000003
 20
45.3
 30
3.0
 70
   192
  0
VERTEX
  5
330
  8
0
 10
66.58000000000003
 20
50.1
 30
3.0
 70
   192
  0
VERTEX
  5
331
  8
0
 10
66.58000000000003
 20
60.1
 30
3.0
 70
   192
  0
VERTEX
  5
332
  8
0
 10
66.58000000000003
 20
64.89999999999999
 30
3.0
 70
   192
  0
VERTEX
  5
333
  8
0
 10
66.58000000000003
 20
74.89999999999999
 30
3.0
 70
   192
  0
VERTEX
  5
334
  8
0
 10
66.58000000000003
 20
79.7
 30
3.0
 70
   192
  0
VERTEX
  5
335
  8
0
 10
22.48000000000003
 20
55.09999999999998
 30
3.0
 70
   192
  0
VERTEX
  5
336
  8
0
 10
22.65037086855468
 20
41.59409522551261
 30
3.0
 70
   192
  0
VERTEX
  5
337
  8
0
 10
22.65037086855469
 20
53.80590477448737
 30
3.0
 70
   192
  0
VERTEX
  5
338
  8
0
 10
23.14987298107783
 20
42.8
 30
3.0
 70
   192
  0
VERTEX
  5
339
  8
0
 10
23.14987298107784
 20
52.59999999999998
 30
3.0
 70
   192
  0
VERTEX
  5
33A
  8
0
 10
23.94446609406729
 20
43.83553390593275
 30
3.0
 70
   192
  0
VERTEX
  5
33B
  8
0
 10
23.94446609406729
 20
51.56446609406724
 30
3.0
 70
   192
  0
VERTEX
  5
33C
  8
0
 10
24.98000000000003
 20
44.6301270189222
 30
3.0
 70
   192
  0
VERTEX
  5
33D
  8
0
 10
24.98000000000004
 20
50.7698729810778
 30
3.0
 70
   192
  0
VERTEX
  5
33E
  8
0
 10
26.18590477448742
 20
45.12962913144535
 30
3.0
 70
   192
  0
VERTEX
  5
33F
  8
0
 10
26.18590477448743
 20
50.27037086855464
 30
3.0
 70
   192
  0
VERTEX
  5
340
  8
0
 10
27.48000000000003
 20
45.3
 30
3.0
 70
   192
  0
VERTEX
  5
341
  8
0
 10
27.48000000000003
 20
50.09999999999999
 30
3.0
 70
   192
  0
VERTEX
  5
342
  8
0
 10
28.77409522551263
 20
45.12962913144535
 30
3.0
 70
   192
  0
VERTEX
  5
343
  8
0
 10
28.77409522551263
 20
50.27037086855465
 30
3.0
 70
   192
  0
VERTEX
  5
344
  8
0
 10
29.98000000000003
 20
44.6301270189222
 30
3.0
 70
   192
  0
VERTEX
  5
345
  8
0
 10
29.98000000000003
 20
50.7698729810778
 30
3.0
 70
   192
  0
VERTEX
  5
346
  8
0
 10
31.01553390593277
 20
43.83553390593274
 30
3.0
 70
   192
  0
VERTEX
  5
347
  8
0
 10
31.01553390593277
 20
51.56446609406726
 30
3.0
 70
   192
  0
VERTEX
  5
348
  8
0
 10
31.81012701892222
 20
42.8
 30
3.0
 70
   192
  0
VERTEX
  5
349
  8
0
 10
31.81012701892222
 20
52.59999999999999
 30
3.0
 70
   192
  0
VERTEX
  5
34A
  8
0
 10
32.30962913144537
 20
41.59409522551261
 30
3.0
 70
   192
  0
VERTEX
  5
34B
  8
0
 10
32.30962913144537
 20
53.80590477448739
 30
3.0
 70
   192
  0
VERTEX
  5
34C
  8
0
 10
32.48000000000002
 20
55.1
 30
3.0
 70
   192
  0
VERTEX
  5
34D
  8
0
 10
22.65037086855468
 20
71.1940952255126
 30
3.0
 70
   192
  0
VERTEX
  5
34E
  8
0
 10
22.65037086855469
 20
83.40590477448738
 30
3.0
 70
   192
  0
VERTEX
  5
34F
  8
0
 10
23.14987298107783
 20
72.39999999999999
 30
3.0
 70
   192
  0
VERTEX
  5
350
  8
0
 10
23.14987298107784
 20
82.2
 30
3.0
 70
   192
  0
VERTEX
  5
351
  8
0
 10
23.94446609406728
 20
73.43553390593273
 30
3.0
 70
   192
  0
VERTEX
  5
352
  8
0
 10
23.94446609406729
 20
81.16446609406725
 30
3.0
 70
   192
  0
VERTEX
  5
353
  8
0
 10
24.98000000000003
 20
74.23012701892219
 30
3.0
 70
   192
  0
VERTEX
  5
354
  8
0
 10
24.98000000000004
 20
80.36987298107782
 30
3.0
 70
   192
  0
VERTEX
  5
355
  8
0
 10
26.18590477448742
 20
74.72962913144534
 30
3.0
 70
   192
  0
VERTEX
  5
356
  8
0
 10
26.18590477448743
 20
79.87037086855466
 30
3.0
 70
   192
  0
VERTEX
  5
357
  8
0
 10
27.48000000000003
 20
74.89999999999999
 30
3.0
 70
   192
  0
VERTEX
  5
358
  8
0
 10
27.48000000000003
 20
79.7
 30
3.0
 70
   192
  0
VERTEX
  5
359
  8
0
 10
28.77409522551263
 20
74.72962913144534
 30
3.0
 70
   192
  0
VERTEX
  5
35A
  8
0
 10
28.77409522551263
 20
79.87037086855466
 30
3.0
 70
   192
  0
VERTEX
  5
35B
  8
0
 10
29.98000000000003
 20
74.23012701892219
 30
3.0
 70
   192
  0
VERTEX
  5
35C
  8
0
 10
29.98000000000003
 20
80.36987298107782
 30
3.0
 70
   192
  0
VERTEX
  5
35D
  8
0
 10
31.01553390593277
 20
73.43553390593273
 30
3.0
 70
   192
  0
VERTEX
  5
35E
  8
0
 10
31.01553390593277
 20
81.16446609406727
 30
3.0
 70
   192
  0
VERTEX
  5
35F
  8
0
 10
31.81012701892222
 20
72.4
 30
3.0
 70
   192
  0
VERTEX
  5
360
  8
0
 10
31.81012701892222
 20
82.2
 30
3.0
 70
   192
  0
VERTEX
  5
361
  8
0
 10
32.30962913144537
 20
71.1940952255126
 30
3.0
 70
   192
  0
VERTEX
  5
362
  8
0
 10
32.30962913144537
 20
83.4059047744874
 30
3.0
 70
   192
  0
VERTEX
  5
363
  8
0
 10
22.65037086855468
 20
68.60590477448739
 30
3.0
 70
   192
  0
VERTEX
  5
364
  8
0
 10
22.65037086855468
 20
56.39409522551258
 30
3.0
 70
   192
  0
VERTEX
  5
365
  8
0
 10
23.14987298107783
 20
57.59999999999999
 30
3.0
 70
   192
  0
VERTEX
  5
366
  8
0
 10
23.14987298107783
 20
67.39999999999999
 30
3.0
 70
   192
  0
VERTEX
  5
367
  8
0
 10
23.94446609406728
 20
58.63553390593272
 30
3.0
 70
   192
  0
VERTEX
  5
368
  8
0
 10
23.94446609406729
 20
66.36446609406727
 30
3.0
 70
   192
  0
VERTEX
  5
369
  8
0
 10
24.98000000000002
 20
59.43012701892218
 30
3.0
 70
   192
  0
VERTEX
  5
36A
  8
0
 10
24.98000000000003
 20
65.5698729810778
 30
3.0
 70
   192
  0
VERTEX
  5
36B
  8
0
 10
26.18590477448742
 20
59.92962913144532
 30
3.0
 70
   192
  0
VERTEX
  5
36C
  8
0
 10
26.18590477448742
 20
65.07037086855465
 30
3.0
 70
   192
  0
VERTEX
  5
36D
  8
0
 10
27.48000000000002
 20
60.09999999999999
 30
3.0
 70
   192
  0
VERTEX
  5
36E
  8
0
 10
27.48000000000003
 20
64.89999999999999
 30
3.0
 70
   192
  0
VERTEX
  5
36F
  8
0
 10
28.77409522551262
 20
59.92962913144532
 30
3.0
 70
   192
  0
VERTEX
  5
370
  8
0
 10
28.77409522551263
 20
65.07037086855466
 30
3.0
 70
   192
  0
VERTEX
  5
371
  8
0
 10
29.98000000000002
 20
59.43012701892218
 30
3.0
 70
   192
  0
VERTEX
  5
372
  8
0
 10
29.98000000000003
 20
65.56987298107781
 30
3.0
 70
   192
  0
VERTEX
  5
373
  8
0
 10
31.01553390593276
 20
58.63553390593272
 30
3.0
 70
   192
  0
VERTEX
  5
374
  8
0
 10
31.01553390593277
 20
66.36446609406727
 30
3.0
 70
   192
  0
VERTEX
  5
375
  8
0
 10
31.81012701892222
 20
57.59999999999999
 30
3.0
 70
   192
  0
VERTEX
  5
376
  8
0
 10
31.81012701892222
 20
67.4
 30
3.0
 70
   192
  0
VERTEX
  5
377
  8
0
 10
32.30962913144536
 20
56.3940952255126
 30
3.0
 70
   192
  0
VERTEX
  5
378
  8
0
 10
32.30962913144537
 20
68.6059047744874
 30
3.0
 70
   192
  0
VERTEX
  5
379
  8
0
 10
81.54000000000002
 20
79.7
 30
3.0
 70
   192
  0
VERTEX
  5
37A
  8
0
 10
75.83359848919326
 20
29.80000000000001
 30
3.0
 70
   192
  0
VERTEX
  5
37B
  8
0
 10
81.44000000000003
 20
35.3
 30
3.0
 70
   192
  0
VERTEX
  5
37C
  8
0
 10
75.83359848919326
 20
19.80000000000001
 30
3.0
 70
   192
  0
VERTEX
  5
37D
  8
0
 10
81.44000000000003
 20
45.3
 30
3.0
 70
   192
  0
VERTEX
  5
37E
  8
0
 10
81.54000000000002
 20
50.1
 30
3.0
 70
   192
  0
VERTEX
  5
37F
  8
0
 10
81.54000000000002
 20
60.1
 30
3.0
 70
   192
  0
VERTEX
  5
380
  8
0
 10
81.74000000000002
 20
64.89999999999999
 30
3.0
 70
   192
  0
VERTEX
  5
381
  8
0
 10
61.02692907775384
 20
14.84000000000001
 30
3.0
 70
   192
  0
VERTEX
  5
382
  8
0
 10
70.87359848919327
 20
19.80000000000001
 30
3.0
 70
   192
  0
VERTEX
  5
383
  8
0
 10
0.0
 20
0.0
 30
0.0
 70
   128
 71
    -1
 72
    -2
 73
    -3
  0
VERTEX
  5
384
  8
0
 10
0.0
 20
0.0
 30
0.0
 70
   128
 71
    -2
 72
     1
 73
    -4
  0
VERTEX
  5
385
  8
0
 10
0.0
 20
0.0
 30
0.0
 70
   128
 71
    -2
 72
    -4
 73
     5
  0
VERTEX
  5
386
  8
0
 10
0.0
 20
0.0
 30
0.0
 70
   128
 71
    -5
 72
    -4
 73
     6
  0
VERTEX
  5
387
  8
0
 10
0.0
 20
0.0
 30
0.0
 70
   128
 71
    -6
 72
     4
 73
    -7
  0
VERTEX
  5
388
  8
0
 10
0.0
 20
0.0
 30
0.0
 70
   128
 71
    -6
 72
    -7
 73
     8
  0
VERTEX
  5
389
  8
0
 10
0.0
 20
0.0
 30
0.0
 70
   128
 71
    -8
 72
     7
 73
    -9
  0
VERTEX
  5
38A
  8
0
 10
0.0
 20
0.0
 30
0.0
 70
   128
 71
    -8
 72
    -9
 73
    10
  0
VERTEX
  5
38B
  8
0
 10
0.0
 20
0.0
 30
0.0
 70
   128
 71
   -10
 72
     9
 73
   -11
  0
VERTEX
  5
38C
  8
0
 10
0.0
 20
0.0
 30
0.0
 70
   128
 71
   -10
 72
   -11
 73
    12
  0
VERTEX
  5
38D
  8
0
 10
0.0
 20
0.0
 30
0.0
 70
   128
 71
   -12
 72
    11
 73
   -13
  0
VERTEX
  5
38E
  8
0
 10
0.0
 20
0.0
 30
0.0
 70
   128
 71
   -12
 72
   -13
 73
    14
  0
VERTEX
  5
38F
  8
0
 10
0.0
 20
0.0
 30
0.0
 70
   128
 71
   -14
 72
    13
 73
   -15
  0
VERTEX
  5
390
  8
0
 10
0.0
 20
0.0
 30
0.0
 70
   128
 71
   -14
 72
   -15
 73
    16
  0
VERTEX
  5
391
  8
0
 10
0.0
 20
0.0
 30
0.0
 70
   128
 71
   -16
 72
    15
 73
   -17
  0
VERTEX
  5
392
  8
0
 10
0.0
 20
0.0
 30
0.0
 70
   128
 71
   -16
 72
   -17
 73
    18
  0
VERTEX
  5
393
  8
0
 10
0.0
 20
0.0
 30
0.0
 70
   128
 71
   -18
 72
    17
 73
   -19
  0
VERTEX
  5
394
  8
0
 10
0.0
 20
0.0
 30
0.0
 70
   128
 71
   -18
 72
   -19
 73
    20
  0
VERTEX
  5
395
  8
0
 10
0.0
 20
0.0
 30
0.0
 70
   128
 71
   -20
 72
    19
 73
   -21
  0
VERTEX
  5
396
  8
0
 10
0.0
 20
0.0
 30
0.0
 70
   128
 71
   -20
 72
   -21
 73
    22
  0
VERTEX
  5
397
  8
0
 10
0.0
 20
0.0
 30
0.0
 70
   128
 71
   -22
 72
    21
 73
   -23
  0
VERTEX
  5
398
  8
0
 10
0.0
 20
0.0
 30
0.0
 70
   128
 71
   -22
 72
   -23
 73
    24
  0
VERTEX
  5
399
  8
0
 10
0.0
 20
0.0
 30
0.0
 70
   128
 71
   -24
 72
    23
 73
   -25
  0
VERTEX
  5
39A
  8
0
 10
0.0
 20
0.0
 30
0.0
 70
   128
 71
   -24
 72
   -25
 73
    26
  0
VERTEX
  5
39B
  8
0
 10
0.0
 20
0.0
 30
0.0
 70
   128
 71
   -26
 72
    25
 73
   -27
  0
VERTEX
  5
39C
  8
0
 10
0.0
 20
0.0
 30
0.0
 70
   128
 71
   -26
 72
   -27
 73
   -28
  0
VERTEX
  5
39D
  8
0
 10
0.0
 20
0.0
 30
0.0
 70
   128
 71
   -29
 72
    30
 73
    -1
  0
VERTEX
  5
39E
  8
0
 10
0.0
 20
0.0
 30
0.0
 70
   128
 71
   -30
 72
   -29
 73
    31
  0
VERTEX
  5
39F
  8
0
 10
0.0
 20
0.0
 30
0.0
 70
   128
 71
   -31
 72
   -29
 73
    32
  0
VERTEX
  5
3A0
  8
0
 10
0.0
 20
0.0
 30
0.0
 70
   128
 71
   -32
 72
   -29
 73
    33
  0
VERTEX
  5
3A1
  8
0
 10
0.0
 20
0.0
 30
0.0
 70
   128
 71
   -33
 72
    29
 73
   -34
  0
VERTEX
  5
3A2
  8
0
 10
0.0
 20
0.0
 30
0.0
 70
   128
 71
   -33
 72
   -34
 73
    35
  0
VERTEX
  5
3A3
  8
0
 10
0.0
 20
0.0
 30
0.0
 70
   128
 71
   -35
 72
   -34
 73
    36
  0
VERTEX
  5
3A4
  8
0
 10
0.0
 20
0.0
 30
0.0
 70
   128
 71
   -36
 72
   -34
 73
    37
  0
VERTEX
  5
3A5
  8
0
 10
0.0
 20
0.0
 30
0.0
 70
   128
 71
   -37
 72
   -34
 73
    38
  0
VERTEX
  5
3A6
  8
0
 10
0.0
 20
0.0
 30
0.0
 70
   128
 71
   -38
 72
   -34
 73
    39
  0
VERTEX
  5
3A7
  8
0
 10
0.0
 20
0.0
 30
0.0
 70
   128
 71
   -39
 72
   -34
 73
    40
  0
VERTEX
  5
3A8
  8
0
 10
0.0
 20
0.0
 30
0.0
 70
   128
 71
   -40
 72
   -34
 73
    41
  0
VERTEX
  5
3A9
  8
0
 10
0.0
 20
0.0
 30
0.0
 70
   128
 71
   -41
 72
   -34
 73
    27
  0
VERTEX
  5
3AA
  8
0
 10
0.0
 20
0.0
 30
0.0
 70
   128
 71
    -2
 72
    42
 73
    -3
  0
VERTEX
  5
3AB
  8
0
 10
0.0
 20
0.0
 30
0.0
 70
   128
 71
   -42
 72
     2
 73
   -43
  0
VERTEX
  5
3AC
  8
0
 10
0.0
 20
0.0
 30
0.0
 70
   128
 71
   -42
 72
   -43
 73
    44
  0
VERTEX
  5
3AD
  8
0
 10
0.0
 20
0.0
 30
0.0
 70
   128
 71
   -44
 72
    43
 73
   -45
  0
VERTEX
  5
3AE
  8
0
 10
0.0
 20
0.0
 30
0.0
 70
   128
 71
   -44
 72
   -45
 73
    46
  0
VERTEX
  5
3AF
  8
0
 10
0.0
 20
0.0
 30
0.0
 70
   128
 71
   -46
 72
    45
 73
   -47
  0
VERTEX
  5
3B0
  8
0
 10
0.0
 20
0.0
 30
0.0
 70
   128
 71
   -46
 72
   -47
 73
    48
  0
VERTEX
  5
3B1
  8
0
 10
0.0
 20
0.0
 30
0.0
 70
   128
 71
   -48
 72
    47
 73
   -49
  0
VERTEX
  5
3B2
  8
0
 10
0.0
 20
0.0
 30
0.0
 70
   128
 71
   -48
 72
   -49
 73
    50
  0
VERTEX
  5
3B3
  8
0
 10
0.0
 20
0.0
 30
0.0
 70
   128
 71
   -50
 72
    49
 73
   -51
  0
VERTEX
  5
3B4
  8
0
 10
0.0
 20
0.0
 30
0.0
 70
   128
 71
   -50
 72
   -51
 73
    52
  0
VERTEX
  5
3B5
  8
0
 10
0.0
 20
0.0
 30
0.0
 70
   128
 71
   -52
 72
    51
 73
   -53
  0
VERTEX
  5
3B6
  8
0
 10
0.0
 20
0.0
 30
0.0
 70
   128
 71
   -52
 72
   -53
 73
    54
  0
VERTEX
  5
3B7
  8
0
 10
0.0
 20
0.0
 30
0.0
 70
   128
 71
   -54
 72
    53
 73
   -55
  0
VERTEX
  5
3B8
  8
0
 10
0.0
 20
0.0
 30
0.0
 70
   128
 71
   -54
 72
   -55
 73
    56
  0
VERTEX
  5
3B9
  8
0
 10
0.0
 20
0.0
 30
0.0
 70
   128
 71
   -56
 72
    55
 73
   -57
  0
VERTEX
  5
3BA
  8
0
 10
0.0
 20
0.0
 30
0.0
 70
   128
 71
   -56
 72
   -57
 73
    58
  0
VERTEX
  5
3BB
  8
0
 10
0.0
 20
0.0
 30
0.0
 70
   128
 71
   -58
 72
    57
 73
   -59
  0
VERTEX
  5
3BC
  8
0
 10
0.0
 20
0.0
 30
0.0
 70
   128
 71
   -58
 72
   -59
 73
    60
  0
VERTEX
  5
3BD
  8
0
 10
0.0
 20
0.0
 30
0.0
 70
   128
 71
   -60
 72
    59
 73
   -61
  0
VERTEX
  5
3BE
  8
0
 10
0.0
 20
0.0
 30
0.0
 70
   128
 71
   -60
 72
   -61
 73
    62
  0
VERTEX
  5
3BF
  8
0
 10
0.0
 20
0.0
 30
0.0
 70
   128
 71
   -62
 72
    61
 73
   -63
  0
VERTEX
  5
3C0
  8
0
 10
0.0
 20
0.0
 30
0.0
 70
   128
 71
   -62
 72
   -63
 73
    28
  0
VERTEX
  5
3C1
  8
0
 10
0.0
 20
0.0
 30
0.0
 70
   128
 71
   -28
 72
    63
 73
   -26
  0
VERTEX
  5
3C2
  8
0
 10
0.0
 20
0.0
 30
0.0
 70
   128
 71
   -64
 72
    65
 73
    66
  0
VERTEX
  5
3C3
  8
0
 10
0.0
 20
0.0
 30
0.0
 70
   128
 71
   -65
 72
   -64
 73
    67
  0
VERTEX
  5
3C4
  8
0
 10
0.0
 20
0.0
 30
0.0
 70
   128
 71
   -67
 72
   -64
 73
   -68
  0
VERTEX
  5
3C5
  8
0
 10
0.0
 20
0.0
 30
0.0
 70
   128
 71
   -68
 72
   -64
 73
    69
  0
VERTEX
  5
3C6
  8
0
 10
0.0
 20
0.0
 30
0.0
 70
   128
 71
   -69
 72
    64
 73
   -70
  0
VERTEX
  5
3C7
  8
0
 10
0.0
 20
0.0
 30
0.0
 70
   128
 71
   -69
 72
   -70
 73
    71
  0
VERTEX
  5
3C8
  8
0
 10
0.0
 20
0.0
 30
0.0
 70
   128
 71
   -71
 72
   -70
 73
    72
  0
VERTEX
  5
3C9
  8
0
 10
0.0
 20
0.0
 30
0.0
 70
   128
 71
   -72
 72
   -70
 73
    73
  0
VERTEX
  5
3CA
  8
0
 10
0.0
 20
0.0
 30
0.0
 70
   128
 71
   -73
 72
    70
 73
   -74
  0
VERTEX
  5
3CB
  8
0
 10
0.0
 20
0.0
 30
0.0
 70
   128
 71
   -73
 72
   -74
 73
    75
  0
VERTEX
  5
3CC
  8
0
 10
0.0
 20
0.0
 30
0.0
 70
   128
 71
   -75
 72
   -74
 73
    76
  0
VERTEX
  5
3CD
  8
0
 10
0.0
 20
0.0
 30
0.0
 70
   128
 71
   -76
 72
    74
 73
   -77
  0
VERTEX
  5
3CE
  8
0
 10
0.0
 20
0.0
 30
0.0
 70
   128
 71
   -76
 72
   -77
 73
    78
  0
VERTEX
  5
3CF
  8
0
 10
0.0
 20
0.0
 30
0.0
 70
   128
 71
   -78
 72
    77
 73
   -79
  0
VERTEX
  5
3D0
  8
0
 10
0.0
 20
0.0
 30
0.0
 70
   128
 71
   -78
 72
   -79
 73
    80
  0
VERTEX
  5
3D1
  8
0
 10
0.0
 20
0.0
 30
0.0
 70
   128
 71
   -80
 72
    79
 73
   -81
  0
VERTEX
  5
3D2
  8
0
 10
0.0
 20
0.0
 30
0.0
 70
   128
 71
   -80
 72
    81
 73
   -82
  0
VERTEX
  5
3D3
  8
0
 10
0.0
 20
0.0
 30
0.0
 70
   128
 71
   -80
 72
   -82
 73
    83
  0
VERTEX
  5
3D4
  8
0
 10
0.0
 20
0.0
 30
0.0
 70
   128
 71
   -84
 72
   -85
 73
    68
  0
VERTEX
  5
3D5
  8
0
 10
0.0
 20
0.0
 30
0.0
 70
   128
 71
   -85
 72
    84
 73
   -86
  0
VERTEX
  5
3D6
  8
0
 10
0.0
 20
0.0
 30
0.0
 70
   128
 71
   -85
 72
    86
 73
   -87
  0
VERTEX
  5
3D7
  8
0
 10
0.0
 20
0.0
 30
0.0
 70
   128
 71
   -85
 72
   -87
 73
    88
  0
VERTEX
  5
3D8
  8
0
 10
0.0
 20
0.0
 30
0.0
 70
   128
 71
   -88
 72
    87
 73
   -89
  0
VERTEX
  5
3D9
  8
0
 10
0.0
 20
0.0
 30
0.0
 70
   128
 71
   -88
 72
    89
 73
   -90
  0
VERTEX
  5
3DA
  8
0
 10
0.0
 20
0.0
 30
0.0
 70
   128
 71
   -88
 72
    90
 73
   -91
  0
VERTEX
  5
3DB
  8
0
 10
0.0
 20
0.0
 30
0.0
 70
   128
 71
   -88
 72
    91
 73
   -92
  0
VERTEX
  5
3DC
  8
0
 10
0.0
 20
0.0
 30
0.0
 70
   128
 71
   -88
 72
    92
 73
   -93
  0
VERTEX
  5
3DD
  8
0
 10
0.0
 20
0.0
 30
0.0
 70
   128
 71
   -88
 72
    93
 73
   -94
  0
VERTEX
  5
3DE
  8
0
 10
0.0
 20
0.0
 30
0.0
 70
   128
 71
   -88
 72
    94
 73
   -95
  0
VERTEX
  5
3DF
  8
0
 10
0.0
 20
0.0
 30
0.0
 70
   128
 71
   -88
 72
    95
 73
   -96
  0
VERTEX
  5
3E0
  8
0
 10
0.0
 20
0.0
 30
0.0
 70
   128
 71
   -88
 72
    96
 73
   -97
  0
VERTEX
  5
3E1
  8
0
 10
0.0
 20
0.0
 30
0.0
 70
   128
 71
   -88
 72
   -97
 73
   -98
  0
VERTEX
  5
3E2
  8
0
 10
0.0
 20
0.0
 30
0.0
 70
   128
 71
   -98
 72
   -97
 73
    99
  0
VERTEX
  5
3E3
  8
0
 10
0.0
 20
0.0
 30
0.0
 70
   128
 71
   -88
 72
    98
 73
  -100
  0
VERTEX
  5
3E4
  8
0
 10
0.0
 20
0.0
 30
0.0
 70
   128
 71
   -88
 72
  -100
 73
    34
  0
VERTEX
  5
3E5
  8
0
 10
0.0
 20
0.0
 30
0.0
 70
   128
 71
   -34
 72
  -100
 73
  -101
  0
VERTEX
  5
3E6
  8
0
 10
0.0
 20
0.0
 30
0.0
 70
   128
 71
   -34
 72
   101
 73
  -102
  0
VERTEX
  5
3E7
  8
0
 10
0.0
 20
0.0
 30
0.0
 70
   128
 71
  -101
 72
  -100
 73
   103
  0
VERTEX
  5
3E8
  8
0
 10
0.0
 20
0.0
 30
0.0
 70
   128
 71
  -103
 72
  -100
 73
   104
  0
VERTEX
  5
3E9
  8
0
 10
0.0
 20
0.0
 30
0.0
 70
   128
 71
  -104
 72
  -100
 73
   105
  0
VERTEX
  5
3EA
  8
0
 10
0.0
 20
0.0
 30
0.0
 70
   128
 71
  -105
 72
  -100
 73
   106
  0
VERTEX
  5
3EB
  8
0
 10
0.0
 20
0.0
 30
0.0
 70
   128
 71
  -107
 72
  -108
 73
   109
  0
VERTEX
  5
3EC
  8
0
 10
0.0
 20
0.0
 30
0.0
 70
   128
 71
  -108
 72
  -107
 73
  -110
  0
VERTEX
  5
3ED
  8
0
 10
0.0
 20
0.0
 30
0.0
 70
   128
 71
  -108
 72
  -110
 73
   111
  0
VERTEX
  5
3EE
  8
0
 10
0.0
 20
0.0
 30
0.0
 70
   128
 71
  -111
 72
  -110
 73
   112
  0
VERTEX
  5
3EF
  8
0
 10
0.0
 20
0.0
 30
0.0
 70
   128
 71
  -112
 72
  -110
 73
  -113
  0
VERTEX
  5
3F0
  8
0
 10
0.0
 20
0.0
 30
0.0
 70
   128
 71
  -113
 72
  -110
 73
   114
  0
VERTEX
  5
3F1
  8
0
 10
0.0
 20
0.0
 30
0.0
 70
   128
 71
  -114
 72
  -110
 73
  -115
  0
VERTEX
  5
3F2
  8
0
 10
0.0
 20
0.0
 30
0.0
 70
   128
 71
  -115
 72
  -110
 73
   116
  0
VERTEX
  5
3F3
  8
0
 10
0.0
 20
0.0
 30
0.0
 70
   128
 71
  -116
 72
  -110
 73
  -117
  0
VERTEX
  5
3F4
  8
0
 10
0.0
 20
0.0
 30
0.0
 70
   128
 71
  -117
 72
  -110
 73
   118
  0
VERTEX
  5
3F5
  8
0
 10
0.0
 20
0.0
 30
0.0
 70
   128
 71
  -110
 72
  -107
 73
   119
  0
VERTEX
  5
3F6
  8
0
 10
0.0
 20
0.0
 30
0.0
 70
   128
 71
  -119
 72
  -107
 73
   120
  0
VERTEX
  5
3F7
  8
0
 10
0.0
 20
0.0
 30
0.0
 70
   128
 71
  -120
 72
  -107
 73
   121
  0
VERTEX
  5
3F8
  8
0
 10
0.0
 20
0.0
 30
0.0
 70
   128
 71
  -116
 72
  -122
 73
   123
  0
VERTEX
  5
3F9
  8
0
 10
0.0
 20
0.0
 30
0.0
 70
   128
 71
  -122
 72
  -116
 73
   117
  0
VERTEX
  5
3FA
  8
0
 10
0.0
 20
0.0
 30
0.0
 70
   128
 71
  -114
 72
  -124
 73
   125
  0
VERTEX
  5
3FB
  8
0
 10
0.0
 20
0.0
 30
0.0
 70
   128
 71
  -124
 72
  -114
 73
   115
  0
VERTEX
  5
3FC
  8
0
 10
0.0
 20
0.0
 30
0.0
 70
   128
 71
  -112
 72
  -126
 73
   127
  0
VERTEX
  5
3FD
  8
0
 10
0.0
 20
0.0
 30
0.0
 70
   128
 71
  -126
 72
  -112
 73
   113
  0
VERTEX
  5
3FE
  8
0
 10
0.0
 20
0.0
 30
0.0
 70
   128
 71
  -128
 72
  -129
 73
   130
  0
VERTEX
  5
3FF
  8
0
 10
0.0
 20
0.0
 30
0.0
 70
   128
 71
  -129
 72
  -128
 73
   131
  0
VERTEX
  5
400
  8
0
 10
0.0
 20
0.0
 30
0.0
 70
   128
 71
  -131
 72
   128
 73
   -28
  0
VERTEX
  5
401
  8
0
 10
0.0
 20
0.0
 30
0.0
 70
   128
 71
  -131
 72
   -28
 73
  -132
  0
VERTEX
  5
402
  8
0
 10
0.0
 20
0.0
 30
0.0
 70
   128
 71
  -132
 72
   -28
 73
   -27
  0
VERTEX
  5
403
  8
0
 10
0.0
 20
0.0
 30
0.0
 70
   128
 71
  -132
 72
   -27
 73
   -34
  0
VERTEX
  5
404
  8
0
 10
0.0
 20
0.0
 30
0.0
 70
   128
 71
  -132
 72
   -34
 73
   133
  0
VERTEX
  5
405
  8
0
 10
0.0
 20
0.0
 30
0.0
 70
   128
 71
  -133
 72
   -34
 73
  -134
  0
VERTEX
  5
406
  8
0
 10
0.0
 20
0.0
 30
0.0
 70
   128
 71
  -134
 72
   -34
 73
  -102
  0
VERTEX
  5
407
  8
0
 10
0.0
 20
0.0
 30
0.0
 70
   128
 71
  -131
 72
   132
 73
  -135
  0
VERTEX
  5
408
  8
0
 10
0.0
 20
0.0
 30
0.0
 70
   128
 71
  -131
 72
   135
 73
  -136
  0
VERTEX
  5
409
  8
0
 10
0.0
 20
0.0
 30
0.0
 70
   128
 71
  -131
 72
   136
 73
  -137
  0
VERTEX
  5
40A
  8
0
 10
0.0
 20
0.0
 30
0.0
 70
   128
 71
  -131
 72
   137
 73
  -138
  0
VERTEX
  5
40B
  8
0
 10
0.0
 20
0.0
 30
0.0
 70
   128
 71
  -131
 72
  -138
 73
   107
  0
VERTEX
  5
40C
  8
0
 10
0.0
 20
0.0
 30
0.0
 70
   128
 71
  -107
 72
  -138
 73
  -121
  0
VERTEX
  5
40D
  8
0
 10
0.0
 20
0.0
 30
0.0
 70
   128
 71
  -121
 72
  -138
 73
   139
  0
VERTEX
  5
40E
  8
0
 10
0.0
 20
0.0
 30
0.0
 70
   128
 71
  -139
 72
   138
 73
  -140
  0
VERTEX
  5
40F
  8
0
 10
0.0
 20
0.0
 30
0.0
 70
   128
 71
  -139
 72
  -140
 73
   141
  0
VERTEX
  5
410
  8
0
 10
0.0
 20
0.0
 30
0.0
 70
   128
 71
  -141
 72
  -140
 73
   142
  0
VERTEX
  5
411
  8
0
 10
0.0
 20
0.0
 30
0.0
 70
   128
 71
  -142
 72
   140
 73
  -143
  0
VERTEX
  5
412
  8
0
 10
0.0
 20
0.0
 30
0.0
 70
   128
 71
  -142
 72
  -143
 73
   144
  0
VERTEX
  5
413
  8
0
 10
0.0
 20
0.0
 30
0.0
 70
   128
 71
  -144
 72
   143
 73
  -145
  0
VERTEX
  5
414
  8
0
 10
0.0
 20
0.0
 30
0.0
 70
   128
 71
  -144
 72
  -145
 73
   146
  0
VERTEX
  5
415
  8
0
 10
0.0
 20
0.0
 30
0.0
 70
   128
 71
  -146
 72
  -145
 73
   147
  0
VERTEX
  5
416
  8
0
 10
0.0
 20
0.0
 30
0.0
 70
   128
 71
  -147
 72
   145
 73
  -148
  0
VERTEX
  5
417
  8
0
 10
0.0
 20
0.0
 30
0.0
 70
   128
 71
  -147
 72
  -148
 73
   149
  0
VERTEX
  5
418
  8
0
 10
0.0
 20
0.0
 30
0.0
 70
   128
 71
  -149
 72
  -148
 73
  -150
  0
VERTEX
  5
419
  8
0
 10
0.0
 20
0.0
 30
0.0
 70
   128
 71
  -150
 72
   148
 73
  -151
  0
VERTEX
  5
41A
  8
0
 10
0.0
 20
0.0
 30
0.0
 70
   128
 71
  -149
 72
  -150
 73
   152
  0
VERTEX
  5
41B
  8
0
 10
0.0
 20
0.0
 30
0.0
 70
   128
 71
  -152
 72
  -150
 73
   153
  0
VERTEX
  5
41C
  8
0
 10
0.0
 20
0.0
 30
0.0
 70
   128
 71
  -150
 72
  -151
 73
   154
  0
VERTEX
  5
41D
  8
0
 10
0.0
 20
0.0
 30
0.0
 70
   128
 71
  -154
 72
   151
 73
  -155
  0
VERTEX
  5
41E
  8
0
 10
0.0
 20
0.0
 30
0.0
 70
   128
 71
  -154
 72
   155
 73
  -156
  0
VERTEX
  5
41F
  8
0
 10
0.0
 20
0.0
 30
0.0
 70
   128
 71
  -154
 72
  -156
 73
  -157
  0
VERTEX
  5
420
  8
0
 10
0.0
 20
0.0
 30
0.0
 70
   128
 71
  -154
 72
  -157
 73
  -158
  0
VERTEX
  5
421
  8
0
 10
0.0
 20
0.0
 30
0.0
 70
   128
 71
  -158
 72
  -157
 73
   159
  0
VERTEX
  5
422
  8
0
 10
0.0
 20
0.0
 30
0.0
 70
   128
 71
  -159
 72
  -157
 73
  -160
  0
VERTEX
  5
423
  8
0
 10
0.0
 20
0.0
 30
0.0
 70
   128
 71
  -154
 72
   158
 73
  -161
  0
VERTEX
  5
424
  8
0
 10
0.0
 20
0.0
 30
0.0
 70
   128
 71
  -154
 72
   161
 73
  -162
  0
VERTEX
  5
425
  8
0
 10
0.0
 20
0.0
 30
0.0
 70
   128
 71
  -154
 72
   162
 73
  -163
  0
VERTEX
  5
426
  8
0
 10
0.0
 20
0.0
 30
0.0
 70
   128
 71
  -154
 72
  -163
 73
   164
  0
VERTEX
  5
427
  8
0
 10
0.0
 20
0.0
 30
0.0
 70
   128
 71
  -160
 72
  -165
 73
   166
  0
VERTEX
  5
428
  8
0
 10
0.0
 20
0.0
 30
0.0
 70
   128
 71
  -165
 72
  -160
 73
   167
  0
VERTEX
  5
429
  8
0
 10
0.0
 20
0.0
 30
0.0
 70
   128
 71
  -166
 72
  -165
 73
   168
  0
VERTEX
  5
42A
  8
0
 10
0.0
 20
0.0
 30
0.0
 70
   128
 71
  -168
 72
  -165
 73
   169
  0
VERTEX
  5
42B
  8
0
 10
0.0
 20
0.0
 30
0.0
 70
   128
 71
  -169
 72
  -165
 73
   170
  0
VERTEX
  5
42C
  8
0
 10
0.0
 20
0.0
 30
0.0
 70
   128
 71
  -170
 72
   165
 73
  -171
  0
VERTEX
  5
42D
  8
0
 10
0.0
 20
0.0
 30
0.0
 70
   128
 71
  -170
 72
  -171
 73
   172
  0
VERTEX
  5
42E
  8
0
 10
0.0
 20
0.0
 30
0.0
 70
   128
 71
  -172
 72
  -171
 73
   173
  0
VERTEX
  5
42F
  8
0
 10
0.0
 20
0.0
 30
0.0
 70
   128
 71
  -173
 72
  -171
 73
   174
  0
VERTEX
  5
430
  8
0
 10
0.0
 20
0.0
 30
0.0
 70
   128
 71
  -174
 72
  -171
 73
   175
  0
VERTEX
  5
431
  8
0
 10
0.0
 20
0.0
 30
0.0
 70
   128
 71
  -175
 72
  -171
 73
   176
  0
VERTEX
  5
432
  8
0
 10
0.0
 20
0.0
 30
0.0
 70
   128
 71
  -176
 72
  -171
 73
   177
  0
VERTEX
  5
433
  8
0
 10
0.0
 20
0.0
 30
0.0
 70
   128
 71
  -177
 72
  -171
 73
   178
  0
VERTEX
  5
434
  8
0
 10
0.0
 20
0.0
 30
0.0
 70
   128
 71
  -178
 72
  -171
 73
   179
  0
VERTEX
  5
435
  8
0
 10
0.0
 20
0.0
 30
0.0
 70
   128
 71
  -179
 72
  -171
 73
  -180
  0
VERTEX
  5
436
  8
0
 10
0.0
 20
0.0
 30
0.0
 70
   128
 71
  -180
 72
  -171
 73
  -181
  0
VERTEX
  5
437
  8
0
 10
0.0
 20
0.0
 30
0.0
 70
   128
 71
  -182
 72
  -183
 73
   184
  0
VERTEX
  5
438
  8
0
 10
0.0
 20
0.0
 30
0.0
 70
   128
 71
  -183
 72
  -182
 73
   185
  0
VERTEX
  5
439
  8
0
 10
0.0
 20
0.0
 30
0.0
 70
   128
 71
  -184
 72
   183
 73
  -186
  0
VERTEX
  5
43A
  8
0
 10
0.0
 20
0.0
 30
0.0
 70
   128
 71
  -184
 72
  -186
 73
   187
  0
VERTEX
  5
43B
  8
0
 10
0.0
 20
0.0
 30
0.0
 70
   128
 71
  -187
 72
  -186
 73
   188
  0
VERTEX
  5
43C
  8
0
 10
0.0
 20
0.0
 30
0.0
 70
   128
 71
  -188
 72
  -186
 73
   189
  0
VERTEX
  5
43D
  8
0
 10
0.0
 20
0.0
 30
0.0
 70
   128
 71
  -189
 72
  -186
 73
  -167
  0
VERTEX
  5
43E
  8
0
 10
0.0
 20
0.0
 30
0.0
 70
   128
 71
  -189
 72
  -167
 73
  -157
  0
VERTEX
  5
43F
  8
0
 10
0.0
 20
0.0
 30
0.0
 70
   128
 71
  -157
 72
  -167
 73
  -160
  0
VERTEX
  5
440
  8
0
 10
0.0
 20
0.0
 30
0.0
 70
   128
 71
  -167
 72
  -186
 73
   190
  0
VERTEX
  5
441
  8
0
 10
0.0
 20
0.0
 30
0.0
 70
   128
 71
  -190
 72
  -186
 73
  -191
  0
VERTEX
  5
442
  8
0
 10
0.0
 20
0.0
 30
0.0
 70
   128
 71
  -191
 72
  -186
 73
   192
  0
VERTEX
  5
443
  8
0
 10
0.0
 20
0.0
 30
0.0
 70
   128
 71
  -190
 72
   191
 73
  -193
  0
VERTEX
  5
444
  8
0
 10
0.0
 20
0.0
 30
0.0
 70
   128
 71
  -190
 72
  -193
 73
   171
  0
VERTEX
  5
445
  8
0
 10
0.0
 20
0.0
 30
0.0
 70
   128
 71
  -194
 72
   195
 73
  -159
  0
VERTEX
  5
446
  8
0
 10
0.0
 20
0.0
 30
0.0
 70
   128
 71
  -195
 72
   194
 73
  -196
  0
VERTEX
  5
447
  8
0
 10
0.0
 20
0.0
 30
0.0
 70
   128
 71
  -195
 72
  -196
 73
   197
  0
VERTEX
  5
448
  8
0
 10
0.0
 20
0.0
 30
0.0
 70
   128
 71
  -197
 72
   196
 73
  -198
  0
VERTEX
  5
449
  8
0
 10
0.0
 20
0.0
 30
0.0
 70
   128
 71
  -197
 72
   198
 73
  -199
  0
VERTEX
  5
44A
  8
0
 10
0.0
 20
0.0
 30
0.0
 70
   128
 71
  -197
 72
  -199
 73
   200
  0
VERTEX
  5
44B
  8
0
 10
0.0
 20
0.0
 30
0.0
 70
   128
 71
  -200
 72
   199
 73
  -201
  0
VERTEX
  5
44C
  8
0
 10
0.0
 20
0.0
 30
0.0
 70
   128
 71
  -200
 72
  -201
 73
   202
  0
VERTEX
  5
44D
  8
0
 10
0.0
 20
0.0
 30
0.0
 70
   128
 71
  -202
 72
   201
 73
  -203
  0
VERTEX
  5
44E
  8
0
 10
0.0
 20
0.0
 30
0.0
 70
   128
 71
  -202
 72
  -203
 73
   204
  0
VERTEX
  5
44F
  8
0
 10
0.0
 20
0.0
 30
0.0
 70
   128
 71
  -204
 72
   203
 73
  -205
  0
VERTEX
  5
450
  8
0
 10
0.0
 20
0.0
 30
0.0
 70
   128
 71
  -204
 72
  -205
 73
   206
  0
VERTEX
  5
451
  8
0
 10
0.0
 20
0.0
 30
0.0
 70
   128
 71
  -206
 72
   205
 73
  -207
  0
VERTEX
  5
452
  8
0
 10
0.0
 20
0.0
 30
0.0
 70
   128
 71
  -206
 72
  -207
 73
   208
  0
VERTEX
  5
453
  8
0
 10
0.0
 20
0.0
 30
0.0
 70
   128
 71
  -208
 72
   207
 73
  -209
  0
VERTEX
  5
454
  8
0
 10
0.0
 20
0.0
 30
0.0
 70
   128
 71
  -208
 72
  -209
 73
   210
  0
VERTEX
  5
455
  8
0
 10
0.0
 20
0.0
 30
0.0
 70
   128
 71
  -210
 72
   209
 73
  -211
  0
VERTEX
  5
456
  8
0
 10
0.0
 20
0.0
 30
0.0
 70
   128
 71
  -210
 72
  -211
 73
   212
  0
VERTEX
  5
457
  8
0
 10
0.0
 20
0.0
 30
0.0
 70
   128
 71
  -212
 72
   211
 73
  -213
  0
VERTEX
  5
458
  8
0
 10
0.0
 20
0.0
 30
0.0
 70
   128
 71
  -212
 72
  -213
 73
   214
  0
VERTEX
  5
459
  8
0
 10
0.0
 20
0.0
 30
0.0
 70
   128
 71
  -214
 72
   213
 73
  -215
  0
VERTEX
  5
45A
  8
0
 10
0.0
 20
0.0
 30
0.0
 70
   128
 71
  -214
 72
  -215
 73
   216
  0
VERTEX
  5
45B
  8
0
 10
0.0
 20
0.0
 30
0.0
 70
   128
 71
  -216
 72
   215
 73
  -180
  0
VERTEX
  5
45C
  8
0
 10
0.0
 20
0.0
 30
0.0
 70
   128
 71
  -216
 72
  -180
 73
   181
  0
VERTEX
  5
45D
  8
0
 10
0.0
 20
0.0
 30
0.0
 70
   128
 71
  -160
 72
  -194
 73
  -159
  0
VERTEX
  5
45E
  8
0
 10
0.0
 20
0.0
 30
0.0
 70
   128
 71
  -194
 72
   160
 73
  -217
  0
VERTEX
  5
45F
  8
0
 10
0.0
 20
0.0
 30
0.0
 70
   128
 71
  -194
 72
  -217
 73
   218
  0
VERTEX
  5
460
  8
0
 10
0.0
 20
0.0
 30
0.0
 70
   128
 71
  -218
 72
   217
 73
  -219
  0
VERTEX
  5
461
  8
0
 10
0.0
 20
0.0
 30
0.0
 70
   128
 71
  -218
 72
  -219
 73
   220
  0
VERTEX
  5
462
  8
0
 10
0.0
 20
0.0
 30
0.0
 70
   128
 71
  -220
 72
   219
 73
  -221
  0
VERTEX
  5
463
  8
0
 10
0.0
 20
0.0
 30
0.0
 70
   128
 71
  -220
 72
  -221
 73
   222
  0
VERTEX
  5
464
  8
0
 10
0.0
 20
0.0
 30
0.0
 70
   128
 71
  -222
 72
   221
 73
  -223
  0
VERTEX
  5
465
  8
0
 10
0.0
 20
0.0
 30
0.0
 70
   128
 71
  -222
 72
  -223
 73
   224
  0
VERTEX
  5
466
  8
0
 10
0.0
 20
0.0
 30
0.0
 70
   128
 71
  -224
 72
   223
 73
  -225
  0
VERTEX
  5
467
  8
0
 10
0.0
 20
0.0
 30
0.0
 70
   128
 71
  -224
 72
  -225
 73
   226
  0
VERTEX
  5
468
  8
0
 10
0.0
 20
0.0
 30
0.0
 70
   128
 71
  -226
 72
   225
 73
  -227
  0
VERTEX
  5
469
  8
0
 10
0.0
 20
0.0
 30
0.0
 70
   128
 71
  -226
 72
  -227
 73
   228
  0
VERTEX
  5
46A
  8
0
 10
0.0
 20
0.0
 30
0.0
 70
   128
 71
  -228
 72
   227
 73
  -229
  0
VERTEX
  5
46B
  8
0
 10
0.0
 20
0.0
 30
0.0
 70
   128
 71
  -228
 72
  -229
 73
   230
  0
VERTEX
  5
46C
  8
0
 10
0.0
 20
0.0
 30
0.0
 70
   128
 71
  -230
 72
   229
 73
  -231
  0
VERTEX
  5
46D
  8
0
 10
0.0
 20
0.0
 30
0.0
 70
   128
 71
  -230
 72
  -231
 73
   232
  0
VERTEX
  5
46E
  8
0
 10
0.0
 20
0.0
 30
0.0
 70
   128
 71
  -232
 72
   231
 73
  -233
  0
VERTEX
  5
46F
  8
0
 10
0.0
 20
0.0
 30
0.0
 70
   128
 71
  -232
 72
  -233
 73
   234
  0
VERTEX
  5
470
  8
0
 10
0.0
 20
0.0
 30
0.0
 70
   128
 71
  -234
 72
   233
 73
  -235
  0
VERTEX
  5
471
  8
0
 10
0.0
 20
0.0
 30
0.0
 70
   128
 71
  -234
 72
  -235
 73
   236
  0
VERTEX
  5
472
  8
0
 10
0.0
 20
0.0
 30
0.0
 70
   128
 71
  -236
 72
   235
 73
  -237
  0
VERTEX
  5
473
  8
0
 10
0.0
 20
0.0
 30
0.0
 70
   128
 71
  -236
 72
  -237
 73
   238
  0
VERTEX
  5
474
  8
0
 10
0.0
 20
0.0
 30
0.0
 70
   128
 71
  -238
 72
   237
 73
  -179
  0
VERTEX
  5
475
  8
0
 10
0.0
 20
0.0
 30
0.0
 70
   128
 71
  -238
 72
  -179
 73
   180
  0
VERTEX
  5
476
  8
0
 10
0.0
 20
0.0
 30
0.0
 70
   128
 71
  -185
 72
  -239
 73
   240
  0
VERTEX
  5
477
  8
0
 10
0.0
 20
0.0
 30
0.0
 70
   128
 71
  -239
 72
  -185
 73
   241
  0
VERTEX
  5
478
  8
0
 10
0.0
 20
0.0
 30
0.0
 70
   128
 71
  -240
 72
   239
 73
  -242
  0
VERTEX
  5
479
  8
0
 10
0.0
 20
0.0
 30
0.0
 70
   128
 71
  -240
 72
  -242
 73
  -192
  0
VERTEX
  5
47A
  8
0
 10
0.0
 20
0.0
 30
0.0
 70
   128
 71
  -240
 72
  -192
 73
   186
  0
VERTEX
  5
47B
  8
0
 10
0.0
 20
0.0
 30
0.0
 70
   128
 71
  -192
 72
  -242
 73
   243
  0
VERTEX
  5
47C
  8
0
 10
0.0
 20
0.0
 30
0.0
 70
   128
 71
  -244
 72
  -245
 73
   246
  0
VERTEX
  5
47D
  8
0
 10
0.0
 20
0.0
 30
0.0
 70
   128
 71
  -245
 72
  -244
 73
   247
  0
VERTEX
  5
47E
  8
0
 10
0.0
 20
0.0
 30
0.0
 70
   128
 71
  -246
 72
   245
 73
  -248
  0
VERTEX
  5
47F
  8
0
 10
0.0
 20
0.0
 30
0.0
 70
   128
 71
  -246
 72
  -248
 73
   249
  0
VERTEX
  5
480
  8
0
 10
0.0
 20
0.0
 30
0.0
 70
   128
 71
  -249
 72
  -248
 73
  -250
  0
VERTEX
  5
481
  8
0
 10
0.0
 20
0.0
 30
0.0
 70
   128
 71
  -250
 72
  -248
 73
   251
  0
VERTEX
  5
482
  8
0
 10
0.0
 20
0.0
 30
0.0
 70
   128
 71
  -251
 72
  -248
 73
  -252
  0
VERTEX
  5
483
  8
0
 10
0.0
 20
0.0
 30
0.0
 70
   128
 71
  -251
 72
  -252
 73
  -253
  0
VERTEX
  5
484
  8
0
 10
0.0
 20
0.0
 30
0.0
 70
   128
 71
  -253
 72
  -252
 73
   254
  0
VERTEX
  5
485
  8
0
 10
0.0
 20
0.0
 30
0.0
 70
   128
 71
  -254
 72
  -252
 73
  -255
  0
VERTEX
  5
486
  8
0
 10
0.0
 20
0.0
 30
0.0
 70
   128
 71
  -255
 72
  -252
 73
   256
  0
VERTEX
  5
487
  8
0
 10
0.0
 20
0.0
 30
0.0
 70
   128
 71
  -252
 72
  -248
 73
   257
  0
VERTEX
  5
488
  8
0
 10
0.0
 20
0.0
 30
0.0
 70
   128
 71
  -257
 72
  -248
 73
  -258
  0
VERTEX
  5
489
  8
0
 10
0.0
 20
0.0
 30
0.0
 70
   128
 71
  -258
 72
  -248
 73
   259
  0
VERTEX
  5
48A
  8
0
 10
0.0
 20
0.0
 30
0.0
 70
   128
 71
  -259
 72
  -248
 73
   260
  0
VERTEX
  5
48B
  8
0
 10
0.0
 20
0.0
 30
0.0
 70
   128
 71
  -257
 72
   258
 73
  -261
  0
VERTEX
  5
48C
  8
0
 10
0.0
 20
0.0
 30
0.0
 70
   128
 71
  -257
 72
   261
 73
  -262
  0
VERTEX
  5
48D
  8
0
 10
0.0
 20
0.0
 30
0.0
 70
   128
 71
  -257
 72
   262
 73
  -263
  0
VERTEX
  5
48E
  8
0
 10
0.0
 20
0.0
 30
0.0
 70
   128
 71
  -257
 72
   263
 73
  -264
  0
VERTEX
  5
48F
  8
0
 10
0.0
 20
0.0
 30
0.0
 70
   128
 71
  -257
 72
   264
 73
  -265
  0
VERTEX
  5
490
  8
0
 10
0.0
 20
0.0
 30
0.0
 70
   128
 71
  -257
 72
   265
 73
  -266
  0
VERTEX
  5
491
  8
0
 10
0.0
 20
0.0
 30
0.0
 70
   128
 71
  -257
 72
   266
 73
  -267
  0
VERTEX
  5
492
  8
0
 10
0.0
 20
0.0
 30
0.0
 70
   128
 71
  -257
 72
   267
 73
  -268
  0
VERTEX
  5
493
  8
0
 10
0.0
 20
0.0
 30
0.0
 70
   128
 71
  -257
 72
   268
 73
  -269
  0
VERTEX
  5
494
  8
0
 10
0.0
 20
0.0
 30
0.0
 70
   128
 71
  -257
 72
  -269
 73
   270
  0
VERTEX
  5
495
  8
0
 10
0.0
 20
0.0
 30
0.0
 70
   128
 71
  -270
 72
  -269
 73
  -271
  0
VERTEX
  5
496
  8
0
 10
0.0
 20
0.0
 30
0.0
 70
   128
 71
  -271
 72
  -269
 73
   272
  0
VERTEX
  5
497
  8
0
 10
0.0
 20
0.0
 30
0.0
 70
   128
 71
  -272
 72
  -269
 73
  -273
  0
VERTEX
  5
498
  8
0
 10
0.0
 20
0.0
 30
0.0
 70
   128
 71
  -273
 72
  -269
 73
   274
  0
VERTEX
  5
499
  8
0
 10
0.0
 20
0.0
 30
0.0
 70
   128
 71
  -274
 72
  -269
 73
  -275
  0
VERTEX
  5
49A
  8
0
 10
0.0
 20
0.0
 30
0.0
 70
   128
 71
  -275
 72
  -269
 73
   276
  0
VERTEX
  5
49B
  8
0
 10
0.0
 20
0.0
 30
0.0
 70
   128
 71
  -277
 72
    82
 73
   278
  0
VERTEX
  5
49C
  8
0
 10
0.0
 20
0.0
 30
0.0
 70
   128
 71
   -82
 72
  -277
 73
   -99
  0
VERTEX
  5
49D
  8
0
 10
0.0
 20
0.0
 30
0.0
 70
   128
 71
   -82
 72
   -99
 73
   -83
  0
VERTEX
  5
49E
  8
0
 10
0.0
 20
0.0
 30
0.0
 70
   128
 71
   -83
 72
   -99
 73
   279
  0
VERTEX
  5
49F
  8
0
 10
0.0
 20
0.0
 30
0.0
 70
   128
 71
  -279
 72
   -99
 73
   280
  0
VERTEX
  5
4A0
  8
0
 10
0.0
 20
0.0
 30
0.0
 70
   128
 71
  -280
 72
   -99
 73
    97
  0
VERTEX
  5
4A1
  8
0
 10
0.0
 20
0.0
 30
0.0
 70
   128
 71
   -99
 72
  -277
 73
  -241
  0
VERTEX
  5
4A2
  8
0
 10
0.0
 20
0.0
 30
0.0
 70
   128
 71
   -99
 72
  -241
 73
   281
  0
VERTEX
  5
4A3
  8
0
 10
0.0
 20
0.0
 30
0.0
 70
   128
 71
  -281
 72
  -241
 73
  -185
  0
VERTEX
  5
4A4
  8
0
 10
0.0
 20
0.0
 30
0.0
 70
   128
 71
  -281
 72
  -185
 73
   100
  0
VERTEX
  5
4A5
  8
0
 10
0.0
 20
0.0
 30
0.0
 70
   128
 71
  -100
 72
  -185
 73
  -106
  0
VERTEX
  5
4A6
  8
0
 10
0.0
 20
0.0
 30
0.0
 70
   128
 71
  -106
 72
  -185
 73
   282
  0
VERTEX
  5
4A7
  8
0
 10
0.0
 20
0.0
 30
0.0
 70
   128
 71
  -282
 72
  -185
 73
   283
  0
VERTEX
  5
4A8
  8
0
 10
0.0
 20
0.0
 30
0.0
 70
   128
 71
  -283
 72
  -185
 73
   182
  0
VERTEX
  5
4A9
  8
0
 10
0.0
 20
0.0
 30
0.0
 70
   128
 71
  -241
 72
  -277
 73
   284
  0
VERTEX
  5
4AA
  8
0
 10
0.0
 20
0.0
 30
0.0
 70
   128
 71
  -284
 72
  -277
 73
  -285
  0
VERTEX
  5
4AB
  8
0
 10
0.0
 20
0.0
 30
0.0
 70
   128
 71
  -284
 72
  -285
 73
   242
  0
VERTEX
  5
4AC
  8
0
 10
0.0
 20
0.0
 30
0.0
 70
   128
 71
  -242
 72
  -285
 73
  -243
  0
VERTEX
  5
4AD
  8
0
 10
0.0
 20
0.0
 30
0.0
 70
   128
 71
  -243
 72
  -285
 73
   193
  0
VERTEX
  5
4AE
  8
0
 10
0.0
 20
0.0
 30
0.0
 70
   128
 71
  -193
 72
  -285
 73
  -286
  0
VERTEX
  5
4AF
  8
0
 10
0.0
 20
0.0
 30
0.0
 70
   128
 71
  -286
 72
  -285
 73
  -287
  0
VERTEX
  5
4B0
  8
0
 10
0.0
 20
0.0
 30
0.0
 70
   128
 71
  -286
 72
   287
 73
  -288
  0
VERTEX
  5
4B1
  8
0
 10
0.0
 20
0.0
 30
0.0
 70
   128
 71
  -285
 72
  -277
 73
   289
  0
VERTEX
  5
4B2
  8
0
 10
0.0
 20
0.0
 30
0.0
 70
   128
 71
  -289
 72
  -277
 73
  -290
  0
VERTEX
  5
4B3
  8
0
 10
0.0
 20
0.0
 30
0.0
 70
   128
 71
  -289
 72
  -290
 73
   291
  0
VERTEX
  5
4B4
  8
0
 10
0.0
 20
0.0
 30
0.0
 70
   128
 71
  -291
 72
  -290
 73
  -292
  0
VERTEX
  5
4B5
  8
0
 10
0.0
 20
0.0
 30
0.0
 70
   128
 71
  -292
 72
  -290
 73
   293
  0
VERTEX
  5
4B6
  8
0
 10
0.0
 20
0.0
 30
0.0
 70
   128
 71
  -293
 72
  -290
 73
  -294
  0
VERTEX
  5
4B7
  8
0
 10
0.0
 20
0.0
 30
0.0
 70
   128
 71
  -290
 72
  -277
 73
   295
  0
VERTEX
  5
4B8
  8
0
 10
0.0
 20
0.0
 30
0.0
 70
   128
 71
  -295
 72
  -277
 73
  -296
  0
VERTEX
  5
4B9
  8
0
 10
0.0
 20
0.0
 30
0.0
 70
   128
 71
  -295
 72
  -296
 73
   297
  0
VERTEX
  5
4BA
  8
0
 10
0.0
 20
0.0
 30
0.0
 70
   128
 71
  -297
 72
  -296
 73
  -298
  0
VERTEX
  5
4BB
  8
0
 10
0.0
 20
0.0
 30
0.0
 70
   128
 71
  -298
 72
  -296
 73
   299
  0
VERTEX
  5
4BC
  8
0
 10
0.0
 20
0.0
 30
0.0
 70
   128
 71
  -299
 72
  -296
 73
  -300
  0
VERTEX
  5
4BD
  8
0
 10
0.0
 20
0.0
 30
0.0
 70
   128
 71
  -296
 72
  -277
 73
   301
  0
VERTEX
  5
4BE
  8
0
 10
0.0
 20
0.0
 30
0.0
 70
   128
 71
  -301
 72
  -277
 73
  -247
  0
VERTEX
  5
4BF
  8
0
 10
0.0
 20
0.0
 30
0.0
 70
   128
 71
  -301
 72
  -247
 73
   302
  0
VERTEX
  5
4C0
  8
0
 10
0.0
 20
0.0
 30
0.0
 70
   128
 71
  -302
 72
  -247
 73
  -303
  0
VERTEX
  5
4C1
  8
0
 10
0.0
 20
0.0
 30
0.0
 70
   128
 71
  -303
 72
  -247
 73
   304
  0
VERTEX
  5
4C2
  8
0
 10
0.0
 20
0.0
 30
0.0
 70
   128
 71
  -304
 72
  -247
 73
  -244
  0
VERTEX
  5
4C3
  8
0
 10
0.0
 20
0.0
 30
0.0
 70
   128
 71
  -247
 72
  -277
 73
   305
  0
VERTEX
  5
4C4
  8
0
 10
0.0
 20
0.0
 30
0.0
 70
   128
 71
  -305
 72
  -277
 73
   248
  0
VERTEX
  5
4C5
  8
0
 10
0.0
 20
0.0
 30
0.0
 70
   128
 71
  -248
 72
  -277
 73
  -260
  0
VERTEX
  5
4C6
  8
0
 10
0.0
 20
0.0
 30
0.0
 70
   128
 71
  -260
 72
  -277
 73
   306
  0
VERTEX
  5
4C7
  8
0
 10
0.0
 20
0.0
 30
0.0
 70
   128
 71
  -306
 72
  -277
 73
   307
  0
VERTEX
  5
4C8
  8
0
 10
0.0
 20
0.0
 30
0.0
 70
   128
 71
  -307
 72
  -277
 73
   308
  0
VERTEX
  5
4C9
  8
0
 10
0.0
 20
0.0
 30
0.0
 70
   128
 71
  -308
 72
  -277
 73
   309
  0
VERTEX
  5
4CA
  8
0
 10
0.0
 20
0.0
 30
0.0
 70
   128
 71
  -309
 72
   277
 73
  -310
  0
VERTEX
  5
4CB
  8
0
 10
0.0
 20
0.0
 30
0.0
 70
   128
 71
  -309
 72
  -310
 73
   311
  0
VERTEX
  5
4CC
  8
0
 10
0.0
 20
0.0
 30
0.0
 70
   128
 71
  -311
 72
   310
 73
  -312
  0
VERTEX
  5
4CD
  8
0
 10
0.0
 20
0.0
 30
0.0
 70
   128
 71
  -311
 72
   312
 73
  -313
  0
VERTEX
  5
4CE
  8
0
 10
0.0
 20
0.0
 30
0.0
 70
   128
 71
  -311
 72
  -313
 73
   314
  0
VERTEX
  5
4CF
  8
0
 10
0.0
 20
0.0
 30
0.0
 70
   128
 71
  -314
 72
   313
 73
  -315
  0
VERTEX
  5
4D0
  8
0
 10
0.0
 20
0.0
 30
0.0
 70
   128
 71
  -314
 72
   315
 73
  -316
  0
VERTEX
  5
4D1
  8
0
 10
0.0
 20
0.0
 30
0.0
 70
   128
 71
  -314
 72
  -316
 73
   317
  0
VERTEX
  5
4D2
  8
0
 10
0.0
 20
0.0
 30
0.0
 70
   128
 71
  -317
 72
  -316
 73
   318
  0
VERTEX
  5
4D3
  8
0
 10
0.0
 20
0.0
 30
0.0
 70
   128
 71
  -318
 72
   316
 73
  -319
  0
VERTEX
  5
4D4
  8
0
 10
0.0
 20
0.0
 30
0.0
 70
   128
 71
  -318
 72
  -319
 73
   320
  0
VERTEX
  5
4D5
  8
0
 10
0.0
 20
0.0
 30
0.0
 70
   128
 71
  -320
 72
   319
 73
  -321
  0
VERTEX
  5
4D6
  8
0
 10
0.0
 20
0.0
 30
0.0
 70
   128
 71
  -320
 72
  -321
 73
   322
  0
VERTEX
  5
4D7
  8
0
 10
0.0
 20
0.0
 30
0.0
 70
   128
 71
  -322
 72
  -321
 73
   323
  0
VERTEX
  5
4D8
  8
0
 10
0.0
 20
0.0
 30
0.0
 70
   128
 71
  -323
 72
  -321
 73
   324
  0
VERTEX
  5
4D9
  8
0
 10
0.0
 20
0.0
 30
0.0
 70
   128
 71
  -324
 72
   321
 73
  -325
  0
VERTEX
  5
4DA
  8
0
 10
0.0
 20
0.0
 30
0.0
 70
   128
 71
  -324
 72
  -325
 73
  -326
  0
VERTEX
  5
4DB
  8
0
 10
0.0
 20
0.0
 30
0.0
 70
   128
 71
  -326
 72
   325
 73
   327
  0
VERTEX
  5
4DC
  8
0
 10
0.0
 20
0.0
 30
0.0
 70
   128
 71
  -328
 72
  -329
 73
   330
  0
VERTEX
  5
4DD
  8
0
 10
0.0
 20
0.0
 30
0.0
 70
   128
 71
  -329
 72
  -328
 73
   331
  0
VERTEX
  5
4DE
  8
0
 10
0.0
 20
0.0
 30
0.0
 70
   128
 71
  -331
 72
   328
 73
  -332
  0
VERTEX
  5
4DF
  8
0
 10
0.0
 20
0.0
 30
0.0
 70
   128
 71
  -331
 72
   332
 73
  -333
  0
VERTEX
  5
4E0
  8
0
 10
0.0
 20
0.0
 30
0.0
 70
   128
 71
  -331
 72
   333
 73
  -181
  0
VERTEX
  5
4E1
  8
0
 10
0.0
 20
0.0
 30
0.0
 70
   128
 71
  -331
 72
  -181
 73
  -334
  0
VERTEX
  5
4E2
  8
0
 10
0.0
 20
0.0
 30
0.0
 70
   128
 71
  -334
 72
  -181
 73
  -171
  0
VERTEX
  5
4E3
  8
0
 10
0.0
 20
0.0
 30
0.0
 70
   128
 71
  -334
 72
  -171
 73
  -193
  0
VERTEX
  5
4E4
  8
0
 10
0.0
 20
0.0
 30
0.0
 70
   128
 71
  -334
 72
  -193
 73
  -286
  0
VERTEX
  5
4E5
  8
0
 10
0.0
 20
0.0
 30
0.0
 70
   128
 71
  -334
 72
   286
 73
  -335
  0
VERTEX
  5
4E6
  8
0
 10
0.0
 20
0.0
 30
0.0
 70
   128
 71
  -334
 72
  -335
 73
  -336
  0
VERTEX
  5
4E7
  8
0
 10
0.0
 20
0.0
 30
0.0
 70
   128
 71
  -334
 72
   336
 73
  -337
  0
VERTEX
  5
4E8
  8
0
 10
0.0
 20
0.0
 30
0.0
 70
   128
 71
  -334
 72
  -337
 73
  -338
  0
VERTEX
  5
4E9
  8
0
 10
0.0
 20
0.0
 30
0.0
 70
   128
 71
  -334
 72
   338
 73
  -339
  0
VERTEX
  5
4EA
  8
0
 10
0.0
 20
0.0
 30
0.0
 70
   128
 71
  -334
 72
  -339
 73
   340
  0
VERTEX
  5
4EB
  8
0
 10
0.0
 20
0.0
 30
0.0
 70
   128
 71
  -331
 72
   334
 73
  -341
  0
VERTEX
  5
4EC
  8
0
 10
0.0
 20
0.0
 30
0.0
 70
   128
 71
  -331
 72
  -341
 73
  -342
  0
VERTEX
  5
4ED
  8
0
 10
0.0
 20
0.0
 30
0.0
 70
   128
 71
  -331
 72
  -342
 73
   343
  0
VERTEX
  5
4EE
  8
0
 10
0.0
 20
0.0
 30
0.0
 70
   128
 71
  -342
 72
  -341
 73
   344
  0
VERTEX
  5
4EF
  8
0
 10
0.0
 20
0.0
 30
0.0
 70
   128
 71
  -344
 72
  -341
 73
  -345
  0
VERTEX
  5
4F0
  8
0
 10
0.0
 20
0.0
 30
0.0
 70
   128
 71
  -345
 72
  -341
 73
  -346
  0
VERTEX
  5
4F1
  8
0
 10
0.0
 20
0.0
 30
0.0
 70
   128
 71
  -345
 72
  -346
 73
  -347
  0
VERTEX
  5
4F2
  8
0
 10
0.0
 20
0.0
 30
0.0
 70
   128
 71
  -345
 72
   347
 73
  -348
  0
VERTEX
  5
4F3
  8
0
 10
0.0
 20
0.0
 30
0.0
 70
   128
 71
  -345
 72
  -348
 73
  -349
  0
VERTEX
  5
4F4
  8
0
 10
0.0
 20
0.0
 30
0.0
 70
   128
 71
  -345
 72
   349
 73
  -350
  0
VERTEX
  5
4F5
  8
0
 10
0.0
 20
0.0
 30
0.0
 70
   128
 71
  -345
 72
  -350
 73
  -351
  0
VERTEX
  5
4F6
  8
0
 10
0.0
 20
0.0
 30
0.0
 70
   128
 71
  -345
 72
   351
 73
  -352
  0
VERTEX
  5
4F7
  8
0
 10
0.0
 20
0.0
 30
0.0
 70
   128
 71
  -345
 72
  -352
 73
   353
  0
VERTEX
  5
4F8
  8
0
 10
0.0
 20
0.0
 30
0.0
 70
   128
 71
  -344
 72
   345
 73
  -354
  0
VERTEX
  5
4F9
  8
0
 10
0.0
 20
0.0
 30
0.0
 70
   128
 71
  -344
 72
  -354
 73
   355
  0
VERTEX
  5
4FA
  8
0
 10
0.0
 20
0.0
 30
0.0
 70
   128
 71
  -355
 72
  -354
 73
  -356
  0
VERTEX
  5
4FB
  8
0
 10
0.0
 20
0.0
 30
0.0
 70
   128
 71
  -356
 72
  -354
 73
   357
  0
VERTEX
  5
4FC
  8
0
 10
0.0
 20
0.0
 30
0.0
 70
   128
 71
  -357
 72
  -354
 73
  -358
  0
VERTEX
  5
4FD
  8
0
 10
0.0
 20
0.0
 30
0.0
 70
   128
 71
  -358
 72
  -354
 73
  -359
  0
VERTEX
  5
4FE
  8
0
 10
0.0
 20
0.0
 30
0.0
 70
   128
 71
  -358
 72
  -359
 73
  -293
  0
VERTEX
  5
4FF
  8
0
 10
0.0
 20
0.0
 30
0.0
 70
   128
 71
  -358
 72
  -293
 73
  -294
  0
VERTEX
  5
500
  8
0
 10
0.0
 20
0.0
 30
0.0
 70
   128
 71
  -358
 72
   294
 73
  -360
  0
VERTEX
  5
501
  8
0
 10
0.0
 20
0.0
 30
0.0
 70
   128
 71
  -358
 72
  -360
 73
  -361
  0
VERTEX
  5
502
  8
0
 10
0.0
 20
0.0
 30
0.0
 70
   128
 71
  -358
 72
   361
 73
  -362
  0
VERTEX
  5
503
  8
0
 10
0.0
 20
0.0
 30
0.0
 70
   128
 71
  -358
 72
  -362
 73
  -363
  0
VERTEX
  5
504
  8
0
 10
0.0
 20
0.0
 30
0.0
 70
   128
 71
  -358
 72
   363
 73
  -364
  0
VERTEX
  5
505
  8
0
 10
0.0
 20
0.0
 30
0.0
 70
   128
 71
  -358
 72
  -364
 73
   365
  0
VERTEX
  5
506
  8
0
 10
0.0
 20
0.0
 30
0.0
 70
   128
 71
  -357
 72
   358
 73
  -366
  0
VERTEX
  5
507
  8
0
 10
0.0
 20
0.0
 30
0.0
 70
   128
 71
  -357
 72
  -366
 73
   367
  0
VERTEX
  5
508
  8
0
 10
0.0
 20
0.0
 30
0.0
 70
   128
 71
  -367
 72
  -366
 73
  -368
  0
VERTEX
  5
509
  8
0
 10
0.0
 20
0.0
 30
0.0
 70
   128
 71
  -368
 72
  -366
 73
   369
  0
VERTEX
  5
50A
  8
0
 10
0.0
 20
0.0
 30
0.0
 70
   128
 71
  -369
 72
  -366
 73
  -370
  0
VERTEX
  5
50B
  8
0
 10
0.0
 20
0.0
 30
0.0
 70
   128
 71
  -370
 72
  -366
 73
  -299
  0
VERTEX
  5
50C
  8
0
 10
0.0
 20
0.0
 30
0.0
 70
   128
 71
  -370
 72
  -299
 73
  -300
  0
VERTEX
  5
50D
  8
0
 10
0.0
 20
0.0
 30
0.0
 70
   128
 71
  -370
 72
   300
 73
  -371
  0
VERTEX
  5
50E
  8
0
 10
0.0
 20
0.0
 30
0.0
 70
   128
 71
  -370
 72
  -371
 73
  -372
  0
VERTEX
  5
50F
  8
0
 10
0.0
 20
0.0
 30
0.0
 70
   128
 71
  -370
 72
   372
 73
  -373
  0
VERTEX
  5
510
  8
0
 10
0.0
 20
0.0
 30
0.0
 70
   128
 71
  -370
 72
  -373
 73
  -374
  0
VERTEX
  5
511
  8
0
 10
0.0
 20
0.0
 30
0.0
 70
   128
 71
  -370
 72
   374
 73
  -375
  0
VERTEX
  5
512
  8
0
 10
0.0
 20
0.0
 30
0.0
 70
   128
 71
  -370
 72
  -375
 73
   376
  0
VERTEX
  5
513
  8
0
 10
0.0
 20
0.0
 30
0.0
 70
   128
 71
  -369
 72
   370
 73
  -377
  0
VERTEX
  5
514
  8
0
 10
0.0
 20
0.0
 30
0.0
 70
   128
 71
  -369
 72
  -377
 73
   378
  0
VERTEX
  5
515
  8
0
 10
0.0
 20
0.0
 30
0.0
 70
   128
 71
  -378
 72
  -377
 73
  -379
  0
VERTEX
  5
516
  8
0
 10
0.0
 20
0.0
 30
0.0
 70
   128
 71
  -379
 72
  -377
 73
   380
  0
VERTEX
  5
517
  8
0
 10
0.0
 20
0.0
 30
0.0
 70
   128
 71
  -380
 72
  -377
 73
  -381
  0
VERTEX
  5
518
  8
0
 10
0.0
 20
0.0
 30
0.0
 70
   128
 71
  -381
 72
  -377
 73
  -304
  0
VERTEX
  5
519
  8
0
 10
0.0
 20
0.0
 30
0.0
 70
   128
 71
  -381
 72
  -304
 73
  -244
  0
VERTEX
  5
51A
  8
0
 10
0.0
 20
0.0
 30
0.0
 70
   128
 71
  -381
 72
   244
 73
  -382
  0
VERTEX
  5
51B
  8
0
 10
0.0
 20
0.0
 30
0.0
 70
   128
 71
  -381
 72
  -382
 73
  -383
  0
VERTEX
  5
51C
  8
0
 10
0.0
 20
0.0
 30
0.0
 70
   128
 71
  -381
 72
   383
 73
  -384
  0
VERTEX
  5
51D
  8
0
 10
0.0
 20
0.0
 30
0.0
 70
   128
 71
  -381
 72
  -384
 73
  -385
  0
VERTEX
  5
51E
  8
0
 10
0.0
 20
0.0
 30
0.0
 70
   128
 71
  -381
 72
   385
 73
  -386
  0
VERTEX
  5
51F
  8
0
 10
0.0
 20
0.0
 30
0.0
 70
   128
 71
  -381
 72
  -386
 73
   387
  0
VERTEX
  5
520
  8
0
 10
0.0
 20
0.0
 30
0.0
 70
   128
 71
  -380
 72
   381
 73
  -256
  0
VERTEX
  5
521
  8
0
 10
0.0
 20
0.0
 30
0.0
 70
   128
 71
  -380
 72
  -256
 73
  -388
  0
VERTEX
  5
522
  8
0
 10
0.0
 20
0.0
 30
0.0
 70
   128
 71
  -388
 72
  -256
 73
  -252
  0
VERTEX
  5
523
  8
0
 10
0.0
 20
0.0
 30
0.0
 70
   128
 71
  -388
 72
   252
 73
  -389
  0
VERTEX
  5
524
  8
0
 10
0.0
 20
0.0
 30
0.0
 70
   128
 71
  -388
 72
  -389
 73
  -390
  0
VERTEX
  5
525
  8
0
 10
0.0
 20
0.0
 30
0.0
 70
   128
 71
  -388
 72
   390
 73
  -391
  0
VERTEX
  5
526
  8
0
 10
0.0
 20
0.0
 30
0.0
 70
   128
 71
  -388
 72
  -391
 73
  -392
  0
VERTEX
  5
527
  8
0
 10
0.0
 20
0.0
 30
0.0
 70
   128
 71
  -388
 72
   392
 73
  -393
  0
VERTEX
  5
528
  8
0
 10
0.0
 20
0.0
 30
0.0
 70
   128
 71
  -388
 72
  -393
 73
   394
  0
VERTEX
  5
529
  8
0
 10
0.0
 20
0.0
 30
0.0
 70
   128
 71
  -380
 72
   388
 73
  -276
  0
VERTEX
  5
52A
  8
0
 10
0.0
 20
0.0
 30
0.0
 70
   128
 71
  -380
 72
  -276
 73
   395
  0
VERTEX
  5
52B
  8
0
 10
0.0
 20
0.0
 30
0.0
 70
   128
 71
  -395
 72
  -276
 73
  -396
  0
VERTEX
  5
52C
  8
0
 10
0.0
 20
0.0
 30
0.0
 70
   128
 71
  -396
 72
  -276
 73
   397
  0
VERTEX
  5
52D
  8
0
 10
0.0
 20
0.0
 30
0.0
 70
   128
 71
  -397
 72
  -276
 73
  -398
  0
VERTEX
  5
52E
  8
0
 10
0.0
 20
0.0
 30
0.0
 70
   128
 71
  -398
 72
  -276
 73
   399
  0
VERTEX
  5
52F
  8
0
 10
0.0
 20
0.0
 30
0.0
 70
   128
 71
  -399
 72
  -276
 73
  -400
  0
VERTEX
  5
530
  8
0
 10
0.0
 20
0.0
 30
0.0
 70
   128
 71
  -400
 72
  -276
 73
   401
  0
VERTEX
  5
531
  8
0
 10
0.0
 20
0.0
 30
0.0
 70
   128
 71
  -401
 72
  -276
 73
  -402
  0
VERTEX
  5
532
  8
0
 10
0.0
 20
0.0
 30
0.0
 70
   128
 71
  -402
 72
  -276
 73
   403
  0
VERTEX
  5
533
  8
0
 10
0.0
 20
0.0
 30
0.0
 70
   128
 71
  -403
 72
  -276
 73
  -404
  0
VERTEX
  5
534
  8
0
 10
0.0
 20
0.0
 30
0.0
 70
   128
 71
  -404
 72
  -276
 73
   405
  0
VERTEX
  5
535
  8
0
 10
0.0
 20
0.0
 30
0.0
 70
   128
 71
  -405
 72
  -276
 73
   406
  0
VERTEX
  5
536
  8
0
 10
0.0
 20
0.0
 30
0.0
 70
   128
 71
  -406
 72
  -276
 73
   407
  0
VERTEX
  5
537
  8
0
 10
0.0
 20
0.0
 30
0.0
 70
   128
 71
  -407
 72
  -276
 73
   408
  0
VERTEX
  5
538
  8
0
 10
0.0
 20
0.0
 30
0.0
 70
   128
 71
  -408
 72
  -276
 73
   409
  0
VERTEX
  5
539
  8
0
 10
0.0
 20
0.0
 30
0.0
 70
   128
 71
  -409
 72
  -276
 73
   326
  0
VERTEX
  5
53A
  8
0
 10
0.0
 20
0.0
 30
0.0
 70
   128
 71
  -326
 72
  -276
 73
  -269
  0
VERTEX
  5
53B
  8
0
 10
0.0
 20
0.0
 30
0.0
 70
   128
 71
  -326
 72
   269
 73
  -324
  0
VERTEX
  5
53C
  8
0
 10
0.0
 20
0.0
 30
0.0
 70
   128
 71
  -274
 72
  -394
 73
   393
  0
VERTEX
  5
53D
  8
0
 10
0.0
 20
0.0
 30
0.0
 70
   128
 71
  -394
 72
  -274
 73
   275
  0
VERTEX
  5
53E
  8
0
 10
0.0
 20
0.0
 30
0.0
 70
   128
 71
  -272
 72
  -392
 73
   391
  0
VERTEX
  5
53F
  8
0
 10
0.0
 20
0.0
 30
0.0
 70
   128
 71
  -392
 72
  -272
 73
   273
  0
VERTEX
  5
540
  8
0
 10
0.0
 20
0.0
 30
0.0
 70
   128
 71
  -270
 72
  -390
 73
   389
  0
VERTEX
  5
541
  8
0
 10
0.0
 20
0.0
 30
0.0
 70
   128
 71
  -390
 72
  -270
 73
   271
  0
VERTEX
  5
542
  8
0
 10
0.0
 20
0.0
 30
0.0
 70
   128
 71
   -67
 72
    -3
 73
   410
  0
VERTEX
  5
543
  8
0
 10
0.0
 20
0.0
 30
0.0
 70
   128
 71
    -3
 72
   -67
 73
   -68
  0
VERTEX
  5
544
  8
0
 10
0.0
 20
0.0
 30
0.0
 70
   128
 71
    -3
 72
   -68
 73
   -29
  0
VERTEX
  5
545
  8
0
 10
0.0
 20
0.0
 30
0.0
 70
   128
 71
   -29
 72
   -68
 73
    85
  0
VERTEX
  5
546
  8
0
 10
0.0
 20
0.0
 30
0.0
 70
   128
 71
    -3
 72
   -29
 73
    -1
  0
VERTEX
  5
547
  8
0
 10
0.0
 20
0.0
 30
0.0
 70
   128
 71
  -410
 72
     3
 73
  -411
  0
VERTEX
  5
548
  8
0
 10
0.0
 20
0.0
 30
0.0
 70
   128
 71
  -410
 72
   411
 73
  -412
  0
VERTEX
  5
549
  8
0
 10
0.0
 20
0.0
 30
0.0
 70
   128
 71
  -410
 72
   412
 73
  -413
  0
VERTEX
  5
54A
  8
0
 10
0.0
 20
0.0
 30
0.0
 70
   128
 71
  -410
 72
  -413
 73
   414
  0
VERTEX
  5
54B
  8
0
 10
0.0
 20
0.0
 30
0.0
 70
   128
 71
  -414
 72
   413
 73
  -415
  0
VERTEX
  5
54C
  8
0
 10
0.0
 20
0.0
 30
0.0
 70
   128
 71
  -414
 72
  -415
 73
   416
  0
VERTEX
  5
54D
  8
0
 10
0.0
 20
0.0
 30
0.0
 70
   128
 71
  -416
 72
   415
 73
  -417
  0
VERTEX
  5
54E
  8
0
 10
0.0
 20
0.0
 30
0.0
 70
   128
 71
  -416
 72
  -417
 73
   418
  0
VERTEX
  5
54F
  8
0
 10
0.0
 20
0.0
 30
0.0
 70
   128
 71
  -418
 72
   417
 73
  -419
  0
VERTEX
  5
550
  8
0
 10
0.0
 20
0.0
 30
0.0
 70
   128
 71
  -418
 72
  -419
 73
   420
  0
VERTEX
  5
551
  8
0
 10
0.0
 20
0.0
 30
0.0
 70
   128
 71
  -420
 72
  -419
 73
   421
  0
VERTEX
  5
552
  8
0
 10
0.0
 20
0.0
 30
0.0
 70
   128
 71
  -421
 72
  -419
 73
   422
  0
VERTEX
  5
553
  8
0
 10
0.0
 20
0.0
 30
0.0
 70
   128
 71
  -422
 72
  -419
 73
  -423
  0
VERTEX
  5
554
  8
0
 10
0.0
 20
0.0
 30
0.0
 70
   128
 71
  -422
 72
  -423
 73
  -424
  0
VERTEX
  5
555
  8
0
 10
0.0
 20
0.0
 30
0.0
 70
   128
 71
  -422
 72
  -424
 73
   425
  0
VERTEX
  5
556
  8
0
 10
0.0
 20
0.0
 30
0.0
 70
   128
 71
  -423
 72
   419
 73
  -426
  0
VERTEX
  5
557
  8
0
 10
0.0
 20
0.0
 30
0.0
 70
   128
 71
  -423
 72
   426
 73
  -427
  0
VERTEX
  5
558
  8
0
 10
0.0
 20
0.0
 30
0.0
 70
   128
 71
  -423
 72
   427
 73
  -428
  0
VERTEX
  5
559
  8
0
 10
0.0
 20
0.0
 30
0.0
 70
   128
 71
  -423
 72
   428
 73
  -130
  0
VERTEX
  5
55A
  8
0
 10
0.0
 20
0.0
 30
0.0
 70
   128
 71
  -423
 72
  -130
 73
  -129
  0
VERTEX
  5
55B
  8
0
 10
0.0
 20
0.0
 30
0.0
 70
   128
 71
  -423
 72
   129
 73
  -109
  0
VERTEX
  5
55C
  8
0
 10
0.0
 20
0.0
 30
0.0
 70
   128
 71
  -423
 72
  -109
 73
  -108
  0
VERTEX
  5
55D
  8
0
 10
0.0
 20
0.0
 30
0.0
 70
   128
 71
  -423
 72
   108
 73
  -127
  0
VERTEX
  5
55E
  8
0
 10
0.0
 20
0.0
 30
0.0
 70
   128
 71
  -423
 72
  -127
 73
  -126
  0
VERTEX
  5
55F
  8
0
 10
0.0
 20
0.0
 30
0.0
 70
   128
 71
  -423
 72
   126
 73
  -125
  0
VERTEX
  5
560
  8
0
 10
0.0
 20
0.0
 30
0.0
 70
   128
 71
  -423
 72
  -125
 73
  -124
  0
VERTEX
  5
561
  8
0
 10
0.0
 20
0.0
 30
0.0
 70
   128
 71
  -423
 72
   124
 73
  -123
  0
VERTEX
  5
562
  8
0
 10
0.0
 20
0.0
 30
0.0
 70
   128
 71
  -423
 72
  -123
 73
   122
  0
VERTEX
  5
563
  8
0
 10
0.0
 20
0.0
 30
0.0
 70
   128
 71
  -424
 72
   423
 73
  -118
  0
VERTEX
  5
564
  8
0
 10
0.0
 20
0.0
 30
0.0
 70
   128
 71
  -424
 72
  -118
 73
  -429
  0
VERTEX
  5
565
  8
0
 10
0.0
 20
0.0
 30
0.0
 70
   128
 71
  -429
 72
  -118
 73
   110
  0
VERTEX
  5
566
  8
0
 10
0.0
 20
0.0
 30
0.0
 70
   128
 71
  -424
 72
   429
 73
  -430
  0
VERTEX
  5
567
  8
0
 10
0.0
 20
0.0
 30
0.0
 70
   128
 71
  -424
 72
   430
 73
  -431
  0
VERTEX
  5
568
  8
0
 10
0.0
 20
0.0
 30
0.0
 70
   128
 71
  -424
 72
   431
 73
  -432
  0
VERTEX
  5
569
  8
0
 10
0.0
 20
0.0
 30
0.0
 70
   128
 71
  -424
 72
   432
 73
  -433
  0
VERTEX
  5
56A
  8
0
 10
0.0
 20
0.0
 30
0.0
 70
   128
 71
  -424
 72
   433
 73
  -434
  0
VERTEX
  5
56B
  8
0
 10
0.0
 20
0.0
 30
0.0
 70
   128
 71
  -424
 72
   434
 73
  -435
  0
VERTEX
  5
56C
  8
0
 10
0.0
 20
0.0
 30
0.0
 70
   128
 71
  -424
 72
   435
 73
  -436
  0
VERTEX
  5
56D
  8
0
 10
0.0
 20
0.0
 30
0.0
 70
   128
 71
  -424
 72
   436
 73
  -437
  0
VERTEX
  5
56E
  8
0
 10
0.0
 20
0.0
 30
0.0
 70
   128
 71
  -424
 72
   437
 73
  -438
  0
VERTEX
  5
56F
  8
0
 10
0.0
 20
0.0
 30
0.0
 70
   128
 71
  -424
 72
   438
 73
  -439
  0
VERTEX
  5
570
  8
0
 10
0.0
 20
0.0
 30
0.0
 70
   128
 71
  -424
 72
   439
 73
  -153
  0
VERTEX
  5
571
  8
0
 10
0.0
 20
0.0
 30
0.0
 70
   128
 71
  -424
 72
  -153
 73
  -440
  0
VERTEX
  5
572
  8
0
 10
0.0
 20
0.0
 30
0.0
 70
   128
 71
  -440
 72
  -153
 73
   150
  0
VERTEX
  5
573
  8
0
 10
0.0
 20
0.0
 30
0.0
 70
   128
 71
  -424
 72
  -440
 73
   441
  0
VERTEX
  5
574
  8
0
 10
0.0
 20
0.0
 30
0.0
 70
   128
 71
  -425
 72
   424
 73
  -442
  0
VERTEX
  5
575
  8
0
 10
0.0
 20
0.0
 30
0.0
 70
   128
 71
  -425
 72
  -442
 73
  -443
  0
VERTEX
  5
576
  8
0
 10
0.0
 20
0.0
 30
0.0
 70
   128
 71
  -443
 72
  -442
 73
  -444
  0
VERTEX
  5
577
  8
0
 10
0.0
 20
0.0
 30
0.0
 70
   128
 71
  -444
 72
  -442
 73
   445
  0
VERTEX
  5
578
  8
0
 10
0.0
 20
0.0
 30
0.0
 70
   128
 71
  -443
 72
   444
 73
  -446
  0
VERTEX
  5
579
  8
0
 10
0.0
 20
0.0
 30
0.0
 70
   128
 71
  -443
 72
   446
 73
  -447
  0
VERTEX
  5
57A
  8
0
 10
0.0
 20
0.0
 30
0.0
 70
   128
 71
  -443
 72
   447
 73
  -448
  0
VERTEX
  5
57B
  8
0
 10
0.0
 20
0.0
 30
0.0
 70
   128
 71
  -443
 72
   448
 73
  -449
  0
VERTEX
  5
57C
  8
0
 10
0.0
 20
0.0
 30
0.0
 70
   128
 71
  -443
 72
   449
 73
  -450
  0
VERTEX
  5
57D
  8
0
 10
0.0
 20
0.0
 30
0.0
 70
   128
 71
  -443
 72
   450
 73
  -451
  0
VERTEX
  5
57E
  8
0
 10
0.0
 20
0.0
 30
0.0
 70
   128
 71
  -443
 72
   451
 73
  -452
  0
VERTEX
  5
57F
  8
0
 10
0.0
 20
0.0
 30
0.0
 70
   128
 71
  -443
 72
   452
 73
  -453
  0
VERTEX
  5
580
  8
0
 10
0.0
 20
0.0
 30
0.0
 70
   128
 71
  -443
 72
   453
 73
  -454
  0
VERTEX
  5
581
  8
0
 10
0.0
 20
0.0
 30
0.0
 70
   128
 71
  -443
 72
   454
 73
  -455
  0
VERTEX
  5
582
  8
0
 10
0.0
 20
0.0
 30
0.0
 70
   128
 71
  -443
 72
   455
 73
  -456
  0
VERTEX
  5
583
  8
0
 10
0.0
 20
0.0
 30
0.0
 70
   128
 71
  -443
 72
  -456
 73
  -457
  0
VERTEX
  5
584
  8
0
 10
0.0
 20
0.0
 30
0.0
 70
   128
 71
  -443
 72
   457
 73
  -458
  0
VERTEX
  5
585
  8
0
 10
0.0
 20
0.0
 30
0.0
 70
   128
 71
  -443
 72
  -458
 73
  -459
  0
VERTEX
  5
586
  8
0
 10
0.0
 20
0.0
 30
0.0
 70
   128
 71
  -443
 72
   459
 73
  -460
  0
VERTEX
  5
587
  8
0
 10
0.0
 20
0.0
 30
0.0
 70
   128
 71
  -443
 72
  -460
 73
  -461
  0
VERTEX
  5
588
  8
0
 10
0.0
 20
0.0
 30
0.0
 70
   128
 71
  -443
 72
   461
 73
  -462
  0
VERTEX
  5
589
  8
0
 10
0.0
 20
0.0
 30
0.0
 70
   128
 71
  -443
 72
  -462
 73
   463
  0
VERTEX
  5
58A
  8
0
 10
0.0
 20
0.0
 30
0.0
 70
   128
 71
  -425
 72
   443
 73
  -403
  0
VERTEX
  5
58B
  8
0
 10
0.0
 20
0.0
 30
0.0
 70
   128
 71
  -425
 72
  -403
 73
   404
  0
VERTEX
  5
58C
  8
0
 10
0.0
 20
0.0
 30
0.0
 70
   128
 71
  -401
 72
  -463
 73
   462
  0
VERTEX
  5
58D
  8
0
 10
0.0
 20
0.0
 30
0.0
 70
   128
 71
  -463
 72
  -401
 73
   402
  0
VERTEX
  5
58E
  8
0
 10
0.0
 20
0.0
 30
0.0
 70
   128
 71
  -399
 72
  -461
 73
   460
  0
VERTEX
  5
58F
  8
0
 10
0.0
 20
0.0
 30
0.0
 70
   128
 71
  -461
 72
  -399
 73
   400
  0
VERTEX
  5
590
  8
0
 10
0.0
 20
0.0
 30
0.0
 70
   128
 71
  -397
 72
  -459
 73
   458
  0
VERTEX
  5
591
  8
0
 10
0.0
 20
0.0
 30
0.0
 70
   128
 71
  -459
 72
  -397
 73
   398
  0
VERTEX
  5
592
  8
0
 10
0.0
 20
0.0
 30
0.0
 70
   128
 71
  -164
 72
  -441
 73
   440
  0
VERTEX
  5
593
  8
0
 10
0.0
 20
0.0
 30
0.0
 70
   128
 71
  -441
 72
  -164
 73
   464
  0
VERTEX
  5
594
  8
0
 10
0.0
 20
0.0
 30
0.0
 70
   128
 71
  -464
 72
  -164
 73
  -465
  0
VERTEX
  5
595
  8
0
 10
0.0
 20
0.0
 30
0.0
 70
   128
 71
  -465
 72
  -164
 73
  -163
  0
VERTEX
  5
596
  8
0
 10
0.0
 20
0.0
 30
0.0
 70
   128
 71
  -465
 72
   163
 73
  -466
  0
VERTEX
  5
597
  8
0
 10
0.0
 20
0.0
 30
0.0
 70
   128
 71
  -465
 72
   466
 73
  -467
  0
VERTEX
  5
598
  8
0
 10
0.0
 20
0.0
 30
0.0
 70
   128
 71
  -465
 72
   467
 73
  -468
  0
VERTEX
  5
599
  8
0
 10
0.0
 20
0.0
 30
0.0
 70
   128
 71
  -465
 72
   468
 73
  -330
  0
VERTEX
  5
59A
  8
0
 10
0.0
 20
0.0
 30
0.0
 70
   128
 71
  -465
 72
  -330
 73
   329
  0
VERTEX
  5
59B
  8
0
 10
0.0
 20
0.0
 30
0.0
 70
   128
 71
  -464
 72
   465
 73
  -343
  0
VERTEX
  5
59C
  8
0
 10
0.0
 20
0.0
 30
0.0
 70
   128
 71
  -464
 72
  -343
 73
  -469
  0
VERTEX
  5
59D
  8
0
 10
0.0
 20
0.0
 30
0.0
 70
   128
 71
  -469
 72
  -343
 73
   342
  0
VERTEX
  5
59E
  8
0
 10
0.0
 20
0.0
 30
0.0
 70
   128
 71
  -464
 72
   469
 73
  -355
  0
VERTEX
  5
59F
  8
0
 10
0.0
 20
0.0
 30
0.0
 70
   128
 71
  -464
 72
  -355
 73
  -470
  0
VERTEX
  5
5A0
  8
0
 10
0.0
 20
0.0
 30
0.0
 70
   128
 71
  -470
 72
  -355
 73
   356
  0
VERTEX
  5
5A1
  8
0
 10
0.0
 20
0.0
 30
0.0
 70
   128
 71
  -464
 72
   470
 73
  -367
  0
VERTEX
  5
5A2
  8
0
 10
0.0
 20
0.0
 30
0.0
 70
   128
 71
  -464
 72
  -367
 73
  -471
  0
VERTEX
  5
5A3
  8
0
 10
0.0
 20
0.0
 30
0.0
 70
   128
 71
  -471
 72
  -367
 73
   368
  0
VERTEX
  5
5A4
  8
0
 10
0.0
 20
0.0
 30
0.0
 70
   128
 71
  -464
 72
   471
 73
  -378
  0
VERTEX
  5
5A5
  8
0
 10
0.0
 20
0.0
 30
0.0
 70
   128
 71
  -464
 72
  -378
 73
  -472
  0
VERTEX
  5
5A6
  8
0
 10
0.0
 20
0.0
 30
0.0
 70
   128
 71
  -472
 72
  -378
 73
   379
  0
VERTEX
  5
5A7
  8
0
 10
0.0
 20
0.0
 30
0.0
 70
   128
 71
  -464
 72
   472
 73
  -395
  0
VERTEX
  5
5A8
  8
0
 10
0.0
 20
0.0
 30
0.0
 70
   128
 71
  -464
 72
  -395
 73
  -473
  0
VERTEX
  5
5A9
  8
0
 10
0.0
 20
0.0
 30
0.0
 70
   128
 71
  -464
 72
   473
 73
  -474
  0
VERTEX
  5
5AA
  8
0
 10
0.0
 20
0.0
 30
0.0
 70
   128
 71
  -464
 72
   474
 73
  -475
  0
VERTEX
  5
5AB
  8
0
 10
0.0
 20
0.0
 30
0.0
 70
   128
 71
  -464
 72
   475
 73
  -476
  0
VERTEX
  5
5AC
  8
0
 10
0.0
 20
0.0
 30
0.0
 70
   128
 71
  -464
 72
   476
 73
  -445
  0
VERTEX
  5
5AD
  8
0
 10
0.0
 20
0.0
 30
0.0
 70
   128
 71
  -464
 72
  -445
 73
   442
  0
VERTEX
  5
5AE
  8
0
 10
0.0
 20
0.0
 30
0.0
 70
   128
 71
  -473
 72
  -395
 73
   477
  0
VERTEX
  5
5AF
  8
0
 10
0.0
 20
0.0
 30
0.0
 70
   128
 71
  -477
 72
  -395
 73
   478
  0
VERTEX
  5
5B0
  8
0
 10
0.0
 20
0.0
 30
0.0
 70
   128
 71
  -478
 72
  -395
 73
   479
  0
VERTEX
  5
5B1
  8
0
 10
0.0
 20
0.0
 30
0.0
 70
   128
 71
  -479
 72
  -395
 73
   480
  0
VERTEX
  5
5B2
  8
0
 10
0.0
 20
0.0
 30
0.0
 70
   128
 71
  -480
 72
  -395
 73
   481
  0
VERTEX
  5
5B3
  8
0
 10
0.0
 20
0.0
 30
0.0
 70
   128
 71
  -481
 72
  -395
 73
   482
  0
VERTEX
  5
5B4
  8
0
 10
0.0
 20
0.0
 30
0.0
 70
   128
 71
  -482
 72
  -395
 73
   483
  0
VERTEX
  5
5B5
  8
0
 10
0.0
 20
0.0
 30
0.0
 70
   128
 71
  -483
 72
  -395
 73
   456
  0
VERTEX
  5
5B6
  8
0
 10
0.0
 20
0.0
 30
0.0
 70
   128
 71
  -456
 72
  -395
 73
  -457
  0
VERTEX
  5
5B7
  8
0
 10
0.0
 20
0.0
 30
0.0
 70
   128
 71
  -457
 72
  -395
 73
   396
  0
VERTEX
  5
5B8
  8
0
 10
0.0
 20
0.0
 30
0.0
 70
   128
 71
  -254
 72
  -387
 73
   386
  0
VERTEX
  5
5B9
  8
0
 10
0.0
 20
0.0
 30
0.0
 70
   128
 71
  -387
 72
  -254
 73
   255
  0
VERTEX
  5
5BA
  8
0
 10
0.0
 20
0.0
 30
0.0
 70
   128
 71
  -251
 72
  -385
 73
   384
  0
VERTEX
  5
5BB
  8
0
 10
0.0
 20
0.0
 30
0.0
 70
   128
 71
  -385
 72
  -251
 73
   253
  0
VERTEX
  5
5BC
  8
0
 10
0.0
 20
0.0
 30
0.0
 70
   128
 71
  -249
 72
  -383
 73
   382
  0
VERTEX
  5
5BD
  8
0
 10
0.0
 20
0.0
 30
0.0
 70
   128
 71
  -383
 72
  -249
 73
   250
  0
VERTEX
  5
5BE
  8
0
 10
0.0
 20
0.0
 30
0.0
 70
   128
 71
  -300
 72
  -484
 73
   485
  0
VERTEX
  5
5BF
  8
0
 10
0.0
 20
0.0
 30
0.0
 70
   128
 71
  -484
 72
  -300
 73
  -296
  0
VERTEX
  5
5C0
  8
0
 10
0.0
 20
0.0
 30
0.0
 70
   128
 71
  -484
 72
   296
 73
  -486
  0
VERTEX
  5
5C1
  8
0
 10
0.0
 20
0.0
 30
0.0
 70
   128
 71
  -484
 72
  -486
 73
   487
  0
VERTEX
  5
5C2
  8
0
 10
0.0
 20
0.0
 30
0.0
 70
   128
 71
  -485
 72
   484
 73
  -304
  0
VERTEX
  5
5C3
  8
0
 10
0.0
 20
0.0
 30
0.0
 70
   128
 71
  -485
 72
  -304
 73
   488
  0
VERTEX
  5
5C4
  8
0
 10
0.0
 20
0.0
 30
0.0
 70
   128
 71
  -488
 72
  -304
 73
  -489
  0
VERTEX
  5
5C5
  8
0
 10
0.0
 20
0.0
 30
0.0
 70
   128
 71
  -489
 72
  -304
 73
   490
  0
VERTEX
  5
5C6
  8
0
 10
0.0
 20
0.0
 30
0.0
 70
   128
 71
  -490
 72
  -304
 73
  -491
  0
VERTEX
  5
5C7
  8
0
 10
0.0
 20
0.0
 30
0.0
 70
   128
 71
  -491
 72
  -304
 73
   492
  0
VERTEX
  5
5C8
  8
0
 10
0.0
 20
0.0
 30
0.0
 70
   128
 71
  -492
 72
  -304
 73
  -493
  0
VERTEX
  5
5C9
  8
0
 10
0.0
 20
0.0
 30
0.0
 70
   128
 71
  -493
 72
  -304
 73
   377
  0
VERTEX
  5
5CA
  8
0
 10
0.0
 20
0.0
 30
0.0
 70
   128
 71
  -302
 72
  -487
 73
   486
  0
VERTEX
  5
5CB
  8
0
 10
0.0
 20
0.0
 30
0.0
 70
   128
 71
  -487
 72
  -302
 73
   303
  0
VERTEX
  5
5CC
  8
0
 10
0.0
 20
0.0
 30
0.0
 70
   128
 71
  -492
 72
  -376
 73
   375
  0
VERTEX
  5
5CD
  8
0
 10
0.0
 20
0.0
 30
0.0
 70
   128
 71
  -376
 72
  -492
 73
   493
  0
VERTEX
  5
5CE
  8
0
 10
0.0
 20
0.0
 30
0.0
 70
   128
 71
  -490
 72
  -374
 73
   373
  0
VERTEX
  5
5CF
  8
0
 10
0.0
 20
0.0
 30
0.0
 70
   128
 71
  -374
 72
  -490
 73
   491
  0
VERTEX
  5
5D0
  8
0
 10
0.0
 20
0.0
 30
0.0
 70
   128
 71
  -488
 72
  -372
 73
   371
  0
VERTEX
  5
5D1
  8
0
 10
0.0
 20
0.0
 30
0.0
 70
   128
 71
  -372
 72
  -488
 73
   489
  0
VERTEX
  5
5D2
  8
0
 10
0.0
 20
0.0
 30
0.0
 70
   128
 71
  -294
 72
  -494
 73
   495
  0
VERTEX
  5
5D3
  8
0
 10
0.0
 20
0.0
 30
0.0
 70
   128
 71
  -494
 72
  -294
 73
  -290
  0
VERTEX
  5
5D4
  8
0
 10
0.0
 20
0.0
 30
0.0
 70
   128
 71
  -494
 72
   290
 73
  -496
  0
VERTEX
  5
5D5
  8
0
 10
0.0
 20
0.0
 30
0.0
 70
   128
 71
  -494
 72
  -496
 73
   497
  0
VERTEX
  5
5D6
  8
0
 10
0.0
 20
0.0
 30
0.0
 70
   128
 71
  -495
 72
   494
 73
  -299
  0
VERTEX
  5
5D7
  8
0
 10
0.0
 20
0.0
 30
0.0
 70
   128
 71
  -495
 72
  -299
 73
   498
  0
VERTEX
  5
5D8
  8
0
 10
0.0
 20
0.0
 30
0.0
 70
   128
 71
  -498
 72
  -299
 73
  -499
  0
VERTEX
  5
5D9
  8
0
 10
0.0
 20
0.0
 30
0.0
 70
   128
 71
  -499
 72
  -299
 73
   500
  0
VERTEX
  5
5DA
  8
0
 10
0.0
 20
0.0
 30
0.0
 70
   128
 71
  -500
 72
  -299
 73
  -501
  0
VERTEX
  5
5DB
  8
0
 10
0.0
 20
0.0
 30
0.0
 70
   128
 71
  -501
 72
  -299
 73
   502
  0
VERTEX
  5
5DC
  8
0
 10
0.0
 20
0.0
 30
0.0
 70
   128
 71
  -502
 72
  -299
 73
  -503
  0
VERTEX
  5
5DD
  8
0
 10
0.0
 20
0.0
 30
0.0
 70
   128
 71
  -503
 72
  -299
 73
   366
  0
VERTEX
  5
5DE
  8
0
 10
0.0
 20
0.0
 30
0.0
 70
   128
 71
  -297
 72
  -497
 73
   496
  0
VERTEX
  5
5DF
  8
0
 10
0.0
 20
0.0
 30
0.0
 70
   128
 71
  -497
 72
  -297
 73
   298
  0
VERTEX
  5
5E0
  8
0
 10
0.0
 20
0.0
 30
0.0
 70
   128
 71
  -502
 72
  -365
 73
   364
  0
VERTEX
  5
5E1
  8
0
 10
0.0
 20
0.0
 30
0.0
 70
   128
 71
  -365
 72
  -502
 73
   503
  0
VERTEX
  5
5E2
  8
0
 10
0.0
 20
0.0
 30
0.0
 70
   128
 71
  -500
 72
  -363
 73
   362
  0
VERTEX
  5
5E3
  8
0
 10
0.0
 20
0.0
 30
0.0
 70
   128
 71
  -363
 72
  -500
 73
   501
  0
VERTEX
  5
5E4
  8
0
 10
0.0
 20
0.0
 30
0.0
 70
   128
 71
  -498
 72
  -361
 73
   360
  0
VERTEX
  5
5E5
  8
0
 10
0.0
 20
0.0
 30
0.0
 70
   128
 71
  -361
 72
  -498
 73
   499
  0
VERTEX
  5
5E6
  8
0
 10
0.0
 20
0.0
 30
0.0
 70
   128
 71
  -288
 72
   504
 73
  -286
  0
VERTEX
  5
5E7
  8
0
 10
0.0
 20
0.0
 30
0.0
 70
   128
 71
  -504
 72
   288
 73
  -346
  0
VERTEX
  5
5E8
  8
0
 10
0.0
 20
0.0
 30
0.0
 70
   128
 71
  -504
 72
  -346
 73
   505
  0
VERTEX
  5
5E9
  8
0
 10
0.0
 20
0.0
 30
0.0
 70
   128
 71
  -505
 72
  -346
 73
  -506
  0
VERTEX
  5
5EA
  8
0
 10
0.0
 20
0.0
 30
0.0
 70
   128
 71
  -506
 72
  -346
 73
   507
  0
VERTEX
  5
5EB
  8
0
 10
0.0
 20
0.0
 30
0.0
 70
   128
 71
  -507
 72
  -346
 73
  -508
  0
VERTEX
  5
5EC
  8
0
 10
0.0
 20
0.0
 30
0.0
 70
   128
 71
  -508
 72
  -346
 73
   509
  0
VERTEX
  5
5ED
  8
0
 10
0.0
 20
0.0
 30
0.0
 70
   128
 71
  -509
 72
  -346
 73
  -510
  0
VERTEX
  5
5EE
  8
0
 10
0.0
 20
0.0
 30
0.0
 70
   128
 71
  -510
 72
  -346
 73
   341
  0
VERTEX
  5
5EF
  8
0
 10
0.0
 20
0.0
 30
0.0
 70
   128
 71
  -509
 72
  -340
 73
   339
  0
VERTEX
  5
5F0
  8
0
 10
0.0
 20
0.0
 30
0.0
 70
   128
 71
  -340
 72
  -509
 73
   510
  0
VERTEX
  5
5F1
  8
0
 10
0.0
 20
0.0
 30
0.0
 70
   128
 71
  -507
 72
  -338
 73
   337
  0
VERTEX
  5
5F2
  8
0
 10
0.0
 20
0.0
 30
0.0
 70
   128
 71
  -338
 72
  -507
 73
   508
  0
VERTEX
  5
5F3
  8
0
 10
0.0
 20
0.0
 30
0.0
 70
   128
 71
  -505
 72
  -336
 73
   335
  0
VERTEX
  5
5F4
  8
0
 10
0.0
 20
0.0
 30
0.0
 70
   128
 71
  -336
 72
  -505
 73
   506
  0
VERTEX
  5
5F5
  8
0
 10
0.0
 20
0.0
 30
0.0
 70
   128
 71
  -102
 72
  -511
 73
  -134
  0
VERTEX
  5
5F6
  8
0
 10
0.0
 20
0.0
 30
0.0
 70
   128
 71
  -511
 72
   102
 73
  -512
  0
VERTEX
  5
5F7
  8
0
 10
0.0
 20
0.0
 30
0.0
 70
   128
 71
  -511
 72
  -512
 73
   513
  0
VERTEX
  5
5F8
  8
0
 10
0.0
 20
0.0
 30
0.0
 70
   128
 71
  -513
 72
   512
 73
  -514
  0
VERTEX
  5
5F9
  8
0
 10
0.0
 20
0.0
 30
0.0
 70
   128
 71
  -513
 72
  -514
 73
   515
  0
VERTEX
  5
5FA
  8
0
 10
0.0
 20
0.0
 30
0.0
 70
   128
 71
  -515
 72
   514
 73
  -516
  0
VERTEX
  5
5FB
  8
0
 10
0.0
 20
0.0
 30
0.0
 70
   128
 71
  -515
 72
  -516
 73
   517
  0
VERTEX
  5
5FC
  8
0
 10
0.0
 20
0.0
 30
0.0
 70
   128
 71
  -517
 72
   516
 73
  -518
  0
VERTEX
  5
5FD
  8
0
 10
0.0
 20
0.0
 30
0.0
 70
   128
 71
  -517
 72
  -518
 73
   519
  0
VERTEX
  5
5FE
  8
0
 10
0.0
 20
0.0
 30
0.0
 70
   128
 71
  -519
 72
   518
 73
  -520
  0
VERTEX
  5
5FF
  8
0
 10
0.0
 20
0.0
 30
0.0
 70
   128
 71
  -519
 72
  -520
 73
   521
  0
VERTEX
  5
600
  8
0
 10
0.0
 20
0.0
 30
0.0
 70
   128
 71
  -521
 72
   520
 73
  -522
  0
VERTEX
  5
601
  8
0
 10
0.0
 20
0.0
 30
0.0
 70
   128
 71
  -521
 72
  -522
 73
   523
  0
VERTEX
  5
602
  8
0
 10
0.0
 20
0.0
 30
0.0
 70
   128
 71
  -523
 72
   522
 73
  -524
  0
VERTEX
  5
603
  8
0
 10
0.0
 20
0.0
 30
0.0
 70
   128
 71
  -523
 72
  -524
 73
   525
  0
VERTEX
  5
604
  8
0
 10
0.0
 20
0.0
 30
0.0
 70
   128
 71
  -525
 72
   524
 73
  -526
  0
VERTEX
  5
605
  8
0
 10
0.0
 20
0.0
 30
0.0
 70
   128
 71
  -525
 72
  -526
 73
   527
  0
VERTEX
  5
606
  8
0
 10
0.0
 20
0.0
 30
0.0
 70
   128
 71
  -527
 72
   526
 73
  -528
  0
VERTEX
  5
607
  8
0
 10
0.0
 20
0.0
 30
0.0
 70
   128
 71
  -527
 72
  -528
 73
   529
  0
VERTEX
  5
608
  8
0
 10
0.0
 20
0.0
 30
0.0
 70
   128
 71
  -529
 72
   528
 73
  -530
  0
VERTEX
  5
609
  8
0
 10
0.0
 20
0.0
 30
0.0
 70
   128
 71
  -529
 72
  -530
 73
   531
  0
VERTEX
  5
60A
  8
0
 10
0.0
 20
0.0
 30
0.0
 70
   128
 71
  -531
 72
   530
 73
  -532
  0
VERTEX
  5
60B
  8
0
 10
0.0
 20
0.0
 30
0.0
 70
   128
 71
  -531
 72
  -532
 73
   533
  0
VERTEX
  5
60C
  8
0
 10
0.0
 20
0.0
 30
0.0
 70
   128
 71
  -533
 72
   532
 73
  -189
  0
VERTEX
  5
60D
  8
0
 10
0.0
 20
0.0
 30
0.0
 70
   128
 71
  -533
 72
  -189
 73
   534
  0
VERTEX
  5
60E
  8
0
 10
0.0
 20
0.0
 30
0.0
 70
   128
 71
  -535
 72
  -133
 73
   134
  0
VERTEX
  5
60F
  8
0
 10
0.0
 20
0.0
 30
0.0
 70
   128
 71
  -133
 72
  -535
 73
   536
  0
VERTEX
  5
610
  8
0
 10
0.0
 20
0.0
 30
0.0
 70
   128
 71
  -536
 72
   535
 73
  -537
  0
VERTEX
  5
611
  8
0
 10
0.0
 20
0.0
 30
0.0
 70
   128
 71
  -536
 72
  -537
 73
   538
  0
VERTEX
  5
612
  8
0
 10
0.0
 20
0.0
 30
0.0
 70
   128
 71
  -538
 72
   537
 73
  -539
  0
VERTEX
  5
613
  8
0
 10
0.0
 20
0.0
 30
0.0
 70
   128
 71
  -538
 72
  -539
 73
   540
  0
VERTEX
  5
614
  8
0
 10
0.0
 20
0.0
 30
0.0
 70
   128
 71
  -540
 72
   539
 73
  -541
  0
VERTEX
  5
615
  8
0
 10
0.0
 20
0.0
 30
0.0
 70
   128
 71
  -540
 72
  -541
 73
   542
  0
VERTEX
  5
616
  8
0
 10
0.0
 20
0.0
 30
0.0
 70
   128
 71
  -542
 72
   541
 73
  -543
  0
VERTEX
  5
617
  8
0
 10
0.0
 20
0.0
 30
0.0
 70
   128
 71
  -542
 72
  -543
 73
   544
  0
VERTEX
  5
618
  8
0
 10
0.0
 20
0.0
 30
0.0
 70
   128
 71
  -544
 72
   543
 73
  -545
  0
VERTEX
  5
619
  8
0
 10
0.0
 20
0.0
 30
0.0
 70
   128
 71
  -544
 72
  -545
 73
   546
  0
VERTEX
  5
61A
  8
0
 10
0.0
 20
0.0
 30
0.0
 70
   128
 71
  -546
 72
   545
 73
  -547
  0
VERTEX
  5
61B
  8
0
 10
0.0
 20
0.0
 30
0.0
 70
   128
 71
  -546
 72
  -547
 73
   548
  0
VERTEX
  5
61C
  8
0
 10
0.0
 20
0.0
 30
0.0
 70
   128
 71
  -548
 72
   547
 73
  -549
  0
VERTEX
  5
61D
  8
0
 10
0.0
 20
0.0
 30
0.0
 70
   128
 71
  -548
 72
  -549
 73
   550
  0
VERTEX
  5
61E
  8
0
 10
0.0
 20
0.0
 30
0.0
 70
   128
 71
  -550
 72
   549
 73
  -551
  0
VERTEX
  5
61F
  8
0
 10
0.0
 20
0.0
 30
0.0
 70
   128
 71
  -550
 72
  -551
 73
   552
  0
VERTEX
  5
620
  8
0
 10
0.0
 20
0.0
 30
0.0
 70
   128
 71
  -552
 72
   551
 73
  -553
  0
VERTEX
  5
621
  8
0
 10
0.0
 20
0.0
 30
0.0
 70
   128
 71
  -552
 72
  -553
 73
   554
  0
VERTEX
  5
622
  8
0
 10
0.0
 20
0.0
 30
0.0
 70
   128
 71
  -554
 72
   553
 73
  -555
  0
VERTEX
  5
623
  8
0
 10
0.0
 20
0.0
 30
0.0
 70
   128
 71
  -554
 72
  -555
 73
   556
  0
VERTEX
  5
624
  8
0
 10
0.0
 20
0.0
 30
0.0
 70
   128
 71
  -556
 72
   555
 73
  -157
  0
VERTEX
  5
625
  8
0
 10
0.0
 20
0.0
 30
0.0
 70
   128
 71
  -556
 72
  -157
 73
   156
  0
VERTEX
  5
626
  8
0
 10
0.0
 20
0.0
 30
0.0
 70
   128
 71
  -511
 72
   557
 73
  -134
  0
VERTEX
  5
627
  8
0
 10
0.0
 20
0.0
 30
0.0
 70
   128
 71
  -557
 72
   511
 73
  -558
  0
VERTEX
  5
628
  8
0
 10
0.0
 20
0.0
 30
0.0
 70
   128
 71
  -557
 72
   558
 73
  -559
  0
VERTEX
  5
629
  8
0
 10
0.0
 20
0.0
 30
0.0
 70
   128
 71
  -557
 72
  -559
 73
   560
  0
VERTEX
  5
62A
  8
0
 10
0.0
 20
0.0
 30
0.0
 70
   128
 71
  -560
 72
   559
 73
  -561
  0
VERTEX
  5
62B
  8
0
 10
0.0
 20
0.0
 30
0.0
 70
   128
 71
  -560
 72
  -561
 73
   562
  0
VERTEX
  5
62C
  8
0
 10
0.0
 20
0.0
 30
0.0
 70
   128
 71
  -562
 72
   561
 73
  -563
  0
VERTEX
  5
62D
  8
0
 10
0.0
 20
0.0
 30
0.0
 70
   128
 71
  -562
 72
  -563
 73
   564
  0
VERTEX
  5
62E
  8
0
 10
0.0
 20
0.0
 30
0.0
 70
   128
 71
  -564
 72
   563
 73
  -565
  0
VERTEX
  5
62F
  8
0
 10
0.0
 20
0.0
 30
0.0
 70
   128
 71
  -564
 72
  -565
 73
   566
  0
VERTEX
  5
630
  8
0
 10
0.0
 20
0.0
 30
0.0
 70
   128
 71
  -566
 72
   565
 73
  -567
  0
VERTEX
  5
631
  8
0
 10
0.0
 20
0.0
 30
0.0
 70
   128
 71
  -566
 72
  -567
 73
   568
  0
VERTEX
  5
632
  8
0
 10
0.0
 20
0.0
 30
0.0
 70
   128
 71
  -568
 72
   567
 73
  -569
  0
VERTEX
  5
633
  8
0
 10
0.0
 20
0.0
 30
0.0
 70
   128
 71
  -568
 72
  -569
 73
   570
  0
VERTEX
  5
634
  8
0
 10
0.0
 20
0.0
 30
0.0
 70
   128
 71
  -570
 72
   569
 73
  -571
  0
VERTEX
  5
635
  8
0
 10
0.0
 20
0.0
 30
0.0
 70
   128
 71
  -570
 72
  -571
 73
   572
  0
VERTEX
  5
636
  8
0
 10
0.0
 20
0.0
 30
0.0
 70
   128
 71
  -572
 72
   571
 73
  -573
  0
VERTEX
  5
637
  8
0
 10
0.0
 20
0.0
 30
0.0
 70
   128
 71
  -572
 72
  -573
 73
   574
  0
VERTEX
  5
638
  8
0
 10
0.0
 20
0.0
 30
0.0
 70
   128
 71
  -574
 72
   573
 73
  -575
  0
VERTEX
  5
639
  8
0
 10
0.0
 20
0.0
 30
0.0
 70
   128
 71
  -574
 72
  -575
 73
   576
  0
VERTEX
  5
63A
  8
0
 10
0.0
 20
0.0
 30
0.0
 70
   128
 71
  -576
 72
   575
 73
  -577
  0
VERTEX
  5
63B
  8
0
 10
0.0
 20
0.0
 30
0.0
 70
   128
 71
  -576
 72
  -577
 73
   578
  0
VERTEX
  5
63C
  8
0
 10
0.0
 20
0.0
 30
0.0
 70
   128
 71
  -578
 72
   577
 73
  -534
  0
VERTEX
  5
63D
  8
0
 10
0.0
 20
0.0
 30
0.0
 70
   128
 71
  -578
 72
  -534
 73
   157
  0
VERTEX
  5
63E
  8
0
 10
0.0
 20
0.0
 30
0.0
 70
   128
 71
  -157
 72
  -534
 73
  -189
  0
VERTEX
  5
63F
  8
0
 10
0.0
 20
0.0
 30
0.0
 70
   128
 71
  -359
 72
  -353
 73
   352
  0
VERTEX
  5
640
  8
0
 10
0.0
 20
0.0
 30
0.0
 70
   128
 71
  -353
 72
  -359
 73
   579
  0
VERTEX
  5
641
  8
0
 10
0.0
 20
0.0
 30
0.0
 70
   128
 71
  -579
 72
  -359
 73
   354
  0
VERTEX
  5
642
  8
0
 10
0.0
 20
0.0
 30
0.0
 70
   128
 71
  -347
 72
  -580
 73
   581
  0
VERTEX
  5
643
  8
0
 10
0.0
 20
0.0
 30
0.0
 70
   128
 71
  -580
 72
  -347
 73
   582
  0
VERTEX
  5
644
  8
0
 10
0.0
 20
0.0
 30
0.0
 70
   128
 71
  -581
 72
   580
 73
  -293
  0
VERTEX
  5
645
  8
0
 10
0.0
 20
0.0
 30
0.0
 70
   128
 71
  -581
 72
  -293
 73
   583
  0
VERTEX
  5
646
  8
0
 10
0.0
 20
0.0
 30
0.0
 70
   128
 71
  -583
 72
  -293
 73
  -584
  0
VERTEX
  5
647
  8
0
 10
0.0
 20
0.0
 30
0.0
 70
   128
 71
  -584
 72
  -293
 73
   585
  0
VERTEX
  5
648
  8
0
 10
0.0
 20
0.0
 30
0.0
 70
   128
 71
  -585
 72
  -293
 73
  -586
  0
VERTEX
  5
649
  8
0
 10
0.0
 20
0.0
 30
0.0
 70
   128
 71
  -586
 72
  -293
 73
   359
  0
VERTEX
  5
64A
  8
0
 10
0.0
 20
0.0
 30
0.0
 70
   128
 71
  -287
 72
  -587
 73
   588
  0
VERTEX
  5
64B
  8
0
 10
0.0
 20
0.0
 30
0.0
 70
   128
 71
  -587
 72
  -287
 73
   285
  0
VERTEX
  5
64C
  8
0
 10
0.0
 20
0.0
 30
0.0
 70
   128
 71
  -588
 72
   587
 73
  -291
  0
VERTEX
  5
64D
  8
0
 10
0.0
 20
0.0
 30
0.0
 70
   128
 71
  -588
 72
  -291
 73
  -582
  0
VERTEX
  5
64E
  8
0
 10
0.0
 20
0.0
 30
0.0
 70
   128
 71
  -588
 72
  -582
 73
   346
  0
VERTEX
  5
64F
  8
0
 10
0.0
 20
0.0
 30
0.0
 70
   128
 71
  -346
 72
  -582
 73
  -347
  0
VERTEX
  5
650
  8
0
 10
0.0
 20
0.0
 30
0.0
 70
   128
 71
  -582
 72
  -291
 73
   292
  0
VERTEX
  5
651
  8
0
 10
0.0
 20
0.0
 30
0.0
 70
   128
 71
  -585
 72
  -351
 73
   350
  0
VERTEX
  5
652
  8
0
 10
0.0
 20
0.0
 30
0.0
 70
   128
 71
  -351
 72
  -585
 73
   586
  0
VERTEX
  5
653
  8
0
 10
0.0
 20
0.0
 30
0.0
 70
   128
 71
  -583
 72
  -349
 73
   348
  0
VERTEX
  5
654
  8
0
 10
0.0
 20
0.0
 30
0.0
 70
   128
 71
  -349
 72
  -583
 73
   584
  0
SEQEND
  5
655
  8
0
  0
ENDSEC
  0
EOF
