  0
SECTION
  2
HEADER
  9
$MEASUREMENT
  70
  1
  9
$INSUNITS
  70
  4
  0
ENDSEC
  0
SECTION
  2
TABLES
  0
TABLE
  2
LTYPE
 70
     1
  0
LTYPE
  2
CONTINUOUS
 70
    64
  3
Ausgezogene Linie
 72
    65
 73
     0
 40
0.0
  0
ENDTAB
  0
TABLE
  2
LAYER
 70
     3
  0
LAYER
  2
Contour
 70
    64
 62
     7
  6
CONTINUOUS
  0
LAYER
  2
Engraving
 70
    64
 62
     7
  6
CONTINUOUS
  0
LAYER
  2
Reference_points
 70
    64
 62
     1
  6
CONTINUOUS
  0
ENDTAB
  0
TABLE
  2
STYLE
 70
     1
  0
STYLE
  2
TXT
 70
    64
 40
0.0
 41
1.0
 50
0.0
 71
     0
 42
3.500000
  3
TXT
  0
ENDTAB
  0
ENDSEC
  0
SECTION
  2
BLOCKS
  0
ENDSEC
  0
SECTION
  2
ENTITIES
  0
LINE
  8
Contour
 62
   7
 39
0.100
  6
CONTINUOUS
 10
225.00000
 20
50.00000
 30
 0
 11
0.00000
 21
50.00000
  0
LINE
  8
Contour
 62
   7
 39
0.100
  6
CONTINUOUS
 10
0.00000
 20
50.00000
 30
 0
 11
0.00000
 21
50.00000
  0
LINE
  8
Contour
 62
   7
 39
0.100
  6
CONTINUOUS
 10
0.00000
 20
50.00000
 30
 0
 11
0.00000
 21
0.00000
  0
LINE
  8
Contour
 62
   7
 39
0.100
  6
CONTINUOUS
 10
0.00000
 20
0.00000
 30
 0
 11
0.00000
 21
0.00000
  0
LINE
  8
Contour
 62
   7
 39
0.100
  6
CONTINUOUS
 10
0.00000
 20
0.00000
 30
 0
 11
225.00000
 21
0.00000
  0
LINE
  8
Contour
 62
   7
 39
0.100
  6
CONTINUOUS
 10
225.00000
 20
0.00000
 30
 0
 11
225.00000
 21
0.00000
  0
LINE
  8
Contour
 62
   7
 39
0.100
  6
CONTINUOUS
 10
225.00000
 20
0.00000
 30
 0
 11
225.00000
 21
50.00000
  0
LINE
  8
Contour
 62
   7
 39
0.100
  6
CONTINUOUS
 10
225.00000
 20
50.00000
 30
 0
 11
225.00000
 21
50.00000
  0
ARC
  8
Engraving
 62
   255
 39
0.400
  6
CONTINUOUS
 10
17.30600
 20
35.30800
 30
 0
 40
0.59300
 50
36.77328
 51
77.83780
  0
ARC
  8
Engraving
 62
   255
 39
0.400
  6
CONTINUOUS
 10
17.13000
 20
34.50800
 30
 0
 40
1.41200
 50
77.69559
 51
106.40785
  0
ARC
  8
Engraving
 62
   255
 39
0.400
  6
CONTINUOUS
 10
16.92400
 20
35.22300
 30
 0
 40
0.66800
 50
106.78134
 51
144.31288
  0
ARC
  8
Engraving
 62
   255
 39
0.400
  6
CONTINUOUS
 10
16.75200
 20
35.34600
 30
 0
 40
0.45700
 50
144.25832
 51
251.36680
  0
LINE
  8
Engraving
 62
   255
 39
0.400
  6
CONTINUOUS
 10
16.60600
 20
34.91300
 30
 0
 11
17.48100
 21
34.61300
  0
ARC
  8
Engraving
 62
   255
 39
0.400
  6
CONTINUOUS
 10
17.33500
 20
34.18000
 30
 0
 40
0.45700
 50
324.25832
 51
71.36680
  0
ARC
  8
Engraving
 62
   255
 39
0.400
  6
CONTINUOUS
 10
17.16300
 20
34.30300
 30
 0
 40
0.66900
 50
286.78134
 51
-35.68712
  0
ARC
  8
Engraving
 62
   255
 39
0.400
  6
CONTINUOUS
 10
16.95700
 20
35.01800
 30
 0
 40
1.41300
 50
257.69559
 51
-73.59215
  0
ARC
  8
Engraving
 62
   255
 39
0.400
  6
CONTINUOUS
 10
16.78100
 20
34.21800
 30
 0
 40
0.59300
 50
216.77328
 51
-102.16220
  0
LINE
  8
Engraving
 62
   255
 39
0.400
  6
CONTINUOUS
 10
16.29500
 20
32.51300
 30
 0
 11
17.79500
 21
32.51300
  0
LINE
  8
Engraving
 62
   255
 39
0.400
  6
CONTINUOUS
 10
17.79500
 20
32.51300
 30
 0
 11
17.04500
 21
32.51300
  0
LINE
  8
Engraving
 62
   255
 39
0.400
  6
CONTINUOUS
 10
17.04500
 20
32.51300
 30
 0
 11
17.04500
 21
30.26300
  0
LINE
  8
Engraving
 62
   255
 39
0.400
  6
CONTINUOUS
 10
16.29500
 20
28.01300
 30
 0
 11
17.54500
 21
28.01300
  0
LINE
  8
Engraving
 62
   255
 39
0.400
  6
CONTINUOUS
 10
17.79500
 20
29.13800
 30
 0
 11
16.29500
 21
29.13800
  0
LINE
  8
Engraving
 62
   255
 39
0.400
  6
CONTINUOUS
 10
16.29500
 20
29.13800
 30
 0
 11
16.29500
 21
26.88800
  0
LINE
  8
Engraving
 62
   255
 39
0.400
  6
CONTINUOUS
 10
16.29500
 20
26.88800
 30
 0
 11
17.79500
 21
26.88800
  0
LINE
  8
Engraving
 62
   255
 39
0.400
  6
CONTINUOUS
 10
16.29500
 20
24.63800
 30
 0
 11
17.54500
 21
24.63800
  0
LINE
  8
Engraving
 62
   255
 39
0.400
  6
CONTINUOUS
 10
17.79500
 20
25.76300
 30
 0
 11
16.29500
 21
25.76300
  0
LINE
  8
Engraving
 62
   255
 39
0.400
  6
CONTINUOUS
 10
16.29500
 20
25.76300
 30
 0
 11
16.29500
 21
23.51300
  0
LINE
  8
Engraving
 62
   255
 39
0.400
  6
CONTINUOUS
 10
16.29500
 20
23.51300
 30
 0
 11
17.79500
 21
23.51300
  0
LINE
  8
Engraving
 62
   255
 39
0.400
  6
CONTINUOUS
 10
16.29500
 20
20.13800
 30
 0
 11
16.29500
 21
22.38800
  0
LINE
  8
Engraving
 62
   255
 39
0.400
  6
CONTINUOUS
 10
16.29500
 20
22.38800
 30
 0
 11
17.12000
 21
22.38800
  0
ARC
  8
Engraving
 62
   255
 39
0.400
  6
CONTINUOUS
 10
17.09600
 20
21.82600
 30
 0
 40
0.56300
 50
272.44097
 51
87.55469
  0
LINE
  8
Engraving
 62
   255
 39
0.400
  6
CONTINUOUS
 10
17.12000
 20
21.26300
 30
 0
 11
16.29500
 21
21.26300
  0
LINE
  8
Engraving
 62
   255
 39
0.400
  6
CONTINUOUS
 10
16.29500
 20
21.26300
 30
 0
 11
17.17000
 21
21.26300
  0
LINE
  8
Engraving
 62
   255
 39
0.400
  6
CONTINUOUS
 10
17.17000
 20
21.26300
 30
 0
 11
17.67000
 21
20.13800
  0
LINE
  8
Engraving
 62
   255
 39
0.600
  6
CONTINUOUS
 10
6.85600
 20
43.66000
 30
 0
 11
9.14400
 21
43.66000
  0
LINE
  8
Engraving
 62
   255
 39
0.600
  6
CONTINUOUS
 10
8.00000
 20
42.51600
 30
 0
 11
8.00000
 21
44.80400
  0
LINE
  8
Engraving
 62
   255
 39
0.600
  6
CONTINUOUS
 10
6.85600
 20
12.99000
 30
 0
 11
9.14400
 21
12.99000
  0
ARC
  8
Engraving
 62
   255
 39
0.400
  6
CONTINUOUS
 10
24.68800
 20
35.91500
 30
 0
 40
0.59300
 50
36.77328
 51
77.83780
  0
ARC
  8
Engraving
 62
   255
 39
0.400
  6
CONTINUOUS
 10
24.51200
 20
35.11500
 30
 0
 40
1.41200
 50
77.69559
 51
106.40785
  0
ARC
  8
Engraving
 62
   255
 39
0.400
  6
CONTINUOUS
 10
24.30600
 20
35.83000
 30
 0
 40
0.66800
 50
106.78134
 51
144.31288
  0
ARC
  8
Engraving
 62
   255
 39
0.400
  6
CONTINUOUS
 10
24.13400
 20
35.95300
 30
 0
 40
0.45700
 50
144.25832
 51
251.36680
  0
LINE
  8
Engraving
 62
   255
 39
0.400
  6
CONTINUOUS
 10
23.98800
 20
35.52000
 30
 0
 11
24.86300
 21
35.22000
  0
ARC
  8
Engraving
 62
   255
 39
0.400
  6
CONTINUOUS
 10
24.71700
 20
34.78700
 30
 0
 40
0.45700
 50
324.25832
 51
71.36680
  0
ARC
  8
Engraving
 62
   255
 39
0.400
  6
CONTINUOUS
 10
24.54500
 20
34.91000
 30
 0
 40
0.66900
 50
286.78134
 51
-35.68712
  0
ARC
  8
Engraving
 62
   255
 39
0.400
  6
CONTINUOUS
 10
24.33900
 20
35.62500
 30
 0
 40
1.41300
 50
257.69559
 51
-73.59215
  0
ARC
  8
Engraving
 62
   255
 39
0.400
  6
CONTINUOUS
 10
24.16300
 20
34.82500
 30
 0
 40
0.59300
 50
216.77328
 51
-102.16220
  0
LINE
  8
Engraving
 62
   255
 39
0.400
  6
CONTINUOUS
 10
25.76300
 20
36.49500
 30
 0
 11
26.51300
 21
35.37000
  0
LINE
  8
Engraving
 62
   255
 39
0.400
  6
CONTINUOUS
 10
26.51300
 20
35.37000
 30
 0
 11
26.51300
 21
34.24500
  0
LINE
  8
Engraving
 62
   255
 39
0.400
  6
CONTINUOUS
 10
26.51300
 20
34.24500
 30
 0
 11
26.51300
 21
35.37000
  0
LINE
  8
Engraving
 62
   255
 39
0.400
  6
CONTINUOUS
 10
26.51300
 20
35.37000
 30
 0
 11
27.26300
 21
36.49500
  0
ARC
  8
Engraving
 62
   255
 39
0.400
  6
CONTINUOUS
 10
28.83800
 20
35.91500
 30
 0
 40
0.59300
 50
36.77328
 51
77.83780
  0
ARC
  8
Engraving
 62
   255
 39
0.400
  6
CONTINUOUS
 10
28.66200
 20
35.11500
 30
 0
 40
1.41200
 50
77.69559
 51
106.40785
  0
ARC
  8
Engraving
 62
   255
 39
0.400
  6
CONTINUOUS
 10
28.45600
 20
35.83000
 30
 0
 40
0.66800
 50
106.78134
 51
144.31288
  0
ARC
  8
Engraving
 62
   255
 39
0.400
  6
CONTINUOUS
 10
28.28400
 20
35.95300
 30
 0
 40
0.45700
 50
144.25832
 51
251.36680
  0
LINE
  8
Engraving
 62
   255
 39
0.400
  6
CONTINUOUS
 10
28.13800
 20
35.52000
 30
 0
 11
29.01300
 21
35.22000
  0
ARC
  8
Engraving
 62
   255
 39
0.400
  6
CONTINUOUS
 10
28.86700
 20
34.78700
 30
 0
 40
0.45700
 50
324.25832
 51
71.36680
  0
ARC
  8
Engraving
 62
   255
 39
0.400
  6
CONTINUOUS
 10
28.69500
 20
34.91000
 30
 0
 40
0.66900
 50
286.78134
 51
-35.68712
  0
ARC
  8
Engraving
 62
   255
 39
0.400
  6
CONTINUOUS
 10
28.48900
 20
35.62500
 30
 0
 40
1.41300
 50
257.69559
 51
-73.59215
  0
ARC
  8
Engraving
 62
   255
 39
0.400
  6
CONTINUOUS
 10
28.31300
 20
34.82500
 30
 0
 40
0.59300
 50
216.77328
 51
-102.16220
  0
LINE
  8
Engraving
 62
   255
 39
0.400
  6
CONTINUOUS
 10
39.02500
 20
34.24400
 30
 0
 11
39.02500
 21
36.49400
  0
LINE
  8
Engraving
 62
   255
 39
0.400
  6
CONTINUOUS
 10
39.02500
 20
36.49400
 30
 0
 11
40.52500
 21
34.24400
  0
LINE
  8
Engraving
 62
   255
 39
0.400
  6
CONTINUOUS
 10
40.52500
 20
34.24400
 30
 0
 11
40.52500
 21
36.49400
  0
LINE
  8
Engraving
 62
   255
 39
0.400
  6
CONTINUOUS
 10
41.37500
 20
34.86900
 30
 0
 11
42.62500
 21
34.86900
  0
LINE
  8
Engraving
 62
   255
 39
0.400
  6
CONTINUOUS
 10
41.12500
 20
34.24400
 30
 0
 11
42.00000
 21
36.49400
  0
LINE
  8
Engraving
 62
   255
 39
0.400
  6
CONTINUOUS
 10
42.00000
 20
36.49400
 30
 0
 11
42.87500
 21
34.24400
  0
LINE
  8
Engraving
 62
   255
 39
0.400
  6
CONTINUOUS
 10
43.47500
 20
36.49400
 30
 0
 11
44.22500
 21
34.24400
  0
LINE
  8
Engraving
 62
   255
 39
0.400
  6
CONTINUOUS
 10
44.22500
 20
34.24400
 30
 0
 11
44.97500
 21
36.49400
  0
LINE
  8
Engraving
 62
   255
 39
0.400
  6
CONTINUOUS
 10
55.26900
 20
36.49400
 30
 0
 11
55.89400
 21
34.24400
  0
LINE
  8
Engraving
 62
   255
 39
0.400
  6
CONTINUOUS
 10
55.89400
 20
34.24400
 30
 0
 11
56.51900
 21
36.49400
  0
LINE
  8
Engraving
 62
   255
 39
0.400
  6
CONTINUOUS
 10
56.51900
 20
36.49400
 30
 0
 11
57.14400
 21
34.24400
  0
LINE
  8
Engraving
 62
   255
 39
0.400
  6
CONTINUOUS
 10
57.14400
 20
34.24400
 30
 0
 11
57.76900
 21
36.49400
  0
LINE
  8
Engraving
 62
   255
 39
0.400
  6
CONTINUOUS
 10
58.36900
 20
34.24400
 30
 0
 11
58.36900
 21
36.49400
  0
LINE
  8
Engraving
 62
   255
 39
0.400
  6
CONTINUOUS
 10
58.36900
 20
36.49400
 30
 0
 11
59.19400
 21
36.49400
  0
ARC
  8
Engraving
 62
   255
 39
0.400
  6
CONTINUOUS
 10
59.17000
 20
35.93200
 30
 0
 40
0.56300
 50
272.44097
 51
87.55469
  0
LINE
  8
Engraving
 62
   255
 39
0.400
  6
CONTINUOUS
 10
59.19400
 20
35.36900
 30
 0
 11
58.36900
 21
35.36900
  0
LINE
  8
Engraving
 62
   255
 39
0.400
  6
CONTINUOUS
 10
70.19500
 20
34.24400
 30
 0
 11
70.19500
 21
36.49400
  0
LINE
  8
Engraving
 62
   255
 39
0.400
  6
CONTINUOUS
 10
70.19500
 20
36.49400
 30
 0
 11
71.02000
 21
36.49400
  0
ARC
  8
Engraving
 62
   255
 39
0.400
  6
CONTINUOUS
 10
70.99600
 20
35.93200
 30
 0
 40
0.56300
 50
272.44097
 51
87.55469
  0
LINE
  8
Engraving
 62
   255
 39
0.400
  6
CONTINUOUS
 10
71.02000
 20
35.36900
 30
 0
 11
70.19500
 21
35.36900
  0
ARC
  8
Engraving
 62
   255
 39
0.400
  6
CONTINUOUS
 10
72.94500
 20
34.99400
 30
 0
 40
0.80000
 50
180.00000
 51
360.00000
  0
LINE
  8
Engraving
 62
   255
 39
0.400
  6
CONTINUOUS
 10
73.74500
 20
34.99400
 30
 0
 11
73.74500
 21
35.74400
  0
ARC
  8
Engraving
 62
   255
 39
0.400
  6
CONTINUOUS
 10
72.94500
 20
35.74400
 30
 0
 40
0.80000
 50
0.00000
 51
180.00000
  0
LINE
  8
Engraving
 62
   255
 39
0.400
  6
CONTINUOUS
 10
72.14500
 20
35.74400
 30
 0
 11
72.14500
 21
34.99400
  0
ARC
  8
Engraving
 62
   255
 39
0.400
  6
CONTINUOUS
 10
75.32000
 20
35.91400
 30
 0
 40
0.59300
 50
36.77328
 51
77.83780
  0
ARC
  8
Engraving
 62
   255
 39
0.400
  6
CONTINUOUS
 10
75.14400
 20
35.11400
 30
 0
 40
1.41200
 50
77.69559
 51
106.40785
  0
ARC
  8
Engraving
 62
   255
 39
0.400
  6
CONTINUOUS
 10
74.93800
 20
35.82900
 30
 0
 40
0.66800
 50
106.78134
 51
144.31288
  0
ARC
  8
Engraving
 62
   255
 39
0.400
  6
CONTINUOUS
 10
74.76600
 20
35.95200
 30
 0
 40
0.45700
 50
144.25832
 51
251.36680
  0
LINE
  8
Engraving
 62
   255
 39
0.400
  6
CONTINUOUS
 10
74.62000
 20
35.51900
 30
 0
 11
75.49500
 21
35.21900
  0
ARC
  8
Engraving
 62
   255
 39
0.400
  6
CONTINUOUS
 10
75.34900
 20
34.78600
 30
 0
 40
0.45700
 50
324.25832
 51
71.36680
  0
ARC
  8
Engraving
 62
   255
 39
0.400
  6
CONTINUOUS
 10
75.17700
 20
34.90900
 30
 0
 40
0.66900
 50
286.78134
 51
-35.68712
  0
ARC
  8
Engraving
 62
   255
 39
0.400
  6
CONTINUOUS
 10
74.97100
 20
35.62400
 30
 0
 40
1.41300
 50
257.69559
 51
-73.59215
  0
ARC
  8
Engraving
 62
   255
 39
0.400
  6
CONTINUOUS
 10
74.79500
 20
34.82400
 30
 0
 40
0.59300
 50
216.77328
 51
-102.16220
  0
ARC
  8
Engraving
 62
   255
 39
0.400
  6
CONTINUOUS
 10
23.37500
 20
19.17500
 30
 0
 40
0.80000
 50
180.00000
 51
360.00000
  0
LINE
  8
Engraving
 62
   255
 39
0.400
  6
CONTINUOUS
 10
24.17500
 20
19.17500
 30
 0
 11
24.17500
 21
19.92500
  0
ARC
  8
Engraving
 62
   255
 39
0.400
  6
CONTINUOUS
 10
23.37500
 20
19.92500
 30
 0
 40
0.80000
 50
0.00000
 51
180.00000
  0
LINE
  8
Engraving
 62
   255
 39
0.400
  6
CONTINUOUS
 10
22.57500
 20
19.92500
 30
 0
 11
22.57500
 21
19.17500
  0
ARC
  8
Engraving
 62
   255
 39
0.400
  6
CONTINUOUS
 10
25.75000
 20
20.09500
 30
 0
 40
0.59300
 50
36.77328
 51
77.83780
  0
ARC
  8
Engraving
 62
   255
 39
0.400
  6
CONTINUOUS
 10
25.57400
 20
19.29500
 30
 0
 40
1.41200
 50
77.69559
 51
106.40785
  0
ARC
  8
Engraving
 62
   255
 39
0.400
  6
CONTINUOUS
 10
25.36800
 20
20.01000
 30
 0
 40
0.66800
 50
106.78134
 51
144.31288
  0
ARC
  8
Engraving
 62
   255
 39
0.400
  6
CONTINUOUS
 10
25.19600
 20
20.13300
 30
 0
 40
0.45700
 50
144.25832
 51
251.36680
  0
LINE
  8
Engraving
 62
   255
 39
0.400
  6
CONTINUOUS
 10
25.05000
 20
19.70000
 30
 0
 11
25.92500
 21
19.40000
  0
ARC
  8
Engraving
 62
   255
 39
0.400
  6
CONTINUOUS
 10
25.77900
 20
18.96700
 30
 0
 40
0.45700
 50
324.25832
 51
71.36680
  0
ARC
  8
Engraving
 62
   255
 39
0.400
  6
CONTINUOUS
 10
25.60700
 20
19.09000
 30
 0
 40
0.66900
 50
286.78134
 51
-35.68712
  0
ARC
  8
Engraving
 62
   255
 39
0.400
  6
CONTINUOUS
 10
25.40100
 20
19.80500
 30
 0
 40
1.41300
 50
257.69559
 51
-73.59215
  0
ARC
  8
Engraving
 62
   255
 39
0.400
  6
CONTINUOUS
 10
25.22500
 20
19.00500
 30
 0
 40
0.59300
 50
216.77328
 51
-102.16220
  0
LINE
  8
Engraving
 62
   255
 39
0.400
  6
CONTINUOUS
 10
26.82500
 20
19.55000
 30
 0
 11
28.07500
 21
19.55000
  0
LINE
  8
Engraving
 62
   255
 39
0.400
  6
CONTINUOUS
 10
28.32500
 20
20.67500
 30
 0
 11
26.82500
 21
20.67500
  0
LINE
  8
Engraving
 62
   255
 39
0.400
  6
CONTINUOUS
 10
26.82500
 20
20.67500
 30
 0
 11
26.82500
 21
18.42500
  0
LINE
  8
Engraving
 62
   255
 39
0.400
  6
CONTINUOUS
 10
26.82500
 20
18.42500
 30
 0
 11
28.32500
 21
18.42500
  0
LINE
  8
Engraving
 62
   255
 39
0.400
  6
CONTINUOUS
 10
28.92500
 20
20.67500
 30
 0
 11
30.42500
 21
20.67500
  0
LINE
  8
Engraving
 62
   255
 39
0.400
  6
CONTINUOUS
 10
30.42500
 20
20.67500
 30
 0
 11
29.67500
 21
20.67500
  0
LINE
  8
Engraving
 62
   255
 39
0.400
  6
CONTINUOUS
 10
29.67500
 20
20.67500
 30
 0
 11
29.67500
 21
18.42500
  0
LINE
  8
Engraving
 62
   255
 39
0.400
  6
CONTINUOUS
 10
39.10000
 20
19.56000
 30
 0
 11
40.35000
 21
19.56000
  0
LINE
  8
Engraving
 62
   255
 39
0.400
  6
CONTINUOUS
 10
40.60000
 20
20.68500
 30
 0
 11
39.10000
 21
20.68500
  0
LINE
  8
Engraving
 62
   255
 39
0.400
  6
CONTINUOUS
 10
39.10000
 20
20.68500
 30
 0
 11
39.10000
 21
18.43500
  0
LINE
  8
Engraving
 62
   255
 39
0.400
  6
CONTINUOUS
 10
41.20000
 20
18.43500
 30
 0
 11
41.20000
 21
20.68500
  0
LINE
  8
Engraving
 62
   255
 39
0.400
  6
CONTINUOUS
 10
41.20000
 20
20.68500
 30
 0
 11
42.02500
 21
20.68500
  0
ARC
  8
Engraving
 62
   255
 39
0.400
  6
CONTINUOUS
 10
42.00100
 20
20.12300
 30
 0
 40
0.56300
 50
272.44097
 51
87.55469
  0
LINE
  8
Engraving
 62
   255
 39
0.400
  6
CONTINUOUS
 10
42.02500
 20
19.56000
 30
 0
 11
41.20000
 21
19.56000
  0
LINE
  8
Engraving
 62
   255
 39
0.400
  6
CONTINUOUS
 10
43.15000
 20
18.43500
 30
 0
 11
43.15000
 21
20.68500
  0
LINE
  8
Engraving
 62
   255
 39
0.400
  6
CONTINUOUS
 10
43.15000
 20
20.68500
 30
 0
 11
44.02500
 21
19.06000
  0
LINE
  8
Engraving
 62
   255
 39
0.400
  6
CONTINUOUS
 10
44.02500
 20
19.06000
 30
 0
 11
44.90000
 21
20.68500
  0
LINE
  8
Engraving
 62
   255
 39
0.400
  6
CONTINUOUS
 10
44.90000
 20
20.68500
 30
 0
 11
44.90000
 21
18.43500
  0
LINE
  8
Engraving
 62
   255
 39
0.400
  6
CONTINUOUS
 10
53.75000
 20
18.43500
 30
 0
 11
53.75000
 21
20.68500
  0
LINE
  8
Engraving
 62
   255
 39
0.400
  6
CONTINUOUS
 10
53.75000
 20
20.68500
 30
 0
 11
54.57500
 21
20.68500
  0
ARC
  8
Engraving
 62
   255
 39
0.400
  6
CONTINUOUS
 10
54.55100
 20
20.12300
 30
 0
 40
0.56300
 50
272.44097
 51
87.55469
  0
LINE
  8
Engraving
 62
   255
 39
0.400
  6
CONTINUOUS
 10
54.57500
 20
19.56000
 30
 0
 11
53.75000
 21
19.56000
  0
LINE
  8
Engraving
 62
   255
 39
0.400
  6
CONTINUOUS
 10
55.70000
 20
18.43500
 30
 0
 11
55.70000
 21
20.68500
  0
LINE
  8
Engraving
 62
   255
 39
0.400
  6
CONTINUOUS
 10
55.70000
 20
20.68500
 30
 0
 11
56.52500
 21
20.68500
  0
ARC
  8
Engraving
 62
   255
 39
0.400
  6
CONTINUOUS
 10
56.50100
 20
20.12300
 30
 0
 40
0.56300
 50
272.44097
 51
87.55469
  0
LINE
  8
Engraving
 62
   255
 39
0.400
  6
CONTINUOUS
 10
56.52500
 20
19.56000
 30
 0
 11
55.70000
 21
19.56000
  0
LINE
  8
Engraving
 62
   255
 39
0.400
  6
CONTINUOUS
 10
55.70000
 20
19.56000
 30
 0
 11
56.57500
 21
19.56000
  0
LINE
  8
Engraving
 62
   255
 39
0.400
  6
CONTINUOUS
 10
56.57500
 20
19.56000
 30
 0
 11
57.07500
 21
18.43500
  0
LINE
  8
Engraving
 62
   255
 39
0.400
  6
CONTINUOUS
 10
57.65000
 20
19.56000
 30
 0
 11
58.90000
 21
19.56000
  0
LINE
  8
Engraving
 62
   255
 39
0.400
  6
CONTINUOUS
 10
59.15000
 20
20.68500
 30
 0
 11
57.65000
 21
20.68500
  0
LINE
  8
Engraving
 62
   255
 39
0.400
  6
CONTINUOUS
 10
57.65000
 20
20.68500
 30
 0
 11
57.65000
 21
18.43500
  0
LINE
  8
Engraving
 62
   255
 39
0.400
  6
CONTINUOUS
 10
57.65000
 20
18.43500
 30
 0
 11
59.15000
 21
18.43500
  0
LINE
  8
Engraving
 62
   255
 39
0.400
  6
CONTINUOUS
 10
59.75000
 20
20.68500
 30
 0
 11
60.50000
 21
18.43500
  0
LINE
  8
Engraving
 62
   255
 39
0.400
  6
CONTINUOUS
 10
60.50000
 20
18.43500
 30
 0
 11
61.25000
 21
20.68500
  0
ARC
  8
Engraving
 62
   255
 39
0.400
  6
CONTINUOUS
 10
69.13100
 20
20.10600
 30
 0
 40
0.59300
 50
36.77328
 51
77.83780
  0
ARC
  8
Engraving
 62
   255
 39
0.400
  6
CONTINUOUS
 10
68.95500
 20
19.30600
 30
 0
 40
1.41200
 50
77.69559
 51
106.40785
  0
ARC
  8
Engraving
 62
   255
 39
0.400
  6
CONTINUOUS
 10
68.74900
 20
20.02100
 30
 0
 40
0.66800
 50
106.78134
 51
144.31288
  0
ARC
  8
Engraving
 62
   255
 39
0.400
  6
CONTINUOUS
 10
68.57700
 20
20.14400
 30
 0
 40
0.45700
 50
144.25832
 51
251.36680
  0
LINE
  8
Engraving
 62
   255
 39
0.400
  6
CONTINUOUS
 10
68.43100
 20
19.71100
 30
 0
 11
69.30600
 21
19.41100
  0
ARC
  8
Engraving
 62
   255
 39
0.400
  6
CONTINUOUS
 10
69.16000
 20
18.97800
 30
 0
 40
0.45700
 50
324.25832
 51
71.36680
  0
ARC
  8
Engraving
 62
   255
 39
0.400
  6
CONTINUOUS
 10
68.98800
 20
19.10100
 30
 0
 40
0.66900
 50
286.78134
 51
-35.68712
  0
ARC
  8
Engraving
 62
   255
 39
0.400
  6
CONTINUOUS
 10
68.78200
 20
19.81600
 30
 0
 40
1.41300
 50
257.69559
 51
-73.59215
  0
ARC
  8
Engraving
 62
   255
 39
0.400
  6
CONTINUOUS
 10
68.60600
 20
19.01600
 30
 0
 40
0.59300
 50
216.77328
 51
-102.16220
  0
LINE
  8
Engraving
 62
   255
 39
0.400
  6
CONTINUOUS
 10
70.20600
 20
20.68600
 30
 0
 11
71.70600
 21
20.68600
  0
LINE
  8
Engraving
 62
   255
 39
0.400
  6
CONTINUOUS
 10
71.70600
 20
20.68600
 30
 0
 11
70.95600
 21
20.68600
  0
LINE
  8
Engraving
 62
   255
 39
0.400
  6
CONTINUOUS
 10
70.95600
 20
20.68600
 30
 0
 11
70.95600
 21
18.43600
  0
LINE
  8
Engraving
 62
   255
 39
0.400
  6
CONTINUOUS
 10
72.30600
 20
19.56100
 30
 0
 11
73.55600
 21
19.56100
  0
LINE
  8
Engraving
 62
   255
 39
0.400
  6
CONTINUOUS
 10
73.80600
 20
20.68600
 30
 0
 11
72.30600
 21
20.68600
  0
LINE
  8
Engraving
 62
   255
 39
0.400
  6
CONTINUOUS
 10
72.30600
 20
20.68600
 30
 0
 11
72.30600
 21
18.43600
  0
LINE
  8
Engraving
 62
   255
 39
0.400
  6
CONTINUOUS
 10
72.30600
 20
18.43600
 30
 0
 11
73.80600
 21
18.43600
  0
LINE
  8
Engraving
 62
   255
 39
0.400
  6
CONTINUOUS
 10
74.40600
 20
19.56100
 30
 0
 11
75.65600
 21
19.56100
  0
LINE
  8
Engraving
 62
   255
 39
0.400
  6
CONTINUOUS
 10
75.90600
 20
20.68600
 30
 0
 11
74.40600
 21
20.68600
  0
LINE
  8
Engraving
 62
   255
 39
0.400
  6
CONTINUOUS
 10
74.40600
 20
20.68600
 30
 0
 11
74.40600
 21
18.43600
  0
LINE
  8
Engraving
 62
   255
 39
0.400
  6
CONTINUOUS
 10
74.40600
 20
18.43600
 30
 0
 11
75.90600
 21
18.43600
  0
LINE
  8
Engraving
 62
   255
 39
0.400
  6
CONTINUOUS
 10
76.50600
 20
18.43600
 30
 0
 11
76.50600
 21
20.68600
  0
LINE
  8
Engraving
 62
   255
 39
0.400
  6
CONTINUOUS
 10
76.50600
 20
20.68600
 30
 0
 11
77.33100
 21
20.68600
  0
ARC
  8
Engraving
 62
   255
 39
0.400
  6
CONTINUOUS
 10
77.30700
 20
20.12400
 30
 0
 40
0.56300
 50
272.44097
 51
87.55469
  0
LINE
  8
Engraving
 62
   255
 39
0.400
  6
CONTINUOUS
 10
77.33100
 20
19.56100
 30
 0
 11
76.50600
 21
19.56100
  0
LINE
  8
Engraving
 62
   255
 39
0.400
  6
CONTINUOUS
 10
76.50600
 20
19.56100
 30
 0
 11
77.38100
 21
19.56100
  0
LINE
  8
Engraving
 62
   255
 39
0.400
  6
CONTINUOUS
 10
77.38100
 20
19.56100
 30
 0
 11
77.88100
 21
18.43600
  0
LINE
  8
Engraving
 62
   255
 39
0.400
  6
CONTINUOUS
 10
21.62500
 20
3.70200
 30
 0
 11
22.87500
 21
3.70200
  0
LINE
  8
Engraving
 62
   255
 39
0.400
  6
CONTINUOUS
 10
23.12500
 20
4.82700
 30
 0
 11
21.62500
 21
4.82700
  0
LINE
  8
Engraving
 62
   255
 39
0.400
  6
CONTINUOUS
 10
21.62500
 20
4.82700
 30
 0
 11
21.62500
 21
2.57700
  0
LINE
  8
Engraving
 62
   255
 39
0.400
  6
CONTINUOUS
 10
23.72500
 20
2.57700
 30
 0
 11
23.72500
 21
4.82700
  0
LINE
  8
Engraving
 62
   255
 39
0.400
  6
CONTINUOUS
 10
23.72500
 20
4.82700
 30
 0
 11
24.55000
 21
4.82700
  0
ARC
  8
Engraving
 62
   255
 39
0.400
  6
CONTINUOUS
 10
24.52600
 20
4.26500
 30
 0
 40
0.56300
 50
272.44097
 51
87.55469
  0
LINE
  8
Engraving
 62
   255
 39
0.400
  6
CONTINUOUS
 10
24.55000
 20
3.70200
 30
 0
 11
23.72500
 21
3.70200
  0
LINE
  8
Engraving
 62
   255
 39
0.400
  6
CONTINUOUS
 10
25.67500
 20
4.82700
 30
 0
 11
25.67500
 21
2.57700
  0
LINE
  8
Engraving
 62
   255
 39
0.400
  6
CONTINUOUS
 10
25.67500
 20
2.57700
 30
 0
 11
26.92500
 21
2.57700
  0
LINE
  8
Engraving
 62
   255
 39
0.400
  6
CONTINUOUS
 10
27.77500
 20
3.20200
 30
 0
 11
29.02500
 21
3.20200
  0
LINE
  8
Engraving
 62
   255
 39
0.400
  6
CONTINUOUS
 10
27.52500
 20
2.57700
 30
 0
 11
28.40000
 21
4.82700
  0
LINE
  8
Engraving
 62
   255
 39
0.400
  6
CONTINUOUS
 10
28.40000
 20
4.82700
 30
 0
 11
29.27500
 21
2.57700
  0
LINE
  8
Engraving
 62
   255
 39
0.400
  6
CONTINUOUS
 10
29.87500
 20
2.57700
 30
 0
 11
29.87500
 21
4.82700
  0
LINE
  8
Engraving
 62
   255
 39
0.400
  6
CONTINUOUS
 10
29.87500
 20
4.82700
 30
 0
 11
31.37500
 21
2.57700
  0
LINE
  8
Engraving
 62
   255
 39
0.400
  6
CONTINUOUS
 10
31.37500
 20
2.57700
 30
 0
 11
31.37500
 21
4.82700
  0
LINE
  8
Engraving
 62
   255
 39
0.400
  6
CONTINUOUS
 10
37.92500
 20
2.57700
 30
 0
 11
37.92500
 21
4.82700
  0
LINE
  8
Engraving
 62
   255
 39
0.400
  6
CONTINUOUS
 10
37.92500
 20
4.82700
 30
 0
 11
38.80000
 21
3.20200
  0
LINE
  8
Engraving
 62
   255
 39
0.400
  6
CONTINUOUS
 10
38.80000
 20
3.20200
 30
 0
 11
39.67500
 21
4.82700
  0
LINE
  8
Engraving
 62
   255
 39
0.400
  6
CONTINUOUS
 10
39.67500
 20
4.82700
 30
 0
 11
39.67500
 21
2.57700
  0
LINE
  8
Engraving
 62
   255
 39
0.400
  6
CONTINUOUS
 10
40.52500
 20
3.20200
 30
 0
 11
41.77500
 21
3.20200
  0
LINE
  8
Engraving
 62
   255
 39
0.400
  6
CONTINUOUS
 10
40.27500
 20
2.57700
 30
 0
 11
41.15000
 21
4.82700
  0
LINE
  8
Engraving
 62
   255
 39
0.400
  6
CONTINUOUS
 10
41.15000
 20
4.82700
 30
 0
 11
42.02500
 21
2.57700
  0
LINE
  8
Engraving
 62
   255
 39
0.400
  6
CONTINUOUS
 10
42.62500
 20
2.57700
 30
 0
 11
42.62500
 21
4.82700
  0
LINE
  8
Engraving
 62
   255
 39
0.400
  6
CONTINUOUS
 10
42.62500
 20
4.82700
 30
 0
 11
43.45000
 21
4.82700
  0
ARC
  8
Engraving
 62
   255
 39
0.400
  6
CONTINUOUS
 10
43.42600
 20
4.26500
 30
 0
 40
0.56300
 50
272.44097
 51
87.55469
  0
LINE
  8
Engraving
 62
   255
 39
0.400
  6
CONTINUOUS
 10
43.45000
 20
3.70200
 30
 0
 11
42.62500
 21
3.70200
  0
LINE
  8
Engraving
 62
   255
 39
0.400
  6
CONTINUOUS
 10
42.62500
 20
3.70200
 30
 0
 11
43.50000
 21
3.70200
  0
LINE
  8
Engraving
 62
   255
 39
0.400
  6
CONTINUOUS
 10
43.50000
 20
3.70200
 30
 0
 11
44.00000
 21
2.57700
  0
LINE
  8
Engraving
 62
   255
 39
0.400
  6
CONTINUOUS
 10
44.57500
 20
4.82700
 30
 0
 11
44.57500
 21
2.57700
  0
LINE
  8
Engraving
 62
   255
 39
0.400
  6
CONTINUOUS
 10
44.57500
 20
2.57700
 30
 0
 11
44.57500
 21
3.42700
  0
LINE
  8
Engraving
 62
   255
 39
0.400
  6
CONTINUOUS
 10
44.57500
 20
3.42700
 30
 0
 11
45.00000
 21
3.82700
  0
LINE
  8
Engraving
 62
   255
 39
0.400
  6
CONTINUOUS
 10
45.00000
 20
3.82700
 30
 0
 11
46.07500
 21
2.57700
  0
LINE
  8
Engraving
 62
   255
 39
0.400
  6
CONTINUOUS
 10
46.07500
 20
2.57700
 30
 0
 11
45.00000
 21
3.82700
  0
LINE
  8
Engraving
 62
   255
 39
0.400
  6
CONTINUOUS
 10
45.00000
 20
3.82700
 30
 0
 11
46.07500
 21
4.82700
  0
LINE
  8
Engraving
 62
   255
 39
0.400
  6
CONTINUOUS
 10
54.55000
 20
2.57800
 30
 0
 11
54.55000
 21
4.82800
  0
LINE
  8
Engraving
 62
   255
 39
0.400
  6
CONTINUOUS
 10
54.55000
 20
4.82800
 30
 0
 11
55.42500
 21
3.20300
  0
LINE
  8
Engraving
 62
   255
 39
0.400
  6
CONTINUOUS
 10
55.42500
 20
3.20300
 30
 0
 11
56.30000
 21
4.82800
  0
LINE
  8
Engraving
 62
   255
 39
0.400
  6
CONTINUOUS
 10
56.30000
 20
4.82800
 30
 0
 11
56.30000
 21
2.57800
  0
ARC
  8
Engraving
 62
   255
 39
0.400
  6
CONTINUOUS
 10
57.87500
 20
4.24800
 30
 0
 40
0.59300
 50
36.77328
 51
77.83780
  0
ARC
  8
Engraving
 62
   255
 39
0.400
  6
CONTINUOUS
 10
57.69900
 20
3.44800
 30
 0
 40
1.41200
 50
77.69559
 51
106.40785
  0
ARC
  8
Engraving
 62
   255
 39
0.400
  6
CONTINUOUS
 10
57.49300
 20
4.16300
 30
 0
 40
0.66800
 50
106.78134
 51
144.31288
  0
ARC
  8
Engraving
 62
   255
 39
0.400
  6
CONTINUOUS
 10
57.32100
 20
4.28600
 30
 0
 40
0.45700
 50
144.25832
 51
251.36680
  0
LINE
  8
Engraving
 62
   255
 39
0.400
  6
CONTINUOUS
 10
57.17500
 20
3.85300
 30
 0
 11
58.05000
 21
3.55300
  0
ARC
  8
Engraving
 62
   255
 39
0.400
  6
CONTINUOUS
 10
57.90400
 20
3.12000
 30
 0
 40
0.45700
 50
324.25832
 51
71.36680
  0
ARC
  8
Engraving
 62
   255
 39
0.400
  6
CONTINUOUS
 10
57.73200
 20
3.24300
 30
 0
 40
0.66900
 50
286.78134
 51
-35.68712
  0
ARC
  8
Engraving
 62
   255
 39
0.400
  6
CONTINUOUS
 10
57.52600
 20
3.95800
 30
 0
 40
1.41300
 50
257.69559
 51
-73.59215
  0
ARC
  8
Engraving
 62
   255
 39
0.400
  6
CONTINUOUS
 10
57.35000
 20
3.15800
 30
 0
 40
0.59300
 50
216.77328
 51
-102.16220
  0
LINE
  8
Engraving
 62
   255
 39
0.400
  6
CONTINUOUS
 10
58.95000
 20
2.57800
 30
 0
 11
58.95000
 21
4.82800
  0
LINE
  8
Engraving
 62
   255
 39
0.400
  6
CONTINUOUS
 10
58.95000
 20
4.82800
 30
 0
 11
60.45000
 21
2.57800
  0
LINE
  8
Engraving
 62
   255
 39
0.400
  6
CONTINUOUS
 10
60.45000
 20
2.57800
 30
 0
 11
60.45000
 21
4.82800
  0
LINE
  8
Engraving
 62
   255
 39
0.400
  6
CONTINUOUS
 10
67.50000
 20
4.82700
 30
 0
 11
68.12500
 21
2.57700
  0
LINE
  8
Engraving
 62
   255
 39
0.400
  6
CONTINUOUS
 10
68.12500
 20
2.57700
 30
 0
 11
68.75000
 21
4.82700
  0
LINE
  8
Engraving
 62
   255
 39
0.400
  6
CONTINUOUS
 10
68.75000
 20
4.82700
 30
 0
 11
69.37500
 21
2.57700
  0
LINE
  8
Engraving
 62
   255
 39
0.400
  6
CONTINUOUS
 10
69.37500
 20
2.57700
 30
 0
 11
70.00000
 21
4.82700
  0
LINE
  8
Engraving
 62
   255
 39
0.400
  6
CONTINUOUS
 10
70.85000
 20
3.20200
 30
 0
 11
72.10000
 21
3.20200
  0
LINE
  8
Engraving
 62
   255
 39
0.400
  6
CONTINUOUS
 10
70.60000
 20
2.57700
 30
 0
 11
71.47500
 21
4.82700
  0
LINE
  8
Engraving
 62
   255
 39
0.400
  6
CONTINUOUS
 10
71.47500
 20
4.82700
 30
 0
 11
72.35000
 21
2.57700
  0
LINE
  8
Engraving
 62
   255
 39
0.400
  6
CONTINUOUS
 10
72.95000
 20
4.82700
 30
 0
 11
73.70000
 21
3.70200
  0
LINE
  8
Engraving
 62
   255
 39
0.400
  6
CONTINUOUS
 10
73.70000
 20
3.70200
 30
 0
 11
73.70000
 21
2.57700
  0
LINE
  8
Engraving
 62
   255
 39
0.400
  6
CONTINUOUS
 10
73.70000
 20
2.57700
 30
 0
 11
73.70000
 21
3.70200
  0
LINE
  8
Engraving
 62
   255
 39
0.400
  6
CONTINUOUS
 10
73.70000
 20
3.70200
 30
 0
 11
74.45000
 21
4.82700
  0
LINE
  8
Engraving
 62
   255
 39
0.400
  6
CONTINUOUS
 10
75.05000
 20
2.57700
 30
 0
 11
75.05000
 21
4.82700
  0
LINE
  8
Engraving
 62
   255
 39
0.400
  6
CONTINUOUS
 10
75.05000
 20
4.82700
 30
 0
 11
75.87500
 21
4.82700
  0
ARC
  8
Engraving
 62
   255
 39
0.400
  6
CONTINUOUS
 10
75.85100
 20
4.26500
 30
 0
 40
0.56300
 50
272.44097
 51
87.55469
  0
LINE
  8
Engraving
 62
   255
 39
0.400
  6
CONTINUOUS
 10
75.87500
 20
3.70200
 30
 0
 11
75.05000
 21
3.70200
  0
LINE
  8
Engraving
 62
   255
 39
0.400
  6
CONTINUOUS
 10
77.00000
 20
4.82700
 30
 0
 11
78.50000
 21
4.82700
  0
LINE
  8
Engraving
 62
   255
 39
0.400
  6
CONTINUOUS
 10
78.50000
 20
4.82700
 30
 0
 11
77.75000
 21
4.82700
  0
LINE
  8
Engraving
 62
   255
 39
0.400
  6
CONTINUOUS
 10
77.75000
 20
4.82700
 30
 0
 11
77.75000
 21
2.57700
  0
LINE
  8
Engraving
 62
   255
 39
0.400
  6
CONTINUOUS
 10
84.47500
 20
2.57700
 30
 0
 11
84.47500
 21
4.82700
  0
LINE
  8
Engraving
 62
   255
 39
0.400
  6
CONTINUOUS
 10
84.47500
 20
4.82700
 30
 0
 11
85.35000
 21
3.20200
  0
LINE
  8
Engraving
 62
   255
 39
0.400
  6
CONTINUOUS
 10
85.35000
 20
3.20200
 30
 0
 11
86.22500
 21
4.82700
  0
LINE
  8
Engraving
 62
   255
 39
0.400
  6
CONTINUOUS
 10
86.22500
 20
4.82700
 30
 0
 11
86.22500
 21
2.57700
  0
LINE
  8
Engraving
 62
   255
 39
0.400
  6
CONTINUOUS
 10
87.07500
 20
3.20200
 30
 0
 11
88.32500
 21
3.20200
  0
LINE
  8
Engraving
 62
   255
 39
0.400
  6
CONTINUOUS
 10
86.82500
 20
2.57700
 30
 0
 11
87.70000
 21
4.82700
  0
LINE
  8
Engraving
 62
   255
 39
0.400
  6
CONTINUOUS
 10
87.70000
 20
4.82700
 30
 0
 11
88.57500
 21
2.57700
  0
LINE
  8
Engraving
 62
   255
 39
0.400
  6
CONTINUOUS
 10
89.17500
 20
4.82700
 30
 0
 11
89.17500
 21
2.57700
  0
LINE
  8
Engraving
 62
   255
 39
0.400
  6
CONTINUOUS
 10
89.17500
 20
2.57700
 30
 0
 11
90.42500
 21
2.57700
  0
LINE
  8
Engraving
 62
   255
 39
0.400
  6
CONTINUOUS
 10
91.02500
 20
3.70200
 30
 0
 11
92.27500
 21
3.70200
  0
LINE
  8
Engraving
 62
   255
 39
0.400
  6
CONTINUOUS
 10
92.52500
 20
4.82700
 30
 0
 11
91.02500
 21
4.82700
  0
LINE
  8
Engraving
 62
   255
 39
0.400
  6
CONTINUOUS
 10
91.02500
 20
4.82700
 30
 0
 11
91.02500
 21
2.57700
  0
LINE
  8
Engraving
 62
   255
 39
0.400
  6
CONTINUOUS
 10
100.17500
 20
20.69400
 30
 0
 11
100.17500
 21
19.14400
  0
ARC
  8
Engraving
 62
   255
 39
0.400
  6
CONTINUOUS
 10
100.92500
 20
19.14400
 30
 0
 40
0.75000
 50
180.00000
 51
360.00000
  0
LINE
  8
Engraving
 62
   255
 39
0.400
  6
CONTINUOUS
 10
101.67500
 20
19.14400
 30
 0
 11
101.67500
 21
20.69400
  0
LINE
  8
Engraving
 62
   255
 39
0.400
  6
CONTINUOUS
 10
102.27500
 20
18.44400
 30
 0
 11
102.27500
 21
20.69400
  0
LINE
  8
Engraving
 62
   255
 39
0.400
  6
CONTINUOUS
 10
102.27500
 20
20.69400
 30
 0
 11
103.10000
 21
20.69400
  0
ARC
  8
Engraving
 62
   255
 39
0.400
  6
CONTINUOUS
 10
103.07600
 20
20.13200
 30
 0
 40
0.56300
 50
272.44097
 51
87.55469
  0
LINE
  8
Engraving
 62
   255
 39
0.400
  6
CONTINUOUS
 10
103.10000
 20
19.56900
 30
 0
 11
102.27500
 21
19.56900
  0
LINE
  8
Engraving
 62
   255
 39
0.400
  6
CONTINUOUS
 10
104.22500
 20
20.69400
 30
 0
 11
105.00000
 21
20.69400
  0
ARC
  8
Engraving
 62
   255
 39
0.400
  6
CONTINUOUS
 10
104.97100
 20
19.94100
 30
 0
 40
0.75400
 50
360.22797
 51
87.79448
  0
LINE
  8
Engraving
 62
   255
 39
0.400
  6
CONTINUOUS
 10
105.72500
 20
19.94400
 30
 0
 11
105.72500
 21
19.19400
  0
ARC
  8
Engraving
 62
   255
 39
0.400
  6
CONTINUOUS
 10
105.00100
 20
19.16800
 30
 0
 40
0.72400
 50
269.92086
 51
2.05670
  0
LINE
  8
Engraving
 62
   255
 39
0.400
  6
CONTINUOUS
 10
105.00000
 20
18.44400
 30
 0
 11
104.22500
 21
18.44400
  0
LINE
  8
Engraving
 62
   255
 39
0.400
  6
CONTINUOUS
 10
104.22500
 20
18.44400
 30
 0
 11
104.22500
 21
20.69400
  0
LINE
  8
Engraving
 62
   255
 39
0.400
  6
CONTINUOUS
 10
106.32500
 20
20.69400
 30
 0
 11
107.82500
 21
20.69400
  0
LINE
  8
Engraving
 62
   255
 39
0.400
  6
CONTINUOUS
 10
107.82500
 20
20.69400
 30
 0
 11
107.07500
 21
20.69400
  0
LINE
  8
Engraving
 62
   255
 39
0.400
  6
CONTINUOUS
 10
107.07500
 20
20.69400
 30
 0
 11
107.07500
 21
18.44400
  0
LINE
  8
Engraving
 62
   255
 39
0.400
  6
CONTINUOUS
 10
181.30000
 20
21.88500
 30
 0
 11
181.30000
 21
19.63500
  0
LINE
  8
Engraving
 62
   255
 39
0.400
  6
CONTINUOUS
 10
181.90000
 20
19.63500
 30
 0
 11
181.90000
 21
21.88500
  0
LINE
  8
Engraving
 62
   255
 39
0.400
  6
CONTINUOUS
 10
181.90000
 20
21.88500
 30
 0
 11
183.40000
 21
19.63500
  0
LINE
  8
Engraving
 62
   255
 39
0.400
  6
CONTINUOUS
 10
183.40000
 20
19.63500
 30
 0
 11
183.40000
 21
21.88500
  0
LINE
  8
Engraving
 62
   255
 39
0.400
  6
CONTINUOUS
 10
184.00000
 20
21.88500
 30
 0
 11
185.50000
 21
21.88500
  0
LINE
  8
Engraving
 62
   255
 39
0.400
  6
CONTINUOUS
 10
185.50000
 20
21.88500
 30
 0
 11
184.75000
 21
21.88500
  0
LINE
  8
Engraving
 62
   255
 39
0.400
  6
CONTINUOUS
 10
184.75000
 20
21.88500
 30
 0
 11
184.75000
 21
19.63500
  0
LINE
  8
Engraving
 62
   255
 39
0.400
  6
CONTINUOUS
 10
186.10000
 20
20.76000
 30
 0
 11
187.35000
 21
20.76000
  0
LINE
  8
Engraving
 62
   255
 39
0.400
  6
CONTINUOUS
 10
187.60000
 20
21.88500
 30
 0
 11
186.10000
 21
21.88500
  0
LINE
  8
Engraving
 62
   255
 39
0.400
  6
CONTINUOUS
 10
186.10000
 20
21.88500
 30
 0
 11
186.10000
 21
19.63500
  0
LINE
  8
Engraving
 62
   255
 39
0.400
  6
CONTINUOUS
 10
186.10000
 20
19.63500
 30
 0
 11
187.60000
 21
19.63500
  0
LINE
  8
Engraving
 62
   255
 39
0.400
  6
CONTINUOUS
 10
188.20000
 20
19.63500
 30
 0
 11
188.20000
 21
21.88500
  0
LINE
  8
Engraving
 62
   255
 39
0.400
  6
CONTINUOUS
 10
188.20000
 20
21.88500
 30
 0
 11
189.70000
 21
19.63500
  0
LINE
  8
Engraving
 62
   255
 39
0.400
  6
CONTINUOUS
 10
189.70000
 20
19.63500
 30
 0
 11
189.70000
 21
21.88500
  0
LINE
  8
Engraving
 62
   255
 39
0.600
  6
CONTINUOUS
 10
188.37800
 20
42.35000
 30
 0
 11
190.35400
 21
42.35000
  0
LINE
  8
Engraving
 62
   255
 39
0.600
  6
CONTINUOUS
 10
189.36600
 20
41.36200
 30
 0
 11
189.36600
 21
43.33800
  0
LINE
  8
Engraving
 62
   255
 39
0.600
  6
CONTINUOUS
 10
188.48700
 20
27.19100
 30
 0
 11
190.46300
 21
27.19100
  0
LINE
  8
Engraving
 62
   255
 39
0.400
  6
CONTINUOUS
 10
207.71600
 20
33.63500
 30
 0
 11
208.49100
 21
33.63500
  0
ARC
  8
Engraving
 62
   255
 39
0.400
  6
CONTINUOUS
 10
208.46200
 20
32.88200
 30
 0
 40
0.75400
 50
360.22797
 51
87.79448
  0
LINE
  8
Engraving
 62
   255
 39
0.400
  6
CONTINUOUS
 10
209.21600
 20
32.88500
 30
 0
 11
209.21600
 21
32.13500
  0
ARC
  8
Engraving
 62
   255
 39
0.400
  6
CONTINUOUS
 10
208.49200
 20
32.10900
 30
 0
 40
0.72400
 50
269.92086
 51
2.05670
  0
LINE
  8
Engraving
 62
   255
 39
0.400
  6
CONTINUOUS
 10
208.49100
 20
31.38500
 30
 0
 11
207.71600
 21
31.38500
  0
LINE
  8
Engraving
 62
   255
 39
0.400
  6
CONTINUOUS
 10
207.71600
 20
31.38500
 30
 0
 11
207.71600
 21
33.63500
  0
LINE
  8
Engraving
 62
   255
 39
0.400
  6
CONTINUOUS
 10
207.71600
 20
29.13500
 30
 0
 11
208.96600
 21
29.13500
  0
LINE
  8
Engraving
 62
   255
 39
0.400
  6
CONTINUOUS
 10
209.21600
 20
30.26000
 30
 0
 11
207.71600
 21
30.26000
  0
LINE
  8
Engraving
 62
   255
 39
0.400
  6
CONTINUOUS
 10
207.71600
 20
30.26000
 30
 0
 11
207.71600
 21
28.01000
  0
LINE
  8
Engraving
 62
   255
 39
0.400
  6
CONTINUOUS
 10
207.71600
 20
28.01000
 30
 0
 11
209.21600
 21
28.01000
  0
LINE
  8
Engraving
 62
   255
 39
0.400
  6
CONTINUOUS
 10
207.78500
 20
24.63500
 30
 0
 11
207.78500
 21
26.88500
  0
LINE
  8
Engraving
 62
   255
 39
0.400
  6
CONTINUOUS
 10
207.78500
 20
26.88500
 30
 0
 11
208.61000
 21
26.88500
  0
ARC
  8
Engraving
 62
   255
 39
0.400
  6
CONTINUOUS
 10
208.58600
 20
26.32300
 30
 0
 40
0.56300
 50
272.44097
 51
87.55469
  0
LINE
  8
Engraving
 62
   255
 39
0.400
  6
CONTINUOUS
 10
208.61000
 20
25.76000
 30
 0
 11
207.78500
 21
25.76000
  0
LINE
  8
Engraving
 62
   255
 39
0.400
  6
CONTINUOUS
 10
207.77900
 20
21.26000
 30
 0
 11
207.77900
 21
23.51000
  0
LINE
  8
Engraving
 62
   255
 39
0.400
  6
CONTINUOUS
 10
207.77900
 20
23.51000
 30
 0
 11
208.60400
 21
23.51000
  0
ARC
  8
Engraving
 62
   255
 39
0.400
  6
CONTINUOUS
 10
208.58000
 20
22.94800
 30
 0
 40
0.56300
 50
272.44097
 51
87.55469
  0
LINE
  8
Engraving
 62
   255
 39
0.400
  6
CONTINUOUS
 10
208.60400
 20
22.38500
 30
 0
 11
207.77900
 21
22.38500
  0
LINE
  8
Engraving
 62
   255
 39
0.400
  6
CONTINUOUS
 10
207.77900
 20
22.38500
 30
 0
 11
208.65400
 21
22.38500
  0
LINE
  8
Engraving
 62
   255
 39
0.400
  6
CONTINUOUS
 10
208.65400
 20
22.38500
 30
 0
 11
209.15400
 21
21.26000
  0
LINE
  8
Engraving
 62
   255
 39
0.400
  6
CONTINUOUS
 10
164.04800
 20
35.40300
 30
 0
 11
164.04800
 21
37.65300
  0
LINE
  8
Engraving
 62
   255
 39
0.400
  6
CONTINUOUS
 10
164.04800
 20
37.65300
 30
 0
 11
164.87300
 21
37.65300
  0
ARC
  8
Engraving
 62
   255
 39
0.400
  6
CONTINUOUS
 10
164.84900
 20
37.09100
 30
 0
 40
0.56300
 50
272.44097
 51
87.55469
  0
LINE
  8
Engraving
 62
   255
 39
0.400
  6
CONTINUOUS
 10
164.87300
 20
36.52800
 30
 0
 11
164.04800
 21
36.52800
  0
LINE
  8
Engraving
 62
   255
 39
0.400
  6
CONTINUOUS
 10
164.97900
 20
33.15300
 30
 0
 11
165.52900
 21
33.15300
  0
LINE
  8
Engraving
 62
   255
 39
0.400
  6
CONTINUOUS
 10
165.52900
 20
33.15300
 30
 0
 11
165.52900
 21
32.77800
  0
ARC
  8
Engraving
 62
   255
 39
0.400
  6
CONTINUOUS
 10
164.72900
 20
32.77800
 30
 0
 40
0.80000
 50
180.00000
 51
0.00000
  0
LINE
  8
Engraving
 62
   255
 39
0.400
  6
CONTINUOUS
 10
163.92900
 20
32.77800
 30
 0
 11
163.92900
 21
33.52800
  0
ARC
  8
Engraving
 62
   255
 39
0.400
  6
CONTINUOUS
 10
164.70000
 20
33.54500
 30
 0
 40
0.77100
 50
31.95811
 51
-178.73687
  0
LINE
  8
Engraving
 62
   255
 39
0.400
  6
CONTINUOUS
 10
164.02700
 20
41.29100
 30
 0
 11
164.72900
 21
43.23500
  0
LINE
  8
Engraving
 62
   255
 39
0.400
  6
CONTINUOUS
 10
164.72900
 20
43.23500
 30
 0
 11
165.43100
 21
41.29100
  0
LINE
  8
Engraving
 62
   255
 39
0.400
  6
CONTINUOUS
 10
164.72900
 20
43.23500
 30
 0
 11
164.72900
 21
40.23800
  0
LINE
  8
Engraving
 62
   255
 39
0.400
  6
CONTINUOUS
 10
164.02700
 20
28.70900
 30
 0
 11
164.72900
 21
26.76500
  0
LINE
  8
Engraving
 62
   255
 39
0.400
  6
CONTINUOUS
 10
164.72900
 20
26.76500
 30
 0
 11
165.43100
 21
28.70900
  0
LINE
  8
Engraving
 62
   255
 39
0.400
  6
CONTINUOUS
 10
164.72900
 20
26.76500
 30
 0
 11
164.72900
 21
29.76200
  0
ARC
  8
Contour
 62
   7
 39
0.100
  6
CONTINUOUS
 10
30.74000
 20
46.74000
 30
 0
 40
0.50000
 50
316.05341
 51
133.94659
  0
LINE
  8
Contour
 62
   7
 39
0.100
  6
CONTINUOUS
 10
31.10000
 20
46.39300
 30
 0
 11
31.10000
 21
38.60700
  0
ARC
  8
Contour
 62
   7
 39
0.100
  6
CONTINUOUS
 10
30.74000
 20
38.26000
 30
 0
 40
0.50000
 50
226.05341
 51
43.94659
  0
LINE
  8
Contour
 62
   7
 39
0.100
  6
CONTINUOUS
 10
30.39300
 20
37.90000
 30
 0
 11
22.60700
 21
37.90000
  0
ARC
  8
Contour
 62
   7
 39
0.100
  6
CONTINUOUS
 10
22.26000
 20
38.26000
 30
 0
 40
0.50000
 50
136.05341
 51
-46.05341
  0
LINE
  8
Contour
 62
   7
 39
0.100
  6
CONTINUOUS
 10
21.90000
 20
38.60700
 30
 0
 11
21.90000
 21
46.39300
  0
ARC
  8
Contour
 62
   7
 39
0.100
  6
CONTINUOUS
 10
22.26000
 20
46.74000
 30
 0
 40
0.50000
 50
46.05341
 51
-136.05341
  0
LINE
  8
Contour
 62
   7
 39
0.100
  6
CONTINUOUS
 10
22.60700
 20
47.10000
 30
 0
 11
30.39300
 21
47.10000
  0
ARC
  8
Contour
 62
   7
 39
0.100
  6
CONTINUOUS
 10
46.24000
 20
46.74000
 30
 0
 40
0.50000
 50
316.05341
 51
133.94659
  0
LINE
  8
Contour
 62
   7
 39
0.100
  6
CONTINUOUS
 10
46.60000
 20
46.39300
 30
 0
 11
46.60000
 21
38.60700
  0
ARC
  8
Contour
 62
   7
 39
0.100
  6
CONTINUOUS
 10
46.24000
 20
38.26000
 30
 0
 40
0.50000
 50
226.05341
 51
43.94659
  0
LINE
  8
Contour
 62
   7
 39
0.100
  6
CONTINUOUS
 10
45.89300
 20
37.90000
 30
 0
 11
38.10700
 21
37.90000
  0
ARC
  8
Contour
 62
   7
 39
0.100
  6
CONTINUOUS
 10
37.76000
 20
38.26000
 30
 0
 40
0.50000
 50
136.05341
 51
-46.05341
  0
LINE
  8
Contour
 62
   7
 39
0.100
  6
CONTINUOUS
 10
37.40000
 20
38.60700
 30
 0
 11
37.40000
 21
46.39300
  0
ARC
  8
Contour
 62
   7
 39
0.100
  6
CONTINUOUS
 10
37.76000
 20
46.74000
 30
 0
 40
0.50000
 50
46.05341
 51
-136.05341
  0
LINE
  8
Contour
 62
   7
 39
0.100
  6
CONTINUOUS
 10
38.10700
 20
47.10000
 30
 0
 11
45.89300
 21
47.10000
  0
ARC
  8
Contour
 62
   7
 39
0.100
  6
CONTINUOUS
 10
61.74000
 20
46.74000
 30
 0
 40
0.50000
 50
316.05341
 51
133.94659
  0
LINE
  8
Contour
 62
   7
 39
0.100
  6
CONTINUOUS
 10
62.10000
 20
46.39300
 30
 0
 11
62.10000
 21
38.60700
  0
ARC
  8
Contour
 62
   7
 39
0.100
  6
CONTINUOUS
 10
61.74000
 20
38.26000
 30
 0
 40
0.50000
 50
226.05341
 51
43.94659
  0
LINE
  8
Contour
 62
   7
 39
0.100
  6
CONTINUOUS
 10
61.39300
 20
37.90000
 30
 0
 11
53.60700
 21
37.90000
  0
ARC
  8
Contour
 62
   7
 39
0.100
  6
CONTINUOUS
 10
53.26000
 20
38.26000
 30
 0
 40
0.50000
 50
136.05341
 51
-46.05341
  0
LINE
  8
Contour
 62
   7
 39
0.100
  6
CONTINUOUS
 10
52.90000
 20
38.60700
 30
 0
 11
52.90000
 21
46.39300
  0
ARC
  8
Contour
 62
   7
 39
0.100
  6
CONTINUOUS
 10
53.26000
 20
46.74000
 30
 0
 40
0.50000
 50
46.05341
 51
-136.05341
  0
LINE
  8
Contour
 62
   7
 39
0.100
  6
CONTINUOUS
 10
53.60700
 20
47.10000
 30
 0
 11
61.39300
 21
47.10000
  0
ARC
  8
Contour
 62
   7
 39
0.100
  6
CONTINUOUS
 10
77.24000
 20
46.74000
 30
 0
 40
0.50000
 50
316.05341
 51
133.94659
  0
LINE
  8
Contour
 62
   7
 39
0.100
  6
CONTINUOUS
 10
77.60000
 20
46.39300
 30
 0
 11
77.60000
 21
38.60700
  0
ARC
  8
Contour
 62
   7
 39
0.100
  6
CONTINUOUS
 10
77.24000
 20
38.26000
 30
 0
 40
0.50000
 50
226.05341
 51
43.94659
  0
LINE
  8
Contour
 62
   7
 39
0.100
  6
CONTINUOUS
 10
76.89300
 20
37.90000
 30
 0
 11
69.10700
 21
37.90000
  0
ARC
  8
Contour
 62
   7
 39
0.100
  6
CONTINUOUS
 10
68.76000
 20
38.26000
 30
 0
 40
0.50000
 50
136.05341
 51
-46.05341
  0
LINE
  8
Contour
 62
   7
 39
0.100
  6
CONTINUOUS
 10
68.40000
 20
38.60700
 30
 0
 11
68.40000
 21
46.39300
  0
ARC
  8
Contour
 62
   7
 39
0.100
  6
CONTINUOUS
 10
68.76000
 20
46.74000
 30
 0
 40
0.50000
 50
46.05341
 51
-136.05341
  0
LINE
  8
Contour
 62
   7
 39
0.100
  6
CONTINUOUS
 10
69.10700
 20
47.10000
 30
 0
 11
76.89300
 21
47.10000
  0
ARC
  8
Contour
 62
   7
 39
0.100
  6
CONTINUOUS
 10
30.74000
 20
30.74000
 30
 0
 40
0.50000
 50
316.05341
 51
133.94659
  0
LINE
  8
Contour
 62
   7
 39
0.100
  6
CONTINUOUS
 10
31.10000
 20
30.39300
 30
 0
 11
31.10000
 21
22.60700
  0
ARC
  8
Contour
 62
   7
 39
0.100
  6
CONTINUOUS
 10
30.74000
 20
22.26000
 30
 0
 40
0.50000
 50
226.05341
 51
43.94659
  0
LINE
  8
Contour
 62
   7
 39
0.100
  6
CONTINUOUS
 10
30.39300
 20
21.90000
 30
 0
 11
22.60700
 21
21.90000
  0
ARC
  8
Contour
 62
   7
 39
0.100
  6
CONTINUOUS
 10
22.26000
 20
22.26000
 30
 0
 40
0.50000
 50
136.05341
 51
-46.05341
  0
LINE
  8
Contour
 62
   7
 39
0.100
  6
CONTINUOUS
 10
21.90000
 20
22.60700
 30
 0
 11
21.90000
 21
30.39300
  0
ARC
  8
Contour
 62
   7
 39
0.100
  6
CONTINUOUS
 10
22.26000
 20
30.74000
 30
 0
 40
0.50000
 50
46.05341
 51
-136.05341
  0
LINE
  8
Contour
 62
   7
 39
0.100
  6
CONTINUOUS
 10
22.60700
 20
31.10000
 30
 0
 11
30.39300
 21
31.10000
  0
ARC
  8
Contour
 62
   7
 39
0.100
  6
CONTINUOUS
 10
46.24000
 20
30.74000
 30
 0
 40
0.50000
 50
316.05341
 51
133.94659
  0
LINE
  8
Contour
 62
   7
 39
0.100
  6
CONTINUOUS
 10
46.60000
 20
30.39300
 30
 0
 11
46.60000
 21
22.60700
  0
ARC
  8
Contour
 62
   7
 39
0.100
  6
CONTINUOUS
 10
46.24000
 20
22.26000
 30
 0
 40
0.50000
 50
226.05341
 51
43.94659
  0
LINE
  8
Contour
 62
   7
 39
0.100
  6
CONTINUOUS
 10
45.89300
 20
21.90000
 30
 0
 11
38.10700
 21
21.90000
  0
ARC
  8
Contour
 62
   7
 39
0.100
  6
CONTINUOUS
 10
37.76000
 20
22.26000
 30
 0
 40
0.50000
 50
136.05341
 51
-46.05341
  0
LINE
  8
Contour
 62
   7
 39
0.100
  6
CONTINUOUS
 10
37.40000
 20
22.60700
 30
 0
 11
37.40000
 21
30.39300
  0
ARC
  8
Contour
 62
   7
 39
0.100
  6
CONTINUOUS
 10
37.76000
 20
30.74000
 30
 0
 40
0.50000
 50
46.05341
 51
-136.05341
  0
LINE
  8
Contour
 62
   7
 39
0.100
  6
CONTINUOUS
 10
38.10700
 20
31.10000
 30
 0
 11
45.89300
 21
31.10000
  0
ARC
  8
Contour
 62
   7
 39
0.100
  6
CONTINUOUS
 10
61.74000
 20
30.74000
 30
 0
 40
0.50000
 50
316.05341
 51
133.94659
  0
LINE
  8
Contour
 62
   7
 39
0.100
  6
CONTINUOUS
 10
62.10000
 20
30.39300
 30
 0
 11
62.10000
 21
22.60700
  0
ARC
  8
Contour
 62
   7
 39
0.100
  6
CONTINUOUS
 10
61.74000
 20
22.26000
 30
 0
 40
0.50000
 50
226.05341
 51
43.94659
  0
LINE
  8
Contour
 62
   7
 39
0.100
  6
CONTINUOUS
 10
61.39300
 20
21.90000
 30
 0
 11
53.60700
 21
21.90000
  0
ARC
  8
Contour
 62
   7
 39
0.100
  6
CONTINUOUS
 10
53.26000
 20
22.26000
 30
 0
 40
0.50000
 50
136.05341
 51
-46.05341
  0
LINE
  8
Contour
 62
   7
 39
0.100
  6
CONTINUOUS
 10
52.90000
 20
22.60700
 30
 0
 11
52.90000
 21
30.39300
  0
ARC
  8
Contour
 62
   7
 39
0.100
  6
CONTINUOUS
 10
53.26000
 20
30.74000
 30
 0
 40
0.50000
 50
46.05341
 51
-136.05341
  0
LINE
  8
Contour
 62
   7
 39
0.100
  6
CONTINUOUS
 10
53.60700
 20
31.10000
 30
 0
 11
61.39300
 21
31.10000
  0
ARC
  8
Contour
 62
   7
 39
0.100
  6
CONTINUOUS
 10
77.24000
 20
30.74000
 30
 0
 40
0.50000
 50
316.05341
 51
133.94659
  0
LINE
  8
Contour
 62
   7
 39
0.100
  6
CONTINUOUS
 10
77.60000
 20
30.39300
 30
 0
 11
77.60000
 21
22.60700
  0
ARC
  8
Contour
 62
   7
 39
0.100
  6
CONTINUOUS
 10
77.24000
 20
22.26000
 30
 0
 40
0.50000
 50
226.05341
 51
43.94659
  0
LINE
  8
Contour
 62
   7
 39
0.100
  6
CONTINUOUS
 10
76.89300
 20
21.90000
 30
 0
 11
69.10700
 21
21.90000
  0
ARC
  8
Contour
 62
   7
 39
0.100
  6
CONTINUOUS
 10
68.76000
 20
22.26000
 30
 0
 40
0.50000
 50
136.05341
 51
-46.05341
  0
LINE
  8
Contour
 62
   7
 39
0.100
  6
CONTINUOUS
 10
68.40000
 20
22.60700
 30
 0
 11
68.40000
 21
30.39300
  0
ARC
  8
Contour
 62
   7
 39
0.100
  6
CONTINUOUS
 10
68.76000
 20
30.74000
 30
 0
 40
0.50000
 50
46.05341
 51
-136.05341
  0
LINE
  8
Contour
 62
   7
 39
0.100
  6
CONTINUOUS
 10
69.10700
 20
31.10000
 30
 0
 11
76.89300
 21
31.10000
  0
ARC
  8
Contour
 62
   7
 39
0.100
  6
CONTINUOUS
 10
114.14000
 20
46.74000
 30
 0
 40
0.50000
 50
316.05341
 51
133.94659
  0
LINE
  8
Contour
 62
   7
 39
0.100
  6
CONTINUOUS
 10
114.50000
 20
46.39300
 30
 0
 11
114.50000
 21
38.60700
  0
ARC
  8
Contour
 62
   7
 39
0.100
  6
CONTINUOUS
 10
114.14000
 20
38.26000
 30
 0
 40
0.50000
 50
226.05341
 51
43.94659
  0
LINE
  8
Contour
 62
   7
 39
0.100
  6
CONTINUOUS
 10
113.79300
 20
37.90000
 30
 0
 11
100.20700
 21
37.90000
  0
ARC
  8
Contour
 62
   7
 39
0.100
  6
CONTINUOUS
 10
99.86000
 20
38.26000
 30
 0
 40
0.50000
 50
136.05341
 51
-46.05341
  0
LINE
  8
Contour
 62
   7
 39
0.100
  6
CONTINUOUS
 10
99.50000
 20
38.60700
 30
 0
 11
99.50000
 21
46.39300
  0
ARC
  8
Contour
 62
   7
 39
0.100
  6
CONTINUOUS
 10
99.86000
 20
46.74000
 30
 0
 40
0.50000
 50
46.05341
 51
-136.05341
  0
LINE
  8
Contour
 62
   7
 39
0.100
  6
CONTINUOUS
 10
100.20700
 20
47.10000
 30
 0
 11
113.79300
 21
47.10000
  0
ARC
  8
Contour
 62
   7
 39
0.100
  6
CONTINUOUS
 10
150.84000
 20
47.04000
 30
 0
 40
0.50000
 50
316.05341
 51
133.94659
  0
LINE
  8
Contour
 62
   7
 39
0.100
  6
CONTINUOUS
 10
151.20000
 20
46.69300
 30
 0
 11
151.20000
 21
31.90700
  0
ARC
  8
Contour
 62
   7
 39
0.100
  6
CONTINUOUS
 10
150.84000
 20
31.56000
 30
 0
 40
0.50000
 50
226.05341
 51
43.94659
  0
LINE
  8
Contour
 62
   7
 39
0.100
  6
CONTINUOUS
 10
150.49300
 20
31.20000
 30
 0
 11
129.50700
 21
31.20000
  0
ARC
  8
Contour
 62
   7
 39
0.100
  6
CONTINUOUS
 10
129.16000
 20
31.56000
 30
 0
 40
0.50000
 50
136.05341
 51
-46.05341
  0
LINE
  8
Contour
 62
   7
 39
0.100
  6
CONTINUOUS
 10
128.80000
 20
31.90700
 30
 0
 11
128.80000
 21
46.69300
  0
ARC
  8
Contour
 62
   7
 39
0.100
  6
CONTINUOUS
 10
129.16000
 20
47.04000
 30
 0
 40
0.50000
 50
46.05341
 51
-136.05341
  0
LINE
  8
Contour
 62
   7
 39
0.100
  6
CONTINUOUS
 10
129.50700
 20
47.40000
 30
 0
 11
150.49300
 21
47.40000
  0
CIRCLE
  8
Contour
 62
   7
 39
0.100
  6
CONTINUOUS
 10
88.50000
 20
26.50000
 30
 0
 40
4.85000
  0
CIRCLE
  8
Contour
 62
   7
 39
0.100
  6
CONTINUOUS
 10
88.50000
 20
42.50000
 30
 0
 40
4.85000
  0
ARC
  8
Contour
 62
   7
 39
0.100
  6
CONTINUOUS
 10
12.39000
 20
36.64000
 30
 0
 40
0.50000
 50
316.05341
 51
133.94659
  0
LINE
  8
Contour
 62
   7
 39
0.100
  6
CONTINUOUS
 10
12.75000
 20
36.29300
 30
 0
 11
12.75000
 21
19.70700
  0
ARC
  8
Contour
 62
   7
 39
0.100
  6
CONTINUOUS
 10
12.39000
 20
19.36000
 30
 0
 40
0.50000
 50
226.05341
 51
43.94659
  0
LINE
  8
Contour
 62
   7
 39
0.100
  6
CONTINUOUS
 10
12.04300
 20
19.00000
 30
 0
 11
3.95700
 21
19.00000
  0
ARC
  8
Contour
 62
   7
 39
0.100
  6
CONTINUOUS
 10
3.61000
 20
19.36000
 30
 0
 40
0.50000
 50
136.05341
 51
-46.05341
  0
LINE
  8
Contour
 62
   7
 39
0.100
  6
CONTINUOUS
 10
3.25000
 20
19.70700
 30
 0
 11
3.25000
 21
36.29300
  0
ARC
  8
Contour
 62
   7
 39
0.100
  6
CONTINUOUS
 10
3.61000
 20
36.64000
 30
 0
 40
0.50000
 50
46.05341
 51
-136.05341
  0
LINE
  8
Contour
 62
   7
 39
0.100
  6
CONTINUOUS
 10
3.95700
 20
37.00000
 30
 0
 11
12.04300
 21
37.00000
  0
CIRCLE
  8
Contour
 62
   7
 39
0.100
  6
CONTINUOUS
 10
8.00000
 20
39.90000
 30
 0
 40
1.19500
  0
CIRCLE
  8
Contour
 62
   7
 39
0.100
  6
CONTINUOUS
 10
8.00000
 20
16.10000
 30
 0
 40
1.19500
  0
ARC
  8
Contour
 62
   7
 39
0.100
  6
CONTINUOUS
 10
30.74000
 20
14.74000
 30
 0
 40
0.50000
 50
316.05341
 51
133.94659
  0
LINE
  8
Contour
 62
   7
 39
0.100
  6
CONTINUOUS
 10
31.10000
 20
14.39300
 30
 0
 11
31.10000
 21
6.60700
  0
ARC
  8
Contour
 62
   7
 39
0.100
  6
CONTINUOUS
 10
30.74000
 20
6.26000
 30
 0
 40
0.50000
 50
226.05341
 51
43.94659
  0
LINE
  8
Contour
 62
   7
 39
0.100
  6
CONTINUOUS
 10
30.39300
 20
5.90000
 30
 0
 11
22.60700
 21
5.90000
  0
ARC
  8
Contour
 62
   7
 39
0.100
  6
CONTINUOUS
 10
22.26000
 20
6.26000
 30
 0
 40
0.50000
 50
136.05341
 51
-46.05341
  0
LINE
  8
Contour
 62
   7
 39
0.100
  6
CONTINUOUS
 10
21.90000
 20
6.60700
 30
 0
 11
21.90000
 21
14.39300
  0
ARC
  8
Contour
 62
   7
 39
0.100
  6
CONTINUOUS
 10
22.26000
 20
14.74000
 30
 0
 40
0.50000
 50
46.05341
 51
-136.05341
  0
LINE
  8
Contour
 62
   7
 39
0.100
  6
CONTINUOUS
 10
22.60700
 20
15.10000
 30
 0
 11
30.39300
 21
15.10000
  0
ARC
  8
Contour
 62
   7
 39
0.100
  6
CONTINUOUS
 10
46.24000
 20
14.74000
 30
 0
 40
0.50000
 50
316.05341
 51
133.94659
  0
LINE
  8
Contour
 62
   7
 39
0.100
  6
CONTINUOUS
 10
46.60000
 20
14.39300
 30
 0
 11
46.60000
 21
6.60700
  0
ARC
  8
Contour
 62
   7
 39
0.100
  6
CONTINUOUS
 10
46.24000
 20
6.26000
 30
 0
 40
0.50000
 50
226.05341
 51
43.94659
  0
LINE
  8
Contour
 62
   7
 39
0.100
  6
CONTINUOUS
 10
45.89300
 20
5.90000
 30
 0
 11
38.10700
 21
5.90000
  0
ARC
  8
Contour
 62
   7
 39
0.100
  6
CONTINUOUS
 10
37.76000
 20
6.26000
 30
 0
 40
0.50000
 50
136.05341
 51
-46.05341
  0
LINE
  8
Contour
 62
   7
 39
0.100
  6
CONTINUOUS
 10
37.40000
 20
6.60700
 30
 0
 11
37.40000
 21
14.39300
  0
ARC
  8
Contour
 62
   7
 39
0.100
  6
CONTINUOUS
 10
37.76000
 20
14.74000
 30
 0
 40
0.50000
 50
46.05341
 51
-136.05341
  0
LINE
  8
Contour
 62
   7
 39
0.100
  6
CONTINUOUS
 10
38.10700
 20
15.10000
 30
 0
 11
45.89300
 21
15.10000
  0
ARC
  8
Contour
 62
   7
 39
0.100
  6
CONTINUOUS
 10
61.74000
 20
14.74000
 30
 0
 40
0.50000
 50
316.05341
 51
133.94659
  0
LINE
  8
Contour
 62
   7
 39
0.100
  6
CONTINUOUS
 10
62.10000
 20
14.39300
 30
 0
 11
62.10000
 21
6.60700
  0
ARC
  8
Contour
 62
   7
 39
0.100
  6
CONTINUOUS
 10
61.74000
 20
6.26000
 30
 0
 40
0.50000
 50
226.05341
 51
43.94659
  0
LINE
  8
Contour
 62
   7
 39
0.100
  6
CONTINUOUS
 10
61.39300
 20
5.90000
 30
 0
 11
53.60700
 21
5.90000
  0
ARC
  8
Contour
 62
   7
 39
0.100
  6
CONTINUOUS
 10
53.26000
 20
6.26000
 30
 0
 40
0.50000
 50
136.05341
 51
-46.05341
  0
LINE
  8
Contour
 62
   7
 39
0.100
  6
CONTINUOUS
 10
52.90000
 20
6.60700
 30
 0
 11
52.90000
 21
14.39300
  0
ARC
  8
Contour
 62
   7
 39
0.100
  6
CONTINUOUS
 10
53.26000
 20
14.74000
 30
 0
 40
0.50000
 50
46.05341
 51
-136.05341
  0
LINE
  8
Contour
 62
   7
 39
0.100
  6
CONTINUOUS
 10
53.60700
 20
15.10000
 30
 0
 11
61.39300
 21
15.10000
  0
ARC
  8
Contour
 62
   7
 39
0.100
  6
CONTINUOUS
 10
77.24000
 20
14.74000
 30
 0
 40
0.50000
 50
316.05341
 51
133.94659
  0
LINE
  8
Contour
 62
   7
 39
0.100
  6
CONTINUOUS
 10
77.60000
 20
14.39300
 30
 0
 11
77.60000
 21
6.60700
  0
ARC
  8
Contour
 62
   7
 39
0.100
  6
CONTINUOUS
 10
77.24000
 20
6.26000
 30
 0
 40
0.50000
 50
226.05341
 51
43.94659
  0
LINE
  8
Contour
 62
   7
 39
0.100
  6
CONTINUOUS
 10
76.89300
 20
5.90000
 30
 0
 11
69.10700
 21
5.90000
  0
ARC
  8
Contour
 62
   7
 39
0.100
  6
CONTINUOUS
 10
68.76000
 20
6.26000
 30
 0
 40
0.50000
 50
136.05341
 51
-46.05341
  0
LINE
  8
Contour
 62
   7
 39
0.100
  6
CONTINUOUS
 10
68.40000
 20
6.60700
 30
 0
 11
68.40000
 21
14.39300
  0
ARC
  8
Contour
 62
   7
 39
0.100
  6
CONTINUOUS
 10
68.76000
 20
14.74000
 30
 0
 40
0.50000
 50
46.05341
 51
-136.05341
  0
LINE
  8
Contour
 62
   7
 39
0.100
  6
CONTINUOUS
 10
69.10700
 20
15.10000
 30
 0
 11
76.89300
 21
15.10000
  0
ARC
  8
Contour
 62
   7
 39
0.100
  6
CONTINUOUS
 10
108.24000
 20
30.74000
 30
 0
 40
0.50000
 50
316.05341
 51
133.94659
  0
LINE
  8
Contour
 62
   7
 39
0.100
  6
CONTINUOUS
 10
108.60000
 20
30.39300
 30
 0
 11
108.60000
 21
22.60700
  0
ARC
  8
Contour
 62
   7
 39
0.100
  6
CONTINUOUS
 10
108.24000
 20
22.26000
 30
 0
 40
0.50000
 50
226.05341
 51
43.94659
  0
LINE
  8
Contour
 62
   7
 39
0.100
  6
CONTINUOUS
 10
107.89300
 20
21.90000
 30
 0
 11
100.10700
 21
21.90000
  0
ARC
  8
Contour
 62
   7
 39
0.100
  6
CONTINUOUS
 10
99.76000
 20
22.26000
 30
 0
 40
0.50000
 50
136.05341
 51
-46.05341
  0
LINE
  8
Contour
 62
   7
 39
0.100
  6
CONTINUOUS
 10
99.40000
 20
22.60700
 30
 0
 11
99.40000
 21
30.39300
  0
ARC
  8
Contour
 62
   7
 39
0.100
  6
CONTINUOUS
 10
99.76000
 20
30.74000
 30
 0
 40
0.50000
 50
46.05341
 51
-136.05341
  0
LINE
  8
Contour
 62
   7
 39
0.100
  6
CONTINUOUS
 10
100.10700
 20
31.10000
 30
 0
 11
107.89300
 21
31.10000
  0
ARC
  8
Contour
 62
   7
 39
0.100
  6
CONTINUOUS
 10
92.74000
 20
14.74000
 30
 0
 40
0.50000
 50
316.05341
 51
133.94659
  0
LINE
  8
Contour
 62
   7
 39
0.100
  6
CONTINUOUS
 10
93.10000
 20
14.39300
 30
 0
 11
93.10000
 21
6.60700
  0
ARC
  8
Contour
 62
   7
 39
0.100
  6
CONTINUOUS
 10
92.74000
 20
6.26000
 30
 0
 40
0.50000
 50
226.05341
 51
43.94659
  0
LINE
  8
Contour
 62
   7
 39
0.100
  6
CONTINUOUS
 10
92.39300
 20
5.90000
 30
 0
 11
84.60700
 21
5.90000
  0
ARC
  8
Contour
 62
   7
 39
0.100
  6
CONTINUOUS
 10
84.26000
 20
6.26000
 30
 0
 40
0.50000
 50
136.05341
 51
-46.05341
  0
LINE
  8
Contour
 62
   7
 39
0.100
  6
CONTINUOUS
 10
83.90000
 20
6.60700
 30
 0
 11
83.90000
 21
14.39300
  0
ARC
  8
Contour
 62
   7
 39
0.100
  6
CONTINUOUS
 10
84.26000
 20
14.74000
 30
 0
 40
0.50000
 50
46.05341
 51
-136.05341
  0
LINE
  8
Contour
 62
   7
 39
0.100
  6
CONTINUOUS
 10
84.60700
 20
15.10000
 30
 0
 11
92.39300
 21
15.10000
  0
ARC
  8
Contour
 62
   7
 39
0.100
  6
CONTINUOUS
 10
108.24000
 20
14.74000
 30
 0
 40
0.50000
 50
316.05341
 51
133.94659
  0
LINE
  8
Contour
 62
   7
 39
0.100
  6
CONTINUOUS
 10
108.60000
 20
14.39300
 30
 0
 11
108.60000
 21
6.60700
  0
ARC
  8
Contour
 62
   7
 39
0.100
  6
CONTINUOUS
 10
108.24000
 20
6.26000
 30
 0
 40
0.50000
 50
226.05341
 51
43.94659
  0
LINE
  8
Contour
 62
   7
 39
0.100
  6
CONTINUOUS
 10
107.89300
 20
5.90000
 30
 0
 11
100.10700
 21
5.90000
  0
ARC
  8
Contour
 62
   7
 39
0.100
  6
CONTINUOUS
 10
99.76000
 20
6.26000
 30
 0
 40
0.50000
 50
136.05341
 51
-46.05341
  0
LINE
  8
Contour
 62
   7
 39
0.100
  6
CONTINUOUS
 10
99.40000
 20
6.60700
 30
 0
 11
99.40000
 21
14.39300
  0
ARC
  8
Contour
 62
   7
 39
0.100
  6
CONTINUOUS
 10
99.76000
 20
14.74000
 30
 0
 40
0.50000
 50
46.05341
 51
-136.05341
  0
LINE
  8
Contour
 62
   7
 39
0.100
  6
CONTINUOUS
 10
100.10700
 20
15.10000
 30
 0
 11
107.89300
 21
15.10000
  0
ARC
  8
Contour
 62
   7
 39
0.100
  6
CONTINUOUS
 10
128.74000
 20
28.24000
 30
 0
 40
0.50000
 50
316.05341
 51
133.94659
  0
LINE
  8
Contour
 62
   7
 39
0.100
  6
CONTINUOUS
 10
129.10000
 20
27.89300
 30
 0
 11
129.10000
 21
20.10700
  0
ARC
  8
Contour
 62
   7
 39
0.100
  6
CONTINUOUS
 10
128.74000
 20
19.76000
 30
 0
 40
0.50000
 50
226.05341
 51
43.94659
  0
LINE
  8
Contour
 62
   7
 39
0.100
  6
CONTINUOUS
 10
128.39300
 20
19.40000
 30
 0
 11
120.60700
 21
19.40000
  0
ARC
  8
Contour
 62
   7
 39
0.100
  6
CONTINUOUS
 10
120.26000
 20
19.76000
 30
 0
 40
0.50000
 50
136.05341
 51
-46.05341
  0
LINE
  8
Contour
 62
   7
 39
0.100
  6
CONTINUOUS
 10
119.90000
 20
20.10700
 30
 0
 11
119.90000
 21
27.89300
  0
ARC
  8
Contour
 62
   7
 39
0.100
  6
CONTINUOUS
 10
120.26000
 20
28.24000
 30
 0
 40
0.50000
 50
46.05341
 51
-136.05341
  0
LINE
  8
Contour
 62
   7
 39
0.100
  6
CONTINUOUS
 10
120.60700
 20
28.60000
 30
 0
 11
128.39300
 21
28.60000
  0
ARC
  8
Contour
 62
   7
 39
0.100
  6
CONTINUOUS
 10
144.24000
 20
28.24000
 30
 0
 40
0.50000
 50
316.05341
 51
133.94659
  0
LINE
  8
Contour
 62
   7
 39
0.100
  6
CONTINUOUS
 10
144.60000
 20
27.89300
 30
 0
 11
144.60000
 21
20.10700
  0
ARC
  8
Contour
 62
   7
 39
0.100
  6
CONTINUOUS
 10
144.24000
 20
19.76000
 30
 0
 40
0.50000
 50
226.05341
 51
43.94659
  0
LINE
  8
Contour
 62
   7
 39
0.100
  6
CONTINUOUS
 10
143.89300
 20
19.40000
 30
 0
 11
136.10700
 21
19.40000
  0
ARC
  8
Contour
 62
   7
 39
0.100
  6
CONTINUOUS
 10
135.76000
 20
19.76000
 30
 0
 40
0.50000
 50
136.05341
 51
-46.05341
  0
LINE
  8
Contour
 62
   7
 39
0.100
  6
CONTINUOUS
 10
135.40000
 20
20.10700
 30
 0
 11
135.40000
 21
27.89300
  0
ARC
  8
Contour
 62
   7
 39
0.100
  6
CONTINUOUS
 10
135.76000
 20
28.24000
 30
 0
 40
0.50000
 50
46.05341
 51
-136.05341
  0
LINE
  8
Contour
 62
   7
 39
0.100
  6
CONTINUOUS
 10
136.10700
 20
28.60000
 30
 0
 11
143.89300
 21
28.60000
  0
ARC
  8
Contour
 62
   7
 39
0.100
  6
CONTINUOUS
 10
159.74000
 20
28.24000
 30
 0
 40
0.50000
 50
316.05341
 51
133.94659
  0
LINE
  8
Contour
 62
   7
 39
0.100
  6
CONTINUOUS
 10
160.10000
 20
27.89300
 30
 0
 11
160.10000
 21
20.10700
  0
ARC
  8
Contour
 62
   7
 39
0.100
  6
CONTINUOUS
 10
159.74000
 20
19.76000
 30
 0
 40
0.50000
 50
226.05341
 51
43.94659
  0
LINE
  8
Contour
 62
   7
 39
0.100
  6
CONTINUOUS
 10
159.39300
 20
19.40000
 30
 0
 11
151.60700
 21
19.40000
  0
ARC
  8
Contour
 62
   7
 39
0.100
  6
CONTINUOUS
 10
151.26000
 20
19.76000
 30
 0
 40
0.50000
 50
136.05341
 51
-46.05341
  0
LINE
  8
Contour
 62
   7
 39
0.100
  6
CONTINUOUS
 10
150.90000
 20
20.10700
 30
 0
 11
150.90000
 21
27.89300
  0
ARC
  8
Contour
 62
   7
 39
0.100
  6
CONTINUOUS
 10
151.26000
 20
28.24000
 30
 0
 40
0.50000
 50
46.05341
 51
-136.05341
  0
LINE
  8
Contour
 62
   7
 39
0.100
  6
CONTINUOUS
 10
151.60700
 20
28.60000
 30
 0
 11
159.39300
 21
28.60000
  0
ARC
  8
Contour
 62
   7
 39
0.100
  6
CONTINUOUS
 10
128.74000
 20
12.24000
 30
 0
 40
0.50000
 50
316.05341
 51
133.94659
  0
LINE
  8
Contour
 62
   7
 39
0.100
  6
CONTINUOUS
 10
129.10000
 20
11.89300
 30
 0
 11
129.10000
 21
4.10700
  0
ARC
  8
Contour
 62
   7
 39
0.100
  6
CONTINUOUS
 10
128.74000
 20
3.76000
 30
 0
 40
0.50000
 50
226.05341
 51
43.94659
  0
LINE
  8
Contour
 62
   7
 39
0.100
  6
CONTINUOUS
 10
128.39300
 20
3.40000
 30
 0
 11
120.60700
 21
3.40000
  0
ARC
  8
Contour
 62
   7
 39
0.100
  6
CONTINUOUS
 10
120.26000
 20
3.76000
 30
 0
 40
0.50000
 50
136.05341
 51
-46.05341
  0
LINE
  8
Contour
 62
   7
 39
0.100
  6
CONTINUOUS
 10
119.90000
 20
4.10700
 30
 0
 11
119.90000
 21
11.89300
  0
ARC
  8
Contour
 62
   7
 39
0.100
  6
CONTINUOUS
 10
120.26000
 20
12.24000
 30
 0
 40
0.50000
 50
46.05341
 51
-136.05341
  0
LINE
  8
Contour
 62
   7
 39
0.100
  6
CONTINUOUS
 10
120.60700
 20
12.60000
 30
 0
 11
128.39300
 21
12.60000
  0
ARC
  8
Contour
 62
   7
 39
0.100
  6
CONTINUOUS
 10
144.24000
 20
12.24000
 30
 0
 40
0.50000
 50
316.05341
 51
133.94659
  0
LINE
  8
Contour
 62
   7
 39
0.100
  6
CONTINUOUS
 10
144.60000
 20
11.89300
 30
 0
 11
144.60000
 21
4.10700
  0
ARC
  8
Contour
 62
   7
 39
0.100
  6
CONTINUOUS
 10
144.24000
 20
3.76000
 30
 0
 40
0.50000
 50
226.05341
 51
43.94659
  0
LINE
  8
Contour
 62
   7
 39
0.100
  6
CONTINUOUS
 10
143.89300
 20
3.40000
 30
 0
 11
136.10700
 21
3.40000
  0
ARC
  8
Contour
 62
   7
 39
0.100
  6
CONTINUOUS
 10
135.76000
 20
3.76000
 30
 0
 40
0.50000
 50
136.05341
 51
-46.05341
  0
LINE
  8
Contour
 62
   7
 39
0.100
  6
CONTINUOUS
 10
135.40000
 20
4.10700
 30
 0
 11
135.40000
 21
11.89300
  0
ARC
  8
Contour
 62
   7
 39
0.100
  6
CONTINUOUS
 10
135.76000
 20
12.24000
 30
 0
 40
0.50000
 50
46.05341
 51
-136.05341
  0
LINE
  8
Contour
 62
   7
 39
0.100
  6
CONTINUOUS
 10
136.10700
 20
12.60000
 30
 0
 11
143.89300
 21
12.60000
  0
ARC
  8
Contour
 62
   7
 39
0.100
  6
CONTINUOUS
 10
159.74000
 20
12.24000
 30
 0
 40
0.50000
 50
316.05341
 51
133.94659
  0
LINE
  8
Contour
 62
   7
 39
0.100
  6
CONTINUOUS
 10
160.10000
 20
11.89300
 30
 0
 11
160.10000
 21
4.10700
  0
ARC
  8
Contour
 62
   7
 39
0.100
  6
CONTINUOUS
 10
159.74000
 20
3.76000
 30
 0
 40
0.50000
 50
226.05341
 51
43.94659
  0
LINE
  8
Contour
 62
   7
 39
0.100
  6
CONTINUOUS
 10
159.39300
 20
3.40000
 30
 0
 11
151.60700
 21
3.40000
  0
ARC
  8
Contour
 62
   7
 39
0.100
  6
CONTINUOUS
 10
151.26000
 20
3.76000
 30
 0
 40
0.50000
 50
136.05341
 51
-46.05341
  0
LINE
  8
Contour
 62
   7
 39
0.100
  6
CONTINUOUS
 10
150.90000
 20
4.10700
 30
 0
 11
150.90000
 21
11.89300
  0
ARC
  8
Contour
 62
   7
 39
0.100
  6
CONTINUOUS
 10
151.26000
 20
12.24000
 30
 0
 40
0.50000
 50
46.05341
 51
-136.05341
  0
LINE
  8
Contour
 62
   7
 39
0.100
  6
CONTINUOUS
 10
151.60700
 20
12.60000
 30
 0
 11
159.39300
 21
12.60000
  0
ARC
  8
Contour
 62
   7
 39
0.100
  6
CONTINUOUS
 10
178.39000
 20
43.64000
 30
 0
 40
0.50000
 50
316.05341
 51
133.94659
  0
LINE
  8
Contour
 62
   7
 39
0.100
  6
CONTINUOUS
 10
178.75000
 20
43.29300
 30
 0
 11
178.75000
 21
26.70700
  0
ARC
  8
Contour
 62
   7
 39
0.100
  6
CONTINUOUS
 10
178.39000
 20
26.36000
 30
 0
 40
0.50000
 50
226.05341
 51
43.94659
  0
LINE
  8
Contour
 62
   7
 39
0.100
  6
CONTINUOUS
 10
178.04300
 20
26.00000
 30
 0
 11
169.95700
 21
26.00000
  0
ARC
  8
Contour
 62
   7
 39
0.100
  6
CONTINUOUS
 10
169.61000
 20
26.36000
 30
 0
 40
0.50000
 50
136.05341
 51
-46.05341
  0
LINE
  8
Contour
 62
   7
 39
0.100
  6
CONTINUOUS
 10
169.25000
 20
26.70700
 30
 0
 11
169.25000
 21
43.29300
  0
ARC
  8
Contour
 62
   7
 39
0.100
  6
CONTINUOUS
 10
169.61000
 20
43.64000
 30
 0
 40
0.50000
 50
46.05341
 51
-136.05341
  0
LINE
  8
Contour
 62
   7
 39
0.100
  6
CONTINUOUS
 10
169.95700
 20
44.00000
 30
 0
 11
178.04300
 21
44.00000
  0
CIRCLE
  8
Contour
 62
   7
 39
0.100
  6
CONTINUOUS
 10
174.00000
 20
46.90000
 30
 0
 40
1.19500
  0
CIRCLE
  8
Contour
 62
   7
 39
0.100
  6
CONTINUOUS
 10
174.00000
 20
23.10000
 30
 0
 40
1.19500
  0
ARC
  8
Contour
 62
   7
 39
0.100
  6
CONTINUOUS
 10
221.89000
 20
36.64000
 30
 0
 40
0.50000
 50
316.05341
 51
133.94659
  0
LINE
  8
Contour
 62
   7
 39
0.100
  6
CONTINUOUS
 10
222.25000
 20
36.29300
 30
 0
 11
222.25000
 21
19.70700
  0
ARC
  8
Contour
 62
   7
 39
0.100
  6
CONTINUOUS
 10
221.89000
 20
19.36000
 30
 0
 40
0.50000
 50
226.05341
 51
43.94659
  0
LINE
  8
Contour
 62
   7
 39
0.100
  6
CONTINUOUS
 10
221.54300
 20
19.00000
 30
 0
 11
213.45700
 21
19.00000
  0
ARC
  8
Contour
 62
   7
 39
0.100
  6
CONTINUOUS
 10
213.11000
 20
19.36000
 30
 0
 40
0.50000
 50
136.05341
 51
-46.05341
  0
LINE
  8
Contour
 62
   7
 39
0.100
  6
CONTINUOUS
 10
212.75000
 20
19.70700
 30
 0
 11
212.75000
 21
36.29300
  0
ARC
  8
Contour
 62
   7
 39
0.100
  6
CONTINUOUS
 10
213.11000
 20
36.64000
 30
 0
 40
0.50000
 50
46.05341
 51
-136.05341
  0
LINE
  8
Contour
 62
   7
 39
0.100
  6
CONTINUOUS
 10
213.45700
 20
37.00000
 30
 0
 11
221.54300
 21
37.00000
  0
CIRCLE
  8
Contour
 62
   7
 39
0.100
  6
CONTINUOUS
 10
217.50000
 20
39.90000
 30
 0
 40
1.19500
  0
CIRCLE
  8
Contour
 62
   7
 39
0.100
  6
CONTINUOUS
 10
217.50000
 20
16.10000
 30
 0
 40
1.19500
  0
ARC
  8
Contour
 62
   7
 39
0.100
  6
CONTINUOUS
 10
201.39000
 20
43.64000
 30
 0
 40
0.50000
 50
316.05341
 51
133.94659
  0
LINE
  8
Contour
 62
   7
 39
0.100
  6
CONTINUOUS
 10
201.75000
 20
43.29300
 30
 0
 11
201.75000
 21
26.70700
  0
ARC
  8
Contour
 62
   7
 39
0.100
  6
CONTINUOUS
 10
201.39000
 20
26.36000
 30
 0
 40
0.50000
 50
226.05341
 51
43.94659
  0
LINE
  8
Contour
 62
   7
 39
0.100
  6
CONTINUOUS
 10
201.04300
 20
26.00000
 30
 0
 11
192.95700
 21
26.00000
  0
ARC
  8
Contour
 62
   7
 39
0.100
  6
CONTINUOUS
 10
192.61000
 20
26.36000
 30
 0
 40
0.50000
 50
136.05341
 51
-46.05341
  0
LINE
  8
Contour
 62
   7
 39
0.100
  6
CONTINUOUS
 10
192.25000
 20
26.70700
 30
 0
 11
192.25000
 21
43.29300
  0
ARC
  8
Contour
 62
   7
 39
0.100
  6
CONTINUOUS
 10
192.61000
 20
43.64000
 30
 0
 40
0.50000
 50
46.05341
 51
-136.05341
  0
LINE
  8
Contour
 62
   7
 39
0.100
  6
CONTINUOUS
 10
192.95700
 20
44.00000
 30
 0
 11
201.04300
 21
44.00000
  0
CIRCLE
  8
Contour
 62
   7
 39
0.100
  6
CONTINUOUS
 10
197.00000
 20
46.90000
 30
 0
 40
1.19500
  0
CIRCLE
  8
Contour
 62
   7
 39
0.100
  6
CONTINUOUS
 10
197.00000
 20
23.10000
 30
 0
 40
1.19500
  0
ARC
  8
Contour
 62
   7
 39
0.100
  6
CONTINUOUS
 10
176.86000
 20
17.39000
 30
 0
 40
0.50000
 50
46.05341
 51
-136.05341
  0
LINE
  8
Contour
 62
   7
 39
0.100
  6
CONTINUOUS
 10
177.20700
 20
17.75000
 30
 0
 11
193.79300
 21
17.75000
  0
ARC
  8
Contour
 62
   7
 39
0.100
  6
CONTINUOUS
 10
194.14000
 20
17.39000
 30
 0
 40
0.50000
 50
316.05341
 51
133.94659
  0
LINE
  8
Contour
 62
   7
 39
0.100
  6
CONTINUOUS
 10
194.50000
 20
17.04300
 30
 0
 11
194.50000
 21
8.95700
  0
ARC
  8
Contour
 62
   7
 39
0.100
  6
CONTINUOUS
 10
194.14000
 20
8.61000
 30
 0
 40
0.50000
 50
226.05341
 51
43.94659
  0
LINE
  8
Contour
 62
   7
 39
0.100
  6
CONTINUOUS
 10
193.79300
 20
8.25000
 30
 0
 11
177.20700
 21
8.25000
  0
ARC
  8
Contour
 62
   7
 39
0.100
  6
CONTINUOUS
 10
176.86000
 20
8.61000
 30
 0
 40
0.50000
 50
136.05341
 51
-46.05341
  0
LINE
  8
Contour
 62
   7
 39
0.100
  6
CONTINUOUS
 10
176.50000
 20
8.95700
 30
 0
 11
176.50000
 21
17.04300
  0
CIRCLE
  8
Contour
 62
   7
 39
0.100
  6
CONTINUOUS
 10
173.60000
 20
13.00000
 30
 0
 40
1.19500
  0
CIRCLE
  8
Contour
 62
   7
 39
0.100
  6
CONTINUOUS
 10
197.40000
 20
13.00000
 30
 0
 40
1.19500
  0
CIRCLE
  8
Contour
 62
   7
 39
0.100
  6
CONTINUOUS
 10
4.00000
 20
46.00000
 30
 0
 40
3.00000
  0
CIRCLE
  8
Contour
 62
   7
 39
0.100
  6
CONTINUOUS
 10
4.00000
 20
46.00000
 30
 0
 40
1.75000
  0
CIRCLE
  8
Contour
 62
   7
 39
0.100
  6
CONTINUOUS
 10
221.00000
 20
46.00000
 30
 0
 40
3.00000
  0
CIRCLE
  8
Contour
 62
   7
 39
0.100
  6
CONTINUOUS
 10
221.00000
 20
46.00000
 30
 0
 40
1.75000
  0
CIRCLE
  8
Contour
 62
   7
 39
0.100
  6
CONTINUOUS
 10
221.00000
 20
4.00000
 30
 0
 40
3.00000
  0
CIRCLE
  8
Contour
 62
   7
 39
0.100
  6
CONTINUOUS
 10
221.00000
 20
4.00000
 30
 0
 40
1.75000
  0
CIRCLE
  8
Contour
 62
   7
 39
0.100
  6
CONTINUOUS
 10
4.00000
 20
4.00000
 30
 0
 40
3.00000
  0
CIRCLE
  8
Contour
 62
   7
 39
0.100
  6
CONTINUOUS
 10
4.00000
 20
4.00000
 30
 0
 40
1.75000
  0
CIRCLE
  8
Contour
 62
   7
 39
0.100
  6
CONTINUOUS
 10
114.50000
 20
17.50000
 30
 0
 40
3.00000
  0
CIRCLE
  8
Contour
 62
   7
 39
0.100
  6
CONTINUOUS
 10
114.50000
 20
17.50000
 30
 0
 40
1.75000
  0
ENDSEC
  0
EOF
