<?xml version="1.0" standalone="no"?>
<!DOCTYPE svg PUBLIC "-//W3C//DTD SVG 1.1//EN" 
  "http://www.w3.org/Graphics/SVG/1.1/DTD/svg11.dtd">
<svg width="225.000mm" height="50.000mm" version="1.1"
     viewBox="0 0 225.000 50.000"
     xmlns="http://www.w3.org/2000/svg">
  <desc>Created with the Front Panel Designer by the export of the file 'A10C_UFC_R08.fpd'.</desc>
<g transform="scale(1,-1) translate(0, -50.000)" 
   fill-rule="evenodd"
   style="stroke-linecap:round; stroke-linejoin:round; stroke-opacity:1.0; stroke-opacity:1.0;">
<path d="M225.000 50.000 
L0.000 50.000
L0.000 50.000
L0.000 0.000
L0.000 0.000
L225.000 0.000
L225.000 0.000
L225.000 50.000
L225.000 50.000z"
fill="#000000" stroke="#000000" stroke-width="0.100" />
<path d="M17.781 35.663 
A0.593,0.593 0 0,1 17.431,35.888
A1.412,1.412 0 0,1 16.731,35.863
A0.668,0.668 0 0,1 16.381,35.613
A0.457,0.457 0 0,1 16.606,34.913
L17.481 34.613
A0.457,0.457 0 0,0 17.706,33.913
A0.669,0.669 0 0,0 17.356,33.663
A1.413,1.413 0 0,0 16.656,33.638
A0.593,0.593 0 0,0 16.306,33.863
M16.295 32.513 
L17.795 32.513
L17.045 32.513
L17.045 30.263
M16.295 28.013 L17.545 28.013
M17.795 29.138 
L16.295 29.138
L16.295 26.888
L17.795 26.888
M16.295 24.638 L17.545 24.638
M17.795 25.763 
L16.295 25.763
L16.295 23.513
L17.795 23.513
M16.295 20.138 
L16.295 22.388
L17.120 22.388
A0.563,0.563 0 0,0 17.120,21.263
L16.295 21.263
L17.170 21.263
L17.670 20.138"
fill="none" stroke="#ffffff" stroke-width="0.400" />
<path d="M6.856 43.660 L9.144 43.660
M8.000 42.516 L8.000 44.804"
fill="none" stroke="#ffffff" stroke-width="0.600" />
<path d="M6.856 12.990 L9.144 12.990"
fill="none" stroke="#ffffff" stroke-width="0.600" />
<path d="M25.163 36.270 
A0.593,0.593 0 0,1 24.813,36.495
A1.412,1.412 0 0,1 24.113,36.470
A0.668,0.668 0 0,1 23.763,36.220
A0.457,0.457 0 0,1 23.988,35.520
L24.863 35.220
A0.457,0.457 0 0,0 25.088,34.520
A0.669,0.669 0 0,0 24.738,34.270
A1.413,1.413 0 0,0 24.038,34.245
A0.593,0.593 0 0,0 23.688,34.470
M25.763 36.495 
L26.513 35.370
L26.513 34.245
L26.513 35.370
L27.263 36.495
M29.313 36.270 
A0.593,0.593 0 0,1 28.963,36.495
A1.412,1.412 0 0,1 28.263,36.470
A0.668,0.668 0 0,1 27.913,36.220
A0.457,0.457 0 0,1 28.138,35.520
L29.013 35.220
A0.457,0.457 0 0,0 29.238,34.520
A0.669,0.669 0 0,0 28.888,34.270
A1.413,1.413 0 0,0 28.188,34.245
A0.593,0.593 0 0,0 27.838,34.470"
fill="none" stroke="#ffffff" stroke-width="0.400" />
<path d="M39.025 34.244 
L39.025 36.494
L40.525 34.244
L40.525 36.494
M41.375 34.869 L42.625 34.869
M41.125 34.244 L42.000 36.494L42.875 34.244
M43.475 36.494 L44.225 34.244L44.975 36.494"
fill="none" stroke="#ffffff" stroke-width="0.400" />
<path d="M55.269 36.494 
L55.894 34.244
L56.519 36.494
L57.144 34.244
L57.769 36.494
M58.369 34.244 
L58.369 36.494
L59.194 36.494
A0.563,0.563 0 0,0 59.194,35.369
L58.369 35.369"
fill="none" stroke="#ffffff" stroke-width="0.400" />
<path d="M70.195 34.244 
L70.195 36.494
L71.020 36.494
A0.563,0.563 0 0,0 71.020,35.369
L70.195 35.369
M72.145 34.994 
A0.800,0.800 0 0,1 73.745,34.994
L73.745 35.744
A0.800,0.800 0 0,1 72.145,35.744
L72.145 34.994
M75.795 36.269 
A0.593,0.593 0 0,1 75.445,36.494
A1.412,1.412 0 0,1 74.745,36.469
A0.668,0.668 0 0,1 74.395,36.219
A0.457,0.457 0 0,1 74.620,35.519
L75.495 35.219
A0.457,0.457 0 0,0 75.720,34.519
A0.669,0.669 0 0,0 75.370,34.269
A1.413,1.413 0 0,0 74.670,34.244
A0.593,0.593 0 0,0 74.320,34.469"
fill="none" stroke="#ffffff" stroke-width="0.400" />
<path d="M22.575 19.175 
A0.800,0.800 0 0,1 24.175,19.175
L24.175 19.925
A0.800,0.800 0 0,1 22.575,19.925
L22.575 19.175
M26.225 20.450 
A0.593,0.593 0 0,1 25.875,20.675
A1.412,1.412 0 0,1 25.175,20.650
A0.668,0.668 0 0,1 24.825,20.400
A0.457,0.457 0 0,1 25.050,19.700
L25.925 19.400
A0.457,0.457 0 0,0 26.150,18.700
A0.669,0.669 0 0,0 25.800,18.450
A1.413,1.413 0 0,0 25.100,18.425
A0.593,0.593 0 0,0 24.750,18.650
M26.825 19.550 L28.075 19.550
M28.325 20.675 
L26.825 20.675
L26.825 18.425
L28.325 18.425
M28.925 20.675 
L30.425 20.675
L29.675 20.675
L29.675 18.425"
fill="none" stroke="#ffffff" stroke-width="0.400" />
<path d="M39.100 19.560 L40.350 19.560
M40.600 20.685 L39.100 20.685L39.100 18.435
M41.200 18.435 
L41.200 20.685
L42.025 20.685
A0.563,0.563 0 0,0 42.025,19.560
L41.200 19.560
M43.150 18.435 
L43.150 20.685
L44.025 19.060
L44.900 20.685
L44.900 18.435"
fill="none" stroke="#ffffff" stroke-width="0.400" />
<path d="M53.750 18.435 
L53.750 20.685
L54.575 20.685
A0.563,0.563 0 0,0 54.575,19.560
L53.750 19.560
M55.700 18.435 
L55.700 20.685
L56.525 20.685
A0.563,0.563 0 0,0 56.525,19.560
L55.700 19.560
L56.575 19.560
L57.075 18.435
M57.650 19.560 L58.900 19.560
M59.150 20.685 
L57.650 20.685
L57.650 18.435
L59.150 18.435
M59.750 20.685 L60.500 18.435L61.250 20.685"
fill="none" stroke="#ffffff" stroke-width="0.400" />
<path d="M69.606 20.461 
A0.593,0.593 0 0,1 69.256,20.686
A1.412,1.412 0 0,1 68.556,20.661
A0.668,0.668 0 0,1 68.206,20.411
A0.457,0.457 0 0,1 68.431,19.711
L69.306 19.411
A0.457,0.457 0 0,0 69.531,18.711
A0.669,0.669 0 0,0 69.181,18.461
A1.413,1.413 0 0,0 68.481,18.436
A0.593,0.593 0 0,0 68.131,18.661
M70.206 20.686 
L71.706 20.686
L70.956 20.686
L70.956 18.436
M72.306 19.561 L73.556 19.561
M73.806 20.686 
L72.306 20.686
L72.306 18.436
L73.806 18.436
M74.406 19.561 L75.656 19.561
M75.906 20.686 
L74.406 20.686
L74.406 18.436
L75.906 18.436
M76.506 18.436 
L76.506 20.686
L77.331 20.686
A0.563,0.563 0 0,0 77.331,19.561
L76.506 19.561
L77.381 19.561
L77.881 18.436"
fill="none" stroke="#ffffff" stroke-width="0.400" />
<path d="M21.625 3.702 L22.875 3.702
M23.125 4.827 L21.625 4.827L21.625 2.577
M23.725 2.577 
L23.725 4.827
L24.550 4.827
A0.563,0.563 0 0,0 24.550,3.702
L23.725 3.702
M25.675 4.827 L25.675 2.577L26.925 2.577
M27.775 3.202 L29.025 3.202
M27.525 2.577 L28.400 4.827L29.275 2.577
M29.875 2.577 
L29.875 4.827
L31.375 2.577
L31.375 4.827"
fill="none" stroke="#ffffff" stroke-width="0.400" />
<path d="M37.925 2.577 
L37.925 4.827
L38.800 3.202
L39.675 4.827
L39.675 2.577
M40.525 3.202 L41.775 3.202
M40.275 2.577 L41.150 4.827L42.025 2.577
M42.625 2.577 
L42.625 4.827
L43.450 4.827
A0.563,0.563 0 0,0 43.450,3.702
L42.625 3.702
L43.500 3.702
L44.000 2.577
M44.575 4.827 
L44.575 2.577
L44.575 3.427
L45.000 3.827
L46.075 2.577
L45.000 3.827
L46.075 4.827"
fill="none" stroke="#ffffff" stroke-width="0.400" />
<path d="M54.550 2.578 
L54.550 4.828
L55.425 3.203
L56.300 4.828
L56.300 2.578
M58.350 4.603 
A0.593,0.593 0 0,1 58.000,4.828
A1.412,1.412 0 0,1 57.300,4.803
A0.668,0.668 0 0,1 56.950,4.553
A0.457,0.457 0 0,1 57.175,3.853
L58.050 3.553
A0.457,0.457 0 0,0 58.275,2.853
A0.669,0.669 0 0,0 57.925,2.603
A1.413,1.413 0 0,0 57.225,2.578
A0.593,0.593 0 0,0 56.875,2.803
M58.950 2.578 
L58.950 4.828
L60.450 2.578
L60.450 4.828"
fill="none" stroke="#ffffff" stroke-width="0.400" />
<path d="M67.500 4.827 
L68.125 2.577
L68.750 4.827
L69.375 2.577
L70.000 4.827
M70.850 3.202 L72.100 3.202
M70.600 2.577 L71.475 4.827L72.350 2.577
M72.950 4.827 
L73.700 3.702
L73.700 2.577
L73.700 3.702
L74.450 4.827
M75.050 2.577 
L75.050 4.827
L75.875 4.827
A0.563,0.563 0 0,0 75.875,3.702
L75.050 3.702
M77.000 4.827 
L78.500 4.827
L77.750 4.827
L77.750 2.577"
fill="none" stroke="#ffffff" stroke-width="0.400" />
<path d="M84.475 2.577 
L84.475 4.827
L85.350 3.202
L86.225 4.827
L86.225 2.577
M87.075 3.202 L88.325 3.202
M86.825 2.577 L87.700 4.827L88.575 2.577
M89.175 4.827 L89.175 2.577L90.425 2.577
M91.025 3.702 L92.275 3.702
M92.525 4.827 L91.025 4.827L91.025 2.577"
fill="none" stroke="#ffffff" stroke-width="0.400" />
<path d="M100.175 20.694 
L100.175 19.144
A0.750,0.750 0 0,1 101.675,19.144
L101.675 20.694
M102.275 18.444 
L102.275 20.694
L103.100 20.694
A0.563,0.563 0 0,0 103.100,19.569
L102.275 19.569
M104.225 20.694 
L105.000 20.694
A0.754,0.754 0 0,0 105.725,19.944
L105.725 19.194
A0.724,0.724 0 0,0 105.000,18.444
L104.225 18.444
L104.225 20.694
M106.325 20.694 
L107.825 20.694
L107.075 20.694
L107.075 18.444"
fill="none" stroke="#ffffff" stroke-width="0.400" />
<path d="M181.300 21.885 L181.300 19.635
M181.900 19.635 
L181.900 21.885
L183.400 19.635
L183.400 21.885
M184.000 21.885 
L185.500 21.885
L184.750 21.885
L184.750 19.635
M186.100 20.760 L187.350 20.760
M187.600 21.885 
L186.100 21.885
L186.100 19.635
L187.600 19.635
M188.200 19.635 
L188.200 21.885
L189.700 19.635
L189.700 21.885"
fill="none" stroke="#ffffff" stroke-width="0.400" />
<path d="M188.378 42.350 L190.354 42.350
M189.366 41.362 L189.366 43.338"
fill="none" stroke="#ffffff" stroke-width="0.600" />
<path d="M188.487 27.191 L190.463 27.191"
fill="none" stroke="#ffffff" stroke-width="0.600" />
<path d="M207.716 33.635 
L208.491 33.635
A0.754,0.754 0 0,0 209.216,32.885
L209.216 32.135
A0.724,0.724 0 0,0 208.491,31.385
L207.716 31.385
L207.716 33.635
M207.716 29.135 L208.966 29.135
M209.216 30.260 
L207.716 30.260
L207.716 28.010
L209.216 28.010
M207.785 24.635 
L207.785 26.885
L208.610 26.885
A0.563,0.563 0 0,0 208.610,25.760
L207.785 25.760
M207.779 21.260 
L207.779 23.510
L208.604 23.510
A0.563,0.563 0 0,0 208.604,22.385
L207.779 22.385
L208.654 22.385
L209.154 21.260"
fill="none" stroke="#ffffff" stroke-width="0.400" />
<path d="M164.048 35.403 
L164.048 37.653
L164.873 37.653
A0.563,0.563 0 0,0 164.873,36.528
L164.048 36.528
M164.979 33.153 
L165.529 33.153
L165.529 32.778
A0.800,0.800 0 0,0 163.929,32.778
L163.929 33.528
A0.771,0.771 0 0,0 165.354,33.953"
fill="none" stroke="#ffffff" stroke-width="0.400" />
<path d="M0.000 -0.494 L0.351 1.450L0.702 -0.494
M0.351 1.450 L0.351 -1.547"
fill="none" stroke="#ffffff" stroke-width="0.400" transform="translate(164.027,41.785) scale(2.000,1.000) "/>
<path d="M0.000 0.424 L0.351 -1.520L0.702 0.424
M0.351 -1.520 L0.351 1.477"
fill="none" stroke="#ffffff" stroke-width="0.400" transform="translate(164.027,28.285) scale(2.000,1.000) "/>
<path d="M30.393 47.100 
A0.500,0.500 0 0,0 31.100,46.393
L31.100 38.607
A0.500,0.500 0 0,0 30.393,37.900
L22.607 37.900
A0.500,0.500 0 0,0 21.900,38.607
L21.900 46.393
A0.500,0.500 0 0,0 22.607,47.100
L30.393 47.100z"
fill="#ffffff" stroke="#000000" stroke-width="0.100" />
<path d="M45.893 47.100 
A0.500,0.500 0 0,0 46.600,46.393
L46.600 38.607
A0.500,0.500 0 0,0 45.893,37.900
L38.107 37.900
A0.500,0.500 0 0,0 37.400,38.607
L37.400 46.393
A0.500,0.500 0 0,0 38.107,47.100
L45.893 47.100z"
fill="#ffffff" stroke="#000000" stroke-width="0.100" />
<path d="M61.393 47.100 
A0.500,0.500 0 0,0 62.100,46.393
L62.100 38.607
A0.500,0.500 0 0,0 61.393,37.900
L53.607 37.900
A0.500,0.500 0 0,0 52.900,38.607
L52.900 46.393
A0.500,0.500 0 0,0 53.607,47.100
L61.393 47.100z"
fill="#ffffff" stroke="#000000" stroke-width="0.100" />
<path d="M76.893 47.100 
A0.500,0.500 0 0,0 77.600,46.393
L77.600 38.607
A0.500,0.500 0 0,0 76.893,37.900
L69.107 37.900
A0.500,0.500 0 0,0 68.400,38.607
L68.400 46.393
A0.500,0.500 0 0,0 69.107,47.100
L76.893 47.100z"
fill="#ffffff" stroke="#000000" stroke-width="0.100" />
<path d="M30.393 31.100 
A0.500,0.500 0 0,0 31.100,30.393
L31.100 22.607
A0.500,0.500 0 0,0 30.393,21.900
L22.607 21.900
A0.500,0.500 0 0,0 21.900,22.607
L21.900 30.393
A0.500,0.500 0 0,0 22.607,31.100
L30.393 31.100z"
fill="#ffffff" stroke="#000000" stroke-width="0.100" />
<path d="M45.893 31.100 
A0.500,0.500 0 0,0 46.600,30.393
L46.600 22.607
A0.500,0.500 0 0,0 45.893,21.900
L38.107 21.900
A0.500,0.500 0 0,0 37.400,22.607
L37.400 30.393
A0.500,0.500 0 0,0 38.107,31.100
L45.893 31.100z"
fill="#ffffff" stroke="#000000" stroke-width="0.100" />
<path d="M61.393 31.100 
A0.500,0.500 0 0,0 62.100,30.393
L62.100 22.607
A0.500,0.500 0 0,0 61.393,21.900
L53.607 21.900
A0.500,0.500 0 0,0 52.900,22.607
L52.900 30.393
A0.500,0.500 0 0,0 53.607,31.100
L61.393 31.100z"
fill="#ffffff" stroke="#000000" stroke-width="0.100" />
<path d="M76.893 31.100 
A0.500,0.500 0 0,0 77.600,30.393
L77.600 22.607
A0.500,0.500 0 0,0 76.893,21.900
L69.107 21.900
A0.500,0.500 0 0,0 68.400,22.607
L68.400 30.393
A0.500,0.500 0 0,0 69.107,31.100
L76.893 31.100z"
fill="#ffffff" stroke="#000000" stroke-width="0.100" />
<path d="M113.793 47.100 
A0.500,0.500 0 0,0 114.500,46.393
L114.500 38.607
A0.500,0.500 0 0,0 113.793,37.900
L100.207 37.900
A0.500,0.500 0 0,0 99.500,38.607
L99.500 46.393
A0.500,0.500 0 0,0 100.207,47.100
L113.793 47.100z"
fill="#ffffff" stroke="#000000" stroke-width="0.100" />
<path d="M150.493 47.400 
A0.500,0.500 0 0,0 151.200,46.693
L151.200 31.907
A0.500,0.500 0 0,0 150.493,31.200
L129.507 31.200
A0.500,0.500 0 0,0 128.800,31.907
L128.800 46.693
A0.500,0.500 0 0,0 129.507,47.400
L150.493 47.400z"
fill="#ffffff" stroke="#000000" stroke-width="0.100" />
<circle cx="88.500" cy="26.500" r="4.850"
fill="#ffffff" stroke="#000000" stroke-width="0.100" 
/>
<circle cx="88.500" cy="42.500" r="4.850"
fill="#ffffff" stroke="#000000" stroke-width="0.100" 
/>
<path d="M12.043 37.000 
A0.500,0.500 0 0,0 12.750,36.293
L12.750 19.707
A0.500,0.500 0 0,0 12.043,19.000
L3.957 19.000
A0.500,0.500 0 0,0 3.250,19.707
L3.250 36.293
A0.500,0.500 0 0,0 3.957,37.000
L12.043 37.000z"
fill="#ffffff" stroke="#000000" stroke-width="0.100" />
<circle cx="8.000" cy="39.900" r="1.195"
fill="#ffffff" stroke="#000000" stroke-width="0.100" 
/>
<circle cx="8.000" cy="16.100" r="1.195"
fill="#ffffff" stroke="#000000" stroke-width="0.100" 
/>
<path d="M30.393 15.100 
A0.500,0.500 0 0,0 31.100,14.393
L31.100 6.607
A0.500,0.500 0 0,0 30.393,5.900
L22.607 5.900
A0.500,0.500 0 0,0 21.900,6.607
L21.900 14.393
A0.500,0.500 0 0,0 22.607,15.100
L30.393 15.100z"
fill="#ffffff" stroke="#000000" stroke-width="0.100" />
<path d="M45.893 15.100 
A0.500,0.500 0 0,0 46.600,14.393
L46.600 6.607
A0.500,0.500 0 0,0 45.893,5.900
L38.107 5.900
A0.500,0.500 0 0,0 37.400,6.607
L37.400 14.393
A0.500,0.500 0 0,0 38.107,15.100
L45.893 15.100z"
fill="#ffffff" stroke="#000000" stroke-width="0.100" />
<path d="M61.393 15.100 
A0.500,0.500 0 0,0 62.100,14.393
L62.100 6.607
A0.500,0.500 0 0,0 61.393,5.900
L53.607 5.900
A0.500,0.500 0 0,0 52.900,6.607
L52.900 14.393
A0.500,0.500 0 0,0 53.607,15.100
L61.393 15.100z"
fill="#ffffff" stroke="#000000" stroke-width="0.100" />
<path d="M76.893 15.100 
A0.500,0.500 0 0,0 77.600,14.393
L77.600 6.607
A0.500,0.500 0 0,0 76.893,5.900
L69.107 5.900
A0.500,0.500 0 0,0 68.400,6.607
L68.400 14.393
A0.500,0.500 0 0,0 69.107,15.100
L76.893 15.100z"
fill="#ffffff" stroke="#000000" stroke-width="0.100" />
<path d="M107.893 31.100 
A0.500,0.500 0 0,0 108.600,30.393
L108.600 22.607
A0.500,0.500 0 0,0 107.893,21.900
L100.107 21.900
A0.500,0.500 0 0,0 99.400,22.607
L99.400 30.393
A0.500,0.500 0 0,0 100.107,31.100
L107.893 31.100z"
fill="#ffffff" stroke="#000000" stroke-width="0.100" />
<path d="M92.393 15.100 
A0.500,0.500 0 0,0 93.100,14.393
L93.100 6.607
A0.500,0.500 0 0,0 92.393,5.900
L84.607 5.900
A0.500,0.500 0 0,0 83.900,6.607
L83.900 14.393
A0.500,0.500 0 0,0 84.607,15.100
L92.393 15.100z"
fill="#ffffff" stroke="#000000" stroke-width="0.100" />
<path d="M107.893 15.100 
A0.500,0.500 0 0,0 108.600,14.393
L108.600 6.607
A0.500,0.500 0 0,0 107.893,5.900
L100.107 5.900
A0.500,0.500 0 0,0 99.400,6.607
L99.400 14.393
A0.500,0.500 0 0,0 100.107,15.100
L107.893 15.100z"
fill="#ffffff" stroke="#000000" stroke-width="0.100" />
<path d="M128.393 28.600 
A0.500,0.500 0 0,0 129.100,27.893
L129.100 20.107
A0.500,0.500 0 0,0 128.393,19.400
L120.607 19.400
A0.500,0.500 0 0,0 119.900,20.107
L119.900 27.893
A0.500,0.500 0 0,0 120.607,28.600
L128.393 28.600z"
fill="#ffffff" stroke="#000000" stroke-width="0.100" />
<path d="M143.893 28.600 
A0.500,0.500 0 0,0 144.600,27.893
L144.600 20.107
A0.500,0.500 0 0,0 143.893,19.400
L136.107 19.400
A0.500,0.500 0 0,0 135.400,20.107
L135.400 27.893
A0.500,0.500 0 0,0 136.107,28.600
L143.893 28.600z"
fill="#ffffff" stroke="#000000" stroke-width="0.100" />
<path d="M159.393 28.600 
A0.500,0.500 0 0,0 160.100,27.893
L160.100 20.107
A0.500,0.500 0 0,0 159.393,19.400
L151.607 19.400
A0.500,0.500 0 0,0 150.900,20.107
L150.900 27.893
A0.500,0.500 0 0,0 151.607,28.600
L159.393 28.600z"
fill="#ffffff" stroke="#000000" stroke-width="0.100" />
<path d="M128.393 12.600 
A0.500,0.500 0 0,0 129.100,11.893
L129.100 4.107
A0.500,0.500 0 0,0 128.393,3.400
L120.607 3.400
A0.500,0.500 0 0,0 119.900,4.107
L119.900 11.893
A0.500,0.500 0 0,0 120.607,12.600
L128.393 12.600z"
fill="#ffffff" stroke="#000000" stroke-width="0.100" />
<path d="M143.893 12.600 
A0.500,0.500 0 0,0 144.600,11.893
L144.600 4.107
A0.500,0.500 0 0,0 143.893,3.400
L136.107 3.400
A0.500,0.500 0 0,0 135.400,4.107
L135.400 11.893
A0.500,0.500 0 0,0 136.107,12.600
L143.893 12.600z"
fill="#ffffff" stroke="#000000" stroke-width="0.100" />
<path d="M159.393 12.600 
A0.500,0.500 0 0,0 160.100,11.893
L160.100 4.107
A0.500,0.500 0 0,0 159.393,3.400
L151.607 3.400
A0.500,0.500 0 0,0 150.900,4.107
L150.900 11.893
A0.500,0.500 0 0,0 151.607,12.600
L159.393 12.600z"
fill="#ffffff" stroke="#000000" stroke-width="0.100" />
<path d="M178.043 44.000 
A0.500,0.500 0 0,0 178.750,43.293
L178.750 26.707
A0.500,0.500 0 0,0 178.043,26.000
L169.957 26.000
A0.500,0.500 0 0,0 169.250,26.707
L169.250 43.293
A0.500,0.500 0 0,0 169.957,44.000
L178.043 44.000z"
fill="#ffffff" stroke="#000000" stroke-width="0.100" />
<circle cx="174.000" cy="46.900" r="1.195"
fill="#ffffff" stroke="#000000" stroke-width="0.100" 
/>
<circle cx="174.000" cy="23.100" r="1.195"
fill="#ffffff" stroke="#000000" stroke-width="0.100" 
/>
<path d="M221.543 37.000 
A0.500,0.500 0 0,0 222.250,36.293
L222.250 19.707
A0.500,0.500 0 0,0 221.543,19.000
L213.457 19.000
A0.500,0.500 0 0,0 212.750,19.707
L212.750 36.293
A0.500,0.500 0 0,0 213.457,37.000
L221.543 37.000z"
fill="#ffffff" stroke="#000000" stroke-width="0.100" />
<circle cx="217.500" cy="39.900" r="1.195"
fill="#ffffff" stroke="#000000" stroke-width="0.100" 
/>
<circle cx="217.500" cy="16.100" r="1.195"
fill="#ffffff" stroke="#000000" stroke-width="0.100" 
/>
<path d="M201.043 44.000 
A0.500,0.500 0 0,0 201.750,43.293
L201.750 26.707
A0.500,0.500 0 0,0 201.043,26.000
L192.957 26.000
A0.500,0.500 0 0,0 192.250,26.707
L192.250 43.293
A0.500,0.500 0 0,0 192.957,44.000
L201.043 44.000z"
fill="#ffffff" stroke="#000000" stroke-width="0.100" />
<circle cx="197.000" cy="46.900" r="1.195"
fill="#ffffff" stroke="#000000" stroke-width="0.100" 
/>
<circle cx="197.000" cy="23.100" r="1.195"
fill="#ffffff" stroke="#000000" stroke-width="0.100" 
/>
<path d="M176.500 17.043 
A0.500,0.500 0 0,0 177.207,17.750
L193.793 17.750
A0.500,0.500 0 0,0 194.500,17.043
L194.500 8.957
A0.500,0.500 0 0,0 193.793,8.250
L177.207 8.250
A0.500,0.500 0 0,0 176.500,8.957
L176.500 17.043z"
fill="#ffffff" stroke="#000000" stroke-width="0.100" />
<circle cx="173.600" cy="13.000" r="1.195"
fill="#ffffff" stroke="#000000" stroke-width="0.100" 
/>
<circle cx="197.400" cy="13.000" r="1.195"
fill="#ffffff" stroke="#000000" stroke-width="0.100" 
/>
<circle cx="4.000" cy="46.000" r="3.000"
fill="#e0e0e0" stroke="#000000" stroke-width="0.100" 
/>
<circle cx="4.000" cy="46.000" r="1.750"
fill="#ffffff" stroke="#000000" stroke-width="0.100" 
/>
<circle cx="221.000" cy="46.000" r="3.000"
fill="#e0e0e0" stroke="#000000" stroke-width="0.100" 
/>
<circle cx="221.000" cy="46.000" r="1.750"
fill="#ffffff" stroke="#000000" stroke-width="0.100" 
/>
<circle cx="221.000" cy="4.000" r="3.000"
fill="#e0e0e0" stroke="#000000" stroke-width="0.100" 
/>
<circle cx="221.000" cy="4.000" r="1.750"
fill="#ffffff" stroke="#000000" stroke-width="0.100" 
/>
<circle cx="4.000" cy="4.000" r="3.000"
fill="#e0e0e0" stroke="#000000" stroke-width="0.100" 
/>
<circle cx="4.000" cy="4.000" r="1.750"
fill="#ffffff" stroke="#000000" stroke-width="0.100" 
/>
<circle cx="114.500" cy="17.500" r="3.000"
fill="#e0e0e0" stroke="#000000" stroke-width="0.100" 
/>
<circle cx="114.500" cy="17.500" r="1.750"
fill="#ffffff" stroke="#000000" stroke-width="0.100" 
/>
</g>
</svg>
