<?xml version="1.0" encoding="UTF-8" standalone="no"?>
<!DOCTYPE svg PUBLIC "-//W3C//DTD SVG 1.1//EN" "http://www.w3.org/Graphics/SVG/1.1/DTD/svg11.dtd">
<!-- Generated by Microsoft Visio, SVG Export Base Panel Shape.svg Page-1 -->
<svg xmlns="http://www.w3.org/2000/svg" xmlns:xlink="http://www.w3.org/1999/xlink" xmlns:ev="http://www.w3.org/2001/xml-events"
		xmlns:v="http://schemas.microsoft.com/visio/2003/SVGExtensions/" width="5.75941in" height="3.75127in"
		viewBox="0 0 414.678 270.092" xml:space="preserve" color-interpolation-filters="sRGB" class="st2">
	<v:documentProperties v:langID="2057" v:metric="true" v:viewMarkup="false"/>

	<style type="text/css">
	<![CDATA[
		.st1 {stroke:#000000;stroke-linecap:round;stroke-linejoin:round;stroke-width:0.75}
		.st2 {fill:none;fill-rule:evenodd;font-size:12px;overflow:visible;stroke-linecap:square;stroke-miterlimit:3}
	]]>
	</style>

	<g v:mID="0" v:index="1" v:groupContext="foregroundPage">
		<title>Page-1</title>
		<v:pageProperties v:drawingScale="0.0393701" v:pageScale="0.0393701" v:drawingUnits="24" v:shadowOffsetX="8.50394"
				v:shadowOffsetY="-8.50394"/>
		<g id="shape90-1" v:mID="90" v:groupContext="shape" transform="translate(0.375,-0.375)">
			<title>Sheet.90</title>
			<path d="M413.86 236.05 A2.5055 2.25095 90 0 1 411.31 238.89 L401.13 238.89 A18.3486 16.9372 -45 0 0 382.7 257.31 L382.7
						 267.23 A2.5055 2.5055 135 0 1 379.87 270.07 L34.04 270.07 A2.50115 2.50115 45 0 1 31.23 267.23 L31.23 255.89
						 A16.9372 16.9372 -135 0 0 14.22 238.89 L2.88 238.89 A2.5055 2.5055 0 0 1 0.05 236.05 L0.02 199.2 A3.01741
						 3.01741 135 0 1 2.86 196.37 L14.2 196.37 A15.6515 15.6515 -180 1 0 14.2 165.18 L2.86 165.18 A2.90638 2.90638
						 135 0 1 0.02 162.35 L0 105.66 A3.01741 3.01741 135 0 1 2.83 102.82 L14.17 102.82 A15.6515 15.6515 -180 1
						 0 14.17 71.64 L2.83 71.64 A2.90638 2.90638 135 0 1 -0 68.81 L0.02 34.79 A2.537 2.51466 0 0 1 2.88 31.98
						 L14.22 31.98 A16.9372 16.9371 -135.08 0 0 31.2 14.95 L31.2 3.61 A2.5055 2.5055 135 0 1 34.04 0.78 L379.87
						 0.78 A2.53305 2.2757 0 0 1 382.68 3.34 L382.68 13.53 A18.5718 16.9372 -135.68 0 0 401.55 31.96 L411.05 31.96
						 A2.5055 2.5055 45 0 1 413.88 34.79 L413.9 68.81 A2.86495 2.86495 45 0 1 411.09 71.64 L399.75 71.64 A15.6515
						 15.6515 -180 1 0 399.75 102.82 L411.09 102.82 A3.01741 3.01741 45 0 1 413.93 105.66 L413.9 162.35 A2.90638
						 2.90638 45 0 1 411.07 165.18 L399.73 165.18 A15.6515 15.6515 -180 1 0 399.73 196.37 L411.07 196.37 A3.01741
						 3.01741 45 0 1 413.9 199.2 L413.9 236.05" class="st1"/>
		</g>
	</g>
</svg>
